<?xml version="1.0" standalone="no"?>
<!DOCTYPE svg PUBLIC "-//W3C//DTD SVG 1.1//EN" "http://www.w3.org/Graphics/SVG/1.1/DTD/svg11.dtd" >
<svg xmlns="http://www.w3.org/2000/svg" xmlns:xlink="http://www.w3.org/1999/xlink" version="1.1">
<metadata>
Created by FontForge 20161116 at Tue Apr 11 16:22:45 2000
 By Jimmy Wärting
Copyright 1998 by (URW)++ Design &#38; Development GmbH
</metadata>
<defs>
<font id="CorporateS-Bold" horiz-adv-x="1024" vert-adv-y="2048" >
  <font-face 
    font-family="CorpoSDem"
    font-weight="700"
    font-stretch="normal"
    units-per-em="2048"
    panose-1="0 0 0 0 0 0 0 0 0 0"
    ascent="1638"
    descent="-410"
    x-height="973"
    cap-height="1365"
    bbox="-346 -606 2076 1853"
    underline-thickness="227"
    underline-position="-325"
    unicode-range="U+0020-FB04"
  />
<missing-glyph horiz-adv-x="512" vert-adv-y="2308" 
d="M51 0v1365h410v-1365h-410zM410 51v1263h-308v-1263h308z" />
    <glyph glyph-name=".notdef" horiz-adv-x="512" vert-adv-y="2308" 
d="M51 0v1365h410v-1365h-410zM410 51v1263h-308v-1263h308z" />
    <glyph glyph-name="glyph1" horiz-adv-x="0" vert-adv-y="0" 
 />
    <glyph glyph-name="glyph2" horiz-adv-x="512" vert-adv-y="2308" 
 />
    <glyph glyph-name="space" unicode=" " horiz-adv-x="512" vert-adv-y="2308" 
 />
    <glyph glyph-name="exclam" unicode="!" horiz-adv-x="516" vert-adv-y="2308" 
d="M123 1331h270l-28 -878h-216zM259 298q63 0 109 -46t46 -111q0 -64 -46 -110t-111 -46q-64 0 -110 46t-46 110q0 66 46 111q47 46 112 46z" />
    <glyph glyph-name="quotedbl" unicode="&#x22;" vert-adv-y="2308" 
d="M419 817h-152l-47 548h246zM758 817h-153l-46 548h246z" />
    <glyph glyph-name="numbersign" unicode="#" horiz-adv-x="1229" vert-adv-y="2308" 
d="M1158 577l-26 -170h-240l-65 -407h-198l65 407h-250l-64 -407h-198l64 407h-234l27 170h234l38 238h-233l26 170h234l60 380h198l-60 -380h248l60 380h199l-60 -380h240l-27 -170h-240l-38 -238h240zM757 815h-248l-38 -238h248z" />
    <glyph glyph-name="dollar" unicode="$" horiz-adv-x="1167" vert-adv-y="2308" 
d="M646 1166v-347q177 -56 249 -96q201 -112 201 -331q0 -152 -97 -263q-119 -136 -353 -153v-182h-125v183q-178 18 -282 94q-80 58 -123 150q-45 95 -45 209v25h246q9 -128 59 -182q55 -60 145 -77v398q-187 61 -249 96q-170 98 -170 305q0 161 105 266q110 110 314 129
v154h125v-157q154 -20 256 -100q146 -115 146 -300q0 -3 -1 -14h-241q-16 154 -160 193zM521 1168q-169 -35 -169 -152q0 -76 67 -116q30 -18 102 -41v309zM646 191q69 7 111 32q84 49 84 144q0 86 -74 135q-29 20 -121 50v-361z" />
    <glyph glyph-name="percent" unicode="%" horiz-adv-x="1460" vert-adv-y="2308" 
d="M1024 1365h200l-791 -1365h-201zM1108 650q59 0 121 -32q86 -44 129 -136q36 -77 36 -162q0 -156 -100 -252q-81 -78 -189 -78q-119 0 -203 94q-85 95 -85 236q0 85 36 162q43 91 129 136q61 32 126 32zM1104 510q-58 0 -94 -55q-34 -51 -34 -135q0 -90 39 -142
q36 -48 91 -48q58 0 95 55q34 51 34 135q0 90 -39 142q-36 48 -92 48zM357 1375q59 0 121 -32q86 -44 129 -136q36 -77 36 -162q0 -156 -100 -252q-82 -78 -189 -78q-119 0 -203 94q-85 95 -85 236q0 85 36 162q43 92 129 136q62 32 126 32zM353 1235q-58 0 -94 -55
q-34 -52 -34 -135q0 -90 39 -142q36 -48 90 -48q60 0 96 55q34 52 34 135q0 90 -39 142q-36 48 -92 48z" />
    <glyph glyph-name="ampersand" unicode="&#x26;" horiz-adv-x="1188" vert-adv-y="2308" 
d="M875 682h197q2 -54 2 -81q0 -224 -109 -367l175 -234h-260l-57 90q-57 -51 -110 -74q-88 -39 -210 -39q-176 0 -294 88q-154 114 -154 308q0 123 74 221q42 57 173 174q-63 81 -88 119q-52 79 -52 168q0 134 102 213q96 74 231 74q136 0 223 -75q94 -81 94 -214
q0 -125 -85 -221q-41 -45 -115 -108l226 -307q39 75 39 186q0 29 -2 79zM482 872q7 5 13 11q111 97 111 178q0 51 -39 76q-30 20 -68 20q-46 0 -78 -27q-32 -28 -32 -73q0 -48 28 -95q19 -31 65 -90zM439 587q-41 -35 -71 -64q-84 -86 -84 -167q0 -76 58 -126
q60 -51 165 -51q117 0 189 68z" />
    <glyph glyph-name="quotesingle" unicode="'" horiz-adv-x="512" vert-adv-y="2308" 
d="M332 817h-152l-47 548h246z" />
    <glyph glyph-name="parenleft" unicode="(" horiz-adv-x="626" vert-adv-y="2308" 
d="M370 1377h190q-215 -340 -215 -884q0 -566 215 -903h-190q-85 120 -136 251q-112 290 -112 641q0 537 248 895z" />
    <glyph glyph-name="parenright" unicode=")" horiz-adv-x="626" vert-adv-y="2308" 
d="M256 -410h-190q215 337 215 883q0 565 -215 904h190q248 -353 248 -892q0 -540 -248 -895z" />
    <glyph glyph-name="asterisk" unicode="*" vert-adv-y="2308" 
d="M457 1088v243h111v-243l230 75l35 -105l-231 -75l143 -196l-90 -66l-143 197l-142 -197l-90 66l143 196l-231 75l34 105z" />
    <glyph glyph-name="plus" unicode="+" horiz-adv-x="1167" vert-adv-y="2308" 
d="M683 779h387v-192h-387v-402h-199v402h-387v192h387v401h199v-401z" />
    <glyph glyph-name="comma" unicode="," horiz-adv-x="515" vert-adv-y="2308" 
d="M176 -465h-130q77 106 130 239q46 124 51 231q-151 20 -151 141q0 65 48 110q47 43 113 43q74 0 120 -58q47 -58 47 -159q0 -155 -89 -325q-52 -99 -139 -222z" />
    <glyph glyph-name="hyphen" unicode="-" horiz-adv-x="535" vert-adv-y="2308" 
d="M0 607h535v-182h-535v182z" />
    <glyph glyph-name="period" unicode="." horiz-adv-x="515" vert-adv-y="2308" 
d="M258 298q63 0 109 -46t46 -111q0 -64 -46 -110t-111 -46q-64 0 -110 46t-46 110q0 66 46 111q47 46 112 46z" />
    <glyph glyph-name="slash" unicode="/" horiz-adv-x="1140" vert-adv-y="2308" 
d="M43 -398l865 1763h189l-864 -1763h-190z" />
    <glyph glyph-name="zero" unicode="0" horiz-adv-x="1167" vert-adv-y="2308" 
d="M590 1363q141 0 251 -81q229 -169 229 -611q0 -328 -133 -514q-128 -178 -354 -178t-353 178q-133 187 -133 511q0 335 133 517q130 178 360 178zM580 1153q-91 0 -142 -81q-85 -138 -85 -401q0 -262 85 -400q51 -81 145 -81q96 0 145 81q86 139 86 397q0 269 -86 404
q-51 81 -148 81z" />
    <glyph glyph-name="one" unicode="1" horiz-adv-x="1167" vert-adv-y="2308" 
d="M339 956v140q135 0 218 64q70 55 98 177h174v-1337h-256v956h-234z" />
    <glyph glyph-name="two" unicode="2" horiz-adv-x="1167" vert-adv-y="2308" 
d="M388 957h-213q-2 154 76 255q117 151 345 151q193 0 307 -105q103 -94 103 -252q0 -103 -50 -194q-61 -108 -246 -324q-126 -147 -228 -254h533v-234h-862v206l24 27q317 360 433 505q137 170 137 262q0 58 -44 99q-46 42 -118 42q-109 0 -161 -79q-28 -41 -36 -105z" />
    <glyph glyph-name="three" unicode="3" horiz-adv-x="1167" vert-adv-y="2308" 
d="M387 978h-216q5 163 100 263q114 122 333 122q178 0 282 -89q116 -99 116 -267q0 -214 -216 -298q235 -66 235 -312q0 -196 -141 -315q-122 -103 -314 -103q-153 0 -267 61q-194 104 -194 360h229q1 -80 46 -133q58 -68 179 -68q98 0 151 50q59 54 59 147q0 94 -68 143
q-57 41 -188 47q-55 3 -113 3v206q35 -1 51 -1q133 0 200 35q45 24 70 67q26 43 26 91q0 72 -51 116q-47 41 -121 41q-162 0 -188 -166z" />
    <glyph glyph-name="four" unicode="4" horiz-adv-x="1167" vert-adv-y="2308" 
d="M860 480h240v-204h-234v-293h-257v293h-552v203l510 858h293v-857zM622 480v579l-327 -579h327z" />
    <glyph glyph-name="five" unicode="5" horiz-adv-x="1167" vert-adv-y="2308" 
d="M286 1331h669l-14 -228h-471l-53 -259q97 58 207 58q207 0 327 -151q91 -114 91 -285q0 -227 -149 -366q-129 -121 -321 -121q-237 0 -357 154q-80 103 -89 245h240q26 -177 197 -177q95 0 149 63q63 74 63 191q0 110 -59 181q-51 61 -139 61q-114 0 -206 -108l-218 32z
" />
    <glyph glyph-name="six" unicode="6" horiz-adv-x="1167" vert-adv-y="2308" 
d="M598 1352h278q-238 -296 -327 -438q55 7 89 7q195 0 311 -140q100 -122 100 -312q0 -237 -161 -381q-122 -109 -297 -109q-202 0 -332 132q-141 142 -141 364q0 236 173 498q82 124 235 297q25 28 72 82zM581 725q-79 0 -136 -57q-71 -73 -71 -208t71 -207
q57 -58 138 -58q82 0 139 58q71 72 71 206q0 135 -71 209q-56 57 -141 57z" />
    <glyph glyph-name="seven" unicode="7" horiz-adv-x="1167" vert-adv-y="2308" 
d="M189 1331h904v-193l-630 -1138h-281l604 1088h-597v243z" />
    <glyph glyph-name="eight" unicode="8" horiz-adv-x="1167" vert-adv-y="2308" 
d="M291 703q-149 93 -149 267q0 187 151 301q123 92 290 92q168 0 291 -92q151 -114 151 -301q0 -175 -149 -267q176 -102 176 -303q0 -199 -155 -320q-130 -101 -313 -101t-313 101q-155 121 -155 321q0 199 175 302zM582 1158q-77 0 -129 -47q-55 -50 -55 -133
q0 -82 55 -132q52 -47 132 -47q79 0 131 47q55 49 55 132q0 85 -55 133q-53 47 -134 47zM582 595q-65 0 -122 -34q-88 -53 -88 -172q0 -118 88 -171q57 -34 124 -34t123 34q89 53 89 171q0 119 -89 172q-56 34 -125 34z" />
    <glyph glyph-name="nine" unicode="9" horiz-adv-x="1167" vert-adv-y="2308" 
d="M565 -21h-277l17 21q197 252 248 324q34 50 65 99q-50 -7 -89 -7q-191 0 -309 142q-102 122 -102 307q0 246 161 388q125 110 304 110q184 0 309 -114q157 -143 157 -386q0 -216 -137 -443q-73 -122 -164 -232q-17 -21 -161 -183zM581 1147q-79 0 -136 -57
q-71 -73 -71 -211q0 -135 71 -209q56 -58 138 -58q83 0 139 58q71 74 71 208q0 138 -71 212q-56 57 -141 57z" />
    <glyph glyph-name="colon" unicode=":" horiz-adv-x="515" vert-adv-y="2308" 
d="M258 298q63 0 109 -46t46 -111q0 -64 -46 -110t-111 -46q-64 0 -110 46t-46 110q0 66 46 111q47 46 112 46zM259 976q62 0 108 -46t46 -110q0 -65 -46 -111t-111 -46q-64 0 -110 46t-46 110q0 66 46 111q47 46 113 46z" />
    <glyph glyph-name="semicolon" unicode=";" horiz-adv-x="515" vert-adv-y="2308" 
d="M242 976q62 0 108 -46t46 -110q0 -65 -46 -111t-111 -46q-64 0 -110 46t-46 110q0 66 46 111q47 46 113 46zM176 -465h-130q77 106 130 239q46 124 51 231q-151 20 -151 141q0 65 48 110q47 43 113 43q74 0 120 -58q47 -58 47 -159q0 -155 -89 -325q-52 -99 -139 -222z
" />
    <glyph glyph-name="less" unicode="&#x3c;" vert-adv-y="2308" 
d="M955 1251v-251l-620 -304l620 -306v-248l-887 448v213z" />
    <glyph glyph-name="equal" unicode="=" horiz-adv-x="1167" vert-adv-y="2308" 
d="M97 949h973v-192h-973v192zM97 608h973v-192h-973v192z" />
    <glyph glyph-name="greater" unicode="&#x3e;" vert-adv-y="2308" 
d="M69 141v250l620 305l-620 305v249l887 -449v-212z" />
    <glyph glyph-name="question" unicode="?" horiz-adv-x="855" vert-adv-y="2308" 
d="M439 298q63 0 109 -46t46 -111q0 -64 -46 -110t-111 -46t-110 46q-46 46 -46 110q0 66 46 111q47 46 112 46zM552 444h-232v23q1 140 14 194q16 65 118 175q78 84 93 112q21 40 21 79q0 52 -35 83q-33 28 -84 28q-83 0 -121 -66q-21 -38 -23 -99h-199q2 74 12 122
q28 144 157 215q87 47 208 47q164 0 255 -82q94 -84 94 -229q0 -106 -57 -186q-33 -45 -107 -127q-84 -92 -99 -127q-15 -37 -15 -114v-31v-17z" />
    <glyph glyph-name="at" unicode="@" horiz-adv-x="1502" vert-adv-y="2308" 
d="M975 1010h175l-77 -397q-14 -71 -14 -94q0 -41 18 -65q11 -16 31 -16q51 0 99 72q78 118 78 275q0 206 -142 333q-136 120 -356 120q-239 0 -393 -158q-161 -167 -161 -413q0 -241 152 -394q80 -80 181 -111q110 -35 247 -35q179 0 365 66l39 -156q-188 -64 -408 -64
q-334 0 -532 183q-105 98 -162 238q-52 131 -52 276q0 211 107 387q105 172 283 260q149 74 330 74q271 0 452 -154q104 -89 157 -216q47 -111 47 -236q0 -187 -96 -332q-64 -97 -149 -136q-49 -23 -94 -23q-74 0 -123 59q-22 26 -36 72q-93 -131 -243 -131q-135 0 -219 91
q-85 92 -85 237q0 171 118 298q103 112 242 112q137 0 204 -106zM783 856q-89 0 -146 -86q-44 -66 -44 -149q0 -66 31 -108q40 -53 114 -53q89 0 138 87q38 68 38 151q0 66 -28 107q-35 51 -103 51z" />
    <glyph glyph-name="A" unicode="A" horiz-adv-x="1232" vert-adv-y="2308" 
d="M481 1365h267l464 -1365h-271l-84 284h-483l-85 -284h-269zM790 508l-176 557l-173 -557h349z" />
    <glyph glyph-name="B" unicode="B" horiz-adv-x="1205" vert-adv-y="2308" 
d="M164 1365h366q218 0 318 -34q106 -36 163 -127q50 -79 50 -183q0 -137 -83 -215q-47 -44 -141 -73q299 -68 299 -339q0 -171 -118 -279q-101 -93 -287 -109q-75 -6 -245 -6h-322v1365zM421 815h113q129 0 186 23q85 36 85 146q0 108 -82 144q-56 24 -204 24h-98v-337z
M421 213h118q182 0 240 26q90 41 90 170q0 132 -103 173q-63 26 -221 26h-124v-395z" />
    <glyph glyph-name="C" unicode="C" horiz-adv-x="1228" vert-adv-y="2308" 
d="M1155 922h-226q-14 89 -57 149q-67 94 -197 94q-149 0 -236 -124q-93 -135 -93 -360q0 -216 87 -348t245 -132q236 0 260 306h235q-9 -195 -72 -309q-123 -224 -413 -224q-249 0 -413 156q-202 192 -202 545q0 381 218 575q159 141 384 141q153 0 267 -66
q196 -114 213 -403z" />
    <glyph glyph-name="D" unicode="D" horiz-adv-x="1322" vert-adv-y="2308" 
d="M164 1365h334q287 0 426 -71q156 -79 245 -250q81 -158 81 -359q0 -281 -151 -476q-128 -166 -356 -196q-97 -13 -286 -13h-293v1365zM427 224h120q110 0 174 13q127 27 188 134q74 131 74 316q0 171 -67 290q-71 125 -218 152q-64 12 -214 12h-57v-917z" />
    <glyph glyph-name="E" unicode="E" horiz-adv-x="1099" vert-adv-y="2308" 
d="M427 819h542v-224h-542v-371h618v-224h-881v1365h859v-224h-596v-322z" />
    <glyph glyph-name="F" unicode="F" horiz-adv-x="1060" vert-adv-y="2308" 
d="M427 819h542v-224h-542v-595h-263v1365h859v-224h-596v-322z" />
    <glyph glyph-name="G" unicode="G" horiz-adv-x="1313" vert-adv-y="2308" 
d="M714 704h490v-567q-236 -163 -501 -163q-276 0 -446 176q-184 190 -184 532q0 347 190 541q166 168 419 168q157 0 279 -68q145 -81 196 -236q22 -64 27 -161h-226q-34 239 -270 239q-155 0 -240 -110q-102 -134 -102 -375q0 -224 92 -354q89 -125 263 -125q98 0 208 46
q44 19 78 43v219h-273v195z" />
    <glyph glyph-name="H" unicode="H" horiz-adv-x="1395" vert-adv-y="2308" 
d="M427 820h541v545h263v-1365h-263v603h-541v-603h-263v1365h263v-545z" />
    <glyph glyph-name="I" unicode="I" horiz-adv-x="591" vert-adv-y="2308" 
d="M427 0h-263v1365h263v-1365z" />
    <glyph glyph-name="J" unicode="J" horiz-adv-x="686" vert-adv-y="2308" 
d="M266 1365h263v-1088q0 -163 -7 -240q-16 -193 -166 -263q-108 -50 -279 -50q-27 0 -85 2v219q22 -1 32 -1q159 0 206 45q29 29 33 105q3 50 3 177v1094z" />
    <glyph glyph-name="K" unicode="K" horiz-adv-x="1275" vert-adv-y="2308" 
d="M931 1365h301l-510 -632l545 -733h-335l-502 723zM164 1365h263v-1365h-263v1365z" />
    <glyph glyph-name="L" unicode="L" horiz-adv-x="1054" vert-adv-y="2308" 
d="M164 1365h269v-1141h592v-224h-861v1365z" />
    <glyph glyph-name="M" unicode="M" horiz-adv-x="1651" vert-adv-y="2308" 
d="M164 1365h366l295 -1084l299 1084h363v-1365h-237v1064l-292 -1064h-269l-288 1064v-1064h-237v1365z" />
    <glyph glyph-name="N" unicode="N" horiz-adv-x="1412" vert-adv-y="2308" 
d="M164 1365h279l556 -961v961h249v-1365h-263l-572 961v-961h-249v1365z" />
    <glyph glyph-name="O" unicode="O" horiz-adv-x="1378" vert-adv-y="2308" 
d="M697 1391q158 0 296 -78q158 -89 236 -254q77 -161 77 -377q0 -353 -198 -545q-168 -163 -418 -163q-252 0 -419 163q-198 192 -198 543q0 254 101 426q91 154 254 229q121 56 269 56zM685 1167q-153 0 -237 -114q-102 -138 -102 -371q0 -231 102 -370q83 -114 241 -114
q159 0 242 114q102 140 102 368q0 235 -102 373q-84 114 -246 114z" />
    <glyph glyph-name="P" unicode="P" horiz-adv-x="1157" vert-adv-y="2308" 
d="M164 1365h320q266 0 389 -41q130 -44 196 -163q57 -103 57 -231q0 -198 -127 -313q-103 -93 -300 -103q-81 -4 -190 -4h-82v-510h-263v1365zM427 734h83q180 0 239 22q59 21 88 81q21 43 21 96q0 129 -92 175q-67 33 -244 33h-95v-407z" />
    <glyph glyph-name="Q" unicode="Q" horiz-adv-x="1419" vert-adv-y="2308" 
d="M1237 321l283 -321h-305l-112 132q-171 -158 -414 -158q-251 0 -418 163q-198 192 -198 546q0 353 198 545q168 163 419 163q250 0 418 -163q198 -192 198 -541q0 -197 -69 -366zM685 1167q-153 0 -237 -114q-102 -138 -102 -371q0 -231 102 -370q83 -114 241 -114
q159 0 242 114q102 140 102 368q0 235 -102 373q-84 114 -246 114z" />
    <glyph glyph-name="R" unicode="R" horiz-adv-x="1209" vert-adv-y="2308" 
d="M164 1365h341q189 0 285 -16q166 -28 257 -148q80 -106 80 -255q0 -269 -242 -380l315 -566h-306l-279 521h-188v-521h-263v1365zM427 745h95q160 0 222 23q56 21 87 71q29 47 29 107q0 111 -87 160q-49 27 -135 33q-35 2 -136 2h-75v-396z" />
    <glyph glyph-name="S" unicode="S" horiz-adv-x="1157" vert-adv-y="2308" 
d="M1047 965h-252q-6 76 -44 123q-61 77 -180 77q-77 0 -135 -37q-64 -42 -64 -112q0 -63 70 -102q39 -21 224 -96q183 -73 224 -96q117 -65 161 -158q35 -75 35 -169q0 -208 -154 -325q-125 -96 -334 -96q-322 0 -456 209q-69 107 -76 281h254q26 -263 280 -263
q97 0 159 41q59 40 59 105q0 78 -94 130q-37 20 -237 103q-213 89 -282 163q-95 102 -95 248q0 148 94 253q72 81 193 120q84 27 180 27q157 0 276 -72q134 -80 175 -224q14 -51 19 -130z" />
    <glyph glyph-name="T" unicode="T" horiz-adv-x="1031" vert-adv-y="2308" 
d="M24 1365h983v-224h-361v-1141h-263v1141h-359v224z" />
    <glyph glyph-name="U" unicode="U" horiz-adv-x="1382" vert-adv-y="2308" 
d="M150 1365h263v-784q0 -162 22 -226q27 -78 97 -117q67 -37 159 -37q126 0 200 67q66 60 74 196q3 38 3 117v784h263v-788q0 -154 -13 -225q-30 -172 -159 -269q-145 -109 -368 -109q-224 0 -369 109q-129 97 -159 269q-13 71 -13 225v788z" />
    <glyph glyph-name="V" unicode="V" horiz-adv-x="1248" vert-adv-y="2308" 
d="M15 1365h281l328 -1067l328 1067h276l-472 -1365h-274z" />
    <glyph glyph-name="W" unicode="W" horiz-adv-x="1778" vert-adv-y="2308" 
d="M18 1365h246l261 -1066l253 1066h226l253 -1066l265 1066h238l-351 -1365h-297l-225 889l-221 -889h-297z" />
    <glyph glyph-name="X" unicode="X" horiz-adv-x="1196" vert-adv-y="2308" 
d="M55 1365h299l246 -423l251 423h299l-399 -654l424 -711h-300l-275 473l-282 -473h-298l426 711z" />
    <glyph glyph-name="Y" unicode="Y" horiz-adv-x="1152" vert-adv-y="2308" 
d="M0 1365h293l287 -544l283 544h289l-444 -827v-538h-263v538z" />
    <glyph glyph-name="Z" unicode="Z" horiz-adv-x="1026" vert-adv-y="2308" 
d="M108 1365h879v-185l-630 -956h609v-224h-919v205l623 940h-562v220z" />
    <glyph glyph-name="bracketleft" unicode="[" horiz-adv-x="626" vert-adv-y="2308" 
d="M153 1365h410v-198h-194v-1364h194v-201h-410v1763z" />
    <glyph glyph-name="backslash" unicode="\" horiz-adv-x="1140" vert-adv-y="2308" 
d="M1097 -398h-190l-864 1763h189z" />
    <glyph glyph-name="bracketright" unicode="]" horiz-adv-x="626" vert-adv-y="2308" 
d="M473 -398h-410v198h194v1364h-194v201h410v-1763z" />
    <glyph glyph-name="asciicircum" unicode="^" vert-adv-y="2308" 
d="M278 693h-264l332 680h331l333 -680h-265l-233 479z" />
    <glyph glyph-name="underscore" unicode="_" vert-adv-y="2308" 
d="M0 -99h1024v-227h-1024v227z" />
    <glyph glyph-name="grave" unicode="`" vert-adv-y="2308" 
d="M698 1098h-190l-381 333h310z" />
    <glyph glyph-name="a" unicode="a" horiz-adv-x="1049" vert-adv-y="2308" 
d="M358 683h-240q18 147 107 218q116 93 317 93q172 0 272 -71q78 -55 94 -176q7 -54 7 -138v-392q-1 -155 32 -217h-229q-13 54 -13 91v20q-78 -132 -268 -132q-153 0 -245 62q-108 73 -108 216t106 227q93 74 282 112q34 7 199 36v16q0 72 -24 102q-36 45 -123 45
q-144 0 -166 -112zM671 464q-214 -26 -270 -66q-60 -43 -60 -109q0 -45 33 -78q42 -40 116 -40q72 0 122 40q43 35 54 101q5 33 5 97v55z" />
    <glyph glyph-name="b" unicode="b" horiz-adv-x="1124" vert-adv-y="2308" 
d="M141 1374h253v-525q108 145 267 145q138 0 243 -100q152 -146 152 -405q0 -255 -150 -399q-115 -111 -274 -111q-180 0 -261 152q-5 -79 -18 -131h-219q8 64 8 180l-1 76v1118zM596 783q-92 0 -147 -80t-55 -218q0 -146 63 -230q49 -65 136 -65q85 0 135 62q71 86 71 238
q0 139 -56 220q-50 73 -147 73z" />
    <glyph glyph-name="c" unicode="c" horiz-adv-x="1017" vert-adv-y="2308" 
d="M942 651h-247q-23 147 -157 147q-88 0 -141 -67q-72 -91 -72 -247q0 -176 83 -261q47 -49 128 -49q147 0 169 172h244q-8 -151 -112 -259q-111 -115 -302 -115q-195 0 -323 127q-144 143 -144 386q0 171 77 301q127 214 395 214q207 0 320 -138q64 -78 82 -211z" />
    <glyph glyph-name="d" unicode="d" horiz-adv-x="1123" vert-adv-y="2308" 
d="M982 1374v-1066q1 -149 4 -204q2 -48 14 -104h-236q-8 53 -8 87q0 18 2 49q-36 -63 -75 -94q-78 -63 -201 -63q-162 0 -270 106q-144 142 -144 392q0 193 85 329q69 111 179 158q69 30 145 30q107 0 181 -54q31 -22 71 -74v508h253zM530 783q-83 0 -132 -58
q-73 -87 -73 -246q0 -141 64 -226q47 -63 136 -63q84 0 134 56q75 85 75 241q0 145 -57 225q-50 71 -147 71z" />
    <glyph glyph-name="e" unicode="e" horiz-adv-x="1054" vert-adv-y="2308" 
d="M985 425h-665q5 -100 50 -164q62 -87 186 -87q137 0 188 109l223 -9q-24 -107 -104 -186q-115 -116 -314 -116q-168 0 -285 79q-104 70 -152 191q-44 108 -44 231q0 183 83 318q71 118 196 171q88 38 195 38q208 0 330 -148q114 -139 114 -379q0 -15 -1 -48zM732 609
q-30 195 -193 195q-166 0 -212 -195h405z" />
    <glyph glyph-name="f" unicode="f" horiz-adv-x="672" vert-adv-y="2308" 
d="M415 973h229v-197h-229v-776h-253v776h-130v197h130v61q0 180 53 259q77 115 247 115q104 0 224 -46v-203q-108 32 -166 32q-75 0 -96 -66q-9 -31 -9 -127v-25z" />
    <glyph glyph-name="g" unicode="g" horiz-adv-x="1085" vert-adv-y="2308" 
d="M1047 973v-180h-198q50 -76 50 -174q0 -178 -152 -244q-59 -25 -134 -35q-14 -1 -151 -14q-96 -9 -96 -58q0 -25 31 -36q23 -9 183 -24q223 -22 302 -64q55 -29 86 -81q41 -66 41 -149q0 -164 -143 -251q-122 -75 -340 -75q-242 0 -374 87q-113 75 -113 200q0 110 86 173
q40 30 110 54q-108 44 -108 118q0 60 63 102q40 26 109 53q-75 38 -110 87q-56 77 -56 190q0 121 70 207q108 134 339 134q81 0 183 -26zM517 803q-83 0 -130 -49q-38 -40 -38 -100q0 -58 39 -98q45 -46 130 -46q86 0 133 49q37 38 37 94q0 66 -44 108q-45 42 -127 42z
M492 17q-100 0 -164 -27q-74 -31 -74 -95q0 -65 88 -97q73 -27 185 -27q121 0 182 33q59 33 59 87q0 61 -75 94q-71 32 -201 32z" />
    <glyph glyph-name="h" unicode="h" horiz-adv-x="1137" vert-adv-y="2308" 
d="M141 1374h253v-508q112 128 278 128q101 0 186 -48q103 -58 132 -180q13 -56 13 -205v-561h-253v506q0 130 -25 180q-41 86 -139 86q-68 0 -120 -45q-48 -41 -64 -116q-8 -42 -8 -113v-498h-253v1374z" />
    <glyph glyph-name="i" unicode="i" horiz-adv-x="534" vert-adv-y="2308" 
d="M141 973h253v-973h-253v973zM272 1392q61 0 101 -37q41 -39 41 -109q0 -69 -42 -109q-39 -38 -104 -38q-69 0 -108 40q-39 39 -39 103q0 72 45 112q42 38 106 38z" />
    <glyph glyph-name="j" unicode="j" horiz-adv-x="556" vert-adv-y="2308" 
d="M169 973h253v-833q0 -160 -13 -222q-31 -154 -156 -233q-97 -61 -278 -61q-19 0 -57 1v216h30q152 0 196 71q19 30 23 88q2 18 2 86v52v835zM301 1391q62 0 100 -36q41 -39 41 -110q0 -68 -42 -108q-39 -38 -104 -38q-68 0 -107 40q-39 39 -39 103q0 71 44 112
q41 37 107 37z" />
    <glyph glyph-name="k" unicode="k" horiz-adv-x="1098" vert-adv-y="2308" 
d="M754 973h303l-366 -451l398 -522h-337l-356 519zM141 1374h253v-1374h-253v1374z" />
    <glyph glyph-name="l" unicode="l" horiz-adv-x="534" vert-adv-y="2308" 
d="M141 1374h253v-1374h-253v1374z" />
    <glyph glyph-name="m" unicode="m" horiz-adv-x="1709" vert-adv-y="2308" 
d="M114 973h245q22 -50 22 -110q0 -6 -1 -18q109 149 294 149q195 0 282 -158q52 67 106 101q88 57 207 57q205 0 273 -146q26 -56 32 -143q1 -18 1 -138v-567h-253v562q0 112 -24 150q-39 60 -132 60q-98 0 -146 -66q-35 -49 -35 -156v-550h-253v541q0 128 -20 165
q-37 66 -134 66q-132 0 -171 -107q-13 -38 -13 -124v-541h-253v743q1 161 -27 230z" />
    <glyph glyph-name="n" unicode="n" horiz-adv-x="1122" vert-adv-y="2308" 
d="M111 973h245q20 -47 20 -124q108 145 288 145q102 0 183 -48q114 -68 134 -217q7 -50 7 -168v-561h-253v506q0 135 -23 183q-39 83 -134 83q-68 0 -117 -43q-48 -41 -61 -117q-6 -36 -6 -114v-498h-253v624q0 173 -6 241q-5 45 -24 108z" />
    <glyph glyph-name="o" unicode="o" horiz-adv-x="1097" vert-adv-y="2308" 
d="M553 1000q179 0 312 -118q74 -65 113 -153q50 -114 50 -243q0 -251 -163 -395q-132 -118 -317 -118t-317 118q-163 144 -163 394q0 180 87 311q73 111 204 166q91 38 194 38zM545 798q-95 0 -155 -82q-65 -90 -65 -230q0 -138 65 -229q59 -82 158 -82t157 82
q66 91 66 228q0 142 -66 231q-60 82 -160 82z" />
    <glyph glyph-name="p" unicode="p" horiz-adv-x="1123" vert-adv-y="2308" 
d="M140 -403v1067q-2 167 -4 204q-3 51 -13 105h235q18 -40 17 -114q99 135 268 135q160 0 266 -106q145 -144 145 -394q0 -281 -171 -430q-98 -85 -232 -85q-152 0 -258 126v-508h-253zM595 783q-81 0 -131 -56q-76 -84 -76 -246q0 -149 70 -228q56 -63 141 -63
q82 0 127 56q71 86 71 242q0 146 -64 232q-47 63 -138 63z" />
    <glyph glyph-name="q" unicode="q" horiz-adv-x="1123" vert-adv-y="2308" 
d="M729 -403v505q-37 -47 -70 -71q-70 -52 -171 -52q-142 0 -248 86q-172 141 -172 416q0 260 146 405q109 108 272 108q177 0 261 -135v9q0 57 17 105h236q-12 -56 -14 -105q-3 -55 -4 -204v-1067h-253zM525 783q-84 0 -134 -64q-66 -84 -66 -232q0 -156 74 -239
q51 -58 136 -58q92 0 141 70q58 83 58 222q0 161 -75 245q-50 56 -134 56z" />
    <glyph glyph-name="r" unicode="r" horiz-adv-x="771" vert-adv-y="2308" 
d="M128 973h241q15 -67 15 -155q0 -16 -1 -47q53 107 109 157q74 66 170 66q31 0 76 -13v-256q-71 48 -153 48q-192 0 -192 -321v-452h-252v674v64q-1 162 -13 235z" />
    <glyph glyph-name="s" unicode="s" horiz-adv-x="993" vert-adv-y="2308" 
d="M898 678h-243q-18 134 -158 134q-53 0 -91 -25q-44 -28 -44 -76q0 -45 41 -69q31 -19 197 -68q130 -38 185 -69q120 -69 120 -220q0 -144 -101 -227q-102 -85 -295 -85q-302 0 -395 180q-37 72 -37 172h238q6 -81 40 -115q48 -47 145 -47q61 0 103 22q50 27 50 83
q0 33 -22 52t-87 41q-18 7 -163 51q-147 44 -200 97q-68 68 -68 175q0 139 103 227q107 90 287 90q246 0 346 -159q42 -67 49 -164z" />
    <glyph glyph-name="t" unicode="t" horiz-adv-x="732" vert-adv-y="2308" 
d="M452 973h198v-197h-202l-6 -375q-1 -53 -1 -68q0 -76 19 -100q25 -32 81 -32q61 0 145 32v-207q-118 -47 -223 -47q-166 0 -239 118q-41 65 -41 199q0 47 2 102l13 378h-151v197h159l7 281h244z" />
    <glyph glyph-name="u" unicode="u" horiz-adv-x="1137" vert-adv-y="2308" 
d="M134 973h253v-554q0 -115 34 -160q43 -58 130 -58q192 0 192 253v519h253v-672v-150q3 -77 25 -151h-239q-16 38 -20 112q-37 -46 -66 -69q-83 -64 -206 -64q-121 0 -212 60q-103 68 -129 194q-15 74 -15 173v567z" />
    <glyph glyph-name="v" unicode="v" horiz-adv-x="1026" vert-adv-y="2308" 
d="M22 973h265l226 -698l226 698h261l-351 -980h-280z" />
    <glyph glyph-name="w" unicode="w" horiz-adv-x="1535" vert-adv-y="2308" 
d="M27 973h254l180 -687l203 687h203l200 -687l185 687h252l-291 -980h-270l-183 584l-178 -584h-269z" />
    <glyph glyph-name="x" unicode="x" horiz-adv-x="1026" vert-adv-y="2308" 
d="M51 973h301l161 -272l164 272h300l-309 -454l356 -519h-306l-206 322l-204 -322h-306l358 519z" />
    <glyph glyph-name="y" unicode="y" horiz-adv-x="1022" vert-adv-y="2308" 
d="M33 973h267l217 -741l225 741h262l-330 -946q-54 -154 -78 -201q-84 -163 -226 -209q-85 -28 -216 -28q-32 0 -96 2v219q162 -1 223 26q66 31 96 120z" />
    <glyph glyph-name="z" unicode="z" horiz-adv-x="869" vert-adv-y="2308" 
d="M98 973h713v-190l-467 -575h475v-208h-772v193l461 572h-410v208z" />
    <glyph glyph-name="braceleft" unicode="{" horiz-adv-x="626" vert-adv-y="2308" 
d="M298 483q77 -50 99 -101q25 -58 25 -168v-257q0 -106 17 -132q24 -38 134 -38q14 0 46 1v-195q-55 -3 -101 -3q-132 0 -197 37q-93 52 -112 174q-6 41 -6 107v317q-1 95 -27 129q-34 40 -85 49v161q51 8 85 49q26 33 27 129v317q0 147 44 214q42 63 121 87q55 17 150 17
q48 0 101 -4v-194q-33 1 -48 1q-114 0 -137 -45q-12 -26 -12 -125v-258q0 -109 -25 -167q-22 -51 -99 -102z" />
    <glyph glyph-name="bar" unicode="|" vert-adv-y="2308" 
d="M386 1365h253v-1706h-253v1706z" />
    <glyph glyph-name="braceright" unicode="}" horiz-adv-x="626" vert-adv-y="2308" 
d="M328 483q-78 51 -100 102q-25 58 -25 167v258q0 74 -2 90q-9 53 -47 67q-36 13 -99 13q-15 0 -48 -1v194q53 4 100 4q132 0 197 -37q93 -52 112 -174q6 -40 6 -107v-317q1 -95 28 -129q33 -41 85 -49v-161q-52 -9 -85 -49q-27 -34 -28 -129v-317q0 -147 -44 -214
q-42 -63 -121 -87q-55 -17 -150 -17q-46 0 -100 3v195q31 -1 46 -1q116 0 138 45q12 26 12 125v257q0 110 25 168q22 50 100 101z" />
    <glyph glyph-name="asciitilde" unicode="~" horiz-adv-x="1365" vert-adv-y="2308" 
d="M324 1152l-139 92q11 23 15 34q37 82 59 114q88 131 233 131q70 0 214 -54q96 -36 121 -42q33 -8 60 -8q61 0 101 40q19 19 49 68l143 -84q-74 -156 -147 -209q-81 -59 -174 -59q-55 0 -206 55q-138 50 -175 50q-53 0 -93 -35q-24 -21 -61 -93z" />
    <glyph glyph-name="Adieresis" unicode="&#xc4;" horiz-adv-x="1232" vert-adv-y="2308" 
d="M481 1365h267l464 -1365h-271l-84 284h-483l-85 -284h-269zM790 508l-176 557l-173 -557h349zM427 1784q60 0 105 -44q44 -44 44 -107q0 -62 -44 -106q-45 -45 -107 -45t-107 45q-44 44 -44 106q0 64 44 107q46 44 109 44zM808 1784q60 0 105 -44q44 -44 44 -107
q0 -62 -44 -107q-45 -44 -107 -44t-107 44q-44 45 -44 107q0 63 44 107q46 44 109 44z" />
    <glyph glyph-name="Aring" unicode="&#xc5;" horiz-adv-x="1232" vert-adv-y="2308" 
d="M481 1365h267l464 -1365h-271l-84 284h-483l-85 -284h-269zM790 508l-176 557l-173 -557h349zM615 1853q81 0 141 -59q59 -60 59 -144t-59 -143q-60 -60 -144 -60t-143 60q-60 59 -60 142q0 86 60 145q61 59 146 59zM611 1749q-40 0 -70 -29q-29 -30 -29 -70
q0 -41 29 -71q30 -29 71 -29t70 29q30 30 30 70q0 42 -30 71t-71 29z" />
    <glyph glyph-name="Ccedilla" unicode="&#xc7;" horiz-adv-x="1228" vert-adv-y="2308" 
d="M708 -26l-26 -79q89 -18 143 -61q76 -61 76 -161q0 -111 -84 -182q-70 -60 -166 -60q-104 0 -204 70v114q96 -49 159 -49q47 0 79 30q37 36 37 96q0 70 -53 108q-38 28 -95 28q-29 0 -71 -11l51 167q-71 22 -110 37q-140 53 -244 199q-127 177 -127 458q0 380 217 570
q88 77 207 114q91 29 183 29q146 0 261 -66q197 -113 214 -403h-226q-40 243 -254 243q-149 0 -236 -124q-93 -135 -93 -360q0 -217 87 -349t245 -132q236 0 260 307h235q-10 -245 -118 -377q-89 -110 -235 -141q-40 -9 -112 -15z" />
    <glyph glyph-name="Eacute" unicode="&#xc9;" horiz-adv-x="1099" vert-adv-y="2308" 
d="M427 819h542v-224h-542v-371h618v-224h-881v1365h859v-224h-596v-322zM396 1467l340 333h311l-416 -333h-235z" />
    <glyph glyph-name="Ntilde" unicode="&#xd1;" horiz-adv-x="1412" vert-adv-y="2308" 
d="M164 1365h279l556 -961v961h249v-1365h-263l-572 961v-961h-249v1365zM491 1501l-117 29q63 217 202 217q47 0 153 -33q105 -32 136 -32q58 0 109 83l105 -27q-15 -70 -44 -119q-66 -108 -160 -108q-48 0 -153 32q-114 35 -138 35q-60 0 -93 -77z" />
    <glyph glyph-name="Odieresis" unicode="&#xd6;" horiz-adv-x="1378" vert-adv-y="2308" 
d="M697 1391q158 0 296 -78q158 -89 236 -254q77 -161 77 -377q0 -353 -198 -545q-168 -163 -418 -163q-252 0 -419 163q-198 192 -198 543q0 254 101 426q91 154 254 229q121 56 269 56zM685 1167q-153 0 -237 -114q-102 -138 -102 -371q0 -231 102 -370q83 -114 241 -114
q159 0 242 114q102 140 102 368q0 235 -102 373q-84 114 -246 114zM501 1784q60 0 105 -44q44 -44 44 -107q0 -62 -44 -106q-45 -45 -107 -45t-107 45q-44 44 -44 106q0 64 44 107q46 44 109 44zM882 1784q60 0 105 -44q44 -44 44 -107q0 -62 -44 -107q-45 -44 -107 -44
t-107 44q-44 45 -44 107q0 63 44 107q46 44 109 44z" />
    <glyph glyph-name="Udieresis" unicode="&#xdc;" horiz-adv-x="1382" vert-adv-y="2308" 
d="M150 1365h263v-784q0 -162 22 -226q27 -78 97 -117q67 -37 159 -37q126 0 200 67q66 60 74 196q3 38 3 117v784h263v-788q0 -154 -13 -225q-30 -172 -159 -269q-145 -109 -368 -109q-224 0 -369 109q-129 97 -159 269q-13 71 -13 225v788zM502 1784q60 0 105 -44
q44 -44 44 -107q0 -62 -44 -106q-45 -45 -107 -45t-107 45q-44 44 -44 106q0 64 44 107q46 44 109 44zM883 1784q60 0 105 -44q44 -44 44 -107q0 -62 -44 -107q-45 -44 -107 -44t-107 44q-44 45 -44 107q0 63 44 107q46 44 109 44z" />
    <glyph glyph-name="aacute" unicode="&#xe1;" horiz-adv-x="1049" vert-adv-y="2308" 
d="M358 683h-240q18 147 107 218q116 93 317 93q172 0 272 -71q78 -55 94 -176q7 -54 7 -138v-392q-1 -155 32 -217h-229q-13 54 -13 91v20q-78 -132 -268 -132q-153 0 -245 62q-108 73 -108 216t106 227q93 74 282 112q34 7 199 36v16q0 72 -24 102q-36 45 -123 45
q-144 0 -166 -112zM671 464q-214 -26 -270 -66q-60 -43 -60 -109q0 -45 33 -78q42 -40 116 -40q72 0 122 40q43 35 54 101q5 33 5 97v55zM358 1098l261 333h310l-381 -333h-190z" />
    <glyph glyph-name="agrave" unicode="&#xe0;" horiz-adv-x="1049" vert-adv-y="2308" 
d="M358 683h-240q18 147 107 218q116 93 317 93q172 0 272 -71q78 -55 94 -176q7 -54 7 -138v-392q-1 -155 32 -217h-229q-13 54 -13 91v20q-78 -132 -268 -132q-153 0 -245 62q-108 73 -108 216t106 227q93 74 282 112q34 7 199 36v16q0 72 -24 102q-36 45 -123 45
q-144 0 -166 -112zM671 464q-214 -26 -270 -66q-60 -43 -60 -109q0 -45 33 -78q42 -40 116 -40q72 0 122 40q43 35 54 101q5 33 5 97v55zM697 1098h-190l-381 333h310z" />
    <glyph glyph-name="acircumflex" unicode="&#xe2;" horiz-adv-x="1049" vert-adv-y="2308" 
d="M358 683h-240q18 147 107 218q116 93 317 93q172 0 272 -71q78 -55 94 -176q7 -54 7 -138v-392q-1 -155 32 -217h-229q-13 54 -13 91v20q-78 -132 -268 -132q-153 0 -245 62q-108 73 -108 216t106 227q93 74 282 112q34 7 199 36v16q0 72 -24 102q-36 45 -123 45
q-144 0 -166 -112zM671 464q-214 -26 -270 -66q-60 -43 -60 -109q0 -45 33 -78q42 -40 116 -40q72 0 122 40q43 35 54 101q5 33 5 97v55zM183 1109l247 311h203l248 -311h-227l-122 176l-120 -176h-229z" />
    <glyph glyph-name="adieresis" unicode="&#xe4;" horiz-adv-x="1049" vert-adv-y="2308" 
d="M358 683h-240q18 147 107 218q116 93 317 93q172 0 272 -71q78 -55 94 -176q7 -54 7 -138v-392q-1 -155 32 -217h-229q-13 54 -13 91v20q-78 -132 -268 -132q-153 0 -245 62q-108 73 -108 216t106 227q93 74 282 112q34 7 199 36v16q0 72 -24 102q-36 45 -123 45
q-144 0 -166 -112zM671 464q-214 -26 -270 -66q-60 -43 -60 -109q0 -45 33 -78q42 -40 116 -40q72 0 122 40q43 35 54 101q5 33 5 97v55zM350 1400q55 0 96 -41q41 -40 41 -98q0 -57 -41 -98t-98 -41t-98 41t-41 98q0 58 41 98q42 41 100 41zM713 1400q55 0 96 -41
q41 -40 41 -98q0 -57 -41 -98t-98 -41t-98 41t-41 98q0 58 41 98q41 41 100 41z" />
    <glyph glyph-name="atilde" unicode="&#xe3;" horiz-adv-x="1049" vert-adv-y="2308" 
d="M358 683h-240q18 147 107 218q116 93 317 93q172 0 272 -71q78 -55 94 -176q7 -54 7 -138v-392q-1 -155 32 -217h-229q-13 54 -13 91v20q-78 -132 -268 -132q-153 0 -245 62q-108 73 -108 216t106 227q93 74 282 112q34 7 199 36v16q0 72 -24 102q-36 45 -123 45
q-144 0 -166 -112zM671 464q-214 -26 -270 -66q-60 -43 -60 -109q0 -45 33 -78q42 -40 116 -40q72 0 122 40q43 35 54 101q5 33 5 97v55zM320 1132l-106 29q57 217 182 217q42 0 137 -33q95 -32 123 -32q53 0 99 83l94 -27q-19 -92 -58 -150q-53 -77 -125 -77q-44 0 -139 32
q-101 35 -124 35q-55 0 -83 -77z" />
    <glyph glyph-name="aring" unicode="&#xe5;" horiz-adv-x="1049" vert-adv-y="2308" 
d="M358 683h-240q18 147 107 218q116 93 317 93q172 0 272 -71q78 -55 94 -176q7 -54 7 -138v-392q-1 -155 32 -217h-229q-13 54 -13 91v20q-78 -132 -268 -132q-153 0 -245 62q-108 73 -108 216t106 227q93 74 282 112q34 7 199 36v16q0 72 -24 102q-36 45 -123 45
q-144 0 -166 -112zM671 464q-214 -26 -270 -66q-60 -43 -60 -109q0 -45 33 -78q42 -40 116 -40q72 0 122 40q43 35 54 101q5 33 5 97v55zM535 1477q81 0 141 -60q59 -59 59 -143t-59 -143q-60 -60 -144 -60t-143 60q-60 59 -60 142q0 86 60 144q61 60 146 60zM531 1373
q-40 0 -70 -29q-29 -29 -29 -70t29 -71q30 -29 71 -29t70 29q30 30 30 70q0 42 -30 71t-71 29z" />
    <glyph glyph-name="ccedilla" unicode="&#xe7;" horiz-adv-x="1017" vert-adv-y="2308" 
d="M558 -27l-17 -64q187 -38 187 -191q0 -95 -71 -156q-60 -51 -142 -51q-89 0 -176 60v98q80 -42 135 -42q42 0 67 25q33 31 33 82q0 59 -45 93q-33 24 -80 24q-24 0 -62 -9l41 141q-105 29 -181 87q-84 64 -131 172q-48 112 -48 244q0 169 77 299q127 215 395 215
q207 0 320 -138q65 -79 82 -213h-246q-23 150 -158 150q-88 0 -141 -67q-72 -92 -72 -248q0 -175 83 -261q47 -49 127 -49q148 0 170 173h244q-3 -90 -55 -182q-103 -184 -336 -192z" />
    <glyph glyph-name="eacute" unicode="&#xe9;" horiz-adv-x="1054" vert-adv-y="2308" 
d="M985 425h-665q5 -100 50 -164q62 -87 186 -87q137 0 188 109l223 -9q-24 -107 -104 -186q-115 -116 -314 -116q-168 0 -285 79q-104 70 -152 191q-44 108 -44 231q0 183 83 318q71 118 196 171q88 38 195 38q208 0 330 -148q114 -139 114 -379q0 -15 -1 -48zM732 609
q-30 195 -193 195q-166 0 -212 -195h405zM371 1098l261 333h310l-381 -333h-190z" />
    <glyph glyph-name="egrave" unicode="&#xe8;" horiz-adv-x="1054" vert-adv-y="2308" 
d="M985 425h-665q5 -100 50 -164q62 -87 186 -87q137 0 188 109l223 -9q-24 -107 -104 -186q-115 -116 -314 -116q-168 0 -285 79q-104 70 -152 191q-44 108 -44 231q0 183 83 318q71 118 196 171q88 38 195 38q208 0 330 -148q114 -139 114 -379q0 -15 -1 -48zM732 609
q-30 195 -193 195q-166 0 -212 -195h405zM713 1098h-190l-381 333h310z" />
    <glyph glyph-name="ecircumflex" unicode="&#xea;" horiz-adv-x="1054" vert-adv-y="2308" 
d="M985 425h-665q5 -100 50 -164q62 -87 186 -87q137 0 188 109l223 -9q-24 -107 -104 -186q-115 -116 -314 -116q-168 0 -285 79q-104 70 -152 191q-44 108 -44 231q0 183 83 318q71 118 196 171q88 38 195 38q208 0 330 -148q114 -139 114 -379q0 -15 -1 -48zM732 609
q-30 195 -193 195q-166 0 -212 -195h405zM199 1109l247 311h203l248 -311h-227l-122 176l-120 -176h-229z" />
    <glyph glyph-name="edieresis" unicode="&#xeb;" horiz-adv-x="1054" vert-adv-y="2308" 
d="M985 425h-665q5 -100 50 -164q62 -87 186 -87q137 0 188 109l223 -9q-24 -107 -104 -186q-115 -116 -314 -116q-168 0 -285 79q-104 70 -152 191q-44 108 -44 231q0 183 83 318q71 118 196 171q88 38 195 38q208 0 330 -148q114 -139 114 -379q0 -15 -1 -48zM732 609
q-30 195 -193 195q-166 0 -212 -195h405zM368 1400q55 0 96 -41q41 -40 41 -98q0 -57 -41 -98t-98 -41t-98 41t-41 98q0 58 41 98q42 41 100 41zM731 1400q55 0 96 -41q41 -40 41 -98q0 -57 -41 -98t-98 -41t-98 41t-41 98q0 58 41 98q41 41 100 41z" />
    <glyph glyph-name="iacute" unicode="&#xed;" horiz-adv-x="534" vert-adv-y="2308" 
d="M141 973h253v-973h-253v973zM127 1098l261 333h310l-381 -333h-190z" />
    <glyph glyph-name="igrave" unicode="&#xec;" horiz-adv-x="534" vert-adv-y="2308" 
d="M141 973h253v-973h-253v973zM418 1098h-190l-381 333h310z" />
    <glyph glyph-name="icircumflex" unicode="&#xee;" horiz-adv-x="534" vert-adv-y="2308" 
d="M141 973h253v-973h-253v973zM-83 1109l247 311h203l248 -311h-227l-122 176l-120 -176h-229z" />
    <glyph glyph-name="idieresis" unicode="&#xef;" horiz-adv-x="534" vert-adv-y="2308" 
d="M140 973h253v-973h-253v973zM100 1395q53 0 93 -39q39 -39 39 -94q0 -56 -39 -95q-40 -39 -94 -39q-55 0 -95 39q-39 40 -39 94q0 57 39 95q41 39 96 39zM437 1395q53 0 93 -39q39 -39 39 -94t-39 -95q-40 -39 -94 -39q-55 0 -95 39q-39 40 -39 94q0 57 39 95
q41 39 96 39z" />
    <glyph glyph-name="ntilde" unicode="&#xf1;" horiz-adv-x="1122" vert-adv-y="2308" 
d="M111 973h245q20 -47 20 -124q108 145 288 145q102 0 183 -48q114 -68 134 -217q7 -50 7 -168v-561h-253v506q0 135 -23 183q-39 83 -134 83q-68 0 -117 -43q-48 -41 -61 -117q-6 -36 -6 -114v-498h-253v624q0 173 -6 241q-5 45 -24 108zM331 1132l-106 29q57 217 182 217
q42 0 137 -33q95 -32 123 -32q53 0 99 83l94 -27q-19 -92 -58 -150q-53 -77 -125 -77q-44 0 -139 32q-101 35 -124 35q-55 0 -83 -77z" />
    <glyph glyph-name="oacute" unicode="&#xf3;" horiz-adv-x="1097" vert-adv-y="2308" 
d="M553 1000q179 0 312 -118q74 -65 113 -153q50 -114 50 -243q0 -251 -163 -395q-132 -118 -317 -118t-317 118q-163 144 -163 394q0 180 87 311q73 111 204 166q91 38 194 38zM545 798q-95 0 -155 -82q-65 -90 -65 -230q0 -138 65 -229q59 -82 158 -82t157 82
q66 91 66 228q0 142 -66 231q-60 82 -160 82zM382 1098l261 333h310l-381 -333h-190z" />
    <glyph glyph-name="ograve" unicode="&#xf2;" horiz-adv-x="1097" vert-adv-y="2308" 
d="M553 1000q179 0 312 -118q74 -65 113 -153q50 -114 50 -243q0 -251 -163 -395q-132 -118 -317 -118t-317 118q-163 144 -163 394q0 180 87 311q73 111 204 166q91 38 194 38zM545 798q-95 0 -155 -82q-65 -90 -65 -230q0 -138 65 -229q59 -82 158 -82t157 82
q66 91 66 228q0 142 -66 231q-60 82 -160 82zM716 1098h-190l-381 333h310z" />
    <glyph glyph-name="ocircumflex" unicode="&#xf4;" horiz-adv-x="1097" vert-adv-y="2308" 
d="M553 1000q179 0 312 -118q74 -65 113 -153q50 -114 50 -243q0 -251 -163 -395q-132 -118 -317 -118t-317 118q-163 144 -163 394q0 180 87 311q73 111 204 166q91 38 194 38zM545 798q-95 0 -155 -82q-65 -90 -65 -230q0 -138 65 -229q59 -82 158 -82t157 82
q66 91 66 228q0 142 -66 231q-60 82 -160 82zM199 1109l247 311h203l248 -311h-227l-122 176l-120 -176h-229z" />
    <glyph glyph-name="odieresis" unicode="&#xf6;" horiz-adv-x="1097" vert-adv-y="2308" 
d="M553 999q179 0 312 -118q74 -65 113 -153q50 -114 50 -243q0 -251 -163 -395q-132 -118 -317 -118t-317 118q-163 144 -163 394q0 180 87 311q73 111 204 166q91 38 194 38zM545 797q-95 0 -155 -82q-65 -90 -65 -230q0 -138 65 -229q59 -82 158 -82t157 82q66 91 66 228
q0 142 -66 231q-60 82 -160 82zM368 1400q55 0 96 -41q41 -40 41 -98q0 -57 -41 -98t-98 -41t-98 41t-41 98q0 58 41 98q42 41 100 41zM731 1400q55 0 96 -41q41 -40 41 -98q0 -57 -41 -98t-98 -41t-98 41t-41 98q0 58 41 98q41 41 100 41z" />
    <glyph glyph-name="otilde" unicode="&#xf5;" horiz-adv-x="1097" vert-adv-y="2308" 
d="M553 1000q179 0 312 -118q74 -65 113 -153q50 -114 50 -243q0 -251 -163 -395q-132 -118 -317 -118t-317 118q-163 144 -163 394q0 180 87 311q73 111 204 166q91 38 194 38zM545 798q-95 0 -155 -82q-65 -90 -65 -230q0 -138 65 -229q59 -82 158 -82t157 82
q66 91 66 228q0 142 -66 231q-60 82 -160 82zM347 1132l-106 29q57 217 182 217q42 0 137 -33q95 -32 123 -32q53 0 99 83l94 -27q-19 -92 -58 -150q-53 -77 -125 -77q-44 0 -139 32q-101 35 -124 35q-55 0 -83 -77z" />
    <glyph glyph-name="uacute" unicode="&#xfa;" horiz-adv-x="1137" vert-adv-y="2308" 
d="M134 973h253v-554q0 -115 34 -160q43 -58 130 -58q192 0 192 253v519h253v-672v-150q3 -77 25 -151h-239q-16 38 -20 112q-37 -46 -66 -69q-83 -64 -206 -64q-121 0 -212 60q-103 68 -129 194q-15 74 -15 173v567zM399 1098l261 333h310l-381 -333h-190z" />
    <glyph glyph-name="ugrave" unicode="&#xf9;" horiz-adv-x="1137" vert-adv-y="2308" 
d="M134 973h253v-554q0 -115 34 -160q43 -58 130 -58q192 0 192 253v519h253v-672v-150q3 -77 25 -151h-239q-16 38 -20 112q-37 -46 -66 -69q-83 -64 -206 -64q-121 0 -212 60q-103 68 -129 194q-15 74 -15 173v567zM731 1098h-190l-381 333h310z" />
    <glyph glyph-name="ucircumflex" unicode="&#xfb;" horiz-adv-x="1137" vert-adv-y="2308" 
d="M134 975h253v-554q0 -115 34 -160q43 -58 130 -58q192 0 192 253v519h253v-672v-150q3 -77 25 -151h-239q-16 38 -20 112q-37 -46 -66 -69q-83 -64 -206 -64q-121 0 -212 60q-103 68 -129 194q-15 74 -15 173v567zM216 1108l247 311h203l248 -311h-227l-122 176
l-120 -176h-229z" />
    <glyph glyph-name="udieresis" unicode="&#xfc;" horiz-adv-x="1137" vert-adv-y="2308" 
d="M134 973h253v-554q0 -115 34 -160q43 -58 130 -58q192 0 192 253v519h253v-672v-150q3 -77 25 -151h-239q-16 38 -20 112q-37 -46 -66 -69q-83 -64 -206 -64q-121 0 -212 60q-103 68 -129 194q-15 74 -15 173v567zM384 1400q55 0 96 -41q41 -40 41 -98q0 -57 -41 -98
t-98 -41t-98 41t-41 98q0 58 41 98q42 41 100 41zM747 1400q55 0 96 -41q41 -40 41 -98q0 -57 -41 -98t-98 -41t-98 41t-41 98q0 58 41 98q41 41 100 41z" />
    <glyph glyph-name="dagger" unicode="&#x2020;" vert-adv-y="2308" 
d="M393 1331h240v-374h287v-193h-287v-1033h-240v1033h-288v193h288v374z" />
    <glyph glyph-name="degree" unicode="&#xb0;" vert-adv-y="2308" 
d="M515 1391q125 0 218 -90q91 -89 91 -216q0 -128 -90 -217q-92 -92 -223 -92q-129 0 -221 91q-91 91 -91 217q0 129 91 216q94 91 225 91zM509 1242q-64 0 -112 -47q-47 -46 -47 -111q0 -67 47 -113q48 -47 114 -47q67 0 115 48q47 46 47 111q0 67 -48 113t-116 46z" />
    <glyph glyph-name="cent" unicode="&#xa2;" horiz-adv-x="1167" vert-adv-y="2308" 
d="M668 1013v-598q98 30 112 160h243q-4 -159 -132 -272q-92 -78 -223 -93v-187h-125v188q-158 27 -256 121q-144 139 -144 376q0 171 76 301q104 178 330 210v151h125v-152q162 -22 255 -128q72 -83 94 -214h-253q-14 110 -102 137zM549 1010q-149 -69 -149 -308
q0 -235 149 -287v595z" />
    <glyph glyph-name="sterling" unicode="&#xa3;" horiz-adv-x="1167" vert-adv-y="2308" 
d="M565 803h316v-180h-352q-15 -130 -53 -246q-28 -82 -87 -177q121 37 222 37q42 0 160 -11q27 -3 45 -3q45 0 62 28q22 39 26 146h201q1 -37 1 -55q0 -147 -54 -234q-77 -122 -215 -122q-57 0 -143 9q-183 20 -310 20q-145 0 -323 -35q138 148 208 641h-163v182h198
q3 12 25 130q40 219 128 331q96 121 291 121q203 0 291 -125q56 -77 67 -231h-219q-17 142 -132 142q-85 0 -125 -80q-29 -59 -49 -181q-2 -8 -13 -85q-1 -4 -3 -22z" />
    <glyph glyph-name="section" unicode="&#xa7;" vert-adv-y="2308" 
d="M891 980h-195q-13 87 -45 125q-48 57 -134 57q-58 0 -100 -27q-45 -29 -45 -82q0 -46 38 -78q31 -25 74 -48l145 -75q178 -93 227 -139q84 -79 84 -196q0 -174 -178 -278q136 -99 136 -256q0 -165 -123 -250q-100 -69 -266 -69q-202 0 -312 104q-106 101 -106 290h203
q14 -83 42 -123q50 -70 171 -70q83 0 126 39q35 31 35 84q0 64 -81 115q-31 19 -209 108q-135 67 -215 146q-79 81 -79 196q0 103 76 187q38 43 98 88q-50 45 -70 75q-44 66 -44 151q0 140 115 229q102 80 251 80q121 0 214 -52q118 -65 152 -205q12 -50 15 -126zM425 728
q-116 -80 -116 -160q0 -81 94 -136q68 -40 194 -103q44 32 72 59q50 48 50 104q0 74 -94 129q-120 69 -200 107z" />
    <glyph glyph-name="bullet" unicode="&#x2022;" horiz-adv-x="1365" vert-adv-y="2308" 
d="M689 978q113 0 196 -83q84 -83 84 -201t-83 -201t-201 -83q-116 0 -199 82q-85 84 -85 202q0 120 84 202q86 82 204 82z" />
    <glyph glyph-name="paragraph" unicode="&#xb6;" horiz-adv-x="1345" vert-adv-y="2308" 
d="M445 -190v846q-19 -1 -28 -1q-89 0 -177 40q-97 44 -145 133q-41 79 -41 176q0 118 58 205q70 105 217 137q90 19 195 19h671v-195h-147v-1360h-214v1360h-175v-1360h-214z" />
    <glyph glyph-name="germandbls" unicode="&#xdf;" horiz-adv-x="1115" vert-adv-y="2308" 
d="M117 0v855q0 158 8 221q19 152 134 232q116 80 279 80q157 0 262 -72q64 -44 102 -112q41 -75 41 -158q0 -200 -190 -271q125 -34 191 -100q103 -102 103 -285q0 -128 -62 -233q-58 -99 -159 -143q-66 -28 -140 -28q-91 0 -164 42v219q67 -39 126 -39q75 0 114 56
q28 40 28 112q0 170 -128 237q-73 38 -191 37v218q20 -1 30 -1q77 0 122 28q70 45 70 131q0 78 -52 123q-43 36 -108 36q-113 0 -147 -97q-16 -46 -16 -204v-884h-253z" />
    <glyph glyph-name="registered" unicode="&#xae;" horiz-adv-x="1536" vert-adv-y="2308" 
d="M487 1088h215q118 0 178 -10q104 -16 162 -89q50 -64 50 -154q0 -161 -148 -227l196 -339h-199l-173 310h-110v-310h-171v819zM658 720h55q97 0 136 13q69 24 69 102q0 64 -52 92q-30 16 -82 19q-19 1 -83 1h-43v-227zM777 1391q190 0 361 -105q171 -104 262 -282
q77 -152 77 -321q0 -200 -105 -370q-104 -171 -282 -261q-152 -78 -322 -78q-199 0 -370 105q-170 104 -261 282q-78 152 -78 320q0 201 104 372q102 168 283 261q152 77 331 77zM762 1277q-157 0 -297 -87q-140 -88 -215 -237q-64 -128 -64 -270q0 -167 87 -312
q86 -143 232 -219q124 -64 264 -64q240 0 410 172q82 84 127 195q45 109 45 226q0 169 -86 313q-84 141 -233 219q-122 64 -270 64z" />
    <glyph glyph-name="copyright" unicode="&#xa9;" horiz-adv-x="1536" vert-adv-y="2308" 
d="M1109 832h-149q-25 145 -157 145q-95 0 -149 -74q-59 -81 -59 -210q0 -127 59 -207q54 -74 151 -74q151 0 158 182h155q0 -109 -48 -189q-82 -136 -265 -136q-154 0 -257 90q-130 115 -130 330q0 229 139 346q100 85 242 85q177 0 260 -119q49 -71 50 -169zM777 1391
q190 0 361 -105q171 -104 262 -282q77 -152 77 -321q0 -200 -105 -370q-104 -171 -282 -261q-152 -78 -322 -78q-199 0 -370 105q-170 104 -261 282q-78 152 -78 320q0 201 104 372q102 168 283 261q152 77 331 77zM762 1277q-157 0 -297 -87q-140 -88 -215 -237
q-64 -128 -64 -270q0 -167 87 -312q86 -143 232 -219q124 -64 264 -64q240 0 410 172q82 84 127 195q45 109 45 226q0 169 -86 313q-84 141 -233 219q-122 64 -270 64z" />
    <glyph glyph-name="trademark" unicode="&#x2122;" horiz-adv-x="1697" vert-adv-y="2308" 
d="M11 1365h617v-141h-223v-678h-171v678h-223v141zM711 1365h236l221 -636l223 636h234v-819h-155v612l-215 -612h-176l-213 612v-612h-155v819z" />
    <glyph glyph-name="acute" unicode="&#xb4;" vert-adv-y="2308" 
d="M349 1098l261 333h310l-381 -333h-190z" />
    <glyph glyph-name="dieresis" unicode="&#xa8;" vert-adv-y="2308" 
d="M332 1400q55 0 96 -41q41 -40 41 -98q0 -57 -41 -98t-98 -41t-98 41t-41 98q0 58 41 98q42 41 100 41zM695 1400q55 0 96 -41q41 -40 41 -98q0 -57 -41 -98t-98 -41t-98 41t-41 98q0 58 41 98q41 41 100 41z" />
    <glyph glyph-name="notequal" unicode="&#x2260;" vert-adv-y="2308" 
d="M538 994l112 221l160 -81l-71 -140h217v-227h-320l-72 -142h392v-227h-494l-102 -200l-160 81l60 119h-192v227h295l72 142h-367v227h470z" />
    <glyph glyph-name="AE" unicode="&#xc6;" horiz-adv-x="1876" vert-adv-y="2308" 
d="M839 1365h965v-224h-579v-325h526v-224h-526v-368h596v-224h-862v282h-487l-166 -282h-283zM959 506v619l-356 -619h356z" />
    <glyph glyph-name="Oslash" unicode="&#xd8;" horiz-adv-x="1379" vert-adv-y="2308" 
d="M1076 1265l85 107h185l-167 -207q11 -19 53 -94q25 -43 43 -119q31 -126 31 -260q0 -213 -81 -393q-67 -150 -211 -240q-137 -86 -323 -86q-180 0 -322 79q-29 16 -71 45l-87 -104h-184l168 211q-8 14 -15 28q-64 122 -83 201q-25 109 -25 239q0 214 81 394
q67 150 211 240q137 86 322 86q245 0 390 -127zM905 1081q-38 38 -59 51q-55 35 -155 35q-196 0 -286 -190q-60 -127 -60 -314q0 -75 10 -144q6 -38 31 -94zM462 284q80 -87 225 -87q196 0 285 190q61 129 61 316q0 130 -41 252z" />
    <glyph glyph-name="infinity" unicode="&#x221e;" horiz-adv-x="1365" vert-adv-y="2308" 
d="M689 532q-149 -168 -324 -168q-155 0 -252 109q-79 89 -79 224q0 160 111 253q94 78 220 78q169 0 312 -166q138 166 321 166q168 0 265 -121q68 -86 68 -210q0 -157 -105 -250q-94 -83 -224 -83q-173 0 -313 168zM807 697l9 -15q68 -104 149 -104q49 0 85 36
q32 33 32 82q0 56 -42 90q-34 28 -76 28q-65 0 -119 -66zM558 696l-10 15q-67 103 -148 103q-50 0 -85 -36q-32 -34 -32 -82q0 -56 42 -90q35 -28 76 -28q63 0 119 66q8 9 23 30t15 22z" />
    <glyph glyph-name="plusminus" unicode="&#xb1;" horiz-adv-x="1167" vert-adv-y="2308" 
d="M683 824h387v-192h-387v-331h-199v331h-387v192h387v402h199v-402zM97 192h973v-192h-973v192z" />
    <glyph glyph-name="lessequal" unicode="&#x2264;" vert-adv-y="2308" 
d="M955 1356v-238l-620 -286l620 -286v-238l-887 414v212zM955 250v-236h-887v236h887z" />
    <glyph glyph-name="greaterequal" unicode="&#x2265;" vert-adv-y="2308" 
d="M68 308v238l620 287l-620 285v238l887 -423v-212zM68 14v236h887v-236h-887z" />
    <glyph glyph-name="yen" unicode="&#xa5;" horiz-adv-x="1167" vert-adv-y="2308" 
d="M908 916h176v-157h-257l-71 -138h328v-157h-370v-464h-263v464h-368v157h325l-70 138h-255v157h175l-229 449h293l261 -545l263 545h292z" />
    <glyph glyph-name="mu1" unicode="&#xb5;" vert-adv-y="2308" 
d="M56 -354v1337h253v-523q0 -117 20 -166q28 -69 92 -103q45 -24 94 -24q90 0 145 72q32 41 44 95q10 43 10 134v515h253v-983h-253v122q-31 -63 -64 -92q-59 -51 -141 -51q-124 0 -200 127v-460h-253z" />
    <glyph glyph-name="partialdiff" unicode="&#x2202;" vert-adv-y="2308" 
d="M133 1143l32 219q195 -23 337 -77q181 -69 308 -221q176 -212 176 -519q0 -217 -95 -362q-62 -95 -162 -148t-222 -53q-142 0 -258 75q-78 51 -131 128q-83 122 -83 267q0 183 122 309q122 125 302 125q153 0 255 -100q-70 164 -240 260q-155 80 -341 97zM509 701
q-83 0 -143 -60q-75 -75 -75 -199q0 -125 75 -207q59 -64 142 -64q104 0 166 90q53 77 53 179q0 131 -79 206q-58 55 -139 55z" />
    <glyph glyph-name="summation" unicode="&#x2211;" horiz-adv-x="1365" vert-adv-y="2308" 
d="M1264 1536v-509h-226l-27 273h-682l511 -752l-511 -824h702l15 271h238v-507h-1240v261l500 799l-500 727v261h1220z" />
    <glyph glyph-name="product" unicode="&#x220f;" horiz-adv-x="1494" vert-adv-y="2308" 
d="M81 1536h1331v-236h-171v-1576h171v-236h-586v236h162v1576h-484v-1576h162v-236h-585v236h170v1576h-170v236z" />
    <glyph glyph-name="pi" unicode="&#x3c0;" horiz-adv-x="1220" vert-adv-y="2308" 
d="M170 0v756h-144v227h1168v-227h-141v-756h-253v756h-377v-756h-253z" />
    <glyph glyph-name="integral" unicode="&#x222b;" vert-adv-y="2308" 
d="M109 -491l46 225q72 -19 114 -19q104 0 114 113q2 23 2 155v1009q0 117 3 196q11 349 342 349q73 0 184 -22l-46 -225q-69 20 -113 20q-105 0 -115 -113q-1 -16 -2 -286v-878q0 -213 -9 -275q-19 -126 -103 -197q-86 -72 -234 -72q-86 0 -183 20z" />
    <glyph glyph-name="ordfeminine" unicode="&#xaa;" vert-adv-y="2308" 
d="M405 1179h-154q6 92 68 143q71 59 202 59q154 0 208 -84q23 -35 26 -93v-53v-233q0 -92 22 -132h-148q-10 29 -11 59q-51 -69 -166 -69q-95 0 -151 37q-68 44 -68 129q0 125 136 179q50 20 163 46q46 10 67 15v8q0 66 -90 66q-93 0 -104 -77zM599 1074q-131 -29 -164 -50
q-38 -24 -38 -62q0 -25 19 -42q25 -23 68 -23q76 0 103 51q12 24 12 84v42zM221 668h569v-107h-569v107z" />
    <glyph glyph-name="ordmasculine" unicode="&#xba;" vert-adv-y="2308" 
d="M516 1383q110 0 192 -70q101 -86 101 -236q0 -149 -101 -235q-81 -70 -196 -70q-114 0 -196 70q-100 86 -100 234q0 153 100 237q85 70 200 70zM511 1257q-57 0 -92 -47q-39 -52 -39 -132q0 -81 39 -133q35 -47 93 -47q59 0 94 47q39 53 39 132q0 81 -39 133
q-36 47 -95 47zM228 668h569v-107h-569v107z" />
    <glyph glyph-name="Ohm" unicode="&#x2126;" horiz-adv-x="1365" vert-adv-y="2308" 
d="M59 0v227h290q-122 75 -183 157q-107 146 -107 366q0 271 171 454q181 194 454 194t453 -194q170 -183 170 -454q0 -231 -115 -377q-62 -77 -172 -146h287v-227h-549v202q120 68 180 148q110 145 110 372q0 177 -85 296q-109 153 -278 153q-148 0 -255 -119
q-112 -125 -112 -331q0 -238 122 -385q63 -75 171 -134v-202h-552z" />
    <glyph glyph-name="ae" unicode="&#xe6;" horiz-adv-x="1673" vert-adv-y="2308" 
d="M1606 426h-687q2 -106 51 -167q72 -87 203 -87q95 0 147 49q22 21 43 64l223 -9q-23 -107 -101 -188q-110 -115 -307 -115q-275 0 -396 204q-40 -99 -111 -144q-92 -60 -231 -60q-145 0 -243 63q-112 73 -112 218q0 146 123 237q151 111 456 119v45q0 80 -33 111
q-36 34 -105 34q-135 0 -164 -138h-244q12 136 90 219q111 119 332 119q152 0 239 -59q35 -24 72 -65q133 124 305 124q204 0 328 -144q122 -142 122 -400v-30zM1341 607q-34 199 -196 199q-109 0 -170 -89q-30 -45 -44 -110h410zM664 429h-19q-303 0 -303 -154
q0 -60 47 -89q36 -21 87 -21q188 0 188 248v16z" />
    <glyph glyph-name="oslash" unicode="&#xf8;" horiz-adv-x="1097" vert-adv-y="2308" 
d="M149 177q-30 58 -42 88q-39 99 -39 219q0 253 163 398q132 118 320 118q115 0 221 -59q23 -13 76 -46l87 88h179l-175 -187q89 -128 89 -313q0 -176 -87 -307q-75 -112 -204 -166q-91 -38 -189 -38q-156 0 -307 110l-86 -89h-173zM340 361l340 377q-43 62 -129 62
q-102 0 -160 -82q-66 -93 -66 -231q0 -51 15 -126zM748 620l-347 -385q28 -25 43 -34q42 -28 100 -28q103 0 162 82q65 92 65 228q0 61 -23 137z" />
    <glyph glyph-name="questiondown" unicode="&#xbf;" horiz-adv-x="855" vert-adv-y="2308" 
d="M457 976q62 0 108 -46t46 -111q0 -64 -46 -110t-110 -46q-65 0 -111 46t-46 110q0 66 46 111q47 46 113 46zM342 515h232q-1 -121 -6 -171q-8 -67 -43 -120q-28 -44 -83 -103q-77 -83 -93 -112q-21 -40 -21 -79q0 -52 35 -83q32 -28 85 -28q135 0 143 166h199
q-3 -74 -12 -122q-28 -144 -157 -214q-87 -48 -208 -48q-164 0 -255 82q-94 84 -94 228q0 106 57 186q32 45 107 128q85 93 99 128q15 37 15 116v46z" />
    <glyph glyph-name="exclamdown" unicode="&#xa1;" horiz-adv-x="516" vert-adv-y="2308" 
d="M392 -372h-270l29 879h216zM259 976q62 0 108 -46t46 -111q0 -64 -46 -110t-110 -46q-65 0 -111 46t-46 110q0 66 46 111q47 46 113 46z" />
    <glyph glyph-name="logicalnot" unicode="&#xac;" vert-adv-y="2308" 
d="M702 0v310h-634v236h887v-546h-253z" />
    <glyph glyph-name="radical" unicode="&#x221a;" horiz-adv-x="1365" vert-adv-y="2308" 
d="M1365 1702v-236h-369l-350 -1466h-333l-122 561h-191v236h399l41 -190q25 -153 31 -299h21q24 308 98 610l186 784h589z" />
    <glyph glyph-name="florin" unicode="&#x192;" horiz-adv-x="1167" vert-adv-y="2308" 
d="M818 974h229v-179h-261l-85 -485q-33 -185 -45 -238q-43 -184 -121 -259q-86 -82 -207 -82q-141 0 -295 94l34 194q142 -79 235 -79q52 0 79 41q30 47 78 318l87 496h-197v179h229l17 98q36 204 91 284q82 121 243 121q114 0 237 -70l-34 -189q-118 52 -171 52
q-72 0 -101 -91q-14 -44 -32 -146z" />
    <glyph glyph-name="approxequal" unicode="&#x2248;" vert-adv-y="2308" 
d="M153 712l-139 91q52 124 101 184q76 95 206 95q69 0 214 -54q100 -37 121 -42q32 -8 59 -8q63 0 102 40q20 21 49 69l143 -84q-44 -92 -74.5 -135.5t-71.5 -74.5q-82 -59 -175 -59q-57 0 -206 54q-137 50 -176 50q-52 0 -92 -34q-24 -21 -61 -92zM153 305l-139 91
q51 123 101 184q77 96 206 96q69 0 214 -55q95 -36 121 -42q33 -8 61 -8q60 0 100 40q20 19 49 68l143 -83q-74 -158 -146 -210q-82 -59 -175 -59q-55 0 -206 55q-139 50 -175 50q-53 0 -93 -35q-24 -21 -61 -92z" />
    <glyph glyph-name="increment" unicode="&#x2206;" horiz-adv-x="1365" vert-adv-y="2308" 
d="M36 0l505 1365h274l514 -1365h-1293zM397 236h566l-283 822z" />
    <glyph glyph-name="guillemotleft" unicode="&#xab;" horiz-adv-x="1001" vert-adv-y="2308" 
d="M878 0h-213l-223 476l223 504h213l-184 -504zM491 0h-213l-223 476l223 504h213l-184 -504z" />
    <glyph glyph-name="guillemotright" unicode="&#xbb;" horiz-adv-x="1001" vert-adv-y="2308" 
d="M123 980h213l223 -475l-223 -505h-213l185 505zM510 980h213l223 -475l-223 -505h-213l185 505z" />
    <glyph glyph-name="ellipsis" unicode="&#x2026;" horiz-adv-x="1462" vert-adv-y="2308" 
d="M258 298q63 0 109 -46t46 -111q0 -64 -46 -110t-111 -46q-64 0 -110 46t-46 110q0 66 46 111q47 46 112 46zM732 298q63 0 109 -46t46 -111q0 -64 -46 -110t-111 -46q-64 0 -110 46t-46 110q0 66 46 111q47 46 112 46zM1205 298q63 0 109 -46t46 -111q0 -64 -46 -110
t-111 -46q-64 0 -110 46t-46 110q0 66 46 111q47 46 112 46z" />
    <glyph glyph-name="glyph172" horiz-adv-x="1167" vert-adv-y="1167" 
 />
    <glyph glyph-name="Agrave" unicode="&#xc0;" horiz-adv-x="1232" vert-adv-y="2308" 
d="M481 1365h267l464 -1365h-271l-84 284h-483l-85 -284h-269zM790 508l-176 557l-173 -557h349zM789 1467h-236l-415 333h310z" />
    <glyph glyph-name="Atilde" unicode="&#xc3;" horiz-adv-x="1232" vert-adv-y="2308" 
d="M481 1365h267l464 -1365h-271l-84 284h-483l-85 -284h-269zM790 508l-176 557l-173 -557h349zM387 1501l-117 29q63 217 202 217q47 0 153 -33q105 -32 136 -32q58 0 109 83l105 -27q-15 -70 -44 -119q-66 -108 -160 -108q-48 0 -153 32q-114 35 -138 35q-60 0 -93 -77z
" />
    <glyph glyph-name="Otilde" unicode="&#xd5;" horiz-adv-x="1378" vert-adv-y="2308" 
d="M697 1391q158 0 296 -78q158 -89 236 -254q77 -161 77 -377q0 -353 -198 -545q-168 -163 -418 -163q-252 0 -419 163q-198 192 -198 543q0 254 101 426q91 154 254 229q121 56 269 56zM685 1167q-153 0 -237 -114q-102 -138 -102 -371q0 -231 102 -370q83 -114 241 -114
q159 0 242 114q102 140 102 368q0 235 -102 373q-84 114 -246 114zM467 1501l-117 29q63 217 202 217q47 0 153 -33q105 -32 136 -32q58 0 109 83l105 -27q-15 -70 -44 -119q-66 -108 -160 -108q-48 0 -153 32q-114 35 -138 35q-60 0 -93 -77z" />
    <glyph glyph-name="OE" unicode="&#x152;" horiz-adv-x="1973" vert-adv-y="2308" 
d="M1037 1272v93h859v-224h-599v-322h545v-224h-545v-371h621v-224h-881v93q-59 -54 -109 -76q-97 -43 -238 -43q-243 0 -404 140q-213 184 -213 568q0 345 178 535q163 174 441 174q217 0 345 -119zM688 1167q-99 0 -179 -54q-84 -56 -126 -178q-37 -110 -37 -254
q0 -249 109 -383q82 -100 233 -100q153 0 237 104q112 139 112 378q0 246 -112 383q-86 104 -237 104z" />
    <glyph glyph-name="oe" unicode="&#x153;" horiz-adv-x="1757" vert-adv-y="2308" 
d="M1688 426h-685q3 -105 51 -168q66 -86 198 -86q152 0 195 113l222 -9q-25 -110 -106 -191q-113 -112 -308 -112q-225 0 -364 161q-54 -63 -103 -96q-100 -66 -231 -66q-174 0 -301 98q-91 70 -136 170q-52 116 -52 249q0 249 164 394q132 117 322 117q224 0 338 -167
q57 65 106 98q104 69 244 69q213 0 331 -143q116 -142 116 -380q0 -16 -1 -51zM1436 601q-32 206 -205 206q-177 0 -216 -206h421zM545 800q-85 0 -142 -68q-78 -93 -78 -245q0 -155 78 -247q56 -67 146 -67q87 0 145 68q79 92 79 244q0 157 -79 247q-60 68 -149 68z" />
    <glyph glyph-name="endash" unicode="&#x2013;" vert-adv-y="2308" 
d="M91 607h842v-182h-842v182z" />
    <glyph glyph-name="emdash" unicode="&#x2014;" horiz-adv-x="1297" vert-adv-y="2308" 
d="M0 607h1297v-182h-1297v182z" />
    <glyph glyph-name="quotedblleft" unicode="&#x201c;" horiz-adv-x="776" vert-adv-y="2308" 
d="M572 1392h115q-98 -124 -100 -237q134 -17 134 -124q0 -58 -43 -98q-40 -39 -99 -39q-66 0 -108 51q-41 51 -41 133q0 136 142 314zM219 1392h116q-45 -57 -72 -120q-26 -65 -29 -117q135 -17 135 -124q0 -58 -43 -98q-41 -39 -99 -39q-67 0 -109 51q-41 51 -41 133
q0 137 142 314z" />
    <glyph glyph-name="quotedblright" unicode="&#x201d;" horiz-adv-x="776" vert-adv-y="2308" 
d="M205 894h-116q43 54 72 120q25 62 28 116q-134 18 -134 124q0 58 43 98q41 39 99 39q67 0 109 -52q41 -50 41 -132q0 -141 -142 -313zM557 894h-115q44 56 71 120q26 64 29 116q-134 18 -134 124q0 58 43 98q41 39 99 39q66 0 108 -52q41 -50 41 -132q0 -142 -142 -313z
" />
    <glyph glyph-name="quoteleft" unicode="&#x2018;" horiz-adv-x="424" vert-adv-y="2308" 
d="M219 1392h116q-45 -57 -72 -120q-26 -65 -29 -117q135 -17 135 -124q0 -58 -43 -98q-41 -39 -99 -39q-67 0 -109 51q-41 51 -41 133q0 137 142 314z" />
    <glyph glyph-name="quoteright" unicode="&#x2019;" horiz-adv-x="424" vert-adv-y="2308" 
d="M205 894h-116q43 54 72 120q25 62 28 116q-134 18 -134 124q0 58 43 98q41 39 99 39q67 0 109 -52q41 -50 41 -132q0 -141 -142 -313z" />
    <glyph glyph-name="divide" unicode="&#xf7;" horiz-adv-x="1167" vert-adv-y="2308" 
d="M585 497q56 0 98 -42q41 -41 41 -99t-41 -99q-42 -42 -100 -42t-100 42q-41 41 -41 99q0 60 41 99q43 42 102 42zM585 1152q56 0 98 -42q41 -41 41 -99t-41 -99q-42 -42 -100 -42t-100 42q-41 41 -41 99q0 59 41 99q43 42 102 42zM97 779h973v-192h-973v192z" />
    <glyph glyph-name="lozenge" unicode="&#x25ca;" horiz-adv-x="1365" vert-adv-y="2308" 
d="M683 1419l531 -736l-531 -736l-532 736zM683 1238l-404 -555l404 -554l403 554z" />
    <glyph glyph-name="ydieresis" unicode="&#xff;" horiz-adv-x="1022" vert-adv-y="2308" 
d="M33 973h267l217 -741l225 741h262l-330 -946q-54 -154 -78 -201q-84 -163 -226 -209q-85 -28 -216 -28q-32 0 -96 2v219q162 -1 223 26q66 31 96 120zM339 1400q55 0 96 -41q41 -40 41 -98q0 -57 -41 -98t-98 -41t-98 41t-41 98q0 58 41 98q42 41 100 41zM702 1400
q55 0 96 -41q41 -40 41 -98q0 -57 -41 -98t-98 -41t-98 41t-41 98q0 58 41 98q41 41 100 41z" />
    <glyph glyph-name="Ydieresis" unicode="&#x178;" horiz-adv-x="1152" vert-adv-y="2308" 
d="M0 1365h293l287 -544l283 544h289l-444 -827v-538h-263v538zM387 1784q60 0 105 -44q44 -44 44 -107q0 -62 -44 -106q-45 -45 -107 -45t-107 45q-44 44 -44 106q0 64 44 107q46 44 109 44zM768 1784q60 0 105 -44q44 -44 44 -107q0 -62 -44 -107q-45 -44 -107 -44
t-107 44q-44 45 -44 107q0 63 44 107q46 44 109 44z" />
    <glyph glyph-name="fraction" unicode="&#x2044;" horiz-adv-x="278" vert-adv-y="2308" 
d="M423 1331h201l-769 -1331h-201z" />
    <glyph glyph-name="currency" unicode="&#xa4;" horiz-adv-x="1365" vert-adv-y="2308" 
d="M50 278l208 208q-91 133 -91 283q0 147 93 282l-212 211l138 138l211 -211q138 91 288 91q146 0 281 -88l210 206l136 -136l-207 -207q95 -147 95 -287q0 -144 -91 -280l209 -209l-136 -138l-209 208q-137 -94 -290 -94q-140 0 -288 93l-209 -207zM680 1053
q-115 0 -198 -83q-84 -84 -84 -203q0 -117 84 -201t201 -84q118 0 202 84q84 83 84 201q0 121 -84 203q-85 83 -205 83z" />
    <glyph glyph-name="guilsinglleft" unicode="&#x2039;" horiz-adv-x="622" vert-adv-y="2308" 
d="M499 0h-221l-223 476l223 504h221l-184 -504z" />
    <glyph glyph-name="guilsinglright" unicode="&#x203a;" horiz-adv-x="622" vert-adv-y="2308" 
d="M123 980h221l223 -475l-223 -505h-221l185 505z" />
    <glyph glyph-name="fi" unicode="&#xf001;" horiz-adv-x="1156" vert-adv-y="2308" 
d="M415 973h229v-197h-229v-776h-253v776h-130v197h130v61q0 180 53 259q77 115 247 115q104 0 224 -46v-203q-108 32 -166 32q-75 0 -96 -66q-9 -31 -9 -127v-25zM763 973h253v-973h-253v973zM894 1392q62 0 101 -37q41 -39 41 -109q0 -69 -42 -109q-39 -38 -104 -38
q-69 0 -108 40q-39 38 -39 103q0 72 44 112q43 38 107 38z" />
    <glyph glyph-name="fi" unicode="&#xfb01;" horiz-adv-x="1156" vert-adv-y="2308" 
d="M415 973h229v-197h-229v-776h-253v776h-130v197h130v61q0 180 53 259q77 115 247 115q104 0 224 -46v-203q-108 32 -166 32q-75 0 -96 -66q-9 -31 -9 -127v-25zM763 973h253v-973h-253v973zM894 1392q62 0 101 -37q41 -39 41 -109q0 -69 -42 -109q-39 -38 -104 -38
q-69 0 -108 40q-39 38 -39 103q0 72 44 112q43 38 107 38z" />
    <glyph glyph-name="fl" unicode="&#xf002;" horiz-adv-x="1156" vert-adv-y="2308" 
d="M415 973h229v-197h-229v-776h-253v776h-130v197h130v61q0 180 53 259q77 115 247 115q104 0 224 -46v-203q-108 32 -166 32q-75 0 -96 -66q-9 -31 -9 -127v-25zM763 1374h253v-1374h-253v1374z" />
    <glyph glyph-name="fl" unicode="&#xfb02;" horiz-adv-x="1156" vert-adv-y="2308" 
d="M415 973h229v-197h-229v-776h-253v776h-130v197h130v61q0 180 53 259q77 115 247 115q104 0 224 -46v-203q-108 32 -166 32q-75 0 -96 -66q-9 -31 -9 -127v-25zM763 1374h253v-1374h-253v1374z" />
    <glyph glyph-name="daggerdbl" unicode="&#x2021;" vert-adv-y="2308" 
d="M392 1331h236v-188h294v-195h-294v-777h294v-195h-294v-245h-236v245h-289v195h289v777h-289v195h289v188z" />
    <glyph glyph-name="periodcentered" unicode="&#x2219;" horiz-adv-x="515" vert-adv-y="2308" 
d="M258 671q63 0 109 -46t46 -111q0 -64 -46 -110t-111 -46q-64 0 -110 46t-46 110q0 66 46 111q47 46 112 46z" />
    <glyph glyph-name="quotesinglbase" unicode="&#x201a;" horiz-adv-x="424" vert-adv-y="2308" 
d="M205 -231h-116q43 54 72 120q25 62 28 116q-134 18 -134 124q0 59 43 99q41 38 100 38q66 0 108 -52q41 -50 41 -132q0 -141 -142 -313z" />
    <glyph glyph-name="quotedblbase" unicode="&#x201e;" horiz-adv-x="776" vert-adv-y="2308" 
d="M205 -231h-116q43 54 72 120q25 62 28 116q-134 18 -134 124q0 59 43 99q41 38 100 38q66 0 108 -52q41 -50 41 -132q0 -141 -142 -313zM557 -231h-115q44 56 71 120q26 64 29 116q-134 18 -134 124q0 58 43 99q41 38 99 38q67 0 108 -52q41 -50 41 -132
q0 -142 -142 -313z" />
    <glyph glyph-name="perthousand" unicode="&#x2030;" horiz-adv-x="2142" vert-adv-y="2308" 
d="M1024 1365h200l-791 -1365h-201zM1108 650q59 0 121 -32q86 -44 129 -136q36 -77 36 -162q0 -156 -100 -252q-81 -78 -189 -78q-119 0 -203 94q-85 95 -85 236q0 85 36 162q43 91 129 136q61 32 126 32zM1104 510q-58 0 -94 -55q-34 -51 -34 -135q0 -90 39 -142
q36 -48 91 -48q58 0 95 55q34 51 34 135q0 90 -39 142q-36 48 -92 48zM1790 650q59 0 121 -32q86 -44 129 -136q36 -77 36 -162q0 -156 -100 -252q-81 -78 -189 -78q-119 0 -203 94q-85 95 -85 236q0 85 36 162q43 92 129 136q61 32 126 32zM1786 510q-58 0 -94 -55
q-34 -51 -34 -135q0 -90 39 -142q36 -48 91 -48q58 0 95 55q34 52 34 135q0 90 -39 142q-36 48 -92 48zM357 1375q59 0 121 -32q86 -44 129 -136q36 -77 36 -162q0 -156 -100 -252q-82 -78 -189 -78q-119 0 -203 94q-85 95 -85 236q0 85 36 162q43 92 129 136q62 32 126 32z
M353 1235q-58 0 -94 -55q-34 -52 -34 -135q0 -90 39 -142q36 -48 90 -48q60 0 96 55q34 52 34 135q0 90 -39 142q-36 48 -92 48z" />
    <glyph glyph-name="Acircumflex" unicode="&#xc2;" horiz-adv-x="1232" vert-adv-y="2308" 
d="M481 1365h267l464 -1365h-271l-84 284h-483l-85 -284h-269zM790 508l-176 557l-173 -557h349zM233 1489l282 288h202l282 -288h-238l-144 159l-143 -159h-241z" />
    <glyph glyph-name="Ecircumflex" unicode="&#xca;" horiz-adv-x="1099" vert-adv-y="2308" 
d="M427 819h542v-224h-542v-371h618v-224h-881v1365h859v-224h-596v-322zM211 1489l282 288h202l282 -288h-238l-144 159l-143 -159h-241z" />
    <glyph glyph-name="Aacute" unicode="&#xc1;" horiz-adv-x="1232" vert-adv-y="2308" 
d="M481 1365h267l464 -1365h-271l-84 284h-483l-85 -284h-269zM790 508l-176 557l-173 -557h349zM440 1467l340 333h311l-416 -333h-235z" />
    <glyph glyph-name="Edieresis" unicode="&#xcb;" horiz-adv-x="1099" vert-adv-y="2308" 
d="M427 819h542v-224h-542v-371h618v-224h-881v1365h859v-224h-596v-322zM406 1784q60 0 105 -44q44 -44 44 -107q0 -62 -44 -106q-45 -45 -107 -45t-107 45q-44 44 -44 106q0 64 44 107q46 44 109 44zM787 1784q60 0 105 -44q44 -44 44 -107q0 -62 -44 -107
q-45 -44 -107 -44t-107 44q-44 45 -44 107q0 63 44 107q46 44 109 44z" />
    <glyph glyph-name="Egrave" unicode="&#xc8;" horiz-adv-x="1099" vert-adv-y="2308" 
d="M427 819h542v-224h-542v-371h618v-224h-881v1365h859v-224h-596v-322zM789 1467h-236l-415 333h310z" />
    <glyph glyph-name="Iacute" unicode="&#xcd;" horiz-adv-x="591" vert-adv-y="2308" 
d="M427 0h-263v1365h263v-1365zM134 1467l340 333h311l-416 -333h-235z" />
    <glyph glyph-name="Icircumflex" unicode="&#xce;" horiz-adv-x="591" vert-adv-y="2308" 
d="M427 0h-263v1365h263v-1365zM-86 1489l282 288h202l282 -288h-238l-144 159l-143 -159h-241z" />
    <glyph glyph-name="Idieresis" unicode="&#xcf;" horiz-adv-x="591" vert-adv-y="2308" 
d="M427 0h-263v1365h263v-1365zM116 1774q58 0 100 -42t42 -101q0 -60 -42 -102t-101 -42q-60 0 -102 42t-42 101q0 61 42 102q43 42 103 42zM478 1774q58 0 100 -42t42 -101q0 -60 -42 -102t-101 -42t-102 42q-42 42 -42 101q0 61 42 102q43 42 103 42z" />
    <glyph glyph-name="Igrave" unicode="&#xcc;" horiz-adv-x="591" vert-adv-y="2308" 
d="M427 0h-263v1365h263v-1365zM431 1467h-236l-415 333h310z" />
    <glyph glyph-name="Oacute" unicode="&#xd3;" horiz-adv-x="1378" vert-adv-y="2308" 
d="M697 1391q158 0 296 -78q158 -89 236 -254q77 -161 77 -377q0 -353 -198 -545q-168 -163 -418 -163q-252 0 -419 163q-198 192 -198 543q0 254 101 426q91 154 254 229q121 56 269 56zM685 1167q-153 0 -237 -114q-102 -138 -102 -371q0 -231 102 -370q83 -114 241 -114
q159 0 242 114q102 140 102 368q0 235 -102 373q-84 114 -246 114zM494 1467l340 333h311l-416 -333h-235z" />
    <glyph glyph-name="Ocircumflex" unicode="&#xd4;" horiz-adv-x="1378" vert-adv-y="2308" 
d="M697 1391q158 0 296 -78q158 -89 236 -254q77 -161 77 -377q0 -353 -198 -545q-168 -163 -418 -163q-252 0 -419 163q-198 192 -198 543q0 254 101 426q91 154 254 229q121 56 269 56zM685 1167q-153 0 -237 -114q-102 -138 -102 -371q0 -231 102 -370q83 -114 241 -114
q159 0 242 114q102 140 102 368q0 235 -102 373q-84 114 -246 114zM306 1489l282 288h202l282 -288h-238l-144 159l-143 -159h-241z" />
    <glyph glyph-name="Euro" unicode="&#x20ac;" horiz-adv-x="1167" vert-adv-y="2308" 
d="M435 867h568l-67 -143h-518q-2 -35 -2 -65q0 -33 3 -59h461l-66 -143h-369q15 -113 57 -169q72 -95 224 -95q162 0 275 94q65 54 124 162v-298q-68 -72 -134 -109q-127 -70 -307 -70q-296 0 -423 211q-56 94 -84 274h-177l63 143h99q-2 27 -2 69q0 32 3 55h-148l63 143
h100q30 163 96 274q149 249 451 249q273 0 429 -191l-106 -232q-48 73 -87 114q-96 98 -233 98q-163 0 -240 -146q-33 -63 -53 -166z" />
    <glyph glyph-name="Ograve" unicode="&#xd2;" horiz-adv-x="1378" vert-adv-y="2308" 
d="M697 1391q158 0 296 -78q158 -89 236 -254q77 -161 77 -377q0 -353 -198 -545q-168 -163 -418 -163q-252 0 -419 163q-198 192 -198 543q0 254 101 426q91 154 254 229q121 56 269 56zM685 1167q-153 0 -237 -114q-102 -138 -102 -371q0 -231 102 -370q83 -114 241 -114
q159 0 242 114q102 140 102 368q0 235 -102 373q-84 114 -246 114zM886 1467h-236l-415 333h310z" />
    <glyph glyph-name="Uacute" unicode="&#xda;" horiz-adv-x="1382" vert-adv-y="2308" 
d="M150 1365h263v-784q0 -162 22 -226q27 -78 97 -117q67 -37 159 -37q126 0 200 67q66 60 74 196q3 38 3 117v784h263v-788q0 -154 -13 -225q-30 -172 -159 -269q-145 -109 -368 -109q-224 0 -369 109q-129 97 -159 269q-13 71 -13 225v788zM489 1467l340 333h311
l-416 -333h-235z" />
    <glyph glyph-name="Ucircumflex" unicode="&#xdb;" horiz-adv-x="1382" vert-adv-y="2308" 
d="M150 1365h263v-784q0 -162 22 -226q27 -78 97 -117q67 -37 159 -37q126 0 200 67q66 60 74 196q3 38 3 117v784h263v-788q0 -154 -13 -225q-30 -172 -159 -269q-145 -109 -368 -109q-224 0 -369 109q-129 97 -159 269q-13 71 -13 225v788zM308 1489l282 288h202l282 -288
h-238l-144 159l-143 -159h-241z" />
    <glyph glyph-name="Ugrave" unicode="&#xd9;" horiz-adv-x="1382" vert-adv-y="2308" 
d="M150 1365h263v-784q0 -162 22 -226q27 -78 97 -117q67 -37 159 -37q126 0 200 67q66 60 74 196q3 38 3 117v784h263v-788q0 -154 -13 -225q-30 -172 -159 -269q-145 -109 -368 -109q-224 0 -369 109q-129 97 -159 269q-13 71 -13 225v788zM894 1467h-236l-415 333h310z
" />
    <glyph glyph-name="dotlessi" unicode="&#x131;" horiz-adv-x="534" vert-adv-y="2308" 
d="M141 973h253v-973h-253v973z" />
    <glyph glyph-name="circumflex" unicode="&#x2c6;" vert-adv-y="2308" 
d="M163 1109l247 311h203l248 -311h-227l-122 176l-120 -176h-229z" />
    <glyph glyph-name="tilde" unicode="&#x2dc;" vert-adv-y="2308" 
d="M300 1132l-106 29q57 217 182 217q42 0 137 -33q95 -32 123 -32q53 0 99 83l94 -27q-19 -92 -58 -150q-53 -77 -125 -77q-44 0 -139 32q-101 35 -124 35q-55 0 -83 -77z" />
    <glyph glyph-name="macron" unicode="&#x2c9;" vert-adv-y="2308" 
d="M216 1335h592v-150h-592v150z" />
    <glyph glyph-name="breve" unicode="&#x2d8;" vert-adv-y="2308" 
d="M235 1399h104q28 -59 56 -89q49 -53 122 -53q69 0 113 51q27 32 55 91h104q-13 -112 -63 -187q-72 -109 -206 -109q-141 0 -220 111q-53 74 -65 185z" />
    <glyph glyph-name="dotaccent" unicode="&#x2d9;" vert-adv-y="2308" 
d="M514 1400q55 0 96 -41t41 -98t-41 -98t-98 -41t-98 41t-41 98q0 58 41 98q42 41 100 41z" />
    <glyph glyph-name="ring" unicode="&#x2da;" vert-adv-y="2308" 
d="M515 1477q81 0 141 -60q59 -59 59 -143t-59 -143q-60 -60 -144 -60t-143 60q-60 59 -60 142q0 86 60 144q61 60 146 60zM511 1373q-40 0 -70 -29q-29 -29 -29 -70t29 -71q30 -29 71 -29t70 29q30 30 30 70q0 42 -30 71t-71 29z" />
    <glyph glyph-name="cedilla" unicode="&#xb8;" vert-adv-y="2308" 
d="M413 0h136l-29 -91q187 -38 187 -190q0 -96 -71 -157q-60 -51 -142 -51q-89 0 -176 60v98q80 -42 135 -42q42 0 67 25q33 32 33 83q0 59 -45 93q-33 24 -80 24q-25 0 -62 -9z" />
    <glyph glyph-name="hungarumlaut" unicode="&#x2dd;" vert-adv-y="2308" 
d="M258 1098l215 333h276l-324 -333h-167zM611 1098l215 333h276l-324 -333h-167z" />
    <glyph glyph-name="ogonek" unicode="&#x2db;" vert-adv-y="2308" 
d="M644 0h192q-101 -67 -149 -115q-53 -52 -53 -99q0 -37 26 -60q24 -22 69 -22q47 0 97 21v-106q-62 -33 -136 -33q-112 0 -173 66q-49 52 -49 130q0 95 78 158q38 31 98 60z" />
    <glyph glyph-name="caron" unicode="&#x2c7;" vert-adv-y="2308" 
d="M861 1420l-247 -311h-203l-248 311h227l122 -176l120 176h229z" />
    <glyph glyph-name="Euro" horiz-adv-x="1167" vert-adv-y="2308" 
d="M435 867h568l-67 -143h-518q-2 -35 -2 -65q0 -33 3 -59h461l-66 -143h-369q15 -113 57 -169q72 -95 224 -95q162 0 275 94q65 54 124 162v-298q-68 -72 -134 -109q-127 -70 -307 -70q-296 0 -423 211q-56 94 -84 274h-177l63 143h99q-2 27 -2 69q0 32 3 55h-148l63 143
h100q30 163 96 274q149 249 451 249q273 0 429 -191l-106 -232q-48 73 -87 114q-96 98 -233 98q-163 0 -240 -146q-33 -63 -53 -166z" />
    <glyph glyph-name="nbspace" unicode="&#xa0;" horiz-adv-x="512" vert-adv-y="2308" 
 />
    <glyph glyph-name="brokenbar" unicode="&#xa6;" vert-adv-y="2308" 
d="M386 1365h253v-706h-253v706zM386 314h253v-655h-253v655z" />
    <glyph glyph-name="sfthyphen" unicode="&#xad;" horiz-adv-x="535" vert-adv-y="2308" 
d="M0 607h535v-182h-535v182z" />
    <glyph glyph-name="overscore" unicode="&#xaf;" vert-adv-y="2308" 
d="M0 1822h1024v-227h-1024v227z" />
    <glyph glyph-name="twosuperior" unicode="&#xb2;" horiz-adv-x="758" vert-adv-y="2308" 
d="M261 1101h-140q-2 97 48 158q74 91 218 91q119 0 193 -63q65 -56 65 -153q0 -75 -56 -153q-85 -121 -263 -301h325v-147h-544v128l16 18q194 210 269 299q84 100 84 153q0 32 -26 55q-27 24 -71 24q-107 0 -118 -109z" />
    <glyph glyph-name="threesuperior" unicode="&#xb3;" horiz-adv-x="758" vert-adv-y="2308" 
d="M260 1127h-141q3 101 63 161q73 72 209 72q113 0 178 -53q74 -59 74 -159q0 -126 -125 -176q33 -9 58 -27q78 -54 78 -159q0 -116 -89 -187q-76 -61 -197 -61q-170 0 -246 100q-44 59 -44 154h150q0 -48 28 -77q35 -38 107 -38q59 0 91 28q35 30 35 81q0 86 -94 102
q-47 8 -134 8v131q24 -1 36 -1q180 0 180 110q0 40 -30 64q-28 22 -73 22q-98 0 -114 -95z" />
    <glyph glyph-name="middot" unicode="&#xb7;" horiz-adv-x="515" vert-adv-y="2308" 
d="M258 671q63 0 109 -46t46 -111q0 -64 -46 -110t-111 -46q-64 0 -110 46t-46 110q0 66 46 111q47 46 112 46z" />
    <glyph glyph-name="onesuperior" unicode="&#xb9;" horiz-adv-x="758" vert-adv-y="2308" 
d="M155 1100v92q88 -1 137 37q43 34 60 106h115v-803h-167v568h-145z" />
    <glyph glyph-name="onequarter" unicode="&#xbc;" horiz-adv-x="1794" vert-adv-y="2308" 
d="M155 1100v92q88 -1 137 37q43 34 60 106h115v-803h-167v568h-145zM1181 1331h201l-769 -1331h-201zM1591 293h148v-129h-145v-174h-168v174h-342v126l318 512h189v-509zM1435 293v325l-193 -325h193z" />
    <glyph glyph-name="onehalf" unicode="&#xbd;" horiz-adv-x="1794" vert-adv-y="2308" 
d="M155 1100v92q88 -1 137 37q43 34 60 106h115v-803h-167v568h-145zM1181 1331h201l-769 -1331h-201zM1298 569h-140q-1 97 48 158q73 91 217 91q119 0 193 -63q65 -57 65 -153q0 -75 -55 -154q-88 -124 -264 -301h325v-147h-543v128l16 17q199 217 268 300q84 101 84 154
q0 32 -26 55q-27 24 -71 24q-106 0 -117 -109z" />
    <glyph glyph-name="threequarters" unicode="&#xbe;" horiz-adv-x="1794" vert-adv-y="2308" 
d="M260 1127h-141q3 101 63 161q73 72 209 72q113 0 178 -53q74 -59 74 -159q0 -126 -125 -176q33 -9 58 -27q78 -54 78 -159q0 -116 -89 -187q-76 -61 -197 -61q-170 0 -246 100q-44 59 -44 154h150q0 -48 28 -77q35 -38 107 -38q59 0 91 28q35 30 35 81q0 86 -94 102
q-47 8 -134 8v131q24 -1 36 -1q180 0 180 110q0 40 -30 64q-28 22 -73 22q-98 0 -114 -95zM1181 1331h200l-768 -1331h-201zM1590 293h149v-129h-145v-174h-168v174h-342v126l318 512h188v-509zM1434 293v325l-192 -325h192z" />
    <glyph glyph-name="Eth" unicode="&#xd0;" horiz-adv-x="1322" vert-adv-y="2308" 
d="M164 1365h334q287 0 426 -71q157 -79 245 -250q81 -156 81 -360q0 -280 -151 -475q-128 -166 -356 -196q-97 -13 -286 -13h-293v608h-123v205h123v552zM427 224h120q110 0 174 13q127 26 188 134q74 130 74 315q0 172 -67 291q-71 125 -218 152q-64 12 -214 12h-57v-328
h273v-205h-273v-384z" />
    <glyph glyph-name="multiply" unicode="&#xd7;" horiz-adv-x="1167" vert-adv-y="2308" 
d="M723 681l292 -292l-135 -136l-291 291l-300 -301l-139 139l300 301l-290 290l136 136l290 -291l292 293l139 -139z" />
    <glyph glyph-name="Yacute" unicode="&#xdd;" horiz-adv-x="1152" vert-adv-y="2308" 
d="M0 1365h293l287 -544l283 544h289l-444 -827v-538h-263v538zM378 1467l340 333h311l-416 -333h-235z" />
    <glyph glyph-name="Thorn" unicode="&#xde;" horiz-adv-x="1157" vert-adv-y="2308" 
d="M164 1365h263v-159h57q267 0 389 -41q131 -44 196 -163q57 -104 57 -231q0 -199 -127 -313q-103 -92 -300 -103q-81 -4 -190 -4h-82v-351h-263v1365zM427 575h83q179 0 239 22q59 21 88 81q21 43 21 96q0 129 -92 175q-68 33 -244 33h-95v-407z" />
    <glyph glyph-name="eth" unicode="&#xf0;" horiz-adv-x="1097" vert-adv-y="2308" 
d="M563 1293l155 85l84 -99l-148 -83q127 -128 243 -288q132 -181 132 -411q0 -256 -149 -400q-128 -124 -321 -124q-195 0 -327 116q-73 64 -114 154q-50 113 -50 239q0 159 74 285q71 122 208 180q75 32 155 32q49 0 79 -12q19 -7 54 -30q-62 99 -138 179l-137 -80
l-80 103l133 76l-95 95l124 82q60 -48 118 -99zM546 795q-81 0 -139 -63q-82 -90 -82 -247q0 -156 82 -248q58 -64 142 -64t141 64q82 92 82 246q0 161 -81 249q-58 63 -145 63z" />
    <glyph glyph-name="yacute" unicode="&#xfd;" horiz-adv-x="1022" vert-adv-y="2308" 
d="M33 973h267l217 -741l225 741h262l-330 -946q-54 -154 -78 -201q-84 -163 -226 -209q-85 -28 -216 -28q-32 0 -96 2v219q162 -1 223 26q66 31 96 120zM346 1098l261 333h310l-381 -333h-190z" />
    <glyph glyph-name="thorn" unicode="&#xfe;" horiz-adv-x="1123" vert-adv-y="2308" 
d="M141 -403v1777h253v-515q90 135 252 135q158 0 265 -106q144 -143 144 -394q0 -281 -171 -430q-99 -85 -232 -85q-154 0 -258 126v-508h-253zM596 783q-81 0 -131 -56q-76 -84 -76 -247q0 -148 70 -227q56 -63 141 -63q81 0 127 56q71 86 71 242q0 146 -64 232
q-47 63 -138 63z" />
    <glyph glyph-name="Amacron" unicode="&#x100;" horiz-adv-x="1232" vert-adv-y="2308" 
d="M481 1365h267l464 -1365h-271l-84 284h-483l-85 -284h-269zM790 508l-176 557l-173 -557h349zM291 1704h649v-153h-649v153z" />
    <glyph glyph-name="amacron" unicode="&#x101;" horiz-adv-x="1049" vert-adv-y="2308" 
d="M358 683h-240q18 147 107 218q116 93 317 93q172 0 272 -71q78 -55 94 -176q7 -54 7 -138v-392q-1 -155 32 -217h-229q-13 54 -13 91v20q-78 -132 -268 -132q-153 0 -245 62q-108 73 -108 216t106 227q93 74 282 112q34 7 199 36v16q0 72 -24 102q-36 45 -123 45
q-144 0 -166 -112zM671 464q-214 -26 -270 -66q-60 -43 -60 -109q0 -45 33 -78q42 -40 116 -40q72 0 122 40q43 35 54 101q5 33 5 97v55zM236 1335h592v-150h-592v150z" />
    <glyph glyph-name="Abreve" unicode="&#x102;" horiz-adv-x="1232" vert-adv-y="2308" 
d="M481 1365h267l464 -1365h-271l-84 284h-483l-85 -284h-269zM790 508l-176 557l-173 -557h349zM315 1779h97q79 -144 204 -144q126 0 205 144h97q-14 -111 -70 -182q-87 -110 -231 -110q-147 0 -236 116q-54 72 -66 176z" />
    <glyph glyph-name="abreve" unicode="&#x103;" horiz-adv-x="1049" vert-adv-y="2308" 
d="M358 683h-240q18 147 107 218q116 93 317 93q172 0 272 -71q78 -55 94 -176q7 -54 7 -138v-392q-1 -155 32 -217h-229q-13 54 -13 91v20q-78 -132 -268 -132q-153 0 -245 62q-108 73 -108 216t106 227q93 74 282 112q34 7 199 36v16q0 72 -24 102q-36 45 -123 45
q-144 0 -166 -112zM671 464q-214 -26 -270 -66q-60 -43 -60 -109q0 -45 33 -78q42 -40 116 -40q72 0 122 40q43 35 54 101q5 33 5 97v55zM255 1399h104q28 -59 56 -89q49 -53 122 -53q69 0 113 51q27 32 55 91h104q-13 -112 -63 -187q-72 -109 -206 -109q-141 0 -220 111
q-53 74 -65 185z" />
    <glyph glyph-name="Aogonek" unicode="&#x104;" horiz-adv-x="1232" vert-adv-y="2308" 
d="M1211 0q-81 -55 -133 -120q-46 -58 -46 -101q0 -48 37 -72q25 -17 66 -17q48 0 100 23v-112q-74 -38 -149 -38q-114 0 -179 70q-54 59 -54 138q0 99 85 166q35 27 105 63h-103l-84 284h-482l-85 -284h-269l461 1365h267zM789 508l-175 557l-174 -557h349z" />
    <glyph glyph-name="aogonek" unicode="&#x105;" horiz-adv-x="1049" vert-adv-y="2308" 
d="M948 0q-175 -139 -175 -214q0 -37 26 -60q24 -22 69 -22q47 0 98 21v-106q-63 -33 -137 -33q-112 0 -173 66q-49 52 -49 130q0 95 78 158q38 31 98 60h-65q-13 54 -13 91v20q-78 -132 -268 -132q-153 0 -245 62q-108 73 -108 216t106 227q93 74 282 112q34 7 199 36v16
q0 72 -24 102q-36 45 -123 45q-144 0 -166 -112h-240q18 147 107 218q116 93 317 93q172 0 272 -71q78 -55 94 -176q7 -54 7 -138v-392q-1 -155 33 -217zM671 464q-214 -26 -270 -66q-60 -43 -60 -109q0 -45 33 -78q42 -40 116 -40q72 0 122 40q43 35 54 101q5 33 5 97v55z
" />
    <glyph glyph-name="Cacute" unicode="&#x106;" horiz-adv-x="1228" vert-adv-y="2308" 
d="M1155 921h-226q-14 89 -57 149q-67 94 -197 94q-149 0 -236 -124q-93 -135 -93 -360q0 -216 87 -348t245 -132q236 0 260 306h235q-9 -195 -72 -309q-123 -224 -413 -224q-249 0 -413 156q-202 192 -202 545q0 381 218 575q159 141 384 141q153 0 267 -66
q196 -114 213 -403zM470 1467l340 333h311l-416 -333h-235z" />
    <glyph glyph-name="cacute" unicode="&#x107;" horiz-adv-x="1017" vert-adv-y="2308" 
d="M942 651h-247q-23 147 -157 147q-88 0 -141 -67q-72 -91 -72 -247q0 -176 83 -261q47 -49 128 -49q147 0 169 172h244q-8 -151 -112 -259q-111 -115 -302 -115q-195 0 -323 127q-144 143 -144 386q0 171 77 301q127 214 395 214q207 0 320 -138q64 -78 82 -211zM363 1098
l261 333h310l-381 -333h-190z" />
    <glyph glyph-name="Ccircumflex" unicode="&#x108;" horiz-adv-x="1228" vert-adv-y="2308" 
d="M1155 922h-226q-14 89 -57 149q-67 94 -197 94q-149 0 -236 -124q-93 -135 -93 -360q0 -217 87 -349t245 -132q236 0 260 307h235q-9 -195 -72 -310q-124 -224 -409 -224q-249 0 -416 158q-203 192 -203 544q0 383 217 573q88 77 208 114q90 29 183 29q145 0 260 -66
q197 -113 214 -403zM295 1489l282 288h203l282 -288h-239l-144 159l-143 -159h-241z" />
    <glyph glyph-name="Cdot" unicode="&#x10a;" horiz-adv-x="1228" vert-adv-y="2308" 
d="M1155 922h-226q-14 89 -57 149q-67 94 -197 94q-149 0 -236 -124q-93 -135 -93 -360q0 -217 87 -349t245 -132q236 0 260 307h235q-9 -195 -72 -310q-124 -224 -409 -224q-249 0 -416 158q-203 192 -203 544q0 383 217 573q88 77 208 114q90 29 183 29q145 0 260 -66
q197 -113 214 -403zM681 1795q64 0 112 -48q48 -47 48 -114q0 -68 -48 -115q-48 -48 -115 -48t-114 48q-48 47 -48 114q0 69 48 115q48 48 117 48z" />
    <glyph glyph-name="cdot" unicode="&#x10b;" horiz-adv-x="1017" vert-adv-y="2308" 
d="M942 651h-247q-23 148 -157 148q-88 0 -141 -67q-72 -91 -72 -247q0 -176 83 -262q47 -49 128 -49q147 0 169 172h244q-8 -151 -112 -259q-111 -115 -302 -115q-195 0 -323 127q-144 143 -144 387q0 170 77 300q127 215 395 215q207 0 320 -138q64 -79 82 -212zM540 1400
q55 0 96 -41q41 -40 41 -98q0 -57 -41 -98t-98 -41t-98 41t-41 98q0 58 41 98q42 41 100 41z" />
    <glyph glyph-name="Ccaron" unicode="&#x10c;" horiz-adv-x="1228" vert-adv-y="2308" 
d="M1155 921h-226q-14 89 -57 149q-67 94 -197 94q-149 0 -236 -124q-93 -135 -93 -360q0 -216 87 -348t245 -132q236 0 260 306h235q-9 -195 -72 -309q-123 -224 -413 -224q-249 0 -413 156q-202 192 -202 545q0 381 218 575q159 141 384 141q153 0 267 -66
q196 -114 213 -403zM1061 1777l-281 -288h-203l-282 288h239l144 -159l143 159h240z" />
    <glyph glyph-name="ccaron" unicode="&#x10d;" horiz-adv-x="1017" vert-adv-y="2308" 
d="M942 651h-247q-23 147 -157 147q-88 0 -141 -67q-72 -91 -72 -247q0 -176 83 -261q47 -49 128 -49q147 0 169 172h244q-8 -151 -112 -259q-111 -115 -302 -115q-195 0 -323 127q-144 143 -144 386q0 171 77 301q127 214 395 214q207 0 320 -138q64 -78 82 -211zM888 1420
l-247 -311h-203l-248 311h227l122 -176l120 176h229z" />
    <glyph glyph-name="Dcaron" unicode="&#x10e;" horiz-adv-x="1322" vert-adv-y="2308" 
d="M164 1365h334q287 0 426 -71q156 -79 245 -250q81 -158 81 -359q0 -281 -151 -476q-128 -166 -356 -196q-97 -13 -286 -13h-293v1365zM427 224h120q110 0 174 13q127 27 188 134q74 131 74 316q0 171 -67 290q-71 125 -218 152q-64 12 -214 12h-57v-917zM1015 1777
l-281 -288h-203l-282 288h239l144 -159l143 159h240z" />
    <glyph glyph-name="dcaron" unicode="&#x10f;" horiz-adv-x="1342" vert-adv-y="2308" 
d="M982 1374v-1066q1 -149 4 -204q2 -48 14 -104h-236q-8 53 -8 87q0 18 2 49q-36 -63 -75 -94q-78 -63 -201 -63q-162 0 -270 106q-144 142 -144 392q0 193 85 329q69 111 179 158q69 30 145 30q107 0 181 -54q31 -22 71 -74v508h253zM530 783q-83 0 -132 -58
q-73 -87 -73 -246q0 -141 64 -226q47 -63 136 -63q84 0 134 56q75 85 75 241q0 145 -57 225q-50 71 -147 71zM1241 896h-116q42 52 72 120q25 62 28 116q-134 18 -134 124q0 58 43 98q41 38 99 38q67 0 109 -51q41 -51 41 -133q0 -141 -142 -312z" />
    <glyph glyph-name="Dslash" unicode="&#x110;" horiz-adv-x="1322" vert-adv-y="2308" 
d="M164 1365h334q287 0 426 -71q157 -79 245 -250q81 -156 81 -360q0 -280 -151 -475q-128 -166 -356 -196q-97 -13 -286 -13h-293v608h-123v205h123v552zM427 224h120q110 0 174 13q127 26 188 134q74 130 74 315q0 172 -67 291q-71 125 -218 152q-64 12 -214 12h-57v-328
h273v-205h-273v-384z" />
    <glyph glyph-name="dmacron" unicode="&#x111;" horiz-adv-x="1123" vert-adv-y="2308" 
d="M982 1374v-129h123v-164h-123v-773q1 -149 4 -204q2 -48 14 -104h-236q-8 53 -8 87q0 18 2 49q-36 -63 -75 -94q-78 -63 -201 -63q-162 0 -270 106q-144 142 -144 391q0 191 84 330q66 109 180 153q74 28 153 28q148 0 244 -135v229h-246v164h246v129h253zM530 783
q-83 0 -132 -58q-73 -87 -73 -246q0 -141 64 -226q47 -63 136 -63q84 0 134 56q75 85 75 241q0 145 -57 225q-51 71 -147 71z" />
    <glyph glyph-name="Emacron" unicode="&#x112;" horiz-adv-x="1099" vert-adv-y="2308" 
d="M427 819h542v-224h-542v-371h618v-224h-881v1365h859v-224h-596v-322zM270 1704h649v-153h-649v153z" />
    <glyph glyph-name="emacron" unicode="&#x113;" horiz-adv-x="1054" vert-adv-y="2308" 
d="M985 425h-665q5 -100 50 -164q62 -87 186 -87q137 0 188 109l223 -9q-24 -107 -104 -186q-115 -116 -314 -116q-168 0 -285 79q-104 70 -152 191q-44 108 -44 231q0 183 83 318q71 118 196 171q88 38 195 38q208 0 330 -148q114 -139 114 -379q0 -15 -1 -48zM732 609
q-30 195 -193 195q-166 0 -212 -195h405zM252 1335h592v-150h-592v150z" />
    <glyph glyph-name="Ebreve" unicode="&#x114;" horiz-adv-x="1099" vert-adv-y="2308" 
d="M427 819h542v-224h-542v-371h618v-224h-881v1365h859v-224h-596v-322zM293 1779h97q79 -144 204 -144q126 0 205 144h97q-14 -111 -70 -182q-87 -110 -231 -110q-147 0 -236 116q-54 72 -66 176z" />
    <glyph glyph-name="ebreve" unicode="&#x115;" horiz-adv-x="1054" vert-adv-y="2308" 
d="M985 425h-665q5 -100 50 -164q62 -87 186 -87q137 0 188 109l223 -9q-24 -107 -104 -186q-115 -116 -314 -116q-168 0 -285 79q-104 70 -152 191q-44 108 -44 231q0 183 83 318q71 118 196 171q88 38 195 38q208 0 330 -148q114 -139 114 -379q0 -15 -1 -48zM732 609
q-30 195 -193 195q-166 0 -212 -195h405zM271 1399h104q27 -59 56 -89q48 -53 122 -53q69 0 113 51q26 32 54 91h104q-13 -112 -62 -187q-73 -109 -207 -109q-140 0 -220 111q-53 74 -64 185z" />
    <glyph glyph-name="Edot" unicode="&#x116;" horiz-adv-x="1099" vert-adv-y="2308" 
d="M427 819h542v-224h-542v-371h618v-224h-881v1365h859v-224h-596v-322zM597 1795q64 0 112 -48q48 -47 48 -114q0 -68 -48 -115q-48 -48 -115 -48t-114 48q-48 47 -48 114q0 69 48 115q48 48 117 48z" />
    <glyph glyph-name="edot" unicode="&#x117;" horiz-adv-x="1054" vert-adv-y="2308" 
d="M985 425h-665q5 -100 50 -164q62 -87 186 -87q137 0 188 109l223 -9q-24 -107 -104 -186q-115 -116 -314 -116q-168 0 -285 79q-104 70 -152 191q-44 108 -44 231q0 183 83 318q71 118 196 171q88 38 195 38q208 0 330 -148q114 -139 114 -379q0 -15 -1 -48zM732 609
q-30 195 -193 195q-166 0 -212 -195h405zM547 1400q55 0 96 -41t41 -98t-41 -98t-98 -41t-98 41t-41 98q0 58 41 98q42 41 100 41z" />
    <glyph glyph-name="Eogonek" unicode="&#x118;" horiz-adv-x="1099" vert-adv-y="2308" 
d="M1045 0q-66 -47 -131 -120q-48 -54 -48 -101q0 -48 37 -72q26 -17 66 -17q48 0 100 23v-112q-74 -38 -149 -38q-114 0 -179 70q-54 59 -54 138q0 144 191 229h-714v1365h859v-224h-596v-322h542v-224h-542v-371h618v-224z" />
    <glyph glyph-name="eogonek" unicode="&#x119;" horiz-adv-x="1054" vert-adv-y="2308" 
d="M879 -275v-106q-62 -33 -136 -33q-112 0 -173 66q-49 52 -49 125t52 135q24 27 82 71q-65 -11 -112 -11q-161 0 -279 79q-104 70 -152 191q-44 108 -44 231q0 183 83 318q71 118 196 171q88 38 195 38q208 0 330 -148q114 -139 114 -386v-41h-665q5 -100 50 -164
q62 -87 185 -87q138 0 189 109l223 -9q-11 -46 -30 -84q-19 -39 -82 -114q-104 -121 -133 -174q-36 -68 -36 -106q0 -92 95 -92q47 0 97 21zM732 609q-29 195 -192 195q-166 0 -213 -195h405z" />
    <glyph glyph-name="Ecaron" unicode="&#x11a;" horiz-adv-x="1099" vert-adv-y="2308" 
d="M427 819h542v-224h-542v-371h618v-224h-881v1365h859v-224h-596v-322zM977 1777l-281 -288h-203l-282 288h239l144 -159l143 159h240z" />
    <glyph glyph-name="ecaron" unicode="&#x11b;" horiz-adv-x="1054" vert-adv-y="2308" 
d="M985 425h-665q5 -100 50 -164q62 -87 186 -87q137 0 188 109l223 -9q-24 -107 -104 -186q-115 -116 -314 -116q-168 0 -285 79q-104 70 -152 191q-44 108 -44 231q0 183 83 318q71 118 196 171q88 38 195 38q208 0 330 -148q114 -139 114 -379q0 -15 -1 -48zM732 609
q-30 195 -193 195q-166 0 -212 -195h405zM897 1420l-247 -311h-203l-248 311h227l122 -176l120 176h229z" />
    <glyph glyph-name="Gcircumflex" unicode="&#x11c;" horiz-adv-x="1313" vert-adv-y="2308" 
d="M714 704h490v-567q-236 -163 -500 -163q-273 0 -446 178q-185 189 -185 531q0 344 192 538q168 170 418 170q156 0 278 -68q145 -81 196 -236q22 -64 27 -161h-226q-34 239 -270 239q-155 0 -240 -110q-102 -134 -102 -375q0 -224 92 -354q89 -125 263 -125q98 0 208 46
q44 19 78 43v219h-273v195zM305 1489l282 288h203l282 -288h-239l-144 159l-143 -159h-241z" />
    <glyph glyph-name="gcircumflex" unicode="&#x11d;" horiz-adv-x="1085" vert-adv-y="2308" 
d="M1047 973v-180h-198q50 -76 50 -174q0 -178 -152 -244q-59 -25 -134 -35q-14 -1 -151 -14q-96 -9 -96 -58q0 -25 31 -36q23 -9 183 -24q223 -22 302 -64q55 -29 86 -81q41 -66 41 -149q0 -164 -143 -251q-122 -75 -340 -75q-242 0 -374 87q-113 75 -113 200q0 110 86 173
q40 30 110 54q-108 44 -108 118q0 60 63 102q40 26 109 53q-75 38 -110 87q-56 77 -56 190q0 121 70 207q108 134 339 134q81 0 183 -26zM517 803q-83 0 -130 -49q-38 -40 -38 -100q0 -58 39 -98q45 -46 130 -46q86 0 133 49q37 38 37 94q0 66 -44 108q-45 42 -127 42z
M492 17q-100 0 -164 -27q-74 -31 -74 -95q0 -65 88 -97q73 -27 185 -27q121 0 182 33q59 33 59 87q0 61 -75 94q-71 32 -201 32zM201 1109l248 311h203l248 -311h-228l-121 176l-120 -176h-230z" />
    <glyph glyph-name="Gbreve" unicode="&#x11e;" horiz-adv-x="1313" vert-adv-y="2308" 
d="M714 704h490v-567q-236 -163 -501 -163q-276 0 -446 176q-184 190 -184 532q0 347 190 541q166 168 419 168q157 0 279 -68q145 -81 196 -236q22 -64 27 -161h-226q-34 239 -270 239q-155 0 -240 -110q-102 -134 -102 -375q0 -224 92 -354q89 -125 263 -125q98 0 208 46
q44 19 78 43v219h-273v195zM390 1779h97q79 -144 204 -144q126 0 205 144h97q-14 -111 -70 -182q-87 -110 -231 -110q-147 0 -236 116q-54 72 -66 176z" />
    <glyph glyph-name="gbreve" unicode="&#x11f;" horiz-adv-x="1085" vert-adv-y="2308" 
d="M1047 973v-180h-198q50 -76 50 -174q0 -178 -152 -244q-59 -25 -134 -35q-14 -1 -151 -14q-96 -9 -96 -58q0 -25 31 -36q23 -9 183 -24q223 -22 302 -64q55 -29 86 -81q41 -66 41 -149q0 -164 -143 -251q-122 -75 -340 -75q-242 0 -374 87q-113 75 -113 200q0 110 86 173
q40 30 110 54q-108 44 -108 118q0 60 63 102q40 26 109 53q-75 38 -110 87q-56 77 -56 190q0 121 70 207q108 134 339 134q81 0 183 -26zM517 803q-83 0 -130 -49q-38 -40 -38 -100q0 -58 39 -98q45 -46 130 -46q86 0 133 49q37 38 37 94q0 66 -44 108q-45 42 -127 42z
M492 17q-100 0 -164 -27q-74 -31 -74 -95q0 -65 88 -97q73 -27 185 -27q121 0 182 33q59 33 59 87q0 61 -75 94q-71 32 -201 32zM274 1399h104q28 -59 56 -89q49 -53 122 -53q69 0 113 51q27 32 55 91h104q-13 -112 -63 -187q-72 -109 -206 -109q-141 0 -220 111
q-53 74 -65 185z" />
    <glyph glyph-name="Gdot" unicode="&#x120;" horiz-adv-x="1313" vert-adv-y="2308" 
d="M714 704h490v-567q-236 -163 -500 -163q-273 0 -446 178q-185 189 -185 531q0 344 192 538q168 170 418 170q156 0 278 -68q145 -81 196 -236q22 -64 27 -161h-226q-34 239 -270 239q-155 0 -240 -110q-102 -134 -102 -375q0 -224 92 -354q89 -125 263 -125q98 0 208 46
q44 19 78 43v219h-273v195zM694 1795q64 0 112 -48q48 -47 48 -114q0 -68 -48 -115q-48 -48 -115 -48t-114 48q-48 47 -48 114q0 69 48 115q48 48 117 48z" />
    <glyph glyph-name="gdot" unicode="&#x121;" horiz-adv-x="1085" vert-adv-y="2308" 
d="M1047 973v-180h-198q50 -76 50 -174q0 -178 -152 -244q-59 -25 -134 -35q-14 -1 -151 -14q-96 -9 -96 -58q0 -25 31 -36q23 -9 183 -24q223 -22 302 -64q55 -29 86 -81q41 -66 41 -149q0 -164 -143 -251q-122 -75 -340 -75q-242 0 -374 87q-113 75 -113 200q0 110 86 173
q40 30 110 54q-108 44 -108 118q0 60 63 102q40 26 109 53q-75 38 -110 87q-56 77 -56 190q0 121 70 207q108 134 339 134q81 0 183 -26zM517 803q-83 0 -130 -49q-38 -40 -38 -100q0 -58 39 -98q45 -46 130 -46q86 0 133 49q37 38 37 94q0 66 -44 108q-45 42 -127 42z
M492 17q-100 0 -164 -27q-74 -31 -74 -95q0 -65 88 -97q73 -27 185 -27q121 0 182 33q59 33 59 87q0 61 -75 94q-71 32 -201 32zM552 1400q55 0 96 -41q41 -40 41 -98q0 -57 -41 -98t-98 -41t-98 41t-41 98q0 58 41 98q42 41 100 41z" />
    <glyph glyph-name="Gcedilla" unicode="&#x122;" horiz-adv-x="1313" vert-adv-y="2308" 
d="M714 704h490v-567q-236 -163 -501 -163q-276 0 -446 176q-184 190 -184 532q0 347 190 541q166 168 419 168q157 0 279 -68q145 -81 196 -236q22 -64 27 -161h-226q-34 239 -270 239q-155 0 -240 -110q-102 -134 -102 -375q0 -224 92 -354q89 -125 263 -125q98 0 208 46
q44 19 78 43v219h-273v195zM692 -591h-112q41 51 69 116q25 61 28 113q-130 16 -130 121q0 56 42 95q39 37 96 37q65 0 105 -50q40 -49 40 -129q0 -136 -138 -303z" />
    <glyph glyph-name="gcedilla" unicode="&#x123;" horiz-adv-x="1085" vert-adv-y="2308" 
d="M1047 973v-180h-198q50 -76 50 -174q0 -178 -152 -244q-59 -25 -134 -35q-14 -1 -151 -14q-96 -9 -96 -58q0 -25 31 -36q23 -9 183 -24q223 -22 302 -64q55 -29 86 -81q41 -66 41 -149q0 -164 -143 -251q-122 -75 -340 -75q-242 0 -374 87q-113 75 -113 200q0 110 86 173
q40 30 110 54q-108 44 -108 118q0 60 63 102q40 26 109 53q-75 38 -110 87q-56 77 -56 190q0 121 70 207q108 134 339 134q81 0 183 -26zM517 803q-83 0 -130 -49q-38 -40 -38 -100q0 -58 39 -98q45 -46 130 -46q86 0 133 49q37 38 37 94q0 66 -44 108q-45 42 -127 42z
M492 17q-100 0 -164 -27q-74 -31 -74 -95q0 -65 88 -97q73 -27 185 -27q121 0 182 33q59 33 59 87q0 61 -75 94q-71 32 -201 32zM554 1597h116q-43 -53 -72 -120q-26 -62 -29 -116q135 -18 135 -124q0 -59 -43 -99q-41 -38 -99 -38q-67 0 -109 52q-41 50 -41 132
q0 142 142 313z" />
    <glyph glyph-name="Hcircumflex" unicode="&#x124;" horiz-adv-x="1395" vert-adv-y="2308" 
d="M427 820h541v545h263v-1365h-263v603h-541v-603h-263v1365h263v-545zM314 1489l282 288h203l282 -288h-239l-144 159l-143 -159h-241z" />
    <glyph glyph-name="Hbar" unicode="&#x126;" horiz-adv-x="1395" vert-adv-y="2308" 
d="M968 1187v178h263v-178h123v-205h-123v-982h-263v603h-541v-603h-263v982h-123v205h123v178h263v-178h541zM968 982h-541v-162h541v162z" />
    <glyph glyph-name="hbar" unicode="&#x127;" horiz-adv-x="1137" vert-adv-y="2308" 
d="M141 1374h253v-129h273v-164h-273v-215q112 127 278 127q102 0 186 -47q103 -59 132 -181q13 -55 13 -204v-561h-253v506q0 130 -24 180q-42 85 -139 85q-69 0 -121 -45q-48 -41 -63 -116q-9 -41 -9 -112v-498h-253v1081h-123v164h123v129z" />
    <glyph glyph-name="Imacron" unicode="&#x12a;" horiz-adv-x="591" vert-adv-y="2308" 
d="M427 0h-263v1365h263v-1365zM26 1704h539v-153h-539v153z" />
    <glyph glyph-name="imacron" unicode="&#x12b;" horiz-adv-x="534" vert-adv-y="2308" 
d="M141 973h253v-973h-253v973zM26 1335h482v-150h-482v150z" />
    <glyph glyph-name="ibreve" unicode="&#x12d;" horiz-adv-x="534" vert-adv-y="2308" 
d="M141 973h253v-973h-253v973zM3 1392h104q48 -135 159 -135q114 0 161 135h104q-8 -108 -53 -180q-69 -109 -207 -109q-140 0 -217 111q-50 72 -51 178z" />
    <glyph glyph-name="Iogonek" unicode="&#x12e;" horiz-adv-x="591" vert-adv-y="2308" 
d="M282 0h-118v1365h263v-1365q-56 -58 -85 -109q-36 -64 -36 -104q0 -98 87 -98q33 0 68 18v-106q-47 -38 -128 -38q-96 0 -155 71q-51 62 -51 138q0 83 76 165q32 35 79 63z" />
    <glyph glyph-name="iogonek" unicode="&#x12f;" horiz-adv-x="534" vert-adv-y="2308" 
d="M393 0q-65 -85 -81 -111q-36 -59 -36 -107q0 -31 26 -58q18 -20 50 -20q31 0 75 19v-104q-55 -33 -113 -33q-91 0 -155 66q-49 51 -49 130q0 124 149 218h-119v973h253v-973zM271 1392q62 0 101 -37q41 -39 41 -109q0 -69 -42 -109q-39 -38 -104 -38q-69 0 -108 40
q-39 39 -39 103q0 72 44 112q43 38 107 38z" />
    <glyph glyph-name="Idot" unicode="&#x130;" horiz-adv-x="591" vert-adv-y="2308" 
d="M427 0h-263v1365h263v-1365zM298 1795q64 0 112 -48q48 -47 48 -114q0 -68 -48 -115q-48 -48 -115 -48t-114 48q-48 47 -48 114q0 69 48 115q48 48 117 48z" />
    <glyph glyph-name="IJ" unicode="&#x132;" horiz-adv-x="1236" vert-adv-y="2308" 
d="M427 0h-263v1365h263v-1365zM816 1365h263v-1088q0 -163 -7 -240q-16 -193 -166 -263q-108 -50 -279 -50q-27 0 -85 2v219q22 -1 32 -1q159 0 206 45q29 29 33 105q3 50 3 177v1094z" />
    <glyph glyph-name="ij" unicode="&#x133;" horiz-adv-x="1082" vert-adv-y="2308" 
d="M141 973h253v-973h-253v973zM272 1392q61 0 101 -37q41 -39 41 -109q0 -69 -42 -109q-39 -38 -104 -38q-69 0 -108 40q-39 39 -39 103q0 72 45 112q42 38 106 38zM695 973h253v-833q0 -160 -13 -222q-31 -154 -156 -233q-97 -61 -278 -61q-19 0 -57 1v216h30
q152 0 196 71q19 30 23 88q2 18 2 86v52v835zM827 1391q62 0 100 -36q41 -39 41 -110q0 -68 -42 -108q-39 -38 -104 -38q-68 0 -107 40q-39 39 -39 103q0 71 44 112q41 37 107 37z" />
    <glyph glyph-name="Kcedilla" unicode="&#x136;" horiz-adv-x="1275" vert-adv-y="2308" 
d="M931 1365h301l-510 -632l545 -733h-335l-502 723zM164 1365h263v-1365h-263v1365zM668 -591h-112q41 51 69 116q25 61 28 113q-130 16 -130 121q0 56 42 95q39 37 96 37q65 0 105 -50q40 -49 40 -129q0 -136 -138 -303z" />
    <glyph glyph-name="kcedilla" unicode="&#x137;" horiz-adv-x="1098" vert-adv-y="2308" 
d="M754 973h303l-366 -451l398 -522h-337l-356 519zM141 1374h253v-1374h-253v1374zM575 -606h-116q43 53 72 120q25 62 28 116q-134 18 -134 124q0 59 43 99q41 38 100 38q66 0 108 -51q41 -51 41 -133q0 -142 -142 -313z" />
    <glyph glyph-name="kgreenlandic" unicode="&#x138;" horiz-adv-x="1098" vert-adv-y="2308" 
d="M754 973h303l-366 -451l398 -522h-337l-356 519zM141 973h253v-973h-253v973z" />
    <glyph glyph-name="Lacute" unicode="&#x139;" horiz-adv-x="1054" vert-adv-y="2308" 
d="M164 1365h269v-1141h592v-224h-861v1365zM137 1467l340 333h311l-416 -333h-235z" />
    <glyph glyph-name="lacute" unicode="&#x13a;" horiz-adv-x="534" vert-adv-y="2308" 
d="M141 1374h253v-1374h-253v1374zM116 1467l261 333h310l-381 -333h-190z" />
    <glyph glyph-name="Lcedilla" unicode="&#x13b;" horiz-adv-x="1054" vert-adv-y="2308" 
d="M164 1365h269v-1141h592v-224h-861v1365zM600 -591h-112q41 51 69 116q25 61 28 113q-130 16 -130 121q0 56 42 95q39 37 96 37q65 0 105 -50q40 -49 40 -129q0 -136 -138 -303z" />
    <glyph glyph-name="lcedilla" unicode="&#x13c;" horiz-adv-x="533" vert-adv-y="2308" 
d="M140 1374h253v-1374h-253v1374zM264 -606h-116q43 53 72 120q25 62 28 116q-134 18 -134 124q0 59 43 99q41 38 100 38q66 0 108 -51q41 -51 41 -133q0 -142 -142 -313z" />
    <glyph glyph-name="Lcaron" unicode="&#x13d;" horiz-adv-x="1054" vert-adv-y="2308" 
d="M164 1365h269v-1141h592v-224h-861v1365zM769 911h-112q41 51 69 116q25 61 28 112q-130 17 -130 121q0 56 42 95q39 37 96 37q65 0 105 -50q40 -49 40 -128q0 -136 -138 -303z" />
    <glyph glyph-name="lcaron" unicode="&#x13e;" horiz-adv-x="753" vert-adv-y="2308" 
d="M141 1374h253v-1374h-253v1374zM653 896h-116q42 52 72 120q25 62 28 116q-134 18 -134 124q0 58 43 98q41 38 99 38q67 0 109 -51q41 -51 41 -133q0 -141 -142 -312z" />
    <glyph glyph-name="Ldot" unicode="&#x13f;" horiz-adv-x="1054" vert-adv-y="2308" 
d="M164 1365h269v-1141h592v-224h-861v1365zM821 853q70 0 122 -52t52 -124q0 -73 -52 -125t-124 -52q-74 0 -126 52q-51 52 -51 124q0 75 51 125q54 52 128 52z" />
    <glyph glyph-name="ldot" unicode="&#x140;" horiz-adv-x="863" vert-adv-y="2308" 
d="M141 1374h253v-1374h-253v1374zM693 878q63 0 109 -46t46 -111q0 -64 -46 -110t-111 -46q-64 0 -110 46t-46 110q0 66 46 111q47 46 112 46z" />
    <glyph glyph-name="Lslash" unicode="&#x141;" horiz-adv-x="1054" vert-adv-y="2308" 
d="M164 728v637h269v-494l317 240v-220l-317 -240v-427h591v-224h-860v508l-137 -109v220z" />
    <glyph glyph-name="lslash" unicode="&#x142;" horiz-adv-x="547" vert-adv-y="2308" 
d="M147 780v594h253v-474l145 99v-187l-145 -100v-712h-253v592l-145 -104v188z" />
    <glyph glyph-name="Nacute" unicode="&#x143;" horiz-adv-x="1412" vert-adv-y="2308" 
d="M164 1365h279l556 -961v961h249v-1365h-263l-572 961v-961h-249v1365zM504 1467l340 333h311l-416 -333h-235z" />
    <glyph glyph-name="nacute" unicode="&#x144;" horiz-adv-x="1122" vert-adv-y="2308" 
d="M111 973h245q20 -47 20 -124q108 145 288 145q102 0 183 -48q114 -68 134 -217q7 -50 7 -168v-561h-253v506q0 135 -23 183q-39 83 -134 83q-68 0 -117 -43q-48 -41 -61 -117q-6 -36 -6 -114v-498h-253v624q0 173 -6 241q-5 45 -24 108zM377 1098l261 333h310l-381 -333
h-190z" />
    <glyph glyph-name="Ncedilla" unicode="&#x145;" horiz-adv-x="1412" vert-adv-y="2308" 
d="M164 1365h279l556 -961v961h249v-1365h-263l-572 961v-961h-249v1365zM686 -591h-112q41 51 69 116q25 61 28 113q-130 16 -130 121q0 56 42 95q39 37 96 37q65 0 105 -50q40 -49 40 -129q0 -136 -138 -303z" />
    <glyph glyph-name="ncedilla" unicode="&#x146;" horiz-adv-x="1122" vert-adv-y="2308" 
d="M111 973h245q20 -47 20 -124q108 145 288 145q102 0 183 -48q114 -68 134 -217q7 -50 7 -168v-561h-253v506q0 135 -23 183q-39 83 -134 83q-68 0 -117 -43q-48 -41 -61 -117q-6 -36 -6 -114v-498h-253v624q0 173 -6 241q-5 45 -24 108zM561 -606h-116q43 53 72 120
q25 62 28 116q-134 18 -134 124q0 59 43 99q41 38 100 38q66 0 108 -51q41 -51 41 -133q0 -142 -142 -313z" />
    <glyph glyph-name="Ncaron" unicode="&#x147;" horiz-adv-x="1412" vert-adv-y="2308" 
d="M164 1365h279l556 -961v961h249v-1365h-263l-572 961v-961h-249v1365zM1089 1777l-281 -288h-203l-282 288h239l144 -159l143 159h240z" />
    <glyph glyph-name="ncaron" unicode="&#x148;" horiz-adv-x="1122" vert-adv-y="2308" 
d="M111 973h245q20 -47 20 -124q108 145 288 145q102 0 183 -48q114 -68 134 -217q7 -50 7 -168v-561h-253v506q0 135 -23 183q-39 83 -134 83q-68 0 -117 -43q-48 -41 -61 -117q-6 -36 -6 -114v-498h-253v624q0 173 -6 241q-5 45 -24 108zM891 1420l-247 -311h-203
l-248 311h227l122 -176l120 176h229z" />
    <glyph glyph-name="napostrophe" unicode="&#x149;" horiz-adv-x="1371" vert-adv-y="2308" 
d="M205 894h-116q43 54 72 120q25 62 28 116q-134 18 -134 124q0 58 43 98q41 39 99 39q67 0 109 -52q41 -50 41 -132q0 -141 -142 -313zM360 973h245q20 -46 20 -124q109 145 289 145q102 0 183 -48q114 -67 134 -217q7 -50 7 -168v-561h-253v506q0 134 -23 183
q-38 83 -134 83q-68 0 -118 -43q-48 -41 -61 -117q-6 -36 -6 -114v-498h-253v624q0 174 -6 241q-6 47 -24 108z" />
    <glyph glyph-name="Eng" unicode="&#x14a;" horiz-adv-x="1432" vert-adv-y="2308" 
d="M136 1365h251q29 -67 29 -176q153 202 405 202q142 0 256 -67q160 -95 188 -302q10 -71 10 -236v-609q0 -163 -7 -240q-17 -193 -166 -263q-108 -50 -282 -50q-27 0 -83 2v219q127 -1 177 14q76 20 89 89q9 50 9 223v537q0 234 -39 319q-65 140 -237 140
q-187 0 -260 -172q-26 -61 -32 -163q-3 -44 -3 -157v-675h-263v875q0 245 -9 339q-7 62 -33 151z" />
    <glyph glyph-name="eng" unicode="&#x14b;" horiz-adv-x="1122" vert-adv-y="2308" 
d="M111 973h245q20 -47 20 -124q108 145 288 145q102 0 183 -48q114 -68 134 -217q7 -50 7 -168v-421q0 -162 -13 -222q-32 -154 -156 -233q-98 -61 -278 -61q-19 0 -57 1v216h30q151 0 196 71q19 31 23 88q1 18 1 86l1 52v368q0 134 -23 183q-38 83 -135 83q-67 0 -117 -43
q-47 -41 -60 -117q-6 -36 -6 -114v-498h-253v624q0 173 -6 241q-5 45 -24 108z" />
    <glyph glyph-name="Omacron" unicode="&#x14c;" horiz-adv-x="1378" vert-adv-y="2308" 
d="M697 1391q158 0 296 -78q158 -89 236 -254q77 -161 77 -377q0 -353 -198 -545q-168 -163 -418 -163q-252 0 -419 163q-198 192 -198 543q0 254 101 426q91 154 254 229q121 56 269 56zM685 1167q-153 0 -237 -114q-102 -138 -102 -371q0 -231 102 -370q83 -114 241 -114
q159 0 242 114q102 140 102 368q0 235 -102 373q-84 114 -246 114zM365 1704h649v-153h-649v153z" />
    <glyph glyph-name="omacron" unicode="&#x14d;" horiz-adv-x="1097" vert-adv-y="2308" 
d="M553 1000q179 0 312 -118q74 -65 113 -153q50 -114 50 -243q0 -251 -163 -395q-132 -118 -317 -118t-317 118q-163 144 -163 394q0 180 87 311q73 111 204 166q91 38 194 38zM545 798q-95 0 -155 -82q-65 -90 -65 -230q0 -138 65 -229q59 -82 158 -82t157 82
q66 91 66 228q0 142 -66 231q-60 82 -160 82zM252 1335h592v-150h-592v150z" />
    <glyph glyph-name="Odblacute" unicode="&#x150;" horiz-adv-x="1379" vert-adv-y="2308" 
d="M697 1391q158 0 296 -78q158 -89 236 -254q77 -161 77 -377q0 -353 -198 -545q-168 -163 -418 -163q-252 0 -419 163q-198 192 -198 543q0 254 101 426q91 154 254 229q121 56 269 56zM685 1167q-153 0 -237 -114q-102 -138 -102 -371q0 -231 102 -370q83 -114 241 -114
q159 0 242 114q102 140 102 368q0 235 -102 373q-84 114 -246 114zM401 1467l283 333h288l-381 -333h-190zM776 1467l284 333h287l-381 -333h-190z" />
    <glyph glyph-name="odblacute" unicode="&#x151;" horiz-adv-x="1097" vert-adv-y="2308" 
d="M553 1000q179 0 312 -118q74 -65 113 -153q50 -114 50 -243q0 -251 -163 -395q-132 -118 -317 -118t-317 118q-163 144 -163 394q0 180 87 311q73 111 204 166q91 38 194 38zM545 798q-95 0 -155 -82q-65 -90 -65 -230q0 -138 65 -229q59 -82 158 -82t157 82
q66 91 66 228q0 142 -66 231q-60 82 -160 82zM308 1098l215 333h276l-324 -333h-167zM661 1098l215 333h276l-324 -333h-167z" />
    <glyph glyph-name="Racute" unicode="&#x154;" horiz-adv-x="1209" vert-adv-y="2308" 
d="M164 1365h341q189 0 285 -16q166 -28 257 -148q80 -106 80 -255q0 -269 -242 -380l315 -566h-306l-279 521h-188v-521h-263v1365zM427 745h95q160 0 222 23q56 21 87 71q29 47 29 107q0 111 -87 160q-49 27 -135 33q-35 2 -136 2h-75v-396zM416 1467l340 333h311
l-416 -333h-235z" />
    <glyph glyph-name="racute" unicode="&#x155;" horiz-adv-x="771" vert-adv-y="2308" 
d="M128 973h241q15 -67 15 -155q0 -16 -1 -47q53 107 109 157q74 66 170 66q31 0 76 -13v-256q-71 48 -153 48q-192 0 -192 -321v-452h-252v674v64q-1 162 -13 235zM268 1098l261 333h310l-381 -333h-190z" />
    <glyph glyph-name="Rcedilla" unicode="&#x156;" horiz-adv-x="1209" vert-adv-y="2308" 
d="M164 1365h341q189 0 285 -16q166 -28 257 -148q80 -106 80 -255q0 -269 -242 -380l315 -566h-306l-279 521h-188v-521h-263v1365zM427 745h95q160 0 222 23q56 21 87 71q29 47 29 107q0 111 -87 160q-49 27 -135 33q-35 2 -136 2h-75v-396zM650 -591h-112q41 51 69 116
q25 61 28 113q-130 16 -130 121q0 56 42 95q39 37 96 37q65 0 105 -50q40 -49 40 -129q0 -136 -138 -303z" />
    <glyph glyph-name="rcedilla" unicode="&#x157;" horiz-adv-x="771" vert-adv-y="2308" 
d="M128 973h241q15 -67 15 -155q0 -16 -1 -47q53 107 109 157q74 66 170 66q31 0 76 -13v-256q-71 48 -153 48q-192 0 -192 -321v-452h-252v674v64q-1 162 -13 235zM273 -606h-116q43 53 72 120q25 62 28 116q-134 18 -134 124q0 59 43 99q41 38 100 38q66 0 108 -51
q41 -51 41 -133q0 -142 -142 -313z" />
    <glyph glyph-name="Rcaron" unicode="&#x158;" horiz-adv-x="1209" vert-adv-y="2308" 
d="M164 1365h341q189 0 285 -16q166 -28 257 -148q80 -106 80 -255q0 -269 -242 -380l315 -566h-306l-279 521h-188v-521h-263v1365zM427 745h95q160 0 222 23q56 21 87 71q29 47 29 107q0 111 -87 160q-49 27 -135 33q-35 2 -136 2h-75v-396zM1001 1777l-281 -288h-203
l-282 288h239l144 -159l143 159h240z" />
    <glyph glyph-name="rcaron" unicode="&#x159;" horiz-adv-x="771" vert-adv-y="2308" 
d="M128 973h241q15 -67 15 -155q0 -16 -1 -47q53 107 109 157q74 66 170 66q31 0 76 -13v-256q-71 48 -153 48q-192 0 -192 -321v-452h-252v674v64q-1 162 -13 235zM775 1420l-247 -311h-203l-248 311h227l122 -176l120 176h229z" />
    <glyph glyph-name="Sacute" unicode="&#x15a;" horiz-adv-x="1157" vert-adv-y="2308" 
d="M1047 965h-252q-6 76 -44 123q-61 77 -180 77q-77 0 -135 -37q-64 -42 -64 -112q0 -63 70 -102q39 -21 224 -96q183 -73 224 -96q117 -65 161 -158q35 -75 35 -169q0 -208 -154 -325q-125 -96 -334 -96q-322 0 -456 209q-69 107 -76 281h254q26 -263 280 -263
q97 0 159 41q59 40 59 105q0 78 -94 130q-37 20 -237 103q-213 89 -282 163q-95 102 -95 248q0 148 94 253q72 81 193 120q84 27 180 27q157 0 276 -72q134 -80 175 -224q14 -51 19 -130zM380 1467l340 333h311l-416 -333h-235z" />
    <glyph glyph-name="sacute" unicode="&#x15b;" horiz-adv-x="993" vert-adv-y="2308" 
d="M898 678h-243q-18 134 -158 134q-53 0 -91 -25q-44 -28 -44 -76q0 -45 41 -69q31 -19 197 -68q130 -38 185 -69q120 -69 120 -220q0 -144 -101 -227q-102 -85 -295 -85q-302 0 -395 180q-37 72 -37 172h238q6 -81 40 -115q48 -47 145 -47q61 0 103 22q50 27 50 83
q0 33 -22 52t-87 41q-18 7 -163 51q-147 44 -200 97q-68 68 -68 175q0 139 103 227q107 90 287 90q246 0 346 -159q42 -67 49 -164zM337 1098l261 333h310l-381 -333h-190z" />
    <glyph glyph-name="Scircumflex" unicode="&#x15c;" horiz-adv-x="1157" vert-adv-y="2308" 
d="M1047 965h-252q-6 76 -44 123q-61 77 -180 77q-77 0 -135 -37q-64 -42 -64 -112q0 -63 70 -102q39 -21 224 -96q183 -73 224 -96q117 -65 161 -158q35 -75 35 -169q0 -208 -154 -325q-125 -96 -334 -96q-322 0 -456 209q-69 107 -76 281h254q26 -263 280 -263
q97 0 159 41q59 40 59 105q0 78 -94 130q-37 20 -237 103q-213 89 -282 163q-95 102 -95 248q0 148 94 253q72 81 193 120q84 27 180 27q157 0 276 -72q134 -80 175 -224q14 -51 19 -130zM202 1489l282 288h203l282 -288h-239l-144 159l-143 -159h-241z" />
    <glyph glyph-name="scircumflex" unicode="&#x15d;" horiz-adv-x="993" vert-adv-y="2308" 
d="M898 678h-243q-18 134 -158 134q-53 0 -91 -25q-44 -28 -44 -76q0 -45 41 -69q31 -19 197 -68q130 -38 185 -69q120 -69 120 -220q0 -144 -101 -227q-102 -85 -295 -85q-302 0 -395 180q-37 72 -37 172h238q6 -81 40 -115q48 -47 145 -47q61 0 103 22q50 27 50 83
q0 33 -22 52t-87 41q-18 7 -163 51q-147 44 -200 97q-68 68 -68 175q0 139 103 227q107 90 287 90q246 0 346 -159q42 -67 49 -164zM158 1109l247 311h203l248 -311h-228l-121 176l-120 -176h-229z" />
    <glyph glyph-name="Scedilla" unicode="&#x15e;" horiz-adv-x="1157" vert-adv-y="2308" 
d="M610 -26l-25 -79q88 -18 142 -61q76 -61 76 -161q0 -111 -84 -182q-70 -60 -166 -60q-104 0 -204 70v114q95 -49 160 -49q46 0 78 30q37 36 37 96q0 70 -52 108q-39 28 -96 28q-30 0 -71 -11l51 169q-210 39 -315 197q-71 113 -75 281h253q26 -264 281 -264q97 0 159 41
q59 39 59 105q0 78 -94 130q-37 20 -237 103q-213 90 -282 163q-95 103 -95 249q0 148 94 253q72 81 193 120q84 27 180 27q157 0 276 -72q134 -80 175 -224q14 -51 18 -130h-251q-6 76 -44 123q-61 77 -180 77q-77 0 -135 -37q-64 -42 -64 -112q0 -63 70 -102
q39 -21 224 -96q183 -73 224 -96q117 -65 161 -158q35 -75 35 -170q0 -162 -100 -274q-99 -112 -274 -138q-43 -6 -102 -8z" />
    <glyph glyph-name="scedilla" unicode="&#x15f;" horiz-adv-x="993" vert-adv-y="2308" 
d="M519 -28l-20 -63q187 -38 187 -191q0 -95 -71 -156q-60 -51 -142 -51q-89 0 -176 60v98q81 -42 135 -42q42 0 68 25q32 31 32 82q0 59 -45 93q-32 24 -80 24q-25 0 -62 -9l42 140q-168 30 -241 122q-69 86 -69 207v14h238q6 -82 40 -115q48 -48 145 -48q62 0 104 22
q50 27 50 83q0 33 -22 53q-22 18 -87 41q-19 6 -164 50q-147 45 -200 97q-68 68 -68 176q0 139 103 227q107 90 288 90q245 0 345 -159q43 -67 49 -164h-242q-19 134 -159 134q-53 0 -91 -25q-44 -29 -44 -76q0 -45 41 -69q31 -19 197 -68q130 -38 186 -69q120 -69 120 -220
q0 -112 -68 -194q-71 -87 -217 -109q-39 -6 -102 -10z" />
    <glyph glyph-name="Scaron" unicode="&#x160;" horiz-adv-x="1157" vert-adv-y="2308" 
d="M1047 965h-252q-6 76 -44 123q-61 77 -180 77q-77 0 -135 -37q-64 -42 -64 -112q0 -63 70 -102q39 -21 224 -96q183 -73 224 -96q117 -65 161 -158q35 -75 35 -169q0 -208 -154 -325q-125 -96 -334 -96q-322 0 -456 209q-69 107 -76 281h254q26 -263 280 -263
q97 0 159 41q59 40 59 105q0 78 -94 130q-37 20 -237 103q-213 89 -282 163q-95 102 -95 248q0 148 94 253q72 81 193 120q84 27 180 27q157 0 276 -72q134 -80 175 -224q14 -51 19 -130zM962 1777l-281 -288h-203l-282 288h239l144 -159l143 159h240z" />
    <glyph glyph-name="scaron" unicode="&#x161;" horiz-adv-x="993" vert-adv-y="2308" 
d="M898 678h-243q-18 134 -158 134q-53 0 -91 -25q-44 -28 -44 -76q0 -45 41 -69q31 -19 197 -68q130 -38 185 -69q120 -69 120 -220q0 -144 -101 -227q-102 -85 -295 -85q-302 0 -395 180q-37 72 -37 172h238q6 -81 40 -115q48 -47 145 -47q61 0 103 22q50 27 50 83
q0 33 -22 52t-87 41q-18 7 -163 51q-147 44 -200 97q-68 68 -68 175q0 139 103 227q107 90 287 90q246 0 346 -159q42 -67 49 -164zM856 1420l-247 -311h-203l-248 311h227l122 -176l120 176h229z" />
    <glyph glyph-name="Tcedilla" unicode="&#x162;" horiz-adv-x="1031" vert-adv-y="2308" 
d="M24 1365h983v-224h-361v-1141h-263v1141h-359v224zM516 -591h-112q41 51 69 116q25 61 28 113q-130 16 -130 121q0 56 42 95q39 37 96 37q65 0 105 -50q40 -49 40 -129q0 -136 -138 -303z" />
    <glyph glyph-name="tcedilla" unicode="&#x163;" horiz-adv-x="732" vert-adv-y="2308" 
d="M452 973h198v-197h-202l-6 -375q-1 -53 -1 -68q0 -76 19 -100q25 -32 81 -32q61 0 145 32v-207q-118 -47 -223 -47q-166 0 -239 118q-41 65 -41 199q0 47 2 102l13 378h-151v197h159l7 281h244zM395 -606h-116q43 53 72 120q25 62 28 116q-134 18 -134 124q0 59 43 99
q41 38 100 38q66 0 108 -51q41 -51 41 -133q0 -142 -142 -313z" />
    <glyph glyph-name="Tcaron" unicode="&#x164;" horiz-adv-x="1031" vert-adv-y="2308" 
d="M24 1365h983v-224h-361v-1141h-263v1141h-359v224zM898 1777l-281 -288h-203l-282 288h239l144 -159l143 159h240z" />
    <glyph glyph-name="tcaron" unicode="&#x165;" horiz-adv-x="803" vert-adv-y="2308" 
d="M452 973h198v-197h-202l-6 -375q-1 -53 -1 -68q0 -76 19 -100q25 -32 81 -32q61 0 145 32v-207q-118 -47 -223 -47q-166 0 -239 118q-41 65 -41 199q0 47 2 102l13 378h-151v197h159l7 281h244zM703 1082h-116q42 52 72 120q25 62 28 116q-134 18 -134 124q0 58 43 98
q41 38 99 38q67 0 109 -51q41 -51 41 -133q0 -141 -142 -312z" />
    <glyph glyph-name="Tbar" unicode="&#x166;" horiz-adv-x="1031" vert-adv-y="2308" 
d="M24 1365h983v-224h-361v-250h262v-205h-262v-686h-263v686h-261v205h261v250h-359v224z" />
    <glyph glyph-name="tbar" unicode="&#x167;" horiz-adv-x="732" vert-adv-y="2308" 
d="M450 973h198v-197h-202v-123h186v-164h-191v-88q-2 -48 -2 -63q0 -81 19 -105q25 -32 82 -32q64 0 146 32l-4 -207q-111 -47 -223 -47q-165 0 -239 121q-39 65 -39 193q0 44 2 105l3 91h-139v164h146l3 123h-149v197h157l8 281h243z" />
    <glyph glyph-name="utilde" unicode="&#x169;" horiz-adv-x="1137" vert-adv-y="2308" 
d="M134 973h253v-554q0 -115 34 -160q43 -58 130 -58q192 0 192 253v519h253v-672v-150q3 -77 25 -151h-239q-16 38 -20 112q-37 -46 -66 -69q-83 -64 -206 -64q-121 0 -212 60q-103 68 -129 194q-15 74 -15 173v567zM352 1132l-105 29q57 217 182 217q42 0 137 -33
q95 -32 123 -32q52 0 98 83l95 -27q-19 -92 -59 -150q-52 -77 -125 -77q-43 0 -138 32q-101 35 -124 35q-55 0 -84 -77z" />
    <glyph glyph-name="Umacron" unicode="&#x16a;" horiz-adv-x="1382" vert-adv-y="2308" 
d="M150 1365h263v-784q0 -162 22 -226q27 -78 97 -117q67 -37 159 -37q126 0 200 67q66 60 74 196q3 38 3 117v784h263v-788q0 -154 -13 -225q-30 -172 -159 -269q-145 -109 -368 -109q-224 0 -369 109q-129 97 -159 269q-13 71 -13 225v788zM366 1704h649v-153h-649v153z
" />
    <glyph glyph-name="umacron" unicode="&#x16b;" horiz-adv-x="1137" vert-adv-y="2308" 
d="M134 973h253v-554q0 -115 34 -160q43 -58 130 -58q192 0 192 253v519h253v-672v-150q3 -77 25 -151h-239q-16 38 -20 112q-37 -46 -66 -69q-83 -64 -206 -64q-121 0 -212 60q-103 68 -129 194q-15 74 -15 173v567zM269 1335h592v-150h-592v150z" />
    <glyph glyph-name="ubreve" unicode="&#x16d;" horiz-adv-x="1137" vert-adv-y="2308" 
d="M134 973h253v-554q0 -115 34 -160q43 -58 130 -58q192 0 192 253v519h253v-672v-150q3 -77 25 -151h-239q-16 38 -20 112q-37 -46 -66 -69q-83 -64 -206 -64q-121 0 -212 60q-103 68 -129 194q-15 74 -15 173v567zM288 1399h104q27 -59 56 -89q48 -53 122 -53
q69 0 113 51q26 32 54 91h104q-13 -112 -62 -187q-73 -109 -207 -109q-140 0 -220 111q-53 74 -64 185z" />
    <glyph glyph-name="Uring" unicode="&#x16e;" horiz-adv-x="1382" vert-adv-y="2308" 
d="M150 1365h263v-784q0 -162 22 -226q27 -78 97 -117q67 -37 159 -37q126 0 200 67q66 60 74 196q3 38 3 117v784h263v-788q0 -154 -13 -225q-30 -172 -159 -269q-145 -109 -368 -109q-224 0 -369 109q-129 97 -159 269q-13 71 -13 225v788zM693 1853q81 0 141 -59
q60 -60 60 -144t-60 -143q-59 -60 -143 -60t-144 60q-60 59 -60 142q0 86 60 145q61 59 146 59zM689 1749q-40 0 -69 -29q-30 -29 -30 -70t30 -71q29 -29 71 -29q41 0 70 29q30 30 30 70q0 42 -30 71t-72 29z" />
    <glyph glyph-name="uring" unicode="&#x16f;" horiz-adv-x="1137" vert-adv-y="2308" 
d="M134 973h253v-554q0 -115 34 -160q43 -58 130 -58q192 0 192 253v519h253v-672v-150q3 -77 25 -151h-239q-16 38 -20 112q-37 -46 -66 -69q-83 -64 -206 -64q-121 0 -212 60q-103 68 -129 194q-15 74 -15 173v567zM567 1477q81 0 141 -60q60 -59 60 -143t-60 -143
q-59 -60 -143 -60q-85 0 -144 60q-60 59 -60 142q0 86 60 144q61 60 146 60zM563 1373q-40 0 -70 -29q-29 -29 -29 -70q0 -42 29 -71q30 -29 71 -29q42 0 71 29q30 30 30 70q0 42 -30 71t-72 29z" />
    <glyph glyph-name="Udblacute" unicode="&#x170;" horiz-adv-x="1382" vert-adv-y="2308" 
d="M150 1365h263v-784q0 -162 22 -226q27 -78 97 -117q67 -37 159 -37q126 0 200 67q66 60 74 196q3 38 3 117v784h263v-788q0 -154 -13 -225q-30 -172 -159 -269q-145 -109 -368 -109q-224 0 -369 109q-129 97 -159 269q-13 71 -13 225v788zM396 1467l283 333h288
l-381 -333h-190zM771 1467l284 333h287l-381 -333h-190z" />
    <glyph glyph-name="udblacute" unicode="&#x171;" horiz-adv-x="1137" vert-adv-y="2308" 
d="M134 973h253v-554q0 -115 34 -160q43 -58 130 -58q192 0 192 253v519h253v-672v-150q3 -77 25 -151h-239q-16 38 -20 112q-37 -46 -66 -69q-83 -64 -206 -64q-121 0 -212 60q-103 68 -129 194q-15 74 -15 173v567zM324 1098l215 333h276l-324 -333h-167zM677 1098
l215 333h276l-324 -333h-167z" />
    <glyph glyph-name="Uogonek" unicode="&#x172;" horiz-adv-x="1382" vert-adv-y="2308" 
d="M1081 -287v-112q-75 -38 -150 -38q-114 0 -178 70q-54 59 -54 138q0 69 42 120q43 52 116 100q-94 -18 -167 -18q-222 0 -368 110q-129 96 -159 269q-13 71 -13 225v788h263v-784q0 -163 22 -226q27 -79 97 -117q67 -38 159 -38q126 0 200 67q66 61 74 197q3 38 3 117
v784h263v-788q0 -125 -6 -179q-14 -122 -69 -212q-27 -43 -114 -140q-95 -105 -129 -163q-35 -57 -35 -108q0 -44 37 -68q25 -17 65 -17q48 0 101 23z" />
    <glyph glyph-name="uogonek" unicode="&#x173;" horiz-adv-x="1137" vert-adv-y="2308" 
d="M1022 0q-70 -57 -124 -114q-51 -54 -51 -100q0 -37 26 -60q24 -22 68 -22q48 0 99 21v-106q-64 -33 -137 -33q-112 0 -174 66q-48 52 -48 127q0 71 41 118q58 66 135 103h-75q-16 38 -20 112q-37 -46 -66 -69q-83 -64 -206 -64q-121 0 -212 60q-103 68 -129 194
q-15 74 -15 173v567h253v-554q0 -115 34 -160q43 -58 130 -58q192 0 192 253v519h253v-672q0 -164 5 -213q6 -35 21 -88z" />
    <glyph glyph-name="Wcircumflex" unicode="&#x174;" horiz-adv-x="1778" vert-adv-y="2308" 
d="M18 1365h246l261 -1066l253 1066h226l253 -1066l265 1066h238l-351 -1365h-297l-225 889l-221 -889h-297zM506 1489l282 288h202l282 -288h-238l-145 159l-142 -159h-241z" />
    <glyph glyph-name="Ycircumflex" unicode="&#x176;" horiz-adv-x="1152" vert-adv-y="2308" 
d="M0 1365h293l287 -544l283 544h289l-444 -827v-538h-263v538zM193 1489l281 288h203l282 -288h-239l-144 159l-143 -159h-240z" />
    <glyph glyph-name="ycircumflex" unicode="&#x177;" horiz-adv-x="1022" vert-adv-y="2308" 
d="M33 973h267l217 -741l225 741h262l-330 -946q-54 -154 -78 -201q-84 -163 -226 -209q-85 -28 -216 -28q-32 0 -96 2v219q162 -1 223 26q66 31 96 120zM170 1109l247 311h203l248 -311h-228l-121 176l-120 -176h-229z" />
    <glyph glyph-name="Zacute" unicode="&#x179;" horiz-adv-x="1026" vert-adv-y="2308" 
d="M108 1365h879v-185l-630 -956h609v-224h-919v205l623 940h-562v220zM353 1467l340 333h311l-416 -333h-235z" />
    <glyph glyph-name="zacute" unicode="&#x17a;" horiz-adv-x="869" vert-adv-y="2308" 
d="M98 973h713v-190l-467 -575h475v-208h-772v193l461 572h-410v208zM291 1098l261 333h310l-381 -333h-190z" />
    <glyph glyph-name="Zdot" unicode="&#x17b;" horiz-adv-x="1026" vert-adv-y="2308" 
d="M108 1365h879v-185l-630 -956h609v-224h-919v205l623 940h-562v220zM556 1795q64 0 112 -48q48 -47 48 -114q0 -68 -48 -115q-48 -48 -115 -48t-114 48q-48 47 -48 114q0 69 48 115q48 48 117 48z" />
    <glyph glyph-name="zdot" unicode="&#x17c;" horiz-adv-x="869" vert-adv-y="2308" 
d="M98 973h713v-190l-467 -575h475v-208h-772v193l461 572h-410v208zM457 1400q55 0 96 -41t41 -98t-41 -98t-98 -41t-98 41t-41 98q0 58 41 98q42 41 100 41z" />
    <glyph glyph-name="Zcaron" unicode="&#x17d;" horiz-adv-x="1026" vert-adv-y="2308" 
d="M108 1365h879v-185l-630 -956h609v-224h-919v205l623 940h-562v220zM934 1777l-281 -288h-203l-282 288h239l144 -159l143 159h240z" />
    <glyph glyph-name="zcaron" unicode="&#x17e;" horiz-adv-x="869" vert-adv-y="2308" 
d="M98 973h713v-190l-467 -575h475v-208h-772v193l461 572h-410v208zM806 1420l-247 -311h-203l-248 311h227l122 -176l120 176h229z" />
    <glyph glyph-name="uni01CD" unicode="&#x1cd;" horiz-adv-x="1232" vert-adv-y="2308" 
d="M481 1365h267l464 -1365h-271l-84 284h-483l-85 -284h-269zM790 508l-176 557l-173 -557h349zM999 1777l-281 -288h-203l-282 288h238l145 -159l142 159h241z" />
    <glyph glyph-name="uni01CE" unicode="&#x1ce;" horiz-adv-x="1049" vert-adv-y="2308" 
d="M358 683h-240q18 147 107 218q116 93 317 93q172 0 272 -71q78 -55 94 -176q7 -54 7 -138v-392q-1 -155 32 -217h-229q-13 54 -13 91v20q-78 -132 -268 -132q-153 0 -245 62q-108 73 -108 216t106 227q93 74 282 112q34 7 199 36v16q0 72 -24 102q-36 45 -123 45
q-144 0 -166 -112zM671 464q-214 -26 -270 -66q-60 -43 -60 -109q0 -45 33 -78q42 -40 116 -40q72 0 122 40q43 35 54 101q5 33 5 97v55zM881 1420l-247 -311h-203l-248 311h227l121 -176l120 176h230z" />
    <glyph glyph-name="Ucaron" unicode="&#x1d3;" horiz-adv-x="1382" vert-adv-y="2308" 
d="M150 1365h263v-784q0 -162 22 -226q27 -78 97 -117q67 -37 159 -37q126 0 200 67q66 60 74 196q3 38 3 117v784h263v-788q0 -154 -13 -225q-30 -172 -159 -269q-145 -109 -368 -109q-224 0 -369 109q-129 97 -159 269q-13 71 -13 225v788zM1074 1777l-281 -288h-203
l-282 288h239l144 -159l143 159h240z" />
    <glyph glyph-name="ucaron" unicode="&#x1d4;" horiz-adv-x="1137" vert-adv-y="2308" 
d="M134 973h253v-554q0 -115 34 -160q43 -58 130 -58q192 0 192 253v519h253v-672v-150q3 -77 25 -151h-239q-16 38 -20 112q-37 -46 -66 -69q-83 -64 -206 -64q-121 0 -212 60q-103 68 -129 194q-15 74 -15 173v567zM913 1420l-247 -311h-203l-248 311h227l122 -176
l120 176h229z" />
    <glyph glyph-name="Gcaron" unicode="&#x1e6;" horiz-adv-x="1313" vert-adv-y="2308" 
d="M714 704h490v-567q-236 -163 -500 -163q-273 0 -446 178q-185 189 -185 531q0 344 192 538q168 170 418 170q156 0 278 -68q145 -81 196 -236q22 -64 27 -161h-226q-34 239 -270 239q-155 0 -240 -110q-102 -134 -102 -375q0 -224 92 -354q89 -125 263 -125q98 0 208 46
q44 19 78 43v219h-273v195zM1074 1777l-281 -288h-203l-282 288h239l144 -159l143 159h240z" />
    <glyph glyph-name="gcaron" unicode="&#x1e7;" horiz-adv-x="1085" vert-adv-y="2308" 
d="M1047 973v-180h-198q50 -76 50 -174q0 -178 -152 -244q-59 -25 -134 -35q-14 -1 -151 -14q-96 -9 -96 -58q0 -25 31 -36q23 -9 183 -24q223 -22 302 -64q55 -29 86 -81q41 -66 41 -149q0 -164 -143 -251q-122 -75 -340 -75q-242 0 -374 87q-113 75 -113 200q0 110 86 173
q40 30 110 54q-108 44 -108 118q0 60 63 102q40 26 109 53q-75 38 -110 87q-56 77 -56 190q0 121 70 207q108 134 339 134q81 0 183 -26zM517 803q-83 0 -130 -49q-38 -40 -38 -100q0 -58 39 -98q45 -46 130 -46q86 0 133 49q37 38 37 94q0 66 -44 108q-45 42 -127 42z
M492 17q-100 0 -164 -27q-74 -31 -74 -95q0 -65 88 -97q73 -27 185 -27q121 0 182 33q59 33 59 87q0 61 -75 94q-71 32 -201 32zM900 1420l-248 -311h-203l-248 311h228l121 -176l120 176h230z" />
    <glyph glyph-name="apostroph" unicode="&#x2bc;" horiz-adv-x="424" vert-adv-y="2308" 
d="M205 894h-116q43 54 72 120q25 62 28 116q-134 18 -134 124q0 58 43 98q41 39 99 39q67 0 109 -52q41 -50 41 -132q0 -141 -142 -313z" />
    <glyph glyph-name="semicolon" unicode="&#x37e;" horiz-adv-x="515" vert-adv-y="2308" 
d="M242 976q62 0 108 -46t46 -110q0 -65 -46 -111t-111 -46q-64 0 -110 46t-46 110q0 66 46 111q47 46 113 46zM176 -465h-130q77 106 130 239q46 124 51 231q-151 20 -151 141q0 65 48 110q47 43 113 43q74 0 120 -58q47 -58 47 -159q0 -155 -89 -325q-52 -99 -139 -222z
" />
    <glyph glyph-name="anoteleia" unicode="&#x387;" horiz-adv-x="515" vert-adv-y="2308" 
d="M258 671q63 0 109 -46t46 -111q0 -64 -46 -110t-111 -46q-64 0 -110 46t-46 110q0 66 46 111q47 46 112 46z" />
    <glyph glyph-name="Gamma" unicode="&#x393;" horiz-adv-x="1193" vert-adv-y="2308" 
d="M140 0v1365h1024v-239h-746v-1126h-278z" />
    <glyph glyph-name="Delta" unicode="&#x394;" horiz-adv-x="1373" vert-adv-y="2308" 
d="M14 0l531 1365h274l539 -1365h-1344zM382 240h603l-302 818z" />
    <glyph glyph-name="Theta" unicode="&#x398;" horiz-adv-x="1477" vert-adv-y="2308" 
d="M985 817v-227h-494v227h494zM758 1397q305 0 486 -225q91 -113 132 -276q28 -108 28 -222q0 -359 -224 -551q-181 -155 -438 -155q-186 0 -338 84q-330 182 -330 637q0 174 64 327q75 178 229 277q163 104 391 104zM731 1170q-193 0 -297 -169q-75 -122 -75 -321
q0 -239 111 -366q104 -119 272 -119q194 0 297 150q80 118 80 325q0 247 -122 386q-102 114 -266 114z" />
    <glyph glyph-name="Sigma" unicode="&#x3a3;" horiz-adv-x="1156" vert-adv-y="2308" 
d="M70 0v225l437 467l-431 441v232h1010v-227h-662l425 -446l-440 -465h708v-227h-1047z" />
    <glyph glyph-name="Phi" unicode="&#x3a6;" horiz-adv-x="1456" vert-adv-y="2308" 
d="M602 -25v165q-166 17 -269 73q-134 74 -201 215q-57 119 -57 255q0 208 121 355q113 138 314 175q33 7 92 12v166h253v-166q172 -16 281 -77q130 -75 193 -214q53 -117 53 -251q0 -208 -114 -351q-111 -141 -316 -179q-35 -7 -97 -13v-165h-253zM855 359q93 18 152 70
q103 91 103 253q0 165 -102 256q-62 55 -153 64v-643zM602 1004q-85 -15 -141 -60q-114 -91 -114 -259q0 -177 116 -268q53 -41 139 -58v645z" />
    <glyph glyph-name="Omega" unicode="&#x3a9;" horiz-adv-x="1456" vert-adv-y="2308" 
d="M49 0v227h328q-126 75 -190 157q-112 146 -112 365q0 272 179 455q188 194 474 194t475 -194q178 -183 178 -454q0 -230 -121 -377q-63 -76 -180 -146h327v-227h-581v228q112 67 168 145q102 141 102 366q0 179 -82 301q-105 157 -285 157q-159 0 -262 -122
q-107 -128 -107 -336q0 -238 114 -379q58 -73 158 -132v-228h-583z" />
    <glyph glyph-name="alpha" unicode="&#x3b1;" horiz-adv-x="1352" vert-adv-y="2308" 
d="M1257 983l-211 -476l246 -507h-287l-93 261q-95 -142 -146 -189q-113 -103 -255 -103q-173 0 -299 142q-134 152 -134 386q0 199 105 339q62 82 150 129q93 49 195 49q232 0 380 -258l75 227h274zM826 507q-41 126 -73 184q-75 135 -187 135q-105 0 -169 -99
q-60 -94 -60 -237q0 -150 67 -244q63 -89 157 -89q112 0 184 136q22 41 81 214z" />
    <glyph glyph-name="beta" unicode="&#x3b2;" horiz-adv-x="1163" vert-adv-y="2308" 
d="M128 -355v1259q0 165 24 239q44 139 169 201q103 52 249 52q209 0 324 -106q113 -104 113 -253q0 -182 -175 -266q102 -32 155 -87q102 -108 102 -274q0 -196 -141 -323q-119 -107 -287 -107q-96 0 -174 30q-49 20 -106 67v-432h-253zM381 258q44 -39 71 -54
q64 -36 144 -36q111 0 179 85q55 69 55 170q0 132 -93 192q-66 42 -167 42h-30v204q68 2 108 18q48 20 74 65t26 100q0 81 -51 124q-48 40 -126 40q-103 0 -152 -70q-26 -38 -32 -82q-6 -49 -6 -124v-674z" />
    <glyph glyph-name="delta" unicode="&#x3b4;" horiz-adv-x="1148" vert-adv-y="2308" 
d="M963 1365v-175h-390l191 -174q151 -138 181 -169t57 -80q72 -129 72 -291q0 -238 -145 -377q-135 -130 -349 -130q-217 0 -356 129q-150 140 -150 382q0 189 94 318q96 131 272 156l-251 236v175h774zM573 775q-127 0 -190 -113q-50 -89 -50 -206q0 -131 66 -217
q64 -82 178 -82q109 0 175 78q63 76 63 215q0 146 -57 231q-62 94 -185 94z" />
    <glyph glyph-name="epsilon" unicode="&#x3b5;" horiz-adv-x="975" vert-adv-y="2308" 
d="M573 602v-188q-70 0 -98 -3q-66 -9 -101 -43q-36 -34 -36 -84q0 -63 54 -99q42 -28 108 -28q95 0 140 63q27 38 28 100h268q-12 -142 -88 -228q-69 -78 -167 -103q-81 -20 -175 -20q-209 0 -317 90q-110 92 -110 227q0 179 189 239q-159 81 -159 221q0 135 129 218
q99 63 263 63q203 0 312 -109q70 -70 81 -167q3 -25 3 -63h-259q-2 151 -138 151q-55 0 -89 -28q-42 -34 -42 -89q0 -97 120 -115q25 -4 84 -5z" />
    <glyph glyph-name="eta" unicode="&#x3b7;" horiz-adv-x="1174" vert-adv-y="2308" 
d="M381 983v-140q20 60 82 105q94 66 223 66q189 0 286 -113q55 -65 67 -155q7 -57 7 -133v-967h-253v925q0 92 -9 125q-34 130 -175 130q-125 0 -184 -97q-44 -71 -44 -214v-515h-253v983h253z" />
    <glyph glyph-name="mu" unicode="&#x3bc;" horiz-adv-x="1167" vert-adv-y="2308" 
d="M128 -354v1337h253v-504q0 -124 20 -177q28 -73 92 -109q44 -26 93 -26q91 0 146 76q32 45 44 101q10 47 10 143v496h253v-983h-253v122q-31 -63 -65 -92q-59 -51 -140 -51q-123 0 -200 127v-460h-253z" />
    <glyph glyph-name="sigma1" unicode="&#x3c2;" horiz-adv-x="1047" vert-adv-y="2308" 
d="M682 -352q14 45 21 68q38 122 38 164q0 67 -89 88l-160 39q-163 40 -259 130q-159 150 -159 374q0 215 144 363q139 142 363 142q233 0 366 -158q74 -88 87 -225h-253q-8 83 -53 130q-63 65 -161 65q-113 0 -177 -86q-55 -71 -55 -181q0 -148 102 -238q43 -37 93 -55
q41 -14 101 -30l102 -26q266 -68 266 -287q0 -72 -20 -144q-16 -58 -42 -133h-255z" />
    <glyph glyph-name="sigma" unicode="&#x3c3;" horiz-adv-x="1184" vert-adv-y="2308" 
d="M1158 983v-227h-186q44 -47 65 -88q43 -84 43 -198q0 -218 -134 -356q-140 -145 -366 -145q-233 0 -375 151q-131 141 -131 367q0 229 132 373q141 154 369 154q85 0 183 -31h400zM572 826q-86 0 -148 -58q-91 -85 -91 -278q0 -144 61 -238q62 -95 186 -95q117 0 180 90
q61 87 61 240q0 151 -54 236q-65 103 -195 103z" />
    <glyph glyph-name="tau" unicode="&#x3c4;" horiz-adv-x="880" vert-adv-y="2308" 
d="M881 983v-227h-309v-756h-253v756h-319v227h881z" />
    <glyph glyph-name="psi" unicode="&#x3c8;" horiz-adv-x="1380" vert-adv-y="2308" 
d="M566 -355v325q-213 22 -318 108q-86 70 -125 185q-22 65 -23 219v501h253v-487q1 -181 59 -243q51 -50 154 -60v790h253v-790q102 13 149 60q59 60 60 243v487h253v-501q-1 -171 -33 -246q-58 -144 -192 -208q-94 -43 -237 -58v-325h-253z" />
    <glyph glyph-name="phi1" unicode="&#x3d5;" horiz-adv-x="1377" vert-adv-y="2308" 
d="M564 -356v326q-119 9 -187 36q-150 59 -232 201q-72 125 -72 289q0 215 114 344q86 98 268 159v-233q-58 -42 -82 -87q-41 -77 -41 -185q0 -169 91 -242q51 -41 141 -55v820q83 3 144 3q257 0 408 -122q188 -152 188 -411q0 -151 -71 -275q-96 -168 -280 -220
q-50 -14 -136 -22v-326h-253zM817 197q85 10 140 58q41 35 63 101q24 67 24 145q0 158 -91 238q-54 48 -136 55v-597z" />
    <glyph glyph-name="Wdieresis" unicode="&#x1e84;" horiz-adv-x="1778" vert-adv-y="2308" 
d="M18 1365h246l261 -1066l253 1066h226l253 -1066l265 1066h238l-351 -1365h-297l-225 889l-221 -889h-297zM701 1784q60 0 105 -44q44 -44 44 -107q0 -62 -44 -106q-45 -45 -107 -45t-107 45q-44 44 -44 106q0 63 44 107q46 44 109 44zM1082 1784q60 0 105 -44
q44 -44 44 -107q0 -62 -44 -107q-45 -44 -107 -44t-107 44q-44 45 -44 107q0 63 44 107q46 44 109 44z" />
    <glyph glyph-name="enspace" unicode="&#x2002;" vert-adv-y="2308" 
 />
    <glyph glyph-name="emspace" unicode="&#x2003;" horiz-adv-x="2048" vert-adv-y="2308" 
 />
    <glyph glyph-name="figurespace" unicode="&#x2007;" horiz-adv-x="1167" vert-adv-y="2308" 
 />
    <glyph glyph-name="hairspace" unicode="&#x200a;" horiz-adv-x="256" vert-adv-y="2308" 
 />
    <glyph glyph-name="hyphen" unicode="&#x2010;" horiz-adv-x="535" vert-adv-y="2308" 
d="M0 607h535v-182h-535v182z" />
    <glyph glyph-name="nbhyphen" unicode="&#x2011;" horiz-adv-x="535" vert-adv-y="2308" 
d="M0 607h535v-182h-535v182z" />
    <glyph glyph-name="figuredash" unicode="&#x2012;" vert-adv-y="2308" 
d="M91 607h842v-182h-842v182z" />
    <glyph glyph-name="horizontalbar" unicode="&#x2015;" horiz-adv-x="1297" vert-adv-y="2308" 
d="M0 607h1297v-182h-1297v182z" />
    <glyph glyph-name="underscoredbl" unicode="&#x2017;" vert-adv-y="2308" 
d="M0 -102h1024v-151h-1024v151zM0 -342h1024v-151h-1024v151z" />
    <glyph glyph-name="quotereversed" unicode="&#x201b;" horiz-adv-x="512" vert-adv-y="2308" 
 />
    <glyph glyph-name="exclamdbl" unicode="&#x203c;" horiz-adv-x="1005" vert-adv-y="2308" 
d="M378 1365v-363l-71 -589h-131l-70 585v367h272zM383 287v-287h-282v287h282zM900 1365v-363l-71 -589h-131l-70 585v367h272zM905 287v-287h-282v287h282z" />
    <glyph glyph-name="radicalex" unicode="&#x203e;" vert-adv-y="2308" 
d="M0 1822h1024v-227h-1024v227z" />
    <glyph glyph-name="zerosuperior" unicode="&#x2070;" horiz-adv-x="758" vert-adv-y="2308" 
d="M383 1350q136 0 218 -108q83 -110 83 -307t-83 -307q-81 -108 -222 -108q-142 0 -223 108q-83 110 -83 305q0 201 83 309t227 108zM377 1217q-55 0 -85 -46q-52 -81 -52 -236q0 -154 52 -235q30 -47 87 -47q56 0 86 47q52 81 52 233q0 158 -52 238q-31 46 -88 46z" />
    <glyph glyph-name="foursuperior" unicode="&#x2074;" horiz-adv-x="758" vert-adv-y="2308" 
d="M554 839h149v-129h-145v-174h-168v174h-342v126l318 512h188v-509zM398 839v325l-191 -325h191z" />
    <glyph glyph-name="fivesuperior" unicode="&#x2075;" horiz-adv-x="758" vert-adv-y="2308" 
d="M191 1331h423l-10 -143h-292l-33 -145q67 34 133 34q68 0 131 -36q124 -71 124 -227q0 -134 -96 -220q-83 -74 -200 -74q-148 0 -224 93q-50 62 -56 152h157q15 -105 117 -105q56 0 89 37q39 45 39 110q0 64 -36 105q-30 35 -81 35q-70 0 -127 -65l-141 20z" />
    <glyph glyph-name="sixsuperior" unicode="&#x2076;" horiz-adv-x="758" vert-adv-y="2308" 
d="M386 1343h183q-133 -155 -203 -259q29 3 47 3q123 0 196 -85q63 -73 63 -187q0 -143 -102 -230q-76 -65 -186 -65q-128 0 -210 79q-88 86 -88 220q0 142 108 297q62 90 192 227zM378 963q-48 0 -82 -33q-43 -42 -43 -120t43 -120q34 -33 83 -33t83 33q43 42 43 120
q0 79 -43 120q-34 33 -84 33z" />
    <glyph glyph-name="sevensuperior" unicode="&#x2077;" horiz-adv-x="758" vert-adv-y="2308" 
d="M130 1331h569v-120l-393 -679h-183l374 647h-367v152z" />
    <glyph glyph-name="eightsuperior" unicode="&#x2078;" horiz-adv-x="758" vert-adv-y="2308" 
d="M190 954q-89 54 -89 158q0 115 95 182q80 56 183 56t183 -56q95 -66 95 -182q0 -105 -88 -158q104 -61 104 -180q0 -120 -98 -193q-81 -61 -196 -61t-197 61q-97 73 -97 193t105 180zM378 1220q-46 0 -77 -27q-33 -28 -33 -75t33 -76q31 -27 79 -27q47 0 78 27
q33 29 33 75q0 49 -33 76q-32 27 -80 27zM378 886q-38 0 -73 -20q-53 -29 -53 -98q0 -68 53 -98q34 -20 74 -20t74 20q53 30 53 98q0 69 -53 98q-34 20 -75 20z" />
    <glyph glyph-name="ninesuperior" unicode="&#x2079;" horiz-adv-x="758" vert-adv-y="2308" 
d="M369 517h-182q150 178 205 262q-29 -3 -48 -3q-122 0 -195 85q-63 74 -63 188q0 144 101 232q77 66 187 66q127 0 209 -80q88 -87 88 -221q0 -144 -108 -301q-60 -85 -194 -228zM377 1210q-47 0 -81 -34q-43 -43 -43 -122t43 -121q34 -33 83 -33q48 0 82 33q43 42 43 120
q0 80 -43 123q-33 34 -84 34z" />
    <glyph glyph-name="parenleftsuperior" unicode="&#x207d;" horiz-adv-x="422" vert-adv-y="2308" 
d="M244 1372h127q-136 -204 -136 -528q0 -338 136 -541h-127q-156 209 -156 533q0 323 156 536z" />
    <glyph glyph-name="parenrightsuperior" unicode="&#x207e;" horiz-adv-x="422" vert-adv-y="2308" 
d="M178 303h-128q137 200 137 528q0 340 -137 541h128q156 -211 156 -534q0 -321 -156 -535z" />
    <glyph glyph-name="nsuperior" unicode="&#x207f;" horiz-adv-x="739" vert-adv-y="2308" 
d="M71 1133h160q10 -22 14 -64q83 75 174 75q125 0 177 -86q24 -40 28 -106q1 -15 1 -68v-338h-165v305q0 80 -13 107q-23 46 -81 46q-67 0 -96 -57q-14 -28 -14 -101v-300h-165v375q0 101 -4 143q-3 29 -16 69z" />
    <glyph glyph-name="zeroinferior" unicode="&#x2080;" horiz-adv-x="758" vert-adv-y="2308" 
d="M383 818q136 0 218 -108q83 -110 83 -307t-83 -307q-81 -108 -222 -108q-142 0 -223 108q-83 110 -83 305q0 201 83 309t227 108zM377 685q-55 0 -85 -46q-52 -81 -52 -236q0 -154 52 -235q30 -47 87 -47q56 0 86 47q52 81 52 233q0 158 -52 238q-31 46 -88 46z" />
    <glyph glyph-name="oneinferior" unicode="&#x2081;" horiz-adv-x="758" vert-adv-y="2308" 
d="M155 568v91q88 1 137 37q44 34 60 106h115v-802h-167v568h-145z" />
    <glyph glyph-name="twoinferior" unicode="&#x2082;" horiz-adv-x="758" vert-adv-y="2308" 
d="M261 569h-140q-2 97 48 158q74 91 218 91q119 0 193 -63q65 -57 65 -153q0 -75 -56 -154q-86 -122 -263 -301h325v-147h-544v128l16 17q196 214 269 300q84 101 84 154q0 32 -26 55q-27 24 -71 24q-107 0 -118 -109z" />
    <glyph glyph-name="threeinferior" unicode="&#x2083;" horiz-adv-x="758" vert-adv-y="2308" 
d="M260 581h-141q3 101 63 161q73 73 209 73q113 0 178 -53q74 -59 74 -160q0 -126 -125 -176q33 -9 58 -27q78 -54 78 -160q0 -115 -89 -187q-76 -61 -197 -61q-170 0 -246 101q-44 59 -44 154h150q0 -48 28 -78q35 -38 107 -38q59 0 91 28q35 30 35 82q0 86 -94 102
q-47 8 -134 8v131q23 -1 36 -1q180 0 180 110q0 40 -30 64q-28 23 -73 23q-98 0 -114 -96z" />
    <glyph glyph-name="fourinferior" unicode="&#x2084;" horiz-adv-x="758" vert-adv-y="2308" 
d="M554 293h149v-129h-145v-174h-168v174h-342v126l318 512h188v-509zM398 293v325l-191 -325h191z" />
    <glyph glyph-name="fiveinferior" unicode="&#x2085;" horiz-adv-x="758" vert-adv-y="2308" 
d="M191 799h423l-10 -143h-292l-33 -145q69 34 133 34q68 0 131 -36q124 -71 124 -227q0 -134 -96 -220q-83 -74 -200 -74q-147 0 -224 93q-50 62 -56 152h157q15 -105 117 -105q56 0 89 37q39 44 39 111q0 63 -36 104q-30 35 -81 35q-70 0 -127 -65l-141 20z" />
    <glyph glyph-name="sixinferior" unicode="&#x2086;" horiz-adv-x="758" vert-adv-y="2308" 
d="M386 811h183q-144 -171 -203 -259q29 3 47 3q123 0 196 -85q63 -73 63 -187q0 -143 -102 -230q-76 -65 -186 -65q-128 0 -210 79q-88 86 -88 219q0 142 108 298q56 81 192 227zM378 431q-48 0 -82 -33q-43 -42 -43 -120t43 -120q34 -33 83 -33t83 33q43 42 43 119
q0 79 -43 121q-34 33 -84 33z" />
    <glyph glyph-name="seveninferior" unicode="&#x2087;" horiz-adv-x="758" vert-adv-y="2308" 
d="M130 799h569v-120l-393 -679h-183l374 647h-367v152z" />
    <glyph glyph-name="eightinferior" unicode="&#x2088;" horiz-adv-x="758" vert-adv-y="2308" 
d="M190 422q-89 55 -89 158q0 116 95 182q80 56 183 56t183 -56q95 -66 95 -181q0 -104 -88 -159q104 -59 104 -180q0 -120 -98 -193q-81 -61 -196 -61t-197 61q-97 73 -97 193q0 122 105 180zM378 688q-46 0 -77 -27q-33 -28 -33 -76q0 -46 33 -75q31 -27 79 -27
q47 0 78 27q33 29 33 75q0 48 -33 76q-32 27 -80 27zM378 354q-39 0 -73 -20q-53 -30 -53 -98t53 -98q34 -20 74 -20q39 0 74 20q53 29 53 98q0 68 -53 98q-34 20 -75 20z" />
    <glyph glyph-name="nineinferior" unicode="&#x2089;" horiz-adv-x="758" vert-adv-y="2308" 
d="M369 -15h-182q141 163 205 262q-30 -3 -47 -3q-123 0 -196 85q-63 74 -63 188q0 144 101 232q77 66 186 66q127 0 210 -80q88 -87 88 -222q0 -144 -108 -300q-69 -98 -194 -228zM377 678q-47 0 -81 -34q-43 -43 -43 -122t43 -121q34 -33 83 -33q48 0 82 33q43 42 43 120
q0 80 -43 123q-33 34 -84 34z" />
    <glyph glyph-name="franc" unicode="&#x20a3;" horiz-adv-x="1470" vert-adv-y="2308" 
d="M427 819h542v-224h-536v-595h-269v1365h859v-224h-596v-322zM1049 587h158q11 -42 11 -90q0 -5 -1 -17q67 118 168 118q21 0 51 -8v-162q-48 31 -98 31q-115 0 -115 -186v-273h-165v405q0 133 -9 182z" />
    <glyph glyph-name="lira" unicode="&#x20a4;" horiz-adv-x="1167" vert-adv-y="2308" 
d="M553 737l-6 -29l-5 -29l-6 -29l-5 -29h326v-157h-356q-28 -132 -112 -264q122 37 223 37q41 0 160 -11q26 -3 45 -3q45 0 62 28q22 39 26 146h201q1 -34 1 -52q0 -150 -55 -237q-76 -122 -215 -122q-57 0 -143 9q-182 20 -310 20q-144 0 -323 -35q72 86 115 213
q40 122 66 271h-159v157h188l5 29l6 29q6 35 11 58h-187v157h216q33 185 94 303q95 188 332 188q204 0 292 -125q56 -77 67 -231h-219q-17 142 -132 142q-99 0 -139 -114q-17 -49 -38 -163h301v-157h-327z" />
    <glyph glyph-name="peseta" unicode="&#x20a7;" horiz-adv-x="2111" vert-adv-y="2308" 
d="M164 1365h319q267 0 389 -41q131 -44 197 -163q57 -103 57 -231q0 -199 -127 -313q-103 -93 -300 -103q-81 -4 -190 -4h-79v-510h-266v1365zM427 734h83q179 0 239 22q59 21 88 81q21 43 21 96q0 129 -92 175q-67 33 -244 33h-95v-407zM1319 580h123l-3 -125h-123
l-3 -213v-22q1 -62 11 -75q14 -17 47 -17q38 0 94 21l-3 -132q-71 -29 -142 -29q-104 0 -151 74q-25 39 -25 123q0 34 1 56l8 214h-94l3 125h96l5 173h159zM2039 403h-158q-11 77 -95 77q-32 0 -55 -13q-25 -15 -25 -40q0 -24 23 -38q18 -10 121 -39q122 -35 156 -73
q37 -42 37 -103q0 -88 -64 -137q-65 -51 -185 -51q-275 0 -272 215h155q3 -49 24 -68q28 -26 86 -26q91 0 91 56q0 26 -38 42q-20 8 -127 40q-91 26 -126 59q-43 41 -43 106q0 85 65 136q68 54 181 54q154 0 218 -94q27 -42 31 -103z" />
    <glyph glyph-name="uni2101" unicode="&#x2101;" horiz-adv-x="1940" vert-adv-y="2308" 
d="M353 1365h171l290 -819h-176l-52 169h-294l-52 -169h-176zM541 856l-103 313l-102 -313h205zM1373 1365h212l-791 -1365h-212zM1876 573h-164q-10 119 -137 119q-47 0 -82 -21q-40 -24 -40 -69q0 -32 31 -53q24 -15 152 -57q155 -50 205 -102q59 -61 59 -154
q0 -127 -94 -197q-75 -55 -212 -55q-213 0 -294 124q-41 63 -41 176h166q3 -80 36 -115q40 -42 131 -42q62 0 101 29q34 26 34 66q0 48 -41 72q-25 16 -164 63q-137 47 -181 88q-59 57 -59 150q0 126 104 191q79 49 189 49q171 0 254 -109q46 -60 47 -153z" />
    <glyph glyph-name="smallscriptl" unicode="&#x2113;" vert-adv-y="2308" 
d="M534 546q-4 -19 -29 -143q-32 -161 -32 -238q0 -58 32 -58q41 0 87 99q20 42 44 42q37 0 37 -42q0 -46 -31 -103q-42 -77 -111 -112q-41 -21 -84 -21q-156 0 -156 267q0 48 5 136q-11 -10 -31 -31q-26 -26 -41 -26q-12 0 -24 14q-14 15 -14 36q0 25 31 58q51 54 95 107
q67 368 165 601q106 254 260 254q79 0 120 -60q36 -52 36 -126q0 -179 -139 -394q-54 -84 -220 -260zM564 726q7 8 14 17l7 8q100 113 159 270q32 85 32 157q0 82 -37 82q-39 0 -67 -81q-28 -83 -80 -314q-16 -71 -28 -139z" />
    <glyph glyph-name="estimated" unicode="&#x212e;" horiz-adv-x="1054" vert-adv-y="2308" 
d="M985 425h-665q5 -100 50 -164q62 -87 186 -87q137 0 188 109l223 -9q-24 -107 -104 -186q-115 -116 -314 -116q-168 0 -285 79q-104 70 -152 191q-44 108 -44 231q0 183 83 318q71 118 196 171q88 38 195 38q208 0 330 -148q114 -139 114 -379q0 -15 -1 -48zM732 609
q-30 195 -193 195q-166 0 -212 -195h405z" />
    <glyph glyph-name="onethird" unicode="&#x2153;" horiz-adv-x="1794" vert-adv-y="2308" 
d="M155 1100v92q88 -1 137 37q43 34 60 106h115v-803h-167v568h-145zM1181 1331h201l-769 -1331h-201zM1297 581h-142q3 101 63 161q73 73 209 73q113 0 179 -53q73 -59 73 -160q0 -126 -125 -176q33 -9 58 -27q78 -54 78 -160q0 -115 -89 -187q-76 -61 -197 -61
q-170 0 -245 101q-45 59 -45 154h150q1 -116 136 -116q59 0 90 28q35 30 35 82q0 86 -94 102q-47 8 -134 8v131q23 -1 36 -1q180 0 180 110q0 40 -30 64q-28 23 -72 23q-99 0 -114 -96z" />
    <glyph glyph-name="twothirds" unicode="&#x2154;" horiz-adv-x="1794" vert-adv-y="2308" 
d="M261 1101h-140q-2 97 48 158q74 91 218 91q119 0 193 -63q65 -56 65 -153q0 -75 -56 -153q-85 -121 -263 -301h325v-147h-544v128l16 18q194 210 269 299q84 100 84 153q0 32 -26 55q-27 24 -71 24q-107 0 -118 -109zM1181 1331h201l-769 -1331h-201zM1297 581h-142
q3 101 63 161q73 73 210 73q112 0 177 -53q74 -59 74 -160q0 -125 -125 -176q136 -39 136 -187q0 -115 -89 -187q-76 -61 -197 -61q-170 0 -245 101q-45 59 -45 154h150q1 -116 136 -116q58 0 90 28q35 30 35 82q0 86 -94 102q-47 8 -134 8v131q24 -1 36 -1q180 0 180 110
q0 40 -30 64q-28 23 -73 23q-98 0 -113 -96z" />
    <glyph glyph-name="oneeighth" unicode="&#x215b;" horiz-adv-x="1794" vert-adv-y="2308" 
d="M155 1100v92q88 -1 137 37q43 34 60 106h115v-803h-167v568h-145zM1181 1331h201l-769 -1331h-201zM1226 422q-89 55 -89 158q0 116 95 182q80 56 183 56t183 -56q95 -66 95 -181q0 -104 -88 -159q105 -59 105 -180q0 -120 -98 -193q-82 -61 -197 -61q-112 0 -196 61
q-98 70 -98 193q0 121 105 180zM1414 688q-46 0 -77 -27q-33 -28 -33 -76q0 -46 33 -75q31 -27 78 -27q48 0 79 27q33 29 33 75q0 48 -33 76q-32 27 -80 27zM1415 354q-39 0 -74 -20q-53 -30 -53 -98t53 -98q35 -20 74 -20q40 0 75 20q53 30 53 98t-53 98q-34 20 -75 20z
" />
    <glyph glyph-name="threeeighths" unicode="&#x215c;" horiz-adv-x="1794" vert-adv-y="2308" 
d="M260 1127h-141q3 101 63 161q73 72 209 72q113 0 178 -53q74 -59 74 -159q0 -126 -125 -176q33 -9 58 -27q78 -54 78 -159q0 -116 -89 -187q-76 -61 -197 -61q-170 0 -246 100q-44 59 -44 154h150q0 -48 28 -77q35 -38 107 -38q59 0 91 28q35 30 35 81q0 86 -94 102
q-47 8 -134 8v131q24 -1 36 -1q180 0 180 110q0 40 -30 64q-28 22 -73 22q-98 0 -114 -95zM1181 1331h200l-768 -1331h-201zM1225 422q-88 55 -88 158q0 116 95 182q80 56 183 56q102 0 182 -56q96 -66 96 -181q0 -104 -89 -159q105 -59 105 -180q0 -120 -98 -193
q-81 -61 -196 -61t-197 61q-97 73 -97 193q0 122 104 180zM1414 688q-46 0 -77 -27q-33 -28 -33 -76q0 -46 33 -75q31 -27 78 -27q48 0 79 27q33 29 33 75q0 48 -33 76q-32 27 -80 27zM1414 354q-39 0 -73 -20q-53 -30 -53 -98t53 -98q34 -20 74 -20t74 20q53 30 53 98
t-53 98q-34 20 -75 20z" />
    <glyph glyph-name="fiveeighths" unicode="&#x215d;" horiz-adv-x="1794" vert-adv-y="2308" 
d="M191 1331h423l-10 -143h-292l-33 -145q67 34 133 34q68 0 131 -36q124 -71 124 -227q0 -134 -96 -220q-83 -74 -200 -74q-148 0 -224 93q-50 62 -56 152h157q15 -105 117 -105q56 0 89 37q39 45 39 110q0 64 -36 105q-30 35 -81 35q-70 0 -127 -65l-141 20zM1181 1331
h201l-768 -1331h-201zM1226 422q-88 54 -88 158q0 116 95 182q80 56 183 56q102 0 182 -56q95 -66 95 -181q0 -105 -88 -159q105 -59 105 -180q0 -120 -98 -193q-82 -61 -197 -61t-196 61q-98 73 -98 193t105 180zM1415 688q-46 0 -77 -27q-33 -28 -33 -76q0 -46 33 -75
q31 -27 78 -27t78 27q33 29 33 75q0 48 -33 76q-31 27 -79 27zM1415 354q-39 0 -74 -20q-53 -30 -53 -98t53 -98q35 -20 75 -20q39 0 74 20q53 30 53 98t-53 98q-34 20 -75 20z" />
    <glyph glyph-name="seveneighths" unicode="&#x215e;" horiz-adv-x="1794" vert-adv-y="2308" 
d="M130 1331h569v-120l-393 -679h-183l374 647h-367v152zM1182 1331h200l-768 -1331h-201zM1226 422q-88 54 -88 159q0 115 95 181q80 56 182 56q103 0 183 -56q95 -66 95 -181q0 -105 -88 -159q105 -59 105 -180q0 -120 -98 -193q-82 -61 -196 -61q-115 0 -197 61
q-98 73 -98 193q0 121 105 180zM1415 688q-46 0 -77 -27q-33 -28 -33 -76q0 -46 33 -75q31 -27 78 -27t78 27q33 29 33 75q0 48 -33 76q-31 27 -79 27zM1415 354q-39 0 -74 -20q-53 -30 -53 -98t53 -98q35 -20 75 -20q39 0 74 20q53 30 53 98t-53 98q-34 20 -75 20z" />
    <glyph glyph-name="arrowleft" unicode="&#x2190;" horiz-adv-x="1365" vert-adv-y="2308" 
d="M1338 744v-104h-1024q24 -30 60 -96q47 -86 47 -117q0 -28 -31 -28q-16 0 -46 35q-94 112 -270 212q-47 25 -47 42q0 19 34 38q126 75 165 106q62 49 132 130q16 20 32 20q31 0 31 -31q0 -20 -42 -105q-21 -42 -65 -102h1024z" />
    <glyph glyph-name="arrowup" unicode="&#x2191;" horiz-adv-x="1365" vert-adv-y="2308" 
d="M737 27h-104v1024q-31 -25 -96 -60q-86 -47 -117 -47q-28 0 -28 31q0 16 35 46q112 94 212 270q25 47 41 47q20 0 39 -34q74 -125 106 -164q50 -65 130 -132q20 -17 20 -33q0 -31 -31 -31q-20 0 -105 43q-44 21 -102 64v-1024z" />
    <glyph glyph-name="arrowright" unicode="&#x2192;" horiz-adv-x="1365" vert-adv-y="2308" 
d="M27 636v104h1024q-24 30 -60 96q-47 87 -47 117q0 29 31 29q16 0 46 -35q94 -111 270 -212q47 -26 47 -42q0 -19 -34 -38q-128 -77 -165 -107q-64 -50 -132 -130q-16 -20 -32 -20q-31 0 -31 31q0 20 42 105q21 41 65 102h-1024z" />
    <glyph glyph-name="arrowdown" unicode="&#x2193;" horiz-adv-x="1365" vert-adv-y="2308" 
d="M629 1338h104v-1024q30 25 96 60q86 47 117 47q28 0 28 -31q0 -16 -35 -46q-112 -94 -212 -270q-25 -47 -41 -47q-20 0 -39 34q-74 125 -106 165q-50 64 -130 131q-20 17 -20 33q0 31 31 31q20 0 105 -42q41 -21 102 -65v1024z" />
    <glyph glyph-name="arrowboth" unicode="&#x2194;" horiz-adv-x="1365" vert-adv-y="2308" 
d="M312 635q47 -64 73 -117q36 -72 36 -91q0 -30 -31 -30q-16 0 -48 38q-55 65 -116 112q-42 36 -178 114q-21 11 -21 30q0 17 47 42q175 100 270 212q30 35 46 35q31 0 31 -29q0 -30 -48 -116q-35 -63 -61 -96h739q-24 29 -60 96q-47 86 -47 117q0 28 31 28q16 0 46 -35
q95 -112 270 -212q47 -25 47 -41q0 -20 -34 -39q-125 -74 -165 -106q-64 -50 -132 -130q-16 -20 -32 -20q-31 0 -31 31q0 20 42 105q21 41 65 102h-739z" />
    <glyph glyph-name="arrowupdn" unicode="&#x2195;" horiz-adv-x="1365" vert-adv-y="2308" 
d="M737 312q63 47 117 73q72 36 91 36q30 0 30 -31q0 -13 -8 -22q-5 -5 -30 -26q-66 -56 -112 -116q-36 -42 -114 -178q-11 -21 -30 -21q-17 0 -42 47q-100 176 -212 270q-35 30 -35 46q0 31 29 31q30 0 116 -48q62 -34 96 -61v739q-32 -25 -96 -60q-86 -47 -117 -47
q-28 0 -28 31q0 16 35 46q111 93 212 270q25 47 41 47q20 0 39 -34q75 -127 106 -164q50 -65 130 -133q20 -16 20 -32q0 -31 -31 -31q-20 0 -105 43q-44 21 -102 64v-739z" />
    <glyph glyph-name="arrowupdnbse" unicode="&#x21a8;" horiz-adv-x="1365" vert-adv-y="2308" 
d="M737 312q63 47 117 73q72 36 91 36q30 0 30 -31q0 -13 -9 -22q-4 -5 -29 -26q-65 -55 -112 -116q-34 -40 -114 -178q-12 -21 -30 -21q-17 0 -42 47q-100 176 -212 270q-35 30 -35 46q0 31 28 31q31 0 117 -48q64 -35 96 -61v739q-31 -25 -96 -60q-87 -47 -117 -47
q-29 0 -29 31q0 16 35 46q112 93 212 270q26 47 42 47q19 0 38 -34q75 -127 107 -164q50 -65 130 -133q20 -16 20 -32q0 -31 -31 -31q-20 0 -105 43q-44 22 -102 64v-739zM413 -139h540v-88h-540v88z" />
    <glyph glyph-name="emptyset" unicode="&#x2205;" horiz-adv-x="1266" vert-adv-y="2308" 
d="M907 1125q45 -31 77 -64q146 -147 146 -351q0 -205 -146 -352q-144 -145 -351 -145q-87 0 -172 31l-110 -217l-100 52l110 215q-45 31 -78 64q-146 148 -146 351q0 205 146 352q145 145 351 145q85 0 174 -31l110 217l98 -51zM854 1022l-341 -675q62 -20 120 -20
q159 0 270 112q113 113 113 271q0 156 -113 270q-20 21 -49 42zM413 397l343 675q-62 20 -121 20q-160 0 -271 -112q-113 -113 -113 -270q0 -191 162 -313z" />
    <glyph glyph-name="minus" unicode="&#x2212;" horiz-adv-x="1167" vert-adv-y="2308" 
d="M97 779h973v-192h-973v192z" />
    <glyph glyph-name="fraction" unicode="&#x2215;" horiz-adv-x="278" vert-adv-y="2308" 
d="M423 1331h201l-769 -1331h-201z" />
    <glyph glyph-name="ring" unicode="&#x2218;" vert-adv-y="2308" 
d="M516 983q111 0 194 -84q83 -83 83 -203q0 -118 -82 -202q-83 -84 -199 -84q-115 0 -198 83q-84 85 -84 203q0 122 84 204q84 83 202 83zM510 886q-74 0 -129 -55t-55 -134t55 -135q55 -55 131 -55t131 56q54 55 54 133q0 80 -55 135t-132 55z" />
    <glyph glyph-name="intersection" unicode="&#x2229;" horiz-adv-x="1345" vert-adv-y="2308" 
d="M1231 0h-253v609q0 154 -8 235q-11 116 -59 180q-41 54 -106 84q-64 30 -132 30q-104 0 -188 -63q-63 -48 -89 -123q-29 -86 -29 -343v-609h-253v603q0 230 13 324q30 221 212 343q142 95 333 95q192 0 334 -95q183 -122 212 -343q13 -98 13 -324v-603z" />
    <glyph glyph-name="union" unicode="&#x222a;" horiz-adv-x="1345" vert-adv-y="2308" 
d="M114 1365h253v-609q0 -151 8 -235q11 -115 59 -179q41 -55 106 -85q64 -30 132 -30q105 0 188 63q63 48 89 123q29 85 29 343v609h253v-603q0 -230 -13 -324q-29 -221 -212 -343q-142 -95 -333 -95q-192 0 -333 95q-183 122 -213 343q-13 98 -13 324v603z" />
    <glyph glyph-name="uni222E" unicode="&#x222e;" vert-adv-y="2308" 
d="M108 -491l47 225q71 -19 114 -19q104 0 114 113q2 21 2 155v99q-102 32 -174 89q-76 61 -122 148q-54 102 -54 213q0 152 93 277q95 127 257 173v67q0 196 21 274q27 101 119 162q78 52 204 52q73 0 184 -22l-47 -225q-68 20 -113 20q-104 0 -114 -113q-2 -19 -2 -156
v-59q98 -28 167 -81q82 -64 131 -156q52 -100 52 -213q0 -152 -91 -275q-92 -123 -258 -175v-49q0 -213 -9 -275q-19 -126 -103 -197q-86 -72 -234 -72q-85 0 -184 20zM638 819v-569q173 100 173 285q0 188 -173 284zM385 251v568q-50 -26 -81 -58q-93 -94 -93 -226
q0 -136 97 -230q30 -29 77 -54z" />
    <glyph glyph-name="uni2236" unicode="&#x2236;" horiz-adv-x="584" vert-adv-y="2308" 
d="M293 497q56 0 98 -42q41 -41 41 -99t-41 -99q-42 -42 -100 -42t-100 42q-41 41 -41 99q0 59 41 99q43 42 102 42zM293 1153q56 0 98 -42q41 -41 41 -99t-41 -99q-42 -42 -100 -42t-100 42q-41 41 -41 99q0 59 41 99q43 42 102 42z" />
    <glyph glyph-name="similar" unicode="&#x223c;" vert-adv-y="2308" 
d="M153 510l-139 91q50 122 101 185q76 95 204 95q72 0 216 -55q96 -36 121 -42q33 -8 60 -8q61 0 101 40q19 19 49 68l143 -84q-75 -156 -147 -209q-81 -59 -174 -59q-57 0 -206 55q-137 51 -175 51q-53 0 -93 -35q-23 -21 -61 -93z" />
    <glyph glyph-name="equivalence" unicode="&#x2261;" vert-adv-y="2308" 
d="M68 1133h887v-227h-887v227zM68 809h887v-227h-887v227zM68 485h887v-227h-887v227z" />
    <glyph glyph-name="dotoperator" unicode="&#x22c5;" horiz-adv-x="515" vert-adv-y="2308" 
d="M258 671q63 0 109 -46t46 -111q0 -64 -46 -110t-111 -46q-64 0 -110 46t-46 110q0 66 46 111q47 46 112 46z" />
    <glyph glyph-name="house" unicode="&#x2302;" horiz-adv-x="1538" vert-adv-y="2308" 
d="M172 0v821l597 672l597 -672v-821h-1194zM276 104h986v672l-493 553l-493 -553v-672z" />
    <glyph glyph-name="revlogicalnot" unicode="&#x2310;" vert-adv-y="2308" 
d="M321 0h-253v546h887v-236h-634v-310z" />
    <glyph glyph-name="uni2319" unicode="&#x2319;" vert-adv-y="2308" 
d="M321 546v-310h634v-236h-887v546h253z" />
    <glyph glyph-name="integraltp" unicode="&#x2320;" vert-adv-y="2308" 
d="M638 -512h-252v1522q0 234 21 313q25 95 108 155q81 58 214 58q73 0 184 -21l-46 -225q-68 19 -113 19q-88 0 -107 -70q-9 -31 -9 -127v-71v-1553z" />
    <glyph glyph-name="integralbt" unicode="&#x2321;" vert-adv-y="2308" 
d="M386 1536h253v-1522q0 -175 -7 -233q-13 -117 -63 -177q-67 -79 -173 -113q-37 -12 -54 -12q-16 0 -27 8l-119 92q-9 7 -65 12l39 187q21 -4 23 -6l75 -57q7 -5 19 -5q27 0 57 27q34 31 39 76q3 25 3 170v1553z" />
    <glyph glyph-name="2500" unicode="&#x2500;" horiz-adv-x="2048" vert-adv-y="2308" 
d="M0 444v135h2048v-135h-2048z" />
    <glyph glyph-name="2502" unicode="&#x2502;" horiz-adv-x="2048" vert-adv-y="2308" 
d="M956 -512v2048h135v-2048h-135z" />
    <glyph glyph-name="250c" unicode="&#x250c;" horiz-adv-x="2048" vert-adv-y="2308" 
d="M2048 579v-135h-957v-956h-135v1091h1092z" />
    <glyph glyph-name="2510" unicode="&#x2510;" horiz-adv-x="2048" vert-adv-y="2308" 
d="M957 444h-957v135h1092v-1091h-135v956z" />
    <glyph glyph-name="2514" unicode="&#x2514;" horiz-adv-x="2048" vert-adv-y="2308" 
d="M1091 579h957v-135h-1092v1092h135v-957z" />
    <glyph glyph-name="2518" unicode="&#x2518;" horiz-adv-x="2048" vert-adv-y="2308" 
d="M0 444v135h957v957h135v-1092h-1092z" />
    <glyph glyph-name="251c" unicode="&#x251c;" horiz-adv-x="2048" vert-adv-y="2308" 
d="M1091 579h957v-135h-957v-956h-135v2048h135v-957z" />
    <glyph glyph-name="2524" unicode="&#x2524;" horiz-adv-x="2048" vert-adv-y="2308" 
d="M957 444h-957v135h957v957h135v-2048h-135v956z" />
    <glyph glyph-name="252c" unicode="&#x252c;" horiz-adv-x="2048" vert-adv-y="2308" 
d="M1091 444v-956h-135v956h-956v135h2048v-135h-957z" />
    <glyph glyph-name="2534" unicode="&#x2534;" horiz-adv-x="2048" vert-adv-y="2308" 
d="M956 579v957h135v-957h957v-135h-2048v135h956z" />
    <glyph glyph-name="253c" unicode="&#x253c;" horiz-adv-x="2048" vert-adv-y="2308" 
d="M956 444h-956v135h956v957h135v-957h957v-135h-957v-956h-135v956z" />
    <glyph glyph-name="2550" unicode="&#x2550;" horiz-adv-x="2048" vert-adv-y="2308" 
d="M0 309v135h2048v-135h-2048zM0 580v135h2048v-135h-2048z" />
    <glyph glyph-name="2551" unicode="&#x2551;" horiz-adv-x="2048" vert-adv-y="2308" 
d="M821 -512v2048h135v-2048h-135zM1092 -512v2048h135v-2048h-135z" />
    <glyph glyph-name="2552" unicode="&#x2552;" horiz-adv-x="2048" vert-adv-y="2308" 
d="M956 -512v1227h1092v-135h-957v-136h957v-135h-957v-821h-135z" />
    <glyph glyph-name="2553" unicode="&#x2553;" horiz-adv-x="2048" vert-adv-y="2308" 
d="M1091 444h-135v-956h-135v1091h1227v-135h-822v-956h-135v956z" />
    <glyph glyph-name="2554" unicode="&#x2554;" horiz-adv-x="2048" vert-adv-y="2308" 
d="M956 580v-1092h-135v1227h1227v-135h-1092zM1226 309v-821h-135v956h957v-135h-822z" />
    <glyph glyph-name="2555" unicode="&#x2555;" horiz-adv-x="2048" vert-adv-y="2308" 
d="M957 309h-957v135h957v136h-957v135h1092v-1227h-135v821z" />
    <glyph glyph-name="2556" unicode="&#x2556;" horiz-adv-x="2048" vert-adv-y="2308" 
d="M956 444v-956h-135v956h-821v135h1227v-1091h-135v956h-136z" />
    <glyph glyph-name="2557" unicode="&#x2557;" horiz-adv-x="2048" vert-adv-y="2308" 
d="M1092 580h-1092v135h1227v-1227h-135v1092zM821 309h-821v135h956v-956h-135v821z" />
    <glyph glyph-name="2558" unicode="&#x2558;" horiz-adv-x="2048" vert-adv-y="2308" 
d="M956 1536h135v-821h957v-135h-957v-136h957v-135h-1092v1227z" />
    <glyph glyph-name="2559" unicode="&#x2559;" horiz-adv-x="2048" vert-adv-y="2308" 
d="M1091 579v957h135v-957h822v-135h-1227v1092h135v-957h135z" />
    <glyph glyph-name="255a" unicode="&#x255a;" horiz-adv-x="2048" vert-adv-y="2308" 
d="M956 444h1092v-135h-1227v1227h135v-1092zM1226 715h822v-135h-957v956h135v-821z" />
    <glyph glyph-name="255b" unicode="&#x255b;" horiz-adv-x="2048" vert-adv-y="2308" 
d="M957 715v821h135v-1227h-1092v135h957v136h-957v135h957z" />
    <glyph glyph-name="255c" unicode="&#x255c;" horiz-adv-x="2048" vert-adv-y="2308" 
d="M956 579h136v957h135v-1092h-1227v135h821v957h135v-957z" />
    <glyph glyph-name="255d" unicode="&#x255d;" horiz-adv-x="2048" vert-adv-y="2308" 
d="M1092 444v1092h135v-1227h-1227v135h1092zM821 715v821h135v-956h-956v135h821z" />
    <glyph glyph-name="255e" unicode="&#x255e;" horiz-adv-x="2048" vert-adv-y="2308" 
d="M956 1536h135v-821h957v-135h-957v-136h957v-135h-957v-821h-135v2048z" />
    <glyph glyph-name="255f" unicode="&#x255f;" horiz-adv-x="2048" vert-adv-y="2308" 
d="M1226 444v-956h-135v2048h135v-957h822v-135h-822zM956 -512h-135v2048h135v-2048z" />
    <glyph glyph-name="2560" unicode="&#x2560;" horiz-adv-x="2048" vert-adv-y="2308" 
d="M821 -512v2048h135v-2048h-135zM1226 715h822v-135h-957v956h135v-821zM1226 309v-821h-135v956h957v-135h-822z" />
    <glyph glyph-name="2561" unicode="&#x2561;" horiz-adv-x="2048" vert-adv-y="2308" 
d="M957 715v821h135v-2048h-135v821h-957v135h957v136h-957v135h957z" />
    <glyph glyph-name="2562" unicode="&#x2562;" horiz-adv-x="2048" vert-adv-y="2308" 
d="M821 444h-821v135h821v957h135v-2048h-135v956zM1092 -512v2048h135v-2048h-135z" />
    <glyph glyph-name="2563" unicode="&#x2563;" horiz-adv-x="2048" vert-adv-y="2308" 
d="M1227 -512h-135v2048h135v-2048zM821 715v821h135v-956h-956v135h821zM821 309h-821v135h956v-956h-135v821z" />
    <glyph glyph-name="2564" unicode="&#x2564;" horiz-adv-x="2048" vert-adv-y="2308" 
d="M0 715h2048v-135h-2048v135zM956 309h-956v135h2048v-135h-957v-821h-135v821z" />
    <glyph glyph-name="2565" unicode="&#x2565;" horiz-adv-x="2048" vert-adv-y="2308" 
d="M821 444h-821v135h2048v-135h-821v-956h-135v956h-136v-956h-135v956z" />
    <glyph glyph-name="2566" unicode="&#x2566;" horiz-adv-x="2048" vert-adv-y="2308" 
d="M0 715h2048v-135h-2048v135zM1227 309v-821h-135v956h956v-135h-821zM821 309h-821v135h956v-956h-135v821z" />
    <glyph glyph-name="2567" unicode="&#x2567;" horiz-adv-x="2048" vert-adv-y="2308" 
d="M0 309v135h2048v-135h-2048zM956 715v821h135v-821h957v-135h-2048v135h956z" />
    <glyph glyph-name="2568" unicode="&#x2568;" horiz-adv-x="2048" vert-adv-y="2308" 
d="M0 444v135h821v957h135v-957h136v957h135v-957h821v-135h-2048z" />
    <glyph glyph-name="2569" unicode="&#x2569;" horiz-adv-x="2048" vert-adv-y="2308" 
d="M0 309v135h2048v-135h-2048zM1227 715h821v-135h-956v956h135v-821zM821 715v821h135v-956h-956v135h821z" />
    <glyph glyph-name="256a" unicode="&#x256a;" horiz-adv-x="2048" vert-adv-y="2308" 
d="M956 444v136h-956v135h956v821h135v-821h957v-135h-957v-136h957v-135h-957v-821h-135v821h-956v135h956z" />
    <glyph glyph-name="256b" unicode="&#x256b;" horiz-adv-x="2048" vert-adv-y="2308" 
d="M821 444h-821v135h821v957h135v-957h136v957h135v-957h821v-135h-821v-956h-135v956h-136v-956h-135v956z" />
    <glyph glyph-name="256c" unicode="&#x256c;" horiz-adv-x="2048" vert-adv-y="2308" 
d="M1227 715h821v-135h-956v956h135v-821zM821 715v821h135v-956h-956v135h821zM1227 309v-821h-135v956h956v-135h-821zM821 309h-821v135h956v-956h-135v821z" />
    <glyph glyph-name="upblock" unicode="&#x2580;" horiz-adv-x="2048" vert-adv-y="2308" 
d="M0 512v1024h2048v-1024h-2048z" />
    <glyph glyph-name="dnblock" unicode="&#x2584;" horiz-adv-x="2048" vert-adv-y="2308" 
d="M0 -512v1024h2048v-1024h-2048z" />
    <glyph glyph-name="block" unicode="&#x2588;" horiz-adv-x="2048" vert-adv-y="2308" 
d="M0 -512v2048h2048v-2048h-2048z" />
    <glyph glyph-name="lfblock" unicode="&#x258c;" horiz-adv-x="2048" vert-adv-y="2308" 
d="M0 -512v2048h1024v-2048h-1024z" />
    <glyph glyph-name="rtblock" unicode="&#x2590;" horiz-adv-x="2048" vert-adv-y="2308" 
d="M1024 -512v2048h1024v-2048h-1024z" />
    <glyph glyph-name="ltshade" unicode="&#x2591;" horiz-adv-x="2048" vert-adv-y="2308" 
d="M0 1536h205v-205h-205v205zM410 1536h205v-205h-205v205zM1638 1536h205v-205h-205v205zM819 1536h205v-205h-205v205zM1229 1536h205v-205h-205v205zM0 1126h205v-205h-205v205zM0 717h205v-205h-205v205zM0 307h205v-205h-205v205zM0 -102h205v-205h-205v205zM410 1126
h205v-205h-205v205zM410 717h205v-205h-205v205zM410 307h205v-205h-205v205zM410 -102h205v-205h-205v205zM819 1126h205v-205h-205v205zM819 717h205v-205h-205v205zM819 307h205v-205h-205v205zM819 -102h205v-205h-205v205zM1229 1126h205v-205h-205v205zM1229 717h205
v-205h-205v205zM1229 307h205v-205h-205v205zM1229 -102h205v-205h-205v205zM1638 1126h205v-205h-205v205zM1638 717h205v-205h-205v205zM1638 307h205v-205h-205v205zM1638 -102h205v-205h-205v205z" />
    <glyph glyph-name="shade" unicode="&#x2592;" horiz-adv-x="2048" vert-adv-y="2308" 
d="M1843 -307h204v-205h-204v205h-205v-205h-204v205h-205v-205h-205v205h-205v-205h-205v205h-204v-205h-205v205h-205v204h205v-204h205v204h204v-204h205v204h205v-204h205v204h205v-204h204v204h205v205h-205v-205h-204v205h-205v-205h-205v205h-205v-205h-205v205h-204
v-205h-205v205h-205v205h205v-205h205v205h204v-205h205v205h205v-205h205v205h205v-205h204v205h205v205h-205v-205h-204v205h-205v-205h-205v205h-205v-205h-205v205h-204v-205h-205v205h-205v205h205v-205h205v205h204v-205h205v205h205v-205h205v205h205v-205h204v205
h205v205h-205v-205h-204v205h-205v-205h-205v205h-205v-205h-205v205h-204v-205h-205v205h-205v204h205v-204h205v204h204v-204h205v204h205v-204h205v204h205v-204h204v204h205v205h-205v-205h-204v205h-205v-205h-205v205h-205v-205h-205v205h-204v-205h-205v205h-205v205
h205v-205h205v205h204v-205h205v205h205v-205h205v205h205v-205h204v205h205v-205h204v-205h-204v-204h204v-205h-204v-205h204v-205h-204v-205h204v-205h-204v-204z" />
    <glyph glyph-name="dkshade" unicode="&#x2593;" horiz-adv-x="2048" vert-adv-y="2308" 
d="M2048 -512h-2048v205h205v205h-205v205h205v204h-205v205h205v205h-205v205h205v204h-205v205h205v205h205v-205h204v205h205v-205h205v205h205v-205h204v205h205v-205h205v205h205v-2048zM1843 1126h-205v-204h205v204zM1433 1126h-204v-204h204v204zM1024 1126h-205
v-204h205v204zM614 1126h-204v-204h204v204zM1843 717h-205v-205h205v205zM1433 717h-204v-205h204v205zM1024 717h-205v-205h205v205zM614 717h-204v-205h204v205zM1843 307h-205v-204h205v204zM1433 307h-204v-204h204v204zM1024 307h-205v-204h205v204zM614 307h-204
v-204h204v204zM1843 -102h-205v-205h205v205zM1433 -102h-204v-205h204v205zM1024 -102h-205v-205h205v205zM614 -102h-204v-205h204v205z" />
    <glyph glyph-name="filledbox" unicode="&#x25a0;" horiz-adv-x="1365" vert-adv-y="2308" 
d="M1365 0h-1365v1365h1365v-1365z" />
    <glyph glyph-name="whitesquare" unicode="&#x25a1;" horiz-adv-x="1365" vert-adv-y="2308" 
d="M1365 0h-1365v1365h1365v-1365zM1269 96v1173h-1173v-1173h1173z" />
    <glyph glyph-name="filledrect" unicode="&#x25ac;" horiz-adv-x="1365" vert-adv-y="2308" 
d="M1365 683v-683h-1365v683h1365z" />
    <glyph glyph-name="blackverticalrect" unicode="&#x25ae;" horiz-adv-x="1365" vert-adv-y="2308" 
d="M1024 0h-683v1365h683v-1365z" />
    <glyph glyph-name="uni25AF" unicode="&#x25af;" horiz-adv-x="1365" vert-adv-y="2308" 
d="M690 1207q142 0 271 -77q128 -77 196 -207q59 -113 59 -239q0 -216 -154 -370q-157 -156 -380 -156q-222 0 -378 156q-154 154 -154 369q0 221 155 370q161 154 385 154z" />
    <glyph glyph-name="triagup" unicode="&#x25b2;" horiz-adv-x="1365" vert-adv-y="2308" 
d="M1297 137h-1229l615 1150z" />
    <glyph glyph-name="uni25B4" unicode="&#x25b4;" vert-adv-y="2308" 
d="M956 300h-888l444 830z" />
    <glyph glyph-name="uni25B8" unicode="&#x25b8;" vert-adv-y="2308" 
d="M146 243v888l830 -444z" />
    <glyph glyph-name="triagdn" unicode="&#x25bc;" horiz-adv-x="1365" vert-adv-y="2308" 
d="M68 1229h1229l-615 -1150z" />
    <glyph glyph-name="uni25BE" unicode="&#x25be;" vert-adv-y="2308" 
d="M68 1065h887l-443 -830z" />
    <glyph glyph-name="uni25C2" unicode="&#x25c2;" vert-adv-y="2308" 
d="M878 1131v-888l-830 444z" />
    <glyph glyph-name="circle" unicode="&#x25cb;" horiz-adv-x="1365" vert-adv-y="2308" 
d="M690 1207q142 0 271 -77q128 -77 196 -207q59 -113 59 -239q0 -216 -154 -370q-157 -156 -380 -156q-222 0 -378 156q-154 154 -154 369q0 221 155 370q161 154 385 154zM678 1113q-175 0 -305 -127q-127 -124 -127 -302t127 -304q128 -128 310 -128t311 128
q126 127 126 303q0 181 -128 304q-131 126 -314 126z" />
    <glyph glyph-name="invbullet" unicode="&#x25d8;" horiz-adv-x="1365" vert-adv-y="2308" 
d="M0 0v1365h1365v-1365h-1365zM680 969q-112 0 -195 -83q-84 -84 -84 -203t84 -204q83 -83 198 -83q116 0 199 84q82 84 82 202q0 121 -83 204q-84 83 -201 83z" />
    <glyph glyph-name="invcircle" unicode="&#x25d9;" horiz-adv-x="1365" vert-adv-y="2308" 
d="M688 1113q175 0 304 -126q128 -125 128 -304q0 -176 -127 -303q-128 -128 -311 -128q-182 0 -310 128q-127 126 -127 303q0 181 127 303q133 127 316 127zM1365 0h-1365v1365h1365v-1365zM676 1207q-143 0 -272 -78q-128 -77 -196 -207q-58 -111 -58 -237
q0 -218 154 -371q156 -156 378 -156t379 156q154 154 154 369q0 148 -79 275q-77 124 -212 192q-113 57 -248 57z" />
    <glyph glyph-name="openbullet" unicode="&#x25e6;" vert-adv-y="2308" 
d="M516 983q111 0 194 -84q83 -83 83 -203q0 -118 -82 -202q-83 -84 -199 -84q-115 0 -198 83q-84 85 -84 203q0 122 84 204q84 83 202 83zM510 886q-74 0 -129 -55t-55 -134t55 -135q55 -55 131 -55t131 56q54 55 54 133q0 80 -55 135t-132 55z" />
    <glyph glyph-name="smileface" unicode="&#x263a;" horiz-adv-x="1365" vert-adv-y="2308" 
d="M491 954q37 0 65 -30q23 -26 23 -60q0 -40 -30 -67q-26 -23 -60 -23q-40 0 -67 30q-23 26 -23 61q0 38 30 66q25 23 62 23zM888 954q39 0 66 -30q23 -26 23 -60q0 -40 -30 -68q-25 -23 -60 -23q-41 0 -68 30q-23 26 -23 61q0 39 30 67q25 23 62 23zM1106 762
q-10 -136 -34 -204q-50 -138 -160 -209q-96 -61 -228 -61q-224 0 -337 169q-46 69 -65 148q-12 53 -20 157q19 -82 44 -125q58 -98 160 -152q92 -49 218 -49q211 0 337 145q41 47 61 98q11 27 24 83zM694 1331q165 0 313 -87q151 -89 237 -237q87 -150 87 -324t-87 -325
q-87 -150 -237 -237q-151 -87 -325 -87q-173 0 -324 87t-237 237q-87 152 -87 330q0 279 215 476q182 167 445 167zM675 1245q-145 0 -273 -75q-131 -78 -206 -206q-75 -130 -75 -281t75 -282q76 -130 206 -206q131 -75 281 -75q151 0 282 75q131 76 206 206q75 132 75 286
q0 242 -187 413q-158 145 -384 145z" />
    <glyph glyph-name="invsmileface" unicode="&#x263b;" horiz-adv-x="1365" vert-adv-y="2308" 
d="M694 1331q165 0 313 -87q151 -89 237 -237q87 -149 87 -324q0 -174 -87 -325q-87 -150 -237 -237q-151 -87 -325 -87q-173 0 -324 87t-237 237q-87 152 -87 330q0 280 215 476q183 167 445 167zM488 953q-38 0 -65 -30q-23 -26 -23 -60q0 -40 30 -67q25 -23 59 -23
q40 0 67 30q23 26 23 61q0 38 -30 66q-25 23 -61 23zM886 954q-39 0 -66 -30q-24 -26 -24 -60q0 -40 30 -68q26 -23 61 -23q41 0 68 30q23 26 23 61q0 39 -30 67q-25 23 -62 23zM1106 762q-19 -82 -44 -125q-58 -98 -160 -152q-92 -49 -218 -49q-211 0 -337 145
q-41 48 -62 98q-10 27 -23 83q10 -137 34 -203q50 -139 160 -210q97 -61 228 -61q224 0 337 169q46 69 65 148q12 53 20 157z" />
    <glyph glyph-name="sun" unicode="&#x263c;" horiz-adv-x="1365" vert-adv-y="2308" 
d="M326 968l-153 152l73 72l153 -153q104 83 232 98v215h103v-216q135 -16 233 -96l153 152l72 -72l-153 -152q80 -100 96 -232h216v-105h-216q-16 -131 -96 -233l153 -153l-72 -72l-153 153q-103 -81 -233 -96v-216h-103v216q-119 12 -233 96l-152 -153l-73 72l152 153
q-81 102 -94 233h-216v105h215q16 128 96 232zM678 1010q-140 0 -238 -108q-84 -93 -84 -218q0 -146 108 -244q94 -84 219 -84q145 0 242 109q84 93 84 221q0 141 -108 240q-92 84 -223 84z" />
    <glyph glyph-name="female" unicode="&#x2640;" horiz-adv-x="1365" vert-adv-y="2308" 
d="M632 644q-93 14 -166 68q-72 52 -112 133q-40 80 -40 170q0 155 109 265q107 109 259 109t260 -108q110 -110 110 -266q0 -122 -72 -222q-90 -125 -250 -150v-214h334v-88h-334v-341h-98v341h-330v88h330v215zM681 1293q-110 0 -190 -80q-81 -81 -81 -197q0 -115 82 -197
q79 -80 191 -80q113 0 193 81q80 82 80 195q0 118 -81 197q-81 81 -194 81z" />
    <glyph glyph-name="male" unicode="&#x2642;" horiz-adv-x="1365" vert-adv-y="2308" 
d="M856 712q73 -100 73 -225q0 -154 -108 -263q-107 -110 -260 -110q-151 0 -259 108q-110 111 -110 267q0 155 109 265q109 109 260 109q126 0 229 -81l309 309q-103 23 -216 82q-44 24 -44 48q0 25 27 25q11 0 41 -6q88 -19 170 -19q114 0 190 21q36 10 46 10q21 0 21 -21
q0 -9 -10 -46q-22 -79 -22 -179q0 -85 19 -173q7 -30 7 -41q0 -27 -26 -27q-15 0 -25 11q-42 48 -71 126q-31 82 -39 121zM558 767q-109 0 -189 -80q-81 -81 -81 -197q0 -115 81 -197q80 -80 192 -80t192 81q80 82 80 195q0 118 -80 197q-82 81 -195 81z" />
    <glyph glyph-name="spade" unicode="&#x2660;" horiz-adv-x="1365" vert-adv-y="2308" 
d="M220 0v38q128 23 193 50q112 44 187 166q66 108 72 268q-17 -40 -27 -56q-34 -59 -97 -101q-81 -52 -172 -52q-97 0 -169 71q-77 77 -77 184q0 94 48 166q60 93 165 180q291 235 336 490q40 -117 64 -167q38 -77 102 -148q58 -62 142 -140q114 -103 156 -154
q92 -114 92 -232q0 -87 -54 -155q-75 -94 -197 -94q-171 0 -284 207q6 -100 28 -174q39 -126 149 -208q79 -61 285 -101v-38h-942z" />
    <glyph glyph-name="club" unicode="&#x2663;" horiz-adv-x="1365" vert-adv-y="2308" 
d="M1149 0h-933v38q182 32 257 85q170 125 191 346q3 38 5 92q-45 -77 -69 -107q-51 -65 -124 -105q-86 -49 -176 -49q-129 0 -219 103q-76 87 -76 208q0 129 84 219q76 82 186 82q56 0 121 -31q12 -5 56 -27q-73 108 -73 204q0 122 90 208q88 85 214 85q122 0 210 -81
q93 -87 93 -213q0 -97 -73 -203q57 28 76 36q50 22 101 22q118 0 196 -93q74 -89 74 -207q0 -141 -98 -232q-86 -80 -198 -80q-108 0 -212 71q-68 48 -123 136q-9 15 -32 54q2 -128 28 -214q36 -120 145 -207q53 -43 124 -66q60 -18 155 -36v-38z" />
    <glyph glyph-name="heart" unicode="&#x2665;" horiz-adv-x="1365" vert-adv-y="2308" 
d="M680 -22q-32 129 -97 245q-72 125 -165 251l-118 160q-90 123 -125 186q-60 110 -60 212q0 119 79 199q76 77 186 77q153 0 245 -139q28 -43 55 -126q31 105 80 162q90 105 221 105q123 0 204 -93q66 -76 66 -173q0 -136 -99 -298q-41 -65 -126 -174q-292 -364 -346 -594
z" />
    <glyph glyph-name="diamond" unicode="&#x2666;" horiz-adv-x="1365" vert-adv-y="2308" 
d="M682 1419q76 -144 283 -429q162 -221 237 -305q-51 -57 -267 -346q-148 -201 -253 -392q-41 85 -199 312q-86 124 -148 207q-73 91 -147 188l-24 31q46 54 261 337q154 206 257 397z" />
    <glyph glyph-name="musicalnote" unicode="&#x266a;" horiz-adv-x="1365" vert-adv-y="2308" 
d="M626 319v1046h93v-124q26 -34 137 -167q186 -222 186 -459q0 -192 -116 -333h-58q68 159 68 307q0 103 -44 196q-67 141 -173 157v-623q0 -125 -58 -207q-38 -54 -98 -89q-72 -41 -154 -41q-87 0 -121 54q-20 32 -20 68q0 76 53 143q43 55 113 80q44 15 82 15
q57 0 110 -23z" />
    <glyph glyph-name="uni266C" unicode="&#x266c;" horiz-adv-x="1365" vert-adv-y="2308" 
d="M399 1202l862 220v-1029q0 -95 -35 -166q-35 -70 -100 -115q-79 -56 -175 -56q-88 0 -120 53q-20 32 -20 70q0 76 52 143q43 55 113 80q43 15 80 15q60 0 111 -24v554l-675 -185v-483q0 -125 -58 -206q-38 -54 -98 -89q-72 -41 -155 -41q-87 0 -120 53q-20 32 -20 68
q0 75 53 142q43 55 113 79q43 15 82 15q56 0 110 -21v923zM492 918l675 185v142l-675 -185v-142z" />
    <glyph glyph-name="ff" unicode="&#xea00;" horiz-adv-x="1275" vert-adv-y="2308" 
d="M765 973v61q0 180 53 259q77 115 248 115q105 0 223 -46v-203q-106 32 -166 32q-75 0 -96 -66q-9 -31 -9 -127v-25h230v-197h-230v-776h-253v776h-350v-776h-253v776h-130v197h130v61q0 180 53 259q77 115 247 115q106 0 224 -46v-203q-107 32 -166 32q-76 0 -96 -63
q-9 -29 -9 -120v-35h350z" />
    <glyph glyph-name="fi" unicode="&#xea01;" horiz-adv-x="1156" vert-adv-y="2308" 
d="M415 973h229v-197h-229v-776h-253v776h-130v197h130v61q0 180 53 259q77 115 247 115q104 0 224 -46v-203q-108 32 -166 32q-75 0 -96 -66q-9 -31 -9 -127v-25zM763 973h253v-973h-253v973zM894 1392q62 0 101 -37q41 -39 41 -109q0 -69 -42 -109q-39 -38 -104 -38
q-69 0 -108 40q-39 38 -39 103q0 72 44 112q43 38 107 38z" />
    <glyph glyph-name="fl" unicode="&#xea02;" horiz-adv-x="1156" vert-adv-y="2308" 
d="M415 973h229v-197h-229v-776h-253v776h-130v197h130v61q0 180 53 259q77 115 247 115q104 0 224 -46v-203q-108 32 -166 32q-75 0 -96 -66q-9 -31 -9 -127v-25zM763 1374h253v-1374h-253v1374z" />
    <glyph glyph-name="ffi" unicode="&#xea03;" horiz-adv-x="1759" vert-adv-y="2308" 
d="M765 973v61q0 180 53 259q77 115 248 115q105 0 223 -46v-203q-106 32 -166 32q-75 0 -96 -66q-9 -31 -9 -127v-25h230v-197h-230v-776h-253v776h-350v-776h-253v776h-130v197h130v61q0 180 53 259q77 115 247 115q106 0 224 -46v-203q-107 32 -166 32q-76 0 -96 -63
q-9 -29 -9 -120v-35h350zM1366 973h253v-973h-253v973zM1498 1392q62 0 101 -37q41 -39 41 -109q0 -69 -42 -109q-39 -38 -104 -38q-69 0 -108 40q-39 39 -39 103q0 72 44 112q43 38 107 38z" />
    <glyph glyph-name="ffl" unicode="&#xea04;" horiz-adv-x="1760" vert-adv-y="2308" 
d="M765 973v61q0 180 53 259q77 115 248 115q105 0 223 -46v-203q-106 32 -166 32q-75 0 -96 -66q-9 -31 -9 -127v-25h230v-197h-230v-776h-253v776h-350v-776h-253v776h-130v197h130v61q0 180 53 259q77 115 247 115q106 0 224 -46v-203q-107 32 -166 32q-76 0 -96 -63
q-9 -29 -9 -120v-35h350zM1366 1374h253v-1374h-253v1374z" />
    <glyph glyph-name="oneeighth" unicode="&#xea05;" horiz-adv-x="1794" vert-adv-y="2308" 
d="M155 1100v92q88 -1 137 37q43 34 60 106h115v-803h-167v568h-145zM1181 1331h201l-769 -1331h-201zM1226 422q-89 55 -89 158q0 116 95 182q80 56 183 56t183 -56q95 -66 95 -181q0 -104 -88 -159q105 -59 105 -180q0 -120 -98 -193q-82 -61 -197 -61q-112 0 -196 61
q-98 70 -98 193q0 121 105 180zM1414 688q-46 0 -77 -27q-33 -28 -33 -76q0 -46 33 -75q31 -27 78 -27q48 0 79 27q33 29 33 75q0 48 -33 76q-32 27 -80 27zM1415 354q-39 0 -74 -20q-53 -30 -53 -98t53 -98q35 -20 74 -20q40 0 75 20q53 30 53 98t-53 98q-34 20 -75 20z
" />
    <glyph glyph-name="threeeighths" unicode="&#xea06;" horiz-adv-x="1794" vert-adv-y="2308" 
d="M260 1127h-141q3 101 63 161q73 72 209 72q113 0 178 -53q74 -59 74 -159q0 -126 -125 -176q33 -9 58 -27q78 -54 78 -159q0 -116 -89 -187q-76 -61 -197 -61q-170 0 -246 100q-44 59 -44 154h150q0 -48 28 -77q35 -38 107 -38q59 0 91 28q35 30 35 81q0 86 -94 102
q-47 8 -134 8v131q24 -1 36 -1q180 0 180 110q0 40 -30 64q-28 22 -73 22q-98 0 -114 -95zM1181 1331h200l-768 -1331h-201zM1225 422q-88 55 -88 158q0 116 95 182q80 56 183 56q102 0 182 -56q96 -66 96 -181q0 -104 -89 -159q105 -59 105 -180q0 -120 -98 -193
q-81 -61 -196 -61t-197 61q-97 73 -97 193q0 122 104 180zM1414 688q-46 0 -77 -27q-33 -28 -33 -76q0 -46 33 -75q31 -27 78 -27q48 0 79 27q33 29 33 75q0 48 -33 76q-32 27 -80 27zM1414 354q-39 0 -73 -20q-53 -30 -53 -98t53 -98q34 -20 74 -20t74 20q53 30 53 98
t-53 98q-34 20 -75 20z" />
    <glyph glyph-name="fiveeighths" unicode="&#xea07;" horiz-adv-x="1794" vert-adv-y="2308" 
d="M191 1331h423l-10 -143h-292l-33 -145q67 34 133 34q68 0 131 -36q124 -71 124 -227q0 -134 -96 -220q-83 -74 -200 -74q-148 0 -224 93q-50 62 -56 152h157q15 -105 117 -105q56 0 89 37q39 45 39 110q0 64 -36 105q-30 35 -81 35q-70 0 -127 -65l-141 20zM1181 1331
h201l-768 -1331h-201zM1226 422q-88 54 -88 158q0 116 95 182q80 56 183 56q102 0 182 -56q95 -66 95 -181q0 -105 -88 -159q105 -59 105 -180q0 -120 -98 -193q-82 -61 -197 -61t-196 61q-98 73 -98 193t105 180zM1415 688q-46 0 -77 -27q-33 -28 -33 -76q0 -46 33 -75
q31 -27 78 -27t78 27q33 29 33 75q0 48 -33 76q-31 27 -79 27zM1415 354q-39 0 -74 -20q-53 -30 -53 -98t53 -98q35 -20 75 -20q39 0 74 20q53 30 53 98t-53 98q-34 20 -75 20z" />
    <glyph glyph-name="seveneighths" unicode="&#xea08;" horiz-adv-x="1794" vert-adv-y="2308" 
d="M130 1331h569v-120l-393 -679h-183l374 647h-367v152zM1182 1331h200l-768 -1331h-201zM1226 422q-88 54 -88 159q0 115 95 181q80 56 182 56q103 0 183 -56q95 -66 95 -181q0 -105 -88 -159q105 -59 105 -180q0 -120 -98 -193q-82 -61 -196 -61q-115 0 -197 61
q-98 73 -98 193q0 121 105 180zM1415 688q-46 0 -77 -27q-33 -28 -33 -76q0 -46 33 -75q31 -27 78 -27t78 27q33 29 33 75q0 48 -33 76q-31 27 -79 27zM1415 354q-39 0 -74 -20q-53 -30 -53 -98t53 -98q35 -20 75 -20q39 0 74 20q53 30 53 98t-53 98q-34 20 -75 20z" />
    <glyph glyph-name="uniEA11" unicode="&#xea11;" vert-adv-y="2308" 
d="M324 1784q60 0 105 -44q44 -44 44 -107q0 -62 -44 -106q-45 -45 -107 -45t-107 45q-44 44 -44 106q0 64 44 107q46 44 109 44zM705 1784q60 0 105 -44q44 -44 44 -107q0 -62 -44 -107q-45 -44 -107 -44t-107 44q-44 45 -44 107q0 63 44 107q46 44 109 44z" />
    <glyph glyph-name="uniEA12" unicode="&#xea12;" vert-adv-y="2308" 
d="M515 1795q64 0 112 -48q48 -47 48 -114q0 -68 -48 -115q-48 -48 -115 -48t-114 48q-48 47 -48 114q0 69 48 115q48 48 117 48z" />
    <glyph glyph-name="uniEA13" unicode="&#xea13;" vert-adv-y="2308" 
d="M515 1853q81 0 141 -59q59 -60 59 -144t-59 -143q-60 -60 -144 -60t-143 60q-60 59 -60 142q0 86 60 145q61 59 146 59zM511 1749q-40 0 -70 -29q-29 -30 -29 -70q0 -41 29 -71q30 -29 71 -29t70 29q30 30 30 70q0 42 -30 71t-71 29z" />
    <glyph glyph-name="uniEA14" unicode="&#xea14;" vert-adv-y="2308" 
d="M372 1467l340 333h311l-416 -333h-235z" />
    <glyph glyph-name="uniEA15" unicode="&#xea15;" vert-adv-y="2308" 
d="M681 1467h-236l-415 333h310z" />
    <glyph glyph-name="uniEA16" unicode="&#xea16;" vert-adv-y="2308" 
d="M129 1489l282 288h202l282 -288h-238l-144 159l-143 -159h-241z" />
    <glyph glyph-name="uniEA17" unicode="&#xea17;" vert-adv-y="2308" 
d="M895 1777l-281 -288h-203l-282 288h239l144 -159l143 159h240z" />
    <glyph glyph-name="uniEA18" unicode="&#xea18;" vert-adv-y="2308" 
d="M211 1779h97q79 -144 204 -144q126 0 205 144h97q-14 -111 -70 -182q-87 -110 -231 -110q-147 0 -236 116q-54 72 -66 176z" />
    <glyph glyph-name="uniEA19" unicode="&#xea19;" vert-adv-y="2308" 
d="M276 1501l-117 29q63 217 202 217q47 0 153 -33q105 -32 136 -32q58 0 109 83l105 -27q-15 -70 -44 -119q-66 -108 -160 -108q-48 0 -153 32q-114 35 -138 35q-60 0 -93 -77z" />
    <glyph glyph-name="uniEA1A" unicode="&#xea1a;" vert-adv-y="2308" 
d="M190 1467l283 333h288l-381 -333h-190zM565 1467l284 333h287l-381 -333h-190z" />
    <glyph glyph-name="uniEA1B" unicode="&#xea1b;" vert-adv-y="2308" 
d="M396 0h159l-34 -105q88 -18 142 -61q76 -61 76 -161q0 -111 -84 -182q-70 -60 -166 -60q-104 0 -204 70v114q95 -49 159 -49q47 0 79 30q37 36 37 96q0 70 -52 108q-39 28 -96 28q-29 0 -71 -11z" />
    <glyph glyph-name="uniEA1C" unicode="&#xea1c;" vert-adv-y="2308" 
d="M726 0h203q-25 -18 -122 -85q-91 -63 -91 -136q0 -48 37 -72q25 -17 65 -17q49 0 101 23v-112q-74 -38 -149 -38q-115 0 -179 70q-54 59 -54 138q0 98 85 166q40 31 104 63z" />
    <glyph glyph-name="uniEA1D" unicode="&#xea1d;" vert-adv-y="2308" 
d="M188 1704h649v-153h-649v153z" />
    <glyph glyph-name="uniEA1E" unicode="&#xea1e;" horiz-adv-x="1794" vert-adv-y="2308" 
d="M155 1100v92q88 -1 137 37q43 34 60 106h115v-803h-167v568h-145zM1181 1331h201l-769 -1331h-201zM1297 581h-142q3 101 63 161q73 73 209 73q113 0 179 -53q73 -59 73 -160q0 -126 -125 -176q33 -9 58 -27q78 -54 78 -160q0 -115 -89 -187q-76 -61 -197 -61
q-170 0 -245 101q-45 59 -45 154h150q1 -116 136 -116q59 0 90 28q35 30 35 82q0 86 -94 102q-47 8 -134 8v131q23 -1 36 -1q180 0 180 110q0 40 -30 64q-28 23 -72 23q-99 0 -114 -96z" />
    <glyph glyph-name="uniEA1F" unicode="&#xea1f;" horiz-adv-x="1794" vert-adv-y="2308" 
d="M261 1101h-140q-2 97 48 158q74 91 218 91q119 0 193 -63q65 -56 65 -153q0 -75 -56 -153q-85 -121 -263 -301h325v-147h-544v128l16 18q194 210 269 299q84 100 84 153q0 32 -26 55q-27 24 -71 24q-107 0 -118 -109zM1181 1331h201l-769 -1331h-201zM1297 581h-142
q3 101 63 161q73 73 210 73q112 0 177 -53q74 -59 74 -160q0 -125 -125 -176q136 -39 136 -187q0 -115 -89 -187q-76 -61 -197 -61q-170 0 -245 101q-45 59 -45 154h150q1 -116 136 -116q58 0 90 28q35 30 35 82q0 86 -94 102q-47 8 -134 8v131q24 -1 36 -1q180 0 180 110
q0 40 -30 64q-28 23 -73 23q-98 0 -113 -96z" />
    <glyph glyph-name="uniEA21" unicode="&#xea21;" horiz-adv-x="1602" vert-adv-y="2308" 
d="M166 1628h254v-254h254v254h254v-254h254v254h254v-254h-254v-254h254v-254h-254v-254h254v-254h-254v-254h254v-254h-254v254h-254v254h254v254h-254v254h254v254h-254v254h-254v-254h254v-254h-254v-254h254v-254h-254v-254h254v-254h-254v254h-254v-254h-254v254h254
v254h-254v254h254v-254h254v254h-254v254h-254v254h254v-254h254v254h-254v254h-254v254z" />
    <glyph glyph-name="uniEA31" unicode="&#xea31;" vert-adv-y="2308" 
d="M704 1212h-89q-14 78 -85 78q-45 0 -73 -29q-40 -43 -40 -123q0 -67 32 -109q30 -39 82 -39q81 0 85 99h92q1 -6 1 -8q0 -57 -27 -100q-48 -75 -153 -75q-78 0 -133 42q-84 64 -84 189q0 126 79 191q56 46 136 46q101 0 148 -66q28 -39 29 -96zM516 1547q163 0 283 -119
q119 -119 119 -288q0 -168 -119 -288q-120 -119 -288 -119q-169 0 -289 119q-119 120 -119 287q0 172 119 289q123 119 294 119zM507 1451q-123 0 -213 -91q-91 -91 -91 -220t91 -221q90 -91 216 -91q127 0 217 91q91 92 91 220q0 132 -91 221q-92 91 -220 91z" />
    <glyph glyph-name="uniEA32" unicode="&#xea32;" vert-adv-y="2308" 
d="M370 1365h112q106 0 150 -21q70 -33 70 -120q0 -88 -81 -124l88 -185h-119l-73 168h-45v-168h-102v450zM472 1166h27q100 0 100 59q0 32 -28 47q-20 10 -90 10h-9v-116zM537 1547q163 0 283 -119q119 -119 119 -288q0 -168 -119 -288q-120 -119 -288 -119
q-169 0 -289 119q-119 120 -119 287q0 172 119 289q123 119 294 119zM528 1451q-123 0 -213 -91q-91 -91 -91 -220t91 -221q90 -91 216 -91q127 0 217 91q91 92 91 220q0 132 -91 221q-92 91 -220 91z" />
    <glyph glyph-name="uniEA3F" unicode="&#xea3f;" vert-adv-y="2308" 
d="M721 896h-116q42 52 72 120q25 62 28 116q-134 18 -134 124q0 58 43 98q41 38 99 38q67 0 109 -51q41 -51 41 -133q0 -141 -142 -312z" />
    <glyph glyph-name="uniEA4E" unicode="&#xea4e;" vert-adv-y="2308" 
d="M0 1635h1024v-227h-1024v227z" />
    <glyph glyph-name="Hochkomma" unicode="&#xea4f;" vert-adv-y="2308" 
d="M508 1597h116q-43 -53 -72 -120q-26 -62 -29 -116q135 -18 135 -124q0 -59 -43 -99q-41 -38 -99 -38q-67 0 -109 52q-41 50 -41 132q0 142 142 313z" />
    <glyph glyph-name="uniEA66" unicode="&#xea66;" vert-adv-y="2308" 
d="M516 -591h-112q41 51 69 116q25 61 28 113q-130 16 -130 121q0 56 42 95q39 37 96 37q65 0 105 -50q40 -49 40 -129q0 -136 -138 -303z" />
    <glyph glyph-name="uniEA67" unicode="&#xea67;" vert-adv-y="2308" 
d="M720 911h-112q41 51 69 116q25 61 28 112q-130 17 -130 121q0 56 42 95q39 37 96 37q65 0 105 -50q40 -49 40 -128q0 -136 -138 -303z" />
    <glyph glyph-name="uniEA68" unicode="&#xea68;" vert-adv-y="2308" 
d="M333 1774q58 0 100 -42t42 -101q0 -60 -42 -102t-101 -42q-60 0 -102 42t-42 101q0 61 42 102q43 42 103 42zM695 1774q58 0 100 -42t42 -101q0 -60 -42 -102t-101 -42t-102 42q-42 42 -42 101q0 61 42 102q43 42 103 42z" />
    <glyph glyph-name="Unterkomma" unicode="&#xea69;" vert-adv-y="2308" 
d="M516 -606h-116q43 53 72 120q25 62 28 116q-134 18 -134 124q0 59 43 99q41 38 100 38q66 0 108 -51q41 -51 41 -133q0 -142 -142 -313z" />
    <glyph glyph-name="uniEA6A" unicode="&#xea6a;" vert-adv-y="2308" 
d="M345 1395q53 0 93 -39q39 -39 39 -94q0 -56 -39 -95q-40 -39 -94 -39q-55 0 -95 39q-39 40 -39 94q0 57 39 95q41 39 96 39zM682 1395q53 0 93 -39q39 -39 39 -94t-39 -95q-40 -39 -94 -39q-55 0 -95 39q-39 40 -39 94q0 57 39 95q41 39 96 39z" />
    <glyph glyph-name="uniEA6B" unicode="&#xea6b;" horiz-adv-x="1228" vert-adv-y="2308" 
d="M1155 922h-226q-14 89 -57 149q-67 94 -197 94q-149 0 -236 -124q-93 -135 -93 -360q0 -216 87 -348t245 -132q236 0 260 306h235q-9 -195 -72 -309q-123 -224 -413 -224q-249 0 -413 156q-202 192 -202 545q0 381 218 575q159 141 384 141q153 0 267 -66
q196 -114 213 -403zM668 -591h-112q41 51 69 116q25 61 28 113q-130 16 -130 121q0 56 42 95q39 37 96 37q65 0 105 -50q40 -49 40 -129q0 -135 -138 -303z" />
    <glyph glyph-name="uniEA6C" unicode="&#xea6c;" horiz-adv-x="1017" vert-adv-y="2308" 
d="M942 651h-247q-23 147 -157 147q-88 0 -141 -67q-72 -91 -72 -247q0 -176 83 -261q47 -49 128 -49q147 0 169 172h244q-8 -151 -112 -259q-111 -115 -302 -115q-195 0 -323 127q-144 143 -144 386q0 171 77 301q127 214 395 214q207 0 320 -138q64 -78 82 -211zM533 -606
h-116q43 53 72 120q25 62 28 116q-134 18 -134 124q0 59 43 99q41 38 100 38q66 0 108 -51q41 -51 41 -133q0 -142 -142 -313z" />
    <glyph glyph-name="Scommaaccent" unicode="&#xea6d;" horiz-adv-x="1157" vert-adv-y="2308" 
d="M1047 965h-252q-6 76 -44 123q-61 77 -180 77q-77 0 -135 -37q-64 -42 -64 -112q0 -63 70 -102q39 -21 224 -96q183 -73 224 -96q117 -65 161 -158q35 -75 35 -169q0 -208 -154 -325q-125 -96 -334 -96q-322 0 -456 209q-69 107 -76 281h254q26 -263 280 -263
q97 0 159 41q59 40 59 105q0 78 -94 130q-37 20 -237 103q-213 89 -282 163q-95 102 -95 248q0 148 94 253q72 81 193 120q84 27 180 27q157 0 276 -72q134 -80 175 -224q14 -51 19 -130zM579 -591h-112q41 51 69 116q25 61 28 113q-130 16 -130 121q0 56 42 95q39 37 96 37
q65 0 105 -50q40 -49 40 -129q0 -136 -138 -303z" />
    <glyph glyph-name="scommaaccent" unicode="&#xea6e;" horiz-adv-x="993" vert-adv-y="2308" 
d="M898 678h-243q-18 134 -158 134q-53 0 -91 -25q-44 -28 -44 -76q0 -45 41 -69q31 -19 197 -68q130 -38 185 -69q120 -69 120 -220q0 -144 -101 -227q-102 -85 -295 -85q-302 0 -395 180q-37 72 -37 172h238q6 -81 40 -115q48 -47 145 -47q61 0 103 22q50 27 50 83
q0 33 -22 52t-87 41q-18 7 -163 51q-147 44 -200 97q-68 68 -68 175q0 139 103 227q107 90 287 90q246 0 346 -159q42 -67 49 -164zM502 -606h-116q43 53 72 120q25 62 28 116q-134 18 -134 124q0 59 43 99q41 38 100 38q66 0 108 -51q41 -51 41 -133q0 -142 -142 -313z" />
    <glyph glyph-name="peseta" unicode="&#xea71;" horiz-adv-x="1167" vert-adv-y="2308" 
d="M1066 1030h154v-153h-147q-10 -95 -59 -179q-70 -120 -205 -158q-90 -25 -223 -28q-74 -2 -127 -2h-82v-510h-263v877h-168v153h168v335h320q200 0 305 -19q272 -49 327 -316zM377 877v-143h83q174 -1 239 22q82 31 102 121h-424zM377 1030h411q-30 69 -116 95
q-59 16 -200 16h-95v-111z" />
    <glyph glyph-name="enonehalf" unicode="&#xea72;" horiz-adv-x="523" vert-adv-y="2308" 
d="M107 1172v64q62 1 95 26q30 23 41 72h81v-549h-117v387h-100zM-35 716h478v-100h-478v100zM136 387h-99q-1 67 34 110q50 62 149 62q83 0 134 -43q45 -39 45 -105q0 -51 -38 -105q-61 -85 -179 -203h221v-103h-375v89l11 13q130 139 184 203q58 67 58 103q0 22 -17 37
q-18 16 -49 16q-71 0 -79 -74z" />
    <glyph glyph-name="enonequarter" unicode="&#xea73;" horiz-adv-x="523" vert-adv-y="2308" 
d="M107 1172v64q62 1 95 26q30 23 41 72h81v-549h-117v387h-100zM23 716h478v-100h-478v100zM386 202h102v-91h-100v-118h-118v118h-234v88l218 349h132v-346zM277 202v215l-129 -215h129z" />
    <glyph glyph-name="enthreequarters" unicode="&#xea74;" horiz-adv-x="523" vert-adv-y="2308" 
d="M190 1183h-99q2 70 43 112q50 49 145 49q77 0 122 -36q51 -41 51 -109q0 -85 -83 -120q91 -28 91 -127q0 -79 -61 -128q-53 -42 -136 -42q-118 0 -169 69q-32 42 -31 107h105q0 -79 92 -79q85 0 85 73q0 58 -64 69q-33 5 -93 5v92l16 -1h11q120 0 120 74q0 27 -20 42
t-49 15q-65 0 -76 -65zM23 716h478v-100h-478v100zM386 202h102v-91h-100v-118h-118v118h-234v88l218 349h132v-346zM277 202v215l-129 -215h129z" />
    <glyph glyph-name="periodsuperior" unicode="&#xeab9;" horiz-adv-x="353" vert-adv-y="2308" 
d="M175 724q40 0 69 -29t29 -70t-29 -70t-70 -29t-70 29t-29 70q0 42 29 70q30 29 71 29z" />
    <glyph glyph-name="commasuperior" unicode="&#xeaba;" horiz-adv-x="353" vert-adv-y="2308" 
d="M129 257h-91q51 66 85 148q28 72 31 132q-93 13 -93 87q0 40 31 68q31 27 73 27q47 0 77 -36q30 -35 30 -98q0 -92 -56 -194q-32 -59 -87 -134z" />
    <glyph glyph-name="hp1089" unicode="&#xefed;" vert-adv-y="2308" 
d="M515 1795q64 0 112 -48q48 -47 48 -114q0 -68 -48 -115q-48 -48 -115 -48t-114 48q-48 47 -48 114q0 69 48 115q48 48 117 48z" />
    <glyph glyph-name="hp1087" unicode="&#xefee;" vert-adv-y="2308" 
d="M211 1779h97q79 -144 204 -144q126 0 205 144h97q-14 -111 -70 -182q-87 -110 -231 -110q-147 0 -236 116q-54 72 -66 176z" />
    <glyph glyph-name="hp1085" unicode="&#xefef;" vert-adv-y="2308" 
d="M188 1704h649v-153h-649v153z" />
    <glyph glyph-name="hp1045" unicode="&#xeff0;" vert-adv-y="2308" 
d="M190 1467l283 333h288l-381 -333h-190zM565 1467l284 333h287l-381 -333h-190z" />
    <glyph glyph-name="hp1030" unicode="&#xeff1;" vert-adv-y="2308" 
d="M726 0h203q-25 -18 -122 -85q-91 -63 -91 -136q0 -48 37 -72q25 -17 65 -17q49 0 101 23v-112q-74 -38 -149 -38q-115 0 -179 70q-54 59 -54 138q0 98 85 166q40 31 104 63z" />
    <glyph glyph-name="hp0330" unicode="&#xeff2;" vert-adv-y="2308" 
d="M396 0h159l-34 -105q88 -18 142 -61q76 -61 76 -161q0 -111 -84 -182q-70 -60 -166 -60q-104 0 -204 70v114q95 -49 159 -49q47 0 79 30q37 36 37 96q0 70 -52 108q-39 28 -96 28q-29 0 -71 -11z" />
    <glyph glyph-name="hp0323" unicode="&#xeff3;" vert-adv-y="2308" 
d="M515 1853q81 0 141 -59q59 -60 59 -144t-59 -143q-60 -60 -144 -60t-143 60q-60 59 -60 142q0 86 60 145q61 59 146 59zM511 1749q-40 0 -70 -29q-29 -30 -29 -70q0 -41 29 -71q30 -29 71 -29t70 29q30 30 30 70q0 42 -30 71t-71 29z" />
    <glyph glyph-name="hp0322" unicode="&#xeff4;" vert-adv-y="2308" 
d="M895 1777l-281 -288h-203l-282 288h239l144 -159l143 159h240z" />
    <glyph glyph-name="hp0321" unicode="&#xeff5;" vert-adv-y="2308" 
d="M276 1501l-117 29q63 217 202 217q47 0 153 -33q105 -32 136 -32q58 0 109 83l105 -27q-15 -70 -44 -119q-66 -108 -160 -108q-48 0 -153 32q-114 35 -138 35q-60 0 -93 -77z" />
    <glyph glyph-name="hp0320" unicode="&#xeff6;" vert-adv-y="2308" 
d="M324 1784q60 0 105 -44q44 -44 44 -107q0 -62 -44 -106q-45 -45 -107 -45t-107 45q-44 44 -44 106q0 64 44 107q46 44 109 44zM705 1784q60 0 105 -44q44 -44 44 -107q0 -62 -44 -107q-45 -44 -107 -44t-107 44q-44 45 -44 107q0 63 44 107q46 44 109 44z" />
    <glyph glyph-name="hp0319" unicode="&#xeff7;" vert-adv-y="2308" 
d="M129 1489l282 288h202l282 -288h-238l-144 159l-143 -159h-241z" />
    <glyph glyph-name="hp0318" unicode="&#xeff8;" vert-adv-y="2308" 
d="M681 1467h-236l-415 333h310z" />
    <glyph glyph-name="hp0317" unicode="&#xeff9;" vert-adv-y="2308" 
d="M372 1467l340 333h311l-416 -333h-235z" />
    <glyph glyph-name="ff" unicode="&#xfb00;" horiz-adv-x="1275" vert-adv-y="2308" 
d="M765 973v61q0 180 53 259q77 115 248 115q105 0 223 -46v-203q-106 32 -166 32q-75 0 -96 -66q-9 -31 -9 -127v-25h230v-197h-230v-776h-253v776h-350v-776h-253v776h-130v197h130v61q0 180 53 259q77 115 247 115q106 0 224 -46v-203q-107 32 -166 32q-76 0 -96 -63
q-9 -29 -9 -120v-35h350z" />
    <glyph glyph-name="ffi" unicode="&#xfb03;" horiz-adv-x="1759" vert-adv-y="2308" 
d="M765 973v61q0 180 53 259q77 115 248 115q105 0 223 -46v-203q-106 32 -166 32q-75 0 -96 -66q-9 -31 -9 -127v-25h230v-197h-230v-776h-253v776h-350v-776h-253v776h-130v197h130v61q0 180 53 259q77 115 247 115q106 0 224 -46v-203q-107 32 -166 32q-76 0 -96 -63
q-9 -29 -9 -120v-35h350zM1366 973h253v-973h-253v973zM1498 1392q62 0 101 -37q41 -39 41 -109q0 -69 -42 -109q-39 -38 -104 -38q-69 0 -108 40q-39 39 -39 103q0 72 44 112q43 38 107 38z" />
    <glyph glyph-name="ffl" unicode="&#xfb04;" horiz-adv-x="1760" vert-adv-y="2308" 
d="M765 973v61q0 180 53 259q77 115 248 115q105 0 223 -46v-203q-106 32 -166 32q-75 0 -96 -66q-9 -31 -9 -127v-25h230v-197h-230v-776h-253v776h-350v-776h-253v776h-130v197h130v61q0 180 53 259q77 115 247 115q106 0 224 -46v-203q-107 32 -166 32q-76 0 -96 -63
q-9 -29 -9 -120v-35h350zM1366 1374h253v-1374h-253v1374z" />
    <glyph glyph-name="glyph585" horiz-adv-x="512" vert-adv-y="2308" 
 />
    </font>
</defs>
</svg>
