<?xml version="1.0" standalone="no"?>
<!DOCTYPE svg PUBLIC "-//W3C//DTD SVG 1.1//EN" "http://www.w3.org/Graphics/SVG/1.1/DTD/svg11.dtd" >
<svg xmlns="http://www.w3.org/2000/svg" xmlns:xlink="http://www.w3.org/1999/xlink" version="1.1">
<metadata>
Created by FontForge 20161116 at Tue Apr 11 16:02:44 2000
 By Jimmy Wärting
Copyright 1998 by (URW)++ Design &#38; Development GmbH
</metadata>
<defs>
<font id="CorporateS-Demi" horiz-adv-x="1024" vert-adv-y="2048" >
  <font-face 
    font-family="CorpoSDem"
    font-weight="400"
    font-stretch="normal"
    units-per-em="2048"
    panose-1="0 0 0 0 0 0 0 0 0 0"
    ascent="1638"
    descent="-410"
    x-height="972"
    cap-height="1365"
    bbox="-356 -561 2048 1853"
    underline-thickness="183"
    underline-position="-298"
    unicode-range="U+0020-FB04"
  />
<missing-glyph horiz-adv-x="512" vert-adv-y="2308" 
d="M51 0v1365h410v-1365h-410zM410 51v1263h-308v-1263h308z" />
    <glyph glyph-name=".notdef" horiz-adv-x="512" vert-adv-y="2308" 
d="M51 0v1365h410v-1365h-410zM410 51v1263h-308v-1263h308z" />
    <glyph glyph-name="glyph1" horiz-adv-x="0" vert-adv-y="0" 
 />
    <glyph glyph-name="glyph2" horiz-adv-x="512" vert-adv-y="2308" 
 />
    <glyph glyph-name="space" unicode=" " horiz-adv-x="512" vert-adv-y="2308" 
 />
    <glyph glyph-name="exclam" unicode="!" horiz-adv-x="513" vert-adv-y="2308" 
d="M148 1335h217l-27 -914h-169zM257 259q56 0 97 -41q40 -41 40 -98t-41 -97q-41 -41 -98 -41t-98 41q-40 40 -40 97q0 58 40 98q42 41 100 41z" />
    <glyph glyph-name="quotedbl" unicode="&#x22;" horiz-adv-x="882" vert-adv-y="2308" 
d="M350 817h-130l-36 548h203zM662 817h-130l-36 548h203z" />
    <glyph glyph-name="numbersign" unicode="#" horiz-adv-x="1229" vert-adv-y="2308" 
d="M1138 563l-23 -143h-238l-66 -420h-166l67 420h-275l-67 -420h-165l66 420h-234l23 143h234l42 266h-233l22 143h233l63 393h165l-62 -393h274l63 393h166l-62 -393h238l-23 -143h-238l-42 -266h238zM776 829h-275l-42 -266h275z" />
    <glyph glyph-name="dollar" unicode="$" horiz-adv-x="1133" vert-adv-y="2308" 
d="M620 1207v-408q174 -60 244 -101q188 -110 188 -320q0 -147 -96 -255q-116 -132 -336 -146v-167h-105v167q-206 17 -315 126q-118 118 -118 322h200q10 -234 233 -269v460q-177 60 -237 96q-164 96 -164 295q0 150 96 252q109 115 305 130v145h105v-146q142 -13 244 -90
q136 -106 139 -284h-200q-19 161 -183 193zM515 1208q-198 -35 -198 -184q0 -92 82 -142q30 -18 116 -48v374zM620 153q82 8 135 43q88 58 88 161t-84 162q-34 24 -139 61v-427z" />
    <glyph glyph-name="percent" unicode="%" horiz-adv-x="1326" vert-adv-y="2308" 
d="M974 1365h173l-797 -1365h-172zM995 648q56 0 114 -31q82 -43 125 -138q34 -75 34 -160q0 -156 -95 -252q-77 -78 -180 -78q-115 0 -195 94q-80 95 -80 236q0 84 34 160q42 94 125 138q57 31 118 31zM992 525q-61 0 -99 -62q-36 -58 -36 -144q0 -95 41 -154
q38 -53 95 -53q62 0 100 62q36 57 36 145q0 95 -41 153q-38 53 -96 53zM335 1376q56 0 114 -31q82 -43 124 -138q34 -75 34 -160q0 -157 -95 -252q-77 -78 -180 -78q-114 0 -194 94q-80 95 -80 236q0 155 95 251q77 78 182 78zM331 1253q-60 0 -99 -62q-35 -56 -35 -144
q0 -96 41 -154q38 -53 94 -53q63 0 101 62q35 58 35 145q0 94 -41 153q-37 53 -96 53z" />
    <glyph glyph-name="ampersand" unicode="&#x26;" horiz-adv-x="1200" vert-adv-y="2308" 
d="M884 657h162q1 -38 1 -61q0 -167 -50 -278q-18 -38 -50 -83l175 -235h-216l-73 108q-60 -58 -118 -84q-89 -42 -211 -42q-177 0 -293 90q-140 109 -140 292q0 118 68 213q57 82 192 190q-66 86 -94 128q-54 83 -54 173q0 125 94 204q88 73 223 73q127 0 207 -67
q90 -77 90 -206q0 -124 -86 -224q-46 -53 -124 -116l254 -346q23 46 32 88q11 56 11 147v36zM480 858q145 116 145 221q0 55 -41 86q-34 27 -83 27q-53 0 -91 -31q-41 -33 -41 -85q0 -58 38 -118q19 -30 73 -100zM443 619q-64 -50 -97 -84q-85 -88 -85 -182q0 -86 64 -145
q68 -62 183 -62q133 0 220 94z" />
    <glyph glyph-name="quotesingle" unicode="'" horiz-adv-x="512" vert-adv-y="2308" 
d="M321 817h-130l-36 548h203z" />
    <glyph glyph-name="parenleft" unicode="(" horiz-adv-x="602" vert-adv-y="2308" 
d="M382 1377h153q-217 -333 -217 -886q0 -568 217 -901h-153q-248 335 -248 894q0 553 248 893z" />
    <glyph glyph-name="parenright" unicode=")" horiz-adv-x="604" vert-adv-y="2308" 
d="M221 -410h-154q218 330 218 886q0 569 -218 901h154q249 -337 249 -894q0 -554 -249 -893z" />
    <glyph glyph-name="asterisk" unicode="*" vert-adv-y="2308" 
d="M460 1084v247h105v-247l234 77l33 -100l-235 -76l145 -200l-85 -61l-145 200l-145 -200l-84 61l144 200l-234 76l32 100z" />
    <glyph glyph-name="plus" unicode="+" horiz-adv-x="1133" vert-adv-y="2308" 
d="M645 761h385v-152h-385v-399h-158v399h-384v152h384v399h158v-399z" />
    <glyph glyph-name="comma" unicode="," horiz-adv-x="502" vert-adv-y="2308" 
d="M187 -387h-130q68 82 120 195q47 108 54 195q-51 2 -80 20q-59 36 -59 106q0 60 44 100q42 38 100 38q65 0 107 -50q43 -50 43 -140q0 -132 -76 -274q-45 -83 -123 -190z" />
    <glyph glyph-name="hyphen" unicode="-" horiz-adv-x="547" vert-adv-y="2308" 
d="M0 591h547v-150h-547v150z" />
    <glyph glyph-name="period" unicode="." horiz-adv-x="518" vert-adv-y="2308" 
d="M260 259q56 0 97 -41q40 -41 40 -98t-41 -97q-41 -41 -98 -41t-98 41q-40 40 -40 97q0 58 40 98q42 41 100 41z" />
    <glyph glyph-name="slash" unicode="/" horiz-adv-x="1153" vert-adv-y="2308" 
d="M75 -354l836 1719h167l-835 -1719h-168z" />
    <glyph glyph-name="zero" unicode="0" horiz-adv-x="1133" vert-adv-y="2308" 
d="M573 1358q129 0 232 -75q117 -84 174 -257q51 -153 51 -357q0 -335 -137 -526q-117 -163 -326 -163q-210 0 -327 163q-137 192 -137 522q0 343 137 530q120 163 333 163zM563 1187q-108 0 -165 -99q-87 -152 -87 -419t87 -419q56 -99 169 -99q112 0 168 99q87 153 87 415
q0 274 -87 423q-58 99 -172 99z" />
    <glyph glyph-name="one" unicode="1" horiz-adv-x="1133" vert-adv-y="2308" 
d="M346 995v120q132 2 205 58q69 53 95 166h141v-1339h-205v995h-236z" />
    <glyph glyph-name="two" unicode="2" horiz-adv-x="1133" vert-adv-y="2308" 
d="M347 952h-178q1 163 76 261q112 145 331 145q175 0 281 -92q109 -93 109 -250q0 -116 -83 -244q-80 -126 -465 -585h562v-187h-826v164q27 35 162 197q269 324 347 436q93 131 93 215q0 74 -54 120q-53 46 -135 46q-128 0 -185 -98q-29 -50 -35 -128z" />
    <glyph glyph-name="three" unicode="3" horiz-adv-x="1133" vert-adv-y="2308" 
d="M362 984h-177q6 158 93 254q110 120 316 120q181 0 283 -98q101 -96 101 -247q0 -208 -209 -297q239 -75 239 -323q0 -131 -69 -235q-118 -178 -372 -178q-261 0 -375 168q-65 97 -64 242h185q2 -94 50 -153q64 -78 198 -78q113 0 176 61q65 62 65 170q0 151 -135 202
q-60 23 -193 23h-39v172q34 -3 52 -3q119 0 188 40q96 55 96 173q0 81 -53 132t-144 51q-183 0 -212 -196z" />
    <glyph glyph-name="four" unicode="4" horiz-adv-x="1133" vert-adv-y="2308" 
d="M824 467h237v-169h-232v-313h-207v313h-550v162l525 879h227v-872zM632 467v633l-365 -633h365z" />
    <glyph glyph-name="five" unicode="5" horiz-adv-x="1133" vert-adv-y="2308" 
d="M277 1331h642l-16 -183h-472l-55 -320q100 74 218 74q193 0 307 -137q98 -117 98 -298q0 -201 -124 -342q-128 -144 -326 -144q-219 0 -332 145q-74 94 -83 226h193q13 -81 55 -127q59 -65 159 -65q112 0 173 79q70 88 70 218q0 126 -67 207q-57 69 -156 69
q-132 0 -221 -125l-178 24z" />
    <glyph glyph-name="six" unicode="6" horiz-adv-x="1133" vert-adv-y="2308" 
d="M618 1356h225q-231 -266 -351 -468q57 21 121 21q170 0 281 -126q110 -124 110 -326q0 -229 -141 -365q-116 -112 -288 -112q-182 0 -304 120q-141 139 -141 356q0 255 201 549q90 133 287 351zM564 748q-89 0 -149 -65q-77 -85 -77 -230q0 -140 75 -226q62 -72 159 -72
q95 0 152 70q72 87 72 225q0 148 -77 233q-61 65 -155 65z" />
    <glyph glyph-name="seven" unicode="7" horiz-adv-x="1133" vert-adv-y="2308" 
d="M132 1331h870v-161l-640 -1170h-228l624 1136h-626v195z" />
    <glyph glyph-name="eight" unicode="8" horiz-adv-x="1133" vert-adv-y="2308" 
d="M312 702q-155 89 -155 276q0 178 137 288q115 92 272 92t272 -92q137 -110 137 -289q0 -185 -154 -275q185 -103 185 -316q0 -189 -141 -305q-123 -100 -299 -100q-175 0 -298 100q-141 116 -141 306q0 212 185 315zM564 1191q-81 0 -138 -52q-61 -57 -61 -154t61 -154
q56 -52 141 -52q84 0 140 52q61 57 61 153q0 99 -61 155q-58 52 -143 52zM564 614q-80 0 -145 -49q-84 -64 -84 -184q0 -121 84 -184q65 -49 148 -49t147 49q84 63 84 183q0 122 -84 185q-65 49 -150 49z" />
    <glyph glyph-name="nine" unicode="9" horiz-adv-x="1133" vert-adv-y="2308" 
d="M513 -25h-224q229 263 352 471q-54 -21 -120 -21q-167 0 -279 127q-112 126 -112 320q0 239 154 378q118 108 291 108q170 0 284 -104q145 -133 145 -373q0 -259 -202 -554q-99 -145 -289 -352zM568 1183q-90 0 -150 -66q-80 -88 -80 -235q0 -144 77 -230q59 -66 152 -66
t152 66q77 86 77 231q0 152 -76 236q-57 64 -152 64z" />
    <glyph glyph-name="colon" unicode=":" horiz-adv-x="518" vert-adv-y="2308" 
d="M260 259q56 0 97 -41q40 -41 40 -98t-41 -97q-41 -41 -98 -41t-98 41q-40 40 -40 97q0 58 40 98q42 41 100 41zM260 973q56 0 97 -41q40 -40 40 -98q0 -57 -41 -97q-41 -41 -98 -41t-98 41q-40 40 -40 97q0 58 40 98q42 41 100 41z" />
    <glyph glyph-name="semicolon" unicode=";" horiz-adv-x="502" vert-adv-y="2308" 
d="M236 973q56 0 97 -41q40 -40 40 -97q0 -58 -41 -99q-40 -40 -98 -40q-57 0 -98 41q-40 40 -40 97q0 58 40 98q42 41 100 41zM187 -387h-130q68 82 120 195q47 108 54 195q-51 2 -80 20q-59 36 -59 106q0 60 44 100q42 38 100 38q65 0 107 -50q43 -50 43 -140
q0 -132 -76 -274q-45 -83 -123 -190z" />
    <glyph glyph-name="less" unicode="&#x3c;" vert-adv-y="2308" 
d="M955 1211v-200l-673 -319l673 -318v-199l-887 432v172z" />
    <glyph glyph-name="equal" unicode="=" horiz-adv-x="1133" vert-adv-y="2308" 
d="M103 916h927v-154h-927v154zM103 607h927v-154h-927v154z" />
    <glyph glyph-name="greater" unicode="&#x3e;" vert-adv-y="2308" 
d="M69 174v201l673 317l-673 319v199l887 -432v-172z" />
    <glyph glyph-name="question" unicode="?" horiz-adv-x="849" vert-adv-y="2308" 
d="M415 259q56 0 97 -41q40 -41 40 -98t-41 -97q-41 -41 -98 -41t-98 41q-40 40 -40 97q0 58 40 98q42 41 100 41zM509 417h-190q0 135 3 185q6 68 41 122q22 37 91 110q75 79 95 114q28 48 28 95q0 63 -42 99q-37 32 -100 32q-156 0 -169 -179h-165q5 163 74 244
q99 115 284 115q152 0 238 -75q95 -82 95 -226q0 -98 -54 -177q-32 -47 -115 -133q-87 -91 -103 -140q-12 -36 -12 -121q0 -25 1 -65z" />
    <glyph glyph-name="at" unicode="@" horiz-adv-x="1502" vert-adv-y="2308" 
d="M994 1011h143l-80 -414q-13 -68 -13 -95q0 -46 24 -73q15 -16 37 -16q61 0 114 75q88 124 88 296q0 221 -150 354q-143 126 -370 126q-248 0 -409 -163q-169 -170 -169 -428q0 -250 157 -412q155 -159 440 -159q212 0 398 80l35 -128q-194 -80 -433 -80q-333 0 -531 189
q-101 96 -156 235q-53 132 -53 278q0 209 105 383q104 171 283 259q150 73 331 73q271 0 450 -155q102 -87 155 -213q47 -112 47 -238q0 -180 -89 -322q-106 -169 -249 -169q-76 0 -123 60q-22 28 -32 76q-93 -139 -248 -139q-133 0 -216 94q-81 92 -81 236q0 172 114 299
q102 114 245 114q150 0 215 -129zM777 890q-99 0 -162 -95q-52 -78 -52 -175q0 -79 36 -130q45 -62 128 -62q103 0 160 102q44 78 44 180q0 77 -35 124q-41 56 -119 56z" />
    <glyph glyph-name="A" unicode="A" horiz-adv-x="1198" vert-adv-y="2308" 
d="M495 1369h205l467 -1369h-219l-101 320h-497l-103 -320h-217zM791 502l-193 614l-193 -614h386z" />
    <glyph glyph-name="B" unicode="B" horiz-adv-x="1168" vert-adv-y="2308" 
d="M169 1365h312q227 0 325 -34q107 -36 163 -126q49 -78 49 -182q0 -140 -85 -219q-48 -45 -140 -73q298 -70 298 -343q0 -174 -116 -280q-96 -86 -275 -101q-77 -7 -248 -7h-283v1365zM377 798h120q152 0 219 33q93 45 93 168q0 126 -101 167q-61 25 -222 25h-109v-393z
M377 174h127q197 0 265 30q58 26 85 93q19 48 19 104q0 155 -127 202q-70 25 -239 25h-130v-454z" />
    <glyph glyph-name="C" unicode="C" horiz-adv-x="1230" vert-adv-y="2308" 
d="M1139 952h-187q-50 254 -282 254q-162 0 -257 -134q-103 -146 -103 -391q0 -247 107 -394q93 -128 257 -128q262 0 293 328h192q-11 -184 -79 -300q-124 -212 -399 -212q-247 0 -406 164q-187 192 -187 540q0 377 209 569q155 142 375 142q138 0 248 -60
q194 -105 219 -378z" />
    <glyph glyph-name="D" unicode="D" horiz-adv-x="1304" vert-adv-y="2308" 
d="M169 1365h277q166 0 272 -16q219 -34 351 -204q146 -190 146 -461q0 -280 -149 -470q-135 -174 -368 -202q-95 -12 -281 -12h-248v1365zM380 182h110q123 0 191 11q155 27 233 156q83 137 83 336q0 205 -92 340q-83 123 -236 148q-69 11 -230 11h-59v-1002z" />
    <glyph glyph-name="E" unicode="E" horiz-adv-x="1066" vert-adv-y="2308" 
d="M380 798h548v-182h-548v-434h615v-182h-826v1365h808v-181h-597v-386z" />
    <glyph glyph-name="F" unicode="F" horiz-adv-x="1031" vert-adv-y="2308" 
d="M380 798h548v-182h-548v-616h-211v1365h808v-181h-597v-386z" />
    <glyph glyph-name="G" unicode="G" horiz-adv-x="1295" vert-adv-y="2308" 
d="M721 692h456v-565q-216 -152 -479 -152q-269 0 -427 168q-183 195 -183 540q0 239 90 410q84 159 238 236q120 61 263 61q144 0 259 -62q196 -105 220 -373h-187q-46 251 -289 251q-166 0 -257 -117q-115 -146 -115 -407q0 -260 118 -406q95 -117 270 -117q156 0 299 89
v278h-276v166z" />
    <glyph glyph-name="H" unicode="H" horiz-adv-x="1350" vert-adv-y="2308" 
d="M380 800h589v565h211v-1365h-211v625h-589v-625h-211v1365h211v-565z" />
    <glyph glyph-name="I" unicode="I" horiz-adv-x="550" vert-adv-y="2308" 
d="M381 0h-213v1365h213v-1365z" />
    <glyph glyph-name="J" unicode="J" horiz-adv-x="641" vert-adv-y="2308" 
d="M264 1365h213v-1089q0 -156 -6 -220q-30 -287 -408 -287q-22 0 -69 2v178q103 -1 155 13q73 21 96 70q16 37 18 121q1 31 1 121v1091z" />
    <glyph glyph-name="K" unicode="K" horiz-adv-x="1214" vert-adv-y="2308" 
d="M909 1365h247l-532 -639l575 -726h-276l-540 720zM169 1365h211v-1365h-211v1365z" />
    <glyph glyph-name="L" unicode="L" horiz-adv-x="1016" vert-adv-y="2308" 
d="M169 1365h217v-1183h589v-182h-806v1365z" />
    <glyph glyph-name="M" unicode="M" horiz-adv-x="1619" vert-adv-y="2308" 
d="M169 1365h303l337 -1137l339 1137h301v-1365h-194v1133l-339 -1133h-216l-337 1133v-1133h-194v1365z" />
    <glyph glyph-name="N" unicode="N" horiz-adv-x="1368" vert-adv-y="2308" 
d="M169 1365h227l602 -1043v1043h200v-1365h-218l-610 1041v-1041h-201v1365z" />
    <glyph glyph-name="O" unicode="O" horiz-adv-x="1353" vert-adv-y="2308" 
d="M684 1390q235 0 398 -172q183 -193 183 -536q0 -341 -183 -535q-162 -172 -406 -172q-243 0 -405 172q-183 194 -183 533q0 344 183 538q162 172 413 172zM671 1208q-101 0 -183 -59q-98 -70 -144 -222q-34 -109 -34 -245q0 -242 106 -393q92 -132 260 -132
q169 0 261 132q106 151 106 391q0 249 -106 396q-95 132 -266 132z" />
    <glyph glyph-name="P" unicode="P" horiz-adv-x="1119" vert-adv-y="2308" 
d="M169 1365h275q267 0 383 -39q127 -42 193 -158q55 -98 55 -225q0 -183 -111 -293q-98 -97 -284 -112q-82 -6 -209 -6h-91v-532h-211v1365zM380 714h90q175 0 246 20q74 22 111 87q30 52 30 123q0 156 -114 207q-75 33 -275 33h-88v-470z" />
    <glyph glyph-name="Q" unicode="Q" horiz-adv-x="1384" vert-adv-y="2308" 
d="M1186 298l275 -306h-248l-136 150q-162 -167 -402 -167q-242 0 -404 173q-183 195 -183 535q0 339 183 534q162 173 406 173q243 0 405 -173q183 -195 183 -531q0 -208 -79 -388zM671 1208q-101 0 -183 -60q-96 -70 -143 -222q-35 -111 -35 -244q0 -239 107 -392
q92 -133 259 -133q168 0 260 133q107 155 107 390q0 244 -107 395q-95 133 -265 133z" />
    <glyph glyph-name="R" unicode="R" horiz-adv-x="1181" vert-adv-y="2308" 
d="M169 1365h294q169 0 260 -12q171 -24 264 -133q88 -105 88 -259q0 -270 -261 -375l336 -586h-249l-311 550h-210v-550h-211v1365zM380 732h95q180 0 248 25q68 24 103 84q31 53 31 122q0 135 -107 187q-54 27 -148 32q-38 2 -138 2h-84v-452z" />
    <glyph glyph-name="S" unicode="S" horiz-adv-x="1140" vert-adv-y="2308" 
d="M1009 987h-204q-7 87 -52 140q-66 79 -190 79q-88 0 -151 -44q-72 -50 -72 -133q0 -75 76 -121q46 -28 233 -107q159 -67 217 -101q183 -109 183 -319q0 -201 -152 -315q-122 -91 -317 -91q-287 0 -416 186q-73 105 -81 281h205q11 -128 70 -194q79 -89 226 -89
q108 0 179 53q69 51 69 134q0 88 -89 149q-48 33 -225 108q-208 89 -280 156q-110 101 -110 251q0 191 151 295q122 85 290 85q146 0 256 -66q126 -75 165 -211q15 -50 19 -126z" />
    <glyph glyph-name="T" unicode="T" horiz-adv-x="992" vert-adv-y="2308" 
d="M33 1365h927v-181h-359v-1184h-211v1184h-357v181z" />
    <glyph glyph-name="U" unicode="U" horiz-adv-x="1334" vert-adv-y="2308" 
d="M153 1365h211v-793q0 -104 4 -146q12 -144 95 -206q81 -61 204 -61q122 0 203 61q83 62 95 206q4 42 4 146v793h211v-796q0 -155 -10 -223q-22 -153 -132 -248q-142 -123 -371 -123q-230 0 -372 123q-109 94 -132 248q-10 67 -10 223v796z" />
    <glyph glyph-name="V" unicode="V" horiz-adv-x="1202" vert-adv-y="2308" 
d="M21 1365h226l356 -1123l354 1123h222l-472 -1369h-218z" />
    <glyph glyph-name="W" unicode="W" horiz-adv-x="1691" vert-adv-y="2308" 
d="M27 1365h199l262 -1111l268 1111h182l268 -1111l265 1111h194l-339 -1369h-236l-246 972l-243 -972h-235z" />
    <glyph glyph-name="X" unicode="X" horiz-adv-x="1157" vert-adv-y="2308" 
d="M60 1365h242l279 -470l282 470h242l-402 -653l425 -712h-241l-306 519l-311 -519h-240l427 712z" />
    <glyph glyph-name="Y" unicode="Y" horiz-adv-x="1103" vert-adv-y="2308" 
d="M11 1365h239l305 -588l301 588h236l-435 -811v-554h-210v554z" />
    <glyph glyph-name="Z" unicode="Z" horiz-adv-x="1018" vert-adv-y="2308" 
d="M107 1365h860v-148l-664 -1035h647v-182h-896v165l657 1021h-604v179z" />
    <glyph glyph-name="bracketleft" unicode="[" horiz-adv-x="602" vert-adv-y="2308" 
d="M169 1365h362v-161h-184v-1440h184v-162h-362v1763z" />
    <glyph glyph-name="backslash" unicode="\" horiz-adv-x="1153" vert-adv-y="2308" 
d="M1078 -354h-168l-835 1719h167z" />
    <glyph glyph-name="bracketright" unicode="]" horiz-adv-x="602" vert-adv-y="2308" 
d="M433 -398h-362v161h184v1440h-184v162h362v-1763z" />
    <glyph glyph-name="asciicircum" unicode="^" vert-adv-y="2308" 
d="M246 720h-213l347 651h265l347 -651h-214l-266 491z" />
    <glyph glyph-name="underscore" unicode="_" vert-adv-y="2308" 
d="M0 -116h1024v-183h-1024v183z" />
    <glyph glyph-name="grave" unicode="`" vert-adv-y="2308" 
d="M670 1106h-157l-342 309h261z" />
    <glyph glyph-name="a" unicode="a" horiz-adv-x="1014" vert-adv-y="2308" 
d="M318 698h-194q16 136 98 206q106 90 298 90q164 0 258 -70q74 -55 89 -175q6 -48 6 -136v-379q-1 -166 30 -234h-186q-15 56 -17 120q-79 -142 -278 -142q-139 0 -228 63q-104 75 -104 214q0 208 223 292q106 40 365 85v27q0 85 -28 120q-42 52 -142 52q-165 0 -190 -133
zM678 493q-212 -32 -287 -74q-95 -53 -95 -141q0 -59 43 -99q46 -42 123 -42q132 0 187 102q29 53 29 179v75z" />
    <glyph glyph-name="b" unicode="b" horiz-adv-x="1085" vert-adv-y="2308" 
d="M145 1373h201v-533q44 63 86 94q79 60 185 60q142 0 244 -102q144 -145 144 -404q0 -263 -152 -408q-107 -102 -258 -102q-176 0 -264 156q-1 -77 -18 -134h-179q12 71 11 265v1108zM575 823q-100 0 -163 -87q-67 -93 -67 -253q0 -162 73 -259q56 -75 152 -75
q92 0 147 66q82 99 82 274q0 164 -68 257q-56 77 -156 77z" />
    <glyph glyph-name="c" unicode="c" horiz-adv-x="987" vert-adv-y="2308" 
d="M900 651h-198q-13 78 -44 121q-45 63 -139 63q-100 0 -158 -78q-76 -103 -76 -274q0 -198 96 -294q51 -52 140 -52q112 0 160 91q20 39 30 112h196q-10 -150 -99 -252q-102 -115 -287 -115q-179 0 -299 117q-143 142 -143 394q0 269 161 415q111 100 283 100
q201 0 305 -142q57 -78 72 -206z" />
    <glyph glyph-name="d" unicode="d" horiz-adv-x="1084" vert-adv-y="2308" 
d="M938 1373v-1075q1 -142 4 -201q3 -47 14 -97h-190q-12 52 -12 95q0 12 2 42q-38 -65 -79 -97q-77 -62 -195 -62q-160 0 -265 107q-138 141 -138 392q0 268 153 418q100 99 242 99q111 0 185 -55q34 -26 78 -88v522h201zM512 823q-93 0 -148 -68q-79 -100 -79 -273
q0 -164 74 -262q53 -71 151 -71q95 0 150 66q81 98 81 270q0 167 -69 262q-56 76 -160 76z" />
    <glyph glyph-name="e" unicode="e" horiz-adv-x="1026" vert-adv-y="2308" 
d="M946 442h-664q5 -127 54 -202q67 -102 203 -102q143 0 206 128l181 -13q-31 -104 -100 -172q-109 -108 -292 -108q-170 0 -288 96q-167 137 -167 404q0 185 77 318q67 116 184 169q85 39 186 39q206 0 322 -158q99 -135 99 -351q0 -16 -1 -48zM741 592q-29 246 -219 246
q-186 0 -234 -246h453z" />
    <glyph glyph-name="f" unicode="f" horiz-adv-x="630" vert-adv-y="2308" 
d="M369 972h235v-159h-233v-813h-205v813h-133v159h133v61q0 180 47 254q73 114 234 114q89 0 191 -39v-170q-96 34 -155 34q-79 0 -103 -72q-11 -34 -11 -138v-44z" />
    <glyph glyph-name="g" unicode="g" horiz-adv-x="1040" vert-adv-y="2308" 
d="M999 972v-146h-199q19 -19 34 -52q32 -69 32 -143q0 -113 -63 -185q-53 -60 -169 -90q-45 -11 -194 -33q-60 -9 -90 -41q-12 -12 -12 -29q0 -25 30 -38q23 -10 175 -25q226 -22 304 -63q57 -30 89 -83q39 -64 39 -144q0 -158 -138 -242q-119 -72 -324 -72q-229 0 -355 87
q-109 74 -109 196q0 163 200 233q-107 43 -107 116q0 62 67 105q40 25 106 51q-179 82 -179 278q0 157 109 250q103 88 273 88q79 0 171 -26zM503 835q-84 0 -137 -53q-50 -50 -50 -128q0 -73 47 -119q52 -51 139 -51q90 0 141 51q47 46 47 119q0 76 -47 127q-51 54 -140 54
zM486 28q-109 0 -179 -31q-82 -37 -82 -112q0 -73 86 -110q84 -36 205 -36q134 0 208 47q57 37 57 96q0 146 -295 146z" />
    <glyph glyph-name="h" unicode="h" horiz-adv-x="1086" vert-adv-y="2308" 
d="M145 1373h201v-512q108 133 279 133q103 0 186 -48q97 -57 123 -175q13 -59 13 -211v-560h-201v526q0 146 -26 200q-45 90 -155 90q-123 0 -184 -108q-35 -64 -35 -193v-515h-201v1373z" />
    <glyph glyph-name="i" unicode="i" horiz-adv-x="495" vert-adv-y="2308" 
d="M145 972h205v-972h-205v972zM252 1388q51 0 85 -31q38 -35 38 -97q0 -56 -34 -90q-36 -36 -93 -36t-92 35q-35 34 -35 89q0 62 39 97q37 33 92 33z" />
    <glyph glyph-name="j" unicode="j" horiz-adv-x="537" vert-adv-y="2308" 
d="M191 972h205v-858q0 -161 -13 -225q-30 -149 -158 -220q-87 -48 -247 -48q-16 0 -48 1v174q22 -1 34 -1q160 0 204 87q19 39 22 112q0 22 1 119v859zM298 1387q51 0 84 -31q38 -35 38 -96q0 -56 -34 -91q-35 -35 -93 -35q-57 0 -92 34q-34 35 -34 90q0 61 39 96
q36 33 92 33z" />
    <glyph glyph-name="k" unicode="k" horiz-adv-x="1046" vert-adv-y="2308" 
d="M731 972h243l-384 -445l415 -527h-272l-383 523zM145 1373h201v-1373h-201v1373z" />
    <glyph glyph-name="l" unicode="l" horiz-adv-x="495" vert-adv-y="2308" 
d="M145 1373h205v-1373h-205v1373z" />
    <glyph glyph-name="m" unicode="m" horiz-adv-x="1642" vert-adv-y="2308" 
d="M120 972h196q18 -52 19 -131q101 153 289 153q194 0 274 -162q112 162 308 162q194 0 263 -135q27 -55 33 -144q1 -20 1 -135v-580h-201v577q0 128 -25 171q-41 68 -147 68q-206 0 -206 -255v-561h-201v556q0 143 -20 182q-39 78 -149 78q-78 0 -134 -44
q-74 -57 -74 -220v-552h-201v709q0 131 -6 180q-5 43 -19 83z" />
    <glyph glyph-name="n" unicode="n" horiz-adv-x="1080" vert-adv-y="2308" 
d="M118 972h194q19 -51 20 -132q104 154 293 154q114 0 196 -57q98 -70 114 -203q6 -49 6 -174v-560h-201v526q0 150 -24 202q-41 88 -151 88q-125 0 -185 -106q-35 -61 -35 -191v-519h-201v632q0 184 -6 241q-4 36 -20 99z" />
    <glyph glyph-name="o" unicode="o" horiz-adv-x="1066" vert-adv-y="2308" 
d="M538 999q173 0 298 -120q71 -67 108 -164q43 -109 43 -230q0 -171 -77 -301q-69 -115 -190 -170q-89 -41 -187 -41q-178 0 -303 119q-71 67 -108 163q-43 109 -43 229q0 172 77 302q69 116 190 172q89 41 192 41zM530 835q-105 0 -170 -89q-75 -101 -75 -261
q0 -158 75 -259q65 -88 173 -88q109 0 173 88q75 101 75 257q0 163 -75 263q-66 89 -176 89z" />
    <glyph glyph-name="p" unicode="p" horiz-adv-x="1084" vert-adv-y="2308" 
d="M145 -403v1075q-2 225 -18 300h190q18 -47 18 -128q97 150 270 150q150 0 251 -98q148 -145 148 -407q0 -272 -156 -419q-97 -92 -234 -92q-110 0 -190 59q-37 28 -78 82v-522h-201zM573 823q-92 0 -150 -69q-81 -98 -81 -272q0 -165 76 -257q64 -76 161 -76q91 0 142 65
q77 98 77 269q0 175 -77 274q-52 66 -148 66z" />
    <glyph glyph-name="q" unicode="q" horiz-adv-x="1084" vert-adv-y="2308" 
d="M737 -403v520q-42 -58 -78 -84q-73 -55 -176 -55q-144 0 -247 93q-157 141 -157 408q0 270 149 415q104 100 257 100q179 0 263 -149q1 83 17 127h191q-11 -50 -14 -98q-3 -61 -4 -202v-1075h-201zM508 823q-89 0 -143 -67q-80 -99 -80 -274q0 -172 79 -266
q56 -67 150 -67q100 0 159 81q68 94 68 252q0 174 -81 272q-56 69 -152 69z" />
    <glyph glyph-name="r" unicode="r" horiz-adv-x="723" vert-adv-y="2308" 
d="M132 972h192q15 -74 15 -151q0 -19 -2 -55q105 228 265 228q41 0 97 -20v-203q-78 43 -142 43q-119 0 -175 -132q-35 -82 -35 -238v-444h-202v656q-1 231 -13 316z" />
    <glyph glyph-name="s" unicode="s" horiz-adv-x="949" vert-adv-y="2308" 
d="M849 689h-194q-9 70 -39 103q-45 51 -137 51q-68 0 -115 -34q-45 -34 -45 -89q0 -52 42 -80q38 -25 190 -70q137 -40 191 -71q119 -68 119 -218q0 -139 -94 -221q-99 -87 -282 -87q-281 0 -368 179q-33 66 -33 161h191q7 -83 41 -122q55 -61 164 -61q73 0 122 31
q56 35 56 105q0 60 -64 93q-36 19 -212 72q-146 44 -200 100q-64 67 -64 170q0 135 103 218q100 80 261 80q223 0 317 -142q44 -66 50 -168z" />
    <glyph glyph-name="t" unicode="t" horiz-adv-x="691" vert-adv-y="2308" 
d="M403 972h214l-3 -159h-214l-7 -430q-1 -40 -1 -81q0 -88 20 -113q27 -32 82 -32q67 0 145 32l-3 -170q-101 -39 -197 -39q-157 0 -220 104q-34 55 -34 172q0 35 3 127l12 430h-149l3 159h152l7 280h195z" />
    <glyph glyph-name="u" unicode="u" horiz-adv-x="1082" vert-adv-y="2308" 
d="M139 972h201v-573q0 -129 34 -176q47 -67 149 -67q121 0 178 99q35 61 35 183v534h201v-674q0 -118 1 -156q3 -76 23 -142h-193q-17 46 -20 120q-91 -142 -267 -142q-121 0 -207 59q-99 68 -123 190q-12 65 -12 165v580z" />
    <glyph glyph-name="v" unicode="v" horiz-adv-x="961" vert-adv-y="2308" 
d="M21 972h212l246 -752l247 752h210l-345 -980h-225z" />
    <glyph glyph-name="w" unicode="w" horiz-adv-x="1450" vert-adv-y="2308" 
d="M29 972h204l194 -726l214 726h166l213 -726l196 726h203l-287 -980h-209l-202 666l-200 -666h-209z" />
    <glyph glyph-name="x" unicode="x" horiz-adv-x="969" vert-adv-y="2308" 
d="M56 972h239l190 -307l193 307h241l-310 -454l353 -518h-244l-233 359l-235 -359h-243l356 518z" />
    <glyph glyph-name="y" unicode="y" horiz-adv-x="964" vert-adv-y="2308" 
d="M33 972h214l238 -773l247 773h210l-325 -925q-56 -162 -79 -208q-71 -150 -192 -206q-94 -43 -221 -43q-23 0 -69 2v176q26 -1 38 -1q113 0 173 37q58 36 106 168z" />
    <glyph glyph-name="z" unicode="z" horiz-adv-x="843" vert-adv-y="2308" 
d="M93 972h700v-150l-510 -656h509v-166h-746v155l503 651h-456v166z" />
    <glyph glyph-name="braceleft" unicode="{" horiz-adv-x="602" vert-adv-y="2308" 
d="M264 483q70 -45 92 -91q27 -58 28 -167v-289q0 -109 19 -141q29 -47 148 -47h27v-155q-37 -2 -62 -2q-79 0 -139 13q-121 27 -154 148q-17 59 -17 160v320q0 100 -30 136q-34 41 -84 50v131q49 9 84 50q30 36 30 136v320q0 101 17 160q22 79 90 121q64 40 206 40
q17 0 59 -2v-155h-28q-125 0 -151 -55q-15 -31 -15 -133v-289q-1 -109 -28 -167q-22 -46 -92 -92z" />
    <glyph glyph-name="bar" unicode="|" vert-adv-y="2308" 
d="M411 1365h201v-1706h-201v1706z" />
    <glyph glyph-name="braceright" unicode="}" horiz-adv-x="602" vert-adv-y="2308" 
d="M338 483q-70 46 -92 92q-27 58 -28 167v289q0 109 -19 141q-28 47 -146 47h-29v155q40 2 61 2q80 0 140 -13q82 -19 128 -89q43 -66 43 -219v-320q0 -100 30 -136q35 -41 84 -50v-131q-49 -9 -84 -50q-30 -36 -30 -136v-320q0 -101 -17 -160q-22 -79 -90 -121
q-64 -40 -206 -40q-14 0 -59 2v156q19 -1 29 -1q124 0 150 55q15 32 15 133v289q1 109 28 167q22 46 92 91z" />
    <glyph glyph-name="asciitilde" unicode="~" horiz-adv-x="1365" vert-adv-y="2308" 
d="M302 1172l-114 74q49 103 75 139q84 119 218 119q76 0 223 -63q96 -41 127 -49q37 -9 62 -9q66 0 111 45q24 25 57 80l117 -69q-65 -134 -130 -185q-82 -64 -180 -64q-65 0 -292 94q-64 26 -111 26q-63 0 -109 -53q-24 -28 -54 -85z" />
    <glyph glyph-name="Adieresis" unicode="&#xc4;" horiz-adv-x="1198" vert-adv-y="2308" 
d="M495 1369h205l467 -1369h-219l-101 320h-497l-103 -320h-217zM791 502l-193 614l-193 -614h386zM414 1775q54 0 93 -40q40 -39 40 -95t-40 -95q-39 -40 -95 -40q-55 0 -95 40q-40 39 -40 95q0 57 40 95q40 40 97 40zM788 1775q53 0 93 -40q40 -39 40 -95t-40 -95
q-40 -40 -95 -40t-95 40q-40 39 -40 95q0 57 40 95q40 40 97 40z" />
    <glyph glyph-name="Aring" unicode="&#xc5;" horiz-adv-x="1198" vert-adv-y="2308" 
d="M495 1369h205l467 -1369h-219l-101 320h-497l-103 -320h-217zM791 502l-193 614l-193 -614h386zM601 1853q79 0 136 -58q58 -57 58 -139q0 -80 -58 -138q-57 -58 -139 -58q-81 0 -138 58q-58 58 -58 138q0 83 58 139q59 58 141 58zM597 1757q-40 0 -69 -29
q-30 -30 -30 -71q0 -42 30 -71q30 -30 70 -30q41 0 71 30q30 29 30 70q0 43 -30 72t-72 29z" />
    <glyph glyph-name="Ccedilla" unicode="&#xc7;" horiz-adv-x="1230" vert-adv-y="2308" 
d="M692 -25l-33 -94q82 -13 131 -49q76 -55 76 -151q0 -99 -75 -162q-65 -54 -158 -54q-78 0 -185 55v101q90 -39 135 -39q50 0 81 26q40 33 40 91q0 74 -64 103q-35 15 -79 15q-19 0 -57 -5l58 175q-116 18 -230 103q-245 183 -245 591q0 264 104 438q95 159 263 228
q105 43 219 43q136 0 247 -60q194 -104 218 -378h-187q-49 254 -281 254q-157 0 -250 -123q-111 -148 -111 -403q0 -245 107 -393q93 -128 256 -128q263 0 294 328h193q-12 -238 -126 -365q-129 -145 -341 -147z" />
    <glyph glyph-name="Eacute" unicode="&#xc9;" horiz-adv-x="1066" vert-adv-y="2308" 
d="M380 798h548v-182h-548v-434h615v-182h-826v1365h808v-181h-597v-386zM394 1486l314 308h261l-380 -308h-195z" />
    <glyph glyph-name="Ntilde" unicode="&#xd1;" horiz-adv-x="1368" vert-adv-y="2308" 
d="M169 1365h227l602 -1043v1043h200v-1365h-218l-610 1041v-1041h-201v1365zM456 1510l-104 31q57 208 197 208q51 0 151 -42q107 -44 141 -44q62 0 103 100l95 -30q-13 -73 -45 -122q-60 -95 -151 -95q-45 0 -161 47q-96 40 -132 40q-67 0 -94 -93z" />
    <glyph glyph-name="Odieresis" unicode="&#xd6;" horiz-adv-x="1353" vert-adv-y="2308" 
d="M684 1390q235 0 398 -172q183 -193 183 -536q0 -341 -183 -535q-162 -172 -406 -172q-243 0 -405 172q-183 194 -183 533q0 344 183 538q162 172 413 172zM671 1208q-101 0 -183 -59q-98 -70 -144 -222q-34 -109 -34 -245q0 -242 106 -393q92 -132 260 -132
q169 0 261 132q106 151 106 391q0 249 -106 396q-95 132 -266 132zM492 1775q54 0 93 -40q40 -39 40 -95t-40 -95q-39 -40 -95 -40q-55 0 -95 40q-40 39 -40 95q0 57 40 95q40 40 97 40zM866 1775q53 0 93 -40q40 -39 40 -95t-40 -95q-40 -40 -95 -40t-95 40q-40 39 -40 95
q0 57 40 95q40 40 97 40z" />
    <glyph glyph-name="Udieresis" unicode="&#xdc;" horiz-adv-x="1334" vert-adv-y="2308" 
d="M153 1365h211v-793q0 -104 4 -146q12 -144 95 -206q81 -61 204 -61q122 0 203 61q83 62 95 206q4 42 4 146v793h211v-796q0 -155 -10 -223q-22 -153 -132 -248q-142 -123 -371 -123q-230 0 -372 123q-109 94 -132 248q-10 67 -10 223v796zM482 1775q54 0 93 -40
q40 -39 40 -95t-40 -95q-39 -40 -95 -40q-55 0 -95 40q-40 39 -40 95q0 57 40 95q40 40 97 40zM856 1775q53 0 93 -40q40 -39 40 -95t-40 -95q-40 -40 -95 -40t-95 40q-40 39 -40 95q0 57 40 95q40 40 97 40z" />
    <glyph glyph-name="aacute" unicode="&#xe1;" horiz-adv-x="1014" vert-adv-y="2308" 
d="M318 698h-194q16 136 98 206q106 90 298 90q164 0 258 -70q74 -55 89 -175q6 -48 6 -136v-379q-1 -166 30 -234h-186q-15 56 -17 120q-79 -142 -278 -142q-139 0 -228 63q-104 75 -104 214q0 208 223 292q106 40 365 85v27q0 85 -28 120q-42 52 -142 52q-165 0 -190 -133
zM678 493q-212 -32 -287 -74q-95 -53 -95 -141q0 -59 43 -99q46 -42 123 -42q132 0 187 102q29 53 29 179v75zM357 1106l238 309h261l-342 -309h-157z" />
    <glyph glyph-name="agrave" unicode="&#xe0;" horiz-adv-x="1014" vert-adv-y="2308" 
d="M318 698h-194q16 136 98 206q106 90 298 90q164 0 258 -70q74 -55 89 -175q6 -48 6 -136v-379q-1 -166 30 -234h-186q-15 56 -17 120q-79 -142 -278 -142q-139 0 -228 63q-104 75 -104 214q0 208 223 292q106 40 365 85v27q0 85 -28 120q-42 52 -142 52q-165 0 -190 -133
zM678 493q-212 -32 -287 -74q-95 -53 -95 -141q0 -59 43 -99q46 -42 123 -42q132 0 187 102q29 53 29 179v75zM666 1106h-157l-342 309h261z" />
    <glyph glyph-name="acircumflex" unicode="&#xe2;" horiz-adv-x="1014" vert-adv-y="2308" 
d="M318 698h-194q16 136 98 206q106 90 298 90q164 0 258 -70q74 -55 89 -175q6 -48 6 -136v-379q-1 -166 30 -234h-186q-15 56 -17 120q-79 -142 -278 -142q-139 0 -228 63q-104 75 -104 214q0 208 223 292q106 40 365 85v27q0 85 -28 120q-42 52 -142 52q-165 0 -190 -133
zM678 493q-212 -32 -287 -74q-95 -53 -95 -141q0 -59 43 -99q46 -42 123 -42q132 0 187 102q29 53 29 179v75zM174 1115l240 300h185l240 -300h-185l-147 184l-146 -184h-187z" />
    <glyph glyph-name="adieresis" unicode="&#xe4;" horiz-adv-x="1014" vert-adv-y="2308" 
d="M318 698h-194q16 136 98 206q106 90 298 90q164 0 258 -70q74 -55 89 -175q6 -48 6 -136v-379q-1 -166 30 -234h-186q-15 56 -17 120q-79 -142 -278 -142q-139 0 -228 63q-104 75 -104 214q0 208 223 292q106 40 365 85v27q0 85 -28 120q-42 52 -142 52q-165 0 -190 -133
zM678 493q-212 -32 -287 -74q-95 -53 -95 -141q0 -59 43 -99q46 -42 123 -42q132 0 187 102q29 53 29 179v75zM328 1391q50 0 86 -37q37 -36 37 -87q0 -52 -37 -88q-36 -37 -87 -37t-88 37q-37 36 -37 87q0 53 37 88q37 37 89 37zM681 1391q50 0 86 -37q37 -36 37 -87
t-37 -88q-36 -37 -88 -37q-50 0 -87 37t-37 87q0 52 37 88q37 37 89 37z" />
    <glyph glyph-name="atilde" unicode="&#xe3;" horiz-adv-x="1014" vert-adv-y="2308" 
d="M318 698h-194q16 136 98 206q106 90 298 90q164 0 258 -70q74 -55 89 -175q6 -48 6 -136v-379q-1 -166 30 -234h-186q-15 56 -17 120q-79 -142 -278 -142q-139 0 -228 63q-104 75 -104 214q0 208 223 292q106 40 365 85v27q0 85 -28 120q-42 52 -142 52q-165 0 -190 -133
zM678 493q-212 -32 -287 -74q-95 -53 -95 -141q0 -59 43 -99q46 -42 123 -42q132 0 187 102q29 53 29 179v75zM292 1137l-95 24q50 215 178 215q51 0 138 -42q92 -44 124 -44q58 0 95 100l89 -24q-15 -91 -54 -149q-50 -75 -121 -75q-49 0 -145 44t-123 44q-60 0 -86 -93z
" />
    <glyph glyph-name="aring" unicode="&#xe5;" horiz-adv-x="1014" vert-adv-y="2308" 
d="M318 698h-194q16 136 98 206q106 90 298 90q164 0 258 -70q74 -55 89 -175q6 -48 6 -136v-379q-1 -166 30 -234h-186q-15 56 -17 120q-79 -142 -278 -142q-139 0 -228 63q-104 75 -104 214q0 208 223 292q106 40 365 85v27q0 85 -28 120q-42 52 -142 52q-165 0 -190 -133
zM678 493q-212 -32 -287 -74q-95 -53 -95 -141q0 -59 43 -99q46 -42 123 -42q132 0 187 102q29 53 29 179v75zM510 1476q79 0 136 -58q58 -57 58 -139q0 -81 -58 -138q-57 -58 -139 -58q-81 0 -138 58q-58 57 -58 138q0 83 58 139q59 58 141 58zM506 1380q-40 0 -69 -29
q-30 -30 -30 -71q0 -42 30 -71q29 -30 71 -30q41 0 70 30q30 29 30 70q0 43 -30 72t-72 29z" />
    <glyph glyph-name="ccedilla" unicode="&#xe7;" horiz-adv-x="987" vert-adv-y="2308" 
d="M518 -27l-28 -74q182 -33 182 -174q0 -88 -67 -143q-56 -47 -138 -47q-74 0 -165 48v89q85 -34 121 -34q45 0 72 22q35 29 35 80q0 64 -56 91q-31 14 -73 14q-17 0 -48 -3l56 146q-118 33 -187 103q-143 146 -143 393q0 269 161 415q111 100 283 100q201 0 305 -142
q57 -78 72 -206h-198q-12 78 -43 121q-45 63 -140 63q-100 0 -158 -78q-76 -102 -76 -273q0 -199 96 -294q51 -52 140 -52q165 0 190 202h197q-5 -92 -46 -173q-99 -193 -344 -194z" />
    <glyph glyph-name="eacute" unicode="&#xe9;" horiz-adv-x="1026" vert-adv-y="2308" 
d="M946 442h-664q5 -127 54 -202q67 -102 203 -102q143 0 206 128l181 -13q-31 -104 -100 -172q-109 -108 -292 -108q-170 0 -288 96q-167 137 -167 404q0 185 77 318q67 116 184 169q85 39 186 39q206 0 322 -158q99 -135 99 -351q0 -16 -1 -48zM741 592q-29 246 -219 246
q-186 0 -234 -246h453zM384 1106l238 309h261l-342 -309h-157z" />
    <glyph glyph-name="egrave" unicode="&#xe8;" horiz-adv-x="1026" vert-adv-y="2308" 
d="M946 442h-664q5 -127 54 -202q67 -102 203 -102q143 0 206 128l181 -13q-31 -104 -100 -172q-109 -108 -292 -108q-170 0 -288 96q-167 137 -167 404q0 185 77 318q67 116 184 169q85 39 186 39q206 0 322 -158q99 -135 99 -351q0 -16 -1 -48zM741 592q-29 246 -219 246
q-186 0 -234 -246h453zM682 1106h-157l-342 309h261z" />
    <glyph glyph-name="ecircumflex" unicode="&#xea;" horiz-adv-x="1026" vert-adv-y="2308" 
d="M946 442h-664q5 -127 54 -202q67 -102 203 -102q143 0 206 128l181 -13q-31 -104 -100 -172q-109 -108 -292 -108q-170 0 -288 96q-167 137 -167 404q0 185 77 318q67 116 184 169q85 39 186 39q206 0 322 -158q99 -135 99 -351q0 -16 -1 -48zM741 592q-29 246 -219 246
q-186 0 -234 -246h453zM200 1115l240 300h185l240 -300h-185l-147 184l-146 -184h-187z" />
    <glyph glyph-name="edieresis" unicode="&#xeb;" horiz-adv-x="1026" vert-adv-y="2308" 
d="M946 442h-664q5 -127 54 -202q67 -102 203 -102q143 0 206 128l181 -13q-31 -104 -100 -172q-109 -108 -292 -108q-170 0 -288 96q-167 137 -167 404q0 185 77 318q67 116 184 169q85 39 186 39q206 0 322 -158q99 -135 99 -351q0 -16 -1 -48zM741 592q-29 246 -219 246
q-186 0 -234 -246h453zM358 1391q50 0 86 -37q37 -36 37 -87q0 -52 -37 -88q-36 -37 -87 -37t-88 37q-37 36 -37 87q0 53 37 88q37 37 89 37zM711 1391q50 0 86 -37q37 -36 37 -87t-37 -88q-36 -37 -88 -37q-50 0 -87 37t-37 87q0 52 37 88q37 37 89 37z" />
    <glyph glyph-name="iacute" unicode="&#xed;" horiz-adv-x="495" vert-adv-y="2308" 
d="M145 972h205v-972h-205v972zM177 1106l238 309h261l-342 -309h-157z" />
    <glyph glyph-name="igrave" unicode="&#xec;" horiz-adv-x="495" vert-adv-y="2308" 
d="M145 972h205v-972h-205v972zM370 1106h-157l-342 309h261z" />
    <glyph glyph-name="icircumflex" unicode="&#xee;" horiz-adv-x="495" vert-adv-y="2308" 
d="M145 972h205v-972h-205v972zM-86 1115l240 300h185l240 -300h-185l-147 184l-146 -184h-187z" />
    <glyph glyph-name="idieresis" unicode="&#xef;" horiz-adv-x="495" vert-adv-y="2308" 
d="M145 972h205v-972h-205v972zM95 1387q48 0 84 -35q35 -35 35 -86q0 -49 -35 -84q-36 -36 -85 -36q-50 0 -86 36q-35 35 -35 84q0 51 35 86q37 35 87 35zM404 1387q48 0 84 -35q35 -35 35 -86q0 -49 -35 -84q-36 -36 -85 -36q-50 0 -86 36q-35 35 -35 84q0 51 35 86
q37 35 87 35z" />
    <glyph glyph-name="ntilde" unicode="&#xf1;" horiz-adv-x="1080" vert-adv-y="2308" 
d="M118 972h194q19 -51 20 -132q104 154 293 154q114 0 196 -57q98 -70 114 -203q6 -49 6 -174v-560h-201v526q0 150 -24 202q-41 88 -151 88q-125 0 -185 -106q-35 -61 -35 -191v-519h-201v632q0 184 -6 241q-4 36 -20 99zM305 1137l-95 24q50 215 178 215q51 0 138 -42
q92 -44 124 -44q58 0 95 100l89 -24q-15 -91 -54 -149q-50 -75 -121 -75q-49 0 -145 44t-123 44q-60 0 -86 -93z" />
    <glyph glyph-name="oacute" unicode="&#xf3;" horiz-adv-x="1066" vert-adv-y="2308" 
d="M538 999q173 0 298 -120q71 -67 108 -164q43 -109 43 -230q0 -171 -77 -301q-69 -115 -190 -170q-89 -41 -187 -41q-178 0 -303 119q-71 67 -108 163q-43 109 -43 229q0 172 77 302q69 116 190 172q89 41 192 41zM530 835q-105 0 -170 -89q-75 -101 -75 -261
q0 -158 75 -259q65 -88 173 -88q109 0 173 88q75 101 75 257q0 163 -75 263q-66 89 -176 89zM383 1106l238 309h261l-342 -309h-157z" />
    <glyph glyph-name="ograve" unicode="&#xf2;" horiz-adv-x="1066" vert-adv-y="2308" 
d="M538 999q173 0 298 -120q71 -67 108 -164q43 -109 43 -230q0 -171 -77 -301q-69 -115 -190 -170q-89 -41 -187 -41q-178 0 -303 119q-71 67 -108 163q-43 109 -43 229q0 172 77 302q69 116 190 172q89 41 192 41zM530 835q-105 0 -170 -89q-75 -101 -75 -261
q0 -158 75 -259q65 -88 173 -88q109 0 173 88q75 101 75 257q0 163 -75 263q-66 89 -176 89zM675 1106h-157l-342 309h261z" />
    <glyph glyph-name="ocircumflex" unicode="&#xf4;" horiz-adv-x="1066" vert-adv-y="2308" 
d="M538 999q173 0 298 -120q71 -67 108 -164q43 -109 43 -230q0 -171 -77 -301q-69 -115 -190 -170q-89 -41 -187 -41q-178 0 -303 119q-71 67 -108 163q-43 109 -43 229q0 172 77 302q69 116 190 172q89 41 192 41zM530 835q-105 0 -170 -89q-75 -101 -75 -261
q0 -158 75 -259q65 -88 173 -88q109 0 173 88q75 101 75 257q0 163 -75 263q-66 89 -176 89zM200 1115l240 300h185l240 -300h-185l-147 184l-146 -184h-187z" />
    <glyph glyph-name="odieresis" unicode="&#xf6;" horiz-adv-x="1066" vert-adv-y="2308" 
d="M538 999q173 0 298 -120q71 -67 108 -164q43 -109 43 -230q0 -171 -77 -301q-69 -115 -190 -170q-89 -41 -187 -41q-178 0 -303 119q-71 67 -108 163q-43 109 -43 229q0 172 77 302q69 116 190 172q89 41 192 41zM530 835q-105 0 -170 -89q-75 -101 -75 -261
q0 -158 75 -259q65 -88 173 -88q109 0 173 88q75 101 75 257q0 163 -75 263q-66 89 -176 89zM358 1391q50 0 86 -37q37 -36 37 -87q0 -52 -37 -88q-36 -37 -87 -37t-88 37q-37 36 -37 87q0 53 37 88q37 37 89 37zM711 1391q50 0 86 -37q37 -36 37 -87t-37 -88
q-36 -37 -88 -37q-50 0 -87 37t-37 87q0 52 37 88q37 37 89 37z" />
    <glyph glyph-name="otilde" unicode="&#xf5;" horiz-adv-x="1066" vert-adv-y="2308" 
d="M538 999q173 0 298 -120q71 -67 108 -164q43 -109 43 -230q0 -171 -77 -301q-69 -115 -190 -170q-89 -41 -187 -41q-178 0 -303 119q-71 67 -108 163q-43 109 -43 229q0 172 77 302q69 116 190 172q89 41 192 41zM530 835q-105 0 -170 -89q-75 -101 -75 -261
q0 -158 75 -259q65 -88 173 -88q109 0 173 88q75 101 75 257q0 163 -75 263q-66 89 -176 89zM327 1137l-95 24q50 215 178 215q51 0 138 -42q92 -44 124 -44q58 0 95 100l89 -24q-15 -91 -54 -149q-50 -75 -121 -75q-49 0 -145 44t-123 44q-60 0 -86 -93z" />
    <glyph glyph-name="uacute" unicode="&#xfa;" horiz-adv-x="1082" vert-adv-y="2308" 
d="M139 972h201v-573q0 -129 34 -176q47 -67 149 -67q121 0 178 99q35 61 35 183v534h201v-674q0 -118 1 -156q3 -76 23 -142h-193q-17 46 -20 120q-91 -142 -267 -142q-121 0 -207 59q-99 68 -123 190q-12 65 -12 165v580zM388 1106l238 309h261l-342 -309h-157z" />
    <glyph glyph-name="ugrave" unicode="&#xf9;" horiz-adv-x="1082" vert-adv-y="2308" 
d="M139 972h201v-573q0 -129 34 -176q47 -67 149 -67q121 0 178 99q35 61 35 183v534h201v-674q0 -118 1 -156q3 -76 23 -142h-193q-17 46 -20 120q-91 -142 -267 -142q-121 0 -207 59q-99 68 -123 190q-12 65 -12 165v580zM701 1106h-157l-342 309h261z" />
    <glyph glyph-name="ucircumflex" unicode="&#xfb;" horiz-adv-x="1082" vert-adv-y="2308" 
d="M139 972h201v-573q0 -129 34 -176q47 -67 149 -67q121 0 178 99q35 61 35 183v534h201v-674q0 -118 1 -156q3 -76 23 -142h-193q-17 46 -20 120q-91 -142 -267 -142q-121 0 -207 59q-99 68 -123 190q-12 65 -12 165v580zM204 1115l240 300h185l240 -300h-185l-147 184
l-146 -184h-187z" />
    <glyph glyph-name="udieresis" unicode="&#xfc;" horiz-adv-x="1082" vert-adv-y="2308" 
d="M139 972h201v-573q0 -129 34 -176q47 -67 149 -67q121 0 178 99q35 61 35 183v534h201v-674q0 -118 1 -156q3 -76 23 -142h-193q-17 46 -20 120q-91 -142 -267 -142q-121 0 -207 59q-99 68 -123 190q-12 65 -12 165v580zM361 1391q50 0 86 -37q37 -36 37 -87
q0 -52 -37 -88q-36 -37 -87 -37t-88 37q-37 36 -37 87q0 53 37 88q37 37 89 37zM714 1391q50 0 86 -37q37 -36 37 -87t-37 -88q-36 -37 -88 -37q-50 0 -87 37t-37 87q0 52 37 88q37 37 89 37z" />
    <glyph glyph-name="dagger" unicode="&#x2020;" vert-adv-y="2308" 
d="M417 1331h193v-370h322v-159h-322v-1072h-193v1072h-326v159h326v370z" />
    <glyph glyph-name="degree" unicode="&#xb0;" vert-adv-y="2308" 
d="M516 1390q121 0 210 -87q88 -85 88 -208q0 -122 -87 -209q-90 -88 -215 -88t-214 88q-88 87 -88 208q0 124 88 209q91 87 218 87zM510 1267q-71 0 -123 -51q-51 -50 -51 -121q0 -72 51 -123q52 -51 125 -51q72 0 125 52q51 50 51 121q0 73 -52 122q-53 51 -126 51z" />
    <glyph glyph-name="cent" unicode="&#xa2;" horiz-adv-x="1133" vert-adv-y="2308" 
d="M634 1043v-680q130 31 149 195h197q-4 -157 -123 -268q-88 -81 -223 -94v-197h-106v199q-133 22 -221 100q-156 139 -156 397q0 283 175 428q81 66 206 86v172h105v-171q153 -14 245 -115q78 -88 94 -227h-202q-12 89 -54 129q-34 32 -86 46zM532 1038q-59 -24 -92 -64
q-84 -104 -84 -280q0 -189 97 -285q28 -27 79 -44v673z" />
    <glyph glyph-name="sterling" unicode="&#xa3;" horiz-adv-x="1133" vert-adv-y="2308" 
d="M517 782h312v-152h-341q-43 -304 -142 -467q108 28 213 28q39 0 130 -4q50 -3 75 -3q68 0 89 30q28 44 31 138h168q1 -21 1 -33q0 -161 -77 -252q-64 -76 -212 -76q-40 0 -205 13q-84 6 -156 6q-149 0 -322 -23q121 147 197 642h-179v153h208l3 17q32 180 50 251.5
t50 145.5q82 190 304 190q184 0 261 -118q43 -66 53 -203h-180q-7 72 -30 103q-33 44 -100 44q-86 0 -125 -81q-29 -59 -56 -217q-2 -11 -16 -102q-1 -7 -4 -30z" />
    <glyph glyph-name="section" unicode="&#xa7;" vert-adv-y="2308" 
d="M879 995h-165q-12 93 -46 136q-52 64 -151 64q-72 0 -121 -35q-53 -38 -53 -105q0 -56 41 -92q32 -29 187 -111q191 -102 250 -151q93 -78 93 -196q0 -169 -178 -271q57 -43 86 -83q51 -73 51 -171q0 -170 -129 -255q-94 -63 -248 -63q-249 0 -345 164q-48 83 -49 210
h170q12 -91 43 -134q55 -77 181 -77q88 0 137 40q53 42 53 117q0 55 -38 95q-29 30 -122 83q-26 15 -168 90q-121 65 -189 139q-64 69 -64 168q0 155 180 265q-56 45 -80 77q-48 66 -48 154q0 142 118 231q97 74 238 74q116 0 205 -50q153 -85 161 -313zM423 738
q-134 -75 -134 -170q0 -79 97 -139q82 -51 213 -118q133 78 133 174q0 74 -86 127q-111 69 -223 126z" />
    <glyph glyph-name="bullet" unicode="&#x2022;" horiz-adv-x="1365" vert-adv-y="2308" 
d="M689 978q113 0 196 -83q84 -83 84 -201t-83 -201t-201 -83q-116 0 -199 82q-85 84 -85 202q0 120 84 202q86 82 204 82z" />
    <glyph glyph-name="paragraph" unicode="&#xb6;" horiz-adv-x="1271" vert-adv-y="2308" 
d="M447 -195v846q-19 -1 -29 -1q-146 0 -246 80q-123 97 -123 272q0 119 62 211q70 101 212 133q83 19 199 19h602v-158h-136v-1402h-174v1402h-193v-1402h-174z" />
    <glyph glyph-name="germandbls" unicode="&#xdf;" horiz-adv-x="1078" vert-adv-y="2308" 
d="M128 0v862q0 167 11 236q20 138 125 212q104 74 255 74q154 0 254 -76q127 -96 127 -258q0 -205 -209 -276q308 -72 308 -385q0 -198 -126 -314q-96 -89 -231 -89q-82 0 -158 38v178q68 -38 135 -38q84 0 131 64q43 59 43 154q0 185 -150 256q-82 39 -183 39h-22v173h35
q104 0 163 49q62 51 62 136q0 89 -56 139q-49 44 -127 44q-127 0 -165 -103q-15 -40 -19 -101q-2 -31 -2 -133v-881h-201z" />
    <glyph glyph-name="registered" unicode="&#xae;" horiz-adv-x="1572" vert-adv-y="2308" 
d="M523 1089h189q179 0 255 -33q70 -31 105 -99q27 -53 27 -113q0 -158 -160 -225l212 -349h-169l-193 325h-123v-325h-143v819zM666 714h54q110 0 152 14q80 27 80 117q0 76 -64 105q-42 20 -175 20h-47v-256zM796 1391q189 0 361 -105q170 -104 261 -281q77 -152 77 -322
q0 -198 -105 -369q-104 -170 -282 -261q-152 -77 -321 -77q-199 0 -370 104q-170 104 -260 282q-78 152 -78 320q0 200 104 372q102 167 283 260q151 77 330 77zM780 1299q-162 0 -307 -90q-146 -91 -223 -245q-67 -133 -67 -281q0 -173 90 -322q89 -148 241 -227
q129 -67 273 -67q249 0 425 179q86 87 133 201q46 114 46 235q0 175 -90 324q-87 146 -241 226q-127 67 -280 67z" />
    <glyph glyph-name="copyright" unicode="&#xa9;" horiz-adv-x="1572" vert-adv-y="2308" 
d="M1119 848h-128q-31 151 -173 151q-102 0 -160 -78q-65 -86 -65 -228q0 -143 70 -231q57 -72 156 -72q166 0 179 194h131q-2 -108 -52 -186q-81 -128 -256 -128q-154 0 -256 97q-121 114 -121 324q0 227 134 343q98 85 239 85q163 0 246 -108q48 -63 56 -163zM796 1391
q189 0 361 -105q170 -104 261 -281q77 -152 77 -322q0 -198 -105 -369q-104 -170 -282 -261q-152 -77 -321 -77q-199 0 -370 104q-170 104 -261 282q-77 152 -77 320q0 201 104 372q102 167 283 260q151 77 330 77zM780 1291q-160 0 -303 -89q-144 -90 -220 -242
q-66 -131 -66 -277q0 -170 89 -318q87 -146 237 -224q127 -66 270 -66q246 0 420 177q84 85 130 198t46 232q0 172 -88 320q-87 144 -238 223q-126 66 -277 66z" />
    <glyph glyph-name="trademark" unicode="&#x2122;" horiz-adv-x="1650" vert-adv-y="2308" 
d="M15 1365h589v-119h-223v-700h-143v700h-223v119zM702 1365h199l233 -660l234 660h198v-819h-132v642l-228 -642h-145l-227 642v-642h-132v819z" />
    <glyph glyph-name="acute" unicode="&#xb4;" vert-adv-y="2308" 
d="M387 1106l238 309h261l-342 -309h-157z" />
    <glyph glyph-name="dieresis" unicode="&#xa8;" vert-adv-y="2308" 
d="M337 1391q50 0 86 -37q37 -36 37 -87q0 -52 -37 -88q-36 -37 -87 -37t-88 37q-37 36 -37 87q0 53 37 88q37 37 89 37zM690 1391q50 0 86 -37q37 -36 37 -87t-37 -88q-36 -37 -88 -37q-50 0 -87 37t-37 87q0 52 37 88q37 37 89 37z" />
    <glyph glyph-name="notequal" unicode="&#x2260;" vert-adv-y="2308" 
d="M547 956l112 226l132 -62l-81 -164h246v-180h-328l-81 -167h409v-180h-492l-106 -217l-132 61l75 156h-233v180h316l81 167h-397v180h479z" />
    <glyph glyph-name="AE" unicode="&#xc6;" horiz-adv-x="1815" vert-adv-y="2308" 
d="M832 1365h901v-181h-584v-388h533v-182h-533v-432h595v-182h-810v320h-488l-183 -320h-231zM934 502v673l-382 -673h382z" />
    <glyph glyph-name="Oslash" unicode="&#xd8;" horiz-adv-x="1353" vert-adv-y="2308" 
d="M1030 1268l84 111h164l-157 -206q144 -189 144 -495q0 -256 -118 -444q-96 -153 -258 -218q-100 -41 -210 -41q-202 0 -359 126l-85 -115h-160l153 210q-59 87 -86 157q-54 142 -54 330q0 402 247 592q148 115 341 115q195 0 354 -122zM906 1114q-97 93 -230 93
q-155 0 -244 -113q-122 -154 -122 -419q0 -144 56 -292zM442 257q105 -100 239 -100q151 0 240 113q122 155 122 418q0 153 -59 309z" />
    <glyph glyph-name="infinity" unicode="&#x221e;" horiz-adv-x="1365" vert-adv-y="2308" 
d="M688 564q-147 -190 -330 -190q-157 0 -249 109q-73 86 -73 215q0 150 100 239q93 82 221 82q184 0 321 -189q141 190 331 190q164 0 256 -119q65 -84 65 -205q0 -152 -102 -243q-90 -80 -217 -80q-187 0 -323 191zM783 697l8 -14q92 -139 194 -139q64 0 108 48
q38 42 38 104q0 76 -55 120q-41 33 -93 33q-84 0 -154 -87q-17 -21 -34 -46zM583 696l-9 14q-90 138 -193 138q-65 0 -108 -47q-38 -43 -38 -104q0 -75 55 -119q41 -33 93 -33q84 0 153 86q10 12 28.5 38.5z" />
    <glyph glyph-name="plusminus" unicode="&#xb1;" horiz-adv-x="1133" vert-adv-y="2308" 
d="M645 790h385v-152h-385v-348h-158v348h-384v152h384v399h158v-399zM103 181h927v-154h-927v154z" />
    <glyph glyph-name="lessequal" unicode="&#x2264;" vert-adv-y="2308" 
d="M955 1303v-191l-673 -304l673 -303v-191l-887 406v171zM955 254v-188h-887v188h887z" />
    <glyph glyph-name="greaterequal" unicode="&#x2265;" vert-adv-y="2308" 
d="M68 314v191l673 304l-673 303v191l887 -413v-171zM68 66v188h887v-188h-887z" />
    <glyph glyph-name="yen" unicode="&#xa5;" horiz-adv-x="1133" vert-adv-y="2308" 
d="M852 895h187v-131h-254l-77 -149h331v-131h-364v-484h-211v484h-370v131h336l-78 149h-258v131h190l-246 470h237l294 -589l292 589h234z" />
    <glyph glyph-name="mu1" unicode="&#xb5;" vert-adv-y="2308" 
d="M76 -348v1331h201v-540q0 -118 20 -170q31 -81 107 -119q51 -26 106 -26q108 0 174 85q37 48 51 106q12 48 12 137v527h201v-983h-201v148q-36 -75 -74 -110q-69 -62 -168 -62q-143 0 -228 140v-464h-201z" />
    <glyph glyph-name="partialdiff" unicode="&#x2202;" vert-adv-y="2308" 
d="M153 1191l27 176q183 -22 311 -74q263 -108 391 -363q92 -182 92 -407q0 -209 -89 -343q-64 -98 -165 -150q-96 -50 -209 -50q-146 0 -266 85q-73 52 -121 126q-75 116 -75 255q0 127 66 238q62 104 167 158q90 46 192 46q112 0 193 -50q37 -23 85 -75q-59 133 -112 194
q-73 82 -165 131q-105 56 -183 77q-58 16 -139 26zM512 739q-106 0 -181 -85q-78 -87 -78 -218q0 -139 88 -229q72 -75 169 -75q108 0 182 88q76 90 76 223q0 150 -92 233q-69 63 -164 63z" />
    <glyph glyph-name="summation" unicode="&#x2211;" horiz-adv-x="1365" vert-adv-y="2308" 
d="M1245 1536v-489h-181l-21 300h-765l513 -797l-513 -874h785l11 298h190v-486h-1213v209l504 853l-504 778v208h1194z" />
    <glyph glyph-name="product" unicode="&#x220f;" horiz-adv-x="1463" vert-adv-y="2308" 
d="M78 1536h1306v-188h-166v-1672h166v-188h-534v188h167v1672h-572v-1672h165v-188h-532v188h166v1672h-166v188z" />
    <glyph glyph-name="pi" unicode="&#x3c0;" horiz-adv-x="1155" vert-adv-y="2308" 
d="M167 0v801h-145v182h1116v-182h-143v-801h-201v801h-426v-801h-201z" />
    <glyph glyph-name="integral" unicode="&#x222b;" vert-adv-y="2308" 
d="M152 -491l39 180q60 -20 103 -20q100 0 113 103q4 32 4 155v1132q1 142 2 180q5 126 60 197q78 100 236 100q64 0 162 -22l-39 -179q-61 20 -103 20q-100 0 -113 -103q-3 -23 -4 -253v-1034q0 -211 -16 -280q-27 -120 -140 -167q-68 -28 -155 -28q-83 0 -149 19z" />
    <glyph glyph-name="ordfeminine" unicode="&#xaa;" vert-adv-y="2308" 
d="M393 1188h-128q6 87 63 136q66 57 191 57q157 0 204 -91q21 -39 21 -141v-227q0 -101 21 -145h-125q-11 36 -12 63q-62 -76 -173 -76q-87 0 -143 39q-66 46 -66 131q0 109 109 167q44 23 114 41q11 2 123 26l23 5v17q0 85 -104 85t-118 -87zM615 1080q-125 -25 -174 -50
q-59 -30 -59 -81q0 -34 25 -57q27 -24 74 -24q82 0 116 59q18 31 18 105v48zM228 662h554v-95h-554v95z" />
    <glyph glyph-name="ordmasculine" unicode="&#xba;" vert-adv-y="2308" 
d="M515 1383q109 0 188 -73q94 -87 94 -238t-94 -238q-79 -73 -191 -73t-190 73q-95 87 -95 237q0 154 95 239q80 73 193 73zM510 1276q-62 0 -101 -51q-46 -59 -46 -153t46 -153q39 -51 103 -51q66 0 104 51q46 60 46 152q0 95 -46 154q-39 51 -106 51zM235 662h554v-95
h-554v95z" />
    <glyph glyph-name="Ohm" unicode="&#x2126;" horiz-adv-x="1365" vert-adv-y="2308" 
d="M58 0v181h328q-137 83 -209 179q-119 157 -119 387q0 287 195 477q178 174 430 174t430 -174q194 -190 194 -477q0 -244 -132 -404q-72 -87 -194 -162h326v-181h-542v162q131 74 201 159q135 164 135 403q0 208 -122 350q-124 143 -294 143q-157 0 -277 -118
q-143 -140 -143 -375q0 -375 337 -562v-162h-544z" />
    <glyph glyph-name="ae" unicode="&#xe6;" horiz-adv-x="1629" vert-adv-y="2308" 
d="M1550 443h-677q1 -128 54 -203q73 -104 216 -104q146 0 208 130l181 -13q-23 -96 -94 -170q-106 -110 -291 -110q-154 0 -265 78q-71 50 -115 129q-43 -93 -106 -138q-95 -69 -236 -69q-134 0 -227 63q-108 72 -108 211q0 137 115 227q149 115 463 120v53q0 102 -32 140
q-40 49 -130 49q-153 0 -190 -155h-194q14 128 90 208q106 110 305 110q159 0 240 -68q36 -30 65 -78q52 61 100 91q88 55 205 55q137 0 240 -76q184 -136 183 -480zM1335 592q-31 247 -216 247q-121 0 -188 -108q-33 -53 -48 -139h452zM668 445h-22q-96 0 -181 -19
q-169 -38 -169 -165q0 -66 51 -100q43 -29 106 -29q123 0 180 97q35 59 35 176v40z" />
    <glyph glyph-name="oslash" unicode="&#xf8;" horiz-adv-x="1067" vert-adv-y="2308" 
d="M165 165l-8 15q-41 76 -54 123q-24 85 -24 179q0 176 81 308q71 115 192 169q87 39 181 39q125 0 223 -59q21 -12 69 -49l77 82h143l-144 -162q6 -18 36 -74q50 -93 50 -252q0 -173 -81 -304q-71 -114 -192 -169q-86 -38 -182 -38q-173 0 -291 109l-72 -82h-148zM310 318
l385 438q-13 21 -32 35q-60 43 -135 43q-99 0 -164 -86q-79 -103 -79 -266q0 -83 25 -164zM752 658l-385 -447q77 -74 166 -74q103 0 169 85q79 103 79 267q0 78 -29 169z" />
    <glyph glyph-name="questiondown" unicode="&#xbf;" horiz-adv-x="849" vert-adv-y="2308" 
d="M462 973q56 0 96 -41q41 -40 41 -98q0 -56 -40 -97q-41 -41 -98 -41q-58 0 -99 41q-40 41 -40 97q0 59 41 99t99 40zM367 537h190v-23q0 -157 -11 -208q-11 -47 -42 -91q-27 -38 -82 -96q-75 -78 -95 -113q-28 -48 -28 -95q0 -63 42 -99q38 -32 101 -32q155 0 168 179
h165q-6 -165 -74 -244q-100 -115 -284 -115q-152 0 -238 75q-95 82 -95 225q0 99 54 178q33 48 115 133q87 91 103 140q12 37 12 126q0 20 -1 60z" />
    <glyph glyph-name="exclamdown" unicode="&#xa1;" horiz-adv-x="513" vert-adv-y="2308" 
d="M365 -381h-217l26 915h170zM257 973q56 0 97 -41q40 -40 40 -97t-40 -98q-41 -41 -98 -41q-58 0 -99 41q-40 41 -40 97q0 59 41 99t99 40z" />
    <glyph glyph-name="logicalnot" unicode="&#xac;" vert-adv-y="2308" 
d="M754 0v358h-686v188h887v-546h-201z" />
    <glyph glyph-name="radical" unicode="&#x221a;" horiz-adv-x="1365" vert-adv-y="2308" 
d="M1365 1700v-188h-385l-395 -1512h-260l-145 586h-180v188h346l58 -226q15 -57 45 -292h16q7 52 27 164q32 177 43 226q10 43 67 265l204 789h559z" />
    <glyph glyph-name="florin" unicode="&#x192;" horiz-adv-x="1133" vert-adv-y="2308" 
d="M763 972h220v-151h-247l-102 -582q-29 -162 -43 -219q-39 -163 -113 -229q-77 -69 -185 -69q-128 0 -268 82l30 165q130 -75 218 -75q54 0 83 38q26 34 49 141q19 91 32 166l102 582h-195v151h222l21 118q34 194 86 269q78 113 227 113q102 0 208 -57l-28 -160
q-111 48 -161 48q-74 0 -107 -94q-16 -47 -35 -155z" />
    <glyph glyph-name="approxequal" unicode="&#x2248;" vert-adv-y="2308" 
d="M131 712l-114 75q37 83 75 138q83 119 219 119q73 0 222 -63q101 -43 127 -49q34 -9 61 -9q68 0 112 45q24 26 57 80l117 -69q-65 -134 -130 -185q-82 -64 -180 -64q-65 0 -292 94q-64 26 -112 26q-62 0 -108 -53q-24 -28 -54 -85zM131 337l-114 74q36 82 75 139
q83 119 218 119q74 0 223 -63q98 -42 127 -49q35 -9 62 -9q67 0 111 45q24 25 57 80l117 -69q-65 -134 -130 -185q-82 -64 -179 -64q-64 0 -293 94q-65 26 -111 26q-63 0 -109 -53q-24 -28 -54 -85z" />
    <glyph glyph-name="increment" unicode="&#x2206;" horiz-adv-x="1365" vert-adv-y="2308" 
d="M46 0l525 1365h217l531 -1365h-1273zM334 188h693l-347 932z" />
    <glyph glyph-name="guillemotleft" unicode="&#xab;" horiz-adv-x="898" vert-adv-y="2308" 
d="M768 0h-163l-205 476l205 500h163l-172 -500zM438 0h-163l-205 476l205 500h163l-172 -500z" />
    <glyph glyph-name="guillemotright" unicode="&#xbb;" horiz-adv-x="898" vert-adv-y="2308" 
d="M130 976h163l205 -477l-205 -499h-163l172 499zM460 976h163l205 -477l-205 -499h-163l172 499z" />
    <glyph glyph-name="ellipsis" unicode="&#x2026;" horiz-adv-x="1442" vert-adv-y="2308" 
d="M260 259q56 0 97 -41q40 -41 40 -98t-41 -97q-41 -41 -98 -41t-98 41q-40 40 -40 97q0 58 40 98q42 41 100 41zM721 259q55 0 97 -41q40 -41 40 -98t-41 -97q-41 -41 -98 -41t-98 41q-40 41 -40 97q0 58 40 98q42 41 100 41zM1183 259q56 0 97 -41q40 -41 40 -98t-41 -97
q-41 -41 -98 -41t-98 41q-40 40 -40 97q0 58 40 98q42 41 100 41z" />
    <glyph glyph-name="glyph172" horiz-adv-x="1133" vert-adv-y="1133" 
 />
    <glyph glyph-name="Agrave" unicode="&#xc0;" horiz-adv-x="1198" vert-adv-y="2308" 
d="M496 1369h205l467 -1369h-219l-101 320h-497l-103 -320h-217zM792 502l-193 614l-193 -614h386zM741 1486h-194l-381 308h261z" />
    <glyph glyph-name="Atilde" unicode="&#xc3;" horiz-adv-x="1198" vert-adv-y="2308" 
d="M495 1369h205l467 -1369h-219l-101 320h-497l-103 -320h-217zM791 502l-193 614l-193 -614h386zM365 1510l-104 31q57 208 197 208q51 0 151 -42q107 -44 141 -44q62 0 103 100l95 -30q-13 -73 -45 -122q-60 -95 -151 -95q-45 0 -161 47q-96 40 -132 40q-67 0 -94 -93z
" />
    <glyph glyph-name="Otilde" unicode="&#xd5;" horiz-adv-x="1353" vert-adv-y="2308" 
d="M684 1390q235 0 398 -172q183 -193 183 -536q0 -341 -183 -535q-162 -172 -406 -172q-243 0 -405 172q-183 194 -183 533q0 344 183 538q162 172 413 172zM671 1208q-101 0 -183 -59q-98 -70 -144 -222q-34 -109 -34 -245q0 -242 106 -393q92 -132 260 -132
q169 0 261 132q106 151 106 391q0 249 -106 396q-95 132 -266 132zM447 1510l-104 31q57 208 197 208q51 0 151 -42q107 -44 141 -44q62 0 103 100l95 -30q-13 -73 -45 -122q-60 -95 -151 -95q-45 0 -161 47q-96 40 -132 40q-67 0 -94 -93z" />
    <glyph glyph-name="OE" unicode="&#x152;" horiz-adv-x="1940" vert-adv-y="2308" 
d="M1047 1235v130h805v-181h-596v-386h547v-181h-546v-435h613v-182h-823v131q-56 -62 -112 -95q-104 -61 -253 -61q-244 0 -403 159q-192 190 -192 547q0 350 180 542q156 167 417 167q224 0 363 -155zM674 1208q-146 0 -236 -100q-129 -145 -129 -428q0 -276 128 -421
q89 -102 240 -102t240 103q129 149 129 420q0 278 -131 427q-89 101 -241 101z" />
    <glyph glyph-name="oe" unicode="&#x153;" horiz-adv-x="1724" vert-adv-y="2308" 
d="M1643 438h-674q3 -123 53 -197q71 -104 212 -104q159 0 211 130l181 -13q-31 -106 -99 -174q-108 -107 -291 -107q-230 0 -362 185q-52 -72 -101 -110q-98 -75 -235 -75q-175 0 -300 117q-159 147 -159 397q0 252 155 396q125 116 304 116q229 0 338 -193q54 76 102 113
q102 80 245 80q214 0 325 -166q96 -144 96 -345q0 -18 -1 -50zM1437 583q-9 102 -49 164q-58 93 -175 93q-195 0 -237 -257h461zM529 835q-99 0 -165 -84q-79 -102 -79 -265q0 -165 79 -266q64 -83 169 -83q101 0 166 83q78 101 78 264q0 168 -78 267q-67 84 -170 84z" />
    <glyph glyph-name="endash" unicode="&#x2013;" vert-adv-y="2308" 
d="M115 591h793v-150h-793v150z" />
    <glyph glyph-name="emdash" unicode="&#x2014;" horiz-adv-x="1241" vert-adv-y="2308" 
d="M0 591h1241v-150h-1241v150z" />
    <glyph glyph-name="quotedblleft" unicode="&#x201c;" horiz-adv-x="765" vert-adv-y="2308" 
d="M575 1390h120q-48 -53 -82 -118q-34 -67 -39 -119q47 -3 74 -19q54 -33 54 -98q0 -55 -41 -92q-37 -35 -90 -35q-60 0 -100 46q-39 45 -39 122q0 141 143 313zM238 1390h120q-47 -52 -82 -118q-34 -68 -39 -119q47 -3 74 -19q54 -33 54 -98q0 -55 -41 -92
q-38 -35 -91 -35q-60 0 -99 46q-39 45 -39 123q0 139 143 312z" />
    <glyph glyph-name="quotedblright" unicode="&#x201d;" horiz-adv-x="775" vert-adv-y="2308" 
d="M190 910h-120q48 53 82 118q34 66 39 119q-47 2 -74 19q-54 33 -54 97q0 55 41 93q37 34 90 34q60 0 100 -46q39 -45 39 -122q0 -142 -143 -312zM537 910h-121q49 52 83 118q33 67 38 119q-46 2 -74 19q-54 33 -54 97q0 55 41 93q38 34 91 34q60 0 100 -46
q39 -45 39 -121q0 -142 -143 -313z" />
    <glyph glyph-name="quoteleft" unicode="&#x2018;" horiz-adv-x="428" vert-adv-y="2308" 
d="M238 1390h120q-47 -52 -82 -118q-34 -68 -39 -119q47 -3 74 -19q54 -33 54 -98q0 -55 -41 -92q-38 -35 -91 -35q-60 0 -99 46q-39 45 -39 123q0 139 143 312z" />
    <glyph glyph-name="quoteright" unicode="&#x2019;" horiz-adv-x="443" vert-adv-y="2308" 
d="M205 910h-120q48 53 82 118q34 67 39 119q-46 2 -74 19q-54 33 -54 97q0 55 41 93q38 34 91 34q60 0 100 -46q39 -45 39 -121q0 -142 -144 -313z" />
    <glyph glyph-name="divide" unicode="&#xf7;" horiz-adv-x="1133" vert-adv-y="2308" 
d="M567 497q49 0 85 -36q35 -35 35 -86q0 -50 -36 -85q-36 -36 -86 -36t-86 36q-35 35 -35 85q0 51 35 86q37 36 88 36zM567 1113q49 0 85 -36q35 -35 35 -86q0 -50 -36 -85q-36 -36 -86 -36t-86 36q-35 35 -35 85q0 52 35 86q37 36 88 36zM103 762h927v-154h-927v154z" />
    <glyph glyph-name="lozenge" unicode="&#x25ca;" horiz-adv-x="1365" vert-adv-y="2308" 
d="M683 1419l531 -736l-531 -736l-532 736zM683 1238l-404 -555l404 -554l403 554z" />
    <glyph glyph-name="ydieresis" unicode="&#xff;" horiz-adv-x="964" vert-adv-y="2308" 
d="M33 972h214l238 -773l247 773h210l-325 -925q-56 -162 -79 -208q-71 -150 -192 -206q-94 -43 -221 -43q-23 0 -69 2v176q26 -1 38 -1q113 0 173 37q58 36 106 168zM306 1391q50 0 86 -37q37 -36 37 -87q0 -52 -37 -88q-36 -37 -87 -37t-88 37q-37 36 -37 87q0 53 37 88
q37 37 89 37zM659 1391q50 0 86 -37q37 -36 37 -87t-37 -88q-36 -37 -88 -37q-50 0 -87 37t-37 87q0 52 37 88q37 37 89 37z" />
    <glyph glyph-name="Ydieresis" unicode="&#x178;" horiz-adv-x="1103" vert-adv-y="2308" 
d="M11 1365h239l305 -588l301 588h236l-435 -811v-554h-210v554zM367 1774q54 0 93 -40q40 -39 40 -95t-40 -95q-39 -40 -95 -40q-55 0 -95 40q-40 39 -40 95q0 57 40 95q40 40 97 40zM741 1774q53 0 93 -40q40 -39 40 -95t-40 -95q-40 -40 -95 -40t-95 40q-40 39 -40 95
q0 57 40 95q40 40 97 40z" />
    <glyph glyph-name="fraction" unicode="&#x2044;" horiz-adv-x="227" vert-adv-y="2308" 
d="M417 1331h166l-774 -1331h-165z" />
    <glyph glyph-name="currency" unicode="&#xa4;" horiz-adv-x="1365" vert-adv-y="2308" 
d="M79 265l201 202q-97 129 -97 287q0 147 98 285l-205 203l113 113l203 -203q138 96 292 96q151 0 286 -94l202 200l112 -112l-201 -200q100 -139 100 -288q0 -152 -97 -286l202 -202l-110 -113l-203 202q-137 -97 -290 -97q-146 0 -293 96l-201 -200zM679 1067
q-125 0 -217 -92t-92 -222q0 -129 92 -221q93 -93 221 -93q129 0 222 93q91 91 91 220q0 133 -91 223q-94 92 -226 92z" />
    <glyph glyph-name="guilsinglleft" unicode="&#x2039;" horiz-adv-x="562" vert-adv-y="2308" 
d="M439 0h-172l-205 476l205 499h172l-172 -499z" />
    <glyph glyph-name="guilsinglright" unicode="&#x203a;" horiz-adv-x="562" vert-adv-y="2308" 
d="M123 975h171l206 -476l-206 -499h-171l172 499z" />
    <glyph glyph-name="fi" unicode="&#xf001;" horiz-adv-x="1116" vert-adv-y="2308" 
d="M369 972h235v-159h-233v-813h-205v813h-133v159h133v61q0 180 47 254q73 114 234 114q89 0 191 -39v-170q-96 34 -155 34q-79 0 -103 -72q-11 -34 -11 -138v-44zM766 972h205v-972h-205v972zM873 1388q51 0 85 -31q38 -35 38 -97q0 -56 -34 -90q-36 -36 -93 -36
q-58 0 -92 35q-35 34 -35 89q0 62 39 97q37 33 92 33z" />
    <glyph glyph-name="fi" unicode="&#xfb01;" horiz-adv-x="1116" vert-adv-y="2308" 
d="M369 972h235v-159h-233v-813h-205v813h-133v159h133v61q0 180 47 254q73 114 234 114q89 0 191 -39v-170q-96 34 -155 34q-79 0 -103 -72q-11 -34 -11 -138v-44zM766 972h205v-972h-205v972zM873 1388q51 0 85 -31q38 -35 38 -97q0 -56 -34 -90q-36 -36 -93 -36
q-58 0 -92 35q-35 34 -35 89q0 62 39 97q37 33 92 33z" />
    <glyph glyph-name="fl" unicode="&#xf002;" horiz-adv-x="1116" vert-adv-y="2308" 
d="M369 972h235v-159h-233v-813h-205v813h-133v159h133v61q0 180 47 254q73 114 234 114q89 0 191 -39v-170q-96 34 -155 34q-79 0 -103 -72q-11 -34 -11 -138v-44zM766 1373h205v-1373h-205v1373z" />
    <glyph glyph-name="fl" unicode="&#xfb02;" horiz-adv-x="1116" vert-adv-y="2308" 
d="M369 972h235v-159h-233v-813h-205v813h-133v159h133v61q0 180 47 254q73 114 234 114q89 0 191 -39v-170q-96 34 -155 34q-79 0 -103 -72q-11 -34 -11 -138v-44zM766 1373h205v-1373h-205v1373z" />
    <glyph glyph-name="daggerdbl" unicode="&#x2021;" vert-adv-y="2308" 
d="M417 1331h189v-207h328v-161h-328v-816h328v-161h-328v-256h-189v256h-327v161h327v816h-327v161h327v207z" />
    <glyph glyph-name="periodcentered" unicode="&#x2219;" horiz-adv-x="518" vert-adv-y="2308" 
d="M260 652q56 0 97 -41q40 -41 40 -98t-41 -98q-40 -40 -97 -40q-58 0 -99 41q-40 40 -40 97q0 58 40 98q42 41 100 41z" />
    <glyph glyph-name="quotesinglbase" unicode="&#x201a;" horiz-adv-x="443" vert-adv-y="2308" 
d="M205 -236h-120q48 53 82 118q34 67 39 119q-46 3 -74 19q-54 34 -54 98q0 55 41 92q38 35 91 35q60 0 100 -46q39 -46 39 -122q0 -141 -144 -313z" />
    <glyph glyph-name="quotedblbase" unicode="&#x201e;" horiz-adv-x="775" vert-adv-y="2308" 
d="M190 -236h-120q48 52 82 118q34 67 39 119q-46 3 -74 19q-54 33 -54 98q0 55 41 92q37 35 91 35q59 0 99 -46q39 -46 39 -123q0 -140 -143 -312zM537 -236h-121q48 52 83 118q33 67 38 119q-46 3 -74 19q-54 33 -54 98q0 55 41 92q38 35 91 35q60 0 100 -46
q39 -45 39 -122q0 -140 -143 -313z" />
    <glyph glyph-name="perthousand" unicode="&#x2030;" horiz-adv-x="1971" vert-adv-y="2308" 
d="M974 1365h173l-797 -1365h-172zM995 648q56 0 114 -31q82 -43 125 -138q34 -75 34 -160q0 -156 -95 -252q-77 -78 -180 -78q-115 0 -195 94q-80 95 -80 236q0 84 34 160q42 94 125 138q57 31 118 31zM992 525q-61 0 -99 -62q-36 -58 -36 -144q0 -95 41 -154
q38 -53 95 -53q62 0 100 62q36 57 36 145q0 95 -41 153q-38 53 -96 53zM1640 648q56 0 115 -31q81 -43 124 -138q34 -75 34 -160q0 -156 -95 -252q-77 -78 -180 -78q-115 0 -195 94q-80 95 -80 236q0 84 34 160q42 94 125 138q57 31 118 31zM1636 525q-60 0 -99 -62
q-35 -57 -35 -144q0 -96 41 -154q38 -53 95 -53q62 0 100 62q36 57 36 145q0 95 -41 153q-38 53 -97 53zM335 1376q56 0 114 -31q82 -43 124 -138q34 -75 34 -160q0 -157 -95 -252q-77 -78 -180 -78q-114 0 -194 94q-80 95 -80 236q0 155 95 251q77 78 182 78zM331 1253
q-60 0 -99 -62q-35 -56 -35 -144q0 -96 41 -154q38 -53 94 -53q63 0 101 62q35 58 35 145q0 94 -41 153q-37 53 -96 53z" />
    <glyph glyph-name="Acircumflex" unicode="&#xc2;" horiz-adv-x="1198" vert-adv-y="2308" 
d="M495 1369h205l467 -1369h-219l-101 320h-497l-103 -320h-217zM791 502l-193 614l-193 -614h386zM232 1500l274 279h185l275 -279h-194l-173 169l-172 -169h-195z" />
    <glyph glyph-name="Ecircumflex" unicode="&#xca;" horiz-adv-x="1066" vert-adv-y="2308" 
d="M380 798h548v-182h-548v-434h615v-182h-826v1365h808v-181h-597v-386zM208 1500l274 279h185l275 -279h-194l-173 169l-172 -169h-195z" />
    <glyph glyph-name="Aacute" unicode="&#xc1;" horiz-adv-x="1198" vert-adv-y="2308" 
d="M495 1369h205l467 -1369h-219l-101 320h-497l-103 -320h-217zM791 502l-193 614l-193 -614h386zM456 1486l314 308h261l-380 -308h-195z" />
    <glyph glyph-name="Edieresis" unicode="&#xcb;" horiz-adv-x="1066" vert-adv-y="2308" 
d="M380 798h548v-182h-548v-434h615v-182h-826v1365h808v-181h-597v-386zM391 1775q54 0 93 -40q40 -39 40 -95t-40 -95q-39 -40 -95 -40q-55 0 -95 40q-40 39 -40 95q0 57 40 95q40 40 97 40zM765 1775q53 0 93 -40q40 -39 40 -95t-40 -95q-40 -40 -95 -40t-95 40
q-40 39 -40 95q0 57 40 95q40 40 97 40z" />
    <glyph glyph-name="Egrave" unicode="&#xc8;" horiz-adv-x="1066" vert-adv-y="2308" 
d="M375 798h548v-182h-548v-434h615v-182h-826v1365h808v-181h-597v-386zM748 1486h-194l-381 308h261z" />
    <glyph glyph-name="Iacute" unicode="&#xcd;" horiz-adv-x="550" vert-adv-y="2308" 
d="M381 0h-213v1365h213v-1365zM132 1486l314 308h261l-380 -308h-195z" />
    <glyph glyph-name="Icircumflex" unicode="&#xce;" horiz-adv-x="550" vert-adv-y="2308" 
d="M381 0h-213v1365h213v-1365zM-88 1500l274 279h185l275 -279h-194l-173 169l-172 -169h-195z" />
    <glyph glyph-name="Idieresis" unicode="&#xcf;" horiz-adv-x="550" vert-adv-y="2308" 
d="M382 0h-213v1365h213v-1365zM114 1767q51 0 89 -38t38 -91t-38 -91t-91 -38t-91 38t-38 91q0 54 38 91q38 38 93 38zM441 1767q52 0 89 -38q38 -37 38 -91q0 -53 -38 -91t-91 -38t-91 38t-38 91q0 54 38 91q39 38 93 38z" />
    <glyph glyph-name="Igrave" unicode="&#xcc;" horiz-adv-x="550" vert-adv-y="2308" 
d="M376 0h-213v1365h213v-1365zM398 1486h-194l-381 308h261z" />
    <glyph glyph-name="Oacute" unicode="&#xd3;" horiz-adv-x="1353" vert-adv-y="2308" 
d="M684 1390q235 0 398 -172q183 -193 183 -536q0 -341 -183 -535q-162 -172 -406 -172q-243 0 -405 172q-183 194 -183 533q0 344 183 538q162 172 413 172zM671 1208q-101 0 -183 -59q-98 -70 -144 -222q-34 -109 -34 -245q0 -242 106 -393q92 -132 260 -132
q169 0 261 132q106 151 106 391q0 249 -106 396q-95 132 -266 132zM495 1486l314 308h261l-380 -308h-195z" />
    <glyph glyph-name="Ocircumflex" unicode="&#xd4;" horiz-adv-x="1353" vert-adv-y="2308" 
d="M684 1390q235 0 398 -172q183 -193 183 -536q0 -341 -183 -535q-162 -172 -406 -172q-243 0 -405 172q-183 194 -183 533q0 344 183 538q162 172 413 172zM671 1208q-101 0 -183 -59q-98 -70 -144 -222q-34 -109 -34 -245q0 -242 106 -393q92 -132 260 -132
q169 0 261 132q106 151 106 391q0 249 -106 396q-95 132 -266 132zM310 1500l274 279h185l275 -279h-194l-173 169l-172 -169h-195z" />
    <glyph glyph-name="Euro" unicode="&#x20ac;" horiz-adv-x="1144" vert-adv-y="2308" 
d="M419 860h576l-58 -126h-532q-3 -30 -3 -68q0 -32 3 -59h475l-58 -126h-401q14 -127 60 -202q43 -71 106 -100q56 -26 150 -26q154 0 260 84q69 56 133 167v-270q-68 -61 -131 -93q-127 -64 -301 -64q-164 0 -267 66q-187 121 -223 438h-178l55 126h110q-1 23 -1 44
q0 44 3 83h-159l55 126h118q91 522 513 522q269 0 425 -183l-87 -191q-49 70 -93 110q-101 93 -239 93q-177 0 -257 -161q-30 -60 -54 -190z" />
    <glyph glyph-name="Ograve" unicode="&#xd2;" horiz-adv-x="1353" vert-adv-y="2308" 
d="M684 1390q235 0 398 -172q183 -193 183 -536q0 -341 -183 -535q-162 -172 -406 -172q-243 0 -405 172q-183 194 -183 533q0 344 183 538q162 172 413 172zM671 1208q-101 0 -183 -59q-98 -70 -144 -222q-34 -109 -34 -245q0 -242 106 -393q92 -132 260 -132
q169 0 261 132q106 151 106 391q0 249 -106 396q-95 132 -266 132zM859 1486h-194l-381 308h261z" />
    <glyph glyph-name="Uacute" unicode="&#xda;" horiz-adv-x="1334" vert-adv-y="2308" 
d="M153 1365h211v-793q0 -104 4 -146q12 -144 95 -206q81 -61 204 -61q122 0 203 61q83 62 95 206q4 42 4 146v793h211v-796q0 -155 -10 -223q-22 -153 -132 -248q-142 -123 -371 -123q-230 0 -372 123q-109 94 -132 248q-10 67 -10 223v796zM478 1486l314 308h261
l-380 -308h-195z" />
    <glyph glyph-name="Ucircumflex" unicode="&#xdb;" horiz-adv-x="1334" vert-adv-y="2308" 
d="M153 1365h211v-793q0 -104 4 -146q12 -144 95 -206q81 -61 204 -61q122 0 203 61q83 62 95 206q4 42 4 146v793h211v-796q0 -155 -10 -223q-22 -153 -132 -248q-142 -123 -371 -123q-230 0 -372 123q-109 94 -132 248q-10 67 -10 223v796zM300 1500l274 279h185l275 -279
h-194l-173 169l-172 -169h-195z" />
    <glyph glyph-name="Ugrave" unicode="&#xd9;" horiz-adv-x="1334" vert-adv-y="2308" 
d="M153 1365h211v-793q0 -104 4 -146q12 -144 95 -206q81 -61 204 -61q122 0 203 61q83 62 95 206q4 42 4 146v793h211v-796q0 -155 -10 -223q-22 -153 -132 -248q-142 -123 -371 -123q-230 0 -372 123q-109 94 -132 248q-10 67 -10 223v796zM857 1486h-194l-381 308h261z
" />
    <glyph glyph-name="dotlessi" unicode="&#x131;" horiz-adv-x="495" vert-adv-y="2308" 
d="M145 972h205v-972h-205v972z" />
    <glyph glyph-name="circumflex" unicode="&#x2c6;" vert-adv-y="2308" 
d="M179 1115l240 300h185l240 -300h-185l-147 184l-146 -184h-187z" />
    <glyph glyph-name="tilde" unicode="&#x2dc;" vert-adv-y="2308" 
d="M295 1137l-95 24q50 215 178 215q51 0 138 -42q92 -44 124 -44q58 0 95 100l89 -24q-15 -91 -54 -149q-50 -75 -121 -75q-49 0 -145 44t-123 44q-60 0 -86 -93z" />
    <glyph glyph-name="macron" unicode="&#x2c9;" vert-adv-y="2308" 
d="M224 1327h576v-131h-576v131z" />
    <glyph glyph-name="breve" unicode="&#x2d8;" vert-adv-y="2308" 
d="M247 1396h95q56 -150 174 -150q110 0 167 150h95q-10 -96 -51 -165q-74 -122 -209 -122q-140 0 -218 124q-43 68 -53 163z" />
    <glyph glyph-name="dotaccent" unicode="&#x2d9;" vert-adv-y="2308" 
d="M514 1391q50 0 86 -37q37 -36 37 -87t-37 -88t-87 -37q-51 0 -88 37t-37 87q0 52 37 88q37 37 89 37z" />
    <glyph glyph-name="ring" unicode="&#x2da;" vert-adv-y="2308" 
d="M515 1476q79 0 136 -58q58 -57 58 -139q0 -81 -58 -138q-57 -58 -139 -58q-81 0 -138 58q-58 57 -58 138q0 83 58 139q59 58 141 58zM511 1380q-40 0 -69 -29q-30 -30 -30 -71q0 -42 30 -71q29 -30 71 -30q41 0 70 30q30 29 30 70q0 43 -30 72t-72 29z" />
    <glyph glyph-name="cedilla" unicode="&#xb8;" vert-adv-y="2308" 
d="M438 0h118l-41 -102q182 -32 182 -173q0 -88 -66 -143q-57 -47 -139 -47q-73 0 -165 48v89q85 -34 121 -34q45 0 72 22q35 29 35 80q0 64 -56 91q-31 14 -73 14q-17 0 -48 -3z" />
    <glyph glyph-name="hungarumlaut" unicode="&#x2dd;" vert-adv-y="2308" 
d="M294 1106l200 309h228l-284 -309h-144zM595 1106l200 309h228l-284 -309h-144z" />
    <glyph glyph-name="ogonek" unicode="&#x2db;" vert-adv-y="2308" 
d="M642 0h171q-199 -108 -199 -199q0 -41 31 -65q27 -21 70 -21q46 0 92 19v-99q-61 -28 -131 -28q-105 0 -164 64q-46 50 -46 121q0 131 176 208z" />
    <glyph glyph-name="caron" unicode="&#x2c7;" vert-adv-y="2308" 
d="M844 1415l-240 -300h-185l-240 300h186l147 -184l145 184h187z" />
    <glyph glyph-name="Euro" horiz-adv-x="1144" vert-adv-y="2308" 
d="M419 860h576l-58 -126h-532q-3 -30 -3 -68q0 -32 3 -59h475l-58 -126h-401q14 -127 60 -202q43 -71 106 -100q56 -26 150 -26q154 0 260 84q69 56 133 167v-270q-68 -61 -131 -93q-127 -64 -301 -64q-164 0 -267 66q-187 121 -223 438h-178l55 126h110q-1 23 -1 44
q0 44 3 83h-159l55 126h118q91 522 513 522q269 0 425 -183l-87 -191q-49 70 -93 110q-101 93 -239 93q-177 0 -257 -161q-30 -60 -54 -190z" />
    <glyph glyph-name="nbspace" unicode="&#xa0;" horiz-adv-x="512" vert-adv-y="2308" 
 />
    <glyph glyph-name="brokenbar" unicode="&#xa6;" vert-adv-y="2308" 
d="M411 1365h201v-694h-201v694zM411 314h201v-655h-201v655z" />
    <glyph glyph-name="sfthyphen" unicode="&#xad;" horiz-adv-x="547" vert-adv-y="2308" 
d="M0 591h547v-150h-547v150z" />
    <glyph glyph-name="overscore" unicode="&#xaf;" vert-adv-y="2308" 
d="M0 1795h1024v-181h-1024v181z" />
    <glyph glyph-name="twosuperior" unicode="&#xb2;" horiz-adv-x="739" vert-adv-y="2308" 
d="M243 1096h-122v10q0 94 49 154q72 87 211 87q108 0 178 -56t70 -152q0 -70 -52 -148q-54 -78 -283 -337h344v-122h-526v105l20 24q188 215 262 306q93 113 93 170q0 41 -32 66q-31 26 -80 26q-121 0 -132 -133z" />
    <glyph glyph-name="threesuperior" unicode="&#xb3;" horiz-adv-x="739" vert-adv-y="2308" 
d="M238 1124h-121q4 101 60 158q71 72 200 72q116 0 182 -59q64 -58 64 -148q0 -122 -120 -176q138 -46 138 -192q0 -121 -95 -193q-72 -54 -185 -54q-166 0 -238 100q-42 59 -41 151h126q0 -134 149 -134q69 0 106 34q39 35 39 95q0 86 -81 115q-36 13 -111 13
q-12 0 -37 -1v113q25 -1 38 -1q74 0 115 23q57 31 57 97q0 45 -31 73q-32 28 -86 28q-112 0 -128 -114z" />
    <glyph glyph-name="middot" unicode="&#xb7;" horiz-adv-x="518" vert-adv-y="2308" 
d="M260 652q56 0 97 -41q40 -41 40 -98t-41 -98q-40 -40 -97 -40q-58 0 -99 41q-40 40 -40 97q0 58 40 98q42 41 100 41z" />
    <glyph glyph-name="onesuperior" unicode="&#xb9;" horiz-adv-x="739" vert-adv-y="2308" 
d="M159 1121v82q85 1 131 34q42 30 58 99h97v-804h-138v589h-148z" />
    <glyph glyph-name="onequarter" unicode="&#xbc;" horiz-adv-x="1746" vert-adv-y="2308" 
d="M159 1121v82q86 1 131 34q42 30 58 99h97v-804h-138v589h-148zM1177 1331h165l-774 -1331h-164zM1539 287h148v-111h-145v-185h-140v185h-342v103l329 524h150v-516zM1408 287v350l-212 -350h212z" />
    <glyph glyph-name="onehalf" unicode="&#xbd;" horiz-adv-x="1746" vert-adv-y="2308" 
d="M159 1121v82q85 1 130 34q43 32 58 99h97v-804h-138v589h-147zM1177 1331h165l-774 -1331h-164zM1249 564h-122q1 104 49 163q72 88 211 88q107 0 178 -56q70 -55 70 -152q0 -70 -52 -148q-58 -85 -283 -337h344v-122h-526v105l20 23q191 220 262 306q93 113 93 170
q0 41 -32 67t-81 26q-121 0 -131 -133z" />
    <glyph glyph-name="threequarters" unicode="&#xbe;" horiz-adv-x="1745" vert-adv-y="2308" 
d="M238 1124h-121q4 101 60 158q71 72 200 72q116 0 182 -59q64 -58 64 -148q0 -122 -120 -176q138 -46 138 -192q0 -121 -95 -193q-72 -54 -185 -54q-166 0 -238 100q-42 59 -41 151h126q0 -134 149 -134q69 0 106 34q39 35 39 95q0 86 -81 115q-36 13 -111 13
q-12 0 -37 -1v113q25 -1 38 -1q74 0 115 23q57 31 57 97q0 45 -31 73q-32 28 -86 28q-112 0 -128 -114zM1178 1331h165l-774 -1331h-165zM1540 287h147v-111h-144v-185h-140v185h-343v103l330 524h150v-516zM1410 287v350l-213 -350h213z" />
    <glyph glyph-name="Eth" unicode="&#xd0;" horiz-adv-x="1304" vert-adv-y="2308" 
d="M170 1365h277q166 0 272 -16q219 -34 351 -205q146 -189 146 -461q0 -279 -149 -469q-135 -174 -368 -202q-95 -12 -281 -12h-248v628h-123v171h123v566zM381 182h110q122 0 191 11q155 27 233 155q83 137 83 337q0 204 -92 340q-84 123 -236 148q-69 11 -230 11h-59
v-385h297v-171h-297v-446z" />
    <glyph glyph-name="multiply" unicode="&#xd7;" horiz-adv-x="1133" vert-adv-y="2308" 
d="M677 684l293 -293l-109 -108l-291 291l-298 -297l-110 110l298 297l-292 292l109 109l291 -292l293 292l110 -110z" />
    <glyph glyph-name="Yacute" unicode="&#xdd;" horiz-adv-x="1103" vert-adv-y="2308" 
d="M11 1365h239l305 -588l301 588h236l-435 -811v-554h-210v554zM372 1486l314 308h261l-380 -308h-195z" />
    <glyph glyph-name="Thorn" unicode="&#xde;" horiz-adv-x="1119" vert-adv-y="2308" 
d="M169 1365h211v-159h64q266 0 383 -39q127 -42 193 -158q55 -98 55 -224q0 -184 -111 -294q-97 -97 -284 -112q-78 -6 -209 -6h-91v-373h-211v1365zM380 555h90q176 0 246 20q74 22 111 87q30 52 30 123q0 156 -114 207q-55 24 -146 30q-43 3 -129 3h-88v-470z" />
    <glyph glyph-name="eth" unicode="&#xf0;" horiz-adv-x="1066" vert-adv-y="2308" 
d="M555 1286l152 85l68 -95l-149 -82q148 -170 214 -265q68 -96 102 -179q45 -112 45 -253q0 -258 -143 -401q-123 -123 -303 -123q-184 0 -310 119q-72 67 -110 163q-42 108 -42 227q0 174 79 305q80 133 229 179q57 18 112 18q51 0 120 -29l-127 164l-140 -76l-73 92
l149 84l-86 102l111 71zM533 831q-94 0 -158 -71q-90 -99 -90 -274q0 -171 86 -272q65 -77 163 -77q97 0 161 76q86 103 86 269q0 178 -88 279q-61 70 -160 70z" />
    <glyph glyph-name="yacute" unicode="&#xfd;" horiz-adv-x="964" vert-adv-y="2308" 
d="M33 972h214l238 -773l247 773h210l-325 -925q-56 -162 -79 -208q-71 -150 -192 -206q-94 -43 -221 -43q-23 0 -69 2v176q26 -1 38 -1q113 0 173 37q58 36 106 168zM338 1106l238 309h261l-342 -309h-157z" />
    <glyph glyph-name="thorn" unicode="&#xfe;" horiz-adv-x="1084" vert-adv-y="2308" 
d="M145 -403v1776h201v-529q93 150 261 150q147 0 249 -99q148 -144 148 -406q0 -273 -156 -420q-95 -91 -234 -91q-112 0 -190 59q-38 27 -78 82v-522h-201zM573 823q-92 0 -150 -69q-81 -98 -81 -272q0 -165 76 -258q62 -75 161 -75q92 0 142 64q77 99 77 269
q0 175 -78 274q-52 67 -147 67z" />
    <glyph glyph-name="Amacron" unicode="&#x100;" horiz-adv-x="1198" vert-adv-y="2308" 
d="M495 1369h205l467 -1369h-219l-101 320h-497l-103 -320h-217zM791 502l-193 614l-193 -614h386zM288 1706h621v-132h-621v132z" />
    <glyph glyph-name="amacron" unicode="&#x101;" horiz-adv-x="1014" vert-adv-y="2308" 
d="M318 698h-194q16 136 98 206q106 90 298 90q164 0 258 -70q74 -55 89 -175q6 -48 6 -136v-379q-1 -166 30 -234h-186q-15 56 -17 120q-79 -142 -278 -142q-139 0 -228 63q-104 75 -104 214q0 208 223 292q106 40 365 85v27q0 85 -28 120q-42 52 -142 52q-165 0 -190 -133
zM678 493q-212 -32 -287 -74q-95 -53 -95 -141q0 -59 43 -99q46 -42 123 -42q132 0 187 102q29 53 29 179v75zM216 1327h576v-131h-576v131z" />
    <glyph glyph-name="Abreve" unicode="&#x102;" horiz-adv-x="1198" vert-adv-y="2308" 
d="M495 1369h205l467 -1369h-219l-101 320h-497l-103 -320h-217zM791 502l-193 614l-193 -614h386zM308 1781h90q66 -151 201 -151q134 0 201 151h89q-11 -95 -56 -161q-86 -122 -233 -122q-151 0 -237 127q-44 65 -55 156z" />
    <glyph glyph-name="abreve" unicode="&#x103;" horiz-adv-x="1014" vert-adv-y="2308" 
d="M318 698h-194q16 136 98 206q106 90 298 90q164 0 258 -70q74 -55 89 -175q6 -48 6 -136v-379q-1 -166 30 -234h-186q-15 56 -17 120q-79 -142 -278 -142q-139 0 -228 63q-104 75 -104 214q0 208 223 292q106 40 365 85v27q0 85 -28 120q-42 52 -142 52q-165 0 -190 -133
zM678 493q-212 -32 -287 -74q-95 -53 -95 -141q0 -59 43 -99q46 -42 123 -42q132 0 187 102q29 53 29 179v75zM236 1396h95q56 -150 174 -150q110 0 167 150h95q-10 -96 -51 -165q-74 -122 -209 -122q-140 0 -218 124q-43 68 -53 163z" />
    <glyph glyph-name="Aogonek" unicode="&#x104;" horiz-adv-x="1198" vert-adv-y="2308" 
d="M1167 0q-78 -57 -128 -106t-50 -100q0 -47 37 -74q27 -20 74 -20q41 0 94 18v-103q-74 -32 -141 -32q-111 0 -174 68q-50 55 -50 129q0 95 82 158q37 28 110 62h-72l-103 320h-497l-102 -320h-217l465 1369h205zM791 502l-193 613l-194 -613h387z" />
    <glyph glyph-name="aogonek" unicode="&#x105;" horiz-adv-x="1014" vert-adv-y="2308" 
d="M902 0q-66 -43 -116 -99q-51 -58 -51 -99q0 -39 26 -62q28 -25 75 -25q46 0 92 19v-99q-62 -28 -127 -28q-109 0 -168 64q-46 50 -46 120q0 94 91 159q34 25 92 50h-54q-14 57 -16 120q-79 -142 -278 -142q-141 0 -228 63q-104 76 -104 214q0 140 104 224q93 75 286 116
q59 13 198 37v32q0 80 -28 115q-42 52 -143 52q-164 0 -189 -133h-194q16 136 98 206q106 90 298 90q164 0 258 -70q74 -55 89 -175q6 -48 6 -136v-379q-1 -161 29 -234zM678 493q-212 -32 -287 -74q-95 -53 -95 -140q0 -60 43 -100q45 -42 123 -42q132 0 187 102
q29 53 29 179v75z" />
    <glyph glyph-name="Cacute" unicode="&#x106;" horiz-adv-x="1230" vert-adv-y="2308" 
d="M1139 952h-187q-50 254 -282 254q-162 0 -257 -134q-103 -146 -103 -391q0 -247 107 -394q93 -128 257 -128q262 0 293 328h192q-11 -184 -79 -300q-124 -212 -399 -212q-247 0 -406 164q-187 192 -187 540q0 377 209 569q155 142 375 142q138 0 248 -60
q194 -105 219 -378zM484 1486l314 308h261l-380 -308h-195z" />
    <glyph glyph-name="cacute" unicode="&#x107;" horiz-adv-x="987" vert-adv-y="2308" 
d="M900 651h-198q-13 78 -44 121q-45 63 -139 63q-100 0 -158 -78q-76 -103 -76 -274q0 -198 96 -294q51 -52 140 -52q112 0 160 91q20 39 30 112h196q-10 -150 -99 -252q-102 -115 -287 -115q-179 0 -299 117q-143 142 -143 394q0 269 161 415q111 100 283 100
q201 0 305 -142q57 -78 72 -206zM372 1106l238 309h261l-342 -309h-157z" />
    <glyph glyph-name="Ccircumflex" unicode="&#x108;" horiz-adv-x="1230" vert-adv-y="2308" 
d="M1139 952h-187q-50 254 -282 254q-151 0 -243 -117q-117 -149 -117 -407q0 -247 107 -395q93 -128 256 -128q178 0 250 155q36 76 44 173h192q-9 -179 -79 -300q-123 -212 -398 -212q-239 0 -399 157q-195 191 -195 548q0 264 104 439q95 159 263 228q105 43 218 43
q137 0 247 -60q194 -105 219 -378zM310 1500l274 279h185l274 -279h-193l-173 169l-173 -169h-194z" />
    <glyph glyph-name="Cdot" unicode="&#x10a;" horiz-adv-x="1230" vert-adv-y="2308" 
d="M669 1786q59 0 102 -43t43 -104q0 -60 -43 -103t-104 -43q-60 0 -103 43t-43 103q0 62 43 104q44 43 105 43zM1139 952h-187q-50 254 -282 254q-151 0 -243 -117q-117 -149 -117 -407q0 -247 107 -395q93 -128 256 -128q178 0 250 155q36 76 44 173h192q-9 -179 -79 -300
q-123 -212 -398 -212q-239 0 -399 157q-195 191 -195 548q0 264 104 439q95 159 263 228q105 43 218 43q137 0 247 -60q194 -105 219 -378z" />
    <glyph glyph-name="cdot" unicode="&#x10b;" horiz-adv-x="987" vert-adv-y="2308" 
d="M518 1391q50 0 86 -37q37 -36 37 -87t-37 -88q-36 -37 -88 -37q-50 0 -87 37t-37 87q0 52 37 88q37 37 89 37zM900 651h-198q-13 78 -44 121q-45 63 -139 63q-100 0 -158 -78q-76 -103 -76 -274q0 -198 96 -294q51 -52 140 -52q112 0 160 91q20 39 30 112h196
q-10 -150 -99 -252q-102 -115 -287 -115q-179 0 -299 117q-143 142 -143 394q0 269 161 415q111 100 283 100q201 0 305 -142q57 -78 72 -206z" />
    <glyph glyph-name="Ccaron" unicode="&#x10c;" horiz-adv-x="1230" vert-adv-y="2308" 
d="M1139 952h-187q-50 254 -282 254q-162 0 -257 -134q-103 -146 -103 -391q0 -247 107 -394q93 -128 257 -128q262 0 293 328h192q-11 -184 -79 -300q-124 -212 -399 -212q-247 0 -406 164q-187 192 -187 540q0 377 209 569q155 142 375 142q138 0 248 -60
q194 -105 219 -378zM1036 1779l-274 -279h-185l-275 279h193l174 -169l172 169h195z" />
    <glyph glyph-name="ccaron" unicode="&#x10d;" horiz-adv-x="987" vert-adv-y="2308" 
d="M900 651h-198q-13 78 -44 121q-45 63 -139 63q-100 0 -158 -78q-76 -103 -76 -274q0 -198 96 -294q51 -52 140 -52q112 0 160 91q20 39 30 112h196q-10 -150 -99 -252q-102 -115 -287 -115q-179 0 -299 117q-143 142 -143 394q0 269 161 415q111 100 283 100
q201 0 305 -142q57 -78 72 -206zM851 1415l-240 -300h-185l-240 300h186l147 -184l145 184h187z" />
    <glyph glyph-name="Dcaron" unicode="&#x10e;" horiz-adv-x="1304" vert-adv-y="2308" 
d="M169 1365h277q166 0 272 -16q219 -34 351 -204q146 -190 146 -461q0 -280 -149 -470q-135 -174 -368 -202q-95 -12 -281 -12h-248v1365zM380 182h110q123 0 191 11q155 27 233 156q83 137 83 336q0 205 -92 340q-83 123 -236 148q-69 11 -230 11h-59v-1002zM976 1779
l-274 -279h-185l-275 279h193l174 -169l172 169h195z" />
    <glyph glyph-name="dcaron" unicode="&#x10f;" horiz-adv-x="1266" vert-adv-y="2308" 
d="M938 1373v-1075q1 -142 4 -201q3 -47 14 -97h-190q-12 52 -12 95q0 12 2 42q-38 -65 -79 -97q-77 -62 -195 -62q-160 0 -265 107q-138 141 -138 392q0 268 153 418q100 99 242 99q111 0 185 -55q34 -26 78 -88v522h201zM512 823q-93 0 -148 -68q-79 -100 -79 -273
q0 -164 74 -262q53 -71 151 -71q95 0 150 66q81 98 81 270q0 167 -69 262q-56 76 -160 76zM1164 941h-105q44 48 76 109q30 63 34 110q-44 2 -70 18q-52 32 -52 93q0 53 39 88q36 33 87 33q58 0 96 -44q37 -43 37 -116q0 -129 -142 -291z" />
    <glyph glyph-name="Dslash" unicode="&#x110;" horiz-adv-x="1304" vert-adv-y="2308" 
d="M170 1365h277q166 0 272 -16q219 -34 351 -205q146 -189 146 -461q0 -279 -149 -469q-135 -174 -368 -202q-95 -12 -281 -12h-248v628h-123v171h123v566zM381 182h110q122 0 191 11q155 27 233 155q83 137 83 337q0 204 -92 340q-84 123 -236 148q-69 11 -230 11h-59
v-385h297v-171h-297v-446z" />
    <glyph glyph-name="dmacron" unicode="&#x111;" horiz-adv-x="1084" vert-adv-y="2308" 
d="M938 1373v-136h123v-137h-123v-802q1 -142 4 -201q3 -47 14 -97h-190q-12 52 -12 95q0 12 2 42q-38 -65 -79 -97q-77 -62 -195 -62q-160 0 -265 107q-138 141 -138 392q0 268 153 418q100 99 243 99q110 0 184 -55q35 -26 78 -88v249h-259v137h259v136h201zM512 823
q-93 0 -148 -68q-79 -99 -79 -273q0 -164 74 -262q53 -71 151 -71q95 0 150 66q81 98 81 270q0 167 -69 262q-56 76 -160 76z" />
    <glyph glyph-name="Emacron" unicode="&#x112;" horiz-adv-x="1066" vert-adv-y="2308" 
d="M380 798h548v-182h-548v-434h615v-182h-826v1365h808v-181h-597v-386zM265 1706h621v-132h-621v132z" />
    <glyph glyph-name="emacron" unicode="&#x113;" horiz-adv-x="1026" vert-adv-y="2308" 
d="M946 442h-664q5 -127 54 -202q67 -102 203 -102q143 0 206 128l181 -13q-31 -104 -100 -172q-109 -108 -292 -108q-170 0 -288 96q-167 137 -167 404q0 185 77 318q67 116 184 169q85 39 186 39q206 0 322 -158q99 -135 99 -351q0 -16 -1 -48zM741 592q-29 246 -219 246
q-186 0 -234 -246h453zM245 1327h576v-131h-576v131z" />
    <glyph glyph-name="Ebreve" unicode="&#x114;" horiz-adv-x="1066" vert-adv-y="2308" 
d="M380 798h548v-182h-548v-434h615v-182h-826v1365h808v-181h-597v-386zM283 1781h90q66 -151 202 -151q134 0 200 151h90q-11 -95 -57 -161q-85 -122 -233 -122q-150 0 -237 127q-44 65 -55 156z" />
    <glyph glyph-name="ebreve" unicode="&#x115;" horiz-adv-x="1026" vert-adv-y="2308" 
d="M946 442h-664q5 -127 54 -202q67 -102 203 -102q143 0 206 128l181 -13q-31 -104 -100 -172q-109 -108 -292 -108q-170 0 -288 96q-167 137 -167 404q0 185 77 318q67 116 184 169q85 39 186 39q206 0 322 -158q99 -135 99 -351q0 -16 -1 -48zM741 592q-29 246 -219 246
q-186 0 -234 -246h453zM268 1396h95q56 -150 174 -150q110 0 167 150h95q-10 -96 -51 -165q-74 -122 -209 -122q-140 0 -218 124q-43 68 -53 163z" />
    <glyph glyph-name="Edot" unicode="&#x116;" horiz-adv-x="1066" vert-adv-y="2308" 
d="M380 798h548v-182h-548v-434h615v-182h-826v1365h808v-181h-597v-386zM577 1786q59 0 102 -43t43 -104q0 -60 -43 -103t-103 -43q-61 0 -104 43t-43 103q0 62 43 104q44 43 105 43z" />
    <glyph glyph-name="edot" unicode="&#x117;" horiz-adv-x="1026" vert-adv-y="2308" 
d="M946 442h-664q5 -127 54 -202q67 -102 203 -102q143 0 206 128l181 -13q-31 -104 -100 -172q-109 -108 -292 -108q-170 0 -288 96q-167 137 -167 404q0 185 77 318q67 116 184 169q85 39 186 39q206 0 322 -158q99 -135 99 -351q0 -16 -1 -48zM741 592q-29 246 -219 246
q-186 0 -234 -246h453zM536 1391q50 0 86 -37q37 -36 37 -87t-37 -88t-87 -37q-51 0 -88 37t-37 87q0 52 37 88q37 37 89 37z" />
    <glyph glyph-name="Eogonek" unicode="&#x118;" horiz-adv-x="1066" vert-adv-y="2308" 
d="M995 0q-93 -69 -132 -106q-51 -49 -51 -100q0 -47 36 -74q28 -20 75 -20q42 0 94 18v-103q-74 -32 -141 -32q-110 0 -173 68q-51 55 -51 129q0 100 94 167q34 25 96 53h-673v1365h808v-181h-597v-386h548v-182h-548v-434h615v-182z" />
    <glyph glyph-name="eogonek" unicode="&#x119;" horiz-adv-x="1026" vert-adv-y="2308" 
d="M858 -266v-99q-61 -28 -131 -28q-105 0 -164 64q-46 50 -46 121q0 77 57 133q26 25 89 65q-74 -17 -127 -17q-137 0 -242 63q-106 62 -161 177q-54 112 -54 260q0 184 77 318q67 116 184 169q85 39 186 39q206 0 322 -158q99 -135 99 -351q0 -16 -1 -48h-664
q5 -127 54 -202q67 -102 203 -102q143 0 206 128l181 -13q-13 -49 -40 -95q-29 -46 -112 -150q-61 -74 -88 -126q-21 -40 -21 -80t24 -61q30 -26 77 -26q46 0 92 19zM741 592q-29 246 -219 246q-186 0 -234 -246h453z" />
    <glyph glyph-name="Ecaron" unicode="&#x11a;" horiz-adv-x="1066" vert-adv-y="2308" 
d="M380 798h548v-182h-548v-434h615v-182h-826v1365h808v-181h-597v-386zM942 1779l-274 -279h-185l-275 279h193l174 -169l172 169h195z" />
    <glyph glyph-name="ecaron" unicode="&#x11b;" horiz-adv-x="1026" vert-adv-y="2308" 
d="M946 442h-664q5 -127 54 -202q67 -102 203 -102q143 0 206 128l181 -13q-31 -104 -100 -172q-109 -108 -292 -108q-170 0 -288 96q-167 137 -167 404q0 185 77 318q67 116 184 169q85 39 186 39q206 0 322 -158q99 -135 99 -351q0 -16 -1 -48zM741 592q-29 246 -219 246
q-186 0 -234 -246h453zM865 1415l-240 -300h-185l-240 300h186l147 -184l145 184h187z" />
    <glyph glyph-name="Gcircumflex" unicode="&#x11c;" horiz-adv-x="1295" vert-adv-y="2308" 
d="M311 1500l274 279h185l275 -279h-194l-173 169l-172 -169h-195zM721 692h456v-565q-216 -152 -477 -152q-257 0 -418 160q-194 193 -194 549q0 354 194 548q159 158 395 158q145 0 260 -62q139 -76 191 -221q21 -60 30 -152h-187q-46 251 -292 251q-158 0 -248 -110
q-121 -147 -121 -411q0 -261 118 -408q95 -118 271 -118q155 0 298 89v278h-276v166z" />
    <glyph glyph-name="gcircumflex" unicode="&#x11d;" horiz-adv-x="1040" vert-adv-y="2308" 
d="M201 1115l240 300h185l241 -300h-186l-147 184l-146 -184h-187zM999 972v-146h-199q19 -19 34 -52q32 -69 32 -143q0 -113 -63 -185q-53 -60 -169 -90q-45 -11 -194 -33q-60 -9 -90 -41q-12 -12 -12 -29q0 -25 30 -38q23 -10 175 -25q226 -22 304 -63q57 -30 89 -83
q39 -64 39 -144q0 -158 -138 -242q-119 -72 -324 -72q-229 0 -355 87q-109 74 -109 196q0 163 200 233q-107 43 -107 116q0 62 67 105q40 25 106 51q-179 82 -179 278q0 157 109 250q103 88 273 88q79 0 171 -26zM503 835q-84 0 -137 -53q-50 -50 -50 -128q0 -73 47 -119
q52 -51 139 -51q90 0 141 51q47 46 47 119q0 76 -47 127q-51 54 -140 54zM486 28q-109 0 -179 -31q-82 -37 -82 -112q0 -73 86 -110q84 -36 205 -36q134 0 208 47q57 37 57 96q0 146 -295 146z" />
    <glyph glyph-name="Gbreve" unicode="&#x11e;" horiz-adv-x="1295" vert-adv-y="2308" 
d="M721 692h456v-565q-216 -152 -479 -152q-269 0 -427 168q-183 195 -183 540q0 239 90 410q84 159 238 236q120 61 263 61q144 0 259 -62q196 -105 220 -373h-187q-46 251 -289 251q-166 0 -257 -117q-115 -146 -115 -407q0 -260 118 -406q95 -117 270 -117q156 0 299 89
v278h-276v166zM385 1781h90q66 -151 201 -151q134 0 201 151h89q-11 -95 -56 -161q-86 -122 -233 -122q-151 0 -237 127q-44 65 -55 156z" />
    <glyph glyph-name="gbreve" unicode="&#x11f;" horiz-adv-x="1040" vert-adv-y="2308" 
d="M999 972v-146h-199q19 -19 34 -52q32 -69 32 -143q0 -113 -63 -185q-53 -60 -169 -90q-45 -11 -194 -33q-60 -9 -90 -41q-12 -12 -12 -29q0 -25 30 -38q23 -10 175 -25q226 -22 304 -63q57 -30 89 -83q39 -64 39 -144q0 -158 -138 -242q-119 -72 -324 -72q-229 0 -355 87
q-109 74 -109 196q0 163 200 233q-107 43 -107 116q0 62 67 105q40 25 106 51q-179 82 -179 278q0 157 109 250q103 88 273 88q79 0 171 -26zM503 835q-84 0 -137 -53q-50 -50 -50 -128q0 -73 47 -119q52 -51 139 -51q90 0 141 51q47 46 47 119q0 76 -47 127q-51 54 -140 54
zM486 28q-109 0 -179 -31q-82 -37 -82 -112q0 -73 86 -110q84 -36 205 -36q134 0 208 47q57 37 57 96q0 146 -295 146zM269 1396h95q56 -150 174 -150q110 0 167 150h95q-10 -96 -51 -165q-74 -122 -209 -122q-140 0 -218 124q-43 68 -53 163z" />
    <glyph glyph-name="Gdot" unicode="&#x120;" horiz-adv-x="1295" vert-adv-y="2308" 
d="M680 1786q59 0 102 -43t43 -104q0 -60 -43 -103t-103 -43q-61 0 -104 43t-43 103q0 62 43 104q44 43 105 43zM721 692h456v-565q-216 -152 -477 -152q-257 0 -418 160q-194 193 -194 549q0 354 194 548q159 158 395 158q145 0 260 -62q139 -76 191 -221q21 -60 30 -152
h-187q-46 251 -292 251q-158 0 -248 -110q-121 -147 -121 -411q0 -261 118 -408q95 -118 271 -118q155 0 298 89v278h-276v166z" />
    <glyph glyph-name="gdot" unicode="&#x121;" horiz-adv-x="1040" vert-adv-y="2308" 
d="M999 972v-146h-199q19 -19 34 -52q32 -69 32 -143q0 -113 -63 -185q-53 -60 -169 -90q-45 -11 -194 -33q-60 -9 -90 -41q-12 -12 -12 -29q0 -25 30 -38q23 -10 175 -25q226 -22 304 -63q57 -30 89 -83q39 -64 39 -144q0 -158 -138 -242q-119 -72 -324 -72q-229 0 -355 87
q-109 74 -109 196q0 163 200 233q-107 43 -107 116q0 62 67 105q40 25 106 51q-179 82 -179 278q0 157 109 250q103 88 273 88q79 0 171 -26zM503 835q-84 0 -137 -53q-50 -50 -50 -128q0 -73 47 -119q52 -51 139 -51q90 0 141 51q47 46 47 119q0 76 -47 127q-51 54 -140 54
zM486 28q-109 0 -179 -31q-82 -37 -82 -112q0 -73 86 -110q84 -36 205 -36q134 0 208 47q57 37 57 96q0 146 -295 146zM534 1391q50 0 86 -37q37 -36 37 -87t-37 -88t-88 -37q-50 0 -87 37t-37 87q0 52 37 88q37 37 89 37z" />
    <glyph glyph-name="Gcedilla" unicode="&#x122;" horiz-adv-x="1295" vert-adv-y="2308" 
d="M721 692h456v-565q-216 -152 -479 -152q-269 0 -427 168q-183 195 -183 540q0 239 90 410q84 159 238 236q120 61 263 61q144 0 259 -62q196 -105 220 -373h-187q-46 251 -289 251q-166 0 -257 -117q-115 -146 -115 -407q0 -260 118 -406q95 -117 270 -117q156 0 299 89
v278h-276v166zM677 -555h-104q43 47 75 108q30 62 34 109q-43 2 -69 18q-51 31 -51 91q0 52 38 87q36 33 86 33q57 0 94 -43t37 -115q0 -129 -140 -288z" />
    <glyph glyph-name="gcedilla" unicode="&#x123;" horiz-adv-x="1040" vert-adv-y="2308" 
d="M999 972v-146h-199q19 -19 34 -52q32 -69 32 -143q0 -113 -63 -185q-53 -60 -169 -90q-45 -11 -194 -33q-60 -9 -90 -41q-12 -12 -12 -29q0 -25 30 -38q23 -10 175 -25q226 -22 304 -63q57 -30 89 -83q39 -64 39 -144q0 -158 -138 -242q-119 -72 -324 -72q-229 0 -355 87
q-109 74 -109 196q0 163 200 233q-107 43 -107 116q0 62 67 105q40 25 106 51q-179 82 -179 278q0 157 109 250q103 88 273 88q79 0 171 -26zM503 835q-84 0 -137 -53q-50 -50 -50 -128q0 -73 47 -119q52 -51 139 -51q90 0 141 51q47 46 47 119q0 76 -47 127q-51 54 -140 54
zM486 28q-109 0 -179 -31q-82 -37 -82 -112q0 -73 86 -110q84 -36 205 -36q134 0 208 47q57 37 57 96q0 146 -295 146zM543 1556h105q-44 -48 -75 -109q-31 -62 -35 -110q45 -2 71 -18q52 -32 52 -93q0 -52 -39 -88q-36 -33 -87 -33q-58 0 -96 44q-37 43 -37 117
q0 131 141 290z" />
    <glyph glyph-name="Hcircumflex" unicode="&#x124;" horiz-adv-x="1350" vert-adv-y="2308" 
d="M380 800h589v565h211v-1365h-211v625h-589v-625h-211v1365h211v-565zM308 1500l274 279h185l275 -279h-194l-173 169l-172 -169h-195z" />
    <glyph glyph-name="Hbar" unicode="&#x126;" horiz-adv-x="1350" vert-adv-y="2308" 
d="M969 1159v206h211v-206h123v-171h-123v-988h-211v625h-589v-625h-211v988h-123v171h123v206h211v-206h589zM969 988h-589v-188h589v188z" />
    <glyph glyph-name="hbar" unicode="&#x127;" horiz-adv-x="1086" vert-adv-y="2308" 
d="M145 1373h201v-136h273v-137h-273v-239q108 133 279 133q102 0 186 -49q97 -57 123 -174q13 -56 13 -211v-560h-201v526q0 148 -26 200q-46 90 -155 90q-73 0 -131 -46q-57 -46 -76 -127q-12 -50 -12 -128v-515h-201v1100h-123v137h123v136z" />
    <glyph glyph-name="Imacron" unicode="&#x12a;" horiz-adv-x="551" vert-adv-y="2308" 
d="M381 0h-213v1365h213v-1365zM19 1706h512v-132h-512v132z" />
    <glyph glyph-name="imacron" unicode="&#x12b;" horiz-adv-x="496" vert-adv-y="2308" 
d="M145 972h205v-972h-205v972zM14 1327h467v-131h-467v131z" />
    <glyph glyph-name="ibreve" unicode="&#x12d;" horiz-adv-x="495" vert-adv-y="2308" 
d="M145 972h205v-972h-205v972zM-3 1389h95q13 -49 41 -85q47 -58 116 -58q72 0 111 57q21 30 43 86h95q-11 -93 -45 -158q-64 -122 -201 -122q-146 0 -212 124q-33 63 -43 156z" />
    <glyph glyph-name="Iogonek" unicode="&#x12e;" horiz-adv-x="550" vert-adv-y="2308" 
d="M271 0h-103v1365h214v-1365q-58 -71 -81 -106q-31 -47 -31 -105q0 -59 48 -80q21 -9 50 -9q19 0 66 18v-103q-69 -33 -120 -33q-60 0 -110 31q-43 26 -69 73q-25 45 -25 95q0 118 161 219z" />
    <glyph glyph-name="iogonek" unicode="&#x12f;" horiz-adv-x="495" vert-adv-y="2308" 
d="M351 0q-115 -122 -115 -197q0 -38 26 -65q21 -22 55 -22q37 0 78 17v-98q-57 -28 -110 -28q-59 0 -107 28q-90 53 -90 157q0 74 54 133q26 28 95 75h-92v972h206v-972zM252 1388q51 0 85 -31q38 -35 38 -97q0 -56 -34 -90q-36 -36 -93 -36q-58 0 -92 35q-35 34 -35 89
q0 62 39 97q37 33 92 33z" />
    <glyph glyph-name="Idot" unicode="&#x130;" horiz-adv-x="550" vert-adv-y="2308" 
d="M382 0h-213v1365h213v-1365zM277 1786q59 0 102 -43t43 -104q0 -60 -43 -103t-103 -43q-61 0 -104 43t-43 103q0 62 43 104q44 43 105 43z" />
    <glyph glyph-name="IJ" unicode="&#x132;" horiz-adv-x="1165" vert-adv-y="2308" 
d="M381 0h-213v1365h213v-1365zM787 1365h213v-1089q0 -156 -6 -220q-30 -287 -408 -287q-22 0 -69 2v178q103 -1 155 13q73 21 96 70q16 37 18 121q1 31 1 121v1091z" />
    <glyph glyph-name="ij" unicode="&#x133;" horiz-adv-x="1025" vert-adv-y="2308" 
d="M145 972h205v-972h-205v972zM252 1388q51 0 85 -31q38 -35 38 -97q0 -56 -34 -90q-36 -36 -93 -36t-92 35q-35 34 -35 89q0 62 39 97q37 33 92 33zM679 972h205v-858q0 -161 -13 -225q-30 -149 -158 -220q-87 -48 -247 -48q-16 0 -48 1v174q22 -1 34 -1q160 0 204 87
q19 39 22 112q0 22 1 119v859zM786 1387q51 0 84 -31q38 -35 38 -96q0 -56 -34 -91q-35 -35 -93 -35q-57 0 -92 34q-34 35 -34 90q0 61 39 96q36 33 92 33z" />
    <glyph glyph-name="Kcedilla" unicode="&#x136;" horiz-adv-x="1214" vert-adv-y="2308" 
d="M909 1365h247l-532 -639l575 -726h-276l-540 720zM169 1365h211v-1365h-211v1365zM634 -555h-104q43 47 75 108q30 62 34 109q-43 2 -69 18q-51 31 -51 91q0 52 38 87q36 33 86 33q57 0 94 -43t37 -115q0 -129 -140 -288z" />
    <glyph glyph-name="kcedilla" unicode="&#x137;" horiz-adv-x="1046" vert-adv-y="2308" 
d="M731 972h243l-384 -445l415 -527h-272l-383 523zM145 1373h201v-1373h-201v1373zM522 -561h-105q44 48 76 109q30 62 34 110q-44 2 -70 18q-52 32 -52 93q0 52 39 88q36 33 87 33q58 0 96 -44q37 -43 37 -117q0 -129 -142 -290z" />
    <glyph glyph-name="kgreenlandic" unicode="&#x138;" horiz-adv-x="1046" vert-adv-y="2308" 
d="M731 972h243l-384 -445l415 -527h-272l-383 523zM145 972h201v-972h-201v972z" />
    <glyph glyph-name="Lacute" unicode="&#x139;" horiz-adv-x="1016" vert-adv-y="2308" 
d="M169 1365h217v-1183h589v-182h-806v1365zM142 1486l314 308h261l-380 -308h-195z" />
    <glyph glyph-name="lacute" unicode="&#x13a;" horiz-adv-x="495" vert-adv-y="2308" 
d="M145 1373h205v-1373h-205v1373zM118 1486l238 309h261l-342 -309h-157z" />
    <glyph glyph-name="Lcedilla" unicode="&#x13b;" horiz-adv-x="1016" vert-adv-y="2308" 
d="M169 1365h217v-1183h589v-182h-806v1365zM563 -555h-104q43 47 75 108q30 62 34 109q-43 2 -69 18q-51 31 -51 91q0 52 38 87q36 33 86 33q57 0 94 -43t37 -115q0 -129 -140 -288z" />
    <glyph glyph-name="lcedilla" unicode="&#x13c;" horiz-adv-x="495" vert-adv-y="2308" 
d="M135 1373h205v-1373h-205v1373zM221 -561h-105q44 48 76 109q30 62 34 110q-44 2 -70 18q-52 32 -52 93q0 52 39 88q36 33 87 33q58 0 96 -44q37 -43 37 -117q0 -129 -142 -290z" />
    <glyph glyph-name="Lcaron" unicode="&#x13d;" horiz-adv-x="1016" vert-adv-y="2308" 
d="M169 1365h217v-1183h589v-182h-806v1365zM692 947h-104q43 46 75 108q31 62 34 108q-43 3 -69 18q-51 31 -51 92q0 51 38 86q36 33 86 33q57 0 94 -43t37 -115q0 -129 -140 -287z" />
    <glyph glyph-name="lcaron" unicode="&#x13e;" horiz-adv-x="674" vert-adv-y="2308" 
d="M145 1373h205v-1373h-205v1373zM576 947h-105q44 48 76 109q30 63 34 110q-44 2 -70 18q-52 32 -52 93q0 53 39 88q36 33 87 33q58 0 96 -44q37 -43 37 -116q0 -129 -142 -291z" />
    <glyph glyph-name="Ldot" unicode="&#x13f;" horiz-adv-x="1016" vert-adv-y="2308" 
d="M169 1365h217v-1183h589v-182h-806v1365zM784 837q63 0 109 -46t46 -111q0 -64 -46 -110t-111 -46t-110 46q-46 46 -46 110q0 66 45 110q47 47 113 47z" />
    <glyph glyph-name="ldot" unicode="&#x140;" horiz-adv-x="779" vert-adv-y="2308" 
d="M145 1373h205v-1373h-205v1373zM641 857q56 0 97 -41q40 -41 40 -98t-41 -98q-40 -40 -97 -40q-58 0 -99 41q-40 40 -40 97q0 58 40 98q42 41 100 41z" />
    <glyph glyph-name="Lslash" unicode="&#x141;" horiz-adv-x="1016" vert-adv-y="2308" 
d="M170 715v650h217v-530l321 238v-189l-321 -238v-464h588v-182h-805v526l-137 -107v189z" />
    <glyph glyph-name="lslash" unicode="&#x142;" horiz-adv-x="495" vert-adv-y="2308" 
d="M145 772v601h205v-499l147 103v-159l-147 -103v-715h-205v612l-146 -105v159z" />
    <glyph glyph-name="Nacute" unicode="&#x143;" horiz-adv-x="1368" vert-adv-y="2308" 
d="M169 1365h227l602 -1043v1043h200v-1365h-218l-610 1041v-1041h-201v1365zM501 1486l314 308h261l-380 -308h-195z" />
    <glyph glyph-name="nacute" unicode="&#x144;" horiz-adv-x="1080" vert-adv-y="2308" 
d="M118 972h194q19 -51 20 -132q104 154 293 154q114 0 196 -57q98 -70 114 -203q6 -49 6 -174v-560h-201v526q0 150 -24 202q-41 88 -151 88q-125 0 -185 -106q-35 -61 -35 -191v-519h-201v632q0 184 -6 241q-4 36 -20 99zM376 1106l238 309h261l-342 -309h-157z" />
    <glyph glyph-name="Ncedilla" unicode="&#x145;" horiz-adv-x="1368" vert-adv-y="2308" 
d="M169 1365h227l602 -1043v1043h200v-1365h-218l-610 1041v-1041h-201v1365zM660 -555h-104q43 47 75 108q30 62 34 109q-43 2 -69 18q-51 31 -51 91q0 52 38 87q36 33 86 33q57 0 94 -43t37 -115q0 -129 -140 -288z" />
    <glyph glyph-name="ncedilla" unicode="&#x146;" horiz-adv-x="1080" vert-adv-y="2308" 
d="M118 972h194q19 -51 20 -132q104 154 293 154q114 0 196 -57q98 -70 114 -203q6 -49 6 -174v-560h-201v526q0 150 -24 202q-41 88 -151 88q-125 0 -185 -106q-35 -61 -35 -191v-519h-201v632q0 184 -6 241q-4 36 -20 99zM515 -561h-105q44 48 76 109q30 62 34 110
q-44 2 -70 18q-52 32 -52 93q0 52 39 88q36 33 87 33q58 0 96 -44q37 -43 37 -117q0 -129 -142 -290z" />
    <glyph glyph-name="Ncaron" unicode="&#x147;" horiz-adv-x="1368" vert-adv-y="2308" 
d="M169 1365h227l602 -1043v1043h200v-1365h-218l-610 1041v-1041h-201v1365zM1050 1779l-274 -279h-185l-275 279h193l174 -169l172 169h195z" />
    <glyph glyph-name="ncaron" unicode="&#x148;" horiz-adv-x="1080" vert-adv-y="2308" 
d="M118 972h194q19 -51 20 -132q104 154 293 154q114 0 196 -57q98 -70 114 -203q6 -49 6 -174v-560h-201v526q0 150 -24 202q-41 88 -151 88q-125 0 -185 -106q-35 -61 -35 -191v-519h-201v632q0 184 -6 241q-4 36 -20 99zM855 1415l-240 -300h-185l-240 300h186l147 -184
l145 184h187z" />
    <glyph glyph-name="napostrophe" unicode="&#x149;" horiz-adv-x="1308" vert-adv-y="2308" 
d="M190 910h-120q48 53 82 118q34 66 39 119q-47 2 -74 19q-54 33 -54 97q0 55 41 93q37 34 90 34q60 0 100 -46q39 -45 39 -122q0 -142 -143 -312zM345 972h195q19 -51 20 -132q103 154 293 154q114 0 196 -57q98 -69 114 -203q6 -49 6 -174v-560h-201v526q0 150 -24 202
q-41 88 -151 88q-125 0 -185 -106q-35 -62 -35 -191v-519h-201v632q0 184 -6 241q-5 42 -21 99z" />
    <glyph glyph-name="Eng" unicode="&#x14a;" horiz-adv-x="1337" vert-adv-y="2308" 
d="M141 1374h202q28 -70 28 -175q138 192 383 192q145 0 253 -73q131 -87 156 -256q11 -76 11 -219v-715q0 -156 -7 -220q-29 -288 -405 -288q-23 0 -71 2v178q104 -1 156 13q75 21 98 74q19 45 18 238v670q0 205 -40 284q-64 129 -232 129q-179 0 -258 -153
q-44 -85 -44 -292v-763h-211v932q0 231 -8 311q-7 54 -29 131z" />
    <glyph glyph-name="eng" unicode="&#x14b;" horiz-adv-x="1079" vert-adv-y="2308" 
d="M117 972h194q19 -50 20 -132q104 154 293 154q114 0 196 -57q98 -70 114 -203q6 -49 6 -174v-446q0 -162 -13 -225q-30 -150 -158 -220q-87 -48 -249 -48q-16 0 -46 1v174q23 -1 35 -1q161 0 206 87q21 39 23 112q1 46 1 119v413q0 146 -24 201q-40 88 -151 88
q-125 0 -185 -106q-35 -61 -35 -190v-519h-201v632q0 184 -6 241q-4 36 -20 99z" />
    <glyph glyph-name="Omacron" unicode="&#x14c;" horiz-adv-x="1353" vert-adv-y="2308" 
d="M684 1390q235 0 398 -172q183 -193 183 -536q0 -341 -183 -535q-162 -172 -406 -172q-243 0 -405 172q-183 194 -183 533q0 344 183 538q162 172 413 172zM671 1208q-101 0 -183 -59q-98 -70 -144 -222q-34 -109 -34 -245q0 -242 106 -393q92 -132 260 -132
q169 0 261 132q106 151 106 391q0 249 -106 396q-95 132 -266 132zM366 1706h621v-132h-621v132z" />
    <glyph glyph-name="omacron" unicode="&#x14d;" horiz-adv-x="1066" vert-adv-y="2308" 
d="M538 999q173 0 298 -120q71 -67 108 -164q43 -109 43 -230q0 -171 -77 -301q-69 -115 -190 -170q-89 -41 -187 -41q-178 0 -303 119q-71 67 -108 163q-43 109 -43 229q0 172 77 302q69 116 190 172q89 41 192 41zM530 835q-105 0 -170 -89q-75 -101 -75 -261
q0 -158 75 -259q65 -88 173 -88q109 0 173 88q75 101 75 257q0 163 -75 263q-66 89 -176 89zM241 1327h576v-131h-576v131z" />
    <glyph glyph-name="Odblacute" unicode="&#x150;" horiz-adv-x="1353" vert-adv-y="2308" 
d="M684 1390q235 0 398 -172q183 -193 183 -536q0 -341 -183 -535q-162 -172 -406 -172q-243 0 -405 172q-183 194 -183 533q0 344 183 538q162 172 413 172zM671 1208q-101 0 -183 -59q-98 -70 -144 -222q-34 -109 -34 -245q0 -242 106 -393q92 -132 260 -132
q169 0 261 132q106 151 106 391q0 249 -106 396q-95 132 -266 132zM434 1486l253 308h234l-328 -308h-159zM750 1486l252 308h235l-328 -308h-159z" />
    <glyph glyph-name="odblacute" unicode="&#x151;" horiz-adv-x="1066" vert-adv-y="2308" 
d="M538 999q173 0 298 -120q71 -67 108 -164q43 -109 43 -230q0 -171 -77 -301q-69 -115 -190 -170q-89 -41 -187 -41q-178 0 -303 119q-71 67 -108 163q-43 109 -43 229q0 172 77 302q69 116 190 172q89 41 192 41zM530 835q-105 0 -170 -89q-75 -101 -75 -261
q0 -158 75 -259q65 -88 173 -88q109 0 173 88q75 101 75 257q0 163 -75 263q-66 89 -176 89zM320 1106l200 309h228l-284 -309h-144zM621 1106l200 309h228l-284 -309h-144z" />
    <glyph glyph-name="Racute" unicode="&#x154;" horiz-adv-x="1181" vert-adv-y="2308" 
d="M169 1365h294q169 0 260 -12q171 -24 264 -133q88 -105 88 -259q0 -270 -261 -375l336 -586h-249l-311 550h-210v-550h-211v1365zM380 732h95q180 0 248 25q68 24 103 84q31 53 31 122q0 135 -107 187q-54 27 -148 32q-38 2 -138 2h-84v-452zM406 1486l314 308h261
l-380 -308h-195z" />
    <glyph glyph-name="racute" unicode="&#x155;" horiz-adv-x="723" vert-adv-y="2308" 
d="M132 972h192q15 -74 15 -151q0 -19 -2 -55q105 228 265 228q41 0 97 -20v-203q-78 43 -142 43q-119 0 -175 -132q-35 -82 -35 -238v-444h-202v656q-1 231 -13 316zM245 1106l238 309h261l-342 -309h-157z" />
    <glyph glyph-name="Rcedilla" unicode="&#x156;" horiz-adv-x="1181" vert-adv-y="2308" 
d="M169 1365h294q169 0 260 -12q171 -24 264 -133q88 -105 88 -259q0 -270 -261 -375l336 -586h-249l-311 550h-210v-550h-211v1365zM380 732h95q180 0 248 25q68 24 103 84q31 53 31 122q0 135 -107 187q-54 27 -148 32q-38 2 -138 2h-84v-452zM609 -555h-104q43 47 75 108
q30 62 34 109q-43 2 -69 18q-51 31 -51 91q0 52 38 87q36 33 86 33q57 0 94 -43t37 -115q0 -129 -140 -288z" />
    <glyph glyph-name="rcedilla" unicode="&#x157;" horiz-adv-x="723" vert-adv-y="2308" 
d="M131 972h192q15 -74 15 -151q0 -19 -2 -55q105 228 265 228q41 0 97 -20v-203q-78 43 -142 43q-119 0 -175 -132q-35 -82 -35 -238v-444h-202v656q-1 231 -13 316zM232 -560h-105q44 48 76 109q30 62 34 110q-44 2 -70 18q-52 32 -52 93q0 52 39 88q36 33 87 33
q58 0 96 -44q37 -43 37 -117q0 -129 -142 -290z" />
    <glyph glyph-name="Rcaron" unicode="&#x158;" horiz-adv-x="1181" vert-adv-y="2308" 
d="M169 1365h294q169 0 260 -12q171 -24 264 -133q88 -105 88 -259q0 -270 -261 -375l336 -586h-249l-311 550h-210v-550h-211v1365zM380 732h95q180 0 248 25q68 24 103 84q31 53 31 122q0 135 -107 187q-54 27 -148 32q-38 2 -138 2h-84v-452zM959 1779l-274 -279h-185
l-275 279h193l174 -169l172 169h195z" />
    <glyph glyph-name="rcaron" unicode="&#x159;" horiz-adv-x="723" vert-adv-y="2308" 
d="M131 972h192q15 -74 15 -151q0 -19 -2 -55q105 228 265 228q41 0 97 -20v-203q-78 43 -142 43q-119 0 -175 -132q-35 -82 -35 -238v-444h-202v656q-1 231 -13 316zM747 1415l-240 -300h-185l-240 300h186l147 -184l145 184h187z" />
    <glyph glyph-name="Sacute" unicode="&#x15a;" horiz-adv-x="1140" vert-adv-y="2308" 
d="M1009 987h-204q-7 87 -52 140q-66 79 -190 79q-88 0 -151 -44q-72 -50 -72 -133q0 -75 76 -121q46 -28 233 -107q159 -67 217 -101q183 -109 183 -319q0 -201 -152 -315q-122 -91 -317 -91q-287 0 -416 186q-73 105 -81 281h205q11 -128 70 -194q79 -89 226 -89
q108 0 179 53q69 51 69 134q0 88 -89 149q-48 33 -225 108q-208 89 -280 156q-110 101 -110 251q0 191 151 295q122 85 290 85q146 0 256 -66q126 -75 165 -211q15 -50 19 -126zM385 1486l314 308h261l-380 -308h-195z" />
    <glyph glyph-name="sacute" unicode="&#x15b;" horiz-adv-x="949" vert-adv-y="2308" 
d="M849 689h-194q-9 70 -39 103q-45 51 -137 51q-68 0 -115 -34q-45 -34 -45 -89q0 -52 42 -80q38 -25 190 -70q137 -40 191 -71q119 -68 119 -218q0 -139 -94 -221q-99 -87 -282 -87q-281 0 -368 179q-33 66 -33 161h191q7 -83 41 -122q55 -61 164 -61q73 0 122 31
q56 35 56 105q0 60 -64 93q-36 19 -212 72q-146 44 -200 100q-64 67 -64 170q0 135 103 218q100 80 261 80q223 0 317 -142q44 -66 50 -168zM336 1106l238 309h261l-342 -309h-157z" />
    <glyph glyph-name="Scircumflex" unicode="&#x15c;" horiz-adv-x="1140" vert-adv-y="2308" 
d="M206 1500l274 279h185l274 -279h-193l-173 169l-173 -169h-194zM1012 987h-206q-8 91 -50 141q-66 78 -192 78q-89 0 -153 -42q-73 -49 -73 -132q0 -81 76 -126q39 -24 234 -105q167 -70 219 -101q108 -66 149 -156q33 -74 33 -165q0 -204 -148 -316q-118 -88 -315 -88
q-293 0 -423 184q-74 105 -79 283h205q12 -132 69 -195q79 -88 230 -88q111 0 179 51q66 49 66 134q0 92 -88 152q-51 35 -226 108q-213 90 -283 154q-109 100 -109 254q0 191 151 294q124 84 291 84q149 0 260 -65q126 -75 165 -212q14 -50 18 -126z" />
    <glyph glyph-name="scircumflex" unicode="&#x15d;" horiz-adv-x="949" vert-adv-y="2308" 
d="M154 1115l241 300h184l241 -300h-186l-147 184l-145 -184h-188zM849 689h-194q-9 70 -39 103q-45 51 -137 51q-68 0 -115 -34q-45 -34 -45 -89q0 -52 42 -80q38 -25 190 -70q137 -40 191 -71q119 -68 119 -218q0 -139 -94 -221q-99 -87 -282 -87q-281 0 -368 179
q-33 66 -33 161h191q7 -83 41 -122q55 -61 164 -61q73 0 122 31q56 35 56 105q0 60 -64 93q-36 19 -212 72q-146 44 -200 100q-64 67 -64 170q0 135 103 218q100 80 261 80q223 0 317 -142q44 -66 50 -168z" />
    <glyph glyph-name="Scedilla" unicode="&#x15e;" horiz-adv-x="1140" vert-adv-y="2308" 
d="M596 -25l-35 -93q82 -14 131 -50q76 -55 76 -151q0 -99 -76 -162q-64 -54 -157 -54q-78 0 -185 55v101q88 -39 135 -39q49 0 81 26q40 33 40 90q0 75 -64 104q-34 15 -79 15q-19 0 -57 -5l59 172q-197 34 -301 177q-75 111 -81 281h205q11 -128 70 -194q79 -89 226 -89
q108 0 179 53q69 51 69 134q0 88 -89 149q-48 33 -225 108q-209 90 -281 156q-109 102 -109 251q0 190 150 295q123 85 290 85q248 0 370 -169q63 -87 71 -234h-204q-7 87 -52 140q-67 79 -191 79q-87 0 -150 -44q-72 -50 -72 -133q0 -75 75 -121q47 -28 233 -107
q163 -68 218 -101q183 -110 183 -319q0 -158 -99 -267q-123 -136 -354 -139z" />
    <glyph glyph-name="scedilla" unicode="&#x15f;" horiz-adv-x="949" vert-adv-y="2308" 
d="M486 -27l-30 -75q182 -32 182 -173q0 -88 -67 -143q-56 -47 -138 -47q-73 0 -165 48v89q85 -34 121 -34q45 0 72 22q35 29 35 80q0 64 -56 91q-31 14 -73 14q-17 0 -48 -3l53 141q-184 32 -254 169q-34 69 -33 161h191q7 -83 41 -122q55 -61 164 -61q73 0 122 31
q56 35 56 105q0 60 -64 93q-36 19 -212 72q-146 44 -200 100q-64 67 -64 170q0 135 103 218q100 80 261 80q223 0 317 -142q44 -66 50 -168h-194q-9 70 -39 103q-45 51 -137 51q-68 0 -115 -34q-45 -34 -45 -89q0 -52 42 -80q38 -25 190 -70q136 -40 191 -71
q119 -68 119 -218q0 -107 -62 -187q-66 -86 -209 -112q-47 -9 -89 -9h-16z" />
    <glyph glyph-name="Scaron" unicode="&#x160;" horiz-adv-x="1140" vert-adv-y="2308" 
d="M1009 987h-204q-7 87 -52 140q-66 79 -190 79q-88 0 -151 -44q-72 -50 -72 -133q0 -75 76 -121q46 -28 233 -107q159 -67 217 -101q183 -109 183 -319q0 -201 -152 -315q-122 -91 -317 -91q-287 0 -416 186q-73 105 -81 281h205q11 -128 70 -194q79 -89 226 -89
q108 0 179 53q69 51 69 134q0 88 -89 149q-48 33 -225 108q-208 89 -280 156q-110 101 -110 251q0 191 151 295q122 85 290 85q146 0 256 -66q126 -75 165 -211q15 -50 19 -126zM940 1779l-274 -279h-185l-275 279h193l174 -169l172 169h195z" />
    <glyph glyph-name="scaron" unicode="&#x161;" horiz-adv-x="949" vert-adv-y="2308" 
d="M849 689h-194q-9 70 -39 103q-45 51 -137 51q-68 0 -115 -34q-45 -34 -45 -89q0 -52 42 -80q38 -25 190 -70q137 -40 191 -71q119 -68 119 -218q0 -139 -94 -221q-99 -87 -282 -87q-281 0 -368 179q-33 66 -33 161h191q7 -83 41 -122q55 -61 164 -61q73 0 122 31
q56 35 56 105q0 60 -64 93q-36 19 -212 72q-146 44 -200 100q-64 67 -64 170q0 135 103 218q100 80 261 80q223 0 317 -142q44 -66 50 -168zM818 1415l-240 -300h-185l-240 300h186l147 -184l145 184h187z" />
    <glyph glyph-name="Tcedilla" unicode="&#x162;" horiz-adv-x="992" vert-adv-y="2308" 
d="M33 1365h927v-181h-359v-1184h-211v1184h-357v181zM484 -555h-104q43 47 75 108q30 62 34 109q-43 2 -69 18q-51 31 -51 91q0 52 38 87q36 33 86 33q57 0 94 -43t37 -115q0 -129 -140 -288z" />
    <glyph glyph-name="tcedilla" unicode="&#x163;" horiz-adv-x="691" vert-adv-y="2308" 
d="M403 972h214l-3 -159h-214l-7 -430q-1 -40 -1 -81q0 -88 20 -113q27 -32 82 -32q67 0 145 32l-3 -170q-101 -39 -197 -39q-157 0 -220 104q-34 55 -34 172q0 35 3 127l12 430h-149l3 159h152l7 280h195zM369 -561h-105q44 48 76 109q30 62 34 110q-44 2 -70 18
q-52 32 -52 93q0 52 39 88q36 33 87 33q58 0 96 -44q37 -43 37 -117q0 -129 -142 -290z" />
    <glyph glyph-name="Tcaron" unicode="&#x164;" horiz-adv-x="992" vert-adv-y="2308" 
d="M33 1365h927v-181h-359v-1184h-211v1184h-357v181zM864 1779l-274 -279h-185l-275 279h193l174 -169l172 169h195z" />
    <glyph glyph-name="tcaron" unicode="&#x165;" horiz-adv-x="734" vert-adv-y="2308" 
d="M403 972h214l-3 -159h-214l-7 -430q-1 -40 -1 -81q0 -88 20 -113q27 -32 82 -32q67 0 145 32l-3 -170q-101 -39 -197 -39q-157 0 -220 104q-34 55 -34 172q0 35 3 127l12 430h-149l3 159h152l7 280h195zM634 1081h-105q44 48 76 109q30 63 34 110q-44 2 -70 18
q-52 32 -52 93q0 53 39 88q36 33 87 33q58 0 96 -44q37 -43 37 -116q0 -129 -142 -291z" />
    <glyph glyph-name="Tbar" unicode="&#x166;" horiz-adv-x="992" vert-adv-y="2308" 
d="M601 898h269v-171h-269v-727h-211v727h-268v171h268v286h-357v181h927v-181h-359v-286z" />
    <glyph glyph-name="tbar" unicode="&#x167;" horiz-adv-x="691" vert-adv-y="2308" 
d="M403 972h213v-159h-216l-2 -138h206v-137h-209l-2 -156q-1 -38 -1 -81q0 -87 20 -112q26 -32 82 -32q67 0 146 32l-3 -170q-103 -39 -198 -39q-157 0 -221 106q-33 54 -33 168q0 34 3 129l5 155h-142v137h146l4 138h-148v159h153l7 280h195z" />
    <glyph glyph-name="utilde" unicode="&#x169;" horiz-adv-x="1082" vert-adv-y="2308" 
d="M318 1137l-95 24q51 215 178 215q50 0 137 -42q93 -44 125 -44q58 0 94 100l90 -24q-15 -91 -54 -149q-50 -75 -122 -75q-49 0 -145 44q-95 44 -123 44q-60 0 -85 -93zM139 972h201v-573q0 -129 34 -176q47 -67 149 -67q121 0 178 99q35 61 35 183v534h201v-674
q0 -118 1 -156q3 -76 23 -142h-193q-17 46 -20 120q-91 -142 -267 -142q-121 0 -207 59q-99 68 -123 190q-12 65 -12 165v580z" />
    <glyph glyph-name="Umacron" unicode="&#x16a;" horiz-adv-x="1334" vert-adv-y="2308" 
d="M153 1365h211v-793q0 -104 4 -146q12 -144 95 -206q81 -61 204 -61q122 0 203 61q83 62 95 206q4 42 4 146v793h211v-796q0 -155 -10 -223q-22 -153 -132 -248q-142 -123 -371 -123q-230 0 -372 123q-109 94 -132 248q-10 67 -10 223v796zM356 1706h621v-132h-621v132z
" />
    <glyph glyph-name="umacron" unicode="&#x16b;" horiz-adv-x="1082" vert-adv-y="2308" 
d="M139 972h201v-573q0 -129 34 -176q47 -67 149 -67q121 0 178 99q35 61 35 183v534h201v-674q0 -118 1 -156q3 -76 23 -142h-193q-17 46 -20 120q-91 -142 -267 -142q-121 0 -207 59q-99 68 -123 190q-12 65 -12 165v580zM248 1327h576v-131h-576v131z" />
    <glyph glyph-name="ubreve" unicode="&#x16d;" horiz-adv-x="1082" vert-adv-y="2308" 
d="M271 1396h95q56 -150 174 -150q110 0 166 150h95q-10 -97 -51 -165q-72 -122 -208 -122q-140 0 -218 124q-43 68 -53 163zM139 972h201v-573q0 -129 34 -176q47 -67 149 -67q121 0 178 99q35 61 35 183v534h201v-674q0 -118 1 -156q3 -76 23 -142h-193q-17 46 -20 120
q-91 -142 -267 -142q-121 0 -207 59q-99 68 -123 190q-12 65 -12 165v580z" />
    <glyph glyph-name="Uring" unicode="&#x16e;" horiz-adv-x="1334" vert-adv-y="2308" 
d="M153 1365h211v-793q0 -104 4 -146q12 -144 95 -206q81 -61 204 -61q122 0 203 61q83 62 95 206q4 42 4 146v793h211v-796q0 -155 -10 -223q-22 -153 -132 -248q-142 -123 -371 -123q-230 0 -372 123q-109 94 -132 248q-10 67 -10 223v796zM669 1853q79 0 136 -58
q58 -57 58 -139q0 -80 -58 -138q-57 -58 -139 -58q-81 0 -138 58q-58 58 -58 138q0 83 58 139q59 58 141 58zM665 1757q-40 0 -69 -29q-30 -30 -30 -71q0 -42 30 -71q30 -30 70 -30q41 0 71 30q30 29 30 70q0 43 -30 72t-72 29z" />
    <glyph glyph-name="uring" unicode="&#x16f;" horiz-adv-x="1082" vert-adv-y="2308" 
d="M139 972h201v-573q0 -129 34 -176q47 -67 149 -67q121 0 178 99q35 61 35 183v534h201v-674q0 -118 1 -156q3 -76 23 -142h-193q-17 46 -20 120q-91 -142 -267 -142q-121 0 -207 59q-99 68 -123 190q-12 65 -12 165v580zM539 1476q79 0 136 -58q58 -57 58 -139
q0 -81 -58 -138q-57 -58 -139 -58q-81 0 -138 58q-58 57 -58 138q0 83 58 139q59 58 141 58zM535 1380q-40 0 -69 -29q-30 -30 -30 -71q0 -42 30 -71q29 -30 71 -30q41 0 70 30q30 29 30 70q0 43 -30 72t-72 29z" />
    <glyph glyph-name="Udblacute" unicode="&#x170;" horiz-adv-x="1334" vert-adv-y="2308" 
d="M153 1365h211v-793q0 -104 4 -146q12 -144 95 -206q81 -61 204 -61q122 0 203 61q83 62 95 206q4 42 4 146v793h211v-796q0 -155 -10 -223q-22 -153 -132 -248q-142 -123 -371 -123q-230 0 -372 123q-109 94 -132 248q-10 67 -10 223v796zM414 1486l253 308h234
l-328 -308h-159zM730 1486l252 308h235l-328 -308h-159z" />
    <glyph glyph-name="udblacute" unicode="&#x171;" horiz-adv-x="1082" vert-adv-y="2308" 
d="M139 972h201v-573q0 -129 34 -176q47 -67 149 -67q121 0 178 99q35 61 35 183v534h201v-674q0 -118 1 -156q3 -76 23 -142h-193q-17 46 -20 120q-91 -142 -267 -142q-121 0 -207 59q-99 68 -123 190q-12 65 -12 165v580zM332 1106l200 309h228l-284 -309h-144zM633 1106
l200 309h228l-284 -309h-144z" />
    <glyph glyph-name="Uogonek" unicode="&#x172;" horiz-adv-x="1334" vert-adv-y="2308" 
d="M1023 -282v-103q-74 -32 -140 -32q-111 0 -174 68q-51 55 -51 129q0 82 63 141q32 30 115 74q-94 -20 -169 -20q-230 0 -372 123q-109 94 -132 248q-10 67 -10 223v796h211v-793q0 -104 4 -146q12 -144 95 -206q81 -61 204 -61q122 0 203 61q83 62 95 206q4 42 4 146v793
h211v-796q0 -128 -4 -176q-11 -122 -62 -207q-27 -42 -113 -130q-106 -107 -142 -159q-39 -57 -39 -98q0 -31 16 -56q27 -43 94 -43q41 0 93 18z" />
    <glyph glyph-name="uogonek" unicode="&#x173;" horiz-adv-x="1082" vert-adv-y="2308" 
d="M961 0q-94 -77 -117 -103q-48 -53 -48 -96q0 -41 31 -65q27 -21 70 -21q46 0 92 19v-99q-61 -28 -130 -28q-105 0 -164 64q-47 50 -47 121q0 124 169 208h-49q-17 46 -20 120q-91 -142 -267 -142q-121 0 -207 59q-99 68 -123 190q-12 65 -12 165v580h201v-573
q0 -129 34 -176q47 -67 149 -67q121 0 178 99q35 61 35 183v534h201v-674q0 -168 6 -218q5 -38 18 -80z" />
    <glyph glyph-name="Wcircumflex" unicode="&#x174;" horiz-adv-x="1691" vert-adv-y="2308" 
d="M27 1365h199l262 -1111l268 1111h182l268 -1111l265 1111h194l-339 -1369h-236l-246 972l-243 -972h-235zM481 1500l274 279h186l274 -279h-193l-174 169l-172 -169h-195z" />
    <glyph glyph-name="Ycircumflex" unicode="&#x176;" horiz-adv-x="1103" vert-adv-y="2308" 
d="M185 1500l274 279h185l274 -279h-193l-173 169l-173 -169h-194zM11 1365h239l305 -588l301 588h236l-435 -811v-554h-210v554z" />
    <glyph glyph-name="ycircumflex" unicode="&#x177;" horiz-adv-x="964" vert-adv-y="2308" 
d="M33 972h214l238 -773l247 773h210l-325 -925q-56 -162 -79 -208q-71 -149 -192 -206q-94 -43 -223 -43q-22 0 -67 2v175h37q114 0 174 37q58 36 106 168zM155 1115l240 300h185l241 -300h-186l-147 184l-145 -184h-188z" />
    <glyph glyph-name="Zacute" unicode="&#x179;" horiz-adv-x="1018" vert-adv-y="2308" 
d="M107 1365h860v-148l-664 -1035h647v-182h-896v165l657 1021h-604v179zM358 1486l314 308h261l-380 -308h-195z" />
    <glyph glyph-name="zacute" unicode="&#x17a;" horiz-adv-x="844" vert-adv-y="2308" 
d="M93 972h700v-150l-510 -656h509v-166h-746v155l503 651h-456v166zM293 1106l238 309h261l-342 -309h-157z" />
    <glyph glyph-name="Zdot" unicode="&#x17b;" horiz-adv-x="1018" vert-adv-y="2308" 
d="M107 1365h860v-148l-664 -1035h647v-182h-896v165l657 1021h-604v179zM534 1786q59 0 102 -43t43 -104q0 -60 -43 -103t-103 -43q-61 0 -104 43t-43 103q0 62 43 104q44 43 105 43z" />
    <glyph glyph-name="zdot" unicode="&#x17c;" horiz-adv-x="843" vert-adv-y="2308" 
d="M93 972h700v-150l-510 -656h509v-166h-746v155l503 651h-456v166zM439 1391q50 0 86 -37q37 -36 37 -87t-37 -88t-87 -37q-51 0 -88 37t-37 87q0 52 37 88q37 37 89 37z" />
    <glyph glyph-name="Zcaron" unicode="&#x17d;" horiz-adv-x="1018" vert-adv-y="2308" 
d="M107 1365h860v-148l-664 -1035h647v-182h-896v165l657 1021h-604v179zM900 1779l-274 -279h-185l-275 279h193l174 -169l172 169h195z" />
    <glyph glyph-name="zcaron" unicode="&#x17e;" horiz-adv-x="843" vert-adv-y="2308" 
d="M93 972h700v-150l-510 -656h509v-166h-746v155l503 651h-456v166zM768 1415l-240 -300h-185l-240 300h186l147 -184l145 184h187z" />
    <glyph glyph-name="uni01CD" unicode="&#x1cd;" horiz-adv-x="1198" vert-adv-y="2308" 
d="M495 1369h205l467 -1369h-219l-101 320h-497l-103 -320h-217zM791 502l-193 614l-193 -614h386zM966 1779l-275 -279h-185l-274 279h193l173 -169l173 169h195z" />
    <glyph glyph-name="uni01CE" unicode="&#x1ce;" horiz-adv-x="1014" vert-adv-y="2308" 
d="M838 1415l-240 -300h-185l-240 300h186l146 -184l146 184h187zM318 698h-194q16 136 98 206q106 90 298 90q164 0 258 -70q74 -55 89 -175q6 -48 6 -136v-379q-1 -166 30 -234h-186q-15 56 -17 120q-79 -142 -278 -142q-139 0 -228 63q-104 75 -104 214q0 208 223 292
q106 40 365 85v27q0 85 -28 120q-42 52 -142 52q-165 0 -190 -133zM678 493q-212 -32 -287 -74q-95 -53 -95 -141q0 -59 43 -99q46 -42 123 -42q132 0 187 102q29 53 29 179v75z" />
    <glyph glyph-name="Ucaron" unicode="&#x1d3;" horiz-adv-x="1334" vert-adv-y="2308" 
d="M153 1365h211v-793q0 -104 4 -146q12 -144 95 -206q81 -61 204 -61q122 0 203 61q83 62 95 206q4 42 4 146v793h211v-796q0 -155 -10 -223q-22 -153 -132 -248q-142 -123 -371 -123q-230 0 -372 123q-109 94 -132 248q-10 67 -10 223v796zM1034 1779l-274 -279h-185
l-275 279h193l174 -169l172 169h195z" />
    <glyph glyph-name="ucaron" unicode="&#x1d4;" horiz-adv-x="1082" vert-adv-y="2308" 
d="M139 972h201v-573q0 -129 34 -176q47 -67 149 -67q121 0 178 99q35 61 35 183v534h201v-674q0 -118 1 -156q3 -76 23 -142h-193q-17 46 -20 120q-91 -142 -267 -142q-121 0 -207 59q-99 68 -123 190q-12 65 -12 165v580zM869 1415l-240 -300h-185l-240 300h186l147 -184
l145 184h187z" />
    <glyph glyph-name="Gcaron" unicode="&#x1e6;" horiz-adv-x="1295" vert-adv-y="2308" 
d="M1044 1779l-274 -279h-185l-275 279h194l173 -169l172 169h195zM721 692h456v-565q-216 -152 -477 -152q-257 0 -418 160q-194 193 -194 549q0 354 194 548q159 158 395 158q145 0 260 -62q139 -76 191 -221q21 -60 30 -152h-187q-46 251 -292 251q-158 0 -248 -110
q-121 -147 -121 -411q0 -261 118 -408q95 -118 271 -118q155 0 298 89v278h-276v166z" />
    <glyph glyph-name="gcaron" unicode="&#x1e7;" horiz-adv-x="1040" vert-adv-y="2308" 
d="M865 1415l-240 -300h-185l-240 300h186l146 -184l146 184h187zM999 972v-146h-199q19 -19 34 -52q32 -69 32 -143q0 -113 -63 -185q-53 -60 -169 -90q-45 -11 -194 -33q-60 -9 -90 -41q-12 -12 -12 -29q0 -25 30 -38q23 -10 175 -25q226 -22 304 -63q57 -30 89 -83
q39 -64 39 -144q0 -158 -138 -242q-119 -72 -324 -72q-229 0 -355 87q-109 74 -109 196q0 163 200 233q-107 43 -107 116q0 62 67 105q40 25 106 51q-179 82 -179 278q0 157 109 250q103 88 273 88q79 0 171 -26zM503 835q-84 0 -137 -53q-50 -50 -50 -128q0 -73 47 -119
q52 -51 139 -51q90 0 141 51q47 46 47 119q0 76 -47 127q-51 54 -140 54zM486 28q-109 0 -179 -31q-82 -37 -82 -112q0 -73 86 -110q84 -36 205 -36q134 0 208 47q57 37 57 96q0 146 -295 146z" />
    <glyph glyph-name="apostroph" unicode="&#x2bc;" horiz-adv-x="428" vert-adv-y="2308" 
d="M190 910h-120q48 53 82 118q34 66 39 119q-47 2 -74 19q-54 33 -54 97q0 55 41 93q37 34 90 34q60 0 100 -46q39 -45 39 -122q0 -142 -143 -312z" />
    <glyph glyph-name="semicolon" unicode="&#x37e;" horiz-adv-x="502" vert-adv-y="2308" 
d="M236 973q56 0 97 -41q40 -40 40 -97q0 -58 -41 -99q-40 -40 -98 -40q-57 0 -98 41q-40 40 -40 97q0 58 40 98q42 41 100 41zM187 -387h-130q68 82 120 195q47 108 54 195q-51 2 -80 20q-59 36 -59 106q0 60 44 100q42 38 100 38q65 0 107 -50q43 -50 43 -140
q0 -132 -76 -274q-45 -83 -123 -190z" />
    <glyph glyph-name="anoteleia" unicode="&#x387;" horiz-adv-x="518" vert-adv-y="2308" 
d="M260 652q56 0 97 -41q40 -41 40 -98t-41 -98q-40 -40 -97 -40q-58 0 -99 41q-40 40 -40 97q0 58 40 98q42 41 100 41z" />
    <glyph glyph-name="Gamma" unicode="&#x393;" horiz-adv-x="1130" vert-adv-y="2308" 
d="M155 0v1365h981v-191h-760v-1174h-221z" />
    <glyph glyph-name="Delta" unicode="&#x394;" horiz-adv-x="1347" vert-adv-y="2308" 
d="M18 0l544 1365h217l551 -1365h-1312zM311 191h722l-361 929z" />
    <glyph glyph-name="Theta" unicode="&#x398;" horiz-adv-x="1456" vert-adv-y="2308" 
d="M989 799v-181h-523v181h523zM747 1397q303 0 481 -226q89 -114 130 -276q27 -108 27 -222q0 -359 -219 -549q-178 -156 -435 -156q-186 0 -336 83q-179 100 -256 281q-68 160 -68 356q0 174 63 327q73 179 222 277q161 105 391 105zM719 1216q-222 0 -338 -188
q-84 -135 -84 -346q0 -263 126 -403q118 -130 308 -130q216 0 333 163q95 131 95 358q0 152 -52 283q-106 263 -388 263z" />
    <glyph glyph-name="Sigma" unicode="&#x3a3;" horiz-adv-x="1151" vert-adv-y="2308" 
d="M73 0v180l464 512l-459 487v186h994v-181h-718l454 -492l-465 -511h760v-181h-1030z" />
    <glyph glyph-name="Phi" unicode="&#x3a6;" horiz-adv-x="1414" vert-adv-y="2308" 
d="M606 -23v167q-168 13 -276 72q-134 74 -200 214q-57 117 -57 253q0 206 121 352q118 141 311 175q36 7 101 11v167h201v-167q176 -12 288 -78q130 -75 193 -211q53 -116 53 -249q0 -207 -114 -348q-114 -142 -314 -179q-38 -7 -106 -12v-167h-201zM807 319q111 14 182 68
q136 103 136 296q0 194 -135 296q-74 56 -183 64v-724zM606 1044q-106 -13 -173 -60q-144 -102 -144 -300q0 -204 146 -305q66 -46 171 -60v725z" />
    <glyph glyph-name="Omega" unicode="&#x3a9;" horiz-adv-x="1439" vert-adv-y="2308" 
d="M49 0v181h361q-141 82 -217 179q-124 157 -124 388q0 286 203 476q185 174 448 174t448 -174q202 -189 202 -476q0 -244 -137 -405q-74 -87 -202 -162h359v-181h-569v182q126 74 193 156q130 162 130 398q0 152 -58 260q-130 240 -364 240q-167 0 -286 -120
q-141 -143 -141 -379q0 -368 325 -555v-182h-571z" />
    <glyph glyph-name="alpha" unicode="&#x3b1;" horiz-adv-x="1338" vert-adv-y="2308" 
d="M1223 983l-204 -471l240 -512h-227l-120 314q-86 -152 -141 -214q-116 -130 -268 -130q-174 0 -293 144q-128 156 -128 382q0 197 100 337q62 85 149 132q88 47 187 47q167 0 283 -134q46 -54 108 -166l97 271h217zM841 512q-48 138 -87 204q-84 144 -206 144
q-120 0 -192 -113q-67 -106 -67 -258q0 -158 74 -265q72 -102 180 -102q127 0 208 158q21 40 90 232z" />
    <glyph glyph-name="beta" unicode="&#x3b2;" horiz-adv-x="1094" vert-adv-y="2308" 
d="M123 -355v1272q0 164 23 237q41 131 159 191q97 50 228 50q199 0 308 -108q103 -101 103 -245q0 -184 -174 -269q103 -34 156 -91q100 -107 100 -273q0 -196 -136 -322q-116 -109 -288 -109q-94 0 -171 30q-51 19 -107 66v-429h-201zM324 225q43 -40 74 -57
q67 -38 151 -38q131 0 208 97q62 78 62 192q0 176 -140 234q-55 22 -142 29v163q70 11 107 29q93 47 93 174q0 95 -59 146q-55 49 -142 49q-111 0 -166 -74q-31 -42 -38 -93q-8 -57 -8 -138v-713z" />
    <glyph glyph-name="delta" unicode="&#x3b4;" horiz-adv-x="1111" vert-adv-y="2308" 
d="M924 1365v-142h-427l254 -219q109 -93 156 -144q135 -144 135 -382q0 -233 -135 -372q-134 -136 -348 -136t-350 136q-140 140 -140 376q0 195 98 328q80 109 205 137q43 10 114 16l-296 260v142h734zM554 822q-140 0 -215 -120q-63 -100 -63 -237q0 -151 74 -246
q76 -97 208 -97q129 0 206 95q71 87 71 241q0 157 -65 255q-72 109 -216 109z" />
    <glyph glyph-name="epsilon" unicode="&#x3b5;" horiz-adv-x="937" vert-adv-y="2308" 
d="M557 587v-152q-31 1 -46 1q-68 0 -116 -12q-55 -15 -89 -59q-27 -36 -27 -85q0 -75 63 -121q51 -37 135 -37q125 0 177 86q27 43 29 109h213q-10 -133 -77 -215q-106 -132 -339 -132q-200 0 -306 92q-102 89 -102 217q0 184 199 245q-170 72 -170 221q0 135 128 217
q95 60 245 60q203 0 310 -119q60 -68 69 -158q2 -23 3 -58h-207v10q0 60 -26 103q-43 70 -149 70q-81 0 -126 -49q-36 -39 -36 -91q0 -71 65 -110q54 -33 180 -33z" />
    <glyph glyph-name="eta" unicode="&#x3b7;" horiz-adv-x="1122" vert-adv-y="2308" 
d="M323 982v-165q21 65 82 114q99 81 241 81q185 0 282 -114q55 -64 66 -150q8 -57 8 -133v-963h-201v930q0 90 -9 127q-21 79 -84 118q-53 33 -123 33q-144 0 -214 -114q-48 -78 -48 -229v-517h-201v982h201z" />
    <glyph glyph-name="mu" unicode="&#x3bc;" horiz-adv-x="1115" vert-adv-y="2308" 
d="M122 -348v1330h201v-524q0 -123 20 -177q31 -85 107 -124q51 -27 107 -27q107 0 173 88q37 50 51 110q12 50 12 143v511h201v-982h-201v148q-36 -74 -74 -108q-69 -62 -168 -62q-142 0 -228 138v-464h-201z" />
    <glyph glyph-name="sigma1" unicode="&#x3c2;" horiz-adv-x="1003" vert-adv-y="2308" 
d="M691 -349q58 181 58 225q0 41 -26 66q-22 21 -74 36l-181 51q-113 31 -174 71q-106 69 -165 180q-57 109 -57 239q0 209 136 352q134 142 353 142q221 0 347 -151q70 -83 82 -208h-202q-9 85 -60 136q-69 71 -178 71q-96 0 -166 -58q-99 -82 -99 -245q0 -140 92 -241
q45 -49 107 -76q26 -11 115 -37l114 -33q112 -32 164 -78q78 -69 78 -181q0 -67 -19 -133q-16 -56 -41 -128h-204z" />
    <glyph glyph-name="sigma" unicode="&#x3c3;" horiz-adv-x="1138" vert-adv-y="2308" 
d="M1118 982v-181h-204q55 -57 77 -93q56 -93 56 -236q0 -217 -127 -354q-137 -148 -360 -148q-228 0 -365 153q-126 140 -126 364q0 226 127 370q137 155 360 155q85 0 179 -30h383zM553 861q-94 0 -166 -62q-63 -54 -92 -159q-19 -70 -19 -150q0 -159 71 -262
q73 -106 214 -106q137 0 210 103q69 98 69 261q0 162 -63 259q-75 116 -224 116z" />
    <glyph glyph-name="tau" unicode="&#x3c4;" horiz-adv-x="843" vert-adv-y="2308" 
d="M845 983v-182h-320v-801h-201v801h-326v182h847z" />
    <glyph glyph-name="psi" unicode="&#x3c8;" horiz-adv-x="1306" vert-adv-y="2308" 
d="M556 -355v326q-205 18 -314 113q-92 81 -124 211q-19 70 -19 232v455h201v-446q1 -164 27 -239q48 -134 229 -148v833h201v-832q114 13 176 74q45 46 62 134q12 63 12 178v446h201v-455q-1 -184 -27 -264q-86 -264 -424 -292v-326h-201z" />
    <glyph glyph-name="phi1" unicode="&#x3d5;" horiz-adv-x="1286" vert-adv-y="2308" 
d="M548 -362v332q-111 9 -177 33q-153 58 -234 210q-67 123 -67 280q0 217 109 343q71 82 239 153v-187q-63 -45 -91 -95q-50 -90 -50 -214q0 -303 271 -342v863q69 3 116 3q233 0 376 -120q177 -150 177 -412q0 -163 -78 -290q-97 -158 -271 -205q-44 -12 -119 -19v-333
h-201zM749 151q83 9 149 59q112 84 112 286q0 194 -121 288q-57 45 -140 52v-685z" />
    <glyph glyph-name="Wdieresis" unicode="&#x1e84;" horiz-adv-x="1691" vert-adv-y="2308" 
d="M27 1365h199l262 -1111l268 1111h182l268 -1111l265 1111h194l-339 -1369h-236l-246 972l-243 -972h-235zM662 1774q54 0 93 -39q40 -40 40 -96t-40 -95q-39 -40 -95 -40q-55 0 -95 40t-40 95q0 57 40 96t97 39zM1036 1774q54 0 93 -39q40 -40 40 -96t-40 -95
q-40 -40 -95 -40q-56 0 -95 40q-40 39 -40 95q0 57 40 96t97 39z" />
    <glyph glyph-name="enspace" unicode="&#x2002;" vert-adv-y="2308" 
 />
    <glyph glyph-name="emspace" unicode="&#x2003;" horiz-adv-x="2048" vert-adv-y="2308" 
 />
    <glyph glyph-name="figurespace" unicode="&#x2007;" horiz-adv-x="1133" vert-adv-y="2308" 
 />
    <glyph glyph-name="hairspace" unicode="&#x200a;" horiz-adv-x="256" vert-adv-y="2308" 
 />
    <glyph glyph-name="hyphen" unicode="&#x2010;" horiz-adv-x="547" vert-adv-y="2308" 
d="M0 591h547v-150h-547v150z" />
    <glyph glyph-name="nbhyphen" unicode="&#x2011;" horiz-adv-x="547" vert-adv-y="2308" 
d="M0 591h547v-150h-547v150z" />
    <glyph glyph-name="figuredash" unicode="&#x2012;" vert-adv-y="2308" 
d="M115 591h793v-150h-793v150z" />
    <glyph glyph-name="horizontalbar" unicode="&#x2015;" horiz-adv-x="1241" vert-adv-y="2308" 
d="M0 591h1241v-150h-1241v150z" />
    <glyph glyph-name="underscoredbl" unicode="&#x2017;" vert-adv-y="2308" 
d="M0 -110h1024v-123h-1024v123zM0 -349h1024v-124h-1024v124z" />
    <glyph glyph-name="quotereversed" unicode="&#x201b;" horiz-adv-x="512" vert-adv-y="2308" 
 />
    <glyph glyph-name="exclamdbl" unicode="&#x203c;" horiz-adv-x="934" vert-adv-y="2308" 
d="M334 1365v-364l-54 -604h-109l-53 602v366h216zM338 262v-262h-224v262h224zM816 1365v-364l-54 -604h-109l-53 602v366h216zM820 262v-262h-224v262h224z" />
    <glyph glyph-name="radicalex" unicode="&#x203e;" vert-adv-y="2308" 
d="M0 1795h1024v-181h-1024v181z" />
    <glyph glyph-name="zerosuperior" unicode="&#x2070;" horiz-adv-x="739" vert-adv-y="2308" 
d="M374 1347q128 0 203 -99q87 -114 87 -315q0 -200 -87 -314q-75 -99 -207 -99q-133 0 -208 99q-87 114 -87 312q0 205 87 317q76 99 212 99zM367 1234q-65 0 -99 -56q-53 -89 -53 -245t53 -245q34 -56 101 -56q68 0 102 56q53 89 53 243q0 161 -53 247q-35 56 -104 56z
" />
    <glyph glyph-name="foursuperior" unicode="&#x2074;" horiz-adv-x="739" vert-adv-y="2308" 
d="M533 828h147v-111h-144v-185h-140v185h-343v103l330 525h150v-517zM403 828v350l-213 -350h213z" />
    <glyph glyph-name="fivesuperior" unicode="&#x2075;" horiz-adv-x="739" vert-adv-y="2308" 
d="M184 1331h411l-11 -119h-295l-33 -173q63 39 135 39q118 0 191 -83q63 -72 63 -180q0 -120 -80 -205q-83 -89 -208 -89q-137 0 -210 87q-48 58 -53 144h131q17 -114 129 -114q65 0 103 45q43 52 43 126q0 72 -40 118q-34 39 -93 39q-81 0 -136 -75l-120 16z" />
    <glyph glyph-name="sixsuperior" unicode="&#x2076;" horiz-adv-x="740" vert-adv-y="2308" 
d="M399 1346h155q-122 -131 -218 -272q35 7 61 7q109 0 180 -77q71 -75 71 -195q0 -140 -96 -225q-73 -64 -178 -64q-117 0 -193 72q-89 84 -89 218q0 150 126 326q62 85 181 210zM368 974q-52 0 -89 -37q-47 -48 -47 -133q0 -84 47 -132q36 -37 91 -37t91 37q47 48 47 132
q0 85 -47 133q-36 37 -93 37z" />
    <glyph glyph-name="sevensuperior" unicode="&#x2077;" horiz-adv-x="737" vert-adv-y="2308" 
d="M114 1331h554v-102l-402 -697h-154l389 673h-387v126z" />
    <glyph glyph-name="eightsuperior" unicode="&#x2078;" horiz-adv-x="739" vert-adv-y="2308" 
d="M199 953q-90 57 -90 163q0 108 87 175q74 56 174 56q99 0 172 -56q88 -67 88 -175q0 -106 -90 -163q109 -64 109 -187q0 -115 -90 -185q-78 -61 -190 -61q-111 0 -189 61q-90 70 -90 185q0 122 109 187zM368 1237q-49 0 -83 -30q-36 -32 -36 -86q0 -55 36 -87
q34 -30 84 -30q51 0 85 30q36 32 36 86q0 56 -36 87q-35 30 -86 30zM368 895q-49 0 -88 -28q-50 -36 -50 -104t50 -105q39 -28 89 -28t89 28q50 36 50 104q0 70 -50 105q-39 28 -90 28z" />
    <glyph glyph-name="ninesuperior" unicode="&#x2079;" horiz-adv-x="740" vert-adv-y="2308" 
d="M338 515h-154q142 151 219 274q-35 -7 -60 -7q-109 0 -180 76t-71 196q0 141 95 226q73 65 179 65q116 0 192 -73q89 -84 89 -219q0 -151 -127 -327q-65 -91 -182 -211zM368 1230q-53 0 -89 -37q-47 -49 -47 -135q0 -85 47 -133q36 -37 91 -37q54 0 90 37q47 48 47 133
q0 86 -47 135q-36 37 -92 37z" />
    <glyph glyph-name="parenleftsuperior" unicode="&#x207d;" horiz-adv-x="409" vert-adv-y="2308" 
d="M253 1370h109q-141 -197 -141 -529q0 -341 141 -535h-109q-158 204 -158 531q0 328 158 533z" />
    <glyph glyph-name="parenrightsuperior" unicode="&#x207e;" horiz-adv-x="409" vert-adv-y="2308" 
d="M158 306h-109q140 204 140 528q0 340 -141 536h109q158 -205 158 -532t-157 -532z" />
    <glyph glyph-name="nsuperior" unicode="&#x207f;" horiz-adv-x="713" vert-adv-y="2308" 
d="M76 1138h132q12 -29 16 -70q77 77 176 77q129 0 180 -91q24 -44 24 -171v-337h-136v316q0 88 -15 117q-25 49 -89 49q-132 0 -132 -170v-312h-136v379q0 110 -4 146q-3 26 -16 67z" />
    <glyph glyph-name="zeroinferior" unicode="&#x2080;" horiz-adv-x="739" vert-adv-y="2308" 
d="M374 815q128 0 203 -99q87 -113 87 -314q0 -200 -87 -315q-74 -98 -207 -98q-134 0 -208 98q-87 115 -87 313q0 205 87 316q76 99 212 99zM367 702q-65 0 -99 -56q-53 -89 -53 -245q0 -155 53 -244q34 -56 101 -56q68 0 102 56q53 89 53 242q0 160 -53 247
q-35 56 -104 56z" />
    <glyph glyph-name="oneinferior" unicode="&#x2081;" horiz-adv-x="739" vert-adv-y="2308" 
d="M159 589v82q86 1 131 34q42 30 58 99h97v-804h-138v589h-148z" />
    <glyph glyph-name="twoinferior" unicode="&#x2082;" horiz-adv-x="739" vert-adv-y="2308" 
d="M243 564h-122v10q0 94 49 153q72 88 210 88q108 0 179 -56q70 -55 70 -152q0 -70 -52 -148q-58 -85 -283 -337h344v-122h-526v105l20 23q197 227 262 306q93 114 93 170q0 41 -32 67t-81 26q-120 0 -131 -133z" />
    <glyph glyph-name="threeinferior" unicode="&#x2083;" horiz-adv-x="739" vert-adv-y="2308" 
d="M238 583h-121q4 101 60 158q71 72 201 72q115 0 181 -59q64 -58 64 -148q0 -121 -120 -175q138 -47 138 -193q0 -121 -95 -193q-72 -54 -185 -54q-166 0 -238 101q-42 58 -41 151h126q1 -135 149 -135q69 0 106 34q39 35 39 95q0 86 -81 115q-37 13 -114 13q-12 0 -34 -1
v114q27 -2 39 -2q72 0 114 23q57 30 57 96q0 45 -31 73q-32 28 -86 28q-112 0 -128 -113z" />
    <glyph glyph-name="fourinferior" unicode="&#x2084;" horiz-adv-x="739" vert-adv-y="2308" 
d="M533 287h147v-111h-144v-185h-140v185h-343v103l330 524h150v-516zM403 287v350l-213 -350h213z" />
    <glyph glyph-name="fiveinferior" unicode="&#x2085;" horiz-adv-x="739" vert-adv-y="2308" 
d="M189 799h411l-11 -119h-295l-33 -173q65 39 134 39q119 0 192 -83q63 -72 63 -181q0 -120 -80 -205q-84 -88 -208 -88q-137 0 -210 87q-48 58 -53 143h131q17 -113 129 -113q65 0 103 45q43 51 43 126q0 72 -40 118q-35 39 -93 39q-81 0 -136 -75l-120 16z" />
    <glyph glyph-name="sixinferior" unicode="&#x2086;" horiz-adv-x="740" vert-adv-y="2308" 
d="M399 814h155q-130 -141 -218 -272q35 7 60 7q110 0 181 -76t71 -196q0 -140 -96 -225q-73 -64 -179 -64q-116 0 -192 72q-89 84 -89 218q0 150 126 326q62 85 181 210zM368 442q-53 0 -89 -37q-47 -49 -47 -133q0 -83 47 -132q36 -37 91 -37t91 37q47 48 47 132
q0 85 -47 133q-36 37 -93 37z" />
    <glyph glyph-name="seveninferior" unicode="&#x2087;" horiz-adv-x="737" vert-adv-y="2308" 
d="M114 799h554v-102l-402 -697h-154l389 673h-387v126z" />
    <glyph glyph-name="eightinferior" unicode="&#x2088;" horiz-adv-x="739" vert-adv-y="2308" 
d="M199 421q-90 56 -90 163q0 108 87 175q73 56 174 56q99 0 172 -56q88 -67 88 -175q0 -107 -90 -163q109 -64 109 -187q0 -114 -90 -184q-78 -61 -190 -61q-111 0 -189 61q-90 70 -90 184q0 122 109 187zM368 705q-48 0 -83 -30q-36 -31 -36 -87q0 -54 36 -86
q34 -30 84 -30q51 0 85 30q36 32 36 86q0 56 -36 87q-35 30 -86 30zM368 363q-49 0 -88 -28q-50 -36 -50 -104t50 -104q39 -28 89 -28t89 28q50 36 50 104q0 69 -50 104q-39 28 -90 28z" />
    <glyph glyph-name="nineinferior" unicode="&#x2089;" horiz-adv-x="740" vert-adv-y="2308" 
d="M338 -17h-154q141 151 219 274q-34 -7 -60 -7q-109 0 -180 76t-71 196q0 141 95 226q73 65 179 65q116 0 192 -73q89 -84 89 -219q0 -151 -127 -327q-65 -91 -182 -211zM368 698q-53 0 -89 -37q-47 -49 -47 -135q0 -84 47 -132q36 -37 91 -37q54 0 90 37q47 48 47 132
q0 86 -47 135q-36 37 -92 37z" />
    <glyph glyph-name="franc" unicode="&#x20a3;" horiz-adv-x="1364" vert-adv-y="2308" 
d="M354 798h548v-182h-542v-616h-217v1365h808v-181h-597v-386zM975 592h131q11 -42 12 -107q65 113 159 113q25 0 65 -12v-134q-54 30 -94 30q-125 0 -125 -214v-268h-137v394q0 140 -11 198z" />
    <glyph glyph-name="lira" unicode="&#x20a4;" horiz-adv-x="1133" vert-adv-y="2308" 
d="M487 619h321v-131h-346q-36 -196 -116 -325q114 28 233 28q29 0 110 -4q44 -3 74 -3q69 0 89 30q29 44 32 138h168q1 -21 1 -32q0 -144 -64 -234q-66 -95 -210 -95q-57 0 -134 6q-176 13 -264 13q-133 0 -300 -23q107 135 172 501h-171v131h195q5 23 12 65l7 35l4 26
h-195v131h219q35 202 86 320q82 190 303 190q185 0 262 -118q43 -66 53 -203h-180q-7 72 -30 103q-34 44 -101 44q-102 0 -139 -118q-21 -67 -47 -218h300v-131h-322q-10 -56 -11 -66q-6 -35 -11 -60z" />
    <glyph glyph-name="peseta" unicode="&#x20a7;" horiz-adv-x="1987" vert-adv-y="2308" 
d="M143 1365h276q265 0 383 -39q126 -42 193 -159q55 -98 55 -224q0 -183 -111 -293q-98 -97 -284 -112q-83 -6 -210 -6h-86v-532h-216v1365zM354 714h90q176 0 247 20q74 22 111 87q30 52 30 123q0 155 -115 206q-54 24 -145 30q-43 3 -129 3h-89v-469zM1218 582h132v-105
h-135l-4 -244v-41q0 -58 11 -71q15 -17 47 -17q45 0 95 22v-113q-68 -25 -129 -25q-101 0 -143 66q-21 33 -21 104q0 27 2 75l7 244h-92v105h96l4 170h133zM1913 408h-131q-11 89 -105 89q-40 0 -68 -19q-27 -17 -27 -46q0 -27 25 -43q21 -14 117 -40q125 -35 159 -73
q38 -42 38 -104q0 -85 -61 -135q-63 -52 -179 -52q-258 0 -256 211h130q4 -51 25 -73q32 -34 97 -34q44 0 74 17q32 20 32 57q0 32 -37 50q-21 11 -131 42q-92 27 -128 61q-41 41 -41 105q0 83 67 132q66 48 166 48q141 0 202 -86q30 -41 32 -107z" />
    <glyph glyph-name="uni2101" unicode="&#x2101;" horiz-adv-x="1881" vert-adv-y="2308" 
d="M364 1368h135l295 -822h-147l-64 189h-302l-64 -189h-147zM545 854l-113 340l-113 -340h226zM1363 1365h173l-797 -1365h-172zM1807 584h-139q-11 130 -148 130q-53 0 -92 -24q-45 -27 -45 -77q0 -48 49 -73q30 -16 143 -56q151 -54 199 -105q56 -60 56 -151
q0 -124 -93 -191q-73 -52 -202 -52q-191 0 -271 110q-47 63 -47 178h139q3 -84 38 -120q44 -48 140 -48q69 0 112 32q39 30 39 80q0 58 -53 90q-33 20 -141 59q-134 48 -181 86q-69 56 -69 153q0 118 96 179q77 50 185 50q163 0 240 -102q42 -56 45 -148z" />
    <glyph glyph-name="smallscriptl" unicode="&#x2113;" vert-adv-y="2308" 
d="M522 548l-5 -24q-59 -299 -59 -381q0 -53 35 -53q47 0 96 106q18 39 41 39q32 0 32 -36q0 -66 -66 -145q-70 -83 -151 -83q-94 0 -128 92q-18 48 -18 118q0 68 12 212q-72 -68 -87 -68q-11 0 -21 11q-12 13 -12 30q0 22 36 57q46 43 99 107q71 376 166 608
q101 250 247 250q70 0 108 -54q34 -49 34 -120q0 -178 -131 -390q-65 -104 -228 -276zM549 704q55 61 91 114q83 120 122 248q21 71 21 128q0 50 -16 74q-12 16 -26 16q-19 0 -35 -17q-32 -34 -62 -135q-49 -168 -95 -428z" />
    <glyph glyph-name="estimated" unicode="&#x212e;" horiz-adv-x="1026" vert-adv-y="2308" 
d="M946 442h-664q5 -127 54 -202q67 -102 203 -102q143 0 206 128l181 -13q-31 -104 -100 -172q-109 -108 -292 -108q-170 0 -288 96q-167 137 -167 404q0 185 77 318q67 116 184 169q85 39 186 39q206 0 322 -158q99 -135 99 -351q0 -16 -1 -48zM741 592q-29 246 -219 246
q-186 0 -234 -246h453z" />
    <glyph glyph-name="onethird" unicode="&#x2153;" horiz-adv-x="1746" vert-adv-y="2308" 
d="M159 1121v82q86 1 131 34q42 30 58 99h97v-804h-138v589h-148zM1177 1331h165l-774 -1331h-164zM1244 583h-121q3 100 60 158q71 72 201 72q115 0 180 -59q65 -58 65 -148q0 -122 -120 -175q138 -46 138 -193q0 -121 -95 -193q-72 -54 -185 -54q-166 0 -238 101
q-42 59 -41 151h126q2 -135 149 -135q68 0 106 34q39 34 39 96q0 85 -81 114q-37 13 -114 13q-12 0 -34 -1v114q26 -2 39 -2q72 0 114 23q57 31 57 96q0 45 -31 73q-32 28 -86 28q-112 0 -128 -113z" />
    <glyph glyph-name="twothirds" unicode="&#x2154;" horiz-adv-x="1745" vert-adv-y="2308" 
d="M243 1096h-122q1 104 49 163q72 88 211 88q109 0 178 -56q70 -56 70 -152q0 -71 -52 -148q-62 -89 -283 -337h344v-122h-526v105q23 27 102 118q164 186 217 257q57 77 57 125q0 40 -32 66t-81 26q-123 0 -132 -133zM1177 1331h165l-774 -1331h-164zM1244 583h-121
q3 100 60 158q71 72 201 72q115 0 180 -59q65 -58 65 -148q0 -122 -120 -175q138 -47 138 -193q0 -121 -95 -193q-72 -54 -186 -54q-165 0 -237 101q-42 59 -41 151h126q2 -135 149 -135q69 0 106 34q39 35 39 96q0 85 -81 114q-37 13 -114 13q-12 0 -34 -1v114q26 -2 39 -2
q72 0 114 23q57 30 57 96q0 45 -31 73q-32 28 -86 28q-111 0 -128 -113z" />
    <glyph glyph-name="oneeighth" unicode="&#x215b;" horiz-adv-x="1745" vert-adv-y="2308" 
d="M159 1121v82q85 1 130 34q43 32 58 99h97v-804h-138v589h-147zM1177 1331h165l-774 -1331h-164zM1206 421q-91 55 -91 163t88 175q73 56 172 56q100 0 173 -56q88 -67 88 -175q0 -107 -90 -163q109 -65 109 -187q0 -114 -90 -184q-78 -61 -190 -61q-111 0 -189 61
q-90 70 -90 184q0 123 110 187zM1374 705q-49 0 -82 -30q-37 -32 -37 -87q0 -54 37 -86q33 -30 84 -30q50 0 84 30q36 32 36 86q0 56 -36 87q-35 30 -86 30zM1374 363q-49 0 -88 -28q-50 -36 -50 -104q0 -69 50 -104q41 -28 90 -28q50 0 89 28q50 36 50 104t-50 104
q-40 28 -91 28z" />
    <glyph glyph-name="threeeighths" unicode="&#x215c;" horiz-adv-x="1745" vert-adv-y="2308" 
d="M238 1124h-121q4 101 60 158q71 72 200 72q116 0 182 -59q64 -58 64 -148q0 -122 -120 -176q138 -47 138 -192q0 -121 -95 -193q-72 -54 -185 -54q-166 0 -238 100q-42 59 -41 151h126q0 -134 149 -134q69 0 106 34q39 35 39 95q0 86 -81 115q-36 13 -111 13
q-12 0 -37 -1v113q25 -1 38 -1q74 0 115 23q57 31 57 97q0 45 -31 73q-32 28 -86 28q-112 0 -128 -114zM1178 1331h165l-774 -1331h-165zM1206 421q-90 60 -90 163q0 108 87 175q74 56 173 56q100 0 173 -56q88 -67 88 -175q0 -103 -90 -163q109 -64 109 -187
q0 -115 -90 -185q-78 -61 -190 -61q-111 0 -189 61q-90 70 -90 185q0 124 109 187zM1375 705q-49 0 -82 -30q-37 -32 -37 -86q0 -55 37 -87q33 -30 84 -30q50 0 84 30q36 32 36 86q0 56 -36 87q-35 30 -86 30zM1375 363q-49 0 -88 -28q-50 -37 -50 -105q0 -67 50 -104
q39 -28 90 -28q50 0 89 28q50 36 50 104q0 69 -50 105q-40 28 -91 28z" />
    <glyph glyph-name="fiveeighths" unicode="&#x215d;" horiz-adv-x="1745" vert-adv-y="2308" 
d="M189 1331h411l-11 -119h-295l-33 -172q68 38 136 38q117 0 190 -83q63 -72 63 -180q0 -120 -80 -205q-83 -89 -207 -89q-138 0 -211 87q-47 58 -53 144h131q17 -114 129 -114q65 0 103 45q43 52 43 126q0 72 -40 118q-35 39 -93 39q-79 0 -135 -75l-121 16zM1176 1331
h166l-774 -1331h-165zM1205 421q-90 59 -90 163q0 108 87 175q73 56 173 56t173 -56q88 -67 88 -175q0 -103 -90 -163q109 -63 109 -187q0 -115 -90 -185q-78 -61 -189 -61q-112 0 -190 61q-90 70 -90 185q0 124 109 187zM1374 705q-49 0 -82 -30q-37 -32 -37 -86t37 -87
q33 -30 84 -30q50 0 84 30q36 32 36 86q0 56 -36 87q-35 30 -86 30zM1374 363q-49 0 -88 -28q-50 -37 -50 -105q0 -67 50 -104q39 -28 90 -28q50 0 89 28q50 36 50 104q0 69 -50 105q-39 28 -91 28z" />
    <glyph glyph-name="seveneighths" unicode="&#x215e;" horiz-adv-x="1743" vert-adv-y="2308" 
d="M114 1331h554v-102l-402 -697h-154l389 673h-387v126zM1175 1331h165l-773 -1331h-165zM1204 421q-91 58 -91 163q0 108 87 175q74 56 173 56q100 0 173 -56q88 -67 88 -175q0 -105 -90 -163q110 -63 110 -188q0 -114 -90 -184q-79 -61 -190 -61q-112 0 -190 61
q-90 70 -90 185q0 124 110 187zM1372 704q-49 0 -82 -29q-37 -33 -37 -87t37 -86q33 -30 84 -30q50 0 84 30q36 32 36 86q0 55 -36 87q-35 29 -86 29zM1372 363q-49 0 -88 -28q-50 -37 -50 -105t50 -104q39 -28 90 -28q50 0 89 28q50 36 50 104q0 69 -50 105q-40 28 -91 28z
" />
    <glyph glyph-name="arrowleft" unicode="&#x2190;" horiz-adv-x="1365" vert-adv-y="2308" 
d="M1338 744v-104h-1024q24 -30 60 -96q47 -86 47 -117q0 -28 -31 -28q-16 0 -46 35q-94 111 -270 211q-47 26 -47 42q0 19 34 39q120 71 165 106q61 47 132 129q16 20 32 20q31 0 31 -31q0 -20 -42 -105q-20 -39 -65 -101h1024z" />
    <glyph glyph-name="arrowup" unicode="&#x2191;" horiz-adv-x="1365" vert-adv-y="2308" 
d="M737 27h-104v1024q-30 -24 -96 -60q-86 -47 -117 -47q-28 0 -28 31q0 16 35 46q111 94 212 270q25 47 41 47q20 0 39 -34q74 -125 106 -164q50 -65 130 -133q20 -16 20 -32q0 -31 -31 -31q-20 0 -105 42q-41 21 -102 65v-1024z" />
    <glyph glyph-name="arrowright" unicode="&#x2192;" horiz-adv-x="1365" vert-adv-y="2308" 
d="M27 636v104h1024q-25 30 -60 96q-47 86 -47 117q0 28 31 28q16 0 46 -35q95 -112 270 -212q47 -25 47 -42q0 -19 -34 -38q-127 -75 -165 -106q-64 -50 -132 -130q-16 -20 -32 -20q-31 0 -31 31q0 20 42 105q21 41 65 102h-1024z" />
    <glyph glyph-name="arrowdown" unicode="&#x2193;" horiz-adv-x="1365" vert-adv-y="2308" 
d="M629 1338h104v-1024q30 25 96 60q86 47 117 47q28 0 28 -31q0 -16 -35 -46q-112 -94 -212 -270q-25 -47 -41 -47q-20 0 -39 34q-74 125 -106 165q-50 64 -130 131q-20 17 -20 33q0 31 31 31q20 0 105 -42q41 -21 102 -65v1024z" />
    <glyph glyph-name="arrowboth" unicode="&#x2194;" horiz-adv-x="1365" vert-adv-y="2308" 
d="M312 635q47 -64 73 -117q36 -72 36 -91q0 -30 -31 -30q-16 0 -48 38q-87 100 -224 183q-50 31 -70 43q-21 12 -21 31q0 16 47 41q175 100 270 212q30 35 46 35q31 0 31 -29q0 -30 -48 -116q-35 -63 -61 -96h739q-24 29 -60 96q-47 86 -47 117q0 28 31 28q16 0 46 -35
q95 -112 270 -211q47 -26 47 -42q0 -20 -34 -39q-126 -74 -165 -106q-64 -50 -132 -130q-16 -20 -32 -20q-31 0 -31 31q0 20 42 105q21 41 65 102h-739z" />
    <glyph glyph-name="arrowupdn" unicode="&#x2195;" horiz-adv-x="1365" vert-adv-y="2308" 
d="M737 312q63 47 117 73q72 36 91 36q30 0 30 -31q0 -13 -8 -22q-5 -5 -30 -26q-66 -56 -112 -116q-36 -42 -114 -178q-11 -21 -30 -21q-17 0 -42 47q-100 176 -212 270q-35 30 -35 46q0 31 29 31q30 0 116 -48q62 -34 96 -61v739q-31 -24 -96 -60q-86 -47 -117 -47
q-28 0 -28 31q0 16 35 46q111 93 212 270q25 47 41 47q20 0 39 -34q76 -128 106 -165q49 -64 130 -132q20 -16 20 -32q0 -31 -31 -31q-20 0 -105 42q-41 21 -102 65v-739z" />
    <glyph glyph-name="arrowupdnbse" unicode="&#x21a8;" horiz-adv-x="1365" vert-adv-y="2308" 
d="M737 312q63 47 117 73q72 36 91 36q30 0 30 -31q0 -13 -9 -22q-4 -5 -29 -26q-65 -55 -112 -116q-34 -40 -114 -178q-12 -21 -30 -21q-17 0 -42 47q-100 176 -212 270q-35 30 -35 46q0 31 28 31q31 0 117 -48q64 -35 96 -61v739q-30 -24 -96 -60q-86 -47 -117 -47
q-29 0 -29 31q0 16 35 46q111 93 212 270q26 47 42 47q19 0 38 -34q72 -121 107 -165q47 -62 130 -132q20 -16 20 -32q0 -31 -31 -31q-21 0 -105 42q-42 21 -102 65v-739zM413 -139h540v-88h-540v88z" />
    <glyph glyph-name="emptyset" unicode="&#x2205;" horiz-adv-x="1266" vert-adv-y="2308" 
d="M907 1125q45 -31 77 -64q146 -147 146 -351q0 -205 -146 -352q-144 -145 -351 -145q-87 0 -172 31l-110 -217l-100 52l110 215q-45 31 -78 64q-146 148 -146 351q0 205 146 352q145 145 351 145q85 0 174 -31l110 217l98 -51zM854 1022l-341 -675q62 -20 120 -20
q159 0 270 112q113 113 113 271q0 156 -113 270q-20 21 -49 42zM413 397l343 675q-62 20 -121 20q-160 0 -271 -112q-113 -113 -113 -270q0 -191 162 -313z" />
    <glyph glyph-name="minus" unicode="&#x2212;" horiz-adv-x="1133" vert-adv-y="2308" 
d="M103 762h927v-154h-927v154z" />
    <glyph glyph-name="fraction" unicode="&#x2215;" horiz-adv-x="227" vert-adv-y="2308" 
d="M417 1331h166l-774 -1331h-165z" />
    <glyph glyph-name="ring" unicode="&#x2218;" vert-adv-y="2308" 
d="M516 983q111 0 194 -84q83 -83 83 -203q0 -118 -82 -202q-83 -84 -199 -84q-115 0 -198 83q-84 85 -84 203q0 122 84 204q84 83 202 83zM510 886q-74 0 -129 -55t-55 -134t55 -135q55 -55 131 -55t131 56q54 55 54 133q0 80 -55 135t-132 55z" />
    <glyph glyph-name="intersection" unicode="&#x2229;" horiz-adv-x="1268" vert-adv-y="2308" 
d="M1164 0h-201v625q0 166 -9 250q-12 119 -64 186q-44 57 -112 90q-71 33 -144 33q-112 0 -202 -69q-66 -50 -94 -125q-33 -91 -33 -365v-625h-201v619q0 233 12 322q30 214 202 331q135 93 316 93t316 -93q172 -117 202 -331q12 -91 12 -322v-619z" />
    <glyph glyph-name="union" unicode="&#x222a;" horiz-adv-x="1268" vert-adv-y="2308" 
d="M104 1365h201v-625q0 -166 9 -250q12 -119 64 -186q44 -57 112 -89q71 -34 144 -34q112 0 202 69q66 50 94 125q33 92 33 365v625h201v-619q0 -233 -12 -322q-30 -213 -201 -331q-136 -93 -317 -93t-316 93q-172 118 -201 331q-13 93 -13 322v619z" />
    <glyph glyph-name="uni222E" unicode="&#x222e;" vert-adv-y="2308" 
d="M151 -491l40 180q59 -20 102 -20q101 0 114 103q4 32 4 155v192q-94 24 -169 80q-71 55 -114 138q-49 93 -49 194q0 138 85 251q88 119 247 160v160q0 184 19 252q24 84 101 136q69 46 177 46q65 0 163 -22l-40 -179q-60 20 -102 20q-101 0 -113 -103q-4 -29 -4 -155
v-154q102 -27 165 -75q77 -59 121 -144q48 -91 48 -193q0 -139 -83 -251q-91 -122 -251 -162v-153q0 -213 -15 -280q-27 -119 -141 -167q-68 -28 -156 -28q-82 0 -149 19zM612 810v-555q66 28 98 57q93 88 93 220q0 195 -191 278zM411 255v555q-58 -23 -93 -56
q-96 -89 -96 -221q0 -91 49 -167q47 -72 140 -111z" />
    <glyph glyph-name="uni2236" unicode="&#x2236;" horiz-adv-x="567" vert-adv-y="2308" 
d="M284 481q49 0 85 -36q35 -35 35 -86q0 -50 -36 -85q-36 -36 -86 -36t-86 36q-35 35 -35 85q0 51 35 86q37 36 88 36zM284 1129q49 0 85 -36q35 -36 35 -86t-36 -85q-36 -36 -86 -36t-86 36q-35 35 -35 85q0 51 35 86q37 36 88 36z" />
    <glyph glyph-name="similar" unicode="&#x223c;" vert-adv-y="2308" 
d="M131 526l-114 74q35 80 75 138q83 120 218 120q74 0 223 -63q99 -42 127 -49q34 -9 61 -9q68 0 112 45q23 24 57 79l117 -68q-65 -134 -130 -185q-82 -64 -180 -64q-65 0 -292 94q-63 26 -111 26q-63 0 -109 -53q-24 -29 -54 -85z" />
    <glyph glyph-name="equivalence" unicode="&#x2261;" vert-adv-y="2308" 
d="M68 1095h887v-181h-887v181zM68 783h887v-181h-887v181zM68 471h887v-181h-887v181z" />
    <glyph glyph-name="dotoperator" unicode="&#x22c5;" horiz-adv-x="518" vert-adv-y="2308" 
d="M260 652q56 0 97 -41q40 -41 40 -98t-41 -98q-40 -40 -97 -40q-58 0 -99 41q-40 40 -40 97q0 58 40 98q42 41 100 41z" />
    <glyph glyph-name="house" unicode="&#x2302;" horiz-adv-x="1538" vert-adv-y="2308" 
d="M172 0v821l597 672l597 -672v-821h-1194zM276 104h986v672l-493 553l-493 -553v-672z" />
    <glyph glyph-name="revlogicalnot" unicode="&#x2310;" vert-adv-y="2308" 
d="M269 0h-201v546h887v-188h-686v-358z" />
    <glyph glyph-name="uni2319" unicode="&#x2319;" vert-adv-y="2308" 
d="M269 546v-358h686v-188h-887v546h201z" />
    <glyph glyph-name="integraltp" unicode="&#x2320;" vert-adv-y="2308" 
d="M612 -512h-201v1585q0 211 19 281q23 80 94 131q70 51 183 51q65 0 163 -22l-39 -179q-60 20 -102 20q-101 0 -113 -103q-4 -29 -4 -154v-1610z" />
    <glyph glyph-name="integralbt" unicode="&#x2321;" vert-adv-y="2308" 
d="M412 1536h201v-1585q0 -212 -19 -281q-23 -80 -94 -131q-70 -51 -184 -51q-65 0 -162 22l39 179q60 -20 102 -20q101 0 113 102q4 30 4 155v1610z" />
    <glyph glyph-name="2500" unicode="&#x2500;" horiz-adv-x="2048" vert-adv-y="2308" 
d="M0 444v135h2048v-135h-2048z" />
    <glyph glyph-name="2502" unicode="&#x2502;" horiz-adv-x="2048" vert-adv-y="2308" 
d="M956 -512v2048h135v-2048h-135z" />
    <glyph glyph-name="250c" unicode="&#x250c;" horiz-adv-x="2048" vert-adv-y="2308" 
d="M2048 579v-135h-957v-956h-135v1091h1092z" />
    <glyph glyph-name="2510" unicode="&#x2510;" horiz-adv-x="2048" vert-adv-y="2308" 
d="M957 444h-957v135h1092v-1091h-135v956z" />
    <glyph glyph-name="2514" unicode="&#x2514;" horiz-adv-x="2048" vert-adv-y="2308" 
d="M1091 579h957v-135h-1092v1092h135v-957z" />
    <glyph glyph-name="2518" unicode="&#x2518;" horiz-adv-x="2048" vert-adv-y="2308" 
d="M0 444v135h957v957h135v-1092h-1092z" />
    <glyph glyph-name="251c" unicode="&#x251c;" horiz-adv-x="2048" vert-adv-y="2308" 
d="M1091 579h957v-135h-957v-956h-135v2048h135v-957z" />
    <glyph glyph-name="2524" unicode="&#x2524;" horiz-adv-x="2048" vert-adv-y="2308" 
d="M957 444h-957v135h957v957h135v-2048h-135v956z" />
    <glyph glyph-name="252c" unicode="&#x252c;" horiz-adv-x="2048" vert-adv-y="2308" 
d="M1091 444v-956h-135v956h-956v135h2048v-135h-957z" />
    <glyph glyph-name="2534" unicode="&#x2534;" horiz-adv-x="2048" vert-adv-y="2308" 
d="M956 579v957h135v-957h957v-135h-2048v135h956z" />
    <glyph glyph-name="253c" unicode="&#x253c;" horiz-adv-x="2048" vert-adv-y="2308" 
d="M956 444h-956v135h956v957h135v-957h957v-135h-957v-956h-135v956z" />
    <glyph glyph-name="2550" unicode="&#x2550;" horiz-adv-x="2048" vert-adv-y="2308" 
d="M0 309v135h2048v-135h-2048zM0 580v135h2048v-135h-2048z" />
    <glyph glyph-name="2551" unicode="&#x2551;" horiz-adv-x="2048" vert-adv-y="2308" 
d="M821 -512v2048h135v-2048h-135zM1092 -512v2048h135v-2048h-135z" />
    <glyph glyph-name="2552" unicode="&#x2552;" horiz-adv-x="2048" vert-adv-y="2308" 
d="M956 -512v1227h1092v-135h-957v-136h957v-135h-957v-821h-135z" />
    <glyph glyph-name="2553" unicode="&#x2553;" horiz-adv-x="2048" vert-adv-y="2308" 
d="M1091 444h-135v-956h-135v1091h1227v-135h-822v-956h-135v956z" />
    <glyph glyph-name="2554" unicode="&#x2554;" horiz-adv-x="2048" vert-adv-y="2308" 
d="M956 580v-1092h-135v1227h1227v-135h-1092zM1226 309v-821h-135v956h957v-135h-822z" />
    <glyph glyph-name="2555" unicode="&#x2555;" horiz-adv-x="2048" vert-adv-y="2308" 
d="M957 309h-957v135h957v136h-957v135h1092v-1227h-135v821z" />
    <glyph glyph-name="2556" unicode="&#x2556;" horiz-adv-x="2048" vert-adv-y="2308" 
d="M956 444v-956h-135v956h-821v135h1227v-1091h-135v956h-136z" />
    <glyph glyph-name="2557" unicode="&#x2557;" horiz-adv-x="2048" vert-adv-y="2308" 
d="M1092 580h-1092v135h1227v-1227h-135v1092zM821 309h-821v135h956v-956h-135v821z" />
    <glyph glyph-name="2558" unicode="&#x2558;" horiz-adv-x="2048" vert-adv-y="2308" 
d="M956 1536h135v-821h957v-135h-957v-136h957v-135h-1092v1227z" />
    <glyph glyph-name="2559" unicode="&#x2559;" horiz-adv-x="2048" vert-adv-y="2308" 
d="M1091 579v957h135v-957h822v-135h-1227v1092h135v-957h135z" />
    <glyph glyph-name="255a" unicode="&#x255a;" horiz-adv-x="2048" vert-adv-y="2308" 
d="M956 444h1092v-135h-1227v1227h135v-1092zM1226 715h822v-135h-957v956h135v-821z" />
    <glyph glyph-name="255b" unicode="&#x255b;" horiz-adv-x="2048" vert-adv-y="2308" 
d="M957 715v821h135v-1227h-1092v135h957v136h-957v135h957z" />
    <glyph glyph-name="255c" unicode="&#x255c;" horiz-adv-x="2048" vert-adv-y="2308" 
d="M956 579h136v957h135v-1092h-1227v135h821v957h135v-957z" />
    <glyph glyph-name="255d" unicode="&#x255d;" horiz-adv-x="2048" vert-adv-y="2308" 
d="M1092 444v1092h135v-1227h-1227v135h1092zM821 715v821h135v-956h-956v135h821z" />
    <glyph glyph-name="255e" unicode="&#x255e;" horiz-adv-x="2048" vert-adv-y="2308" 
d="M956 1536h135v-821h957v-135h-957v-136h957v-135h-957v-821h-135v2048z" />
    <glyph glyph-name="255f" unicode="&#x255f;" horiz-adv-x="2048" vert-adv-y="2308" 
d="M1226 444v-956h-135v2048h135v-957h822v-135h-822zM956 -512h-135v2048h135v-2048z" />
    <glyph glyph-name="2560" unicode="&#x2560;" horiz-adv-x="2048" vert-adv-y="2308" 
d="M821 -512v2048h135v-2048h-135zM1226 715h822v-135h-957v956h135v-821zM1226 309v-821h-135v956h957v-135h-822z" />
    <glyph glyph-name="2561" unicode="&#x2561;" horiz-adv-x="2048" vert-adv-y="2308" 
d="M957 715v821h135v-2048h-135v821h-957v135h957v136h-957v135h957z" />
    <glyph glyph-name="2562" unicode="&#x2562;" horiz-adv-x="2048" vert-adv-y="2308" 
d="M821 444h-821v135h821v957h135v-2048h-135v956zM1092 -512v2048h135v-2048h-135z" />
    <glyph glyph-name="2563" unicode="&#x2563;" horiz-adv-x="2048" vert-adv-y="2308" 
d="M1227 -512h-135v2048h135v-2048zM821 715v821h135v-956h-956v135h821zM821 309h-821v135h956v-956h-135v821z" />
    <glyph glyph-name="2564" unicode="&#x2564;" horiz-adv-x="2048" vert-adv-y="2308" 
d="M0 715h2048v-135h-2048v135zM956 309h-956v135h2048v-135h-957v-821h-135v821z" />
    <glyph glyph-name="2565" unicode="&#x2565;" horiz-adv-x="2048" vert-adv-y="2308" 
d="M821 444h-821v135h2048v-135h-821v-956h-135v956h-136v-956h-135v956z" />
    <glyph glyph-name="2566" unicode="&#x2566;" horiz-adv-x="2048" vert-adv-y="2308" 
d="M0 715h2048v-135h-2048v135zM1227 309v-821h-135v956h956v-135h-821zM821 309h-821v135h956v-956h-135v821z" />
    <glyph glyph-name="2567" unicode="&#x2567;" horiz-adv-x="2048" vert-adv-y="2308" 
d="M0 309v135h2048v-135h-2048zM956 715v821h135v-821h957v-135h-2048v135h956z" />
    <glyph glyph-name="2568" unicode="&#x2568;" horiz-adv-x="2048" vert-adv-y="2308" 
d="M0 444v135h821v957h135v-957h136v957h135v-957h821v-135h-2048z" />
    <glyph glyph-name="2569" unicode="&#x2569;" horiz-adv-x="2048" vert-adv-y="2308" 
d="M0 309v135h2048v-135h-2048zM1227 715h821v-135h-956v956h135v-821zM821 715v821h135v-956h-956v135h821z" />
    <glyph glyph-name="256a" unicode="&#x256a;" horiz-adv-x="2048" vert-adv-y="2308" 
d="M956 444v136h-956v135h956v821h135v-821h957v-135h-957v-136h957v-135h-957v-821h-135v821h-956v135h956z" />
    <glyph glyph-name="256b" unicode="&#x256b;" horiz-adv-x="2048" vert-adv-y="2308" 
d="M821 444h-821v135h821v957h135v-957h136v957h135v-957h821v-135h-821v-956h-135v956h-136v-956h-135v956z" />
    <glyph glyph-name="256c" unicode="&#x256c;" horiz-adv-x="2048" vert-adv-y="2308" 
d="M1227 715h821v-135h-956v956h135v-821zM821 715v821h135v-956h-956v135h821zM1227 309v-821h-135v956h956v-135h-821zM821 309h-821v135h956v-956h-135v821z" />
    <glyph glyph-name="upblock" unicode="&#x2580;" horiz-adv-x="2048" vert-adv-y="2308" 
d="M0 512v1024h2048v-1024h-2048z" />
    <glyph glyph-name="dnblock" unicode="&#x2584;" horiz-adv-x="2048" vert-adv-y="2308" 
d="M0 -512v1024h2048v-1024h-2048z" />
    <glyph glyph-name="block" unicode="&#x2588;" horiz-adv-x="2048" vert-adv-y="2308" 
d="M0 -512v2048h2048v-2048h-2048z" />
    <glyph glyph-name="lfblock" unicode="&#x258c;" horiz-adv-x="2048" vert-adv-y="2308" 
d="M0 -512v2048h1024v-2048h-1024z" />
    <glyph glyph-name="rtblock" unicode="&#x2590;" horiz-adv-x="2048" vert-adv-y="2308" 
d="M1024 -512v2048h1024v-2048h-1024z" />
    <glyph glyph-name="ltshade" unicode="&#x2591;" horiz-adv-x="2048" vert-adv-y="2308" 
d="M0 1536h205v-205h-205v205zM410 1536h205v-205h-205v205zM1638 1536h205v-205h-205v205zM819 1536h205v-205h-205v205zM1229 1536h205v-205h-205v205zM0 1126h205v-205h-205v205zM0 717h205v-205h-205v205zM0 307h205v-205h-205v205zM0 -102h205v-205h-205v205zM410 1126
h205v-205h-205v205zM410 717h205v-205h-205v205zM410 307h205v-205h-205v205zM410 -102h205v-205h-205v205zM819 1126h205v-205h-205v205zM819 717h205v-205h-205v205zM819 307h205v-205h-205v205zM819 -102h205v-205h-205v205zM1229 1126h205v-205h-205v205zM1229 717h205
v-205h-205v205zM1229 307h205v-205h-205v205zM1229 -102h205v-205h-205v205zM1638 1126h205v-205h-205v205zM1638 717h205v-205h-205v205zM1638 307h205v-205h-205v205zM1638 -102h205v-205h-205v205z" />
    <glyph glyph-name="shade" unicode="&#x2592;" horiz-adv-x="2048" vert-adv-y="2308" 
d="M1843 -307h204v-205h-204v205h-205v-205h-204v205h-205v-205h-205v205h-205v-205h-205v205h-204v-205h-205v205h-205v204h205v-204h205v204h204v-204h205v204h205v-204h205v204h205v-204h204v204h205v205h-205v-205h-204v205h-205v-205h-205v205h-205v-205h-205v205h-204
v-205h-205v205h-205v205h205v-205h205v205h204v-205h205v205h205v-205h205v205h205v-205h204v205h205v205h-205v-205h-204v205h-205v-205h-205v205h-205v-205h-205v205h-204v-205h-205v205h-205v205h205v-205h205v205h204v-205h205v205h205v-205h205v205h205v-205h204v205
h205v205h-205v-205h-204v205h-205v-205h-205v205h-205v-205h-205v205h-204v-205h-205v205h-205v204h205v-204h205v204h204v-204h205v204h205v-204h205v204h205v-204h204v204h205v205h-205v-205h-204v205h-205v-205h-205v205h-205v-205h-205v205h-204v-205h-205v205h-205v205
h205v-205h205v205h204v-205h205v205h205v-205h205v205h205v-205h204v205h205v-205h204v-205h-204v-204h204v-205h-204v-205h204v-205h-204v-205h204v-205h-204v-204z" />
    <glyph glyph-name="dkshade" unicode="&#x2593;" horiz-adv-x="2048" vert-adv-y="2308" 
d="M2048 -512h-2048v205h205v205h-205v205h205v204h-205v205h205v205h-205v205h205v204h-205v205h205v205h205v-205h204v205h205v-205h205v205h205v-205h204v205h205v-205h205v205h205v-2048zM1843 1126h-205v-204h205v204zM1433 1126h-204v-204h204v204zM1024 1126h-205
v-204h205v204zM614 1126h-204v-204h204v204zM1843 717h-205v-205h205v205zM1433 717h-204v-205h204v205zM1024 717h-205v-205h205v205zM614 717h-204v-205h204v205zM1843 307h-205v-204h205v204zM1433 307h-204v-204h204v204zM1024 307h-205v-204h205v204zM614 307h-204
v-204h204v204zM1843 -102h-205v-205h205v205zM1433 -102h-204v-205h204v205zM1024 -102h-205v-205h205v205zM614 -102h-204v-205h204v205z" />
    <glyph glyph-name="filledbox" unicode="&#x25a0;" horiz-adv-x="1365" vert-adv-y="2308" 
d="M1365 0h-1365v1365h1365v-1365z" />
    <glyph glyph-name="whitesquare" unicode="&#x25a1;" horiz-adv-x="1365" vert-adv-y="2308" 
d="M1365 0h-1365v1365h1365v-1365zM1269 96v1173h-1173v-1173h1173z" />
    <glyph glyph-name="filledrect" unicode="&#x25ac;" horiz-adv-x="1365" vert-adv-y="2308" 
d="M1365 683v-683h-1365v683h1365z" />
    <glyph glyph-name="blackverticalrect" unicode="&#x25ae;" horiz-adv-x="1365" vert-adv-y="2308" 
d="M1024 0h-683v1365h683v-1365z" />
    <glyph glyph-name="uni25AF" unicode="&#x25af;" horiz-adv-x="1365" vert-adv-y="2308" 
d="M690 1207q142 0 271 -77q128 -77 196 -207q59 -113 59 -239q0 -216 -154 -370q-157 -156 -380 -156q-222 0 -378 156q-154 154 -154 369q0 221 155 370q161 154 385 154z" />
    <glyph glyph-name="triagup" unicode="&#x25b2;" horiz-adv-x="1365" vert-adv-y="2308" 
d="M1297 137h-1229l615 1150z" />
    <glyph glyph-name="uni25B4" unicode="&#x25b4;" vert-adv-y="2308" 
d="M956 300h-888l444 830z" />
    <glyph glyph-name="uni25B8" unicode="&#x25b8;" vert-adv-y="2308" 
d="M146 243v888l830 -444z" />
    <glyph glyph-name="triagdn" unicode="&#x25bc;" horiz-adv-x="1365" vert-adv-y="2308" 
d="M68 1229h1229l-615 -1150z" />
    <glyph glyph-name="uni25BE" unicode="&#x25be;" vert-adv-y="2308" 
d="M68 1065h887l-443 -830z" />
    <glyph glyph-name="uni25C2" unicode="&#x25c2;" vert-adv-y="2308" 
d="M878 1131v-888l-830 444z" />
    <glyph glyph-name="circle" unicode="&#x25cb;" horiz-adv-x="1365" vert-adv-y="2308" 
d="M690 1207q142 0 271 -77q128 -77 196 -207q59 -113 59 -239q0 -216 -154 -370q-157 -156 -380 -156q-222 0 -378 156q-154 154 -154 369q0 221 155 370q161 154 385 154zM678 1113q-175 0 -305 -127q-127 -124 -127 -302t127 -304q128 -128 310 -128t311 128
q126 127 126 303q0 181 -128 304q-131 126 -314 126z" />
    <glyph glyph-name="invbullet" unicode="&#x25d8;" horiz-adv-x="1365" vert-adv-y="2308" 
d="M0 0v1365h1365v-1365h-1365zM680 969q-112 0 -195 -83q-84 -84 -84 -203t84 -204q83 -83 198 -83q116 0 199 84q82 84 82 202q0 121 -83 204q-84 83 -201 83z" />
    <glyph glyph-name="invcircle" unicode="&#x25d9;" horiz-adv-x="1365" vert-adv-y="2308" 
d="M688 1113q175 0 304 -126q128 -125 128 -304q0 -176 -127 -303q-128 -128 -311 -128q-182 0 -310 128q-127 126 -127 303q0 181 127 303q133 127 316 127zM1365 0h-1365v1365h1365v-1365zM676 1207q-143 0 -272 -78q-128 -77 -196 -207q-58 -111 -58 -237
q0 -218 154 -371q156 -156 378 -156t379 156q154 154 154 369q0 148 -79 275q-77 124 -212 192q-113 57 -248 57z" />
    <glyph glyph-name="openbullet" unicode="&#x25e6;" vert-adv-y="2308" 
d="M516 983q111 0 194 -84q83 -83 83 -203q0 -118 -82 -202q-83 -84 -199 -84q-115 0 -198 83q-84 85 -84 203q0 122 84 204q84 83 202 83zM510 886q-74 0 -129 -55t-55 -134t55 -135q55 -55 131 -55t131 56q54 55 54 133q0 80 -55 135t-132 55z" />
    <glyph glyph-name="smileface" unicode="&#x263a;" horiz-adv-x="1365" vert-adv-y="2308" 
d="M491 953q37 0 65 -30q23 -25 23 -60q0 -40 -30 -67q-26 -23 -60 -23q-40 0 -67 30q-23 26 -23 61q0 38 30 66q25 23 62 23zM888 953q39 0 66 -30q23 -26 23 -60q0 -40 -30 -68q-26 -23 -60 -23q-40 0 -68 30q-23 26 -23 61q0 39 30 67q26 23 62 23zM1106 762
q-10 -136 -34 -204q-50 -138 -160 -209q-96 -61 -228 -61q-224 0 -337 169q-46 69 -65 148q-12 53 -20 157q19 -82 44 -125q58 -98 160 -152q92 -49 218 -49q211 0 337 145q41 47 61 98q11 27 24 83zM694 1331q165 0 313 -87q151 -89 237 -237q87 -150 87 -324t-87 -325
q-87 -150 -237 -237q-151 -87 -325 -87q-173 0 -324 87t-237 237q-87 152 -87 330q0 279 215 476q182 167 445 167zM675 1245q-145 0 -273 -75q-131 -78 -206 -206q-75 -130 -75 -281t75 -282q76 -130 206 -206q131 -75 281 -75q151 0 282 75q131 76 206 206q75 132 75 286
q0 242 -187 413q-158 145 -384 145z" />
    <glyph glyph-name="invsmileface" unicode="&#x263b;" horiz-adv-x="1365" vert-adv-y="2308" 
d="M694 1331q165 0 313 -87q151 -89 237 -237q87 -150 87 -324t-87 -325q-87 -150 -237 -237q-151 -87 -325 -87q-173 0 -324 87t-237 237q-87 152 -87 330q0 280 215 476q183 167 445 167zM488 953q-38 0 -65 -30q-23 -26 -23 -60q0 -40 30 -67q25 -23 59 -23q40 0 67 30
q23 26 23 61q0 38 -30 66q-25 23 -61 23zM886 954q-39 0 -66 -30q-24 -26 -24 -60q0 -40 30 -68q26 -23 61 -23q41 0 68 30q23 26 23 61q0 39 -30 67q-25 23 -62 23zM1106 761q-19 -81 -44 -124q-58 -98 -160 -152q-92 -49 -218 -49q-211 0 -337 145q-41 47 -62 98
q-10 27 -23 82q10 -136 34 -203q50 -138 160 -209q96 -61 228 -61q224 0 337 169q46 69 65 148q12 52 20 156z" />
    <glyph glyph-name="sun" unicode="&#x263c;" horiz-adv-x="1365" vert-adv-y="2308" 
d="M326 968l-153 152l73 72l153 -153q104 83 232 98v215h103v-216q135 -16 233 -96l153 152l72 -72l-153 -152q80 -100 96 -232h216v-105h-216q-16 -131 -96 -233l153 -153l-72 -72l-153 153q-103 -81 -233 -96v-216h-103v216q-119 12 -233 96l-152 -153l-73 72l152 153
q-81 102 -94 233h-216v105h215q16 128 96 232zM678 1010q-140 0 -238 -108q-84 -93 -84 -218q0 -146 108 -244q94 -84 219 -84q145 0 242 109q84 93 84 221q0 141 -108 240q-92 84 -223 84z" />
    <glyph glyph-name="female" unicode="&#x2640;" horiz-adv-x="1365" vert-adv-y="2308" 
d="M632 644q-93 14 -166 68q-72 52 -112 133q-40 80 -40 170q0 155 109 265q107 109 259 109t260 -108q110 -110 110 -266q0 -122 -72 -222q-90 -125 -250 -150v-214h334v-88h-334v-341h-98v341h-330v88h330v215zM681 1293q-110 0 -190 -80q-81 -81 -81 -197q0 -115 82 -197
q79 -80 191 -80q113 0 193 81q80 82 80 195q0 118 -81 197q-81 81 -194 81z" />
    <glyph glyph-name="male" unicode="&#x2642;" horiz-adv-x="1365" vert-adv-y="2308" 
d="M856 712q73 -100 73 -225q0 -154 -108 -263q-107 -110 -260 -110q-151 0 -259 108q-110 111 -110 267q0 155 109 265q109 109 260 109q126 0 229 -81l309 309q-103 23 -216 82q-44 24 -44 48q0 25 27 25q11 0 41 -6q88 -19 170 -19q114 0 190 21q36 10 46 10q21 0 21 -21
q0 -9 -10 -46q-22 -79 -22 -179q0 -85 19 -173q7 -30 7 -41q0 -27 -26 -27q-15 0 -25 11q-42 48 -71 126q-31 82 -39 121zM558 767q-109 0 -189 -80q-81 -81 -81 -197q0 -115 81 -197q80 -80 192 -80t192 81q80 82 80 195q0 118 -80 197q-82 81 -195 81z" />
    <glyph glyph-name="spade" unicode="&#x2660;" horiz-adv-x="1365" vert-adv-y="2308" 
d="M220 0v38q128 23 193 50q112 44 187 166q66 108 72 268q-17 -40 -27 -56q-34 -59 -97 -101q-81 -52 -172 -52q-97 0 -169 71q-77 77 -77 184q0 94 48 166q60 93 165 180q291 235 336 490q40 -117 64 -167q38 -77 102 -148q58 -62 142 -140q114 -103 156 -154
q92 -114 92 -232q0 -87 -54 -155q-75 -94 -197 -94q-171 0 -284 207q6 -100 28 -174q39 -126 149 -208q79 -61 285 -101v-38h-942z" />
    <glyph glyph-name="club" unicode="&#x2663;" horiz-adv-x="1365" vert-adv-y="2308" 
d="M1149 0h-933v38q182 32 257 85q170 125 191 346q3 38 5 92q-45 -77 -69 -107q-51 -65 -124 -105q-86 -49 -176 -49q-129 0 -219 103q-76 87 -76 208q0 129 84 219q76 82 186 82q56 0 121 -31q12 -5 56 -27q-73 108 -73 204q0 122 90 208q88 85 214 85q122 0 210 -81
q93 -87 93 -213q0 -97 -73 -203q57 28 76 36q50 22 101 22q118 0 196 -93q74 -89 74 -207q0 -141 -98 -232q-86 -80 -198 -80q-108 0 -212 71q-68 48 -123 136q-9 15 -32 54q2 -128 28 -214q36 -120 145 -207q53 -43 124 -66q60 -18 155 -36v-38z" />
    <glyph glyph-name="heart" unicode="&#x2665;" horiz-adv-x="1365" vert-adv-y="2308" 
d="M680 -22q-32 129 -97 245q-72 125 -165 251l-118 160q-90 123 -125 186q-60 110 -60 212q0 119 79 199q76 77 186 77q153 0 245 -139q28 -43 55 -126q31 105 80 162q90 105 221 105q123 0 204 -93q66 -76 66 -173q0 -136 -99 -298q-41 -65 -126 -174q-292 -364 -346 -594
z" />
    <glyph glyph-name="diamond" unicode="&#x2666;" horiz-adv-x="1365" vert-adv-y="2308" 
d="M682 1419q76 -144 283 -429q162 -221 237 -305q-51 -57 -267 -346q-148 -201 -253 -392q-41 85 -199 312q-86 124 -148 207q-73 91 -147 188l-24 31q46 54 261 337q154 206 257 397z" />
    <glyph glyph-name="musicalnote" unicode="&#x266a;" horiz-adv-x="1365" vert-adv-y="2308" 
d="M626 319v1046h93v-124q26 -34 137 -167q186 -222 186 -459q0 -192 -116 -333h-58q68 159 68 307q0 103 -44 196q-67 141 -173 157v-623q0 -125 -58 -207q-38 -54 -98 -89q-72 -41 -154 -41q-87 0 -121 54q-20 32 -20 68q0 76 53 143q43 55 113 80q44 15 82 15
q57 0 110 -23z" />
    <glyph glyph-name="uni266C" unicode="&#x266c;" horiz-adv-x="1365" vert-adv-y="2308" 
d="M399 1202l862 220v-1029q0 -95 -35 -166q-35 -70 -100 -115q-79 -56 -175 -56q-88 0 -120 53q-20 32 -20 70q0 76 52 143q43 55 113 80q43 15 80 15q60 0 111 -24v554l-675 -185v-483q0 -125 -58 -206q-38 -54 -98 -89q-72 -41 -155 -41q-87 0 -120 53q-20 32 -20 68
q0 75 53 142q43 55 113 79q43 15 82 15q56 0 110 -21v923zM492 918l675 185v142l-675 -185v-142z" />
    <glyph glyph-name="ff" unicode="&#xea00;" horiz-adv-x="1229" vert-adv-y="2308" 
d="M766 972v61q0 179 46 252q37 59 108 91q55 25 126 25q88 0 192 -39v-170q-97 34 -155 34q-79 0 -103 -72q-11 -35 -11 -138v-44h235v-159h-233v-813h-205v813h-395v-813h-205v813h-133v159h133v61q0 179 46 252q37 59 108 91q55 25 126 25q89 0 192 -39v-170
q-96 34 -155 34q-79 0 -103 -72q-11 -35 -11 -138v-44h397z" />
    <glyph glyph-name="fi" unicode="&#xea01;" horiz-adv-x="1116" vert-adv-y="2308" 
d="M369 972h235v-159h-233v-813h-205v813h-133v159h133v61q0 180 47 254q73 114 234 114q89 0 191 -39v-170q-96 34 -155 34q-79 0 -103 -72q-11 -34 -11 -138v-44zM766 972h205v-972h-205v972zM873 1388q51 0 85 -31q38 -35 38 -97q0 -56 -34 -90q-36 -36 -93 -36
q-58 0 -92 35q-35 34 -35 89q0 62 39 97q37 33 92 33z" />
    <glyph glyph-name="fl" unicode="&#xea02;" horiz-adv-x="1116" vert-adv-y="2308" 
d="M369 972h235v-159h-233v-813h-205v813h-133v159h133v61q0 180 47 254q73 114 234 114q89 0 191 -39v-170q-96 34 -155 34q-79 0 -103 -72q-11 -34 -11 -138v-44zM766 1373h205v-1373h-205v1373z" />
    <glyph glyph-name="ffi" unicode="&#xea03;" horiz-adv-x="1715" vert-adv-y="2308" 
d="M766 972v61q0 179 46 252q37 59 108 91q55 25 126 25q88 0 192 -39v-170q-97 34 -155 34q-79 0 -103 -72q-11 -35 -11 -138v-44h235v-159h-233v-813h-205v813h-395v-813h-205v813h-133v159h133v61q0 179 46 252q37 59 108 91q55 25 126 25q89 0 192 -39v-170
q-96 34 -155 34q-79 0 -103 -72q-11 -35 -11 -138v-44h397zM1366 972h205v-972h-205v972zM1472 1388q51 0 85 -31q38 -35 38 -97q0 -56 -34 -90q-36 -36 -93 -36q-58 0 -92 35q-35 34 -35 89q0 62 39 97q37 33 92 33z" />
    <glyph glyph-name="ffl" unicode="&#xea04;" horiz-adv-x="1715" vert-adv-y="2308" 
d="M766 972v61q0 179 46 252q37 59 108 91q55 25 126 25q88 0 192 -39v-170q-97 34 -155 34q-79 0 -103 -72q-11 -35 -11 -138v-44h235v-159h-233v-813h-205v813h-395v-813h-205v813h-133v159h133v61q0 179 46 252q37 59 108 91q55 25 126 25q89 0 192 -39v-170
q-96 34 -155 34q-79 0 -103 -72q-11 -35 -11 -138v-44h397zM1366 1373h205v-1373h-205v1373z" />
    <glyph glyph-name="oneeighth" unicode="&#xea05;" horiz-adv-x="1745" vert-adv-y="2308" 
d="M159 1121v82q85 1 130 34q43 32 58 99h97v-804h-138v589h-147zM1177 1331h165l-774 -1331h-164zM1206 421q-91 55 -91 163t88 175q73 56 172 56q100 0 173 -56q88 -67 88 -175q0 -107 -90 -163q109 -65 109 -187q0 -114 -90 -184q-78 -61 -190 -61q-111 0 -189 61
q-90 70 -90 184q0 123 110 187zM1374 705q-49 0 -82 -30q-37 -32 -37 -87q0 -54 37 -86q33 -30 84 -30q50 0 84 30q36 32 36 86q0 56 -36 87q-35 30 -86 30zM1374 363q-49 0 -88 -28q-50 -36 -50 -104q0 -69 50 -104q41 -28 90 -28q50 0 89 28q50 36 50 104t-50 104
q-40 28 -91 28z" />
    <glyph glyph-name="threeeighths" unicode="&#xea06;" horiz-adv-x="1745" vert-adv-y="2308" 
d="M238 1124h-121q4 101 60 158q71 72 200 72q116 0 182 -59q64 -58 64 -148q0 -122 -120 -176q138 -47 138 -192q0 -121 -95 -193q-72 -54 -185 -54q-166 0 -238 100q-42 59 -41 151h126q0 -134 149 -134q69 0 106 34q39 35 39 95q0 86 -81 115q-36 13 -111 13
q-12 0 -37 -1v113q25 -1 38 -1q74 0 115 23q57 31 57 97q0 45 -31 73q-32 28 -86 28q-112 0 -128 -114zM1178 1331h165l-774 -1331h-165zM1206 421q-90 60 -90 163q0 108 87 175q74 56 173 56q100 0 173 -56q88 -67 88 -175q0 -103 -90 -163q109 -64 109 -187
q0 -115 -90 -185q-78 -61 -190 -61q-111 0 -189 61q-90 70 -90 185q0 124 109 187zM1375 705q-49 0 -82 -30q-37 -32 -37 -86q0 -55 37 -87q33 -30 84 -30q50 0 84 30q36 32 36 86q0 56 -36 87q-35 30 -86 30zM1375 363q-49 0 -88 -28q-50 -37 -50 -105q0 -67 50 -104
q39 -28 90 -28q50 0 89 28q50 36 50 104q0 69 -50 105q-40 28 -91 28z" />
    <glyph glyph-name="fiveeighths" unicode="&#xea07;" horiz-adv-x="1745" vert-adv-y="2308" 
d="M189 1331h411l-11 -119h-295l-33 -172q68 38 136 38q117 0 190 -83q63 -72 63 -180q0 -120 -80 -205q-83 -89 -207 -89q-138 0 -211 87q-47 58 -53 144h131q17 -114 129 -114q65 0 103 45q43 52 43 126q0 72 -40 118q-35 39 -93 39q-79 0 -135 -75l-121 16zM1176 1331
h166l-774 -1331h-165zM1205 421q-90 59 -90 163q0 108 87 175q73 56 173 56t173 -56q88 -67 88 -175q0 -103 -90 -163q109 -63 109 -187q0 -115 -90 -185q-78 -61 -189 -61q-112 0 -190 61q-90 70 -90 185q0 124 109 187zM1374 705q-49 0 -82 -30q-37 -32 -37 -86t37 -87
q33 -30 84 -30q50 0 84 30q36 32 36 86q0 56 -36 87q-35 30 -86 30zM1374 363q-49 0 -88 -28q-50 -37 -50 -105q0 -67 50 -104q39 -28 90 -28q50 0 89 28q50 36 50 104q0 69 -50 105q-39 28 -91 28z" />
    <glyph glyph-name="seveneighths" unicode="&#xea08;" horiz-adv-x="1743" vert-adv-y="2308" 
d="M114 1331h554v-102l-402 -697h-154l389 673h-387v126zM1175 1331h165l-773 -1331h-165zM1204 421q-91 58 -91 163q0 108 87 175q74 56 173 56q100 0 173 -56q88 -67 88 -175q0 -105 -90 -163q110 -63 110 -188q0 -114 -90 -184q-79 -61 -190 -61q-112 0 -190 61
q-90 70 -90 185q0 124 110 187zM1372 704q-49 0 -82 -29q-37 -33 -37 -87t37 -86q33 -30 84 -30q50 0 84 30q36 32 36 86q0 55 -36 87q-35 29 -86 29zM1372 363q-49 0 -88 -28q-50 -37 -50 -105t50 -104q39 -28 90 -28q50 0 89 28q50 36 50 104q0 69 -50 105q-40 28 -91 28z
" />
    <glyph glyph-name="uniEA11" unicode="&#xea11;" vert-adv-y="2308" 
d="M328 1775q54 0 93 -40q40 -39 40 -95t-40 -95q-39 -40 -95 -40q-55 0 -95 40q-40 39 -40 95q0 57 40 95q40 40 97 40zM702 1775q53 0 93 -40q40 -39 40 -95t-40 -95q-40 -40 -95 -40t-95 40q-40 39 -40 95q0 57 40 95q40 40 97 40z" />
    <glyph glyph-name="uniEA12" unicode="&#xea12;" vert-adv-y="2308" 
d="M514 1786q59 0 102 -43t43 -104q0 -60 -43 -103t-103 -43q-61 0 -104 43t-43 103q0 62 43 104q44 43 105 43z" />
    <glyph glyph-name="uniEA13" unicode="&#xea13;" vert-adv-y="2308" 
d="M515 1853q79 0 136 -58q58 -57 58 -139q0 -80 -58 -138q-57 -58 -139 -58q-81 0 -138 58q-58 58 -58 138q0 83 58 139q59 58 141 58zM511 1757q-40 0 -69 -29q-30 -30 -30 -71q0 -42 30 -71q30 -30 70 -30q41 0 71 30q30 29 30 70q0 43 -30 72t-72 29z" />
    <glyph glyph-name="uniEA14" unicode="&#xea14;" vert-adv-y="2308" 
d="M394 1486l314 308h261l-380 -308h-195z" />
    <glyph glyph-name="uniEA15" unicode="&#xea15;" vert-adv-y="2308" 
d="M653 1486h-194l-381 308h261z" />
    <glyph glyph-name="uniEA16" unicode="&#xea16;" vert-adv-y="2308" 
d="M145 1500l274 279h185l275 -279h-194l-173 169l-172 -169h-195z" />
    <glyph glyph-name="uniEA17" unicode="&#xea17;" vert-adv-y="2308" 
d="M879 1779l-274 -279h-185l-275 279h193l174 -169l172 169h195z" />
    <glyph glyph-name="uniEA18" unicode="&#xea18;" vert-adv-y="2308" 
d="M221 1781h90q66 -151 201 -151q134 0 201 151h89q-11 -95 -56 -161q-86 -122 -233 -122q-151 0 -237 127q-44 65 -55 156z" />
    <glyph glyph-name="uniEA19" unicode="&#xea19;" vert-adv-y="2308" 
d="M269 1510l-104 31q57 208 197 208q51 0 151 -42q107 -44 141 -44q62 0 103 100l95 -30q-13 -73 -45 -122q-60 -95 -151 -95q-45 0 -161 47q-96 40 -132 40q-67 0 -94 -93z" />
    <glyph glyph-name="uniEA1A" unicode="&#xea1a;" vert-adv-y="2308" 
d="M236 1486l253 308h234l-328 -308h-159zM552 1486l252 308h235l-328 -308h-159z" />
    <glyph glyph-name="uniEA1B" unicode="&#xea1b;" vert-adv-y="2308" 
d="M424 0h134l-44 -119q82 -13 131 -49q76 -55 76 -151q0 -99 -75 -162q-65 -54 -158 -54q-77 0 -185 55v101q88 -39 135 -39q50 0 82 26q39 33 39 90q0 75 -64 104q-34 15 -79 15q-19 0 -57 -5z" />
    <glyph glyph-name="uniEA1C" unicode="&#xea1c;" vert-adv-y="2308" 
d="M738 0h183q-126 -73 -160 -106q-51 -49 -51 -100q0 -47 37 -74q27 -20 74 -20q41 0 94 18v-103q-75 -32 -141 -32q-111 0 -174 68q-50 55 -50 129q0 138 188 220z" />
    <glyph glyph-name="uniEA1D" unicode="&#xea1d;" vert-adv-y="2308" 
d="M201 1706h621v-132h-621v132z" />
    <glyph glyph-name="uniEA1E" unicode="&#xea1e;" horiz-adv-x="1746" vert-adv-y="2308" 
d="M159 1121v82q86 1 131 34q42 30 58 99h97v-804h-138v589h-148zM1177 1331h165l-774 -1331h-164zM1244 583h-121q3 100 60 158q71 72 201 72q115 0 180 -59q65 -58 65 -148q0 -122 -120 -175q138 -46 138 -193q0 -121 -95 -193q-72 -54 -185 -54q-166 0 -238 101
q-42 59 -41 151h126q2 -135 149 -135q68 0 106 34q39 34 39 96q0 85 -81 114q-37 13 -114 13q-12 0 -34 -1v114q26 -2 39 -2q72 0 114 23q57 31 57 96q0 45 -31 73q-32 28 -86 28q-112 0 -128 -113z" />
    <glyph glyph-name="uniEA1F" unicode="&#xea1f;" horiz-adv-x="1745" vert-adv-y="2308" 
d="M243 1096h-122q1 104 49 163q72 88 211 88q109 0 178 -56q70 -56 70 -152q0 -71 -52 -148q-62 -89 -283 -337h344v-122h-526v105q23 27 102 118q164 186 217 257q57 77 57 125q0 40 -32 66t-81 26q-123 0 -132 -133zM1177 1331h165l-774 -1331h-164zM1244 583h-121
q3 100 60 158q71 72 201 72q115 0 180 -59q65 -58 65 -148q0 -122 -120 -175q138 -47 138 -193q0 -121 -95 -193q-72 -54 -186 -54q-165 0 -237 101q-42 59 -41 151h126q2 -135 149 -135q69 0 106 34q39 35 39 96q0 85 -81 114q-37 13 -114 13q-12 0 -34 -1v114q26 -2 39 -2
q72 0 114 23q57 30 57 96q0 45 -31 73q-32 28 -86 28q-111 0 -128 -113z" />
    <glyph glyph-name="uniEA21" unicode="&#xea21;" horiz-adv-x="1602" vert-adv-y="2308" 
d="M166 1628h254v-254h254v254h254v-254h254v254h254v-254h-254v-254h254v-254h-254v-254h254v-254h-254v-254h254v-254h-254v254h-254v254h254v254h-254v254h254v254h-254v254h-254v-254h254v-254h-254v-254h254v-254h-254v-254h254v-254h-254v254h-254v-254h-254v254h254
v254h-254v254h254v-254h254v254h-254v254h-254v254h254v-254h254v254h-254v254h-254v254z" />
    <glyph glyph-name="uniEA31" unicode="&#xea31;" vert-adv-y="2308" 
d="M701 1219h-78q-17 81 -94 81q-47 0 -75 -30q-45 -45 -45 -131q0 -76 38 -122q31 -37 83 -37q90 0 96 105h81q-1 -63 -30 -107q-46 -71 -148 -71q-78 0 -133 45q-78 65 -78 186q0 127 79 191q54 44 131 44q94 0 141 -60q28 -35 32 -94zM518 1540q160 0 277 -117t117 -283
q0 -165 -117 -283q-117 -117 -283 -117q-165 0 -282 117q-117 118 -117 282q0 169 117 284q120 117 288 117zM509 1456q-124 0 -216 -92t-92 -224q0 -131 92 -224q91 -92 219 -92q129 0 220 92q92 93 92 224q0 134 -92 224q-93 92 -223 92z" />
    <glyph glyph-name="uniEA32" unicode="&#xea32;" vert-adv-y="2308" 
d="M381 1365h101q99 0 143 -18q76 -30 76 -119q0 -88 -86 -122l96 -191h-101l-85 176h-57v-176h-87v450zM468 1163h26q52 0 76 8q41 13 41 58q0 39 -33 54q-24 10 -96 10h-14v-130zM539 1540q160 0 277 -117t117 -283q0 -165 -117 -283q-117 -117 -283 -117q-165 0 -282 117
q-117 118 -117 282q0 169 117 284q120 117 288 117zM530 1456q-125 0 -216 -92q-92 -93 -92 -224t92 -224q91 -92 219 -92q129 0 220 92q92 93 92 224q0 134 -92 224q-93 92 -223 92z" />
    <glyph glyph-name="uniEA3F" unicode="&#xea3f;" vert-adv-y="2308" 
d="M705 941h-105q44 48 76 109q30 63 34 110q-44 2 -70 18q-52 32 -52 93q0 53 39 88q36 33 87 33q58 0 96 -44q37 -43 37 -116q0 -129 -142 -291z" />
    <glyph glyph-name="uniEA4E" unicode="&#xea4e;" vert-adv-y="2308" 
d="M0 1623h1024v-181h-1024v181z" />
    <glyph glyph-name="Hochkomma" unicode="&#xea4f;" vert-adv-y="2308" 
d="M524 1556h105q-44 -48 -75 -109q-31 -62 -35 -110q45 -2 71 -18q52 -32 52 -93q0 -52 -39 -88q-36 -33 -87 -33q-58 0 -96 44q-37 43 -37 117q0 131 141 290z" />
    <glyph glyph-name="uniEA66" unicode="&#xea66;" vert-adv-y="2308" 
d="M499 -555h-104q43 47 75 108q30 62 34 109q-43 2 -69 18q-51 31 -51 91q0 52 38 87q36 33 86 33q57 0 94 -43t37 -115q0 -129 -140 -288z" />
    <glyph glyph-name="uniEA67" unicode="&#xea67;" vert-adv-y="2308" 
d="M704 947h-104q43 46 75 108q31 62 34 108q-43 3 -69 18q-51 31 -51 92q0 51 38 86q36 33 86 33q57 0 94 -43t37 -115q0 -129 -140 -287z" />
    <glyph glyph-name="uniEA68" unicode="&#xea68;" vert-adv-y="2308" 
d="M351 1767q51 0 89 -38t38 -91t-38 -91t-91 -38t-91 38t-38 91q0 54 38 91q38 38 93 38zM678 1767q52 0 89 -38q38 -37 38 -91q0 -53 -38 -91t-91 -38t-91 38t-38 91q0 54 38 91q39 38 93 38z" />
    <glyph glyph-name="Unterkomma" unicode="&#xea69;" vert-adv-y="2308" 
d="M500 -560h-105q44 48 76 109q30 62 34 110q-44 2 -70 18q-52 32 -52 93q0 52 39 88q36 33 87 33q58 0 96 -44q37 -43 37 -117q0 -129 -142 -290z" />
    <glyph glyph-name="uniEA6A" unicode="&#xea6a;" vert-adv-y="2308" 
d="M359 1387q48 0 84 -35q35 -35 35 -86q0 -49 -35 -84q-36 -36 -85 -36q-50 0 -86 36q-35 35 -35 84q0 51 35 86q37 35 87 35zM668 1387q48 0 84 -35q35 -35 35 -86q0 -49 -35 -84q-36 -36 -85 -36q-50 0 -86 36q-35 35 -35 84q0 51 35 86q37 35 87 35z" />
    <glyph glyph-name="uniEA6B" unicode="&#xea6b;" horiz-adv-x="1230" vert-adv-y="2308" 
d="M1139 952h-187q-50 254 -282 254q-162 0 -257 -134q-103 -146 -103 -391q0 -247 107 -394q93 -128 257 -128q262 0 293 328h192q-11 -184 -79 -300q-124 -212 -399 -212q-247 0 -406 164q-187 192 -187 540q0 377 209 569q155 142 375 142q138 0 248 -60
q194 -105 219 -378zM659 -555h-104q43 47 75 108q30 62 34 109q-44 2 -69 18q-51 31 -51 91q0 52 38 87q36 33 86 33q57 0 94 -43t37 -116q0 -128 -140 -287z" />
    <glyph glyph-name="uniEA6C" unicode="&#xea6c;" horiz-adv-x="987" vert-adv-y="2308" 
d="M900 651h-198q-13 78 -44 121q-45 63 -139 63q-100 0 -158 -78q-76 -103 -76 -274q0 -198 96 -294q51 -52 140 -52q112 0 160 91q20 39 30 112h196q-10 -150 -99 -252q-102 -115 -287 -115q-179 0 -299 117q-143 142 -143 394q0 269 161 415q111 100 283 100
q201 0 305 -142q57 -78 72 -206zM502 -560h-105q43 48 75 109q30 62 34 110q-44 2 -70 18q-52 32 -52 93q0 52 39 88q36 33 87 33q58 0 96 -44q37 -43 37 -117q0 -130 -141 -290z" />
    <glyph glyph-name="Scommaaccent" unicode="&#xea6d;" horiz-adv-x="1140" vert-adv-y="2308" 
d="M1009 987h-204q-7 87 -52 140q-66 79 -190 79q-88 0 -151 -44q-72 -50 -72 -133q0 -75 76 -121q46 -28 233 -107q159 -67 217 -101q183 -109 183 -319q0 -201 -152 -315q-122 -91 -317 -91q-287 0 -416 186q-73 105 -81 281h205q11 -128 70 -194q79 -89 226 -89
q108 0 179 53q69 51 69 134q0 88 -89 149q-48 33 -225 108q-208 89 -280 156q-110 101 -110 251q0 191 151 295q122 85 290 85q146 0 256 -66q126 -75 165 -211q15 -50 19 -126zM553 -555h-104q43 47 75 108q30 62 34 109q-43 2 -69 18q-51 31 -51 91q0 52 38 87
q36 33 86 33q57 0 94 -43t37 -115q0 -129 -140 -288z" />
    <glyph glyph-name="scommaaccent" unicode="&#xea6e;" horiz-adv-x="949" vert-adv-y="2308" 
d="M849 689h-194q-9 70 -39 103q-45 51 -137 51q-68 0 -115 -34q-45 -34 -45 -89q0 -52 42 -80q38 -25 190 -70q137 -40 191 -71q119 -68 119 -218q0 -139 -94 -221q-99 -87 -282 -87q-281 0 -368 179q-33 66 -33 161h191q7 -83 41 -122q55 -61 164 -61q73 0 122 31
q56 35 56 105q0 60 -64 93q-36 19 -212 72q-146 44 -200 100q-64 67 -64 170q0 135 103 218q100 80 261 80q223 0 317 -142q44 -66 50 -168zM462 -561h-105q44 48 76 109q30 62 34 110q-44 2 -70 18q-52 32 -52 93q0 52 39 88q36 33 87 33q58 0 96 -44q37 -43 37 -117
q0 -129 -142 -290z" />
    <glyph glyph-name="peseta" unicode="&#xea71;" horiz-adv-x="1133" vert-adv-y="2308" 
d="M1020 1029h132v-128h-127q-15 -212 -182 -307q-95 -53 -258 -59q-69 -3 -161 -3h-89v-532h-214v901h-140v128h140v336h276q202 0 300 -18q179 -31 266 -166q42 -67 57 -152zM332 901v-187h90q208 -2 282 35q63 31 90 105q7 20 11 47h-473zM332 1029h463q-25 92 -109 126
q-71 29 -265 29h-89v-155z" />
    <glyph glyph-name="enonehalf" unicode="&#xea72;" horiz-adv-x="520" vert-adv-y="2308" 
d="M112 1185v59q60 1 91 23q28 20 40 67h70v-549h-99v400h-102zM-22 713h455v-90h-455v90zM123 383h-87v7q0 67 34 107q51 60 147 60q76 0 124 -38q49 -39 49 -105q0 -48 -37 -101q-42 -62 -192 -226h235v-87h-366v74q13 16 71 81q115 130 149 174q39 52 39 83q0 28 -21 44
q-22 17 -56 17q-82 0 -89 -90z" />
    <glyph glyph-name="enonequarter" unicode="&#xea73;" horiz-adv-x="520" vert-adv-y="2308" 
d="M113 1185v59q62 2 91 22q29 22 40 68h70v-549h-99v400h-102zM16 713h455v-90h-455v90zM360 198h102v-79h-100v-125h-100v125h-237v72l229 358h106v-351zM266 198v229l-141 -229h141z" />
    <glyph glyph-name="enthreequarters" unicode="&#xea74;" horiz-adv-x="520" vert-adv-y="2308" 
d="M176 1182h-87q2 71 42 111q49 49 140 49q80 0 126 -41q45 -40 45 -101q0 -82 -79 -119q92 -32 92 -131q0 -83 -66 -132q-51 -37 -129 -37q-116 0 -166 69q-29 39 -29 105h90q2 -91 102 -91q98 0 98 86q0 56 -54 75q-25 9 -80 9q-8 0 -24 -1v82q18 -1 27 -1q118 0 118 79
q0 29 -21 47q-21 19 -58 19q-75 0 -87 -77zM32 713h455v-90h-455v90zM376 198h102v-79h-100v-125h-100v125h-237v72l229 358h106v-351zM282 198v229l-141 -229h141z" />
    <glyph glyph-name="periodsuperior" unicode="&#xeab9;" horiz-adv-x="357" vert-adv-y="2308" 
d="M178 705q35 0 62 -26q26 -26 26 -63t-26 -64q-27 -26 -63 -26q-37 0 -64 27q-26 26 -26 62q0 38 26 64q27 26 65 26z" />
    <glyph glyph-name="commasuperior" unicode="&#xeaba;" horiz-adv-x="347" vert-adv-y="2308" 
d="M136 301h-96q50 54 83 124q25 57 32 107q-86 11 -86 81q0 38 30 63q27 24 65 24q42 0 71 -31q28 -32 28 -87q0 -118 -127 -281z" />
    <glyph glyph-name="hp1089" unicode="&#xefed;" vert-adv-y="2308" 
d="M514 1786q59 0 102 -43t43 -104q0 -60 -43 -103t-103 -43q-61 0 -104 43t-43 103q0 62 43 104q44 43 105 43z" />
    <glyph glyph-name="hp1087" unicode="&#xefee;" vert-adv-y="2308" 
d="M221 1781h90q66 -151 201 -151q134 0 201 151h89q-11 -95 -56 -161q-86 -122 -233 -122q-151 0 -237 127q-44 65 -55 156z" />
    <glyph glyph-name="hp1085" unicode="&#xefef;" vert-adv-y="2308" 
d="M201 1706h621v-132h-621v132z" />
    <glyph glyph-name="hp1045" unicode="&#xeff0;" vert-adv-y="2308" 
d="M236 1486l253 308h234l-328 -308h-159zM552 1486l252 308h235l-328 -308h-159z" />
    <glyph glyph-name="hp1030" unicode="&#xeff1;" vert-adv-y="2308" 
d="M738 0h183q-126 -73 -160 -106q-51 -49 -51 -100q0 -47 37 -74q27 -20 74 -20q41 0 94 18v-103q-75 -32 -141 -32q-111 0 -174 68q-50 55 -50 129q0 138 188 220z" />
    <glyph glyph-name="hp0330" unicode="&#xeff2;" vert-adv-y="2308" 
d="M424 0h134l-44 -119q82 -13 131 -49q76 -55 76 -151q0 -99 -75 -162q-65 -54 -158 -54q-77 0 -185 55v101q88 -39 135 -39q50 0 82 26q39 33 39 90q0 75 -64 104q-34 15 -79 15q-19 0 -57 -5z" />
    <glyph glyph-name="hp0323" unicode="&#xeff3;" vert-adv-y="2308" 
d="M515 1853q79 0 136 -58q58 -57 58 -139q0 -80 -58 -138q-57 -58 -139 -58q-81 0 -138 58q-58 58 -58 138q0 83 58 139q59 58 141 58zM511 1757q-40 0 -69 -29q-30 -30 -30 -71q0 -42 30 -71q30 -30 70 -30q41 0 71 30q30 29 30 70q0 43 -30 72t-72 29z" />
    <glyph glyph-name="hp0322" unicode="&#xeff4;" vert-adv-y="2308" 
d="M879 1779l-274 -279h-185l-275 279h193l174 -169l172 169h195z" />
    <glyph glyph-name="hp0321" unicode="&#xeff5;" vert-adv-y="2308" 
d="M269 1510l-104 31q57 208 197 208q51 0 151 -42q107 -44 141 -44q62 0 103 100l95 -30q-13 -73 -45 -122q-60 -95 -151 -95q-45 0 -161 47q-96 40 -132 40q-67 0 -94 -93z" />
    <glyph glyph-name="hp0320" unicode="&#xeff6;" vert-adv-y="2308" 
d="M328 1775q54 0 93 -40q40 -39 40 -95t-40 -95q-39 -40 -95 -40q-55 0 -95 40q-40 39 -40 95q0 57 40 95q40 40 97 40zM702 1775q53 0 93 -40q40 -39 40 -95t-40 -95q-40 -40 -95 -40t-95 40q-40 39 -40 95q0 57 40 95q40 40 97 40z" />
    <glyph glyph-name="hp0319" unicode="&#xeff7;" vert-adv-y="2308" 
d="M145 1500l274 279h185l275 -279h-194l-173 169l-172 -169h-195z" />
    <glyph glyph-name="hp0318" unicode="&#xeff8;" vert-adv-y="2308" 
d="M653 1486h-194l-381 308h261z" />
    <glyph glyph-name="hp0317" unicode="&#xeff9;" vert-adv-y="2308" 
d="M394 1486l314 308h261l-380 -308h-195z" />
    <glyph glyph-name="ff" unicode="&#xfb00;" horiz-adv-x="1229" vert-adv-y="2308" 
d="M766 972v61q0 179 46 252q37 59 108 91q55 25 126 25q88 0 192 -39v-170q-97 34 -155 34q-79 0 -103 -72q-11 -35 -11 -138v-44h235v-159h-233v-813h-205v813h-395v-813h-205v813h-133v159h133v61q0 179 46 252q37 59 108 91q55 25 126 25q89 0 192 -39v-170
q-96 34 -155 34q-79 0 -103 -72q-11 -35 -11 -138v-44h397z" />
    <glyph glyph-name="ffi" unicode="&#xfb03;" horiz-adv-x="1715" vert-adv-y="2308" 
d="M766 972v61q0 179 46 252q37 59 108 91q55 25 126 25q88 0 192 -39v-170q-97 34 -155 34q-79 0 -103 -72q-11 -35 -11 -138v-44h235v-159h-233v-813h-205v813h-395v-813h-205v813h-133v159h133v61q0 179 46 252q37 59 108 91q55 25 126 25q89 0 192 -39v-170
q-96 34 -155 34q-79 0 -103 -72q-11 -35 -11 -138v-44h397zM1366 972h205v-972h-205v972zM1472 1388q51 0 85 -31q38 -35 38 -97q0 -56 -34 -90q-36 -36 -93 -36q-58 0 -92 35q-35 34 -35 89q0 62 39 97q37 33 92 33z" />
    <glyph glyph-name="ffl" unicode="&#xfb04;" horiz-adv-x="1715" vert-adv-y="2308" 
d="M766 972v61q0 179 46 252q37 59 108 91q55 25 126 25q88 0 192 -39v-170q-97 34 -155 34q-79 0 -103 -72q-11 -35 -11 -138v-44h235v-159h-233v-813h-205v813h-395v-813h-205v813h-133v159h133v61q0 179 46 252q37 59 108 91q55 25 126 25q89 0 192 -39v-170
q-96 34 -155 34q-79 0 -103 -72q-11 -35 -11 -138v-44h397zM1366 1373h205v-1373h-205v1373z" />
    <glyph glyph-name="glyph585" horiz-adv-x="512" vert-adv-y="2308" 
 />
    </font>
</defs>
</svg>
