<?xml version="1.0" standalone="no"?>
<!DOCTYPE svg PUBLIC "-//W3C//DTD SVG 1.1//EN" "http://www.w3.org/Graphics/SVG/1.1/DTD/svg11.dtd" >
<svg xmlns="http://www.w3.org/2000/svg" xmlns:xlink="http://www.w3.org/1999/xlink" version="1.1">
<metadata>
Created by FontForge 20161116 at Tue Apr 11 16:21:36 2000
 By Jimmy Warting
Copyright 1998 by (URW)++ Design &#38; Development GmbH
</metadata>
<defs>
<font id="CorporateS-DemiItalic" horiz-adv-x="1024" >
  <font-face 
    font-family="CorpoSDem"
    font-weight="400"
    font-style="italic"
    font-stretch="normal"
    units-per-em="2048"
    panose-1="0 0 0 0 0 0 0 0 0 0"
    ascent="1638"
    descent="-410"
    x-height="969"
    cap-height="1365"
    bbox="-420 -512 2014 1846"
    underline-thickness="189"
    underline-position="-302"
    slope="140"
    unicode-range="U+0020-F002"
  />
<missing-glyph horiz-adv-x="512" 
d="M51 0v1365h410v-1365h-410zM410 51v1263h-308v-1263h308z" />
    <glyph glyph-name=".notdef" horiz-adv-x="512" 
d="M51 0v1365h410v-1365h-410zM410 51v1263h-308v-1263h308z" />
    <glyph glyph-name="glyph1" horiz-adv-x="0" 
 />
    <glyph glyph-name="glyph2" horiz-adv-x="512" 
 />
    <glyph glyph-name="space" unicode=" " horiz-adv-x="512" 
 />
    <glyph glyph-name="exclam" unicode="!" horiz-adv-x="515" 
d="M369 1335h210l-254 -915h-164zM198 260q50 0 82 -32t32 -84q0 -62 -46 -112q-50 -54 -117 -54q-50 0 -84 30q-35 32 -35 81q0 68 50 119q50 52 118 52z" />
    <glyph glyph-name="quotedbl" unicode="&#x22;" horiz-adv-x="882" 
d="M439 817h-131l101 548h202zM750 817h-130l101 548h202z" />
    <glyph glyph-name="numbersign" unicode="#" horiz-adv-x="1229" 
d="M1190 564l-23 -144h-238l-66 -420h-166l67 420h-275l-67 -420h-166l67 420h-234l23 144h234l42 265h-233l22 143h233l63 393h165l-62 -393h274l63 393h166l-62 -393h237l-22 -143h-238l-42 -265h238zM828 829h-275l-42 -265h275z" />
    <glyph glyph-name="dollar" unicode="$" horiz-adv-x="1096" 
d="M677 1392l30 142h112l-31 -149q119 -20 190 -77q113 -93 113 -252q0 -25 -4 -68h-193q1 23 1 36q0 152 -144 186l-87 -405q140 -76 195 -122q120 -99 120 -256q0 -152 -89 -274q-128 -177 -404 -179l-35 -164h-112l37 173q-118 21 -196 77q-134 96 -134 286q0 38 8 97
h194q-4 -46 -4 -72q0 -169 170 -210l102 479q-12 7 -25 15q-107 61 -136 84q-123 97 -123 250q0 143 95 253q122 142 350 150zM639 1213q-68 -10 -112 -40q-87 -58 -87 -152q0 -97 123 -162zM524 150q84 9 139 44q46 30 73 82q29 54 29 114q0 82 -67 139q-31 27 -81 57z" />
    <glyph glyph-name="percent" unicode="%" horiz-adv-x="1402" 
d="M537 1376q99 0 161 -66q61 -64 61 -179q0 -176 -115 -305q-98 -109 -230 -109q-96 0 -158 60q-67 64 -67 178q0 105 45 203q53 116 150 175q70 43 153 43zM517 1253q-75 0 -131 -89t-56 -197q0 -127 98 -127q80 0 137 93q53 85 53 194q0 126 -101 126zM1201 1365h168
l-1071 -1365h-167zM1101 648q99 0 161 -66q61 -64 61 -179q0 -176 -115 -305q-98 -109 -230 -109q-97 0 -159 60q-67 64 -67 178q0 105 45 203q54 116 150 175q71 43 154 43zM1081 525q-76 0 -132 -89t-56 -197q0 -127 98 -127q80 0 138 93q53 85 53 194q0 126 -101 126z
" />
    <glyph glyph-name="ampersand" unicode="&#x26;" horiz-adv-x="1140" 
d="M886 656h161q-53 -263 -206 -431l107 -225h-204l-46 104q-142 -122 -317 -122q-156 0 -250 76q-106 86 -106 238q0 198 178 343q61 50 186 125q-27 56 -38 82q-40 91 -40 166q0 71 29 138.5t79 110.5q96 85 234 85q121 0 193 -64t72 -170q0 -151 -125 -268
q-45 -43 -186 -133l163 -338q83 99 116 283zM552 850q196 124 196 245q0 45 -30 72q-29 26 -75 26q-60 0 -103 -41q-47 -46 -47 -118q0 -68 59 -184zM457 617q-103 -56 -155 -105q-91 -86 -91 -194q0 -83 60 -131q52 -41 134 -41q116 0 229 89z" />
    <glyph glyph-name="quotesingle" unicode="'" horiz-adv-x="512" 
d="M409 817h-131l101 548h202z" />
    <glyph glyph-name="parenleft" unicode="(" horiz-adv-x="603" 
d="M621 1373h159q-205 -212 -338 -501q-189 -414 -189 -803q0 -209 64 -478h-142q-89 259 -89 502q0 403 188 796q136 284 347 484z" />
    <glyph glyph-name="parenright" unicode=")" horiz-adv-x="603" 
d="M-9 -409h-159q206 212 338 501q189 412 189 804q0 209 -64 477h143q88 -260 88 -501q0 -404 -188 -797q-135 -283 -347 -484z" />
    <glyph glyph-name="asterisk" unicode="*" 
d="M617 1158l55 222l106 -27l-55 -222l224 17l7 -111l-224 -17l83 -212l-102 -42l-83 211l-173 -147l-70 85l173 148l-190 120l59 95z" />
    <glyph glyph-name="plus" unicode="+" horiz-adv-x="1096" 
d="M681 761h385v-152h-385v-399h-158v399h-384v152h384v399h158v-399z" />
    <glyph glyph-name="comma" unicode="," horiz-adv-x="515" 
d="M30 -348h-123q86 78 144 165t91 186q-16 -2 -24 -2q-44 0 -74 33q-25 29 -25 69q0 62 45 109q48 50 116 50q57 0 92 -38q36 -38 36 -103q0 -113 -100 -263q-80 -122 -178 -206z" />
    <glyph glyph-name="hyphen" unicode="-" horiz-adv-x="530" 
d="M31 591h530l-37 -150h-530z" />
    <glyph glyph-name="period" unicode="." horiz-adv-x="515" 
d="M197 260q50 0 82 -32t32 -84q0 -62 -46 -112q-50 -54 -117 -54q-50 0 -84 30q-35 32 -35 81q0 68 50 119q50 52 118 52z" />
    <glyph glyph-name="slash" unicode="/" horiz-adv-x="1149" 
d="M-98 -354l1184 1719h181l-1183 -1719h-182z" />
    <glyph glyph-name="zero" unicode="0" horiz-adv-x="1096" 
d="M738 1358q169 0 260 -113q90 -111 90 -316t-73 -422q-90 -269 -242 -408q-129 -118 -304 -118q-169 0 -262 109q-97 112 -97 317q0 222 84 452q181 499 544 499zM713 1184q-150 0 -268 -243q-53 -111 -91 -264q-38 -158 -38 -295q0 -107 43 -168q42 -59 125 -59
q105 0 188 104q89 112 152 327q58 201 58 371q0 227 -169 227z" />
    <glyph glyph-name="one" unicode="1" horiz-adv-x="1096" 
d="M388 995l30 120q126 1 215 58q80 53 133 166h136l-333 -1339h-199l249 1008z" />
    <glyph glyph-name="two" unicode="2" horiz-adv-x="1096" 
d="M466 952h-174q30 172 118 269q123 137 329 137q154 0 247 -78q96 -80 96 -211q0 -139 -130 -293q-106 -126 -603 -588h540l-46 -188h-801l40 164l39 37l166 156q405 385 467 453q72 80 99 132q24 48 24 96q0 66 -49 106q-45 37 -114 37q-184 0 -248 -229z" />
    <glyph glyph-name="three" unicode="3" horiz-adv-x="1096" 
d="M469 983h-176q40 173 133 262q118 113 295 113q159 0 254 -91q87 -85 87 -216q0 -153 -105 -257q-63 -62 -169 -96q168 -79 168 -263q0 -111 -55 -213q-69 -127 -196 -189q-104 -52 -235 -52q-184 0 -289 99q-98 91 -98 237q0 27 5 73h183v-26q0 -93 46 -144
q59 -63 162 -63q129 0 207 97q64 80 64 180q0 183 -262 183q-13 0 -41 -1l43 170q38 -2 57 -2q126 0 207 56q48 32 76 84q26 50 26 99q0 65 -41 110q-46 49 -126 49q-159 0 -220 -199z" />
    <glyph glyph-name="four" unicode="4" horiz-adv-x="1096" 
d="M820 482h223l-43 -173h-218l-78 -313h-206l78 313h-546l40 162l722 879h245zM629 482l176 679l-535 -679h359z" />
    <glyph glyph-name="five" unicode="5" horiz-adv-x="1096" 
d="M484 1331h625l-60 -184h-459l-130 -313q102 67 214 67q139 0 222 -87q87 -91 87 -251q0 -109 -39 -216.5t-109 -191.5q-147 -174 -381 -174q-159 0 -255 83q-101 87 -101 226q0 22 4 62h189q0 -55 12 -89q19 -52 66 -80q45 -26 103 -26q138 0 230 136q75 111 75 241
q0 92 -53 147q-48 51 -129 51q-121 0 -228 -125l-165 25z" />
    <glyph glyph-name="six" unicode="6" horiz-adv-x="1096" 
d="M829 1356h223q-130 -108 -274 -249q-131 -128 -214 -228q64 29 124 29q135 0 221 -98q85 -97 85 -249q0 -126 -55 -252q-75 -170 -213 -257q-111 -71 -245 -71q-154 0 -253 91q-112 103 -112 280q0 211 147 427q174 256 566 577zM611 747q-119 0 -207 -131
q-82 -123 -82 -263q0 -88 45 -141q47 -56 127 -56q124 0 214 133q80 120 80 257q0 95 -51 149q-49 52 -126 52z" />
    <glyph glyph-name="seven" unicode="7" horiz-adv-x="1096" 
d="M403 1331h844l-36 -158l-855 -1173h-227l836 1138l-606 -2z" />
    <glyph glyph-name="eight" unicode="8" horiz-adv-x="1095" 
d="M391 712q-117 94 -117 238q0 107 59 203q66 107 181 161q94 44 204 44q158 0 259 -87q103 -89 103 -233q0 -154 -101 -253q-58 -57 -150 -87q132 -91 132 -255q0 -201 -150 -340q-131 -122 -331 -122q-165 0 -268 88q-115 98 -115 257q0 168 118 285q61 61 176 101z
M706 1191q-98 0 -164 -77q-63 -74 -63 -169q0 -71 48 -118q47 -46 120 -46q98 0 165 79q62 74 62 169q0 76 -47 119t-121 43zM565 614q-112 0 -190 -92q-72 -85 -72 -190q0 -85 57 -137q51 -47 132 -47q119 0 193 94q69 87 69 189q0 90 -60 139q-52 44 -129 44z" />
    <glyph glyph-name="nine" unicode="9" horiz-adv-x="1096" 
d="M368 -17h-223q125 103 274 248q131 129 214 228q-64 -28 -125 -28q-134 0 -220 98q-85 97 -85 249q0 127 55 252q75 170 213 257q112 71 245 71q154 0 253 -91q112 -103 112 -280q0 -211 -147 -427q-183 -269 -566 -577zM700 1183q-121 0 -211 -133q-80 -120 -80 -257
q0 -94 51 -149q48 -52 123 -52q122 0 210 131q82 123 82 265q0 85 -45 139q-48 56 -130 56z" />
    <glyph glyph-name="colon" unicode=":" horiz-adv-x="515" 
d="M381 996q49 0 82 -32q32 -33 32 -84q0 -63 -46 -113q-50 -54 -117 -54q-50 0 -84 30q-35 32 -35 82q0 68 50 119q51 52 118 52zM198 260q50 0 82 -32t32 -84q0 -62 -46 -112q-50 -54 -117 -54q-50 0 -84 30q-35 32 -35 81q0 68 50 119q50 52 118 52z" />
    <glyph glyph-name="semicolon" unicode=";" horiz-adv-x="515" 
d="M30 -348h-123q86 78 144 165t91 186q-16 -2 -24 -2q-44 0 -74 33q-25 29 -25 69q0 62 45 109q48 50 116 50q57 0 92 -38q36 -38 36 -103q0 -113 -100 -263q-80 -122 -178 -206zM372 996q50 0 82 -32q32 -33 32 -84q0 -63 -46 -113q-50 -54 -117 -54q-50 0 -84 30
q-35 32 -35 82q0 68 50 119q51 52 118 52z" />
    <glyph glyph-name="less" unicode="&#x3c;" 
d="M975 1216v-207l-666 -316l666 -317v-205l-887 434v177z" />
    <glyph glyph-name="equal" unicode="=" horiz-adv-x="1096" 
d="M139 916h927v-154h-927v154zM139 607h927v-154h-927v154z" />
    <glyph glyph-name="greater" unicode="&#x3e;" 
d="M89 170v207l666 316l-666 317v205l887 -434v-177z" />
    <glyph glyph-name="question" unicode="?" horiz-adv-x="822" 
d="M480 417h-184q30 151 58 212q34 71 106 142q20 19 112 100q74 65 102 108q33 50 33 97q0 45 -37 72q-34 26 -88 26q-143 0 -194 -179h-164q30 159 113 246q108 114 285 114q133 0 217 -66q86 -67 86 -185q0 -95 -53 -171q-41 -59 -163 -162q-111 -94 -141 -128
q-56 -61 -88 -226zM364 260q50 0 82 -32t32 -84q0 -62 -46 -112q-50 -54 -117 -54q-50 0 -84 30q-35 32 -35 81q0 68 50 119q50 52 118 52z" />
    <glyph glyph-name="at" unicode="@" horiz-adv-x="1502" 
d="M1060 1010h143l-80 -414q-13 -67 -13 -94q0 -35 14 -60q16 -30 47 -30q61 0 114 74q88 124 88 297q0 220 -150 354q-142 126 -371 126q-247 0 -408 -163q-169 -171 -169 -428q0 -249 157 -411q154 -159 439 -159q212 0 399 79l35 -127q-192 -80 -434 -80q-333 0 -530 189
q-101 96 -156 234q-53 132 -53 278q0 148 54.5 282t156.5 234q202 199 508 199q271 0 450 -155q102 -88 155 -214q47 -112 47 -237q0 -180 -89 -323q-106 -168 -249 -168q-76 0 -123 60q-22 28 -32 76q-94 -138 -248 -138q-133 0 -216 94q-81 92 -81 236q0 171 114 299
q102 113 246 113q149 0 214 -129zM843 889q-100 0 -162 -94q-52 -78 -52 -175q0 -80 36 -130q44 -62 129 -62q102 0 159 101q44 78 44 180q0 78 -35 125q-41 55 -119 55z" />
    <glyph glyph-name="A" unicode="A" horiz-adv-x="1160" 
d="M705 1369h202l108 -1369h-212l-19 320h-467l-181 -320h-224zM778 497l-11 226q-7 177 -11 434q-32 -66 -109 -226q-68 -138 -113 -214l-125 -220h369z" />
    <glyph glyph-name="B" unicode="B" horiz-adv-x="1162" 
d="M395 1365h286q213 0 304 -38q157 -66 157 -248q0 -166 -117 -271q-69 -61 -185 -93q86 -28 131 -66q85 -71 85 -202q0 -162 -109 -282q-106 -117 -282 -147q-107 -18 -298 -18h-312zM457 801h130q155 0 224 37q60 32 93 95q28 53 28 111q0 101 -89 130q-50 17 -183 17
h-106zM301 174h132q184 0 259 34q76 34 115 110q34 67 34 140q0 118 -109 153q-58 19 -190 19h-127z" />
    <glyph glyph-name="C" unicode="C" horiz-adv-x="1259" 
d="M1256 953h-192q-5 256 -240 256q-207 0 -350 -235q-64 -104 -100 -235q-34 -124 -34 -236q0 -163 77 -257q74 -90 209 -90q174 0 285 153q54 73 85 178h199q-47 -188 -144 -309q-163 -204 -435 -204q-231 0 -360 139q-130 139 -130 386q0 231 95 441q115 251 304 366
q140 85 312 85q196 0 307 -104q113 -106 113 -299q0 -12 -1 -35z" />
    <glyph glyph-name="D" unicode="D" horiz-adv-x="1291" 
d="M395 1365h269q301 0 427 -84q182 -122 182 -412q0 -266 -116 -483q-132 -248 -359 -332q-104 -39 -235 -48q-94 -6 -205 -6h-303zM305 182h147q188 0 289 50q153 75 238 269q79 179 79 368q0 91 -30.5 161.5t-84.5 104.5q-76 48 -260 48h-128z" />
    <glyph glyph-name="E" unicode="E" horiz-adv-x="1049" 
d="M459 798h540l-45 -182h-540l-109 -434h606l-45 -182h-811l340 1365h776l-46 -181h-570z" />
    <glyph glyph-name="F" unicode="F" horiz-adv-x="1006" 
d="M459 798h531l-45 -182h-531l-154 -616h-205l340 1365h780l-45 -181h-575z" />
    <glyph glyph-name="G" unicode="G" horiz-adv-x="1295" 
d="M778 679h451l-144 -579q-201 -126 -449 -126q-234 0 -370 125q-140 128 -140 389q0 234 90 439q111 256 309 376q144 88 322 88q270 0 374 -185q51 -89 50 -253h-193q-6 257 -243 257q-204 0 -345 -213q-71 -107 -112 -248q-37 -130 -37 -254q0 -338 322 -338
q143 0 265 65l73 294h-264z" />
    <glyph glyph-name="H" unicode="H" horiz-adv-x="1323" 
d="M460 800h570l141 565h205l-340 -1365h-205l156 625h-571l-156 -625h-205l340 1365h205z" />
    <glyph glyph-name="I" unicode="I" horiz-adv-x="549" 
d="M262 0h-207l340 1365h207z" />
    <glyph glyph-name="J" unicode="J" horiz-adv-x="610" 
d="M460 1365h207l-272 -1089q-39 -157 -64 -228q-100 -279 -460 -279q-21 0 -66 2l44 178h27q150 0 213 70q41 46 75 167q11 39 46 176z" />
    <glyph glyph-name="K" unicode="K" horiz-adv-x="1202" 
d="M1094 1365h251l-668 -656l371 -709h-256l-349 720zM395 1365h205l-340 -1365h-205z" />
    <glyph glyph-name="L" unicode="L" horiz-adv-x="987" 
d="M395 1365h211l-295 -1183h571l-45 -182h-782z" />
    <glyph glyph-name="M" unicode="M" horiz-adv-x="1670" 
d="M395 1365h298l78 -1153l644 1153h308l-340 -1365h-188l291 1157l-651 -1157h-222l-84 1157l-286 -1157h-188z" />
    <glyph glyph-name="N" unicode="N" horiz-adv-x="1360" 
d="M395 1365h219l341 -1068l264 1068h195l-341 -1365h-209l-350 1068l-264 -1068h-195z" />
    <glyph glyph-name="O" unicode="O" horiz-adv-x="1324" 
d="M845 1391q208 0 334 -130q129 -134 129 -385q0 -224 -90 -432q-110 -255 -300 -378q-144 -92 -325 -92q-224 0 -348 140q-122 137 -122 371q0 222 91 435q110 261 302 382q143 89 329 89zM821 1209q-193 0 -332 -217q-66 -101 -107 -234q-44 -140 -44 -269
q0 -155 67 -242q71 -92 203 -92q205 0 348 239q64 107 102 243q35 125 35 242q0 141 -60 230q-68 100 -212 100z" />
    <glyph glyph-name="P" unicode="P" horiz-adv-x="1091" 
d="M395 1365h300q253 0 353 -66q131 -87 131 -274q0 -172 -95 -300q-103 -139 -281 -174q-97 -19 -268 -19h-138l-133 -532h-209zM438 714h137q117 0 183 14q102 22 157 104q51 75 51 173q0 119 -94 157q-53 21 -175 21h-142z" />
    <glyph glyph-name="Q" unicode="Q" horiz-adv-x="1324" 
d="M1107 250l154 -250h-255l-44 99q-156 -125 -371 -125q-222 0 -346 140q-122 138 -122 370q0 224 90 437q109 257 304 380q141 90 321 90q218 0 341 -130q129 -137 129 -386q0 -345 -201 -625zM821 1209q-193 0 -332 -217q-66 -101 -107 -234q-44 -140 -44 -269
q0 -155 67 -242q71 -92 203 -92q205 0 348 239q64 107 102 243q35 125 35 242q0 141 -60 230q-68 100 -212 100z" />
    <glyph glyph-name="R" unicode="R" horiz-adv-x="1151" 
d="M395 1365h295q231 0 325 -44q168 -77 168 -292q0 -208 -143 -339q-74 -68 -214 -108l184 -582h-236l-153 551h-224l-137 -551h-205zM443 732h128q176 0 259 40q72 34 109 105q32 60 32 129q0 124 -106 159q-54 18 -201 18h-109z" />
    <glyph glyph-name="S" unicode="S" horiz-adv-x="1078" 
d="M1088 988h-198q1 20 1 31q0 190 -208 190q-88 0 -150 -39q-87 -54 -87 -150q0 -57 42 -101q27 -29 103 -71q215 -118 270 -163q119 -98 119 -255q0 -121 -58 -229q-123 -227 -431 -227q-212 0 -330 102q-114 97 -114 269q0 38 8 98h198q-4 -46 -4 -70q0 -105 60 -157
q69 -59 190 -59q110 0 179 54q83 65 83 177q0 85 -68 141q-35 29 -182 110q-141 78 -197 137q-81 83 -81 212q0 113 62 210q125 193 401 193q210 0 315 -114q81 -89 81 -221q0 -25 -4 -68z" />
    <glyph glyph-name="T" unicode="T" horiz-adv-x="952" 
d="M252 1365h898l-54 -182h-337l-295 -1183h-205l295 1183h-356z" />
    <glyph glyph-name="U" unicode="U" horiz-adv-x="1278" 
d="M365 1365h205l-193 -772q-38 -154 -38 -236q0 -94 72 -148q70 -52 180 -52q188 0 277 142q37 60 81 238l207 828h205l-207 -832q-41 -165 -63 -228q-60 -167 -195 -251q-130 -80 -314 -80q-221 0 -344 112q-107 96 -107 246q0 96 44 272z" />
    <glyph glyph-name="V" unicode="V" horiz-adv-x="1090" 
d="M226 1365h214l59 -1123l555 1123h223l-722 -1369h-217z" />
    <glyph glyph-name="W" unicode="W" horiz-adv-x="1604" 
d="M236 1365h198l-32 -1143l530 1143h187l-24 -1143l525 1143h201l-662 -1369h-234l13 1001l-469 -1001h-242z" />
    <glyph glyph-name="X" unicode="X" horiz-adv-x="1120" 
d="M285 1365h232l144 -491l396 491h245l-575 -669l248 -696h-227l-166 535l-428 -535h-242l602 711z" />
    <glyph glyph-name="Y" unicode="Y" horiz-adv-x="1044" 
d="M226 1365h221l140 -613l443 613h246l-626 -811l-138 -554h-205l139 554z" />
    <glyph glyph-name="Z" unicode="Z" horiz-adv-x="1028" 
d="M319 1365h852l-35 -143l-896 -1040h666l-45 -182h-916l41 165l885 1021h-597z" />
    <glyph glyph-name="bracketleft" unicode="[" horiz-adv-x="603" 
d="M381 1365h362l-38 -152h-192l-365 -1461h193l-38 -153h-362z" />
    <glyph glyph-name="backslash" unicode="\" horiz-adv-x="1182" 
d="M928 -354h-168l-406 1719h167z" />
    <glyph glyph-name="bracketright" unicode="]" horiz-adv-x="603" 
d="M231 -401h-362l38 152h193l364 1461h-193l39 153h361z" />
    <glyph glyph-name="asciicircum" unicode="^" 
d="M270 716h-220l345 655h274l345 -655h-221l-262 489z" />
    <glyph glyph-name="underscore" unicode="_" 
d="M20 -113h1024v-189h-1024v189z" />
    <glyph glyph-name="grave" unicode="`" 
d="M431 1402h229l154 -291h-144z" />
    <glyph glyph-name="a" unicode="a" horiz-adv-x="994" 
d="M361 703h-190q94 288 417 288q152 0 243 -68q77 -57 77 -161q0 -64 -23 -155l-93 -372q-32 -134 -31 -235h-180q-1 69 11 120q-111 -138 -279 -138q-127 0 -203 66q-76 67 -76 179q0 194 217 284q78 33 199 61q18 4 206 43l44 10l7 28q10 39 10 74q0 46 -36 72
q-41 29 -112 29q-101 0 -155 -47q-31 -27 -53 -78zM667 490q-205 -37 -289 -72q-140 -58 -140 -166q0 -58 45 -89q34 -24 92 -24q123 0 200 98q42 53 74 181z" />
    <glyph glyph-name="b" unicode="b" horiz-adv-x="1062" 
d="M370 1373h195l-129 -518q53 62 100 91q74 45 166 45q137 0 219 -92q84 -95 84 -259q0 -146 -57 -294q-77 -196 -220 -296q-104 -71 -227 -71q-179 0 -258 159q-18 -75 -52 -138h-174q28 69 76 264zM638 821q-121 0 -212 -136q-44 -67 -71.5 -157.5t-27.5 -171.5
q0 -86 43 -144q45 -61 127 -61q125 0 216 152q38 64 63 154t25 166q0 85 -36 138q-41 60 -127 60z" />
    <glyph glyph-name="c" unicode="c" horiz-adv-x="975" 
d="M920 651h-184v22q0 159 -144 159q-131 0 -223 -149q-41 -68 -66 -156t-25 -168q0 -102 48 -162q48 -59 135 -59q160 0 226 202h190q-95 -365 -425 -365q-170 0 -271 97q-107 103 -107 292q0 154 64 299q80 182 226 269q107 64 238 64q171 0 256 -110q62 -80 62 -212v-23z
" />
    <glyph glyph-name="d" unicode="d" horiz-adv-x="1060" 
d="M1142 1373l-268 -1075q-51 -211 -56 -298h-185q1 72 22 125q-46 -60 -88 -90q-78 -55 -183 -55q-143 0 -229 98q-85 98 -85 266q0 161 69 317q80 182 212 266q100 63 215 63q172 0 250 -144l131 527h195zM568 819q-112 0 -197 -132q-44 -68 -70.5 -157t-26.5 -171
q0 -90 44 -149q44 -60 127 -60q130 0 218 161q81 146 81 297q0 95 -45 153q-46 58 -131 58z" />
    <glyph glyph-name="e" unicode="e" horiz-adv-x="1016" 
d="M929 446h-644q-7 -43 -7 -73q0 -120 60 -180q54 -54 142 -54q89 0 150 52q39 33 79 109l177 -14q-126 -311 -434 -311q-165 0 -262 87q-117 104 -117 301q0 156 67 304q83 182 231 268q105 60 232 60q162 0 256 -96q96 -98 96 -268q0 -96 -26 -185zM766 596q3 24 3 41
q0 79 -33 128q-46 68 -142 68q-113 0 -196 -102q-45 -55 -75 -135h443z" />
    <glyph glyph-name="f" unicode="f" horiz-adv-x="628" 
d="M490 969h230l-39 -159h-228l-202 -810h-197l202 810h-129l39 159h130l16 65q47 186 103 259q82 109 234 109q100 0 200 -50l-43 -171q-77 46 -145 46q-74 0 -113 -72q-20 -37 -46 -140z" />
    <glyph glyph-name="g" unicode="g" horiz-adv-x="1006" 
d="M1094 951l-36 -142h-203q35 -61 35 -134q0 -117 -70 -205q-78 -98 -221 -120q-49 -8 -144 -9q-148 -39 -148 -94q0 -23 29 -35q18 -8 76 -16q193 -25 259 -53q141 -60 141 -208q0 -97 -58 -178q-121 -169 -416 -169q-197 0 -313 67q-126 73 -126 201q0 179 251 243
q-63 39 -63 94q0 68 85 119q50 31 153 61q-142 79 -142 242q0 81 33 155.5t92 126.5q107 93 268 93q90 0 185 -39h333zM561 840q-84 0 -141 -57q-64 -63 -64 -152q0 -71 46 -109q45 -38 117 -38q98 0 155 73q44 57 44 134q0 52 -27 91q-41 58 -130 58zM363 27
q-117 0 -190 -30q-99 -41 -99 -122q0 -71 89 -108q71 -30 176 -30q125 0 202 45q71 42 71 115q0 130 -249 130z" />
    <glyph glyph-name="h" unicode="h" horiz-adv-x="1061" 
d="M369 1373h196l-128 -512q120 129 279 129q112 0 182 -61q77 -67 77 -181q0 -67 -37 -215l-133 -533h-195l133 535q25 98 25 148q0 61 -45 97q-39 32 -102 32q-120 0 -195 -107q-43 -62 -76 -191l-128 -514h-195z" />
    <glyph glyph-name="i" unicode="i" horiz-adv-x="486" 
d="M270 969h199l-242 -969h-199zM466 1388q44 0 72 -27t28 -73q0 -63 -44 -110q-42 -44 -100 -44q-44 0 -73 23q-34 28 -34 73q0 65 49 115q43 43 102 43z" />
    <glyph glyph-name="j" unicode="j" horiz-adv-x="529" 
d="M312 969h199l-213 -855q-40 -159 -75 -237q-62 -138 -187 -203q-103 -54 -233 -54q-16 0 -48 2l43 174q149 -2 218 92q34 48 63 152q13 47 30 117zM506 1388q44 0 72 -27q28 -26 28 -73q0 -62 -44 -110q-41 -44 -100 -44q-44 0 -73 23q-34 28 -34 73q0 66 49 115
q43 43 102 43z" />
    <glyph glyph-name="k" unicode="k" horiz-adv-x="991" 
d="M832 969h245l-495 -454l285 -515h-240l-272 518zM369 1373h196l-343 -1373h-195z" />
    <glyph glyph-name="l" unicode="l" horiz-adv-x="486" 
d="M369 1373h200l-343 -1373h-199z" />
    <glyph glyph-name="m" unicode="m" horiz-adv-x="1600" 
d="M243 969h190q4 -22 4 -34q0 -38 -14 -103q127 158 294 158q183 0 244 -172q138 172 313 172q115 0 186 -70q63 -61 63 -147q0 -60 -36 -202l-142 -571h-195l137 550q25 99 25 143q0 58 -43 90q-39 29 -97 29q-185 0 -248 -251l-140 -561h-195l139 556q23 91 23 137
q0 53 -40 87q-37 32 -97 32q-188 0 -253 -260l-138 -552h-195l177 709q41 165 41 224q0 12 -3 36z" />
    <glyph glyph-name="n" unicode="n" horiz-adv-x="1055" 
d="M240 967l191 4q2 -23 2 -34q0 -40 -17 -109q128 162 302 162q118 0 191 -71q63 -62 63 -153q0 -76 -35 -216l-137 -550h-195l131 525q27 109 27 165q0 58 -40 91q-38 31 -100 31q-198 0 -277 -317l-124 -495h-195l158 631q57 230 57 303q0 12 -2 33z" />
    <glyph glyph-name="o" unicode="o" horiz-adv-x="1052" 
d="M613 995q172 0 274 -103q100 -103 100 -285q0 -157 -66 -304q-78 -173 -210 -257q-111 -71 -257 -71q-164 0 -263 86q-119 104 -119 301q0 167 77 325q150 308 464 308zM592 832q-133 0 -224 -149q-41 -68 -66.5 -157t-25.5 -166q0 -94 42 -154q48 -69 146 -69
q134 0 225 147q94 152 94 325q0 96 -42 156q-48 67 -149 67z" />
    <glyph glyph-name="p" unicode="p" horiz-adv-x="1060" 
d="M-72 -396l267 1072q51 207 58 293h186q-6 -76 -24 -119q45 60 87 90q79 55 185 55q142 0 226 -96q87 -99 87 -269q0 -153 -63 -305q-79 -187 -211 -276q-97 -65 -215 -65q-109 0 -182 57q-36 28 -75 88l-131 -525h-195zM624 825q-125 0 -213 -154q-38 -66 -62 -150.5
t-24 -154.5q0 -93 47 -152t128 -59q116 0 202 136q43 67 68.5 155.5t25.5 169.5q0 88 -42 147q-44 62 -130 62z" />
    <glyph glyph-name="q" unicode="q" horiz-adv-x="1062" 
d="M702 -403h-195l129 517q-51 -59 -96 -88q-76 -47 -170 -47q-135 0 -218 90q-85 94 -85 260q0 162 69 321q82 188 219 276q100 64 217 64q182 0 257 -159q21 83 52 138h174q-28 -65 -76 -264zM574 818q-124 0 -215 -152q-40 -68 -66 -160q-23 -86 -23 -159q0 -85 39 -139
q41 -58 121 -58q124 0 216 137q42 63 70 153q30 95 30 179q0 87 -46 143q-45 56 -126 56z" />
    <glyph glyph-name="r" unicode="r" horiz-adv-x="717" 
d="M254 969h186v-15q0 -75 -35 -188q68 100 131 152q86 72 182 72q43 0 105 -20l-51 -208q-79 47 -135 47q-119 0 -212 -145q-62 -97 -99 -247l-104 -417h-195l164 656q32 132 44 185q14 63 19 128z" />
    <glyph glyph-name="s" unicode="s" horiz-adv-x="921" 
d="M873 684h-187q1 13 1 23q0 56 -34 90q-41 41 -116 41q-62 0 -106 -28q-60 -39 -60 -104q0 -35 30 -63q23 -22 90 -54q174 -83 220 -121q82 -68 82 -168q0 -88 -51 -166q-104 -159 -353 -159q-207 0 -297 111q-56 68 -56 168q0 32 6 72h190q-3 -26 -3 -45q0 -62 33 -98
q47 -51 139 -51q75 0 126 34q61 41 61 110q0 46 -35 77q-24 21 -92 54q-169 81 -215 120q-76 64 -76 164q0 143 129 233q101 71 250 71q194 0 277 -109q49 -64 49 -154q0 -14 -2 -48z" />
    <glyph glyph-name="t" unicode="t" horiz-adv-x="649" 
d="M502 969h207l-41 -159h-208l-110 -427q-32 -122 -32 -157q0 -69 82 -69q60 0 142 31l-45 -170q-99 -39 -182 -39q-98 0 -156 52q-56 51 -56 128q0 57 49 235l114 416h-144l41 159h148l76 283h189z" />
    <glyph glyph-name="u" unicode="u" horiz-adv-x="1056" 
d="M265 969h195l-140 -561q-20 -81 -20 -126q0 -60 44 -94q39 -31 103 -31q194 0 265 286l131 526h195l-167 -671q-26 -105 -31 -128q-20 -84 -20 -141v-29h-187q-1 18 -1 26q0 36 12 94q-109 -141 -271 -141q-126 0 -203 75q-70 68 -70 168q0 85 31 210z" />
    <glyph glyph-name="v" unicode="v" horiz-adv-x="904" 
d="M140 969h201l44 -786l387 786h208l-531 -977h-216z" />
    <glyph glyph-name="w" unicode="w" horiz-adv-x="1404" 
d="M152 969h198l-4 -773l386 773h184l9 -773l375 773h204l-523 -977h-209l-17 717l-350 -717h-221z" />
    <glyph glyph-name="x" unicode="x" horiz-adv-x="942" 
d="M185 969h223l118 -311l258 311h233l-428 -469l225 -500h-227l-145 364l-316 -364h-236l492 519z" />
    <glyph glyph-name="y" unicode="y" horiz-adv-x="941" 
d="M165 969h199l38 -817l442 817h205l-529 -923q-155 -270 -273 -357q-133 -99 -341 -99q-20 0 -62 2l45 180h28q92 0 146 17q75 25 137 107q20 28 48 76z" />
    <glyph glyph-name="z" unicode="z" horiz-adv-x="848" 
d="M194 969h696l-35 -146l-637 -657h509l-40 -166h-751l37 152l629 651h-449z" />
    <glyph glyph-name="braceleft" unicode="{" horiz-adv-x="603" 
d="M270 483q75 -59 75 -127q0 -52 -20 -131l-74 -298q-20 -81 -20 -113q0 -40 32.5 -57.5t104.5 -17.5h30l-37 -146q-28 -2 -58 -2q-134 0 -189 40q-60 44 -60 130q0 54 24 151l80 320q14 57 14 93q0 73 -81 93l32 131q58 11 98 51q37 38 62 135l80 320q27 107 60 166
q63 116 188 142q62 13 141 13q21 0 54 -2l-37 -147q-21 1 -32 1q-123 0 -163 -59q-22 -33 -45 -129l-75 -298q-31 -125 -71 -177q-33 -44 -113 -82z" />
    <glyph glyph-name="bar" unicode="|" 
d="M428 1365h209v-1706h-209v1706z" />
    <glyph glyph-name="braceright" unicode="}" horiz-adv-x="603" 
d="M342 483q-75 59 -75 127q0 54 19 132l75 298q20 81 20 113q0 39 -32.5 57t-103.5 18q-10 0 -31 -1l36 147q32 2 54 2q79 0 135 -13q57 -14 89 -57q30 -42 30 -101q0 -53 -24 -150l-80 -320q-14 -56 -14 -94q0 -72 81 -92l-32 -131q-58 -11 -98 -51q-37 -37 -63 -135
l-79 -320q-27 -107 -60 -166q-63 -116 -188 -142q-61 -13 -141 -13q-21 0 -54 2l37 146h30q125 0 164 59q22 33 46 129l74 298q32 124 72 177q33 44 113 81z" />
    <glyph glyph-name="asciitilde" unicode="~" horiz-adv-x="1365" 
d="M325 1169l-117 77q48 103 75 140q85 121 220 121q73 0 221 -62q100 -41 127 -48q32 -8 61 -8q67 0 110 44q24 24 56 78l121 -71q-67 -138 -132 -188q-83 -64 -180 -64q-63 0 -294 93q-61 25 -106 25q-63 0 -109 -53q-23 -28 -53 -84z" />
    <glyph glyph-name="Adieresis" unicode="&#xc4;" horiz-adv-x="1160" 
d="M705 1369h202l108 -1369h-212l-19 320h-467l-181 -320h-224zM778 497l-11 226q-7 177 -11 434q-32 -66 -109 -226q-68 -138 -113 -214l-125 -220h369zM1103 1766q48 0 79 -30q31 -29 31 -76q0 -61 -45 -107q-43 -46 -108 -46q-49 0 -81 30q-32 31 -32 79q0 59 46 105
q45 45 110 45zM681 1766q48 0 79 -30q31 -29 31 -76q0 -61 -44 -107t-109 -46q-49 0 -80 30q-33 31 -33 79q0 58 45 104q46 46 111 46z" />
    <glyph glyph-name="Aring" unicode="&#xc5;" horiz-adv-x="1160" 
d="M705 1369h202l108 -1369h-212l-19 320h-467l-181 -320h-224zM778 497l-11 226q-7 177 -11 434q-32 -66 -109 -226q-68 -138 -113 -214l-125 -220h369zM855 1846q78 0 136 -58q58 -57 58 -139q0 -81 -58 -138q-57 -58 -138 -58q-82 0 -139 58q-58 58 -58 138q0 83 58 139
q59 58 141 58zM851 1750q-40 0 -69 -29q-30 -30 -30 -71q0 -42 30 -72q29 -29 71 -29q41 0 71 29q29 30 29 71q0 43 -29 72q-30 29 -73 29z" />
    <glyph glyph-name="Ccedilla" unicode="&#xc7;" horiz-adv-x="1258" 
d="M638 -25l-55 -88q150 -35 150 -159q0 -94 -72 -159q-72 -64 -186 -64q-78 0 -171 43l24 101q75 -27 124 -27q57 0 91 35q31 32 31 78q0 40 -26 63q-32 29 -87 29q-16 0 -39 -1l94 155q-141 30 -217 91q-173 139 -173 427q0 231 95 441q115 251 304 366q140 85 312 85
q196 0 307 -104q113 -106 113 -299q0 -12 -1 -35h-192q-5 256 -240 256q-207 0 -350 -235q-64 -104 -100 -235q-34 -124 -34 -236q0 -163 77 -257q74 -90 209 -90q174 0 285 153q54 73 85 178h199q-56 -237 -204 -373q-153 -138 -353 -139z" />
    <glyph glyph-name="Eacute" unicode="&#xc9;" horiz-adv-x="1049" 
d="M459 798h540l-45 -182h-540l-108 -434h605l-45 -182h-811l340 1365h776l-46 -181h-570zM960 1761h312l-439 -255h-183z" />
    <glyph glyph-name="Ntilde" unicode="&#xd1;" horiz-adv-x="1360" 
d="M395 1365h219l341 -1068l264 1068h195l-341 -1365h-209l-350 1068l-264 -1068h-195zM710 1518l-79 23q105 201 238 201q48 0 132 -35q86 -35 121 -35q63 0 129 79l81 -24q-95 -204 -234 -204q-51 0 -143 38q-87 35 -120 35q-68 0 -125 -78z" />
    <glyph glyph-name="Odieresis" unicode="&#xd6;" horiz-adv-x="1324" 
d="M844 1391q209 0 335 -130q129 -134 129 -385q0 -225 -90 -432q-110 -256 -300 -378q-144 -92 -325 -92q-224 0 -348 140q-122 137 -122 371q0 222 91 435q109 258 303 381q142 90 327 90zM821 1209q-193 0 -332 -217q-66 -101 -107 -234q-44 -140 -44 -269
q0 -155 67 -242q71 -92 203 -92q205 0 348 239q64 107 102 243q35 125 35 241q0 141 -60 231q-68 100 -212 100zM1185 1766q48 0 79 -30q31 -29 31 -76q0 -61 -45 -107q-43 -46 -108 -46q-49 0 -80 30q-33 31 -33 79q0 59 46 105q45 45 110 45zM763 1766q49 0 80 -30
q31 -29 31 -76q0 -61 -45 -107q-43 -46 -108 -46q-50 0 -81 30q-33 31 -33 79q0 58 45 104q46 46 111 46z" />
    <glyph glyph-name="Udieresis" unicode="&#xdc;" horiz-adv-x="1278" 
d="M365 1365h205l-193 -772q-38 -154 -38 -236q0 -94 72 -148q70 -52 180 -52q188 0 277 142q37 60 81 238l207 828h205l-207 -832q-41 -165 -63 -228q-59 -166 -195 -251q-130 -80 -314 -80q-221 0 -344 112q-107 96 -107 246q0 96 44 272zM1175 1766q49 0 80 -30
q31 -29 31 -76q0 -61 -45 -107q-44 -46 -108 -46q-50 0 -81 30q-33 31 -33 79q0 59 46 105q46 45 110 45zM754 1766q48 0 79 -30q31 -29 31 -76q0 -61 -44 -107t-109 -46q-49 0 -81 30q-32 31 -32 79q0 58 45 104q46 46 111 46z" />
    <glyph glyph-name="aacute" unicode="&#xe1;" horiz-adv-x="994" 
d="M361 703h-190q94 288 417 288q152 0 243 -68q77 -57 77 -161q0 -64 -23 -155l-93 -372q-32 -135 -31 -235h-180q-1 69 11 120q-112 -138 -279 -138q-128 0 -203 66q-76 67 -76 179q0 194 217 284q78 33 199 61q18 4 206 43l44 10l7 28q10 39 10 75q0 45 -36 71
q-41 29 -112 29q-101 0 -155 -47q-31 -27 -53 -78zM667 490q-205 -37 -289 -72q-140 -58 -140 -166q0 -58 45 -89q34 -24 92 -24q123 0 200 98q42 53 74 181zM774 1395h270l-407 -278h-154z" />
    <glyph glyph-name="agrave" unicode="&#xe0;" horiz-adv-x="994" 
d="M361 703h-190q94 288 417 288q152 0 243 -68q77 -57 77 -161q0 -64 -23 -155l-93 -372q-32 -135 -31 -235h-180q-1 69 11 120q-112 -138 -279 -138q-128 0 -203 66q-76 67 -76 179q0 194 217 284q78 33 199 61q18 4 206 43l44 10l7 28q10 39 10 75q0 45 -36 71
q-41 29 -112 29q-101 0 -155 -47q-31 -27 -53 -78zM667 490q-205 -37 -289 -72q-140 -58 -140 -166q0 -58 45 -89q34 -24 92 -24q123 0 200 98q42 53 74 181zM376 1402h229l154 -291h-144z" />
    <glyph glyph-name="acircumflex" unicode="&#xe2;" horiz-adv-x="994" 
d="M361 703h-190q94 288 417 288q152 0 243 -68q77 -57 77 -161q0 -64 -23 -155l-93 -372q-32 -135 -31 -235h-180q-1 69 11 120q-112 -138 -279 -138q-128 0 -203 66q-76 67 -76 179q0 194 217 284q78 33 199 61q18 4 206 43l44 10l7 28q10 39 10 75q0 45 -36 71
q-41 29 -112 29q-101 0 -155 -47q-31 -27 -53 -78zM667 490q-205 -37 -289 -72q-140 -58 -140 -166q0 -58 45 -89q34 -24 92 -24q123 0 200 98q42 53 74 181zM608 1399h176l158 -286h-160l-101 166l-203 -166h-177z" />
    <glyph glyph-name="adieresis" unicode="&#xe4;" horiz-adv-x="994" 
d="M361 703h-190q94 288 417 288q152 0 243 -68q77 -57 77 -161q0 -64 -23 -155l-93 -372q-32 -135 -31 -235h-180q-1 69 11 120q-112 -138 -279 -138q-128 0 -203 66q-76 67 -76 179q0 194 217 284q78 33 199 61q18 4 206 43l44 10l7 28q10 39 10 75q0 45 -36 71
q-41 29 -112 29q-101 0 -155 -47q-31 -27 -53 -78zM667 490q-205 -37 -289 -72q-140 -58 -140 -166q0 -58 45 -89q34 -24 92 -24q123 0 200 98q42 53 74 181zM879 1369q45 0 73 -27t28 -70q0 -55 -41 -98q-39 -41 -98 -41q-46 0 -74 27q-30 28 -30 72q0 54 42 96
q42 41 100 41zM494 1369q44 0 73 -27q28 -27 28 -70q0 -55 -41 -98q-39 -41 -99 -41q-45 0 -73 27q-30 28 -30 72q0 53 41 95q42 42 101 42z" />
    <glyph glyph-name="atilde" unicode="&#xe3;" horiz-adv-x="994" 
d="M361 703h-190q94 288 417 288q152 0 243 -68q77 -57 77 -161q0 -64 -23 -155l-93 -372q-32 -135 -31 -235h-180q-1 69 11 120q-112 -138 -279 -138q-128 0 -203 66q-76 67 -76 179q0 194 217 284q78 33 199 61q18 4 206 43l44 10l7 28q10 39 10 75q0 45 -36 71
q-41 29 -112 29q-101 0 -155 -47q-31 -27 -53 -78zM667 490q-205 -37 -289 -72q-140 -58 -140 -166q0 -58 45 -89q34 -24 92 -24q123 0 200 98q42 53 74 181zM414 1136l-80 23q99 213 222 213q48 0 124 -43q78 -44 111 -44q56 0 114 91l81 -23q-88 -213 -218 -213
q-50 0 -135 45q-80 43 -110 43q-61 0 -109 -92z" />
    <glyph glyph-name="aring" unicode="&#xe5;" horiz-adv-x="994" 
d="M361 703h-190q94 288 417 288q152 0 243 -68q77 -57 77 -161q0 -64 -23 -155l-93 -372q-32 -135 -31 -235h-180q-1 69 11 120q-112 -138 -279 -138q-128 0 -203 66q-76 67 -76 179q0 194 217 284q78 33 199 61q18 4 206 43l44 10l7 28q10 39 10 75q0 45 -36 71
q-41 29 -112 29q-101 0 -155 -47q-31 -27 -53 -78zM667 490q-205 -37 -289 -72q-140 -58 -140 -166q0 -58 45 -89q34 -24 92 -24q123 0 200 98q42 53 74 181zM673 1466q78 0 136 -57q57 -58 57 -139t-57 -139q-58 -57 -139 -57t-138 57q-58 58 -58 138q0 84 57 140
q59 57 142 57zM669 1370q-41 0 -70 -29t-29 -71q0 -41 29 -71q29 -29 71 -29q41 0 71 29q29 30 29 71q0 42 -29 71q-30 29 -72 29z" />
    <glyph glyph-name="ccedilla" unicode="&#xe7;" horiz-adv-x="975" 
d="M468 -25l-46 -76q134 -32 134 -146q0 -85 -65 -143q-65 -59 -167 -59q-72 0 -157 41l21 89q70 -26 115 -26q53 0 83 32q29 30 29 73q0 37 -24 58q-30 26 -84 26q-13 0 -32 -1l85 141q-103 20 -170 79q-116 104 -116 301q0 154 64 299q79 181 226 269q107 64 236 64
q154 0 240 -86q80 -81 80 -230v-29h-185q1 19 1 30q0 73 -38 112t-107 39q-130 0 -222 -149q-41 -68 -66 -156t-25 -168q0 -102 48 -162q48 -59 135 -59q160 0 226 202h190q-88 -348 -409 -365z" />
    <glyph glyph-name="eacute" unicode="&#xe9;" horiz-adv-x="1016" 
d="M929 446h-644q-7 -43 -7 -73q0 -120 60 -180q54 -54 142 -54q89 0 151 52q37 33 78 109l177 -14q-126 -311 -434 -311q-165 0 -262 87q-117 104 -117 301q0 156 67 304q83 182 231 268q105 60 232 60q162 0 256 -96q96 -98 96 -268q0 -96 -26 -185zM766 596q3 24 3 40
q0 80 -33 129q-46 68 -142 68q-113 0 -196 -102q-44 -55 -75 -135h443zM778 1395h270l-407 -278h-155z" />
    <glyph glyph-name="egrave" unicode="&#xe8;" horiz-adv-x="1016" 
d="M929 446h-644q-7 -43 -7 -73q0 -120 60 -180q54 -54 142 -54q89 0 151 52q37 33 78 109l177 -14q-126 -311 -434 -311q-165 0 -262 87q-117 104 -117 301q0 156 67 304q83 182 231 268q105 60 232 60q162 0 256 -96q96 -98 96 -268q0 -96 -26 -185zM766 596q3 24 3 40
q0 80 -33 129q-46 68 -142 68q-113 0 -196 -102q-44 -55 -75 -135h443zM393 1402h229l154 -291h-144z" />
    <glyph glyph-name="ecircumflex" unicode="&#xea;" horiz-adv-x="1016" 
d="M929 446h-644q-7 -43 -7 -73q0 -120 60 -180q54 -54 142 -54q89 0 151 52q37 33 78 109l177 -14q-126 -311 -434 -311q-165 0 -262 87q-117 104 -117 301q0 156 67 304q83 182 231 268q105 60 232 60q162 0 256 -96q96 -98 96 -268q0 -96 -26 -185zM766 596q3 24 3 40
q0 80 -33 129q-46 68 -142 68q-113 0 -196 -102q-44 -55 -75 -135h443zM622 1399h176l159 -286h-161l-100 166l-204 -166h-176z" />
    <glyph glyph-name="edieresis" unicode="&#xeb;" horiz-adv-x="1016" 
d="M929 446h-644q-7 -43 -7 -73q0 -120 60 -180q54 -54 142 -54q89 0 151 52q37 33 78 109l177 -14q-126 -311 -434 -311q-165 0 -262 87q-117 104 -117 301q0 156 67 304q83 182 231 268q105 60 232 60q162 0 256 -96q96 -98 96 -268q0 -96 -26 -185zM766 596q3 24 3 40
q0 80 -33 129q-46 68 -142 68q-113 0 -196 -102q-44 -55 -75 -135h443zM896 1369q44 0 73 -27q28 -27 28 -70q0 -55 -41 -98q-39 -41 -98 -41q-46 0 -74 27q-30 28 -30 72q0 54 42 96q42 41 100 41zM511 1369q45 0 73 -27t28 -70q0 -55 -41 -98q-39 -41 -99 -41
q-45 0 -73 27q-30 28 -30 72q0 53 41 95q42 42 101 42z" />
    <glyph glyph-name="iacute" unicode="&#xed;" horiz-adv-x="486" 
d="M269 969h199l-241 -969h-199zM500 1395h256l-332 -278h-147z" />
    <glyph glyph-name="igrave" unicode="&#xec;" horiz-adv-x="486" 
d="M269 969h199l-241 -969h-199zM176 1402h208l127 -291h-137z" />
    <glyph glyph-name="icircumflex" unicode="&#xee;" horiz-adv-x="486" 
d="M270 969h199l-242 -969h-199zM384 1399h176l118 -286h-153l-67 166l-169 -166h-170z" />
    <glyph glyph-name="idieresis" unicode="&#xef;" horiz-adv-x="486" 
d="M270 969h199l-242 -969h-199zM616 1369q44 0 73 -27q28 -27 28 -70q0 -55 -41 -98q-40 -41 -99 -41q-45 0 -74 27q-30 28 -30 72q0 54 42 96q42 41 101 41zM303 1369q44 0 73 -27q28 -27 28 -70q0 -55 -41 -98q-39 -41 -99 -41q-45 0 -73 27q-30 28 -30 72q0 53 41 95
q42 42 101 42z" />
    <glyph glyph-name="ntilde" unicode="&#xf1;" horiz-adv-x="1055" 
d="M240 969h190q3 -23 3 -34q0 -40 -17 -107q128 162 302 162q118 0 191 -71q63 -62 63 -153q0 -77 -35 -216l-137 -550h-195l131 525q27 108 27 166q0 57 -40 90q-38 31 -100 31q-198 0 -277 -317l-124 -495h-195l158 631q57 230 57 301q0 12 -2 37zM457 1136l-80 23
q97 213 222 213q48 0 124 -43q79 -44 111 -44q56 0 114 91l80 -23q-86 -213 -217 -213q-51 0 -135 45q-80 43 -110 43q-59 0 -109 -92z" />
    <glyph glyph-name="oacute" unicode="&#xf3;" horiz-adv-x="1052" 
d="M614 995q172 0 274 -103q100 -103 100 -285q0 -157 -66 -304q-78 -173 -210 -257q-111 -71 -257 -71q-164 0 -263 86q-119 104 -119 301q0 167 77 325q150 308 464 308zM593 832q-133 0 -224 -149q-41 -68 -66.5 -157t-25.5 -166q0 -94 42 -154q48 -69 146 -69
q134 0 225 147q94 152 94 325q0 96 -42 156q-48 67 -149 67zM824 1395h270l-407 -278h-155z" />
    <glyph glyph-name="ograve" unicode="&#xf2;" horiz-adv-x="1052" 
d="M614 995q172 0 274 -103q100 -103 100 -285q0 -157 -66 -304q-78 -173 -210 -257q-111 -71 -257 -71q-164 0 -263 86q-119 104 -119 301q0 167 77 325q150 308 464 308zM593 832q-133 0 -224 -149q-41 -68 -66.5 -157t-25.5 -166q0 -94 42 -154q48 -69 146 -69
q134 0 225 147q94 152 94 325q0 96 -42 156q-48 67 -149 67zM426 1402h228l154 -291h-143z" />
    <glyph glyph-name="ocircumflex" unicode="&#xf4;" horiz-adv-x="1052" 
d="M614 995q172 0 274 -103q100 -103 100 -285q0 -157 -66 -304q-78 -173 -210 -257q-111 -71 -257 -71q-164 0 -263 86q-119 104 -119 301q0 167 77 325q150 308 464 308zM593 832q-133 0 -224 -149q-41 -68 -66.5 -157t-25.5 -166q0 -94 42 -154q48 -69 146 -69
q134 0 225 147q94 152 94 325q0 96 -42 156q-48 67 -149 67zM654 1399h176l159 -286h-160l-101 166l-203 -166h-177z" />
    <glyph glyph-name="odieresis" unicode="&#xf6;" horiz-adv-x="1052" 
d="M614 995q172 0 274 -103q100 -103 100 -285q0 -157 -66 -304q-78 -173 -210 -257q-111 -71 -257 -71q-164 0 -263 86q-119 104 -119 301q0 167 77 325q150 308 464 308zM593 832q-133 0 -224 -149q-41 -68 -66.5 -157t-25.5 -166q0 -94 42 -154q48 -69 146 -69
q134 0 225 147q94 152 94 325q0 96 -42 156q-48 67 -149 67zM922 1369q44 0 73 -27q28 -27 28 -70q0 -55 -41 -98q-39 -41 -99 -41q-45 0 -73 27q-30 28 -30 72q0 54 42 96q42 41 100 41zM537 1369q44 0 73 -27q28 -27 28 -70q0 -55 -41 -98q-39 -41 -99 -41q-45 0 -73 27
q-30 28 -30 72q0 53 41 95q42 42 101 42z" />
    <glyph glyph-name="otilde" unicode="&#xf5;" horiz-adv-x="1052" 
d="M614 995q172 0 274 -103q100 -103 100 -285q0 -157 -66 -304q-78 -173 -210 -257q-111 -71 -257 -71q-164 0 -263 86q-119 104 -119 301q0 167 77 325q150 308 464 308zM593 832q-133 0 -224 -149q-41 -68 -66.5 -157t-25.5 -166q0 -94 42 -154q48 -69 146 -69
q134 0 225 147q94 152 94 325q0 96 -42 156q-48 67 -149 67zM463 1136l-80 23q98 213 222 213q48 0 124 -43q78 -44 110 -44q56 0 115 91l80 -23q-33 -83 -77 -136q-64 -77 -140 -77q-51 0 -135 45q-80 43 -110 43q-59 0 -109 -92z" />
    <glyph glyph-name="uacute" unicode="&#xfa;" horiz-adv-x="1056" 
d="M265 969h195l-140 -561q-20 -81 -20 -126q0 -60 44 -94q40 -31 103 -31q194 0 265 286l132 526h195l-168 -671q-25 -103 -31 -128q-20 -85 -20 -141v-29h-187q-1 17 -1 26q0 38 12 94q-109 -141 -271 -141q-126 0 -203 75q-70 68 -70 167q0 86 31 211zM826 1395h269
l-407 -278h-154z" />
    <glyph glyph-name="ugrave" unicode="&#xf9;" horiz-adv-x="1056" 
d="M265 969h195l-140 -561q-20 -81 -20 -126q0 -60 44 -94q40 -31 103 -31q194 0 265 286l132 526h195l-168 -671q-25 -103 -31 -128q-20 -85 -20 -141v-29h-187q-1 17 -1 26q0 38 12 94q-109 -141 -271 -141q-126 0 -203 75q-70 68 -70 167q0 86 31 211zM427 1402h229
l154 -291h-144z" />
    <glyph glyph-name="ucircumflex" unicode="&#xfb;" horiz-adv-x="1056" 
d="M265 969h195l-140 -561q-20 -81 -20 -126q0 -60 44 -94q40 -31 103 -31q194 0 265 286l132 526h195l-168 -671q-25 -103 -31 -128q-20 -85 -20 -141v-29h-187q-1 17 -1 26q0 38 12 94q-109 -141 -271 -141q-126 0 -203 75q-70 68 -70 167q0 86 31 211zM670 1399h176
l158 -286h-160l-101 166l-203 -166h-177z" />
    <glyph glyph-name="udieresis" unicode="&#xfc;" horiz-adv-x="1056" 
d="M265 969h195l-140 -561q-20 -81 -20 -126q0 -60 44 -94q40 -31 103 -31q194 0 265 286l132 526h195l-168 -671q-25 -103 -31 -128q-20 -85 -20 -141v-29h-187q-1 17 -1 26q0 38 12 94q-109 -141 -271 -141q-126 0 -203 75q-70 68 -70 167q0 86 31 211zM937 1369
q45 0 73 -27t28 -70q0 -55 -41 -98q-39 -41 -99 -41q-45 0 -73 27q-30 28 -30 72q0 54 42 96q42 41 100 41zM552 1369q44 0 73 -27q28 -27 28 -70q0 -55 -41 -98q-39 -41 -98 -41q-46 0 -74 27q-30 28 -30 73q0 53 41 94q42 42 101 42z" />
    <glyph glyph-name="dagger" unicode="&#x2020;" 
d="M637 1331h184l-92 -370h327l-40 -159h-327l-267 -1072h-184l267 1072h-330l40 159h330z" />
    <glyph glyph-name="degree" unicode="&#xb0;" 
d="M673 1391q121 0 210 -86q88 -86 88 -209t-87 -209q-89 -88 -215 -88t-214 88q-88 87 -88 208q0 125 88 209q91 87 218 87zM667 1268q-71 0 -123 -51q-51 -50 -51 -121q0 -73 51 -123q52 -51 125 -51t125 51q51 51 51 122q0 73 -51 122q-53 51 -127 51z" />
    <glyph glyph-name="cent" unicode="&#xa2;" horiz-adv-x="1096" 
d="M651 1220l34 161h111l-35 -167q243 -45 243 -316v-22h-184v21q0 68 -24 105q-21 31 -70 47l-145 -683q135 21 190 199h190q-46 -177 -150 -268.5t-266 -96.5l-42 -201h-112l45 212q-101 24 -165 84q-113 106 -113 295q0 199 101 370q140 239 392 260zM615 1052
q-97 -34 -163 -142q-95 -152 -95 -333q0 -156 114 -203z" />
    <glyph glyph-name="sterling" unicode="&#xa3;" horiz-adv-x="1096" 
d="M570 782h303l-32 -152h-331q-101 -294 -239 -468q112 29 248 29q41 0 104 -4q44 -3 68 -3q69 0 102 57q26 43 41 112h163q-34 -187 -114 -274q-81 -87 -229 -87q-41 0 -175 9q-122 9 -202 9q-181 0 -302 -24q145 137 331 644h-173l32 152h203q70 212 150 364
q72 136 157 188q83 51 190 51q132 0 205 -77q60 -64 60 -183q0 -25 -3 -61h-175q2 23 2 34q0 114 -107 114q-83 0 -139 -90q-39 -63 -138 -340z" />
    <glyph glyph-name="section" unicode="&#xa7;" 
d="M996 1015h-164q3 31 3 48q0 65 -37 105q-42 46 -125 46q-75 0 -125 -40q-59 -47 -59 -117q0 -54 50 -100q25 -23 106 -77q129 -87 181 -131q89 -77 89 -171q0 -200 -255 -326q88 -85 88 -197q0 -168 -127 -278q-110 -96 -277 -96q-162 0 -259 85q-82 73 -82 213
q0 33 5 77h167q-2 -28 -2 -48q0 -70 45 -114q49 -49 133 -49q92 0 150 55q56 53 56 128q0 65 -54 115q-23 21 -113 81q-117 79 -176 132q-83 76 -83 174q0 127 120 224q47 39 135 86q-88 78 -88 193q0 90 51 172q56 91 154 136q83 37 183 37q140 0 224 -70q92 -77 92 -211
q0 -31 -6 -82zM487 758q-170 -85 -170 -192q0 -57 52 -104q51 -47 185 -131q174 87 174 198q0 49 -45 91q-55 50 -196 138z" />
    <glyph glyph-name="bullet" unicode="&#x2022;" horiz-adv-x="1365" 
d="M710 978q113 0 196 -83q84 -83 84 -201t-83 -201t-201 -83q-116 0 -199 82q-85 84 -85 202q0 121 84 202q86 82 204 82z" />
    <glyph glyph-name="paragraph" unicode="&#xb6;" horiz-adv-x="1096" 
d="M199 -196l211 846q-109 3 -179 31q-68 28 -105 87q-39 62 -39 142q0 154 102 281q94 116 262 154q89 20 213 20h601l-39 -158h-136l-350 -1403h-173l349 1403h-193l-350 -1403h-174z" />
    <glyph glyph-name="germandbls" unicode="&#xdf;" horiz-adv-x="1070" 
d="M24 0l215 862q40 166 63 230q54 154 175 228q103 64 234 64q143 0 235 -77q97 -80 97 -207q0 -72 -32 -140t-88 -115q-67 -56 -165 -79q221 -75 221 -289q0 -113 -46 -222q-64 -151 -182 -218q-88 -51 -194 -51q-92 0 -181 38l44 178q68 -36 128 -36q107 0 169 97
q58 90 58 198q0 212 -281 216l43 173h28q137 0 210 77q63 66 63 156q0 61 -43 99q-41 37 -102 37q-111 0 -174 -100q-34 -55 -80 -238l-220 -881h-195z" />
    <glyph glyph-name="registered" unicode="&#xae;" horiz-adv-x="1614" 
d="M597 1088h189q179 0 255 -33q70 -31 105 -99q27 -51 27 -112q0 -160 -160 -225l211 -349h-168l-193 325h-123v-325h-143v818zM740 714h54q110 0 152 14q80 27 80 117q0 75 -64 105q-42 19 -175 19h-47v-255zM869 1391q190 0 361 -105q171 -104 261 -281q77 -152 77 -322
q0 -141 -54 -270.5t-153 -229.5q-99 -99 -229.5 -153t-270.5 -54q-141 0 -271 54t-229 153q-100 100 -154 230t-54 269q0 201 104 371q102 168 282 261q150 77 330 77zM854 1291q-114 0 -222 -46t-191 -130q-85 -85 -131 -198t-46 -234t46 -233.5t130 -198.5
q174 -176 421 -176q246 0 420 176q176 179 176 431q0 123 -46.5 236.5t-130.5 196.5q-178 176 -426 176z" />
    <glyph glyph-name="copyright" unicode="&#xa9;" horiz-adv-x="1614" 
d="M1193 848h-128q-30 150 -173 150q-102 0 -161 -77q-64 -86 -64 -228q0 -144 70 -231q57 -72 157 -72q165 0 178 194h131q-3 -109 -52 -186q-81 -128 -256 -128q-155 0 -256 96q-121 115 -121 325q0 226 134 342q98 85 239 85q163 0 246 -108q48 -63 56 -162zM870 1391
q189 0 360 -105q171 -104 261 -281q77 -152 77 -322q0 -140 -54 -270t-153 -230q-100 -99 -230 -153t-270 -54q-141 0 -271 54t-230 153q-99 99 -153 229t-54 270q0 201 104 371q102 168 282 261q151 77 331 77zM854 1291q-114 0 -222 -46t-191 -130q-85 -85 -131 -198
t-46 -234t46 -233.5t130 -198.5q174 -176 421 -176q246 0 420 176q176 179 176 431q0 122 -46.5 236t-130.5 197q-178 176 -426 176z" />
    <glyph glyph-name="trademark" unicode="&#x2122;" horiz-adv-x="1484" 
d="M234 1365h535l-35 -115h-195l-165 -663h-132l165 663h-207zM851 1365h184l49 -631l360 631h190l-194 -778h-122l154 612l-352 -612h-138l-52 613l-151 -613h-122z" />
    <glyph glyph-name="acute" unicode="&#xb4;" 
d="M850 1395h269l-406 -278h-155z" />
    <glyph glyph-name="dieresis" unicode="&#xa8;" 
d="M922 1369q44 0 73 -27q28 -27 28 -70q0 -55 -41 -98q-40 -41 -99 -41q-46 0 -74 27q-30 28 -30 72q0 54 42 96q42 41 101 41zM536 1369q45 0 73 -27t28 -70q0 -55 -41 -98q-39 -41 -99 -41q-45 0 -73 27q-30 28 -30 72q0 53 41 95q42 42 101 42z" />
    <glyph glyph-name="notequal" unicode="&#x2260;" 
d="M566 961l112 225l136 -64l-80 -161h242v-187h-327l-80 -162h407v-187h-492l-106 -215l-136 65l73 150h-227v187h313l80 162h-393v187h478z" />
    <glyph glyph-name="AE" unicode="&#xc6;" horiz-adv-x="1771" 
d="M1031 1365h855l-45 -182h-548l-97 -387h519l-45 -182h-519l-108 -432h590l-45 -182h-799l86 330h-463l-260 -330h-238zM916 511l178 682l-535 -682h357z" />
    <glyph glyph-name="Oslash" unicode="&#xd8;" horiz-adv-x="1324" 
d="M1192 1248l120 117h157l-215 -213q54 -121 54 -285q0 -215 -90 -423q-110 -255 -300 -378q-144 -92 -325 -92q-220 0 -353 144l-122 -118h-153l211 220q-53 110 -53 278q0 209 91 422q111 262 302 382q143 89 323 89q223 0 353 -143zM1032 1107q-63 102 -206 102
q-198 0 -338 -217q-65 -100 -107 -233q-44 -141 -44 -244q0 -37 12 -140zM395 264q24 -39 61 -64q67 -45 152 -45q205 0 348 239q64 108 102 243q35 125 35 242q0 51 -15 118z" />
    <glyph glyph-name="infinity" unicode="&#x221e;" horiz-adv-x="1365" 
d="M708 560q-145 -187 -329 -187q-157 0 -249 109q-74 86 -74 217q0 151 102 240q93 82 221 82q129 0 246 -105q39 -35 74 -81q135 186 328 186q166 0 258 -119q65 -84 65 -206q0 -153 -102 -244q-91 -80 -218 -80q-186 0 -322 188zM806 697q96 -148 196 -148q63 0 105 46
q37 41 37 102q0 73 -53 114q-41 33 -91 33q-81 0 -148 -84q-10 -11 -28 -36.5t-18 -26.5zM600 696q-28 42 -50 68q-66 80 -146 80q-63 0 -104 -46q-38 -41 -38 -101q0 -73 53 -115q41 -32 91 -32q79 0 148 83q10 11 28 36.5t18 26.5z" />
    <glyph glyph-name="plusminus" unicode="&#xb1;" horiz-adv-x="1086" 
d="M607 790h385v-152h-385v-348h-158v348h-384v152h384v399h158v-399zM65 181h927v-154h-927v154z" />
    <glyph glyph-name="lessequal" unicode="&#x2264;" 
d="M975 1311v-198l-666 -302l666 -301v-197l-887 407v177zM975 254v-195h-887v195h887z" />
    <glyph glyph-name="greaterequal" unicode="&#x2265;" 
d="M88 313v197l666 302l-666 301v198l887 -415v-177zM88 59v195h887v-195h-887z" />
    <glyph glyph-name="yen" unicode="&#xa5;" horiz-adv-x="1096" 
d="M934 895h189l-33 -131h-257l-115 -149h335l-33 -131h-367l-119 -484h-206l122 484h-375l33 131h343l-40 149h-266l32 131h198l-128 470h221l141 -612l443 612h245z" />
    <glyph glyph-name="mu" unicode="&#xb5;" 
d="M93 -349v1332h209v-538q0 -117 20 -169q31 -80 105 -117q49 -25 104 -25q105 0 169 83q37 47 51 105q11 46 11 136v525h208v-983h-208v144q-35 -73 -73 -107q-67 -60 -163 -60q-91 0 -158 55q-32 26 -66 82v-463h-209z" />
    <glyph glyph-name="partialdiff" unicode="&#x2202;" 
d="M170 1184l28 182q184 -23 315 -75q125 -49 227.5 -143.5t164.5 -218.5q91 -181 91 -404q0 -209 -90 -345q-64 -97 -165 -150q-96 -50 -210 -50q-146 0 -265 84q-94 65 -146.5 166.5t-52.5 215.5q0 91 35.5 177t97.5 147q119 118 291 118q110 0 190 -48q39 -23 86 -74
q-57 128 -113 191q-74 81 -166 128q-105 55 -181 75q-57 15 -137 24zM532 734q-105 0 -179 -85q-74 -86 -74 -213q0 -137 86 -226q71 -73 166 -73q106 0 179 88q73 89 73 217q0 148 -90 230q-67 62 -161 62z" />
    <glyph glyph-name="summation" unicode="&#x2211;" horiz-adv-x="1365" 
d="M1268 1536v-492h-188l-21 297h-754l513 -791l-513 -867h774l12 294h196v-489h-1217v217l504 845l-504 771v215h1198z" />
    <glyph glyph-name="product" unicode="&#x220f;" horiz-adv-x="1467" 
d="M99 1536h1310v-195h-168v-1658h168v-195h-542v195h166v1658h-559v-1658h165v-195h-540v195h167v1658h-167v195z" />
    <glyph glyph-name="pi" unicode="&#x3c0;" horiz-adv-x="1278" 
d="M243 0v795h-155v187h1143v-187h-152v-795h-208v795h-420v-795h-208z" />
    <glyph glyph-name="integral" unicode="&#x222b;" 
d="M166 -491l41 186q63 -20 105 -20q100 0 112 104q4 32 4 156v1114q0 106 3 183q4 130 60 201q81 103 242 103q67 0 165 -22l-41 -186q-61 20 -103 20q-102 0 -114 -104q-3 -21 -4 -258v-1012q0 -216 -16 -287q-29 -122 -145 -170q-67 -27 -154 -27q-85 0 -155 19z" />
    <glyph glyph-name="ordfeminine" unicode="&#xaa;" horiz-adv-x="772" 
d="M453 1203h-129q58 182 267 182q95 0 153 -41q51 -36 51 -99q0 -38 -14 -93l-55 -220q-18 -74 -18 -119q0 -8 1 -26h-124q-1 11 -1 17q0 14 3 40q-30 -27 -48 -38q-47 -30 -115 -30q-82 0 -130 40q-50 42 -50 112q0 132 174 186q66 20 238 53l2 12q7 27 7 40q0 58 -88 58
q-61 0 -92 -26q-18 -15 -32 -48zM633 1076q-129 -25 -170 -42q-81 -32 -81 -89q0 -64 83 -64q71 0 116 55q24 29 43 105zM189 678h509l-24 -95h-509z" />
    <glyph glyph-name="ordmasculine" unicode="&#xba;" horiz-adv-x="796" 
d="M600 1385q109 0 173 -62q66 -64 66 -177q0 -161 -103 -277q-90 -100 -231 -100q-103 0 -167 52q-77 63 -77 187q0 98 46 190q94 187 293 187zM585 1277q-78 0 -131 -85q-54 -86 -54 -184q0 -57 26 -92q30 -39 88 -39q78 0 131 83q55 87 55 186q0 131 -115 131zM197 678
h509l-24 -95h-509z" />
    <glyph glyph-name="Omega" unicode="&#x2126;" horiz-adv-x="1365" 
d="M79 0v188h323q-135 81 -206 176q-117 156 -117 384q0 284 192 473q178 177 433 177t433 -177q191 -189 191 -473q0 -242 -130 -400q-70 -86 -191 -160h321v-188h-543v168q131 74 198 157q131 163 131 398q0 203 -117 342q-122 145 -291 145q-156 0 -275 -118
q-138 -138 -138 -369q0 -370 331 -555v-168h-545z" />
    <glyph glyph-name="ae" unicode="&#xe6;" horiz-adv-x="1576" 
d="M1489 446h-643q-7 -42 -7 -72q0 -121 61 -181q55 -54 140 -54q90 0 151 52q38 33 78 109l177 -14q-126 -311 -422 -311q-222 0 -320 181q-65 -75 -128 -112q-107 -63 -244 -63q-141 0 -221 67q-77 65 -77 179q0 217 279 298q144 41 380 70l12 49q13 53 13 85q0 45 -36 70
q-43 29 -114 29q-99 0 -154 -47q-31 -26 -53 -78h-190q94 288 416 288q201 0 269 -127q142 131 312 131q158 0 252 -96q96 -97 96 -269q0 -97 -27 -184zM657 453q-182 -22 -285 -57q-135 -47 -135 -143q0 -58 45 -90q35 -24 94 -24q122 0 198 98q44 56 75 181zM1327 596
q2 27 2 43q0 79 -34 127q-46 67 -141 67q-180 0 -271 -237h444z" />
    <glyph glyph-name="oslash" unicode="&#xf8;" horiz-adv-x="1052" 
d="M886 896l85 77h143l-170 -157q45 -97 45 -212q0 -153 -66 -301q-78 -174 -210 -257q-111 -71 -257 -71q-197 0 -299 122l-107 -97h-143l200 180q-33 86 -33 184q0 166 77 324q150 308 459 308q170 0 276 -100zM734 775q-53 58 -137 58q-187 0 -280 -262
q-37 -102 -41 -250zM310 222q46 -85 156 -85q155 0 251 194q69 139 69 292q0 30 -10 61z" />
    <glyph glyph-name="questiondown" unicode="&#xbf;" horiz-adv-x="822" 
d="M387 556h185q-31 -152 -59 -212q-33 -72 -109 -146q-22 -20 -109 -96q-134 -117 -134 -204q0 -46 37 -73q34 -26 88 -26q142 0 193 179h165q-31 -159 -113 -246q-109 -114 -286 -114q-132 0 -217 66q-85 67 -85 184q0 94 53 172q40 58 163 162q110 94 141 128
q47 53 72 155q7 30 15 71zM554 995q48 0 82 -30q35 -32 35 -82q0 -66 -50 -118t-117 -52q-51 0 -83 32q-32 33 -32 82q0 65 46 114q51 54 119 54z" />
    <glyph glyph-name="exclamdown" unicode="&#xa1;" horiz-adv-x="515" 
d="M155 -362h-210l254 915h164zM376 995q49 0 83 -30q35 -32 35 -82q0 -66 -50 -118t-118 -52q-51 0 -83 32q-32 33 -32 82q0 65 46 114q51 54 119 54z" />
    <glyph glyph-name="logicalnot" unicode="&#xac;" 
d="M767 0v352h-679v195h887v-547h-208z" />
    <glyph glyph-name="radical" unicode="&#x221a;" horiz-adv-x="1365" 
d="M1385 1700v-195h-383l-389 -1505h-269l-142 583h-182v195h353l56 -221q23 -110 43 -293h17q23 170 50.5 305.5t80.5 343.5l201 787h564z" />
    <glyph glyph-name="florin" unicode="&#x192;" horiz-adv-x="1096" 
d="M872 972h220l-31 -151h-247l-216 -581q-102 -274 -164 -362q-109 -155 -275 -155q-135 0 -258 81l64 165q109 -75 194 -75q79 0 139 108q44 80 103 237l217 582h-196l31 151h222l44 117q72 194 140 270q99 113 248 113q103 0 198 -57l-61 -160q-97 48 -150 48
q-75 0 -126 -93q-27 -50 -66 -156z" />
    <glyph glyph-name="approxequal" unicode="&#x2248;" 
d="M154 712l-117 76q37 86 75 140q84 121 221 121q72 0 220 -61q101 -43 127 -49q32 -8 61 -8q66 0 110 44q25 25 56 78l121 -71q-67 -138 -132 -188q-82 -64 -179 -64q-66 0 -295 93q-60 25 -107 25q-63 0 -108 -53q-23 -27 -53 -83zM154 332l-117 77q36 84 75 140
q84 121 220 121q74 0 221 -61q100 -41 127 -48q33 -8 61 -8q66 0 110 44q24 24 56 77l121 -71q-67 -137 -132 -188q-82 -63 -180 -63q-63 0 -294 92q-61 25 -106 25q-63 0 -109 -53q-23 -27 -53 -84z" />
    <glyph glyph-name="Delta" unicode="&#x2206;" horiz-adv-x="1365" 
d="M65 0l522 1365h225l529 -1365h-1276zM363 195h675l-337 916z" />
    <glyph glyph-name="guillemotleft" unicode="&#xab;" horiz-adv-x="873" 
d="M307 0h-163l-69 495l312 480h168l-291 -485zM646 0h-163l-69 495l312 480h167l-290 -485z" />
    <glyph glyph-name="guillemotright" unicode="&#xbb;" horiz-adv-x="873" 
d="M577 975h163l69 -494l-312 -481h-167l291 485zM238 975h163l70 -494l-313 -481h-167l291 485z" />
    <glyph glyph-name="ellipsis" unicode="&#x2026;" horiz-adv-x="1562" 
d="M198 260q50 0 82 -32t32 -84q0 -62 -46 -112q-50 -54 -117 -54q-50 0 -84 30q-35 32 -35 81q0 68 50 119q50 52 118 52zM722 260q50 0 82 -32t32 -82q0 -64 -45 -114q-50 -54 -118 -54q-50 0 -84 30q-35 32 -35 82q0 68 49 118q51 52 119 52zM1246 260q50 0 82 -32
t32 -84q0 -62 -46 -112q-50 -54 -118 -54q-50 0 -84 30q-35 32 -35 81q0 68 50 119q51 52 119 52z" />
    <glyph glyph-name="glyph172" horiz-adv-x="1096" 
 />
    <glyph glyph-name="Agrave" unicode="&#xc0;" horiz-adv-x="1160" 
d="M705 1369h202l108 -1369h-212l-19 320h-467l-181 -320h-224zM778 497l-11 226q-7 177 -11 434q-32 -66 -109 -226q-68 -138 -113 -214l-125 -220h369zM482 1768h265l203 -269h-172z" />
    <glyph glyph-name="Atilde" unicode="&#xc3;" horiz-adv-x="1160" 
d="M705 1369h202l108 -1369h-212l-19 320h-467l-181 -320h-224zM778 497l-11 226q-7 177 -11 434q-32 -66 -109 -226q-68 -138 -113 -214l-125 -220h369zM596 1518l-80 23q104 201 238 201q48 0 133 -35q86 -35 120 -35q64 0 130 79l81 -24q-93 -204 -233 -204
q-52 0 -145 38q-86 35 -119 35q-68 0 -125 -78z" />
    <glyph glyph-name="Otilde" unicode="&#xd5;" horiz-adv-x="1324" 
d="M845 1391q208 0 334 -130q129 -134 129 -385q0 -225 -90 -432q-110 -256 -300 -378q-144 -92 -325 -92q-224 0 -348 140q-122 137 -122 372q0 221 91 434q110 261 302 382q143 89 329 89zM821 1209q-193 0 -332 -217q-66 -101 -107 -234q-44 -140 -44 -269
q0 -155 67 -242q71 -92 203 -92q205 0 348 239q64 107 102 243q35 125 35 241q0 141 -60 231q-68 100 -212 100zM678 1518l-80 23q104 201 238 201q49 0 133 -35q86 -35 121 -35q63 0 129 79l81 -24q-93 -204 -233 -204q-52 0 -144 38q-87 35 -120 35q-67 0 -125 -78z" />
    <glyph glyph-name="OE" unicode="&#x152;" horiz-adv-x="1892" 
d="M1199 1205l40 160h775l-45 -181h-570l-97 -386h540l-45 -182h-538l-110 -434h605l-45 -182h-811l31 107q-150 -133 -344 -133q-213 0 -340 141q-122 135 -122 368q0 225 90 438q110 259 304 380q143 90 316 90q250 0 366 -186zM819 1209q-190 0 -330 -216
q-66 -102 -107 -234q-44 -141 -44 -271q0 -152 68 -240q72 -92 202 -92q204 0 346 235q62 102 100 232q39 133 39 257q0 140 -60 229q-69 100 -214 100z" />
    <glyph glyph-name="oe" unicode="&#x153;" horiz-adv-x="1698" 
d="M1611 446h-643q-7 -41 -7 -72q0 -121 60 -181q54 -54 141 -54q90 0 151 52q38 32 78 109l177 -14q-128 -311 -431 -311q-142 0 -230 70q-43 35 -88 107q-64 -69 -108 -100q-110 -77 -258 -77q-162 0 -261 86q-119 104 -119 301q0 168 77 326q150 307 455 307
q150 0 242 -80q42 -36 78 -104q149 184 364 184q159 0 253 -96q96 -98 96 -267q0 -99 -27 -186zM594 833q-134 0 -225 -149q-42 -68 -67 -157t-25 -169q0 -92 42 -152q48 -69 147 -69q133 0 225 147q94 152 94 325q0 97 -42 157q-48 67 -149 67zM1449 596q2 27 2 45
q0 80 -36 127q-48 65 -138 65q-113 0 -196 -102q-45 -55 -76 -135h444z" />
    <glyph glyph-name="endash" unicode="&#x2013;" horiz-adv-x="1096" 
d="M194 591h770l-38 -150h-769z" />
    <glyph glyph-name="emdash" unicode="&#x2014;" horiz-adv-x="1204" 
d="M31 591h1204l-37 -150h-1204z" />
    <glyph glyph-name="quotedblleft" unicode="&#x201c;" horiz-adv-x="808" 
d="M820 1391h117q-60 -51 -112 -117q-51 -66 -70 -119h14q32 0 55 -19q34 -28 34 -72q0 -64 -54 -109q-44 -37 -99 -37q-51 0 -83 33q-30 31 -30 82q0 154 228 358zM458 1391h117q-61 -51 -112 -117q-50 -65 -70 -119h14q32 0 55 -19q34 -28 34 -72q0 -64 -54 -109
q-44 -37 -99 -37q-51 0 -83 33q-30 31 -30 82q0 154 228 358z" />
    <glyph glyph-name="quotedblright" unicode="&#x201d;" horiz-adv-x="808" 
d="M318 918h-117q61 51 112 117q50 65 70 119q-33 0 -50 8q-53 24 -53 83q0 64 54 109q44 37 99 37q51 0 83 -33q30 -31 30 -82q0 -154 -228 -358zM680 918h-117q61 51 112 117q50 65 70 119q-33 0 -50 8q-53 24 -53 83q0 63 54 109q44 37 99 37q51 0 83 -33q30 -31 30 -83
q0 -153 -228 -357z" />
    <glyph glyph-name="quoteleft" unicode="&#x2018;" horiz-adv-x="446" 
d="M467 1374h117q-58 -48 -112 -117q-50 -64 -70 -119h13q33 -1 56 -19q34 -28 34 -72q0 -64 -54 -109q-44 -37 -99 -37q-51 0 -83 33q-30 31 -30 83q0 157 228 357z" />
    <glyph glyph-name="quoteright" unicode="&#x2019;" horiz-adv-x="446" 
d="M318 918h-117q61 51 112 117q50 65 70 119q-33 0 -50 8q-53 24 -53 83q0 64 54 109q44 37 99 37q51 0 83 -33q30 -31 30 -79q0 -157 -228 -361z" />
    <glyph glyph-name="divide" unicode="&#xf7;" horiz-adv-x="1096" 
d="M603 496q49 0 85 -36q35 -35 35 -85t-36 -86q-35 -35 -85 -35t-86 36q-35 35 -35 85q0 51 35 85q36 36 87 36zM603 1112q49 0 85 -36q35 -35 35 -85t-36 -86q-35 -35 -85 -35t-86 36q-35 35 -35 85q0 51 35 85q36 36 87 36zM139 762h927v-154h-927v154z" />
    <glyph glyph-name="lozenge" unicode="&#x25ca;" horiz-adv-x="1365" 
d="M703 1419l531 -736l-531 -736l-532 736zM703 1238l-404 -555l404 -554l403 554z" />
    <glyph glyph-name="ydieresis" unicode="&#xff;" horiz-adv-x="941" 
d="M165 969h199l38 -817l442 817h205l-529 -923q-155 -270 -273 -357q-133 -99 -341 -99q-20 0 -62 2l45 180h28q92 0 145 17q76 25 138 107q20 28 48 76zM883 1369q45 0 73 -27t28 -70q0 -55 -41 -98q-39 -41 -98 -41q-46 0 -74 27q-30 28 -30 73q0 53 42 95q42 41 100 41z
M498 1369q45 0 73 -27t28 -71q0 -54 -41 -97q-39 -41 -98 -41q-46 0 -75 27q-29 28 -29 72q0 53 41 95q42 42 101 42z" />
    <glyph glyph-name="Ydieresis" unicode="&#x178;" horiz-adv-x="1044" 
d="M226 1365h221l140 -613l443 613h246l-626 -811l-138 -554h-205l139 554zM1044 1766q49 0 80 -30q31 -29 31 -76q0 -61 -45 -107q-43 -46 -108 -46q-50 0 -81 30q-33 31 -33 79q0 59 46 105q46 45 110 45zM623 1766q49 0 80 -30q30 -29 30 -76q0 -61 -45 -107
q-43 -46 -108 -46q-49 0 -81 30q-32 31 -32 79q0 58 45 104q46 46 111 46z" />
    <glyph glyph-name="uni2215" unicode="&#x2215;" horiz-adv-x="284" 
d="M636 1331h168l-1057 -1331h-167z" />
    <glyph glyph-name="currency" unicode="&#xa4;" horiz-adv-x="1365" 
d="M152 265l201 202q-97 134 -97 287q0 148 98 285l-205 203l113 113l203 -203q142 98 292 98q147 0 286 -96l202 200l112 -112l-201 -200q99 -146 99 -290q0 -145 -96 -284l202 -202l-110 -113l-203 202q-139 -98 -290 -98q-144 0 -293 97l-201 -200zM752 1067
q-126 0 -218 -92q-91 -92 -91 -221q0 -130 92 -222t221 -92t221 92q91 91 91 220q0 133 -91 223q-94 92 -225 92z" />
    <glyph glyph-name="guilsinglleft" unicode="&#x2039;" horiz-adv-x="534" 
d="M306 0h-163l-69 495l312 480h168l-291 -485z" />
    <glyph glyph-name="guilsinglright" unicode="&#x203a;" horiz-adv-x="534" 
d="M238 975h163l70 -494l-313 -481h-167l291 485z" />
    <glyph glyph-name="uniF001" unicode="&#xf001;" horiz-adv-x="1092" 
d="M490 969h230l-39 -159h-228l-202 -810h-197l202 810h-129l39 159h130l16 65q47 186 103 259q82 109 234 109q100 0 200 -50l-43 -171q-77 46 -145 46q-74 0 -113 -72q-20 -37 -46 -140zM876 969h199l-242 -969h-199zM1073 1388q43 0 71 -27t28 -73q0 -63 -44 -110
q-41 -44 -99 -44q-44 0 -73 23q-34 28 -34 73q0 66 49 115q43 43 102 43z" />
    <glyph glyph-name="uniF002" unicode="&#xf002;" horiz-adv-x="1093" 
d="M489 969h230l-39 -159h-228l-202 -810h-197l202 810h-129l39 159h130l16 65q47 186 103 259q82 109 234 109q100 0 200 -50l-43 -171q-77 46 -145 46q-74 0 -113 -72q-20 -37 -46 -140zM976 1373h199l-343 -1373h-199z" />
    <glyph glyph-name="daggerdbl" unicode="&#x2021;" 
d="M637 1331h180l-51 -207h332l-40 -161h-332l-202 -807h333l-40 -161h-333l-66 -265h-180l66 265h-331l40 161h331l201 807h-331l41 161h330z" />
    <glyph glyph-name="uni2219" unicode="&#x2219;" horiz-adv-x="515" 
d="M294 643q49 0 81 -32q33 -33 33 -84q0 -62 -46 -112q-50 -55 -118 -55q-50 0 -84 30q-35 32 -35 82q0 68 50 119q51 52 119 52z" />
    <glyph glyph-name="quotesinglbase" unicode="&#x201a;" horiz-adv-x="446" 
d="M30 -236h-117q61 51 112 117q50 65 70 119q-34 0 -50 8q-53 24 -53 83q0 64 54 109q44 37 99 37q51 0 83 -33q30 -31 30 -79q0 -157 -228 -361z" />
    <glyph glyph-name="quotedblbase" unicode="&#x201e;" horiz-adv-x="808" 
d="M30 -236h-117q61 51 112 117q50 65 70 119q-34 0 -50 8q-53 24 -53 83q0 64 54 109q44 37 99 37q51 0 83 -33q30 -31 30 -82q0 -154 -228 -358zM392 -236h-117q61 51 112 117q50 65 70 119q-33 0 -50 8q-53 24 -53 83q0 63 54 109q44 37 99 37q51 0 83 -33q30 -31 30 -83
q0 -153 -228 -357z" />
    <glyph glyph-name="perthousand" unicode="&#x2030;" horiz-adv-x="2060" 
d="M537 1376q99 0 161 -66q61 -64 61 -179q0 -176 -115 -305q-98 -109 -230 -109q-96 0 -158 60q-67 64 -67 178q0 105 45 203q53 116 150 175q70 43 153 43zM517 1253q-75 0 -131 -89t-56 -197q0 -127 98 -127q80 0 137 93q53 85 53 194q0 126 -101 126zM1201 1365h168
l-1071 -1365h-167zM1101 648q99 0 161 -66q61 -64 61 -179q0 -176 -115 -305q-98 -109 -230 -109q-97 0 -159 60q-67 64 -67 178q0 105 45 203q54 116 150 175q71 43 154 43zM1081 525q-76 0 -132 -89t-56 -197q0 -127 98 -127q80 0 138 93q53 85 53 194q0 126 -101 126z
M1759 648q99 0 161 -66q61 -64 61 -179q0 -176 -115 -305q-98 -109 -230 -109q-96 0 -158 60q-67 64 -67 178q0 105 45 203q53 115 150 175q70 43 153 43zM1739 525q-76 0 -131 -89q-56 -89 -56 -197q0 -127 98 -127q80 0 137 93q53 85 53 194q0 126 -101 126z" />
    <glyph glyph-name="Acircumflex" unicode="&#xc2;" horiz-adv-x="1160" 
d="M705 1369h202l108 -1369h-212l-19 320h-467l-181 -320h-224zM778 497l-11 226q-7 177 -11 434q-32 -66 -109 -226q-68 -138 -113 -214l-125 -220h369zM792 1773h192l196 -272h-173l-133 152l-230 -152h-185z" />
    <glyph glyph-name="Ecircumflex" unicode="&#xca;" horiz-adv-x="1049" 
d="M459 798h540l-45 -182h-540l-108 -434h605l-45 -182h-811l340 1365h776l-46 -181h-570zM783 1773h191l197 -272h-173l-134 152l-229 -152h-186z" />
    <glyph glyph-name="Aacute" unicode="&#xc1;" horiz-adv-x="1160" 
d="M705 1369h202l108 -1369h-212l-19 320h-467l-181 -320h-224zM778 497l-11 226q-7 177 -11 434q-32 -66 -109 -226q-68 -138 -113 -214l-125 -220h369zM993 1761h312l-440 -255h-183z" />
    <glyph glyph-name="Edieresis" unicode="&#xcb;" horiz-adv-x="1049" 
d="M459 798h540l-45 -182h-540l-108 -434h605l-45 -182h-811l340 1365h776l-46 -181h-570zM1072 1766q48 0 79 -30q31 -29 31 -77q0 -60 -45 -106q-43 -46 -108 -46q-49 0 -81 30q-32 31 -32 79q0 59 46 105q46 45 110 45zM651 1766q48 0 79 -30q31 -29 31 -77
q0 -60 -44 -106t-109 -46q-49 0 -80 30q-33 31 -33 79q0 58 45 104q46 46 111 46z" />
    <glyph glyph-name="Egrave" unicode="&#xc8;" horiz-adv-x="1049" 
d="M459 798h540l-45 -182h-540l-109 -434h606l-45 -182h-811l340 1365h775l-45 -181h-570zM506 1768h265l202 -269h-171z" />
    <glyph glyph-name="Iacute" unicode="&#xcd;" horiz-adv-x="549" 
d="M262 0h-207l340 1365h207zM640 1761h298l-378 -255h-169z" />
    <glyph glyph-name="Icircumflex" unicode="&#xce;" horiz-adv-x="549" 
d="M262 0h-207l340 1365h207zM503 1773h192l162 -272h-166l-107 152l-201 -152h-179z" />
    <glyph glyph-name="Idieresis" unicode="&#xcf;" horiz-adv-x="549" 
d="M262 0h-207l340 1365h207zM765 1766q48 0 79 -30q31 -29 31 -76q0 -61 -45 -107q-43 -46 -108 -46q-49 0 -81 30q-32 31 -32 79q0 59 46 105q45 45 110 45zM416 1766q48 0 79 -30q31 -29 31 -76q0 -61 -45 -107q-43 -46 -108 -46q-49 0 -81 30q-32 31 -32 79q0 58 45 104
q46 46 111 46z" />
    <glyph glyph-name="Igrave" unicode="&#xcc;" horiz-adv-x="549" 
d="M262 0h-207l340 1365h207zM222 1768h252l175 -269h-158z" />
    <glyph glyph-name="Oacute" unicode="&#xd3;" horiz-adv-x="1324" 
d="M845 1391q208 0 334 -130q129 -134 129 -385q0 -225 -90 -432q-110 -256 -300 -378q-144 -92 -325 -92q-224 0 -348 140q-122 137 -122 372q0 221 91 434q110 261 302 382q143 89 329 89zM821 1209q-193 0 -332 -217q-66 -101 -107 -234q-44 -140 -44 -269
q0 -155 67 -242q71 -92 203 -92q205 0 348 239q64 107 102 243q35 125 35 241q0 141 -60 231q-68 100 -212 100zM1068 1761h312l-440 -255h-183z" />
    <glyph glyph-name="Ocircumflex" unicode="&#xd4;" horiz-adv-x="1324" 
d="M845 1391q208 0 334 -130q129 -134 129 -385q0 -225 -90 -432q-111 -256 -300 -378q-144 -92 -325 -92q-224 0 -348 140q-122 137 -122 372q0 221 91 434q110 261 302 382q143 89 329 89zM821 1209q-193 0 -332 -217q-66 -101 -107 -234q-44 -140 -44 -269
q0 -155 67 -242q71 -92 203 -92q205 0 348 239q64 107 102 243q35 125 35 232q0 151 -60 240q-68 100 -212 100zM877 1773h191l197 -272h-173l-135 152l-228 -152h-186z" />
    <glyph glyph-name="glyph210" horiz-adv-x="1365" 
d="M1004 1416v-20q0 -162 -127 -266q-80 -65 -146 -68q-13 -1 -31 -1q0 141 82 239q91 104 222 116zM1297 935q-65 -49 -98 -92q-67 -84 -67 -192q0 -150 111 -250q34 -31 92 -56q-65 -161 -139 -256q-110 -143 -208 -143q-39 0 -82 18l-83 34q-17 7 -75 7q-73 0 -98 -10
l-87 -35q-41 -17 -79 -17q-54 0 -113.5 43.5t-112.5 123.5q-172 256 -172 526q0 176 100 306q103 135 281 135q67 0 160 -36q68 -26 101 -26q31 0 85 21q71 27 101 35q36 10 87 10q189 0 296 -146z" />
    <glyph glyph-name="Ograve" unicode="&#xd2;" horiz-adv-x="1324" 
d="M845 1391q208 0 334 -130q129 -134 129 -385q0 -225 -90 -432q-110 -256 -300 -378q-144 -92 -325 -92q-224 0 -348 140q-122 137 -122 372q0 221 91 434q110 261 302 382q143 89 329 89zM821 1209q-193 0 -332 -217q-66 -101 -107 -234q-44 -140 -44 -269
q0 -155 67 -242q71 -92 203 -92q205 0 348 239q64 107 102 243q35 125 35 241q0 141 -60 231q-68 100 -212 100zM605 1768h265l203 -269h-172z" />
    <glyph glyph-name="Uacute" unicode="&#xda;" horiz-adv-x="1278" 
d="M365 1365h205l-193 -772q-38 -154 -38 -236q0 -94 72 -148q70 -52 180 -52q188 0 277 142q37 60 81 238l207 828h205l-207 -832q-41 -165 -63 -228q-59 -166 -195 -251q-130 -80 -314 -80q-221 0 -344 112q-107 96 -107 246q0 96 44 272zM1031 1761h312l-439 -255h-183z
" />
    <glyph glyph-name="Ucircumflex" unicode="&#xdb;" horiz-adv-x="1278" 
d="M365 1365h205l-193 -772q-38 -154 -38 -236q0 -94 72 -148q70 -52 180 -52q188 0 277 142q37 60 81 238l207 828h205l-207 -832q-41 -165 -63 -228q-59 -166 -195 -251q-130 -80 -314 -80q-221 0 -344 112q-107 96 -107 246q0 96 44 272zM867 1773h192l196 -272h-173
l-134 152l-229 -152h-185z" />
    <glyph glyph-name="Ugrave" unicode="&#xd9;" horiz-adv-x="1278" 
d="M365 1365h205l-193 -772q-38 -154 -38 -236q0 -94 72 -148q70 -52 180 -52q188 0 277 142q37 60 81 238l207 828h205l-207 -832q-41 -165 -63 -228q-59 -166 -195 -251q-130 -80 -314 -80q-221 0 -344 112q-107 96 -107 246q0 96 44 272zM581 1768h266l202 -269h-171z
" />
    <glyph glyph-name="dotlessi" unicode="&#x131;" horiz-adv-x="486" 
d="M270 969h199l-242 -969h-199z" />
    <glyph glyph-name="circumflex" unicode="&#x2c6;" 
d="M660 1399h176l159 -286h-161l-100 166l-204 -166h-176z" />
    <glyph glyph-name="tilde" unicode="&#x2dc;" 
d="M462 1136l-80 23q98 213 222 213q48 0 124 -43q78 -44 111 -44q56 0 114 91l81 -23q-88 -213 -219 -213q-50 0 -134 45q-80 43 -110 43q-60 0 -109 -92z" />
    <glyph glyph-name="macron" unicode="&#xaf;" 
d="M448 1312h550l-31 -124h-550z" />
    <glyph glyph-name="breve" unicode="&#x2d8;" 
d="M490 1397h93q-1 -151 133 -151q82 0 133 54q31 34 62 97h89q-29 -114 -85 -182q-83 -100 -214 -100q-121 0 -175 85q-39 63 -39 147q0 16 3 50z" />
    <glyph glyph-name="dotaccent" unicode="&#x2d9;" 
d="M728 1369q45 0 73 -27t28 -70q0 -55 -41 -98q-39 -41 -99 -41q-45 0 -73 27q-30 28 -30 72q0 53 41 95q42 42 101 42z" />
    <glyph glyph-name="ring" unicode="&#x2da;" 
d="M724 1466q79 0 136 -57q58 -57 58 -139q0 -81 -58 -139q-57 -57 -138 -57q-82 0 -139 57q-58 58 -58 138q0 83 58 140t141 57zM720 1370q-40 0 -69 -29q-30 -29 -30 -71q0 -41 30 -71q29 -29 71 -29q41 0 71 29q29 30 29 71q0 42 -29 71q-30 29 -73 29z" />
    <glyph glyph-name="cedilla" unicode="&#xb8;" 
d="M440 0h113l-63 -101q134 -32 134 -146q0 -84 -65 -143t-166 -59q-73 0 -158 41l22 89q69 -26 114 -26q52 0 83 32q29 30 29 73q0 37 -24 58q-30 26 -82 26q-14 0 -33 -1z" />
    <glyph glyph-name="hungarumlaut" unicode="&#x2dd;" 
d="M711 1395h219l-356 -278h-118zM1024 1395h218l-355 -278h-118z" />
    <glyph glyph-name="ogonek" unicode="&#x2db;" 
d="M770 0h150q-103 -48 -163 -92q-71 -54 -71 -113q0 -33 24 -54q22 -19 59 -19q33 0 82 16l-23 -85q-58 -20 -105 -20q-79 0 -124 40q-45 41 -45 101q0 143 216 226z" />
    <glyph glyph-name="caron" unicode="&#x2c7;" 
d="M759 1113h-176l-159 286h160l101 -166l203 166h177z" />
    <glyph glyph-name="Lslash" unicode="&#x141;" horiz-adv-x="987" 
d="M418 614l-108 -432h571l-45 -182h-782l130 520l-179 -115l50 201l179 115l161 644h210l-137 -550l361 229l-50 -201z" />
    <glyph glyph-name="lslash" unicode="&#x142;" horiz-adv-x="486" 
d="M446 879l189 119l-44 -175l-188 -118l-176 -705h-199l154 618l-185 -118l43 174l185 118l145 581h200z" />
    <glyph glyph-name="Scaron" unicode="&#x160;" horiz-adv-x="1078" 
d="M1088 988h-198q0 99 -27 141q-51 80 -181 80q-87 0 -149 -39q-87 -54 -87 -150q0 -58 41 -101q28 -29 104 -71q218 -119 270 -163q119 -98 119 -255q0 -121 -58 -229q-122 -227 -431 -227q-212 0 -330 102q-114 97 -114 271q0 38 8 96h198q-4 -46 -4 -71q0 -105 60 -156
q69 -59 190 -59q111 0 179 54q83 66 83 177q0 85 -68 141q-35 29 -182 110q-141 78 -197 137q-81 83 -81 212q0 113 62 210q125 193 400 193q210 0 315 -114q81 -89 81 -228q0 -22 -3 -61zM842 1501h-192l-196 272h173l134 -152l229 152h186z" />
    <glyph glyph-name="scaron" unicode="&#x161;" horiz-adv-x="921" 
d="M872 684h-186q1 15 1 25q0 53 -34 88q-41 41 -115 41q-63 0 -106 -28q-61 -39 -61 -104q0 -35 30 -63q23 -22 90 -54q173 -82 220 -121q82 -68 82 -169q0 -87 -51 -165q-105 -159 -353 -159q-207 0 -298 111q-55 68 -55 168q0 32 6 72h190q-3 -26 -3 -45q0 -62 33 -98
q47 -51 139 -51q75 0 126 34q61 42 61 111q0 45 -35 76q-23 21 -92 54q-168 81 -215 120q-76 64 -76 164q0 84 52 158q105 146 326 146q196 0 278 -109q49 -65 49 -154q0 -16 -3 -48zM686 1113h-176l-159 286h160l101 -166l204 166h176z" />
    <glyph glyph-name="Zcaron" unicode="&#x17d;" horiz-adv-x="1028" 
d="M319 1365h852l-35 -143l-896 -1040h666l-45 -182h-916l41 165l885 1021h-597zM853 1501h-191l-197 272h173l134 -152l229 152h186z" />
    <glyph glyph-name="zcaron" unicode="&#x17e;" horiz-adv-x="847" 
d="M194 969h696l-35 -146l-637 -657h509l-40 -166h-751l37 152l629 651h-449zM659 1113h-175l-159 286h160l100 -166l204 166h177z" />
    <glyph glyph-name="brokenbar" unicode="&#xa6;" 
d="M428 1365h209v-696h-209v696zM428 314h209v-655h-209v655z" />
    <glyph glyph-name="Eth" unicode="&#xd0;" horiz-adv-x="1291" 
d="M212 628h-130l42 171h130l141 566h269q163 0 257 -19q352 -71 352 -478q0 -266 -115 -482q-133 -248 -360 -332q-104 -39 -235 -48q-95 -6 -205 -6h-303zM417 628l-112 -446h147q189 0 290 49q153 76 238 269q79 180 79 369q0 106 -41 183q-48 91 -160 116
q-67 15 -174 15h-129l-96 -384h316l-43 -171h-315z" />
    <glyph glyph-name="eth" unicode="&#xf0;" horiz-adv-x="1053" 
d="M679 1241q-9 26 -28 58q-15 24 -26 45l113 48q26 -28 68 -101l167 64l45 -103l-164 -65q142 -299 142 -547q0 -281 -159 -480q-148 -185 -380 -185q-166 0 -267 90q-117 104 -117 297q0 161 72 314q82 177 221 257q105 60 228 60q76 0 123 -26q30 -17 69 -66
q-28 134 -65 233l-146 -55l-40 103zM595 833q-133 0 -225 -149q-42 -69 -67 -157.5t-25 -165.5q0 -94 42 -155q48 -69 146 -69q135 0 226 147q94 152 94 325q0 97 -42 156q-49 68 -149 68z" />
    <glyph glyph-name="Yacute" unicode="&#xdd;" horiz-adv-x="1044" 
d="M226 1365h221l140 -613l443 613h246l-626 -811l-138 -554h-205l139 554zM915 1761h312l-440 -255h-183z" />
    <glyph glyph-name="yacute" unicode="&#xfd;" horiz-adv-x="941" 
d="M165 969h199l38 -817l442 817h205l-529 -923q-155 -270 -273 -357q-133 -99 -341 -99q-20 0 -62 2l45 180h28q92 0 146 17q75 25 137 107q20 28 48 76zM768 1395h269l-406 -278h-155z" />
    <glyph glyph-name="Thorn" unicode="&#xde;" horiz-adv-x="1091" 
d="M395 1365h210l-48 -191h90q255 0 353 -66q131 -88 131 -274q0 -172 -95 -300q-102 -139 -281 -174q-95 -19 -267 -19h-139l-85 -341h-209zM391 523h136q117 0 183 14q102 22 158 104q50 76 50 173q0 119 -93 157q-54 21 -176 21h-141z" />
    <glyph glyph-name="thorn" unicode="&#xfe;" horiz-adv-x="1060" 
d="M-72 -399l440 1764h196l-127 -507q41 57 81 85q72 52 171 52q140 0 225 -96q86 -99 86 -268q0 -154 -63 -306q-78 -186 -211 -275q-97 -66 -214 -66q-111 0 -182 57q-37 29 -76 88l-131 -528h-195zM624 825q-124 0 -213 -154q-38 -66 -61.5 -150.5t-23.5 -154.5
q0 -93 47 -152q46 -59 128 -59q115 0 201 136q43 68 68.5 155.5t25.5 168.5q0 89 -42 148q-44 62 -130 62z" />
    <glyph glyph-name="minus" unicode="&#x2212;" horiz-adv-x="1096" 
d="M139 762h927v-154h-927v154z" />
    <glyph glyph-name="multiply" unicode="&#xd7;" horiz-adv-x="1096" 
d="M710 684l293 -293l-109 -108l-291 291l-298 -298l-110 111l298 297l-292 292l109 109l291 -292l293 292l110 -110z" />
    <glyph glyph-name="uni00B9" unicode="&#xb9;" horiz-adv-x="699" 
d="M326 1120l21 83q80 0 134 33q48 31 81 100h95l-201 -804h-134l147 597z" />
    <glyph glyph-name="uni00B2" unicode="&#xb2;" horiz-adv-x="699" 
d="M386 1096h-119q19 107 75 168q77 83 208 83q96 0 157 -47q62 -49 62 -130q0 -84 -80 -176q-71 -81 -360 -339h328l-31 -123h-507l26 105l25 24l102 92q248 227 286 267q73 78 73 130q0 37 -29 60q-28 21 -69 21q-110 0 -147 -135z" />
    <glyph glyph-name="uni00B3" unicode="&#xb3;" horiz-adv-x="699" 
d="M387 1114h-120q55 233 272 233q95 0 155 -50q62 -53 62 -140q0 -89 -63 -151q-35 -34 -94 -56q96 -50 96 -155q0 -122 -93 -202q-83 -72 -212 -72q-115 0 -183 59q-64 56 -64 149q0 17 3 45h125q-2 -138 126 -138q76 0 121 55q37 44 37 100q0 80 -84 99q-29 6 -106 6
l29 113q27 -2 41 -2q75 0 123 31q59 39 59 104q0 37 -27 63q-28 26 -73 26q-93 0 -130 -117z" />
    <glyph glyph-name="onehalf" unicode="&#xbd;" horiz-adv-x="1718" 
d="M327 1120l20 83q81 0 135 33q47 31 80 100h95l-200 -804h-135l148 597zM1368 1331h172l-1089 -1331h-172zM1273 564h-119q19 108 75 169q77 83 208 83q96 0 157 -47q62 -49 62 -131q0 -84 -81 -176q-72 -82 -360 -339h329l-31 -123h-507l25 105l26 24q250 226 343 315
q73 69 97 109q21 34 21 65q0 38 -29 61q-28 21 -69 21q-110 0 -147 -136z" />
    <glyph glyph-name="onequarter" unicode="&#xbc;" horiz-adv-x="1718" 
d="M327 1120l20 83q81 0 135 33q47 31 80 100h95l-200 -804h-135l148 597zM1368 1331h172l-1089 -1331h-172zM1499 297h138l-28 -114h-135l-46 -185h-139l46 185h-339l26 103l445 524h160zM1369 297l97 374l-304 -374h207z" />
    <glyph glyph-name="threequarters" unicode="&#xbe;" horiz-adv-x="1718" 
d="M387 1114h-120q55 233 272 233q100 0 160 -55q57 -52 57 -135q0 -148 -157 -207q96 -50 96 -155q0 -122 -93 -202q-83 -72 -212 -72q-115 0 -183 59q-64 56 -64 149q0 17 3 45h125q-2 -138 126 -138q76 0 121 55q37 44 37 100q0 80 -84 99q-29 6 -106 6l29 113
q27 -2 41 -2q75 0 123 31q59 39 59 104q0 37 -27 63q-28 26 -73 26q-93 0 -130 -117zM1367 1331h173l-1090 -1331h-172zM1499 297h137l-28 -114h-135l-46 -185h-138l46 185h-339l26 103l444 524h161zM1369 297l97 374l-305 -374h208z" />
    <glyph glyph-name="glyph247" horiz-adv-x="512" 
 />
    <glyph glyph-name="glyph248" horiz-adv-x="512" 
 />
    <glyph glyph-name="glyph249" horiz-adv-x="512" 
 />
    <glyph glyph-name="glyph250" horiz-adv-x="512" 
 />
    <glyph glyph-name="glyph251" horiz-adv-x="512" 
 />
    <glyph glyph-name="glyph252" horiz-adv-x="512" 
 />
    <glyph glyph-name="glyph253" horiz-adv-x="512" 
 />
    <glyph glyph-name="glyph254" horiz-adv-x="512" 
 />
    <glyph glyph-name="glyph255" horiz-adv-x="512" 
 />
    <glyph glyph-name="glyph256" horiz-adv-x="512" 
 />
    <glyph glyph-name="glyph257" horiz-adv-x="512" 
 />
    <glyph glyph-name="uni00A0" unicode="&#xa0;" horiz-adv-x="512" 
 />
    <glyph glyph-name="uni00AD" unicode="&#xad;" horiz-adv-x="530" 
d="M31 591h530l-37 -150h-530z" />
    <glyph glyph-name="periodcentered" unicode="&#xb7;" horiz-adv-x="515" 
d="M294 643q49 0 81 -32q33 -33 33 -84q0 -62 -46 -112q-50 -55 -118 -55q-50 0 -84 30q-35 32 -35 82q0 68 50 119q51 52 119 52z" />
    <glyph glyph-name="glyph261" unicode="&#x20ac;" horiz-adv-x="1096" 
d="M475 860h576l-89 -126h-532q-20 -67 -30 -127h473l-89 -126h-397q0 -126 32 -196q34 -71 91 -102q54 -30 145 -30q145 0 265 79q73 48 153 145l-63 -263q-173 -139 -398 -139q-237 0 -347 155q-87 122 -87 314q0 11 1 37h-187l87 126h113q14 75 28 127h-157l87 126h111
q49 135 134 252q195 270 502 270q191 0 323 -106q40 -32 70 -77l-124 -176q-95 187 -279 187q-263 0 -412 -350z" />
    <glyph glyph-name="Euro" horiz-adv-x="1096" 
d="M475 860h576l-89 -126h-532q-20 -67 -30 -127h473l-89 -126h-397q0 -126 32 -196q34 -71 91 -102q54 -30 145 -30q145 0 265 79q73 48 153 145l-63 -263q-173 -139 -398 -139q-237 0 -347 155q-87 122 -87 314q0 11 1 37h-187l87 126h113q14 75 28 127h-157l87 126h111
q49 135 134 252q195 270 502 270q191 0 323 -106q40 -32 70 -77l-124 -176q-95 187 -279 187q-263 0 -412 -350z" />
    <glyph glyph-name="glyph263" horiz-adv-x="512" 
 />
    </font>
</defs>
</svg>
