<?xml version="1.0" standalone="no"?>
<!DOCTYPE svg PUBLIC "-//W3C//DTD SVG 1.1//EN" "http://www.w3.org/Graphics/SVG/1.1/DTD/svg11.dtd" >
<svg xmlns="http://www.w3.org/2000/svg" xmlns:xlink="http://www.w3.org/1999/xlink" version="1.1">
<metadata>
Created by FontForge 20161116 at Tue Apr 11 16:01:57 2000
 By Jimmy Wärting
Copyright 1998 by (URW)++ Design &#38; Development GmbH
</metadata>
<defs>
<font id="CorporateS-Ligh" horiz-adv-x="1024" vert-adv-y="2048" >
  <font-face 
    font-family="CorpoSLig"
    font-weight="400"
    font-stretch="normal"
    units-per-em="2048"
    panose-1="0 0 0 0 0 0 0 0 0 0"
    ascent="1638"
    descent="-410"
    x-height="969"
    cap-height="1365"
    bbox="-318 -513 2048 1828"
    underline-thickness="100"
    underline-position="-248"
    unicode-range="U+0020-FB04"
  />
<missing-glyph horiz-adv-x="512" vert-adv-y="2308" 
d="M51 0v1365h410v-1365h-410zM410 51v1263h-308v-1263h308z" />
    <glyph glyph-name=".notdef" horiz-adv-x="512" vert-adv-y="2308" 
d="M51 0v1365h410v-1365h-410zM410 51v1263h-308v-1263h308z" />
    <glyph glyph-name="glyph1" horiz-adv-x="0" vert-adv-y="0" 
 />
    <glyph glyph-name="glyph2" horiz-adv-x="512" vert-adv-y="2308" 
 />
    <glyph glyph-name="space" unicode=" " horiz-adv-x="512" vert-adv-y="2308" 
 />
    <glyph glyph-name="exclam" unicode="!" horiz-adv-x="508" vert-adv-y="2308" 
d="M195 1343h118l-23 -982h-82zM254 188q43 0 75 -32q30 -30 30 -74t-32 -75q-31 -30 -74 -30t-74 31t-31 74t30 74q32 32 76 32z" />
    <glyph glyph-name="quotedbl" unicode="&#x22;" horiz-adv-x="619" vert-adv-y="2308" 
d="M224 818h-90l-16 547h122zM486 818h-90l-15 547h121z" />
    <glyph glyph-name="numbersign" unicode="#" horiz-adv-x="1229" vert-adv-y="2308" 
d="M1099 537l-15 -94h-233l-70 -443h-106l70 443h-323l-70 -443h-106l70 443h-233l15 94h233l50 316h-233l15 94h233l66 418h106l-66 -418h323l66 418h106l-66 -418h233l-15 -94h-233l-50 -316h233zM810 853h-323l-50 -316h323z" />
    <glyph glyph-name="dollar" unicode="$" horiz-adv-x="1065" vert-adv-y="2308" 
d="M566 1282v-521q172 -66 235 -108q163 -108 163 -299q0 -139 -92 -242q-108 -120 -306 -133v-138h-68v137q-176 9 -276 98q-117 105 -125 294h115q8 -132 92 -212q71 -65 194 -75v575l-13 5q-137 54 -175 73t-83 57q-97 83 -97 233q0 133 81 227q102 120 287 133v127h68
v-126q130 -7 224 -71q115 -82 127 -226h-123q-9 88 -80 141q-62 44 -148 51zM498 1282q-100 -11 -159 -56q-93 -70 -93 -189q0 -122 110 -188q33 -19 142 -62v495zM566 84q112 10 182 64q94 72 94 193q0 133 -103 210q-43 31 -173 82v-549z" />
    <glyph glyph-name="percent" unicode="%" horiz-adv-x="1077" vert-adv-y="2308" 
d="M892 1365h99l-806 -1365h-98zM787 644q104 0 175 -94q72 -95 72 -234q0 -154 -86 -250q-68 -77 -163 -77q-107 0 -178 94q-72 95 -72 234q0 154 86 250q69 77 166 77zM784 553q-66 0 -108 -74q-38 -67 -38 -163q0 -104 44 -172q42 -64 103 -64q67 0 109 74q38 67 38 163
q0 104 -44 172q-42 64 -104 64zM294 1376q105 0 175 -94q72 -95 72 -233q0 -155 -85 -251q-69 -77 -164 -77q-106 0 -177 94q-72 95 -72 234q0 154 86 250q69 77 165 77zM291 1285q-65 0 -108 -74q-37 -67 -37 -162q0 -106 44 -173q41 -64 102 -64q66 0 108 74q38 67 38 163
q0 105 -44 172q-41 64 -103 64z" />
    <glyph glyph-name="ampersand" unicode="&#x26;" horiz-adv-x="1221" vert-adv-y="2308" 
d="M900 611h97q1 -110 -14 -198q-18 -96 -69 -176l175 -237h-134l-106 142q-136 -152 -348 -152q-177 0 -286 94q-115 100 -115 263q0 156 115 276q61 63 170 143q-75 98 -105 143q-59 90 -59 183q0 114 81 187q78 72 206 72q109 0 178 -54q83 -66 83 -190t-88 -229
q-51 -60 -142 -132l307 -417q49 87 54 282zM475 832l15 12q170 132 170 266q0 66 -45 107q-44 41 -112 41q-65 0 -113 -36q-59 -45 -59 -119q0 -72 57 -152q17 -24 64 -89zM450 678q-103 -76 -147 -121q-86 -89 -86 -207q0 -108 76 -183q84 -83 214 -83q166 0 279 144z" />
    <glyph glyph-name="quotesingle" unicode="'" horiz-adv-x="512" vert-adv-y="2308" 
d="M301 818h-90l-16 547h122z" />
    <glyph glyph-name="parenleft" unicode="(" horiz-adv-x="558" vert-adv-y="2308" 
d="M405 1377h85q-220 -305 -220 -895q0 -350 84 -618q50 -161 136 -273h-85q-93 103 -144 244q-104 283 -104 648q0 368 104 649q49 134 144 245z" />
    <glyph glyph-name="parenright" unicode=")" horiz-adv-x="558" vert-adv-y="2308" 
d="M153 -409h-85q86 112 136 273q84 266 84 618q0 589 -220 895h85q248 -291 248 -895q0 -365 -104 -647q-51 -140 -144 -244z" />
    <glyph glyph-name="asterisk" unicode="*" vert-adv-y="2308" 
d="M466 1077v254h92v-254l242 78l28 -88l-242 -78l150 -206l-75 -54l-149 206l-149 -206l-75 54l150 206l-242 79l28 87z" />
    <glyph glyph-name="plus" unicode="+" horiz-adv-x="1065" vert-adv-y="2308" 
d="M575 728h379v-78h-379v-394h-83v394h-380v78h380v393h83v-393z" />
    <glyph glyph-name="comma" unicode="," horiz-adv-x="480" vert-adv-y="2308" 
d="M208 -244h-129q143 132 160 241q-13 -2 -20 -2q-39 0 -70 33q-27 29 -27 70q0 49 37 82q31 27 75 27q49 0 83 -35q36 -37 36 -103q0 -144 -145 -313z" />
    <glyph glyph-name="hyphen" unicode="-" horiz-adv-x="571" vert-adv-y="2308" 
d="M0 560h571v-89h-571v89z" />
    <glyph glyph-name="period" unicode="." horiz-adv-x="526" vert-adv-y="2308" 
d="M263 188q43 0 75 -32q30 -30 30 -74t-32 -75q-31 -30 -74 -30t-74 31t-31 74t30 74q32 32 76 32z" />
    <glyph glyph-name="slash" unicode="/" horiz-adv-x="1177" vert-adv-y="2308" 
d="M134 -273l782 1638h127l-782 -1638h-127z" />
    <glyph glyph-name="zero" unicode="0" horiz-adv-x="1065" vert-adv-y="2308" 
d="M539 1348q107 0 196 -63q115 -80 173 -272q46 -153 46 -348q0 -350 -144 -547q-52 -71 -135 -107q-66 -28 -142 -28q-114 0 -203 62q-113 80 -172 273q-46 152 -46 343q0 359 144 552q101 135 283 135zM529 1250q-93 0 -161 -68q-68 -67 -105 -218q-33 -135 -33 -299
q0 -280 89 -451q70 -133 214 -133q145 0 214 133q89 172 89 448q0 288 -89 455q-71 133 -218 133z" />
    <glyph glyph-name="one" unicode="1" horiz-adv-x="1065" vert-adv-y="2308" 
d="M249 1066v82q122 6 184 48q65 45 88 147h79v-1343h-109v1066h-242z" />
    <glyph glyph-name="two" unicode="2" horiz-adv-x="1065" vert-adv-y="2308" 
d="M290 943h-110q3 177 75 272q102 133 305 133q138 0 232 -68q119 -87 119 -244q0 -115 -89 -254q-20 -30 -320 -434q-141 -190 -184 -248h616v-100h-757v87l42 56l121 165l140 190q206 279 241 331q72 108 72 206q0 103 -73 159q-67 52 -166 52q-247 0 -264 -303z" />
    <glyph glyph-name="three" unicode="3" horiz-adv-x="1065" vert-adv-y="2308" 
d="M268 995h-106q9 152 82 236q104 117 285 117q186 0 285 -115q72 -84 72 -208q0 -205 -196 -296q246 -88 246 -340q0 -140 -73 -246q-110 -161 -338 -161q-249 0 -350 166q-53 86 -53 203q0 8 1 22h103q4 -124 58 -192q77 -96 232 -96q144 0 224 81q77 78 77 216
q0 194 -163 260q-58 24 -148 24q-24 0 -54 -3v108q39 -4 62 -4q89 0 157 47q96 66 96 203q0 97 -56 158q-65 71 -187 71q-222 0 -256 -251z" />
    <glyph glyph-name="four" unicode="4" horiz-adv-x="1065" vert-adv-y="2308" 
d="M743 442h230v-104h-227v-349h-115v349h-545v86l551 919h106v-901zM634 442l4 736l-437 -736h433z" />
    <glyph glyph-name="five" unicode="5" horiz-adv-x="1065" vert-adv-y="2308" 
d="M281 1331h592l-18 -100h-477l-58 -434q92 106 240 106q167 0 270 -112q111 -119 111 -326q0 -164 -78 -293q-114 -189 -337 -189q-184 0 -286 127q-62 78 -70 193h106q16 -93 65 -146q71 -76 183 -76q141 0 218 108q82 114 82 273q0 154 -80 252q-70 85 -191 85
q-165 0 -248 -157l-106 9z" />
    <glyph glyph-name="six" unicode="6" horiz-adv-x="1065" vert-adv-y="2308" 
d="M678 1365h127q-238 -254 -395 -524q83 47 170 47q133 0 233 -100q130 -128 130 -346q0 -225 -130 -357q-100 -102 -251 -102q-147 0 -248 96q-138 131 -138 360q0 397 502 926zM557 790q-107 0 -174 -80q-89 -105 -89 -275q0 -168 89 -274q67 -80 177 -80q109 0 176 80
q89 106 89 273q0 171 -89 276q-68 80 -179 80z" />
    <glyph glyph-name="seven" unicode="7" horiz-adv-x="1065" vert-adv-y="2308" 
d="M208 1331h805v-100l-658 -1231h-128l660 1226h-679v105z" />
    <glyph glyph-name="eight" unicode="8" horiz-adv-x="1065" vert-adv-y="2308" 
d="M348 700q-165 82 -165 292q0 162 112 264q100 92 237 92q138 0 238 -92q112 -103 112 -264q0 -143 -82 -233q-30 -33 -82 -59q202 -107 202 -342q0 -171 -115 -276q-109 -99 -272 -99t-272 99q-115 105 -115 276q0 234 202 342zM530 1250q-92 0 -156 -62
q-73 -71 -73 -192q0 -122 73 -193q64 -62 159 -62q94 0 158 62q73 71 73 192q0 124 -73 193q-66 62 -161 62zM529 648q-115 0 -190 -77q-75 -78 -75 -207q0 -128 75 -206q76 -77 194 -77t193 77q76 78 76 206q0 130 -76 207t-197 77z" />
    <glyph glyph-name="nine" unicode="9" horiz-adv-x="1065" vert-adv-y="2308" 
d="M387 -34h-128q237 252 396 524q-83 -47 -171 -47q-132 0 -233 100q-129 128 -129 346q0 225 130 357q100 102 251 102q147 0 248 -96q138 -131 138 -360q0 -399 -502 -926zM502 1250q-106 0 -173 -80q-89 -105 -89 -275q0 -168 89 -274q67 -80 176 -80q110 0 177 80
q89 106 89 273q0 171 -89 276q-67 80 -180 80z" />
    <glyph glyph-name="colon" unicode=":" horiz-adv-x="526" vert-adv-y="2308" 
d="M263 188q43 0 75 -32q30 -30 30 -74t-32 -75q-31 -30 -74 -30t-74 31t-31 74t30 74q32 32 76 32zM263 968q43 0 75 -32q30 -30 30 -74t-32 -75q-31 -30 -74 -30t-74 31t-31 74q0 44 30 74q32 32 76 32z" />
    <glyph glyph-name="semicolon" unicode=";" horiz-adv-x="480" vert-adv-y="2308" 
d="M229 968q43 0 74 -32q31 -31 31 -74q0 -44 -32 -75q-31 -30 -74 -30t-74 31q-31 30 -31 74t30 74q32 32 76 32zM208 -244h-129q143 132 160 241q-13 -2 -20 -2q-39 0 -70 33q-27 29 -27 70q0 49 37 82q31 27 75 27q49 0 83 -35q36 -37 36 -103q0 -144 -145 -313z" />
    <glyph glyph-name="less" unicode="&#x3c;" vert-adv-y="2308" 
d="M955 1136v-106l-772 -343l772 -343v-106l-887 402v94z" />
    <glyph glyph-name="equal" unicode="=" horiz-adv-x="1065" vert-adv-y="2308" 
d="M112 855h842v-83h-842v83zM112 605h842v-83h-842v83z" />
    <glyph glyph-name="greater" unicode="&#x3e;" vert-adv-y="2308" 
d="M69 237v107l772 343l-772 343v106l887 -402v-95z" />
    <glyph glyph-name="question" unicode="?" horiz-adv-x="840" vert-adv-y="2308" 
d="M369 188q43 0 75 -32q30 -31 30 -74q0 -44 -32 -75q-31 -30 -74 -30t-74 31t-31 74t30 74q32 32 76 32zM427 368h-111q-1 59 -1 134q0 105 14 151q14 47 46 85q31 37 85 92q69 70 100 117q39 59 39 124q0 82 -55 129q-47 39 -130 39q-127 0 -180 -83q-27 -42 -37 -122
h-102q6 132 70 208q88 106 255 106q128 0 206 -63q96 -78 96 -219q0 -89 -49 -162q-36 -54 -128 -143q-101 -97 -113 -163q-6 -35 -6 -163q0 -26 1 -67z" />
    <glyph glyph-name="at" unicode="@" horiz-adv-x="1502" vert-adv-y="2308" 
d="M1029 1012h85l-86 -445q-13 -65 -13 -103q0 -42 23 -71q24 -28 64 -28q75 0 138 80q106 135 106 334q0 165 -79 293q-79 127 -230 189q-121 50 -254 50q-178 0 -326 -87q-150 -87 -228 -248q-67 -137 -67 -294q0 -177 82 -327q165 -301 562 -301q230 0 447 106l26 -76
q-220 -109 -472 -109q-339 0 -537 200q-92 93 -145 227q-54 137 -54 283q0 204 103 375q102 169 281 256q151 73 330 73q272 0 449 -155q98 -85 150 -210q47 -114 47 -242q0 -240 -145 -398q-84 -92 -189 -92q-80 0 -122 62q-22 32 -25 83q-96 -151 -256 -151
q-131 0 -213 100q-75 91 -75 233q0 174 108 301q101 118 252 118q175 0 234 -174zM766 952q-119 0 -194 -111q-67 -99 -67 -224q0 -103 47 -172q52 -78 155 -78q128 0 201 129q55 98 55 236q0 97 -48 156q-53 64 -149 64z" />
    <glyph glyph-name="A" unicode="A" horiz-adv-x="1134" vert-adv-y="2308" 
d="M522 1377h90l473 -1377h-122l-134 388h-524l-135 -388h-121zM795 490l-228 720l-229 -720h457z" />
    <glyph glyph-name="B" unicode="B" horiz-adv-x="1099" vert-adv-y="2308" 
d="M180 1365h210q149 0 223 -8q148 -16 232 -94q95 -87 95 -237q0 -230 -227 -300q104 -26 164 -68q134 -95 134 -281q0 -179 -113 -281q-84 -75 -253 -89q-87 -7 -255 -7h-210v1365zM296 765h134q109 0 177 12q108 18 161 89q50 65 50 158q0 110 -67 172q-51 47 -141 59
q-58 8 -185 8h-129v-498zM296 102h143q122 0 201 8q243 27 243 273q0 121 -74 195q-66 66 -197 79q-61 6 -175 6h-141v-561z" />
    <glyph glyph-name="C" unicode="C" horiz-adv-x="1233" vert-adv-y="2308" 
d="M1108 1009h-114q-67 274 -332 274q-185 0 -296 -150q-122 -167 -122 -450q0 -308 145 -481q100 -120 276 -120q201 0 293 164q48 84 61 203h114q-17 -173 -91 -283q-127 -189 -371 -189q-249 0 -396 179q-159 194 -159 524q0 372 193 565q142 143 355 143q221 0 346 -146
q77 -90 98 -233z" />
    <glyph glyph-name="D" unicode="D" horiz-adv-x="1270" vert-adv-y="2308" 
d="M180 1365h173q186 0 274 -11q267 -32 408 -245q119 -181 119 -425q0 -278 -145 -462q-147 -187 -390 -212q-93 -10 -274 -10h-165v1365zM296 102h93q153 0 220 8q137 17 242 108q175 153 175 464q0 273 -137 431q-104 118 -270 140q-78 10 -259 10h-64v-1161z" />
    <glyph glyph-name="E" unicode="E" horiz-adv-x="1004" vert-adv-y="2308" 
d="M296 758h558v-102h-558v-554h608v-102h-724v1365h715v-102h-599v-505z" />
    <glyph glyph-name="F" unicode="F" horiz-adv-x="977" vert-adv-y="2308" 
d="M296 758h558v-102h-558v-656h-116v1365h715v-102h-599v-505z" />
    <glyph glyph-name="G" unicode="G" horiz-adv-x="1260" vert-adv-y="2308" 
d="M734 669h392v-559q-184 -133 -433 -133q-254 0 -396 153q-182 197 -182 554q0 352 173 543q67 73 162 115q103 46 223 46q218 0 337 -143q77 -91 98 -235h-114q-33 126 -93 185q-89 88 -232 88q-184 0 -289 -128q-138 -169 -138 -471q0 -337 166 -499q105 -103 285 -103
q161 0 321 88v387h-280v112z" />
    <glyph glyph-name="H" unicode="H" horiz-adv-x="1267" vert-adv-y="2308" 
d="M296 763h676v602h116v-1365h-116v666h-676v-666h-116v1365h116v-602z" />
    <glyph glyph-name="I" unicode="I" horiz-adv-x="476" vert-adv-y="2308" 
d="M299 0h-122v1365h122v-1365z" />
    <glyph glyph-name="J" unicode="J" horiz-adv-x="557" vert-adv-y="2308" 
d="M258 1365h122v-1089q0 -134 -7 -184q-15 -116 -107 -178q-93 -62 -224 -62q-14 0 -44 1v103q15 -1 22 -1q142 0 199 77q32 42 37 122q2 35 2 124v1087z" />
    <glyph glyph-name="K" unicode="K" horiz-adv-x="1099" vert-adv-y="2308" 
d="M870 1365h147l-573 -650l633 -715h-169l-609 713zM180 1365h116v-1365h-116v1365z" />
    <glyph glyph-name="L" unicode="L" horiz-adv-x="946" vert-adv-y="2308" 
d="M180 1365h122v-1263h581v-102h-703v1365z" />
    <glyph glyph-name="M" unicode="M" horiz-adv-x="1560" vert-adv-y="2308" 
d="M180 1365h188l412 -1234l412 1234h188v-1365h-116v1259l-425 -1259h-117l-426 1259v-1259h-116v1365z" />
    <glyph glyph-name="N" unicode="N" horiz-adv-x="1285" vert-adv-y="2308" 
d="M180 1365h129l688 -1195v1195h108v-1365h-135l-680 1191v-1191h-110v1365z" />
    <glyph glyph-name="O" unicode="O" horiz-adv-x="1305" vert-adv-y="2308" 
d="M660 1388q147 0 271 -90q135 -99 204 -287q54 -149 54 -329q0 -311 -156 -515q-75 -98 -184 -148q-92 -42 -197 -42q-154 0 -278 90q-135 98 -204 287q-54 148 -54 326q0 318 156 518q148 190 388 190zM646 1283q-110 0 -201 -73q-108 -86 -162 -258q-40 -125 -40 -270
q0 -255 117 -434q109 -166 292 -166t292 166q117 179 117 432q0 263 -117 437q-112 166 -298 166z" />
    <glyph glyph-name="P" unicode="P" horiz-adv-x="1050" vert-adv-y="2308" 
d="M180 1365h194q266 0 373 -35q118 -39 185 -151q53 -89 53 -215q0 -154 -82 -253q-90 -107 -256 -127q-87 -10 -245 -10h-106v-574h-116v1365zM296 676h102q174 0 258 18q201 41 201 272q0 131 -72 208q-61 67 -182 80q-72 9 -232 9h-75v-587z" />
    <glyph glyph-name="Q" unicode="Q" horiz-adv-x="1319" vert-adv-y="2308" 
d="M1091 256l262 -279h-145l-180 183q-150 -183 -376 -183q-154 0 -278 90q-135 98 -204 287q-54 148 -54 329q0 311 156 515q75 98 184 148q92 42 196 42q155 0 279 -90q135 -98 204 -287q54 -148 54 -326q0 -246 -98 -429zM647 1283q-110 0 -201 -73q-109 -86 -163 -257
q-40 -126 -40 -271q0 -255 117 -434q110 -166 292 -166q183 0 293 166q117 179 117 432q0 263 -117 437q-112 166 -298 166z" />
    <glyph glyph-name="R" unicode="R" horiz-adv-x="1130" vert-adv-y="2308" 
d="M180 1365h207q145 0 213 -6q182 -16 276 -105q104 -99 104 -263q0 -271 -294 -368l375 -623h-145l-367 606h-253v-606h-116v1365zM296 708h96q131 0 186 5q275 26 275 279q0 119 -66 188q-59 62 -170 75q-71 8 -222 8h-99v-555z" />
    <glyph glyph-name="S" unicode="S" horiz-adv-x="1109" vert-adv-y="2308" 
d="M940 1028h-114q-12 112 -69 173q-77 82 -211 82q-107 0 -178 -55q-88 -67 -88 -172q0 -96 86 -158q45 -33 97 -57l152 -71q222 -103 287 -185q78 -97 78 -229q0 -189 -148 -296q-115 -83 -283 -83q-226 0 -341 142q-82 100 -92 281h116q7 -135 69 -212q41 -50 109 -78
t144 -28q132 0 218 74q86 75 86 193q0 107 -78 179q-53 50 -204 119q-219 101 -279 144q-136 98 -136 257q0 156 122 253q109 87 271 87q215 0 320 -147q59 -82 66 -213z" />
    <glyph glyph-name="T" unicode="T" horiz-adv-x="921" vert-adv-y="2308" 
d="M49 1365h824v-102h-354v-1263h-116v1263h-354v102z" />
    <glyph glyph-name="U" unicode="U" horiz-adv-x="1246" vert-adv-y="2308" 
d="M159 1365h116v-810q1 -154 6 -200q10 -110 64 -170q53 -60 149 -86q63 -17 129 -17q118 0 208 49q86 46 116 132q22 63 22 186l1 106v810h116v-812q0 -162 -5 -218q-11 -124 -82 -210q-124 -148 -377 -148q-251 0 -375 148q-72 86 -83 210q-5 56 -5 218v812z" />
    <glyph glyph-name="V" unicode="V" horiz-adv-x="1117" vert-adv-y="2308" 
d="M32 1365h123l409 -1227l402 1227h120l-469 -1376h-115z" />
    <glyph glyph-name="W" unicode="W" horiz-adv-x="1528" vert-adv-y="2308" 
d="M43 1365h112l266 -1196l293 1196h101l294 -1196l268 1196h112l-319 -1376h-120l-285 1126l-286 -1126h-120z" />
    <glyph glyph-name="X" unicode="X" horiz-adv-x="1083" vert-adv-y="2308" 
d="M68 1365h136l340 -557l340 557h136l-409 -649l429 -716h-132l-364 604l-363 -604h-133l429 716z" />
    <glyph glyph-name="Y" unicode="Y" horiz-adv-x="1014" vert-adv-y="2308" 
d="M32 1365h137l340 -669l336 669h137l-420 -780l3 -585h-116l3 585z" />
    <glyph glyph-name="Z" unicode="Z" horiz-adv-x="1003" vert-adv-y="2308" 
d="M106 1365h826v-79l-727 -1184h716v-102h-853v90l720 1173h-682v102z" />
    <glyph glyph-name="bracketleft" unicode="[" horiz-adv-x="557" vert-adv-y="2308" 
d="M200 1365h272v-91h-165v-1581h165v-91h-272v1763z" />
    <glyph glyph-name="backslash" unicode="\" horiz-adv-x="1177" vert-adv-y="2308" 
d="M1043 -273h-127l-782 1638h127z" />
    <glyph glyph-name="bracketright" unicode="]" horiz-adv-x="557" vert-adv-y="2308" 
d="M358 -398h-272v91h165v1581h-165v91h272v-1763z" />
    <glyph glyph-name="asciicircum" unicode="^" vert-adv-y="2308" 
d="M185 771h-118l375 597h140l374 -597h-119l-327 513z" />
    <glyph glyph-name="underscore" unicode="_" vert-adv-y="2308" 
d="M0 -148h1024v-100h-1024v100z" />
    <glyph glyph-name="grave" unicode="`" vert-adv-y="2308" 
d="M619 1144h-96l-270 263h170z" />
    <glyph glyph-name="a" unicode="a" horiz-adv-x="949" vert-adv-y="2308" 
d="M244 727h-111q13 115 82 182q90 87 263 87q145 0 233 -69q71 -56 81 -173q4 -45 4 -131v-355l-1 -83q0 -105 26 -185h-106q-18 58 -25 137q-89 -161 -286 -161q-126 0 -207 65q-97 77 -97 213q0 207 228 291q140 52 362 86v51q0 107 -37 152q-53 65 -176 65
q-203 0 -233 -172zM690 546q-214 -42 -318 -87q-160 -69 -160 -201q0 -85 61 -139q53 -46 139 -46q156 0 232 123q46 75 46 240v110z" />
    <glyph glyph-name="b" unicode="b" horiz-adv-x="1012" vert-adv-y="2308" 
d="M154 1371h106v-548q103 174 282 174q145 0 242 -107q129 -144 129 -400q0 -286 -156 -429q-93 -85 -226 -85q-109 0 -186 61q-44 33 -85 102q1 -20 1 -29q0 -55 -18 -110h-109q19 59 20 280v1091zM537 900q-114 0 -190 -101q-89 -118 -89 -317q0 -194 92 -317
q68 -92 182 -92q103 0 165 73q105 122 105 340q0 212 -89 329q-66 85 -176 85z" />
    <glyph glyph-name="c" unicode="c" horiz-adv-x="955" vert-adv-y="2308" 
d="M845 656h-106q-14 96 -58 155q-64 88 -180 88q-122 0 -195 -94q-95 -122 -95 -321q0 -214 108 -333q71 -78 187 -78q129 0 193 105q38 61 46 150h110q-14 -147 -84 -235q-91 -117 -260 -117q-161 0 -270 105q-141 137 -141 401q0 277 156 421q101 93 248 93
q190 0 283 -147q47 -76 58 -193z" />
    <glyph glyph-name="d" unicode="d" horiz-adv-x="1012" vert-adv-y="2308" 
d="M858 1371v-1091q0 -222 20 -280h-109q-18 56 -18 109q0 10 1 30q-41 -68 -85 -103q-77 -60 -186 -60q-159 0 -257 110q-125 141 -125 390q0 247 116 397q94 123 256 123q193 0 281 -173v548h106zM479 899q-113 0 -178 -87q-91 -123 -91 -328q0 -203 91 -325
q65 -86 181 -86t181 86q91 122 91 323q0 209 -91 330q-66 87 -184 87z" />
    <glyph glyph-name="e" unicode="e" horiz-adv-x="975" vert-adv-y="2308" 
d="M874 472h-662q4 -173 62 -270q77 -129 233 -129q110 0 178 68q28 29 61 91l103 -19q-90 -237 -341 -237q-185 0 -295 128q-113 131 -113 369q0 277 142 421q102 103 256 103q117 0 206 -65q103 -76 142 -217q29 -101 29 -198q0 -14 -1 -45zM760 561q-7 116 -48 197
q-72 142 -219 142q-144 0 -221 -141q-44 -79 -56 -198h544z" />
    <glyph glyph-name="f" unicode="f" horiz-adv-x="552" vert-adv-y="2308" 
d="M284 969h245v-89h-238v-880h-117v880h-140v89h140v63q0 115 8 162q16 93 81 144q65 50 155 50q59 0 131 -25v-108q-56 36 -124 36q-94 0 -125 -83q-16 -41 -16 -159v-80z" />
    <glyph glyph-name="g" unicode="g" horiz-adv-x="958" vert-adv-y="2308" 
d="M911 969v-85l-199 5q96 -83 96 -237q0 -143 -87 -217q-38 -33 -101 -55q-28 -10 -131 -37q-93 -25 -141 -48q-60 -29 -60 -71q0 -25 27 -40q23 -13 161 -26q149 -14 200 -26q238 -54 238 -259q0 -146 -129 -224q-114 -69 -298 -69q-198 0 -318 86q-102 72 -102 194
q0 114 85 180q46 35 123 62q-103 39 -103 112q0 66 75 110q39 23 99 46q-203 73 -203 281q0 170 122 262q87 65 218 65q70 0 141 -19zM480 889q-88 0 -152 -57q-73 -66 -73 -176q0 -102 63 -161t159 -59t156 55q64 59 64 163q0 94 -53 159q-61 76 -164 76zM481 47
q-132 0 -213 -40q-98 -50 -98 -143q0 -82 83 -133q87 -53 236 -53q183 0 265 72q54 48 54 115q0 182 -327 182z" />
    <glyph glyph-name="h" unicode="h" horiz-adv-x="992" vert-adv-y="2308" 
d="M154 1371h106v-517q106 142 279 142q179 0 259 -124q33 -51 42 -139q4 -45 4 -177v-556h-106v563q0 102 -4 142q-20 194 -205 194q-145 0 -219 -119q-50 -81 -50 -235v-545h-106v1371z" />
    <glyph glyph-name="i" unicode="i" horiz-adv-x="424" vert-adv-y="2308" 
d="M154 969h117v-969h-117v969zM213 1381q33 0 58 -20q32 -27 32 -72q0 -33 -20 -57q-26 -32 -70 -32q-38 0 -64 25q-27 25 -27 64q0 41 28 67q26 25 63 25z" />
    <glyph glyph-name="j" unicode="j" horiz-adv-x="501" vert-adv-y="2308" 
d="M230 969h117v-903q0 -153 -9 -212q-22 -133 -112 -190q-79 -51 -214 -51q-22 0 -60 1v97q23 -2 36 -2q155 0 206 82q27 44 33 128q3 54 3 147v903zM288 1381q33 0 58 -20q32 -27 32 -72q0 -33 -20 -57q-26 -32 -70 -32q-38 0 -64 25q-27 25 -27 64q0 41 28 67
q26 25 63 25z" />
    <glyph glyph-name="k" unicode="k" horiz-adv-x="949" vert-adv-y="2308" 
d="M690 969h131l-418 -432l448 -537h-151l-436 532zM154 1371h106v-1371h-106v1371z" />
    <glyph glyph-name="l" unicode="l" horiz-adv-x="424" vert-adv-y="2308" 
d="M154 1371h117v-1371h-117v1371z" />
    <glyph glyph-name="m" unicode="m" horiz-adv-x="1518" vert-adv-y="2308" 
d="M131 969h104q18 -52 19 -135q81 163 277 163q140 0 212 -82q30 -34 52 -91q85 172 294 172q174 0 243 -117q30 -52 36 -147q2 -33 2 -128v-604h-106v605q0 100 -4 130q-22 164 -196 164q-142 0 -208 -114q-39 -68 -39 -203v-582h-109v582q0 170 -20 218q-43 100 -176 100
q-135 0 -204 -104q-48 -74 -48 -222v-574h-106v646v50q-1 147 -8 204q-5 32 -15 69z" />
    <glyph glyph-name="n" unicode="n" horiz-adv-x="1005" vert-adv-y="2308" 
d="M131 969h103q20 -55 20 -146q96 173 298 173q141 0 222 -75q67 -62 78 -178q5 -47 5 -187v-556h-106v563q0 107 -4 142q-11 103 -60 147q-53 48 -143 48q-148 0 -229 -119q-55 -82 -55 -225v-556h-106v645q0 193 -6 241q-5 37 -17 83z" />
    <glyph glyph-name="o" unicode="o" horiz-adv-x="1010" vert-adv-y="2308" 
d="M510 997q162 0 272 -123q128 -144 128 -389q0 -243 -128 -387q-109 -122 -277 -122t-277 122q-128 144 -128 385q0 247 128 391q110 123 282 123zM502 900q-122 0 -198 -100q-92 -120 -92 -315q0 -194 92 -314q76 -98 201 -98q127 0 202 98q92 121 92 312q0 198 -92 317
q-77 100 -205 100z" />
    <glyph glyph-name="p" unicode="p" horiz-adv-x="1012" vert-adv-y="2308" 
d="M154 -404v1091q-1 223 -20 282h110q15 -48 18 -151q41 76 86 113q79 66 193 66q144 0 237 -104q135 -150 135 -413q0 -257 -126 -402q-89 -102 -238 -102q-186 0 -286 165v-545h-109zM535 901q-112 0 -183 -95q-94 -126 -94 -320q0 -195 88 -313q76 -100 196 -100
q113 0 173 82q87 118 87 320q0 220 -94 343q-63 83 -173 83z" />
    <glyph glyph-name="q" unicode="q" horiz-adv-x="1012" vert-adv-y="2308" 
d="M749 -404v545q-100 -165 -277 -165q-147 0 -244 105q-129 139 -129 393q0 264 139 417q96 106 241 106q112 0 188 -63q43 -36 83 -114q1 96 18 149h110q-20 -58 -20 -282v-1091h-109zM477 900q-106 0 -172 -90q-94 -129 -94 -337q0 -202 88 -317q64 -83 175 -83
q115 0 191 100q89 116 89 309q0 201 -91 325q-68 93 -186 93z" />
    <glyph glyph-name="r" unicode="r" horiz-adv-x="635" vert-adv-y="2308" 
d="M139 969h101q17 -77 17 -148q0 -20 -3 -62q96 237 242 237q66 0 132 -34v-106q-81 36 -126 36q-80 0 -146 -85q-55 -72 -76 -164q-17 -78 -17 -214v-429h-109v623q0 238 -15 346z" />
    <glyph glyph-name="s" unicode="s" horiz-adv-x="865" vert-adv-y="2308" 
d="M757 711h-104q-10 92 -54 135q-55 54 -159 54q-95 0 -153 -50q-49 -43 -49 -112q0 -64 45 -99q43 -34 177 -74q150 -45 201 -75q116 -68 116 -217q0 -127 -82 -207q-92 -90 -255 -90q-213 0 -299 132q-46 72 -46 183h105q20 -218 240 -218q96 0 157 47q67 51 67 142
q0 84 -60 126q-27 19 -75 36q-15 5 -146 46q-147 46 -200 106q-56 64 -56 158q0 130 102 200q89 62 213 62q101 0 179 -41q128 -67 136 -244z" />
    <glyph glyph-name="t" unicode="t" horiz-adv-x="612" vert-adv-y="2308" 
d="M310 969h242v-89h-243l-10 -530q-2 -104 -2 -115q0 -100 23 -127q28 -34 85 -34q72 0 143 33v-100q-79 -26 -158 -26q-109 0 -163 52q-42 40 -42 138q0 39 3 107q3 53 3 77l12 525h-145v89h146l5 280h106z" />
    <glyph glyph-name="u" unicode="u" horiz-adv-x="979" vert-adv-y="2308" 
d="M149 969h106v-605q0 -153 33 -206q54 -85 177 -85q135 0 209 115q46 72 46 223v558h106v-675q0 -129 1 -167q3 -72 21 -127h-107q-21 62 -21 138q-35 -71 -79 -108q-67 -54 -176 -54q-116 0 -197 58q-93 66 -112 184q-7 46 -7 151v600z" />
    <glyph glyph-name="v" unicode="v" horiz-adv-x="835" vert-adv-y="2308" 
d="M21 969h112l286 -852l286 852h110l-343 -983h-108z" />
    <glyph glyph-name="w" unicode="w" horiz-adv-x="1293" vert-adv-y="2308" 
d="M32 969h113l217 -796l236 796h97l236 -796l217 796h113l-279 -983h-97l-238 822l-239 -822h-97z" />
    <glyph glyph-name="x" unicode="x" horiz-adv-x="863" vert-adv-y="2308" 
d="M67 969h123l243 -371l246 371h132l-312 -454l348 -515h-128l-286 428l-289 -428h-128l352 515z" />
    <glyph glyph-name="y" unicode="y" horiz-adv-x="855" vert-adv-y="2308" 
d="M33 969h115l279 -831l289 831h112l-316 -887q-73 -209 -108 -282q-100 -208 -320 -208q-12 0 -30 1v95q127 -2 188 57q37 38 61 90q27 60 65 166z" />
    <glyph glyph-name="z" unicode="z" horiz-adv-x="796" vert-adv-y="2308" 
d="M84 969h675v-77l-589 -803h572v-89h-698v85l581 795h-541v89z" />
    <glyph glyph-name="braceleft" unicode="{" horiz-adv-x="557" vert-adv-y="2308" 
d="M200 483q56 -34 79 -73q32 -55 33 -167v-347q0 -132 32 -170q40 -53 157 -52v-84h-23q-146 0 -208 73q-42 49 -55 138q-5 38 -5 118v324q0 107 -34 152q-32 38 -82 51v74q50 13 82 52q34 44 34 151v324q-1 145 34 218q49 92 172 107q28 4 85 4v-83q-118 -1 -157 -53
q-32 -38 -32 -169v-348q-1 -112 -33 -167q-23 -39 -79 -73z" />
    <glyph glyph-name="bar" unicode="|" vert-adv-y="2308" 
d="M459 1365h106v-1706h-106v1706z" />
    <glyph glyph-name="braceright" unicode="}" horiz-adv-x="557" vert-adv-y="2308" 
d="M357 483q-56 35 -79 73q-32 56 -33 167v348q0 132 -32 169q-39 52 -157 53v83q137 0 204 -47q59 -48 78 -139q9 -49 9 -143v-324q0 -109 34 -151q31 -38 82 -52v-74q-51 -14 -82 -51q-34 -43 -34 -152v-324q0 -124 -22 -189q-46 -140 -246 -140h-23v84q117 -1 157 53
q32 37 32 169v348q1 111 33 166q23 39 79 73z" />
    <glyph glyph-name="asciitilde" unicode="~" horiz-adv-x="1365" vert-adv-y="2308" 
d="M260 1209l-67 43q37 73 76 120q79 98 193 98q80 0 236 -78q104 -53 142 -63q36 -10 65 -10q74 0 127 54q34 35 73 100l68 -40q-111 -215 -274 -215q-53 0 -134 31q-22 8 -155 73q-97 47 -157 47q-68 0 -121 -57q-35 -37 -72 -103z" />
    <glyph glyph-name="Adieresis" unicode="&#xc4;" horiz-adv-x="1134" vert-adv-y="2308" 
d="M522 1377h90l473 -1377h-122l-134 388h-524l-135 -388h-121zM795 490l-228 720l-229 -720h457zM388 1732q42 0 73 -31q31 -30 31 -74q0 -43 -31 -74t-74 -31t-74 31t-31 74q0 44 31 74q32 31 75 31zM748 1732q42 0 73 -31t31 -74t-31 -74t-74 -31t-74 31t-31 74
q0 44 31 74q32 31 75 31z" />
    <glyph glyph-name="Aring" unicode="&#xc5;" horiz-adv-x="1134" vert-adv-y="2308" 
d="M522 1377h90l473 -1377h-122l-134 388h-524l-135 -388h-121zM795 490l-228 720l-229 -720h457zM569 1828q74 0 128 -54t54 -130t-54 -130t-130 -54t-130 54t-54 130q0 77 54 130q55 54 132 54zM566 1746q-41 0 -71 -30t-30 -72t30 -72t72 -30t72 30t30 72q0 43 -30 72
q-31 30 -73 30z" />
    <glyph glyph-name="Ccedilla" unicode="&#xc7;" horiz-adv-x="1233" vert-adv-y="2308" 
d="M675 -23l-50 -121q186 -18 186 -159q0 -78 -60 -126q-54 -43 -146 -43q-70 0 -147 26v77q64 -18 104 -18q45 0 74 18q45 27 45 78q0 57 -59 79q-33 11 -108 13l75 180q-159 33 -245 105q-111 93 -170 246q-58 151 -58 351q0 391 217 585q133 120 328 120q224 0 349 -146
q77 -90 99 -233h-115q-66 274 -332 274q-173 0 -276 -121q-143 -170 -143 -481q0 -305 146 -480q100 -120 272 -120q206 0 297 165q49 89 62 203h113q-20 -222 -138 -343q-133 -133 -320 -129z" />
    <glyph glyph-name="Eacute" unicode="&#xc9;" horiz-adv-x="1004" vert-adv-y="2308" 
d="M296 758h558v-102h-558v-554h608v-102h-724v1365h715v-102h-599v-505zM411 1496l264 262h170l-315 -262h-119z" />
    <glyph glyph-name="Ntilde" unicode="&#xd1;" horiz-adv-x="1285" vert-adv-y="2308" 
d="M180 1365h129l688 -1195v1195h108v-1365h-135l-680 1191v-1191h-110v1365zM409 1514l-79 34q15 64 35 104q47 89 146 89q68 0 156 -59q46 -30 71 -46q35 -20 70 -20q50 0 78 53q14 28 20 78l78 -35q-8 -66 -29 -104q-21 -41 -60 -66q-43 -28 -91 -28q-46 0 -88 22
q-39 20 -89 53q-72 49 -115 49q-75 0 -103 -124z" />
    <glyph glyph-name="Odieresis" unicode="&#xd6;" horiz-adv-x="1305" vert-adv-y="2308" 
d="M660 1388q147 0 271 -90q135 -99 204 -287q54 -149 54 -329q0 -311 -156 -515q-75 -98 -184 -148q-92 -42 -197 -42q-154 0 -278 90q-135 98 -204 287q-54 148 -54 326q0 318 156 518q148 190 388 190zM646 1283q-110 0 -201 -73q-108 -86 -162 -258q-40 -125 -40 -270
q0 -255 117 -434q109 -166 292 -166t292 166q117 179 117 432q0 263 -117 437q-112 166 -298 166zM474 1732q42 0 73 -31q31 -30 31 -74q0 -43 -31 -74t-74 -31t-74 31t-31 74q0 44 31 74q32 31 75 31zM834 1732q42 0 73 -31t31 -74t-31 -74t-74 -31t-74 31t-31 74
q0 44 31 74q32 31 75 31z" />
    <glyph glyph-name="Udieresis" unicode="&#xdc;" horiz-adv-x="1246" vert-adv-y="2308" 
d="M159 1365h116v-810q1 -154 6 -200q10 -110 64 -170q53 -60 149 -86q63 -17 129 -17q118 0 208 49q86 46 116 132q22 63 22 186l1 106v810h116v-812q0 -162 -5 -218q-11 -124 -82 -210q-124 -148 -377 -148q-251 0 -375 148q-72 86 -83 210q-5 56 -5 218v812zM444 1732
q42 0 73 -31q31 -30 31 -74q0 -43 -31 -74t-74 -31t-74 31t-31 74q0 44 31 74q32 31 75 31zM804 1732q42 0 73 -31t31 -74t-31 -74t-74 -31t-74 31t-31 74q0 44 31 74q32 31 75 31z" />
    <glyph glyph-name="aacute" unicode="&#xe1;" horiz-adv-x="949" vert-adv-y="2308" 
d="M244 727h-111q13 115 82 182q90 87 263 87q145 0 233 -69q71 -56 81 -173q4 -45 4 -131v-355l-1 -83q0 -105 26 -185h-106q-18 58 -25 137q-89 -161 -286 -161q-126 0 -207 65q-97 77 -97 213q0 207 228 291q140 52 362 86v51q0 107 -37 152q-53 65 -176 65
q-203 0 -233 -172zM690 546q-214 -42 -318 -87q-160 -69 -160 -201q0 -85 61 -139q53 -46 139 -46q156 0 232 123q46 75 46 240v110zM370 1144l196 263h170l-270 -263h-96z" />
    <glyph glyph-name="agrave" unicode="&#xe0;" horiz-adv-x="949" vert-adv-y="2308" 
d="M244 727h-111q13 115 82 182q90 87 263 87q145 0 233 -69q71 -56 81 -173q4 -45 4 -131v-355l-1 -83q0 -105 26 -185h-106q-18 58 -25 137q-89 -161 -286 -161q-126 0 -207 65q-97 77 -97 213q0 207 228 291q140 52 362 86v51q0 107 -37 152q-53 65 -176 65
q-203 0 -233 -172zM690 546q-214 -42 -318 -87q-160 -69 -160 -201q0 -85 61 -139q53 -46 139 -46q156 0 232 123q46 75 46 240v110zM595 1144h-96l-270 263h170z" />
    <glyph glyph-name="acircumflex" unicode="&#xe2;" horiz-adv-x="949" vert-adv-y="2308" 
d="M244 727h-111q13 115 82 182q90 87 263 87q145 0 233 -69q71 -56 81 -173q4 -45 4 -131v-355l-1 -83q0 -105 26 -185h-106q-18 58 -25 137q-89 -161 -286 -161q-126 0 -207 65q-97 77 -97 213q0 207 228 291q140 52 362 86v51q0 107 -37 152q-53 65 -176 65
q-203 0 -233 -172zM690 546q-214 -42 -318 -87q-160 -69 -160 -201q0 -85 61 -139q53 -46 139 -46q156 0 232 123q46 75 46 240v110zM181 1145l226 279h152l227 -279h-110l-193 199l-193 -199h-109z" />
    <glyph glyph-name="adieresis" unicode="&#xe4;" horiz-adv-x="949" vert-adv-y="2308" 
d="M244 727h-111q13 115 82 182q90 87 263 87q145 0 233 -69q71 -56 81 -173q4 -45 4 -131v-355l-1 -83q0 -105 26 -185h-106q-18 58 -25 137q-89 -161 -286 -161q-126 0 -207 65q-97 77 -97 213q0 207 228 291q140 52 362 86v51q0 107 -37 152q-53 65 -176 65
q-203 0 -233 -172zM690 546q-214 -42 -318 -87q-160 -69 -160 -201q0 -85 61 -139q53 -46 139 -46q156 0 232 123q46 75 46 240v110zM308 1378q39 0 67 -29q29 -28 29 -68t-29 -69t-68 -29q-41 0 -69 29q-29 29 -29 68q0 42 29 69q29 29 70 29zM656 1378q39 0 67 -29
q29 -28 29 -69q0 -40 -29 -68q-28 -29 -68 -29q-41 0 -69 29q-29 29 -29 68q0 41 29 69q29 29 70 29z" />
    <glyph glyph-name="atilde" unicode="&#xe3;" horiz-adv-x="949" vert-adv-y="2308" 
d="M244 727h-111q13 115 82 182q90 87 263 87q145 0 233 -69q71 -56 81 -173q4 -45 4 -131v-355l-1 -83q0 -105 26 -185h-106q-18 58 -25 137q-89 -161 -286 -161q-126 0 -207 65q-97 77 -97 213q0 207 228 291q140 52 362 86v51q0 107 -37 152q-53 65 -176 65
q-203 0 -233 -172zM690 546q-214 -42 -318 -87q-160 -69 -160 -201q0 -85 61 -139q53 -46 139 -46q156 0 232 123q46 75 46 240v110zM254 1163l-76 16q36 211 170 211q61 0 139 -60q44 -33 75 -51q25 -15 52 -15q71 0 88 131l80 -18q-10 -88 -45 -144q-46 -73 -120 -73
q-66 0 -153 66q-81 61 -119 61q-66 0 -91 -124z" />
    <glyph glyph-name="aring" unicode="&#xe5;" horiz-adv-x="949" vert-adv-y="2308" 
d="M244 727h-111q13 115 82 182q90 87 263 87q145 0 233 -69q71 -56 81 -173q4 -45 4 -131v-355l-1 -83q0 -105 26 -185h-106q-18 58 -25 137q-89 -161 -286 -161q-126 0 -207 65q-97 77 -97 213q0 207 228 291q140 52 362 86v51q0 107 -37 152q-53 65 -176 65
q-203 0 -233 -172zM690 546q-214 -42 -318 -87q-160 -69 -160 -201q0 -85 61 -139q53 -46 139 -46q156 0 232 123q46 75 46 240v110zM483 1480q74 0 128 -54t54 -130t-54 -130t-130 -54t-130 54q-54 55 -54 130q0 77 54 130q55 54 132 54zM480 1398q-41 0 -71 -30t-30 -72
t30 -72t72 -30t72 30t30 72q0 43 -30 72q-30 30 -73 30z" />
    <glyph glyph-name="ccedilla" unicode="&#xe7;" horiz-adv-x="955" vert-adv-y="2308" 
d="M528 -25l-43 -96q172 -22 172 -143q0 -74 -59 -119q-50 -39 -133 -39q-73 0 -143 28v71q67 -19 104 -19q42 0 69 17q41 24 41 74q0 54 -58 76q-32 12 -100 16l69 139q-99 20 -171 71q-76 54 -119 145q-57 120 -57 283q0 281 156 424q101 93 249 93q189 0 282 -147
q47 -76 58 -193h-105q-15 96 -59 155q-64 88 -180 88q-122 0 -195 -94q-95 -122 -95 -323q0 -216 109 -332q73 -78 186 -78q129 0 194 105q37 60 46 151h110q-14 -174 -120 -275q-40 -37 -80 -52t-128 -26z" />
    <glyph glyph-name="eacute" unicode="&#xe9;" horiz-adv-x="975" vert-adv-y="2308" 
d="M874 472h-662q4 -173 62 -270q77 -129 233 -129q110 0 178 68q28 29 61 91l103 -19q-90 -237 -341 -237q-185 0 -295 128q-113 131 -113 369q0 277 142 421q102 103 256 103q117 0 206 -65q103 -76 142 -217q29 -101 29 -198q0 -14 -1 -45zM760 561q-7 116 -48 197
q-72 142 -219 142q-144 0 -221 -141q-44 -79 -56 -198h544zM392 1144l196 263h170l-270 -263h-96z" />
    <glyph glyph-name="egrave" unicode="&#xe8;" horiz-adv-x="975" vert-adv-y="2308" 
d="M874 472h-662q4 -173 62 -270q77 -129 233 -129q110 0 178 68q28 29 61 91l103 -19q-90 -237 -341 -237q-185 0 -295 128q-113 131 -113 369q0 277 142 421q102 103 256 103q117 0 206 -65q103 -76 142 -217q29 -101 29 -198q0 -14 -1 -45zM760 561q-7 116 -48 197
q-72 142 -219 142q-144 0 -221 -141q-44 -79 -56 -198h544zM615 1144h-96l-270 263h170z" />
    <glyph glyph-name="ecircumflex" unicode="&#xea;" horiz-adv-x="975" vert-adv-y="2308" 
d="M874 472h-662q4 -173 62 -270q77 -129 233 -129q110 0 178 68q28 29 61 91l103 -19q-90 -237 -341 -237q-185 0 -295 128q-113 131 -113 369q0 277 142 421q102 103 256 103q117 0 206 -65q103 -76 142 -217q29 -101 29 -198q0 -14 -1 -45zM760 561q-7 116 -48 197
q-72 142 -219 142q-144 0 -221 -141q-44 -79 -56 -198h544zM205 1145l226 279h152l227 -279h-110l-193 199l-193 -199h-109z" />
    <glyph glyph-name="edieresis" unicode="&#xeb;" horiz-adv-x="975" vert-adv-y="2308" 
d="M874 472h-662q4 -173 62 -270q77 -129 233 -129q110 0 178 68q28 29 61 91l103 -19q-90 -237 -341 -237q-185 0 -295 128q-113 131 -113 369q0 277 142 421q102 103 256 103q117 0 206 -65q103 -76 142 -217q29 -101 29 -198q0 -14 -1 -45zM760 561q-7 116 -48 197
q-72 142 -219 142q-144 0 -221 -141q-44 -79 -56 -198h544zM335 1378q39 0 67 -29q29 -28 29 -68t-29 -69t-68 -29q-41 0 -69 29q-29 29 -29 68q0 42 29 69q29 29 70 29zM683 1378q39 0 67 -29q29 -28 29 -69q0 -40 -29 -68q-28 -29 -68 -29q-41 0 -69 29q-29 29 -29 68
q0 41 29 69q29 29 70 29z" />
    <glyph glyph-name="iacute" unicode="&#xed;" horiz-adv-x="424" vert-adv-y="2308" 
d="M154 969h117v-969h-117v969zM158 1144l196 263h170l-270 -263h-96z" />
    <glyph glyph-name="igrave" unicode="&#xec;" horiz-adv-x="424" vert-adv-y="2308" 
d="M154 969h117v-969h-117v969zM299 1144h-96l-270 263h170z" />
    <glyph glyph-name="icircumflex" unicode="&#xee;" horiz-adv-x="424" vert-adv-y="2308" 
d="M154 969h117v-969h-117v969zM-90 1145l226 279h152l227 -279h-110l-193 199l-193 -199h-109z" />
    <glyph glyph-name="idieresis" unicode="&#xef;" horiz-adv-x="424" vert-adv-y="2308" 
d="M153 969h117v-969h-117v969zM83 1377q38 0 67 -28q28 -29 28 -68q0 -40 -28 -69q-29 -28 -68 -28q-40 0 -69 28q-28 29 -28 68q0 41 28 69q29 28 70 28zM344 1377q38 0 67 -28q28 -29 28 -68q0 -40 -28 -69q-29 -28 -68 -28q-40 0 -69 28q-28 29 -28 68q0 41 28 69
q29 28 70 28z" />
    <glyph glyph-name="ntilde" unicode="&#xf1;" horiz-adv-x="1005" vert-adv-y="2308" 
d="M131 969h103q20 -55 20 -146q96 173 298 173q141 0 222 -75q67 -62 78 -178q5 -47 5 -187v-556h-106v563q0 107 -4 142q-11 103 -60 147q-53 48 -143 48q-148 0 -229 -119q-55 -82 -55 -225v-556h-106v645q0 193 -6 241q-5 37 -17 83zM256 1163l-76 16q36 211 170 211
q61 0 139 -60q44 -33 75 -51q25 -15 52 -15q71 0 88 131l80 -18q-10 -88 -45 -144q-46 -73 -120 -73q-66 0 -153 66q-81 61 -119 61q-66 0 -91 -124z" />
    <glyph glyph-name="oacute" unicode="&#xf3;" horiz-adv-x="1010" vert-adv-y="2308" 
d="M510 997q162 0 272 -123q128 -144 128 -389q0 -243 -128 -387q-109 -122 -277 -122t-277 122q-128 144 -128 385q0 247 128 391q110 123 282 123zM502 900q-122 0 -198 -100q-92 -120 -92 -315q0 -194 92 -314q76 -98 201 -98q127 0 202 98q92 121 92 312q0 198 -92 317
q-77 100 -205 100zM403 1144l196 263h170l-270 -263h-96z" />
    <glyph glyph-name="ograve" unicode="&#xf2;" horiz-adv-x="1010" vert-adv-y="2308" 
d="M510 997q162 0 272 -123q128 -144 128 -389q0 -243 -128 -387q-109 -122 -277 -122t-277 122q-128 144 -128 385q0 247 128 391q110 123 282 123zM502 900q-122 0 -198 -100q-92 -120 -92 -315q0 -194 92 -314q76 -98 201 -98q127 0 202 98q92 121 92 312q0 198 -92 317
q-77 100 -205 100zM612 1144h-96l-270 263h170z" />
    <glyph glyph-name="ocircumflex" unicode="&#xf4;" horiz-adv-x="1010" vert-adv-y="2308" 
d="M510 997q162 0 272 -123q128 -144 128 -389q0 -243 -128 -387q-109 -122 -277 -122t-277 122q-128 144 -128 385q0 247 128 391q110 123 282 123zM502 900q-122 0 -198 -100q-92 -120 -92 -315q0 -194 92 -314q76 -98 201 -98q127 0 202 98q92 121 92 312q0 198 -92 317
q-77 100 -205 100zM203 1145l226 279h152l227 -279h-110l-193 199l-193 -199h-109z" />
    <glyph glyph-name="odieresis" unicode="&#xf6;" horiz-adv-x="1010" vert-adv-y="2308" 
d="M510 997q162 0 272 -123q128 -144 128 -389q0 -243 -128 -387q-109 -122 -277 -122t-277 122q-128 144 -128 385q0 247 128 391q110 123 282 123zM502 900q-122 0 -198 -100q-92 -120 -92 -315q0 -194 92 -314q76 -98 201 -98q127 0 202 98q92 121 92 312q0 198 -92 317
q-77 100 -205 100zM332 1378q39 0 67 -29q29 -28 29 -68t-29 -69t-68 -29q-41 0 -69 29q-29 29 -29 68q0 42 29 69q29 29 70 29zM680 1378q39 0 67 -29q29 -28 29 -69q0 -40 -29 -68q-28 -29 -68 -29q-41 0 -69 29q-29 29 -29 68q0 41 29 69q29 29 70 29z" />
    <glyph glyph-name="otilde" unicode="&#xf5;" horiz-adv-x="1010" vert-adv-y="2308" 
d="M510 997q162 0 272 -123q128 -144 128 -389q0 -243 -128 -387q-109 -122 -277 -122t-277 122q-128 144 -128 385q0 247 128 391q110 123 282 123zM502 900q-122 0 -198 -100q-92 -120 -92 -315q0 -194 92 -314q76 -98 201 -98q127 0 202 98q92 121 92 312q0 198 -92 317
q-77 100 -205 100zM295 1163l-76 16q36 211 170 211q61 0 139 -60q44 -33 75 -51q25 -15 52 -15q71 0 88 131l80 -18q-10 -88 -45 -144q-46 -73 -120 -73q-66 0 -153 66q-81 61 -119 61q-66 0 -91 -124z" />
    <glyph glyph-name="uacute" unicode="&#xfa;" horiz-adv-x="979" vert-adv-y="2308" 
d="M149 969h106v-605q0 -153 33 -206q54 -85 177 -85q135 0 209 115q46 72 46 223v558h106v-675q0 -129 1 -167q3 -72 21 -127h-107q-21 62 -21 138q-35 -71 -79 -108q-67 -54 -176 -54q-116 0 -197 58q-93 66 -112 184q-7 46 -7 151v600zM376 1144l196 263h170l-270 -263
h-96z" />
    <glyph glyph-name="ugrave" unicode="&#xf9;" horiz-adv-x="979" vert-adv-y="2308" 
d="M149 969h106v-605q0 -153 33 -206q54 -85 177 -85q135 0 209 115q46 72 46 223v558h106v-675q0 -129 1 -167q3 -72 21 -127h-107q-21 62 -21 138q-35 -71 -79 -108q-67 -54 -176 -54q-116 0 -197 58q-93 66 -112 184q-7 46 -7 151v600zM599 1144h-96l-270 263h170z" />
    <glyph glyph-name="ucircumflex" unicode="&#xfb;" horiz-adv-x="979" vert-adv-y="2308" 
d="M149 969h106v-605q0 -153 33 -206q54 -85 177 -85q135 0 209 115q46 72 46 223v558h106v-675q0 -129 1 -167q3 -72 21 -127h-107q-21 62 -21 138q-35 -71 -79 -108q-67 -54 -176 -54q-116 0 -197 58q-93 66 -112 184q-7 46 -7 151v600zM188 1145l226 279h152l227 -279
h-110l-193 199l-193 -199h-109z" />
    <glyph glyph-name="udieresis" unicode="&#xfc;" horiz-adv-x="979" vert-adv-y="2308" 
d="M149 969h106v-605q0 -153 33 -206q54 -85 177 -85q135 0 209 115q46 72 46 223v558h106v-675q0 -129 1 -167q3 -72 21 -127h-107q-21 62 -21 138q-35 -71 -79 -108q-67 -54 -176 -54q-116 0 -197 58q-93 66 -112 184q-7 46 -7 151v600zM315 1378q39 0 67 -29
q29 -28 29 -68t-29 -69t-68 -29q-41 0 -69 29q-29 29 -29 68q0 42 29 69q29 29 70 29zM663 1378q39 0 67 -29q29 -28 29 -69q0 -40 -29 -68q-28 -29 -68 -29q-41 0 -69 29q-29 29 -29 68q0 41 29 69q29 29 70 29z" />
    <glyph glyph-name="dagger" unicode="&#x2020;" vert-adv-y="2308" 
d="M463 1331h106v-364h388v-95h-388v-1145h-106v1145h-396v95h396v364z" />
    <glyph glyph-name="degree" unicode="&#xb0;" vert-adv-y="2308" 
d="M516 1388q112 0 195 -80q83 -81 83 -194q0 -114 -82 -195q-83 -81 -200 -81t-200 81q-82 81 -82 194q0 116 82 194q85 81 204 81zM510 1313q-82 0 -142 -59q-59 -58 -59 -141t59 -141q60 -59 144 -59t144 59q59 59 59 141q0 84 -59 141q-61 59 -146 59z" />
    <glyph glyph-name="cent" unicode="&#xa2;" horiz-adv-x="1065" vert-adv-y="2308" 
d="M575 1098v-830q112 4 177 105q35 55 44 153h111q-4 -156 -106 -259q-92 -92 -226 -96v-216h-68v220q-90 13 -154 61q-178 136 -178 437q0 305 185 452q58 46 147 66v208h68v-204q137 -3 227 -91q91 -95 93 -250h-109q-9 237 -211 244zM507 1091q-75 -23 -120 -80
q-103 -130 -103 -332q0 -150 58 -262q50 -99 124 -130q15 -6 41 -13v817z" />
    <glyph glyph-name="sterling" unicode="&#xa3;" horiz-adv-x="1065" vert-adv-y="2308" 
d="M455 743h303v-100h-319q-67 -404 -144 -550q89 14 195 14q30 0 75 -1q89 -1 111 -1q88 0 124 16q69 31 75 147h107q2 -129 -77 -204q-59 -54 -160 -61q-27 -3 -128 -3h-471q90 154 176 643h-206v100h224q41 265 72 391q36 148 105 202q65 52 161 52q149 0 203 -104
q24 -46 29 -151h-108q-6 81 -24 107q-31 47 -102 47q-88 0 -126 -83q-32 -68 -95 -461z" />
    <glyph glyph-name="section" unicode="&#xa7;" vert-adv-y="2308" 
d="M858 1023h-111q-8 102 -47 154q-58 78 -184 78q-96 0 -157 -49q-69 -56 -69 -149q0 -84 73 -142q31 -24 198 -119q185 -105 241 -157q64 -61 64 -159q0 -116 -89 -194q-34 -30 -90 -61q58 -46 86 -85q52 -73 52 -166q0 -120 -73 -206q-91 -109 -279 -109q-339 0 -351 337
h109q9 -106 43 -154q63 -90 201 -90q98 0 156 42q86 60 86 177q0 99 -89 164q-46 34 -194 122q-190 113 -235 163q-57 66 -57 149q0 86 59 150q45 49 132 93q-152 95 -152 238q0 121 87 206q93 92 250 92q201 0 288 -141q48 -78 52 -184zM419 757q-168 -72 -168 -187
q0 -78 103 -145q113 -75 249 -147q67 28 111 81q42 52 42 115q0 76 -69 124q-101 68 -268 159z" />
    <glyph glyph-name="bullet" unicode="&#x2022;" horiz-adv-x="1365" vert-adv-y="2308" 
d="M689 978q113 0 196 -83q84 -83 84 -201t-83 -201t-201 -83q-116 0 -199 82q-85 84 -85 202q0 120 84 202q86 82 204 82z" />
    <glyph glyph-name="paragraph" unicode="&#xb6;" horiz-adv-x="1134" vert-adv-y="2308" 
d="M450 -206v846h-29q-120 0 -214 53q-77 44 -122 124q-46 82 -46 181q0 124 70 220q70 97 203 129q77 18 206 18h473v-90h-114v-1481h-100v1481h-228v-1481h-99z" />
    <glyph glyph-name="germandbls" unicode="&#xdf;" horiz-adv-x="1009" vert-adv-y="2308" 
d="M148 0v874q0 187 15 266q22 112 111 176q86 61 211 61q147 0 238 -83q98 -91 98 -236q0 -220 -246 -287q334 -57 334 -384q0 -190 -113 -303q-98 -98 -235 -98q-65 0 -147 32v101q72 -36 148 -36q102 0 166 80q69 88 69 228q0 213 -189 292q-99 41 -230 43v92
q28 -1 43 -1q123 0 197 52q91 64 91 183q0 108 -65 171q-60 58 -161 58q-153 0 -200 -115q-22 -53 -27 -139q-2 -21 -2 -152v-875h-106z" />
    <glyph glyph-name="registered" unicode="&#xae;" horiz-adv-x="1643" vert-adv-y="2308" 
d="M589 1090h139q159 0 232 -22t115 -84q35 -52 35 -122q0 -164 -181 -221l239 -370h-111l-231 356h-147v-356h-90v819zM679 704h52q133 0 183 16q99 32 99 143q0 101 -85 132q-48 18 -195 18h-54v-309zM830 1391q189 0 360 -105q170 -104 260 -280q77 -151 77 -321
q0 -198 -104 -368t-281 -260q-151 -77 -320 -77q-199 0 -369 104q-169 104 -260 281q-77 152 -77 319q0 200 104 370q101 167 281 260q151 77 329 77zM814 1317q-167 0 -316 -93q-150 -93 -230 -251q-69 -137 -69 -289q0 -177 92 -331q92 -152 248 -233q133 -69 283 -69
q257 0 438 185q88 89 136 207q48 116 48 240q0 180 -93 334q-90 149 -248 232q-131 68 -289 68z" />
    <glyph glyph-name="copyright" unicode="&#xa9;" horiz-adv-x="1643" vert-adv-y="2308" 
d="M1136 878h-88q-40 161 -203 161q-112 0 -180 -85q-75 -96 -75 -259q0 -179 89 -278q62 -68 167 -68q192 0 217 216h88q-12 -114 -60 -180q-82 -114 -241 -114q-156 0 -254 108q-103 112 -103 314q0 223 124 338q94 86 229 86q143 0 224 -88q51 -56 66 -151zM830 1391
q189 0 360 -105q170 -104 260 -280q77 -151 77 -321q0 -198 -104 -368t-281 -260q-151 -77 -320 -77q-199 0 -369 104q-169 104 -260 281q-77 152 -77 319q0 200 104 370q101 167 281 260q151 77 329 77zM814 1317q-167 0 -316 -93q-150 -93 -230 -251q-69 -137 -69 -289
q0 -177 92 -331q92 -152 248 -233q133 -69 283 -69q257 0 438 185q88 89 136 207q48 116 48 240q0 180 -93 334q-90 149 -248 232q-131 68 -289 68z" />
    <glyph glyph-name="trademark" unicode="&#x2122;" horiz-adv-x="1563" vert-adv-y="2308" 
d="M23 1365h535v-77h-222v-742h-90v742h-223v77zM686 1365h133l254 -705l253 705h132v-819h-89v697l-254 -697h-85l-254 697v-697h-90v819z" />
    <glyph glyph-name="acute" unicode="&#xb4;" vert-adv-y="2308" 
d="M458 1144l196 263h170l-270 -263h-96z" />
    <glyph glyph-name="dieresis" unicode="&#xa8;" vert-adv-y="2308" 
d="M339 1378q39 0 67 -29q29 -28 29 -68t-29 -69t-68 -29q-41 0 -69 29q-29 29 -29 68q0 42 29 69q29 29 70 29zM687 1378q39 0 67 -29q29 -28 29 -69q0 -40 -29 -68q-28 -29 -68 -29q-41 0 -69 29q-29 29 -29 68q0 41 29 69q29 29 70 29z" />
    <glyph glyph-name="notequal" unicode="&#x2260;" vert-adv-y="2308" 
d="M565 885l111 234l79 -25l-99 -209h300v-94h-344l-98 -209h442v-94h-486l-117 -249l-79 26l104 223h-310v94h354l98 209h-452v94h497z" />
    <glyph glyph-name="AE" unicode="&#xc6;" horiz-adv-x="1702" vert-adv-y="2308" 
d="M819 1365h783v-102h-594v-504h547v-103h-547v-554h594v-102h-715v390h-488l-218 -390h-133zM887 493v773l-431 -773h431z" />
    <glyph glyph-name="Oslash" unicode="&#xd8;" horiz-adv-x="1305" vert-adv-y="2308" 
d="M987 1260l71 105h101l-114 -170q144 -194 144 -493q0 -342 -173 -550q-77 -94 -191 -140q-85 -35 -180 -35q-188 0 -329 129l-71 -106h-100l113 170q-143 200 -143 492q0 341 173 551q78 94 191 140q85 35 180 35q182 0 328 -128zM923 1164q-111 119 -263 119
q-118 0 -214 -75q-103 -81 -158 -242q-46 -136 -46 -308q0 -219 87 -383zM380 202q110 -121 264 -121q137 0 242 99q124 116 162 352q14 87 14 179q0 219 -87 379z" />
    <glyph glyph-name="infinity" unicode="&#x221e;" horiz-adv-x="1365" vert-adv-y="2308" 
d="M685 624q-157 -234 -345 -234q-154 0 -239 111q-62 83 -62 200q0 164 124 249q79 54 177 54q187 0 341 -233q45 68 85 109q116 124 262 124q156 0 239 -114q60 -82 60 -196q0 -145 -95 -230q-84 -74 -204 -74q-143 0 -257 121q-41 43 -86 113zM737 697q6 -9 13 -20
q122 -195 269 -195q94 0 152 69q50 59 50 146q0 113 -78 172q-57 43 -126 43q-118 0 -217 -125q-22 -27 -44 -60zM629 696q-15 24 -20 31q-51 76 -101 121q-74 64 -162 64q-94 0 -152 -69q-49 -59 -49 -146q0 -113 78 -172q57 -43 126 -43q118 0 217 125q21 26 44 60z" />
    <glyph glyph-name="plusminus" unicode="&#xb1;" horiz-adv-x="1065" vert-adv-y="2308" 
d="M575 728h379v-78h-379v-380h-83v380h-380v78h380v393h83v-393zM112 161h842v-83h-842v83z" />
    <glyph glyph-name="lessequal" unicode="&#x2264;" vert-adv-y="2308" 
d="M955 1203v-103l-772 -337l772 -337v-102l-887 391v95zM955 263v-99h-887v99h887z" />
    <glyph glyph-name="greaterequal" unicode="&#x2265;" vert-adv-y="2308" 
d="M68 324v102l772 338l-772 336v103l887 -394v-95zM68 164v99h887v-99h-887z" />
    <glyph glyph-name="yen" unicode="&#xa5;" horiz-adv-x="1065" vert-adv-y="2308" 
d="M747 855h206v-83h-249l-87 -167h336v-83h-354l3 -522h-119l2 522h-374v83h356l-92 167h-264v83h219l-278 510h133l354 -673l348 673h125z" />
    <glyph glyph-name="mu1" unicode="&#xb5;" vert-adv-y="2308" 
d="M113 -339v1322h106v-571q0 -121 19 -177q37 -106 136 -151q61 -28 128 -28q138 0 223 108q47 60 66 129q15 55 15 142v548h106v-983h-106v197q-42 -95 -91 -142q-88 -83 -217 -83q-119 0 -204 70q-36 29 -75 90v-471h-106z" />
    <glyph glyph-name="partialdiff" unicode="&#x2202;" vert-adv-y="2308" 
d="M191 1280l15 96q159 -23 263 -69q247 -109 376 -365q106 -210 106 -460q0 -187 -79 -309q-65 -100 -172 -153q-89 -44 -186 -44q-154 0 -277 105q-164 139 -164 356q0 150 86 274q66 96 170 143q84 38 174 38q139 0 231 -72q38 -30 89 -100q-48 129 -66 167
q-88 178 -257 281q-140 89 -309 112zM521 809q-119 0 -213 -81q-51 -45 -85 -115q-42 -87 -42 -181q0 -166 112 -278q95 -94 222 -94q118 0 210 85q119 111 119 299q0 190 -115 288q-90 77 -208 77z" />
    <glyph glyph-name="summation" unicode="&#x2211;" horiz-adv-x="1365" vert-adv-y="2308" 
d="M1208 1536v-451h-98l-8 351h-922l519 -881l-519 -968h941l5 347h101v-446h-1164v113l512 954l-512 873v108h1145z" />
    <glyph glyph-name="product" unicode="&#x220f;" horiz-adv-x="1405" vert-adv-y="2308" 
d="M73 1536h1260v-99h-160v-1850h160v-99h-436v99h170v1850h-729v-1850h169v-99h-434v99h159v1850h-159v99z" />
    <glyph glyph-name="pi" unicode="&#x3c0;" horiz-adv-x="1035" vert-adv-y="2308" 
d="M160 0v884h-147v99h1017v-99h-144v-884h-106v884h-514v-884h-106z" />
    <glyph glyph-name="integral" unicode="&#x222b;" vert-adv-y="2308" 
d="M231 -490l27 94q48 -20 84 -20q92 0 109 83q8 37 8 154v1364q0 176 16 226q18 56 69 91q52 34 129 34q51 0 119 -23l-27 -94q-48 21 -84 21q-92 0 -109 -84q-7 -35 -7 -194v-1323q0 -138 -9 -190q-12 -80 -78 -121q-60 -38 -146 -38q-51 0 -101 20z" />
    <glyph glyph-name="ordfeminine" unicode="&#xaa;" vert-adv-y="2308" 
d="M371 1205h-82q18 177 225 177q94 0 152 -44q46 -35 53 -110q3 -28 3 -81v-217l-1 -32v-21q0 -64 19 -118h-79q-12 37 -16 71q-42 -51 -78 -68q-44 -20 -100 -20q-83 0 -135 41q-64 51 -64 137q0 130 149 185q85 31 226 53v34q0 54 -22 81q-31 38 -109 38
q-123 0 -141 -106zM643 1093q-130 -25 -194 -52q-98 -41 -98 -117q0 -50 37 -83q30 -27 84 -27q96 0 142 73q29 45 29 145v61zM241 650h525v-71h-525v71z" />
    <glyph glyph-name="ordmasculine" unicode="&#xba;" vert-adv-y="2308" 
d="M516 1382q105 0 176 -78q84 -90 84 -243q0 -151 -84 -242q-71 -78 -179 -78q-109 0 -180 78q-84 91 -84 241q0 155 84 244q72 78 183 78zM510 1310q-73 0 -121 -59q-57 -71 -57 -190q0 -118 57 -189q48 -59 124 -59t123 59q57 72 57 188q0 121 -57 191q-48 59 -126 59z
M250 650h525v-71h-525v71z" />
    <glyph glyph-name="Ohm" unicode="&#x2126;" horiz-adv-x="1365" vert-adv-y="2308" 
d="M58 0v96h399q-399 227 -399 644q0 324 239 520q168 138 386 138t386 -138q239 -196 239 -520q0 -262 -163 -452q-97 -113 -236 -192h399v-96h-528v88q154 88 238 179q182 197 182 463q0 273 -193 447q-140 125 -321 125q-180 0 -318 -115q-202 -168 -202 -457
q0 -405 421 -642v-88h-529z" />
    <glyph glyph-name="ae" unicode="&#xe6;" horiz-adv-x="1547" vert-adv-y="2308" 
d="M1447 477h-658q2 -177 59 -269q83 -135 241 -135q160 0 240 159l103 -19q-24 -79 -82 -137q-99 -100 -261 -100q-153 0 -257 92q-57 50 -91 120q-49 -86 -98 -128q-97 -84 -239 -84q-120 0 -204 61q-100 73 -100 199q0 163 167 255q71 40 192 61q86 15 175 15q13 0 42 -1
v67q0 146 -30 192q-47 74 -171 74q-193 0 -245 -181h-100q19 115 92 186q95 92 253 92q166 0 244 -84q36 -39 50 -100q104 184 304 184q178 0 282 -143q49 -67 75 -175q18 -78 18 -159q0 -14 -1 -42zM1324 566q-3 134 -53 216q-71 117 -201 117q-139 0 -221 -143
q-44 -79 -56 -190h531zM676 477q-142 1 -243 -23q-221 -53 -221 -216q0 -77 57 -121q56 -44 141 -44q154 0 226 124q40 68 40 196v84z" />
    <glyph glyph-name="oslash" unicode="&#xf8;" horiz-adv-x="1010" vert-adv-y="2308" 
d="M190 140q-90 143 -90 333q0 259 143 410q107 114 265 114q156 0 268 -112l64 82h91l-109 -140q89 -138 89 -332q0 -257 -143 -407q-108 -112 -268 -112q-155 0 -262 103l-62 -79h-96zM260 230l450 572q-81 98 -200 98q-166 0 -250 -180q-49 -104 -49 -255q0 -132 49 -235
zM751 737l-448 -575q75 -90 197 -90q166 0 250 177q49 103 49 251q0 135 -48 237z" />
    <glyph glyph-name="questiondown" unicode="&#xbf;" horiz-adv-x="840" vert-adv-y="2308" 
d="M473 968q42 0 73 -31t31 -74t-30 -74q-31 -32 -75 -32t-76 32q-30 31 -30 73q0 46 32 76t75 30zM413 577h112q1 -71 1 -134q0 -104 -14 -151q-14 -48 -46 -86q-31 -37 -85 -91q-70 -71 -100 -117q-39 -60 -39 -125q0 -82 56 -128q47 -40 128 -40q127 0 181 83
q27 43 36 122h102q-5 -130 -70 -208q-87 -106 -254 -106q-128 0 -206 63q-96 78 -96 219q0 89 49 163q36 54 128 142q101 97 113 164q6 35 6 155q0 26 -2 75z" />
    <glyph glyph-name="exclamdown" unicode="&#xa1;" horiz-adv-x="508" vert-adv-y="2308" 
d="M313 -398h-118l22 982h83zM255 968q42 0 73 -31t31 -74t-30 -74q-31 -32 -75 -32t-76 32q-30 31 -30 73q0 46 32 76t75 30z" />
    <glyph glyph-name="logicalnot" unicode="&#xac;" vert-adv-y="2308" 
d="M849 0v448h-781v99h887v-547h-106z" />
    <glyph glyph-name="radical" unicode="&#x221a;" horiz-adv-x="1365" vert-adv-y="2308" 
d="M1365 1696v-99h-415l-480 -1597h-121l-187 633h-162v99h248l89 -295q30 -96 69 -277h8q10 41 49 185l56 210l105 345l237 796h504z" />
    <glyph glyph-name="florin" unicode="&#x192;" horiz-adv-x="1065" vert-adv-y="2308" 
d="M687 967h204v-100h-221l-134 -761q-40 -226 -80 -293q-64 -109 -202 -109q-93 0 -216 60l22 110q97 -67 186 -67q58 0 91 32q33 33 57 134q10 46 29 153l131 742h-191v99h209l27 154q30 174 77 241q71 100 199 100q69 0 152 -34l-18 -105q-92 40 -141 40q-80 0 -118 -99
q-19 -51 -41 -173z" />
    <glyph glyph-name="approxequal" unicode="&#x2248;" vert-adv-y="2308" 
d="M89 712l-67 43q35 70 76 120q79 97 194 97q79 0 235 -78q105 -52 142 -62q35 -10 65 -10q74 0 127 53q34 36 73 101l68 -40q-112 -215 -274 -215q-51 0 -135 30q-16 6 -154 74q-97 47 -157 47q-68 0 -121 -57q-35 -36 -72 -103zM89 397l-67 43q34 69 76 120q79 98 194 98
q80 0 235 -78q104 -52 142 -62q37 -10 66 -10q73 0 126 53q35 36 73 101l68 -41q-112 -214 -274 -214q-53 0 -134 31q-22 8 -155 73q-97 47 -156 47q-69 0 -122 -57q-35 -36 -72 -104z" />
    <glyph glyph-name="increment" unicode="&#x2206;" horiz-adv-x="1365" vert-adv-y="2308" 
d="M65 0l560 1365h113l563 -1365h-1236zM217 99h930l-465 1137z" />
    <glyph glyph-name="guillemotleft" unicode="&#xab;" horiz-adv-x="707" vert-adv-y="2308" 
d="M563 0h-69l-172 478l172 489h69l-148 -489zM339 0h-70l-171 478l171 489h70l-148 -489z" />
    <glyph glyph-name="guillemotright" unicode="&#xbb;" horiz-adv-x="707" vert-adv-y="2308" 
d="M144 967h69l172 -478l-172 -489h-69l148 489zM368 967h70l171 -478l-171 -489h-70l148 489z" />
    <glyph glyph-name="ellipsis" unicode="&#x2026;" horiz-adv-x="1404" vert-adv-y="2308" 
d="M263 188q43 0 75 -32q30 -30 30 -74t-32 -75q-31 -30 -74 -30t-74 31t-31 74t30 74q32 32 76 32zM702 188q43 0 75 -32q30 -31 30 -74q0 -44 -32 -75q-31 -30 -74 -30t-74 31t-31 74t30 74q32 32 76 32zM1141 188q43 0 75 -32q30 -31 30 -74q0 -44 -32 -75
q-31 -30 -74 -30t-74 31q-31 30 -31 74t30 74q32 32 76 32z" />
    <glyph glyph-name="glyph172" horiz-adv-x="1065" vert-adv-y="1065" 
 />
    <glyph glyph-name="Agrave" unicode="&#xc0;" horiz-adv-x="1134" vert-adv-y="2308" 
d="M522 1377h90l473 -1377h-122l-134 388h-524l-135 -388h-121zM795 490l-228 720l-229 -720h457zM659 1496h-119l-315 262h170z" />
    <glyph glyph-name="Atilde" unicode="&#xc3;" horiz-adv-x="1134" vert-adv-y="2308" 
d="M522 1377h90l473 -1377h-122l-134 388h-524l-135 -388h-121zM795 490l-228 720l-229 -720h457zM326 1514l-79 34q15 64 35 104q47 89 146 89q68 0 156 -59q46 -30 71 -46q35 -20 70 -20q50 0 78 53q14 28 20 78l78 -35q-8 -66 -29 -104q-21 -41 -60 -66q-43 -28 -91 -28
q-46 0 -88 22q-39 20 -89 53q-72 49 -115 49q-75 0 -103 -124z" />
    <glyph glyph-name="Otilde" unicode="&#xd5;" horiz-adv-x="1305" vert-adv-y="2308" 
d="M660 1388q147 0 271 -90q135 -99 204 -287q54 -149 54 -329q0 -311 -156 -515q-75 -98 -184 -148q-92 -42 -197 -42q-154 0 -278 90q-135 98 -204 287q-54 148 -54 326q0 318 156 518q148 190 388 190zM646 1283q-110 0 -201 -73q-108 -86 -162 -258q-40 -125 -40 -270
q0 -255 117 -434q109 -166 292 -166t292 166q117 179 117 432q0 263 -117 437q-112 166 -298 166zM418 1514l-79 34q15 64 35 104q47 89 146 89q68 0 156 -59q46 -30 71 -46q35 -20 70 -20q50 0 78 53q14 28 20 78l78 -35q-8 -66 -29 -104q-21 -41 -60 -66q-43 -28 -91 -28
q-46 0 -88 22q-39 20 -89 53q-72 49 -115 49q-75 0 -103 -124z" />
    <glyph glyph-name="OE" unicode="&#x152;" horiz-adv-x="1881" vert-adv-y="2308" 
d="M1066 1167v198h706v-102h-590v-505h549v-102h-549v-554h599v-102h-715v200q-151 -223 -400 -223q-248 0 -398 191q-152 194 -152 511q0 356 184 556q142 153 366 153q242 0 400 -221zM650 1283q-144 0 -241 -100q-166 -172 -166 -504q0 -327 164 -495q100 -103 253 -103
q94 0 175 46q117 66 179 237q50 138 50 314q0 339 -164 508q-95 97 -250 97z" />
    <glyph glyph-name="oe" unicode="&#x153;" horiz-adv-x="1663" vert-adv-y="2308" 
d="M1561 461h-655q6 -161 58 -250q80 -138 238 -138q172 0 241 160l103 -19q-94 -238 -344 -238q-244 0 -358 229q-121 -229 -339 -229q-187 0 -301 151q-104 138 -104 354q0 258 139 402q109 113 271 113q224 0 336 -238q39 85 96 140q103 98 245 98q116 0 206 -66
q110 -80 152 -247q19 -74 19 -151q0 -23 -3 -71zM1440 550q-2 140 -59 236q-68 113 -199 113q-134 0 -210 -128q-51 -86 -66 -221h534zM500 899q-127 0 -208 -115q-80 -114 -80 -299t80 -299q80 -113 211 -113q78 0 143 47q73 52 110 164q30 91 30 199q0 188 -78 303
q-76 113 -208 113z" />
    <glyph glyph-name="endash" unicode="&#x2013;" vert-adv-y="2308" 
d="M161 560h703v-89h-703v89z" />
    <glyph glyph-name="emdash" unicode="&#x2014;" horiz-adv-x="1138" vert-adv-y="2308" 
d="M0 560h1138v-89h-1138v89z" />
    <glyph glyph-name="quotedblleft" unicode="&#x201c;" horiz-adv-x="787" vert-adv-y="2308" 
d="M580 1388h128q-143 -135 -160 -241q14 2 20 2q41 0 71 -33q27 -29 27 -70q0 -49 -37 -81q-32 -27 -75 -27q-49 0 -84 35q-36 37 -36 102q0 144 146 313zM273 1388h128q-143 -135 -160 -241q13 2 20 2q40 0 70 -33q27 -29 27 -70q0 -49 -37 -81q-32 -27 -75 -27
q-49 0 -83 35q-36 37 -36 103q0 143 146 312z" />
    <glyph glyph-name="quotedblright" unicode="&#x201d;" horiz-adv-x="814" vert-adv-y="2308" 
d="M208 938h-129q143 131 160 240q-12 -1 -18 -1q-42 0 -72 32q-27 30 -27 70q0 50 37 82q32 27 75 27q49 0 83 -35q36 -37 36 -103q0 -144 -145 -312zM542 938h-128q142 131 160 240q-12 -1 -19 -1q-42 0 -72 32q-27 30 -27 70q0 50 37 82q32 27 75 27q49 0 84 -35
q36 -37 36 -103q0 -144 -146 -312z" />
    <glyph glyph-name="quoteleft" unicode="&#x2018;" horiz-adv-x="480" vert-adv-y="2308" 
d="M273 1388h128q-143 -135 -160 -241q13 2 20 2q40 0 70 -33q27 -29 27 -70q0 -49 -37 -81q-32 -27 -75 -27q-49 0 -83 35q-36 37 -36 103q0 143 146 312z" />
    <glyph glyph-name="quoteright" unicode="&#x2019;" horiz-adv-x="480" vert-adv-y="2308" 
d="M208 938h-129q143 131 160 240q-12 -1 -18 -1q-42 0 -72 32q-27 30 -27 70q0 50 37 82q32 27 75 27q49 0 83 -35q36 -37 36 -103q0 -144 -145 -312z" />
    <glyph glyph-name="divide" unicode="&#xf7;" horiz-adv-x="1065" vert-adv-y="2308" 
d="M533 498q35 0 60 -26q25 -25 25 -60q0 -36 -26 -61q-25 -24 -60 -24t-60 25t-25 60t24 60q26 26 62 26zM533 1039q35 0 60 -26q25 -25 25 -60q0 -36 -26 -60q-25 -25 -60 -25t-60 25t-25 60q0 36 24 60q26 26 62 26zM112 730h842v-83h-842v83z" />
    <glyph glyph-name="lozenge" unicode="&#x25ca;" horiz-adv-x="1365" vert-adv-y="2308" 
d="M683 1419l531 -736l-531 -736l-532 736zM683 1238l-404 -555l404 -554l403 554z" />
    <glyph glyph-name="ydieresis" unicode="&#xff;" horiz-adv-x="855" vert-adv-y="2308" 
d="M33 969h115l279 -831l289 831h112l-316 -887q-73 -209 -108 -282q-100 -208 -320 -208q-12 0 -30 1v95q127 -2 188 57q37 38 61 90q27 60 65 166zM258 1378q39 0 67 -29q29 -28 29 -68t-29 -69t-68 -29q-41 0 -69 29q-29 29 -29 68q0 42 29 69q29 29 70 29zM606 1378
q39 0 67 -29q29 -28 29 -69q0 -40 -29 -68q-28 -29 -68 -29q-41 0 -69 29q-29 29 -29 68q0 41 29 69q29 29 70 29z" />
    <glyph glyph-name="Ydieresis" unicode="&#x178;" horiz-adv-x="1014" vert-adv-y="2308" 
d="M32 1365h137l340 -669l336 669h137l-420 -780l3 -585h-116l3 585zM328 1732q42 0 73 -31q31 -30 31 -74q0 -43 -31 -74t-74 -31t-74 31t-31 74q0 44 31 74q32 31 75 31zM688 1732q42 0 73 -31t31 -74t-31 -74t-74 -31t-74 31t-31 74q0 44 31 74q32 31 75 31z" />
    <glyph glyph-name="fraction" unicode="&#x2044;" horiz-adv-x="245" vert-adv-y="2308" 
d="M464 1331h99l-783 -1331h-98z" />
    <glyph glyph-name="currency" unicode="&#xa4;" horiz-adv-x="1365" vert-adv-y="2308" 
d="M136 243l185 189q-108 138 -108 294q0 152 108 291l-191 189l66 66l188 -188q143 110 299 110q157 0 296 -110l190 188l65 -66l-189 -187q107 -140 107 -295t-106 -292l190 -189l-65 -66l-190 189q-138 -107 -295 -107q-151 0 -298 107l-188 -189zM679 1092
q-147 0 -254 -108q-106 -107 -106 -258t107 -258q106 -107 256 -107q151 0 258 108q106 106 106 255q0 155 -106 260q-108 108 -261 108z" />
    <glyph glyph-name="guilsinglleft" unicode="&#x2039;" horiz-adv-x="450" vert-adv-y="2308" 
d="M326 0h-80l-171 478l171 489h80l-148 -489z" />
    <glyph glyph-name="guilsinglright" unicode="&#x203a;" horiz-adv-x="450" vert-adv-y="2308" 
d="M124 967h79l172 -478l-172 -489h-79l148 489z" />
    <glyph glyph-name="fi" unicode="&#xf001;" horiz-adv-x="974" vert-adv-y="2308" 
d="M284 969h245v-89h-238v-880h-117v880h-140v89h140v63q0 115 8 162q14 80 64 129q67 65 172 65q61 0 131 -25v-108q-58 36 -122 36q-97 0 -127 -83q-16 -44 -16 -159v-80zM703 969h117v-969h-117v969zM762 1381q33 0 58 -20q32 -27 32 -72q0 -33 -21 -57q-25 -32 -69 -32
q-38 0 -64 25q-27 25 -27 64q0 41 28 67q26 25 63 25z" />
    <glyph glyph-name="fi" unicode="&#xfb01;" horiz-adv-x="974" vert-adv-y="2308" 
d="M284 969h245v-89h-238v-880h-117v880h-140v89h140v63q0 115 8 162q14 80 64 129q67 65 172 65q61 0 131 -25v-108q-58 36 -122 36q-97 0 -127 -83q-16 -44 -16 -159v-80zM703 969h117v-969h-117v969zM762 1381q33 0 58 -20q32 -27 32 -72q0 -33 -21 -57q-25 -32 -69 -32
q-38 0 -64 25q-27 25 -27 64q0 41 28 67q26 25 63 25z" />
    <glyph glyph-name="fl" unicode="&#xf002;" horiz-adv-x="974" vert-adv-y="2308" 
d="M284 969h245v-89h-238v-880h-117v880h-140v89h140v63q0 115 8 162q14 80 64 129q67 65 172 65q61 0 131 -25v-108q-56 36 -122 36q-97 0 -127 -83q-16 -44 -16 -159v-80zM703 1371h117v-1371h-117v1371z" />
    <glyph glyph-name="fl" unicode="&#xfb02;" horiz-adv-x="974" vert-adv-y="2308" 
d="M284 969h245v-89h-238v-880h-117v880h-140v89h140v63q0 115 8 162q14 80 64 129q67 65 172 65q61 0 131 -25v-108q-56 36 -122 36q-97 0 -127 -83q-16 -44 -16 -159v-80zM703 1371h117v-1371h-117v1371z" />
    <glyph glyph-name="daggerdbl" unicode="&#x2021;" vert-adv-y="2308" 
d="M463 1331h101v-243h393v-97h-393v-890h393v-97h-393v-277h-101v277h-396v97h396v890h-396v97h396v243z" />
    <glyph glyph-name="periodcentered" unicode="&#x2219;" horiz-adv-x="526" vert-adv-y="2308" 
d="M263 618q43 0 75 -32q30 -30 30 -74t-32 -75q-31 -30 -74 -30t-74 31t-31 74q0 44 30 74q32 32 76 32z" />
    <glyph glyph-name="quotesinglbase" unicode="&#x201a;" horiz-adv-x="480" vert-adv-y="2308" 
d="M208 -244h-129q143 132 160 241q-13 -2 -20 -2q-39 0 -70 33q-27 29 -27 70q0 49 37 82q31 27 75 27q49 0 83 -35q36 -37 36 -103q0 -144 -145 -313z" />
    <glyph glyph-name="quotedblbase" unicode="&#x201e;" horiz-adv-x="814" vert-adv-y="2308" 
d="M208 -244h-129q143 132 160 241q-13 -2 -20 -2q-39 0 -70 33q-27 29 -27 70q0 49 37 82q31 27 75 27q49 0 83 -35q36 -37 36 -103q0 -144 -145 -313zM542 -244h-128q142 132 160 241q-14 -2 -21 -2q-39 0 -70 33q-27 29 -27 70q0 50 37 82q32 27 75 27q49 0 84 -35
q36 -37 36 -103q0 -144 -146 -313z" />
    <glyph glyph-name="perthousand" unicode="&#x2030;" horiz-adv-x="1658" vert-adv-y="2308" 
d="M892 1365h99l-806 -1365h-98zM787 644q104 0 175 -94q72 -95 72 -234q0 -154 -86 -250q-68 -77 -163 -77q-107 0 -178 94q-72 95 -72 234q0 154 86 250q69 77 166 77zM784 553q-66 0 -108 -74q-38 -67 -38 -163q0 -104 44 -172q42 -64 103 -64q67 0 109 74q38 67 38 163
q0 104 -44 172q-42 64 -104 64zM1367 644q104 0 175 -94q72 -94 72 -234q0 -154 -85 -250q-69 -77 -164 -77q-106 0 -177 94q-72 95 -72 234q0 155 86 250q69 77 165 77zM1364 553q-65 0 -107 -74q-38 -67 -38 -163q0 -104 44 -172q42 -64 102 -64q67 0 109 74q38 67 38 163
q0 105 -44 172q-42 64 -104 64zM294 1376q105 0 175 -94q72 -95 72 -233q0 -155 -85 -251q-69 -77 -164 -77q-106 0 -177 94q-72 95 -72 234q0 154 86 250q69 77 165 77zM291 1285q-65 0 -108 -74q-37 -67 -37 -162q0 -106 44 -173q41 -64 102 -64q66 0 108 74q38 67 38 163
q0 105 -44 172q-41 64 -103 64z" />
    <glyph glyph-name="Acircumflex" unicode="&#xc2;" horiz-adv-x="1134" vert-adv-y="2308" 
d="M522 1377h90l473 -1377h-122l-134 388h-524l-135 -388h-121zM795 490l-228 720l-229 -720h457zM231 1496l261 262h151l261 -262h-109l-228 188l-227 -188h-109z" />
    <glyph glyph-name="Ecircumflex" unicode="&#xca;" horiz-adv-x="1004" vert-adv-y="2308" 
d="M296 758h558v-102h-558v-554h608v-102h-724v1365h715v-102h-599v-505zM206 1496l261 262h151l261 -262h-109l-228 188l-227 -188h-109z" />
    <glyph glyph-name="Aacute" unicode="&#xc1;" horiz-adv-x="1134" vert-adv-y="2308" 
d="M522 1377h90l473 -1377h-122l-134 388h-524l-135 -388h-121zM795 490l-228 720l-229 -720h457zM474 1496l264 262h170l-315 -262h-119z" />
    <glyph glyph-name="Edieresis" unicode="&#xcb;" horiz-adv-x="1004" vert-adv-y="2308" 
d="M296 758h558v-102h-558v-554h608v-102h-724v1365h715v-102h-599v-505zM363 1732q42 0 73 -31q31 -30 31 -74q0 -43 -31 -74t-74 -31t-74 31t-31 74q0 44 31 74q32 31 75 31zM723 1732q42 0 73 -31t31 -74t-31 -74t-74 -31t-74 31t-31 74q0 44 31 74q32 31 75 31z" />
    <glyph glyph-name="Egrave" unicode="&#xc8;" horiz-adv-x="1004" vert-adv-y="2308" 
d="M296 758h558v-102h-558v-554h608v-102h-724v1365h715v-102h-599v-505zM664 1496h-119l-315 262h170z" />
    <glyph glyph-name="Iacute" unicode="&#xcd;" horiz-adv-x="476" vert-adv-y="2308" 
d="M299 0h-122v1365h122v-1365zM185 1496l264 262h170l-315 -262h-119z" />
    <glyph glyph-name="Icircumflex" unicode="&#xce;" horiz-adv-x="476" vert-adv-y="2308" 
d="M299 0h-122v1365h122v-1365zM-84 1496l261 262h151l261 -262h-109l-228 188l-227 -188h-109z" />
    <glyph glyph-name="Idieresis" unicode="&#xcf;" horiz-adv-x="476" vert-adv-y="2308" 
d="M299 0h-122v1365h122v-1365zM103 1730q41 0 72 -30q30 -30 30 -73q0 -42 -30 -73q-31 -30 -73 -30t-73 30q-30 31 -30 73q0 43 30 73q31 30 74 30zM376 1731q41 0 72 -30q30 -30 30 -73q0 -42 -30 -73q-31 -30 -73 -30t-73 30q-30 31 -30 73q0 43 30 73q31 30 74 30z" />
    <glyph glyph-name="Igrave" unicode="&#xcc;" horiz-adv-x="476" vert-adv-y="2308" 
d="M299 0h-122v1365h122v-1365zM336 1496h-119l-315 262h170z" />
    <glyph glyph-name="Oacute" unicode="&#xd3;" horiz-adv-x="1305" vert-adv-y="2308" 
d="M660 1388q147 0 271 -90q135 -99 204 -287q54 -149 54 -329q0 -311 -156 -515q-75 -98 -184 -148q-92 -42 -197 -42q-154 0 -278 90q-135 98 -204 287q-54 148 -54 326q0 318 156 518q148 190 388 190zM646 1283q-110 0 -201 -73q-108 -86 -162 -258q-40 -125 -40 -270
q0 -255 117 -434q109 -166 292 -166t292 166q117 179 117 432q0 263 -117 437q-112 166 -298 166zM521 1496l264 262h170l-315 -262h-119z" />
    <glyph glyph-name="Ocircumflex" unicode="&#xd4;" horiz-adv-x="1305" vert-adv-y="2308" 
d="M660 1388q147 0 271 -90q135 -99 204 -287q54 -149 54 -329q0 -311 -156 -515q-75 -98 -184 -148q-92 -42 -197 -42q-154 0 -278 90q-135 98 -204 287q-54 148 -54 326q0 318 156 518q148 190 388 190zM646 1283q-110 0 -201 -73q-108 -86 -162 -258q-40 -125 -40 -270
q0 -255 117 -434q109 -166 292 -166t292 166q117 179 117 432q0 263 -117 437q-112 166 -298 166zM316 1496l261 262h151l261 -262h-109l-228 188l-227 -188h-109z" />
    <glyph glyph-name="Euro" unicode="&#x20ac;" horiz-adv-x="1100" vert-adv-y="2308" 
d="M311 846h605l-43 -94h-573q-3 -47 -3 -90q0 -19 1 -40h516l-43 -94h-468q15 -183 92 -298q100 -149 295 -149q151 0 262 88q63 50 122 153v-171q-64 -65 -120 -97q-126 -71 -289 -71q-271 0 -396 228q-73 133 -91 317h-158l41 94h116q-1 21 -1 33q0 29 4 97h-164l40 94
h134q31 193 113 313q142 208 391 208q233 0 381 -171l-51 -112q-56 70 -100 105q-103 80 -232 80q-200 0 -308 -193q-49 -86 -73 -230z" />
    <glyph glyph-name="Ograve" unicode="&#xd2;" horiz-adv-x="1305" vert-adv-y="2308" 
d="M660 1388q147 0 271 -90q135 -99 204 -287q54 -149 54 -329q0 -311 -156 -515q-75 -98 -184 -148q-92 -42 -197 -42q-154 0 -278 90q-135 98 -204 287q-54 148 -54 326q0 318 156 518q148 190 388 190zM646 1283q-110 0 -201 -73q-108 -86 -162 -258q-40 -125 -40 -270
q0 -255 117 -434q109 -166 292 -166t292 166q117 179 117 432q0 263 -117 437q-112 166 -298 166zM788 1496h-119l-315 262h170z" />
    <glyph glyph-name="Uacute" unicode="&#xda;" horiz-adv-x="1246" vert-adv-y="2308" 
d="M159 1365h116v-810q1 -154 6 -200q10 -110 64 -170q53 -60 149 -86q63 -17 129 -17q118 0 208 49q86 46 116 132q22 63 22 186l1 106v810h116v-812q0 -162 -5 -218q-11 -124 -82 -210q-124 -148 -377 -148q-251 0 -375 148q-72 86 -83 210q-5 56 -5 218v812zM491 1496
l264 262h170l-315 -262h-119z" />
    <glyph glyph-name="Ucircumflex" unicode="&#xdb;" horiz-adv-x="1246" vert-adv-y="2308" 
d="M159 1365h116v-810q1 -154 6 -200q10 -110 64 -170q53 -60 149 -86q63 -17 129 -17q118 0 208 49q86 46 116 132q22 63 22 186l1 106v810h116v-812q0 -162 -5 -218q-11 -124 -82 -210q-124 -148 -377 -148q-251 0 -375 148q-72 86 -83 210q-5 56 -5 218v812zM286 1496
l261 262h151l261 -262h-109l-228 188l-227 -188h-109z" />
    <glyph glyph-name="Ugrave" unicode="&#xd9;" horiz-adv-x="1246" vert-adv-y="2308" 
d="M159 1365h116v-810q1 -154 6 -200q10 -110 64 -170q53 -60 149 -86q63 -17 129 -17q118 0 208 49q86 46 116 132q22 63 22 186l1 106v810h116v-812q0 -162 -5 -218q-11 -124 -82 -210q-124 -148 -377 -148q-251 0 -375 148q-72 86 -83 210q-5 56 -5 218v812zM753 1496
h-119l-315 262h170z" />
    <glyph glyph-name="dotlessi" unicode="&#x131;" horiz-adv-x="424" vert-adv-y="2308" 
d="M154 969h117v-969h-117v969z" />
    <glyph glyph-name="circumflex" unicode="&#x2c6;" vert-adv-y="2308" 
d="M210 1145l226 279h152l227 -279h-110l-193 199l-193 -199h-109z" />
    <glyph glyph-name="tilde" unicode="&#x2dc;" vert-adv-y="2308" 
d="M286 1163l-76 16q36 211 170 211q61 0 139 -60q44 -33 75 -51q25 -15 52 -15q71 0 88 131l80 -18q-10 -88 -45 -144q-46 -73 -120 -73q-66 0 -153 66q-81 61 -119 61q-66 0 -91 -124z" />
    <glyph glyph-name="macron" unicode="&#x2c9;" vert-adv-y="2308" 
d="M238 1328h548v-95h-548v95z" />
    <glyph glyph-name="breve" unicode="&#x2d8;" vert-adv-y="2308" 
d="M268 1409h78q12 -59 41 -98q50 -68 126 -68t125 67q27 38 39 99h79q-7 -71 -30 -124q-62 -146 -211 -146t-216 147q-25 53 -31 123z" />
    <glyph glyph-name="dotaccent" unicode="&#x2d9;" vert-adv-y="2308" 
d="M514 1378q39 0 67 -29q29 -28 29 -68t-29 -69t-68 -29q-41 0 -69 29q-29 29 -29 68q0 42 29 69q29 29 70 29z" />
    <glyph glyph-name="ring" unicode="&#x2da;" vert-adv-y="2308" 
d="M514 1480q74 0 128 -54t54 -130t-54 -130t-130 -54t-130 54q-54 55 -54 130q0 77 54 130q55 54 132 54zM511 1398q-41 0 -71 -30t-30 -72t30 -72t72 -30t72 30t30 72q0 43 -30 72q-30 30 -73 30z" />
    <glyph glyph-name="cedilla" unicode="&#xb8;" vert-adv-y="2308" 
d="M484 0h86l-63 -122q172 -21 172 -143q0 -74 -59 -119q-50 -39 -133 -39q-73 0 -143 28v71q68 -19 104 -19q42 0 69 16q41 25 41 75q0 54 -58 76q-32 12 -100 16z" />
    <glyph glyph-name="hungarumlaut" unicode="&#x2dd;" vert-adv-y="2308" 
d="M361 1143l173 263h136l-207 -263h-102zM573 1143l173 263h136l-207 -263h-102z" />
    <glyph glyph-name="ogonek" unicode="&#x2db;" vert-adv-y="2308" 
d="M568 0h134q-195 -73 -195 -169q0 -44 34 -69q35 -26 82 -26q40 0 80 13v-85q-63 -18 -111 -18q-63 0 -114 26q-41 21 -66 64q-20 36 -20 77q0 94 103 156q34 19 73 31z" />
    <glyph glyph-name="caron" unicode="&#x2c7;" vert-adv-y="2308" 
d="M815 1424l-227 -279h-152l-226 279h109l193 -199l193 199h110z" />
    <glyph glyph-name="Euro" horiz-adv-x="1100" vert-adv-y="2308" 
d="M311 846h605l-43 -94h-573q-3 -47 -3 -90q0 -19 1 -40h516l-43 -94h-468q15 -183 92 -298q100 -149 295 -149q151 0 262 88q63 50 122 153v-171q-64 -65 -120 -97q-126 -71 -289 -71q-271 0 -396 228q-73 133 -91 317h-158l41 94h116q-1 21 -1 33q0 29 4 97h-164l40 94
h134q31 193 113 313q142 208 391 208q233 0 381 -171l-51 -112q-56 70 -100 105q-103 80 -232 80q-200 0 -308 -193q-49 -86 -73 -230z" />
    <glyph glyph-name="nbspace" unicode="&#xa0;" horiz-adv-x="512" vert-adv-y="2308" 
 />
    <glyph glyph-name="brokenbar" unicode="&#xa6;" vert-adv-y="2308" 
d="M459 1365h106v-671h-106v671zM459 314h106v-655h-106v655z" />
    <glyph glyph-name="sfthyphen" unicode="&#xad;" horiz-adv-x="571" vert-adv-y="2308" 
d="M0 560h571v-89h-571v89z" />
    <glyph glyph-name="overscore" unicode="&#xaf;" vert-adv-y="2308" 
d="M0 1744h1024v-96h-1024v96z" />
    <glyph glyph-name="twosuperior" unicode="&#xb2;" horiz-adv-x="705" vert-adv-y="2308" 
d="M207 1086h-85q3 255 247 255q90 0 151 -41q79 -53 79 -151q0 -70 -58 -154q-11 -16 -202 -255l-87 -109l-18 -24h379v-75h-493v62l28 35l77 97l88 112q129 163 151 194q44 62 44 116q0 58 -43 88q-40 29 -100 29q-149 0 -158 -179z" />
    <glyph glyph-name="threesuperior" unicode="&#xb3;" horiz-adv-x="705" vert-adv-y="2308" 
d="M193 1117h-82q6 102 54 153q68 71 186 71q120 0 185 -70q48 -52 48 -128q0 -117 -110 -173q141 -59 141 -202q0 -133 -106 -203q-64 -42 -162 -42q-122 0 -191 60q-70 62 -70 161q0 10 1 24h81q3 -168 175 -168q86 0 135 45q46 43 46 120q0 109 -97 146q-36 13 -88 13
q-19 0 -45 -3v81q29 -3 46 -3q55 0 96 26q57 37 57 113q0 54 -33 87q-39 39 -112 39q-136 0 -155 -147z" />
    <glyph glyph-name="middot" unicode="&#xb7;" horiz-adv-x="526" vert-adv-y="2308" 
d="M263 618q43 0 75 -32q30 -30 30 -74t-32 -75q-31 -30 -74 -30t-74 31t-31 74q0 44 30 74q32 32 76 32z" />
    <glyph glyph-name="onesuperior" unicode="&#xb9;" horiz-adv-x="705" vert-adv-y="2308" 
d="M166 1159v64q81 3 120 27q38 25 53 88h64v-806h-85v627h-152z" />
    <glyph glyph-name="onequarter" unicode="&#xbc;" horiz-adv-x="1655" vert-adv-y="2308" 
d="M166 1159v64q81 3 120 27q38 25 53 88h64v-806h-85v627h-152zM1168 1331h100l-783 -1331h-98zM1444 276h145v-77h-144v-206h-89v206h-343v61l351 546h80v-530zM1358 276l2 396l-252 -396h250z" />
    <glyph glyph-name="onehalf" unicode="&#xbd;" horiz-adv-x="1655" vert-adv-y="2308" 
d="M166 1159v64q81 3 120 27q38 25 53 88h64v-806h-85v627h-152zM1168 1331h100l-783 -1331h-98zM1158 554h-85q1 116 49 174q67 81 198 81q88 0 150 -42q79 -52 79 -150q0 -70 -57 -154q-11 -15 -202 -256l-87 -109l-18 -23h378v-75h-492v62q25 31 104 132l88 112
q129 162 151 194q44 62 44 116q0 57 -42 88q-41 29 -100 29q-149 0 -158 -179z" />
    <glyph glyph-name="threequarters" unicode="&#xbe;" horiz-adv-x="1655" vert-adv-y="2308" 
d="M193 1117h-82q6 102 54 153q68 71 186 71q120 0 185 -70q48 -52 48 -128q0 -117 -110 -173q141 -59 141 -202q0 -133 -106 -203q-64 -42 -162 -42q-122 0 -191 60q-70 62 -70 161q0 10 1 24h81q3 -168 175 -168q86 0 135 45q46 43 46 120q0 109 -97 146q-36 13 -88 13
q-19 0 -45 -3v81q29 -3 46 -3q55 0 96 26q57 37 57 113q0 54 -33 87q-39 39 -112 39q-136 0 -155 -147zM1168 1331h100l-783 -1331h-98zM1443 276h146v-77h-144v-206h-89v206h-343v61l351 546h79v-530zM1358 276l2 396l-252 -396h250z" />
    <glyph glyph-name="Eth" unicode="&#xd0;" horiz-adv-x="1270" vert-adv-y="2308" 
d="M180 1365h173q186 0 274 -11q267 -32 408 -245q119 -181 119 -426q0 -277 -145 -461q-147 -187 -390 -212q-93 -10 -274 -10h-165v667h-137v96h137v602zM296 102h93q152 0 220 8q137 17 242 108q175 153 175 463q0 274 -137 432q-104 118 -271 140q-77 10 -258 10h-64
v-500h368v-96h-368v-565z" />
    <glyph glyph-name="multiply" unicode="&#xd7;" horiz-adv-x="1065" vert-adv-y="2308" 
d="M590 689l293 -293l-58 -58l-294 293l-292 -293l-57 57l293 293l-294 293l58 59l294 -294l293 293l56 -57z" />
    <glyph glyph-name="Yacute" unicode="&#xdd;" horiz-adv-x="1014" vert-adv-y="2308" 
d="M32 1365h137l340 -669l336 669h137l-420 -780l3 -585h-116l3 585zM376 1496l264 262h170l-315 -262h-119z" />
    <glyph glyph-name="Thorn" unicode="&#xde;" horiz-adv-x="1050" vert-adv-y="2308" 
d="M180 1365h116v-159h78q267 0 373 -35q118 -40 185 -151q53 -89 53 -215q0 -155 -82 -254q-89 -107 -256 -127q-84 -10 -245 -10h-106v-414h-116v1365zM296 516h102q174 0 258 18q201 41 201 272q0 132 -72 209q-61 66 -182 80q-72 9 -232 9h-75v-588z" />
    <glyph glyph-name="eth" unicode="&#xf0;" horiz-adv-x="1010" vert-adv-y="2308" 
d="M517 1261l154 90l44 -75l-146 -83q26 -32 94 -120q124 -160 158 -220q89 -157 89 -354q0 -256 -133 -405q-106 -118 -269 -118q-169 0 -279 122q-129 144 -129 383q0 266 141 406q65 65 157 94q51 16 98 16q48 0 110 -24l-126 169l-152 -88l-47 73l153 88l-87 118l73 40z
M510 900q-117 0 -193 -84q-105 -118 -105 -331q0 -196 93 -315q77 -97 202 -97q123 0 197 96q95 123 95 312q0 211 -101 336q-67 83 -188 83z" />
    <glyph glyph-name="yacute" unicode="&#xfd;" horiz-adv-x="855" vert-adv-y="2308" 
d="M33 969h115l279 -831l289 831h112l-316 -887q-73 -209 -108 -282q-100 -208 -320 -208q-12 0 -30 1v95q127 -2 188 57q37 38 61 90q27 60 65 166zM322 1144l196 263h170l-270 -263h-96z" />
    <glyph glyph-name="thorn" unicode="&#xfe;" horiz-adv-x="1012" vert-adv-y="2308" 
d="M154 -404v1775h106v-553q44 76 87 113q78 66 189 66q134 0 222 -85q155 -149 155 -432q0 -256 -127 -401q-91 -103 -239 -103q-185 0 -287 168v-548h-106zM532 900q-115 0 -183 -93q-91 -125 -91 -321q0 -195 88 -313q76 -100 197 -100q108 0 171 83q88 118 88 317
q0 230 -104 354q-60 73 -166 73z" />
    <glyph glyph-name="Amacron" unicode="&#x100;" horiz-adv-x="1134" vert-adv-y="2308" 
d="M522 1377h90l473 -1377h-122l-134 388h-524l-135 -388h-121zM795 490l-228 720l-229 -720h457zM282 1672h571v-92h-571v92z" />
    <glyph glyph-name="amacron" unicode="&#x101;" horiz-adv-x="949" vert-adv-y="2308" 
d="M244 727h-111q13 115 82 182q90 87 263 87q145 0 233 -69q71 -56 81 -173q4 -45 4 -131v-355l-1 -83q0 -105 26 -185h-106q-18 58 -25 137q-89 -161 -286 -161q-126 0 -207 65q-97 77 -97 213q0 207 228 291q140 52 362 86v51q0 107 -37 152q-53 65 -176 65
q-203 0 -233 -172zM690 546q-214 -42 -318 -87q-160 -69 -160 -201q0 -85 61 -139q53 -46 139 -46q156 0 232 123q46 75 46 240v110zM206 1328h548v-95h-548v95z" />
    <glyph glyph-name="Abreve" unicode="&#x102;" horiz-adv-x="1134" vert-adv-y="2308" 
d="M522 1377h90l473 -1377h-122l-134 388h-524l-135 -388h-121zM795 490l-228 720l-229 -720h457zM296 1761h77q13 -57 48 -96q59 -67 147 -67q89 0 147 67q32 38 46 96h77q-8 -70 -33 -122q-72 -145 -235 -145q-164 0 -240 145q-26 51 -34 122z" />
    <glyph glyph-name="abreve" unicode="&#x103;" horiz-adv-x="949" vert-adv-y="2308" 
d="M244 727h-111q13 115 82 182q90 87 263 87q145 0 233 -69q71 -56 81 -173q4 -45 4 -131v-355l-1 -83q0 -105 26 -185h-106q-18 58 -25 137q-89 -161 -286 -161q-126 0 -207 65q-97 77 -97 213q0 207 228 291q140 52 362 86v51q0 107 -37 152q-53 65 -176 65
q-203 0 -233 -172zM690 546q-214 -42 -318 -87q-160 -69 -160 -201q0 -85 61 -139q53 -46 139 -46q156 0 232 123q46 75 46 240v110zM237 1409h78q12 -59 41 -98q50 -68 126 -68t125 67q27 38 39 99h79q-7 -71 -30 -124q-62 -146 -211 -146t-216 147q-25 53 -31 123z" />
    <glyph glyph-name="Aogonek" unicode="&#x104;" horiz-adv-x="1134" vert-adv-y="2308" 
d="M1085 0q-150 -80 -150 -183q0 -42 37 -73q33 -27 76 -27q47 0 90 11v-88q-70 -21 -123 -21q-60 0 -112 28q-92 51 -92 150q0 81 74 145q27 24 91 58h-10l-138 388h-523l-135 -388h-121l473 1377h90zM794 490l-226 717l-230 -717h456z" />
    <glyph glyph-name="aogonek" unicode="&#x105;" horiz-adv-x="949" vert-adv-y="2308" 
d="M819 0q-14 -7 -78 -56q-70 -54 -70 -111q0 -47 34 -72q35 -25 82 -25q40 0 79 13v-85q-62 -18 -110 -18q-62 0 -114 26q-42 21 -66 64q-20 34 -20 74q0 77 68 136q27 24 91 54q-18 62 -25 137q-88 -161 -286 -161q-128 0 -208 64q-96 78 -96 212q0 205 228 292
q138 53 362 87v65q0 92 -37 138q-52 65 -178 65q-201 0 -231 -172h-111q13 115 82 182q90 87 263 87q145 0 233 -69q71 -56 81 -173q4 -45 4 -131v-355l-1 -85q0 -87 24 -183zM690 546q-214 -42 -318 -87q-160 -69 -160 -200q0 -86 60 -140q51 -46 138 -46q158 0 234 123
q46 75 46 240v110z" />
    <glyph glyph-name="Cacute" unicode="&#x106;" horiz-adv-x="1233" vert-adv-y="2308" 
d="M1108 1009h-114q-67 274 -332 274q-185 0 -296 -150q-122 -167 -122 -450q0 -308 145 -481q100 -120 276 -120q201 0 293 164q48 84 61 203h114q-17 -173 -91 -283q-127 -189 -371 -189q-249 0 -396 179q-159 194 -159 524q0 372 193 565q142 143 355 143q221 0 346 -146
q77 -90 98 -233zM531 1496l264 262h170l-315 -262h-119z" />
    <glyph glyph-name="cacute" unicode="&#x107;" horiz-adv-x="955" vert-adv-y="2308" 
d="M845 656h-106q-14 96 -58 155q-64 88 -180 88q-122 0 -195 -94q-95 -122 -95 -321q0 -214 108 -333q71 -78 187 -78q129 0 193 105q38 61 46 150h110q-14 -147 -84 -235q-91 -117 -260 -117q-161 0 -270 105q-141 137 -141 401q0 277 156 421q101 93 248 93
q190 0 283 -147q47 -76 58 -193zM398 1144l196 263h170l-270 -263h-96z" />
    <glyph glyph-name="Ccircumflex" unicode="&#x108;" horiz-adv-x="1233" vert-adv-y="2308" 
d="M1108 1009h-114q-67 274 -332 274q-159 0 -258 -104q-160 -168 -160 -496q0 -306 145 -481q100 -120 271 -120q206 0 297 164q53 96 62 203h114q-10 -159 -91 -283q-124 -189 -379 -189q-223 0 -366 155q-181 196 -181 549q0 393 216 587q134 120 329 120q224 0 349 -146
q77 -90 98 -233zM332 1496l261 262h152l260 -262h-109l-227 188l-227 -188h-110z" />
    <glyph glyph-name="Cdot" unicode="&#x10a;" horiz-adv-x="1233" vert-adv-y="2308" 
d="M1108 1009h-114q-67 274 -332 274q-159 0 -258 -104q-160 -168 -160 -496q0 -306 145 -481q100 -120 271 -120q206 0 297 164q53 96 62 203h114q-10 -159 -91 -283q-124 -189 -379 -189q-223 0 -366 155q-181 196 -181 549q0 393 216 587q134 120 329 120q224 0 349 -146
q77 -90 98 -233zM669 1745q47 0 82 -34q34 -35 34 -83q0 -49 -34 -83q-35 -35 -83 -35q-49 0 -83 35q-35 34 -35 82q0 50 35 84t84 34z" />
    <glyph glyph-name="cdot" unicode="&#x10b;" horiz-adv-x="956" vert-adv-y="2308" 
d="M845 656h-106q-14 96 -58 155q-64 88 -180 88q-122 0 -195 -94q-95 -122 -95 -321q0 -214 108 -333q71 -78 187 -78q129 0 193 105q38 61 46 150h110q-14 -147 -84 -235q-91 -117 -260 -117q-161 0 -270 105q-141 137 -141 401q0 277 156 421q101 93 248 93
q190 0 283 -147q47 -76 58 -193zM513 1378q39 0 67 -29q29 -28 29 -68t-29 -69t-68 -29q-41 0 -69 29q-29 29 -29 68q0 42 29 69q29 29 70 29z" />
    <glyph glyph-name="Ccaron" unicode="&#x10c;" horiz-adv-x="1233" vert-adv-y="2308" 
d="M1108 1009h-114q-67 274 -332 274q-185 0 -296 -150q-122 -167 -122 -450q0 -308 145 -481q100 -120 276 -120q201 0 293 164q48 84 61 203h114q-17 -173 -91 -283q-127 -189 -371 -189q-249 0 -396 179q-159 194 -159 524q0 372 193 565q142 143 355 143q221 0 346 -146
q77 -90 98 -233zM1004 1758l-261 -262h-151l-261 262h109l228 -188l227 188h109z" />
    <glyph glyph-name="ccaron" unicode="&#x10d;" horiz-adv-x="956" vert-adv-y="2308" 
d="M845 656h-106q-14 96 -58 155q-64 88 -180 88q-122 0 -195 -94q-95 -122 -95 -321q0 -214 108 -333q71 -78 187 -78q129 0 193 105q38 61 46 150h110q-14 -147 -84 -235q-91 -117 -260 -117q-161 0 -270 105q-141 137 -141 401q0 277 156 421q101 93 248 93
q190 0 283 -147q47 -76 58 -193zM814 1424l-227 -279h-152l-226 279h109l193 -199l193 199h110z" />
    <glyph glyph-name="Dcaron" unicode="&#x10e;" horiz-adv-x="1270" vert-adv-y="2308" 
d="M180 1365h173q186 0 274 -11q267 -32 408 -245q119 -181 119 -425q0 -278 -145 -462q-147 -187 -390 -212q-93 -10 -274 -10h-165v1365zM296 102h93q153 0 220 8q137 17 242 108q175 153 175 464q0 273 -137 431q-104 118 -270 140q-78 10 -259 10h-64v-1161zM915 1758
l-261 -262h-151l-261 262h109l228 -188l227 188h109z" />
    <glyph glyph-name="dcaron" unicode="&#x10f;" horiz-adv-x="1124" vert-adv-y="2308" 
d="M858 1371v-1091q0 -222 20 -280h-109q-18 56 -18 109q0 10 1 30q-41 -68 -85 -103q-77 -60 -186 -60q-159 0 -257 110q-125 141 -125 390q0 247 116 397q94 123 256 123q193 0 281 -173v548h106zM479 899q-113 0 -178 -87q-91 -123 -91 -328q0 -203 91 -325
q65 -86 181 -86t181 86q91 122 91 323q0 209 -91 330q-66 87 -184 87zM1025 1026h-85q114 104 128 188q-11 -2 -17 -2q-34 0 -60 28q-23 25 -23 60q0 42 32 69q26 23 63 23q42 0 71 -30q31 -31 31 -87q0 -115 -140 -249z" />
    <glyph glyph-name="Dslash" unicode="&#x110;" horiz-adv-x="1270" vert-adv-y="2308" 
d="M180 1365h173q186 0 274 -11q267 -32 408 -245q119 -181 119 -426q0 -277 -145 -461q-147 -187 -390 -212q-93 -10 -274 -10h-165v667h-137v96h137v602zM296 102h93q152 0 220 8q137 17 242 108q175 153 175 463q0 274 -137 432q-104 118 -271 140q-77 10 -258 10h-64
v-500h368v-96h-368v-565z" />
    <glyph glyph-name="dmacron" unicode="&#x111;" horiz-adv-x="1012" vert-adv-y="2308" 
d="M858 1371v-147h123v-89h-123v-855q0 -222 20 -280h-109q-18 55 -18 109q0 10 1 30q-41 -68 -84 -103q-77 -60 -186 -60q-159 0 -257 110q-125 141 -125 390q0 247 116 397q94 123 256 123q193 0 280 -173v312h-272v89h272v147h106zM480 899q-113 0 -178 -87
q-91 -123 -91 -328q0 -203 91 -325q65 -86 181 -86t180 86q91 122 91 323q0 209 -91 330q-65 87 -183 87z" />
    <glyph glyph-name="Emacron" unicode="&#x112;" horiz-adv-x="1004" vert-adv-y="2308" 
d="M296 758h558v-102h-558v-554h608v-102h-724v1365h715v-102h-599v-505zM256 1672h571v-92h-571v92z" />
    <glyph glyph-name="emacron" unicode="&#x113;" horiz-adv-x="975" vert-adv-y="2308" 
d="M874 472h-662q4 -173 62 -270q77 -129 233 -129q110 0 178 68q28 29 61 91l103 -19q-90 -237 -341 -237q-185 0 -295 128q-113 131 -113 369q0 277 142 421q102 103 256 103q117 0 206 -65q103 -76 142 -217q29 -101 29 -198q0 -14 -1 -45zM760 561q-7 116 -48 197
q-72 142 -219 142q-144 0 -221 -141q-44 -79 -56 -198h544zM236 1328h548v-95h-548v95z" />
    <glyph glyph-name="Ebreve" unicode="&#x114;" horiz-adv-x="1004" vert-adv-y="2308" 
d="M296 758h558v-102h-558v-554h608v-102h-724v1365h715v-102h-599v-505zM271 1761h77q13 -57 47 -96q60 -67 148 -67q89 0 147 67q32 38 46 96h77q-8 -70 -33 -122q-72 -145 -235 -145q-164 0 -240 145q-26 51 -34 122z" />
    <glyph glyph-name="ebreve" unicode="&#x115;" horiz-adv-x="975" vert-adv-y="2308" 
d="M874 472h-662q4 -173 62 -270q77 -129 233 -129q110 0 178 68q28 29 61 91l103 -19q-90 -237 -341 -237q-185 0 -295 128q-113 131 -113 369q0 277 142 421q102 103 256 103q117 0 206 -65q103 -76 142 -217q29 -101 29 -198q0 -14 -1 -45zM760 561q-7 116 -48 197
q-72 142 -219 142q-144 0 -221 -141q-44 -79 -56 -198h544zM264 1409h78q12 -59 41 -98q50 -68 126 -68t125 67q27 38 39 99h79q-8 -71 -30 -124q-63 -146 -211 -146q-149 0 -216 147q-25 53 -31 123z" />
    <glyph glyph-name="Edot" unicode="&#x116;" horiz-adv-x="1004" vert-adv-y="2308" 
d="M296 758h558v-102h-558v-554h608v-102h-724v1365h715v-102h-599v-505zM543 1745q47 0 82 -34q34 -35 34 -83q0 -49 -34 -83q-35 -35 -83 -35q-49 0 -83 35q-35 34 -35 82q0 50 35 84t84 34z" />
    <glyph glyph-name="edot" unicode="&#x117;" horiz-adv-x="975" vert-adv-y="2308" 
d="M874 472h-662q4 -173 62 -270q77 -129 233 -129q110 0 178 68q28 29 61 91l103 -19q-90 -237 -341 -237q-185 0 -295 128q-113 131 -113 369q0 277 142 421q102 103 256 103q117 0 206 -65q103 -76 142 -217q29 -101 29 -198q0 -14 -1 -45zM760 561q-7 116 -48 197
q-72 142 -219 142q-144 0 -221 -141q-44 -79 -56 -198h544zM509 1378q39 0 67 -29q29 -28 29 -68t-29 -69t-68 -29q-41 0 -69 29q-29 29 -29 68q0 42 29 69q29 29 70 29z" />
    <glyph glyph-name="Eogonek" unicode="&#x118;" horiz-adv-x="1004" vert-adv-y="2308" 
d="M904 0q-173 -93 -173 -181q0 -46 37 -76q33 -27 89 -27q42 0 85 12v-88q-69 -22 -126 -22q-63 0 -116 28q-45 25 -70 69q-22 39 -22 83q0 103 110 169q32 19 78 33h-616v1365h715v-102h-599v-505h558v-102h-558v-554h608v-102z" />
    <glyph glyph-name="eogonek" unicode="&#x119;" horiz-adv-x="975" vert-adv-y="2308" 
d="M793 -251v-85q-63 -18 -111 -18q-63 0 -114 26q-41 21 -66 64q-20 36 -20 76q0 67 59 123q14 13 63 54q-51 -13 -92 -13q-189 0 -299 128q-113 132 -113 369q0 277 142 421q102 103 256 103q117 0 206 -65q102 -76 142 -217q29 -100 29 -201q0 -14 -1 -42h-662
q4 -173 62 -270q78 -129 233 -129q111 0 178 68q29 29 61 91l103 -19q-19 -53 -51 -99q-30 -40 -107 -120q-31 -31 -66 -86q-29 -45 -29 -76q0 -44 35 -70t82 -26q40 0 80 13zM760 561q-7 116 -48 197q-72 142 -219 142q-143 0 -221 -141q-43 -79 -56 -198h544z" />
    <glyph glyph-name="Ecaron" unicode="&#x11a;" horiz-adv-x="1004" vert-adv-y="2308" 
d="M296 758h558v-102h-558v-554h608v-102h-724v1365h715v-102h-599v-505zM879 1758l-261 -262h-151l-261 262h109l228 -188l227 188h109z" />
    <glyph glyph-name="ecaron" unicode="&#x11b;" horiz-adv-x="975" vert-adv-y="2308" 
d="M874 472h-662q4 -173 62 -270q77 -129 233 -129q110 0 178 68q28 29 61 91l103 -19q-90 -237 -341 -237q-185 0 -295 128q-113 131 -113 369q0 277 142 421q102 103 256 103q117 0 206 -65q103 -76 142 -217q29 -101 29 -198q0 -14 -1 -45zM760 561q-7 116 -48 197
q-72 142 -219 142q-144 0 -221 -141q-44 -79 -56 -198h544zM810 1424l-227 -279h-152l-226 279h109l193 -199l193 199h110z" />
    <glyph glyph-name="Gcircumflex" unicode="&#x11c;" horiz-adv-x="1260" vert-adv-y="2308" 
d="M734 669h392v-559q-184 -133 -433 -133q-233 0 -368 129q-210 200 -210 584q0 361 199 561q136 137 349 137q220 0 347 -143q73 -84 98 -235h-114q-34 127 -92 185q-89 88 -243 88q-162 0 -261 -108q-156 -169 -156 -485q0 -174 54 -326q56 -159 184 -232q88 -50 214 -50
q160 0 320 88v387h-280v112zM332 1496l260 262h152l261 -262h-110l-227 188l-227 -188h-109z" />
    <glyph glyph-name="gcircumflex" unicode="&#x11d;" horiz-adv-x="958" vert-adv-y="2308" 
d="M911 969v-85l-199 5q96 -83 96 -237q0 -143 -87 -217q-38 -33 -101 -55q-28 -10 -131 -37q-93 -25 -141 -48q-60 -29 -60 -71q0 -25 27 -40q23 -13 161 -26q149 -14 200 -26q238 -54 238 -259q0 -146 -129 -224q-114 -69 -298 -69q-198 0 -318 86q-102 72 -102 194
q0 114 85 180q46 35 123 62q-103 39 -103 112q0 66 75 110q39 23 99 46q-203 73 -203 281q0 170 122 262q87 65 218 65q70 0 141 -19zM480 889q-88 0 -152 -57q-73 -66 -73 -176q0 -102 63 -161t159 -59t156 55q64 59 64 163q0 94 -53 159q-61 76 -164 76zM481 47
q-132 0 -213 -40q-98 -50 -98 -143q0 -82 83 -133q87 -53 236 -53q183 0 265 72q54 48 54 115q0 182 -327 182zM198 1145l226 279h152l227 -279h-110l-193 199l-193 -199h-109z" />
    <glyph glyph-name="Gbreve" unicode="&#x11e;" horiz-adv-x="1260" vert-adv-y="2308" 
d="M734 669h392v-559q-184 -133 -433 -133q-254 0 -396 153q-182 197 -182 554q0 352 173 543q67 73 162 115q103 46 223 46q218 0 337 -143q77 -91 98 -235h-114q-33 126 -93 185q-89 88 -232 88q-184 0 -289 -128q-138 -169 -138 -471q0 -337 166 -499q105 -103 285 -103
q161 0 321 88v387h-280v112zM397 1761h77q13 -57 48 -96q59 -67 147 -67q89 0 147 67q32 38 46 96h77q-8 -70 -33 -122q-72 -145 -235 -145q-164 0 -240 145q-26 51 -34 122z" />
    <glyph glyph-name="gbreve" unicode="&#x11f;" horiz-adv-x="958" vert-adv-y="2308" 
d="M911 969v-85l-199 5q96 -83 96 -237q0 -143 -87 -217q-38 -33 -101 -55q-28 -10 -131 -37q-93 -25 -141 -48q-60 -29 -60 -71q0 -25 27 -40q23 -13 161 -26q149 -14 200 -26q238 -54 238 -259q0 -146 -129 -224q-114 -69 -298 -69q-198 0 -318 86q-102 72 -102 194
q0 114 85 180q46 35 123 62q-103 39 -103 112q0 66 75 110q39 23 99 46q-203 73 -203 281q0 170 122 262q87 65 218 65q70 0 141 -19zM480 889q-88 0 -152 -57q-73 -66 -73 -176q0 -102 63 -161t159 -59t156 55q64 59 64 163q0 94 -53 159q-61 76 -164 76zM481 47
q-132 0 -213 -40q-98 -50 -98 -143q0 -82 83 -133q87 -53 236 -53q183 0 265 72q54 48 54 115q0 182 -327 182zM253 1409h78q12 -59 41 -98q50 -68 126 -68t125 67q27 38 39 99h79q-7 -71 -30 -124q-62 -146 -211 -146t-216 147q-25 53 -31 123z" />
    <glyph glyph-name="Gdot" unicode="&#x120;" horiz-adv-x="1260" vert-adv-y="2308" 
d="M734 669h392v-559q-184 -133 -433 -133q-233 0 -368 129q-210 200 -210 584q0 361 199 561q136 137 349 137q220 0 347 -143q73 -84 98 -235h-114q-34 127 -92 185q-89 88 -243 88q-162 0 -261 -108q-156 -169 -156 -485q0 -174 54 -326q56 -159 184 -232q88 -50 214 -50
q160 0 320 88v387h-280v112zM669 1745q47 0 82 -34q34 -35 34 -83q0 -49 -34 -83q-35 -35 -83 -35q-49 0 -83 35q-35 34 -35 82q0 50 35 84t84 34z" />
    <glyph glyph-name="gdot" unicode="&#x121;" horiz-adv-x="958" vert-adv-y="2308" 
d="M911 969v-85l-199 5q96 -83 96 -237q0 -143 -87 -217q-38 -33 -101 -55q-28 -10 -131 -37q-93 -25 -141 -48q-60 -29 -60 -71q0 -25 27 -40q23 -13 161 -26q149 -14 200 -26q238 -54 238 -259q0 -146 -129 -224q-114 -69 -298 -69q-198 0 -318 86q-102 72 -102 194
q0 114 85 180q46 35 123 62q-103 39 -103 112q0 66 75 110q39 23 99 46q-203 73 -203 281q0 170 122 262q87 65 218 65q70 0 141 -19zM480 889q-88 0 -152 -57q-73 -66 -73 -176q0 -102 63 -161t159 -59t156 55q64 59 64 163q0 94 -53 159q-61 76 -164 76zM481 47
q-132 0 -213 -40q-98 -50 -98 -143q0 -82 83 -133q87 -53 236 -53q183 0 265 72q54 48 54 115q0 182 -327 182zM499 1378q39 0 67 -29q29 -28 29 -68t-29 -69t-68 -29q-41 0 -69 29q-29 29 -29 68q0 42 29 69q29 29 70 29z" />
    <glyph glyph-name="Gcedilla" unicode="&#x122;" horiz-adv-x="1260" vert-adv-y="2308" 
d="M734 669h392v-559q-184 -133 -433 -133q-254 0 -396 153q-182 197 -182 554q0 352 173 543q67 73 162 115q103 46 223 46q218 0 337 -143q77 -91 98 -235h-114q-33 126 -93 185q-89 88 -232 88q-184 0 -289 -128q-138 -169 -138 -471q0 -337 166 -499q105 -103 285 -103
q161 0 321 88v387h-280v112zM635 -487h-88q119 109 132 194q-12 -2 -18 -2q-35 0 -61 29q-24 26 -24 61q0 44 32 72q28 24 67 24q42 0 72 -31q32 -32 32 -89q0 -118 -144 -258z" />
    <glyph glyph-name="gcedilla" unicode="&#x123;" horiz-adv-x="958" vert-adv-y="2308" 
d="M911 969v-85l-199 5q96 -83 96 -237q0 -143 -87 -217q-38 -33 -101 -55q-28 -10 -131 -37q-93 -25 -141 -48q-60 -29 -60 -71q0 -25 27 -40q23 -13 161 -26q149 -14 200 -26q238 -54 238 -259q0 -146 -129 -224q-114 -69 -298 -69q-198 0 -318 86q-102 72 -102 194
q0 114 85 180q46 35 123 62q-103 39 -103 112q0 66 75 110q39 23 99 46q-203 73 -203 281q0 170 122 262q87 65 218 65q70 0 141 -19zM480 889q-88 0 -152 -57q-73 -66 -73 -176q0 -102 63 -161t159 -59t156 55q64 59 64 163q0 94 -53 159q-61 76 -164 76zM481 47
q-132 0 -213 -40q-98 -50 -98 -143q0 -82 83 -133q87 -53 236 -53q183 0 265 72q54 48 54 115q0 182 -327 182zM538 1516h85q-114 -105 -128 -188q12 1 17 1q35 0 61 -28q23 -25 23 -60q0 -42 -32 -70q-27 -23 -64 -23q-42 0 -71 30q-31 31 -31 87q0 114 140 251z" />
    <glyph glyph-name="Hcircumflex" unicode="&#x124;" horiz-adv-x="1267" vert-adv-y="2308" 
d="M296 763h676v602h116v-1365h-116v666h-676v-666h-116v1365h116v-602zM297 1496l261 262h152l260 -262h-109l-227 188l-227 -188h-110z" />
    <glyph glyph-name="Hbar" unicode="&#x126;" horiz-adv-x="1267" vert-adv-y="2308" 
d="M971 1098v267h116v-267h137v-96h-137v-1002h-116v666h-675v-666h-116v1002h-137v96h137v267h116v-267h675zM971 1002h-675v-239h675v239z" />
    <glyph glyph-name="hbar" unicode="&#x127;" horiz-adv-x="992" vert-adv-y="2308" 
d="M154 1371h106v-147h273v-89h-273v-281q40 54 78 81q84 61 201 61q179 0 259 -124q33 -51 42 -139q4 -45 4 -177v-556h-106v563q0 102 -4 142q-20 194 -205 194q-145 0 -219 -119q-50 -81 -50 -235v-545h-106v1135h-123v89h123v147z" />
    <glyph glyph-name="Imacron" unicode="&#x12a;" horiz-adv-x="476" vert-adv-y="2308" 
d="M299 0h-122v1365h122v-1365zM0 1672h475v-92h-475v92z" />
    <glyph glyph-name="imacron" unicode="&#x12b;" horiz-adv-x="424" vert-adv-y="2308" 
d="M153 969h117v-969h-117v969zM-8 1328h439v-95h-439v95z" />
    <glyph glyph-name="ibreve" unicode="&#x12d;" horiz-adv-x="424" vert-adv-y="2308" 
d="M154 969h117v-969h-117v969zM-19 1396h78q10 -52 33 -85q46 -69 123 -69q73 0 118 67q23 35 33 87h78q-25 -258 -226 -258q-152 0 -213 148q-19 46 -24 110z" />
    <glyph glyph-name="Iogonek" unicode="&#x12e;" horiz-adv-x="476" vert-adv-y="2308" 
d="M362 -360q-56 -21 -95 -21q-53 0 -95 28q-77 50 -77 140q0 77 66 150q20 22 66 63h-50v1365h122v-1365q-20 -26 -50 -84q-34 -62 -34 -112q0 -53 39 -77q19 -11 46 -11q13 0 62 12v-88z" />
    <glyph glyph-name="iogonek" unicode="&#x12f;" horiz-adv-x="424" vert-adv-y="2308" 
d="M271 0q-76 -109 -76 -175q0 -50 38 -76q20 -14 46 -14q22 0 64 14v-85q-50 -19 -84 -19q-52 0 -97 26q-40 24 -63 65q-19 34 -19 68q0 94 121 196h-47v969h117v-969zM213 1381q33 0 58 -20q32 -27 32 -72q0 -33 -21 -57q-25 -32 -69 -32q-38 0 -64 25q-27 25 -27 64
q0 41 28 67q26 25 63 25z" />
    <glyph glyph-name="Idot" unicode="&#x130;" horiz-adv-x="476" vert-adv-y="2308" 
d="M299 0h-122v1365h122v-1365zM240 1745q47 0 82 -34q34 -35 34 -83q0 -49 -34 -83q-35 -35 -83 -35q-49 0 -83 35q-35 34 -35 82q0 50 35 84t84 34z" />
    <glyph glyph-name="IJ" unicode="&#x132;" horiz-adv-x="1019" vert-adv-y="2308" 
d="M299 0h-122v1365h122v-1365zM720 1365h122v-1089q0 -134 -7 -184q-15 -116 -107 -178q-93 -62 -224 -62q-14 0 -44 1v103q15 -1 22 -1q142 0 199 77q32 42 37 122q2 35 2 124v1087z" />
    <glyph glyph-name="ij" unicode="&#x133;" horiz-adv-x="916" vert-adv-y="2308" 
d="M154 969h117v-969h-117v969zM213 1381q33 0 58 -20q32 -27 32 -72q0 -33 -20 -57q-26 -32 -70 -32q-38 0 -64 25q-27 25 -27 64q0 41 28 67q26 25 63 25zM646 969h117v-903q0 -153 -9 -212q-22 -133 -112 -190q-79 -51 -214 -51q-22 0 -60 1v97q23 -2 36 -2q155 0 206 82
q27 44 33 128q3 54 3 147v903zM704 1381q33 0 58 -20q32 -27 32 -72q0 -33 -20 -57q-26 -32 -70 -32q-38 0 -64 25q-27 25 -27 64q0 41 28 67q26 25 63 25z" />
    <glyph glyph-name="Kcedilla" unicode="&#x136;" horiz-adv-x="1099" vert-adv-y="2308" 
d="M870 1365h147l-573 -650l633 -715h-169l-609 713zM180 1365h116v-1365h-116v1365zM554 -487h-88q119 109 132 194q-12 -2 -18 -2q-35 0 -61 29q-24 26 -24 61q0 44 32 72q28 24 67 24q42 0 72 -31q32 -32 32 -89q0 -118 -144 -258z" />
    <glyph glyph-name="kcedilla" unicode="&#x137;" horiz-adv-x="949" vert-adv-y="2308" 
d="M690 969h131l-418 -432l448 -537h-151l-436 532zM154 1371h106v-1371h-106v1371zM434 -476h-85q114 104 128 188q-12 -2 -18 -2q-33 0 -59 28q-23 25 -23 60q0 42 32 70q26 23 63 23q42 0 71 -30q31 -32 31 -87q0 -115 -140 -250z" />
    <glyph glyph-name="kgreenlandic" unicode="&#x138;" horiz-adv-x="949" vert-adv-y="2308" 
d="M690 969h131l-418 -432l448 -537h-151l-436 532zM154 969h106v-969h-106v969z" />
    <glyph glyph-name="Lacute" unicode="&#x139;" horiz-adv-x="946" vert-adv-y="2308" 
d="M180 1365h122v-1263h581v-102h-703v1365zM153 1496l264 262h170l-315 -262h-119z" />
    <glyph glyph-name="lacute" unicode="&#x13a;" horiz-adv-x="424" vert-adv-y="2308" 
d="M154 1371h117v-1371h-117v1371zM140 1496l196 263h170l-270 -263h-96z" />
    <glyph glyph-name="Lcedilla" unicode="&#x13b;" horiz-adv-x="946" vert-adv-y="2308" 
d="M180 1365h122v-1263h581v-102h-703v1365zM497 -487h-88q119 109 132 194q-12 -2 -18 -2q-35 0 -61 29q-24 26 -24 61q0 44 32 72q28 24 67 24q42 0 72 -31q32 -32 32 -89q0 -118 -144 -258z" />
    <glyph glyph-name="lcedilla" unicode="&#x13c;" horiz-adv-x="424" vert-adv-y="2308" 
d="M154 1371h117v-1371h-117v1371zM171 -476h-85q114 104 128 188q-12 -2 -18 -2q-33 0 -59 28q-23 25 -23 60q0 42 32 70q26 23 63 23q42 0 71 -30q31 -32 31 -87q0 -115 -140 -250z" />
    <glyph glyph-name="Lcaron" unicode="&#x13d;" horiz-adv-x="946" vert-adv-y="2308" 
d="M180 1365h122v-1263h581v-102h-703v1365zM566 1015h-88q119 109 132 193q-11 -1 -17 -1q-36 0 -62 29q-24 25 -24 61q0 43 32 71q28 24 67 24q42 0 72 -31q32 -32 32 -89q0 -117 -144 -257z" />
    <glyph glyph-name="lcaron" unicode="&#x13e;" horiz-adv-x="536" vert-adv-y="2308" 
d="M154 1371h117v-1371h-117v1371zM438 1026h-85q114 104 128 188q-11 -2 -17 -2q-34 0 -60 28q-23 25 -23 60q0 42 32 69q26 23 63 23q42 0 71 -30q31 -31 31 -87q0 -115 -140 -249z" />
    <glyph glyph-name="Ldot" unicode="&#x13f;" horiz-adv-x="946" vert-adv-y="2308" 
d="M180 1365h122v-1263h581v-102h-703v1365zM698 808q48 0 84 -36q34 -34 34 -83q0 -50 -36 -85q-35 -34 -83 -34q-49 0 -84 35t-35 83q0 50 34 84q35 36 86 36z" />
    <glyph glyph-name="ldot" unicode="&#x140;" horiz-adv-x="620" vert-adv-y="2308" 
d="M153 1371h117v-1371h-117v1371zM514 820q43 0 75 -32q30 -30 30 -74t-32 -75q-31 -30 -74 -30t-74 31t-31 74q0 44 30 74q32 32 76 32z" />
    <glyph glyph-name="Lslash" unicode="&#x141;" horiz-adv-x="946" vert-adv-y="2308" 
d="M180 694v671h122v-607l299 225v-117l-299 -224v-540h581v-102h-703v577l-137 -102v117z" />
    <glyph glyph-name="lslash" unicode="&#x142;" horiz-adv-x="424" vert-adv-y="2308" 
d="M154 743v628h117v-570l148 108v-105l-148 -108v-696h-117v638l-149 -109v105z" />
    <glyph glyph-name="Nacute" unicode="&#x143;" horiz-adv-x="1285" vert-adv-y="2308" 
d="M180 1365h129l688 -1195v1195h108v-1365h-135l-680 1191v-1191h-110v1365zM511 1496l264 262h170l-315 -262h-119z" />
    <glyph glyph-name="nacute" unicode="&#x144;" horiz-adv-x="1005" vert-adv-y="2308" 
d="M131 969h103q20 -55 20 -146q96 173 298 173q141 0 222 -75q67 -62 78 -178q5 -47 5 -187v-556h-106v563q0 107 -4 142q-11 103 -60 147q-53 48 -143 48q-148 0 -229 -119q-55 -82 -55 -225v-556h-106v645q0 193 -6 241q-5 37 -17 83zM374 1144l196 263h170l-270 -263
h-96z" />
    <glyph glyph-name="Ncedilla" unicode="&#x145;" horiz-adv-x="1285" vert-adv-y="2308" 
d="M180 1365h129l688 -1195v1195h108v-1365h-135l-680 1191v-1191h-110v1365zM587 -487h-88q119 109 132 194q-12 -2 -18 -2q-35 0 -61 29q-24 26 -24 61q0 44 32 72q28 24 67 24q42 0 72 -31q32 -32 32 -89q0 -118 -144 -258z" />
    <glyph glyph-name="ncedilla" unicode="&#x146;" horiz-adv-x="1005" vert-adv-y="2308" 
d="M131 969h103q20 -55 20 -146q96 173 298 173q141 0 222 -75q67 -62 78 -178q5 -47 5 -187v-556h-106v563q0 107 -4 142q-11 103 -60 147q-53 48 -143 48q-148 0 -229 -119q-55 -82 -55 -225v-556h-106v645q0 193 -6 241q-5 37 -17 83zM466 -476h-85q114 104 128 188
q-12 -2 -18 -2q-33 0 -59 28q-23 25 -23 60q0 42 32 70q26 23 63 23q42 0 71 -30q31 -32 31 -87q0 -115 -140 -250z" />
    <glyph glyph-name="Ncaron" unicode="&#x147;" horiz-adv-x="1285" vert-adv-y="2308" 
d="M180 1365h129l688 -1195v1195h108v-1365h-135l-680 1191v-1191h-110v1365zM979 1758l-261 -262h-151l-261 262h109l228 -188l227 188h109z" />
    <glyph glyph-name="ncaron" unicode="&#x148;" horiz-adv-x="1005" vert-adv-y="2308" 
d="M131 969h103q20 -55 20 -146q96 173 298 173q141 0 222 -75q67 -62 78 -178q5 -47 5 -187v-556h-106v563q0 107 -4 142q-11 103 -60 147q-53 48 -143 48q-148 0 -229 -119q-55 -82 -55 -225v-556h-106v645q0 193 -6 241q-5 37 -17 83zM783 1424l-227 -279h-152l-226 279
h109l193 -199l193 199h110z" />
    <glyph glyph-name="napostrophe" unicode="&#x149;" horiz-adv-x="1211" vert-adv-y="2308" 
d="M208 938h-129q143 131 160 240q-12 -1 -18 -1q-42 0 -72 32q-27 30 -27 70q0 50 37 82q32 27 75 27q49 0 83 -35q36 -37 36 -103q0 -144 -145 -312zM337 969h104q19 -56 19 -146q96 173 298 173q141 0 221 -75q67 -62 79 -178q4 -47 4 -187v-556h-106v563q0 107 -4 142
q-11 103 -60 147q-53 48 -143 48q-148 0 -228 -119q-55 -83 -55 -225v-556h-106v645q0 191 -6 241q-4 36 -17 83z" />
    <glyph glyph-name="Eng" unicode="&#x14a;" horiz-adv-x="1164" vert-adv-y="2308" 
d="M152 1388h111q25 -69 25 -172q40 62 94 99q104 73 247 73q156 0 253 -82q76 -65 95 -170q13 -67 13 -187v-912q0 -135 -7 -184q-16 -117 -106 -178q-94 -62 -225 -62q-15 0 -44 1v103q129 -1 193 44q61 42 71 125q4 40 4 153v916q0 153 -41 220q-66 108 -224 108
q-170 0 -258 -118q-36 -50 -49 -112q-10 -47 -10 -127v-926h-114v1038q0 204 -7 258q-5 35 -21 92z" />
    <glyph glyph-name="eng" unicode="&#x14b;" horiz-adv-x="1002" vert-adv-y="2308" 
d="M128 969h103q20 -55 20 -146q97 173 298 173q141 0 222 -75q67 -62 78 -178q5 -47 5 -187v-490q0 -153 -10 -211q-39 -242 -325 -242q-22 0 -60 1v97q21 -2 38 -2q160 0 213 82q29 45 34 129q4 53 4 146v497q0 107 -4 142q-11 103 -60 147q-53 48 -143 48
q-148 0 -229 -119q-55 -82 -55 -225v-556h-106v645q0 193 -6 241q-5 37 -17 83z" />
    <glyph glyph-name="Omacron" unicode="&#x14c;" horiz-adv-x="1305" vert-adv-y="2308" 
d="M660 1388q147 0 271 -90q135 -99 204 -287q54 -149 54 -329q0 -311 -156 -515q-75 -98 -184 -148q-92 -42 -197 -42q-154 0 -278 90q-135 98 -204 287q-54 148 -54 326q0 318 156 518q148 190 388 190zM646 1283q-110 0 -201 -73q-108 -86 -162 -258q-40 -125 -40 -270
q0 -255 117 -434q109 -166 292 -166t292 166q117 179 117 432q0 263 -117 437q-112 166 -298 166zM367 1672h571v-92h-571v92z" />
    <glyph glyph-name="omacron" unicode="&#x14d;" horiz-adv-x="1010" vert-adv-y="2308" 
d="M510 997q162 0 272 -123q128 -144 128 -389q0 -243 -128 -387q-109 -122 -277 -122t-277 122q-128 144 -128 385q0 247 128 391q110 123 282 123zM502 900q-122 0 -198 -100q-92 -120 -92 -315q0 -194 92 -314q76 -98 201 -98q127 0 202 98q92 121 92 312q0 198 -92 317
q-77 100 -205 100zM220 1328h548v-95h-548v95z" />
    <glyph glyph-name="Odblacute" unicode="&#x150;" horiz-adv-x="1305" vert-adv-y="2308" 
d="M660 1388q147 0 271 -90q135 -99 204 -287q54 -149 54 -329q0 -311 -156 -515q-75 -98 -184 -148q-92 -42 -197 -42q-154 0 -278 90q-135 98 -204 287q-54 148 -54 326q0 318 156 518q148 190 388 190zM646 1283q-110 0 -201 -73q-108 -86 -162 -258q-40 -125 -40 -270
q0 -255 117 -434q109 -166 292 -166t292 166q117 179 117 432q0 263 -117 437q-112 166 -298 166zM489 1496l196 262h136l-230 -262h-102zM701 1496l196 262h136l-230 -262h-102z" />
    <glyph glyph-name="odblacute" unicode="&#x151;" horiz-adv-x="1010" vert-adv-y="2308" 
d="M510 997q162 0 272 -123q128 -144 128 -389q0 -243 -128 -387q-109 -122 -277 -122t-277 122q-128 144 -128 385q0 247 128 391q110 123 282 123zM502 900q-122 0 -198 -100q-92 -120 -92 -315q0 -194 92 -314q76 -98 201 -98q127 0 202 98q92 121 92 312q0 198 -92 317
q-77 100 -205 100zM354 1143l173 263h136l-207 -263h-102zM566 1143l173 263h136l-207 -263h-102z" />
    <glyph glyph-name="Racute" unicode="&#x154;" horiz-adv-x="1130" vert-adv-y="2308" 
d="M180 1365h207q145 0 213 -6q182 -16 276 -105q104 -99 104 -263q0 -271 -294 -368l375 -623h-145l-367 606h-253v-606h-116v1365zM296 708h96q131 0 186 5q275 26 275 279q0 119 -66 188q-59 62 -170 75q-71 8 -222 8h-99v-555zM396 1496l264 262h170l-315 -262h-119z
" />
    <glyph glyph-name="racute" unicode="&#x155;" horiz-adv-x="635" vert-adv-y="2308" 
d="M139 969h101q17 -77 17 -148q0 -20 -3 -62q96 237 242 237q66 0 132 -34v-106q-81 36 -126 36q-80 0 -146 -85q-55 -72 -76 -164q-17 -78 -17 -214v-429h-109v623q0 238 -15 346zM257 1144l196 263h170l-270 -263h-96z" />
    <glyph glyph-name="Rcedilla" unicode="&#x156;" horiz-adv-x="1130" vert-adv-y="2308" 
d="M180 1365h207q145 0 213 -6q182 -16 276 -105q104 -99 104 -263q0 -271 -294 -368l375 -623h-145l-367 606h-253v-606h-116v1365zM296 708h96q131 0 186 5q275 26 275 279q0 119 -66 188q-59 62 -170 75q-71 8 -222 8h-99v-555zM551 -487h-88q119 109 132 194
q-12 -2 -18 -2q-35 0 -61 29q-24 26 -24 61q0 44 32 72q28 24 67 24q42 0 72 -31q32 -32 32 -89q0 -118 -144 -258z" />
    <glyph glyph-name="rcedilla" unicode="&#x157;" horiz-adv-x="635" vert-adv-y="2308" 
d="M138 969h101q17 -77 17 -148q0 -20 -3 -62q96 237 242 237q66 0 132 -34v-106q-81 36 -126 36q-80 0 -146 -85q-55 -72 -76 -164q-17 -78 -17 -214v-429h-109v623q0 238 -15 346zM171 -476h-85q114 104 128 188q-12 -2 -18 -2q-33 0 -59 28q-23 25 -23 60q0 42 32 70
q26 23 63 23q42 0 71 -30q31 -32 31 -87q0 -115 -140 -250z" />
    <glyph glyph-name="Rcaron" unicode="&#x158;" horiz-adv-x="1130" vert-adv-y="2308" 
d="M180 1365h207q145 0 213 -6q182 -16 276 -105q104 -99 104 -263q0 -271 -294 -368l375 -623h-145l-367 606h-253v-606h-116v1365zM296 708h96q131 0 186 5q275 26 275 279q0 119 -66 188q-59 62 -170 75q-71 8 -222 8h-99v-555zM868 1758l-261 -262h-151l-261 262h109
l228 -188l227 188h109z" />
    <glyph glyph-name="rcaron" unicode="&#x159;" horiz-adv-x="635" vert-adv-y="2308" 
d="M138 969h101q17 -77 17 -148q0 -20 -3 -62q96 237 242 237q66 0 132 -34v-106q-81 36 -126 36q-80 0 -146 -85q-55 -72 -76 -164q-17 -78 -17 -214v-429h-109v623q0 238 -15 346zM672 1424l-227 -279h-152l-226 279h109l193 -199l193 199h110z" />
    <glyph glyph-name="Sacute" unicode="&#x15a;" horiz-adv-x="1109" vert-adv-y="2308" 
d="M940 1028h-114q-12 112 -69 173q-77 82 -211 82q-107 0 -178 -55q-88 -67 -88 -172q0 -96 86 -158q45 -33 97 -57l152 -71q222 -103 287 -185q78 -97 78 -229q0 -189 -148 -296q-115 -83 -283 -83q-226 0 -341 142q-82 100 -92 281h116q7 -135 69 -212q41 -50 109 -78
t144 -28q132 0 218 74q86 75 86 193q0 107 -78 179q-53 50 -204 119q-219 101 -279 144q-136 98 -136 257q0 156 122 253q109 87 271 87q215 0 320 -147q59 -82 66 -213zM420 1496l264 262h170l-315 -262h-119z" />
    <glyph glyph-name="sacute" unicode="&#x15b;" horiz-adv-x="865" vert-adv-y="2308" 
d="M757 711h-104q-10 92 -54 135q-55 54 -159 54q-95 0 -153 -50q-49 -43 -49 -112q0 -64 45 -99q43 -34 177 -74q150 -45 201 -75q116 -68 116 -217q0 -127 -82 -207q-92 -90 -255 -90q-213 0 -299 132q-46 72 -46 183h105q20 -218 240 -218q96 0 157 47q67 51 67 142
q0 84 -60 126q-27 19 -75 36q-15 5 -146 46q-147 46 -200 106q-56 64 -56 158q0 130 102 200q89 62 213 62q101 0 179 -41q128 -67 136 -244zM336 1144l196 263h170l-270 -263h-96z" />
    <glyph glyph-name="Scircumflex" unicode="&#x15c;" horiz-adv-x="1109" vert-adv-y="2308" 
d="M940 1028h-114q-12 112 -69 173q-77 82 -211 82q-107 0 -178 -55q-88 -67 -88 -172q0 -96 86 -158q45 -33 97 -57l152 -71q222 -103 287 -185q78 -97 78 -229q0 -189 -148 -296q-115 -83 -283 -83q-226 0 -341 142q-82 100 -92 281h116q7 -135 69 -212q41 -50 109 -78
t144 -28q132 0 218 74q86 75 86 193q0 107 -78 179q-53 50 -204 119q-219 101 -279 144q-136 98 -136 257q0 156 122 253q109 87 271 87q215 0 320 -147q59 -82 66 -213zM218 1496l261 262h152l260 -262h-109l-227 188l-227 -188h-110z" />
    <glyph glyph-name="scircumflex" unicode="&#x15d;" horiz-adv-x="865" vert-adv-y="2308" 
d="M757 711h-104q-10 92 -54 135q-55 54 -159 54q-95 0 -153 -50q-49 -43 -49 -112q0 -64 45 -99q43 -34 177 -74q150 -45 201 -75q116 -68 116 -217q0 -127 -82 -207q-92 -90 -255 -90q-213 0 -299 132q-46 72 -46 183h105q20 -218 240 -218q96 0 157 47q67 51 67 142
q0 84 -60 126q-27 19 -75 36q-15 5 -146 46q-147 46 -200 106q-56 64 -56 158q0 130 102 200q89 62 213 62q101 0 179 -41q128 -67 136 -244zM147 1145l226 279h152l226 -279h-109l-193 199l-193 -199h-109z" />
    <glyph glyph-name="Scedilla" unicode="&#x15e;" horiz-adv-x="1109" vert-adv-y="2308" 
d="M562 -23l-51 -121q186 -18 186 -159q0 -78 -61 -126q-53 -43 -146 -43q-69 0 -146 26v77q64 -18 104 -18q45 0 74 18q45 27 45 78q0 57 -60 79q-32 11 -107 14l76 180q-115 12 -199 72q-155 112 -161 346h116q6 -136 69 -212q41 -50 109 -78t144 -28q132 0 218 74
q86 75 86 193q0 107 -78 179q-53 49 -204 119q-219 102 -279 144q-136 98 -136 257q0 156 122 253q109 87 271 87q215 0 320 -147q59 -82 66 -213h-115q-12 112 -68 173q-77 82 -211 82q-107 0 -178 -55q-88 -67 -88 -172q0 -96 86 -158q45 -33 97 -57l152 -71
q222 -103 287 -185q78 -96 78 -229q0 -149 -97 -251q-118 -123 -321 -128z" />
    <glyph glyph-name="scedilla" unicode="&#x15f;" horiz-adv-x="865" vert-adv-y="2308" 
d="M464 -24l-50 -98q172 -21 172 -143q0 -74 -59 -119q-50 -39 -133 -39q-73 0 -143 28v71q68 -19 103 -19q43 0 70 16q41 25 41 75q0 54 -58 76q-32 12 -100 16l73 140q-115 12 -188 74q-97 84 -94 237h105q20 -219 239 -219q97 0 157 47q68 52 68 142q0 84 -60 127
q-27 18 -75 36q-16 5 -146 46q-147 46 -200 106q-56 64 -56 158q0 130 101 200q90 62 214 62q100 0 179 -41q128 -67 136 -244h-104q-10 92 -54 135q-55 54 -159 54q-95 0 -154 -50q-48 -43 -48 -112q0 -64 45 -99q43 -34 177 -74q150 -45 200 -75q117 -68 117 -217
q0 -176 -146 -254q-68 -37 -170 -43z" />
    <glyph glyph-name="Scaron" unicode="&#x160;" horiz-adv-x="1109" vert-adv-y="2308" 
d="M940 1028h-114q-12 112 -69 173q-77 82 -211 82q-107 0 -178 -55q-88 -67 -88 -172q0 -96 86 -158q45 -33 97 -57l152 -71q222 -103 287 -185q78 -97 78 -229q0 -189 -148 -296q-115 -83 -283 -83q-226 0 -341 142q-82 100 -92 281h116q7 -135 69 -212q41 -50 109 -78
t144 -28q132 0 218 74q86 75 86 193q0 107 -78 179q-53 50 -204 119q-219 101 -279 144q-136 98 -136 257q0 156 122 253q109 87 271 87q215 0 320 -147q59 -82 66 -213zM891 1758l-261 -262h-151l-261 262h109l228 -188l227 188h109z" />
    <glyph glyph-name="scaron" unicode="&#x161;" horiz-adv-x="865" vert-adv-y="2308" 
d="M757 711h-104q-10 92 -54 135q-55 54 -159 54q-95 0 -153 -50q-49 -43 -49 -112q0 -64 45 -99q43 -34 177 -74q150 -45 201 -75q116 -68 116 -217q0 -127 -82 -207q-92 -90 -255 -90q-213 0 -299 132q-46 72 -46 183h105q20 -218 240 -218q96 0 157 47q67 51 67 142
q0 84 -60 126q-27 19 -75 36q-15 5 -146 46q-147 46 -200 106q-56 64 -56 158q0 130 102 200q89 62 213 62q101 0 179 -41q128 -67 136 -244zM749 1424l-227 -279h-152l-226 279h109l193 -199l193 199h110z" />
    <glyph glyph-name="Tcedilla" unicode="&#x162;" horiz-adv-x="921" vert-adv-y="2308" 
d="M49 1365h824v-102h-354v-1263h-116v1263h-354v102zM419 -487h-88q119 109 132 194q-12 -2 -18 -2q-35 0 -61 29q-24 26 -24 61q0 44 32 72q28 24 67 24q42 0 72 -31q32 -32 32 -89q0 -118 -144 -258z" />
    <glyph glyph-name="tcedilla" unicode="&#x163;" horiz-adv-x="612" vert-adv-y="2308" 
d="M310 969h242v-89h-243l-10 -530q-2 -104 -2 -115q0 -100 23 -127q28 -34 85 -34q72 0 143 33v-100q-79 -26 -158 -26q-109 0 -163 52q-42 40 -42 138q0 39 3 107q3 53 3 77l12 525h-145v89h146l5 280h106zM298 -476h-85q114 104 128 188q-12 -2 -18 -2q-33 0 -59 28
q-23 25 -23 60q0 42 32 70q26 23 63 23q42 0 71 -30q31 -32 31 -87q0 -115 -140 -250z" />
    <glyph glyph-name="Tcaron" unicode="&#x164;" horiz-adv-x="921" vert-adv-y="2308" 
d="M49 1365h824v-102h-354v-1263h-116v1263h-354v102zM798 1758l-261 -262h-151l-261 262h109l228 -188l227 188h109z" />
    <glyph glyph-name="tcaron" unicode="&#x165;" horiz-adv-x="579" vert-adv-y="2308" 
d="M310 969h242v-89h-243l-10 -530q-2 -104 -2 -115q0 -100 23 -127q28 -34 85 -34q72 0 143 33v-100q-79 -26 -158 -26q-109 0 -163 52q-42 40 -42 138q0 39 3 107q3 53 3 77l12 525h-145v89h146l5 280h106zM480 1079h-85q114 104 128 188q-11 -2 -17 -2q-34 0 -60 28
q-23 25 -23 60q0 42 32 69q26 23 63 23q42 0 71 -30q31 -31 31 -87q0 -115 -140 -249z" />
    <glyph glyph-name="Tbar" unicode="&#x166;" horiz-adv-x="921" vert-adv-y="2308" 
d="M49 1365h824v-102h-354v-383h267v-96h-267v-784h-116v784h-267v96h267v383h-354v102z" />
    <glyph glyph-name="tbar" unicode="&#x167;" horiz-adv-x="612" vert-adv-y="2308" 
d="M310 969h242v-89h-244l-2 -161h241v-89h-243l-5 -280q-2 -107 -2 -115q0 -100 23 -127q27 -34 85 -34q71 0 143 33v-100q-81 -26 -158 -26q-109 0 -163 52q-42 41 -42 135q0 38 3 110q2 47 3 77l7 275h-140v89h142l3 161h-145v89h146l5 280h106z" />
    <glyph glyph-name="utilde" unicode="&#x169;" horiz-adv-x="979" vert-adv-y="2308" 
d="M149 969h106v-605q0 -153 33 -206q54 -85 177 -85q135 0 209 115q46 72 46 223v558h106v-675q0 -129 1 -167q3 -72 21 -127h-107q-21 62 -21 138q-35 -71 -79 -108q-67 -54 -176 -54q-116 0 -197 58q-93 66 -112 184q-7 46 -7 151v600zM266 1163l-76 16q35 211 170 211
q61 0 139 -60q43 -33 74 -51q25 -15 53 -15q71 0 87 131l80 -18q-9 -88 -44 -144q-46 -73 -121 -73q-65 0 -152 66q-81 61 -119 61q-67 0 -91 -124z" />
    <glyph glyph-name="Umacron" unicode="&#x16a;" horiz-adv-x="1246" vert-adv-y="2308" 
d="M159 1365h116v-810q1 -154 6 -200q10 -110 64 -170q53 -60 149 -86q63 -17 129 -17q118 0 208 49q86 46 116 132q22 63 22 186l1 106v810h116v-812q0 -162 -5 -218q-11 -124 -82 -210q-124 -148 -377 -148q-251 0 -375 148q-72 86 -83 210q-5 56 -5 218v812zM337 1672
h571v-92h-571v92z" />
    <glyph glyph-name="umacron" unicode="&#x16b;" horiz-adv-x="979" vert-adv-y="2308" 
d="M149 969h106v-605q0 -153 33 -206q54 -85 177 -85q135 0 209 115q46 72 46 223v558h106v-675q0 -129 1 -167q3 -72 21 -127h-107q-21 62 -21 138q-35 -71 -79 -108q-67 -54 -176 -54q-116 0 -197 58q-93 66 -112 184q-7 46 -7 151v600zM211 1328h548v-95h-548v95z" />
    <glyph glyph-name="ubreve" unicode="&#x16d;" horiz-adv-x="979" vert-adv-y="2308" 
d="M149 969h106v-605q0 -153 33 -206q54 -85 177 -85q135 0 209 115q46 72 46 223v558h106v-675q0 -129 1 -167q3 -72 21 -127h-107q-21 62 -21 138q-35 -71 -79 -108q-67 -54 -176 -54q-116 0 -197 58q-93 66 -112 184q-7 46 -7 151v600zM246 1409h79q12 -59 40 -98
q51 -68 126 -68q77 0 125 67q28 38 40 99h78q-7 -71 -29 -124q-63 -146 -211 -146q-149 0 -217 147q-24 53 -31 123z" />
    <glyph glyph-name="Uring" unicode="&#x16e;" horiz-adv-x="1246" vert-adv-y="2308" 
d="M159 1365h116v-810q1 -154 6 -200q10 -110 64 -170q53 -60 149 -86q63 -17 129 -17q118 0 208 49q86 46 116 132q22 63 22 186l1 106v810h116v-812q0 -162 -5 -218q-11 -124 -82 -210q-124 -148 -377 -148q-251 0 -375 148q-72 86 -83 210q-5 56 -5 218v812zM625 1828
q74 0 128 -54t54 -130t-54 -130t-130 -54t-130 54t-54 130q0 77 54 130q55 54 132 54zM622 1746q-41 0 -71 -30t-30 -72t30 -72t72 -30t72 30t30 72q0 43 -30 72q-31 30 -73 30z" />
    <glyph glyph-name="uring" unicode="&#x16f;" horiz-adv-x="979" vert-adv-y="2308" 
d="M149 969h106v-605q0 -153 33 -206q54 -85 177 -85q135 0 209 115q46 72 46 223v558h106v-675q0 -129 1 -167q3 -72 21 -127h-107q-21 62 -21 138q-35 -71 -79 -108q-67 -54 -176 -54q-116 0 -197 58q-93 66 -112 184q-7 46 -7 151v600zM492 1480q74 0 128 -54t54 -130
t-54 -130t-130 -54t-130 54q-54 55 -54 130q0 77 54 130q55 54 132 54zM489 1398q-41 0 -71 -30t-30 -72t30 -72t72 -30t72 30t30 72q0 43 -30 72q-30 30 -73 30z" />
    <glyph glyph-name="Udblacute" unicode="&#x170;" horiz-adv-x="1246" vert-adv-y="2308" 
d="M159 1365h116v-810q1 -154 6 -200q10 -110 64 -170q53 -60 149 -86q63 -17 129 -17q118 0 208 49q86 46 116 132q22 63 22 186l1 106v810h116v-812q0 -162 -5 -218q-11 -124 -82 -210q-124 -148 -377 -148q-251 0 -375 148q-72 86 -83 210q-5 56 -5 218v812zM439 1496
l196 262h136l-230 -262h-102zM651 1496l196 262h136l-230 -262h-102z" />
    <glyph glyph-name="udblacute" unicode="&#x171;" horiz-adv-x="979" vert-adv-y="2308" 
d="M149 969h106v-605q0 -153 33 -206q54 -85 177 -85q135 0 209 115q46 72 46 223v558h106v-675q0 -129 1 -167q3 -72 21 -127h-107q-21 62 -21 138q-35 -71 -79 -108q-67 -54 -176 -54q-116 0 -197 58q-93 66 -112 184q-7 46 -7 151v600zM326 1143l173 263h136l-207 -263
h-102zM538 1143l173 263h136l-207 -263h-102z" />
    <glyph glyph-name="Uogonek" unicode="&#x172;" horiz-adv-x="1246" vert-adv-y="2308" 
d="M967 -272v-88q-70 -22 -127 -22q-63 0 -114 28q-45 25 -71 69q-22 38 -22 79q0 72 70 137q23 21 90 70q-89 -24 -169 -24q-253 0 -377 148q-72 86 -83 210q-5 56 -5 218v812h116v-810q1 -154 6 -200q10 -110 64 -170q53 -60 149 -86q63 -17 128 -17q119 0 209 49
q85 46 116 132q23 67 23 292v810h116v-812q0 -152 -5 -218q-10 -113 -76 -203q-39 -51 -122 -129q-63 -59 -94 -102q-32 -42 -32 -82q0 -46 37 -76q33 -27 88 -27q41 0 85 12z" />
    <glyph glyph-name="uogonek" unicode="&#x173;" horiz-adv-x="979" vert-adv-y="2308" 
d="M848 0q-69 -52 -100 -82q-44 -43 -44 -87t35 -70q35 -25 82 -25q40 0 80 13v-85q-63 -18 -111 -18q-63 0 -114 26q-41 21 -66 64q-20 36 -20 77q0 75 71 132q19 15 80 55q-21 62 -21 138q-35 -71 -79 -108q-67 -54 -176 -54q-116 0 -197 58q-93 66 -112 184q-7 46 -7 151
v600h106v-605q0 -153 33 -206q54 -85 177 -85q135 0 209 115q46 72 46 223v558h106v-675q1 -184 6 -228q5 -32 16 -66z" />
    <glyph glyph-name="Wcircumflex" unicode="&#x174;" horiz-adv-x="1528" vert-adv-y="2308" 
d="M43 1365h112l266 -1196l293 1196h101l294 -1196l268 1196h112l-319 -1376h-120l-285 1126l-286 -1126h-120zM431 1496l260 262h152l261 -262h-109l-228 188l-227 -188h-109z" />
    <glyph glyph-name="Ycircumflex" unicode="&#x176;" horiz-adv-x="1014" vert-adv-y="2308" 
d="M32 1365h137l340 -669l336 669h137l-420 -780l3 -585h-116l3 585zM171 1496l260 262h152l261 -262h-110l-227 188l-227 -188h-109z" />
    <glyph glyph-name="ycircumflex" unicode="&#x177;" horiz-adv-x="855" vert-adv-y="2308" 
d="M33 969h115l279 -831l289 831h112l-316 -887q-73 -209 -108 -282q-100 -208 -320 -208q-12 0 -30 1v95q127 -2 188 57q37 38 61 90q27 60 65 166zM128 1145l226 279h152l227 -279h-110l-193 199l-193 -199h-109z" />
    <glyph glyph-name="Zacute" unicode="&#x179;" horiz-adv-x="1003" vert-adv-y="2308" 
d="M106 1365h826v-79l-727 -1184h716v-102h-853v90l720 1173h-682v102zM383 1496l264 262h170l-315 -262h-119z" />
    <glyph glyph-name="zacute" unicode="&#x17a;" horiz-adv-x="796" vert-adv-y="2308" 
d="M84 969h675v-77l-589 -803h572v-89h-698v85l581 795h-541v89zM307 1144l196 263h170l-270 -263h-96z" />
    <glyph glyph-name="Zdot" unicode="&#x17b;" horiz-adv-x="1003" vert-adv-y="2308" 
d="M106 1365h826v-79l-727 -1184h716v-102h-853v90l720 1173h-682v102zM519 1745q47 0 82 -34q34 -35 34 -83q0 -49 -34 -83q-35 -35 -83 -35q-49 0 -83 35q-35 34 -35 82q0 50 35 84t84 34z" />
    <glyph glyph-name="zdot" unicode="&#x17c;" horiz-adv-x="796" vert-adv-y="2308" 
d="M84 969h675v-77l-589 -803h572v-89h-698v85l581 795h-541v89zM424 1378q39 0 67 -29q29 -28 29 -68t-29 -69t-68 -29q-41 0 -69 29q-29 29 -29 68q0 42 29 69q29 29 70 29z" />
    <glyph glyph-name="Zcaron" unicode="&#x17d;" horiz-adv-x="1003" vert-adv-y="2308" 
d="M106 1365h826v-79l-727 -1184h716v-102h-853v90l720 1173h-682v102zM854 1758l-261 -262h-151l-261 262h109l228 -188l227 188h109z" />
    <glyph glyph-name="zcaron" unicode="&#x17e;" horiz-adv-x="796" vert-adv-y="2308" 
d="M84 969h675v-77l-589 -803h572v-89h-698v85l581 795h-541v89zM725 1424l-227 -279h-152l-226 279h109l193 -199l193 199h110z" />
    <glyph glyph-name="uni01CD" unicode="&#x1cd;" horiz-adv-x="1134" vert-adv-y="2308" 
d="M522 1377h90l473 -1377h-122l-134 388h-524l-135 -388h-121zM795 490l-228 720l-229 -720h457zM904 1758l-261 -262h-152l-260 262h109l227 -188l227 188h110z" />
    <glyph glyph-name="uni01CE" unicode="&#x1ce;" horiz-adv-x="949" vert-adv-y="2308" 
d="M244 727h-111q13 115 82 182q90 87 263 87q145 0 233 -69q71 -56 81 -173q4 -45 4 -131v-355l-1 -83q0 -105 26 -185h-106q-18 58 -25 137q-89 -161 -286 -161q-126 0 -207 65q-97 77 -97 213q0 207 228 291q140 52 362 86v51q0 107 -37 152q-53 65 -176 65
q-203 0 -233 -172zM690 546q-214 -42 -318 -87q-160 -69 -160 -201q0 -85 61 -139q53 -46 139 -46q156 0 232 123q46 75 46 240v110zM786 1424l-227 -279h-152l-226 279h109l193 -199l193 199h110z" />
    <glyph glyph-name="Ucaron" unicode="&#x1d3;" horiz-adv-x="1246" vert-adv-y="2308" 
d="M159 1365h116v-810q1 -154 6 -200q10 -110 64 -170q53 -60 149 -86q63 -17 129 -17q118 0 208 49q86 46 116 132q22 63 22 186l1 106v810h116v-812q0 -162 -5 -218q-11 -124 -82 -210q-124 -148 -377 -148q-251 0 -375 148q-72 86 -83 210q-5 56 -5 218v812zM959 1758
l-261 -262h-151l-261 262h109l228 -188l227 188h109z" />
    <glyph glyph-name="ucaron" unicode="&#x1d4;" horiz-adv-x="979" vert-adv-y="2308" 
d="M149 969h106v-605q0 -153 33 -206q54 -85 177 -85q135 0 209 115q46 72 46 223v558h106v-675q0 -129 1 -167q3 -72 21 -127h-107q-21 62 -21 138q-35 -71 -79 -108q-67 -54 -176 -54q-116 0 -197 58q-93 66 -112 184q-7 46 -7 151v600zM787 1424l-227 -279h-152l-226 279
h109l193 -199l193 199h110z" />
    <glyph glyph-name="Gcaron" unicode="&#x1e6;" horiz-adv-x="1260" vert-adv-y="2308" 
d="M734 669h392v-559q-184 -133 -433 -133q-233 0 -368 129q-210 200 -210 584q0 361 199 561q136 137 349 137q220 0 347 -143q73 -84 98 -235h-114q-34 127 -92 185q-89 88 -243 88q-162 0 -261 -108q-156 -169 -156 -485q0 -174 54 -326q56 -159 184 -232q88 -50 214 -50
q160 0 320 88v387h-280v112zM1005 1758l-261 -262h-152l-260 262h109l227 -188l227 188h110z" />
    <glyph glyph-name="gcaron" unicode="&#x1e7;" horiz-adv-x="958" vert-adv-y="2308" 
d="M911 969v-85l-199 5q96 -83 96 -237q0 -143 -87 -217q-38 -33 -101 -55q-28 -10 -131 -37q-93 -25 -141 -48q-60 -29 -60 -71q0 -25 27 -40q23 -13 161 -26q149 -14 200 -26q238 -54 238 -259q0 -146 -129 -224q-114 -69 -298 -69q-198 0 -318 86q-102 72 -102 194
q0 114 85 180q46 35 123 62q-103 39 -103 112q0 66 75 110q39 23 99 46q-203 73 -203 281q0 170 122 262q87 65 218 65q70 0 141 -19zM480 889q-88 0 -152 -57q-73 -66 -73 -176q0 -102 63 -161t159 -59t156 55q64 59 64 163q0 94 -53 159q-61 76 -164 76zM481 47
q-132 0 -213 -40q-98 -50 -98 -143q0 -82 83 -133q87 -53 236 -53q183 0 265 72q54 48 54 115q0 182 -327 182zM798 1424l-227 -279h-151l-227 279h109l194 -199l192 199h110z" />
    <glyph glyph-name="apostroph" unicode="&#x2bc;" horiz-adv-x="480" vert-adv-y="2308" 
d="M208 938h-129q143 131 160 240q-12 -1 -18 -1q-42 0 -72 32q-27 30 -27 70q0 50 37 82q32 27 75 27q49 0 83 -35q36 -37 36 -103q0 -144 -145 -312z" />
    <glyph glyph-name="semicolon" unicode="&#x37e;" horiz-adv-x="480" vert-adv-y="2308" 
d="M229 968q43 0 74 -32q31 -31 31 -74q0 -44 -32 -75q-31 -30 -74 -30t-74 31q-31 30 -31 74t30 74q32 32 76 32zM208 -244h-129q143 132 160 241q-13 -2 -20 -2q-39 0 -70 33q-27 29 -27 70q0 49 37 82q31 27 75 27q49 0 83 -35q36 -37 36 -103q0 -144 -145 -313z" />
    <glyph glyph-name="anoteleia" unicode="&#x387;" horiz-adv-x="526" vert-adv-y="2308" 
d="M263 618q43 0 75 -32q30 -30 30 -74t-32 -75q-31 -30 -74 -30t-74 31t-31 74q0 44 30 74q32 32 76 32z" />
    <glyph glyph-name="Gamma" unicode="&#x393;" horiz-adv-x="1014" vert-adv-y="2308" 
d="M182 0v1365h901v-100h-787v-1265h-114z" />
    <glyph glyph-name="Delta" unicode="&#x394;" horiz-adv-x="1299" vert-adv-y="2308" 
d="M23 0l569 1365h112l571 -1365h-1252zM177 100h942l-471 1136z" />
    <glyph glyph-name="Theta" unicode="&#x398;" horiz-adv-x="1414" vert-adv-y="2308" 
d="M995 764v-96h-576v96h576zM724 1398q304 0 475 -229q85 -114 124 -276q26 -109 26 -223q0 -194 -71 -355q-83 -187 -268 -280q-134 -67 -299 -67q-185 0 -332 83q-175 99 -250 282q-64 160 -64 352q0 175 60 330q150 383 599 383zM698 1302q-277 0 -415 -223
q-101 -161 -101 -400q0 -301 154 -463q143 -152 374 -152q257 0 401 187q70 91 101 234q20 91 20 187q0 170 -61 318q-128 312 -473 312z" />
    <glyph glyph-name="Sigma" unicode="&#x3a3;" horiz-adv-x="1143" vert-adv-y="2308" 
d="M79 0v97l511 594l-509 573v102h964v-96h-823l509 -579l-513 -595h859v-96h-998z" />
    <glyph glyph-name="Phi" unicode="&#x3a6;" horiz-adv-x="1335" vert-adv-y="2308" 
d="M614 -19v171q-175 7 -287 70q-132 75 -200 210q-57 111 -57 250q0 206 121 349q119 141 307 172q41 7 116 10v171h106v-171q104 -4 170 -21t132 -56q126 -76 190 -208q53 -109 53 -245q0 -202 -115 -343q-117 -143 -306 -177q-44 -8 -124 -11v-171h-106zM720 244
q145 9 237 66q195 121 195 373q0 251 -195 372q-80 50 -170 60q-28 3 -67 5v-876zM614 1120q-142 -8 -232 -63q-103 -62 -156 -171q-43 -89 -43 -203q0 -256 200 -376q89 -54 231 -63v876z" />
    <glyph glyph-name="Omega" unicode="&#x3a9;" horiz-adv-x="1407" vert-adv-y="2308" 
d="M48 0v96h421q-413 228 -413 647q0 321 247 517q174 138 400 138t400 -138q247 -196 247 -517q0 -419 -412 -647h420v-96h-548v96q154 87 240 178q184 197 184 460q0 273 -198 449q-142 127 -329 127q-188 0 -329 -116q-206 -169 -206 -459q0 -401 425 -639v-96h-549z" />
    <glyph glyph-name="alpha" unicode="&#x3b1;" horiz-adv-x="1311" vert-adv-y="2308" 
d="M1161 983l-193 -463l232 -520h-118l-170 412q-80 -184 -131 -263q-55 -84 -112 -124q-77 -54 -178 -54q-173 0 -285 149q-116 154 -116 371q0 192 92 336q117 182 317 182q185 0 304 -177q33 -49 107 -203l138 354h113zM871 520q-8 20 -17 42q-53 131 -97 203
q-98 160 -243 160q-147 0 -234 -139q-81 -129 -81 -298q0 -175 88 -304q87 -129 224 -129q154 0 253 198q23 47 107 267z" />
    <glyph glyph-name="beta" unicode="&#x3b2;" horiz-adv-x="966" vert-adv-y="2308" 
d="M112 -355v1296q0 164 22 234q36 118 141 173q87 46 197 46q174 0 271 -110q83 -95 83 -231q0 -188 -172 -277q103 -36 157 -96q95 -108 95 -273q0 -197 -124 -321q-112 -111 -297 -111q-157 0 -267 94v-424h-106zM218 164q104 -105 243 -105q171 0 262 119q74 96 74 234
q0 184 -131 266q-51 31 -135 51v86q70 22 105 50q81 64 81 190q0 121 -73 189q-70 66 -174 66q-125 0 -191 -83q-39 -48 -50 -112q-11 -71 -11 -165v-786z" />
    <glyph glyph-name="delta" unicode="&#x3b4;" horiz-adv-x="1042" vert-adv-y="2308" 
d="M852 1364v-80h-497l372 -302q152 -123 202 -235q53 -120 53 -267q0 -224 -118 -360q-127 -148 -341 -148t-342 148q-121 139 -121 365q0 165 66 286q116 211 352 211q37 0 94 -4l-380 305v81h660zM518 908q-165 0 -263 -133q-86 -118 -86 -295q0 -185 89 -300
q97 -124 265 -124t265 125q85 110 85 289q0 181 -80 300q-92 138 -275 138z" />
    <glyph glyph-name="epsilon" unicode="&#x3b5;" horiz-adv-x="867" vert-adv-y="2308" 
d="M527 559v-84q-36 1 -54 1q-104 0 -169 -20q-62 -18 -102 -73q-36 -50 -36 -112q0 -97 80 -160q69 -55 187 -55q182 0 249 129q27 52 29 126h111q-8 -116 -56 -190q-97 -149 -332 -149q-189 0 -289 95q-88 85 -88 201q0 129 102 203q43 31 119 51q-65 17 -103 45
q-89 66 -89 172q0 137 126 218q87 56 214 56q135 0 229 -65q94 -64 118 -184q6 -32 6 -59q0 -11 -1 -20h-108q1 17 1 26q0 66 -29 115q-60 103 -216 103q-99 0 -162 -53q-65 -55 -65 -136q0 -90 73 -142q56 -40 197 -40q18 0 58 1z" />
    <glyph glyph-name="eta" unicode="&#x3b7;" horiz-adv-x="1025" vert-adv-y="2308" 
d="M217 980v-212q26 81 80 134q109 107 270 107q179 0 279 -117q54 -63 66 -141q8 -54 8 -134v-956h-106v941q0 132 -34 195q-34 64 -102 97q-63 31 -137 31q-125 0 -212 -77q-77 -68 -100 -184q-12 -57 -12 -144v-520h-106v980h106z" />
    <glyph glyph-name="mu" unicode="&#x3bc;" horiz-adv-x="1019" vert-adv-y="2308" 
d="M110 -339v1319h106v-562q0 -123 19 -179q37 -106 136 -152q61 -28 127 -28q139 0 224 109q46 60 65 129q15 55 15 144v539h106v-980h-106v197q-41 -94 -91 -140q-87 -82 -216 -82q-119 0 -204 69q-37 29 -75 88v-471h-106z" />
    <glyph glyph-name="sigma1" unicode="&#x3c2;" horiz-adv-x="919" vert-adv-y="2308" 
d="M708 -344q56 165 56 212q0 48 -29 79q-27 27 -94 49l-221 73q-147 49 -229 136q-124 132 -124 332t120 331q129 141 335 141q196 0 312 -139q61 -74 73 -175h-106q-14 90 -75 149q-83 81 -209 81q-165 0 -261 -123q-75 -96 -75 -243q0 -199 146 -319q46 -37 109 -62
q15 -6 104 -37l135 -45q95 -32 135 -68q63 -55 63 -139q0 -74 -58 -233h-107z" />
    <glyph glyph-name="sigma" unicode="&#x3c3;" horiz-adv-x="1053" vert-adv-y="2308" 
d="M1043 981v-96h-237q64 -54 96 -101q81 -119 81 -306q0 -218 -114 -354q-128 -152 -347 -152t-347 155q-115 139 -115 361q0 221 118 364q130 157 345 157q82 0 168 -28h352zM518 925q-112 0 -201 -69q-82 -64 -120 -180q-28 -85 -28 -186q0 -187 87 -306q48 -64 125 -99
q67 -29 143 -29q171 0 266 129q84 114 84 297t-79 302q-93 141 -277 141z" />
    <glyph glyph-name="tau" unicode="&#x3c4;" horiz-adv-x="773" vert-adv-y="2308" 
d="M778 983v-98h-337v-885h-106v885h-340v98h783z" />
    <glyph glyph-name="psi" unicode="&#x3c8;" horiz-adv-x="1168" vert-adv-y="2308" 
d="M537 -355v327q-189 11 -306 124q-68 68 -94 142q-30 82 -36 196q-4 77 -4 176v370h106v-369q1 -230 27 -324q33 -120 158 -181q69 -33 149 -39v913h106v-912q135 12 225 102q46 47 64 100q33 102 34 341v369h106v-370q-1 -208 -18 -295q-35 -195 -217 -292
q-82 -41 -194 -51v-327h-106z" />
    <glyph glyph-name="phi1" unicode="&#x3d5;" horiz-adv-x="1117" vert-adv-y="2308" 
d="M517 -372v343q-97 6 -160 28q-160 58 -239 226q-56 118 -56 266q0 209 99 337q55 70 186 143v-102q-73 -51 -108 -110q-68 -111 -68 -269q0 -167 72 -276q86 -131 274 -148v944q36 1 54 1q201 0 327 -117q158 -146 158 -411q0 -190 -90 -320q-96 -140 -255 -178
q-34 -8 -88 -13v-344h-106zM623 67q93 10 167 59q84 56 124 164q33 89 33 198q0 167 -74 280q-89 134 -250 147v-848z" />
    <glyph glyph-name="Wdieresis" unicode="&#x1e84;" horiz-adv-x="1528" vert-adv-y="2308" 
d="M43 1365h112l266 -1196l293 1196h101l294 -1196l268 1196h112l-319 -1376h-120l-285 1126l-286 -1126h-120zM589 1732q42 0 73 -31q31 -30 31 -74q0 -43 -31 -74t-74 -31t-74 31t-31 74q0 44 31 74q32 31 75 31zM949 1732q42 0 73 -31t31 -74t-31 -74t-74 -31t-74 31
t-31 74q0 44 31 74q32 31 75 31z" />
    <glyph glyph-name="enspace" unicode="&#x2002;" vert-adv-y="2308" 
 />
    <glyph glyph-name="emspace" unicode="&#x2003;" horiz-adv-x="2048" vert-adv-y="2308" 
 />
    <glyph glyph-name="figurespace" unicode="&#x2007;" horiz-adv-x="1065" vert-adv-y="2308" 
 />
    <glyph glyph-name="hairspace" unicode="&#x200a;" horiz-adv-x="256" vert-adv-y="2308" 
 />
    <glyph glyph-name="hyphen" unicode="&#x2010;" horiz-adv-x="571" vert-adv-y="2308" 
d="M0 560h571v-89h-571v89z" />
    <glyph glyph-name="nbhyphen" unicode="&#x2011;" horiz-adv-x="571" vert-adv-y="2308" 
d="M0 560h571v-89h-571v89z" />
    <glyph glyph-name="figuredash" unicode="&#x2012;" vert-adv-y="2308" 
d="M161 560h703v-89h-703v89z" />
    <glyph glyph-name="horizontalbar" unicode="&#x2015;" horiz-adv-x="1138" vert-adv-y="2308" 
d="M0 560h1138v-89h-1138v89z" />
    <glyph glyph-name="underscoredbl" unicode="&#x2017;" vert-adv-y="2308" 
d="M0 -125h1024v-71h-1024v71zM0 -363h1024v-72h-1024v72z" />
    <glyph glyph-name="quotereversed" unicode="&#x201b;" horiz-adv-x="512" vert-adv-y="2308" 
 />
    <glyph glyph-name="exclamdbl" unicode="&#x203c;" horiz-adv-x="802" vert-adv-y="2308" 
d="M254 1365v-363l-22 -633h-68l-22 632v364h112zM255 217v-217h-115v217h115zM660 1365v-363l-22 -633h-68l-22 632v364h112zM662 217v-217h-115v217h115z" />
    <glyph glyph-name="radicalex" unicode="&#x203e;" vert-adv-y="2308" 
d="M0 1744h1024v-96h-1024v96z" />
    <glyph glyph-name="zerosuperior" unicode="&#x2070;" horiz-adv-x="705" vert-adv-y="2308" 
d="M356 1341q112 0 177 -82q93 -117 93 -328t-93 -328q-65 -82 -181 -82q-115 0 -180 82q-93 117 -93 326q0 214 93 330q66 82 184 82zM350 1267q-84 0 -125 -74q-55 -99 -55 -262t55 -261q41 -75 127 -75q87 0 128 75q55 99 55 259q0 167 -55 264q-42 74 -130 74z" />
    <glyph glyph-name="foursuperior" unicode="&#x2074;" horiz-adv-x="705" vert-adv-y="2308" 
d="M493 808h145v-77h-143v-206h-89v206h-343v61l351 546h79v-530zM408 808l2 396l-252 -396h250z" />
    <glyph glyph-name="fivesuperior" unicode="&#x2075;" horiz-adv-x="705" vert-adv-y="2308" 
d="M172 1331h391l-15 -75h-300l-32 -224q43 30 72 38q33 9 68 9q108 0 176 -68q72 -73 72 -198q0 -99 -51 -177q-74 -115 -218 -115q-121 0 -187 78q-42 49 -47 127h82q23 -131 150 -131q84 0 131 60q50 65 50 156q0 88 -48 142q-43 48 -115 48q-100 0 -152 -92l-80 6z" />
    <glyph glyph-name="sixsuperior" unicode="&#x2076;" horiz-adv-x="705" vert-adv-y="2308" 
d="M424 1351h103q-143 -142 -246 -296q48 15 84 15q87 0 153 -61q84 -78 84 -210q0 -137 -84 -216q-66 -62 -164 -62q-96 0 -162 59q-89 79 -89 218q0 236 321 553zM351 996q-63 0 -103 -44q-54 -59 -54 -157q0 -96 54 -155q40 -45 104 -45q65 0 105 45q54 59 54 155
q0 98 -54 157q-40 44 -106 44z" />
    <glyph glyph-name="sevensuperior" unicode="&#x2077;" horiz-adv-x="705" vert-adv-y="2308" 
d="M91 1331h523v-69l-418 -730h-99l415 721h-421v78z" />
    <glyph glyph-name="eightsuperior" unicode="&#x2078;" horiz-adv-x="705" vert-adv-y="2308" 
d="M218 951q-94 61 -94 172q0 99 73 162q66 56 155 56q90 0 156 -56q73 -63 73 -162q0 -111 -93 -172q117 -72 117 -201q0 -104 -76 -169q-70 -60 -176 -60t-177 60q-75 65 -75 169q0 130 117 201zM351 1267q-55 0 -93 -34q-43 -40 -43 -108q0 -67 43 -107q38 -34 94 -34
q57 0 95 34q43 40 43 107q0 69 -43 108q-39 34 -96 34zM351 913q-69 0 -114 -43q-45 -44 -45 -116t45 -116q45 -43 116 -43t116 43q45 44 45 116q0 73 -45 116t-118 43z" />
    <glyph glyph-name="ninesuperior" unicode="&#x2079;" horiz-adv-x="705" vert-adv-y="2308" 
d="M281 512h-103q147 145 246 296q-48 -16 -84 -16q-87 0 -153 61q-84 78 -84 210q0 137 84 216q66 62 164 62q96 0 162 -59q89 -79 89 -217q0 -240 -321 -553zM351 1267q-63 0 -103 -44q-54 -60 -54 -157q0 -96 54 -156q40 -44 105 -44q64 0 104 44q54 60 54 156
q0 98 -54 157q-40 44 -106 44z" />
    <glyph glyph-name="parenleftsuperior" unicode="&#x207d;" horiz-adv-x="385" vert-adv-y="2308" 
d="M269 1365h74q-68 -82 -97 -169q-51 -151 -51 -360q0 -215 54 -362q30 -78 95 -162h-74q-62 66 -93 136q-69 160 -69 390q0 357 161 527z" />
    <glyph glyph-name="parenrightsuperior" unicode="&#x207e;" horiz-adv-x="385" vert-adv-y="2308" 
d="M121 312h-74q67 99 94 169q49 131 49 357t-53 365q-29 78 -94 162h73q161 -155 161 -527q0 -228 -62 -379q-30 -73 -94 -147z" />
    <glyph glyph-name="nsuperior" unicode="&#x207f;" horiz-adv-x="666" vert-adv-y="2308" 
d="M84 1148h82q15 -39 18 -82q70 82 178 82q145 0 186 -101q16 -40 16 -165v-336h-83v339q0 103 -17 135q-28 55 -105 55q-90 0 -138 -67q-33 -46 -33 -126v-336h-83v388q0 119 -5 150q-4 25 -16 64z" />
    <glyph glyph-name="zeroinferior" unicode="&#x2080;" horiz-adv-x="705" vert-adv-y="2308" 
d="M356 809q112 0 177 -82q93 -116 93 -328q0 -210 -93 -327q-65 -82 -181 -82q-115 0 -180 82q-93 117 -93 325q0 214 93 330q66 82 184 82zM350 735q-83 0 -125 -74q-55 -98 -55 -262q0 -162 55 -261q41 -74 127 -74q87 0 128 74q55 99 55 259q0 168 -55 264
q-43 74 -130 74z" />
    <glyph glyph-name="oneinferior" unicode="&#x2081;" horiz-adv-x="705" vert-adv-y="2308" 
d="M166 627v64q80 3 120 28q38 25 53 87h64v-806h-85v627h-152z" />
    <glyph glyph-name="twoinferior" unicode="&#x2082;" horiz-adv-x="705" vert-adv-y="2308" 
d="M207 554h-85q1 116 49 174q67 81 198 81q89 0 151 -42q79 -52 79 -150q0 -70 -58 -154q-12 -17 -202 -256l-87 -109l-18 -23h379v-75h-493v62q25 31 105 132l88 112q129 163 151 194q44 62 44 116q0 58 -43 88q-41 29 -100 29q-148 0 -158 -179z" />
    <glyph glyph-name="threeinferior" unicode="&#x2083;" horiz-adv-x="705" vert-adv-y="2308" 
d="M193 586h-82q6 101 54 153q68 71 186 71q120 0 185 -71q48 -51 48 -127q0 -117 -110 -173q141 -58 141 -202q0 -133 -106 -203q-64 -43 -162 -43q-122 0 -191 60q-70 62 -70 160q0 12 1 26h81q3 -169 175 -169q86 0 135 46q46 42 46 120q0 109 -97 147q-35 13 -90 13
q-19 0 -43 -4v81q34 -2 45 -2q56 0 97 26q57 37 57 112q0 54 -33 87q-39 39 -112 39q-136 0 -155 -147z" />
    <glyph glyph-name="fourinferior" unicode="&#x2084;" horiz-adv-x="705" vert-adv-y="2308" 
d="M493 276h145v-77h-143v-206h-89v206h-343v61l351 546h79v-530zM408 276l2 396l-252 -396h250z" />
    <glyph glyph-name="fiveinferior" unicode="&#x2085;" horiz-adv-x="705" vert-adv-y="2308" 
d="M187 799h391l-15 -75h-300l-32 -224q43 30 72 38q32 9 68 9q108 0 176 -68q72 -73 72 -198q0 -99 -51 -177q-74 -114 -218 -114q-121 0 -187 77q-42 49 -47 127h82q23 -130 150 -130q84 0 131 60q50 65 50 155q0 89 -48 143q-43 48 -114 48q-101 0 -153 -93l-80 6z" />
    <glyph glyph-name="sixinferior" unicode="&#x2086;" horiz-adv-x="705" vert-adv-y="2308" 
d="M424 819h103q-144 -142 -246 -296q49 16 84 16q87 0 153 -61q84 -78 84 -210q0 -137 -84 -216q-66 -62 -164 -62q-96 0 -162 59q-89 79 -89 218q0 235 321 552zM351 465q-63 0 -103 -44q-54 -59 -54 -157q0 -96 54 -156q40 -44 104 -44q65 0 105 44q54 60 54 156
q0 98 -54 157q-40 44 -106 44z" />
    <glyph glyph-name="seveninferior" unicode="&#x2087;" horiz-adv-x="705" vert-adv-y="2308" 
d="M91 799h523v-69l-418 -730h-99l415 721h-421v78z" />
    <glyph glyph-name="eightinferior" unicode="&#x2088;" horiz-adv-x="705" vert-adv-y="2308" 
d="M218 420q-94 61 -94 171q0 99 73 162q65 56 155 56t156 -56q73 -63 73 -162q0 -110 -93 -171q117 -71 117 -201q0 -104 -76 -169q-70 -60 -176 -60t-177 60q-75 65 -75 169q0 130 117 201zM351 735q-55 0 -93 -34q-43 -40 -43 -108q0 -67 43 -107q38 -34 94 -34t95 34
q43 40 43 107q0 69 -43 108q-39 34 -96 34zM351 381q-69 0 -114 -43t-45 -115q0 -73 45 -116t116 -43t116 43t45 115q0 73 -45 116t-118 43z" />
    <glyph glyph-name="nineinferior" unicode="&#x2089;" horiz-adv-x="705" vert-adv-y="2308" 
d="M281 -20h-103q148 146 246 296q-49 -16 -84 -16q-87 0 -153 61q-84 78 -84 210q0 137 84 216q66 62 164 62q96 0 162 -59q89 -79 89 -217q0 -242 -321 -553zM351 735q-63 0 -103 -44q-54 -59 -54 -157q0 -96 54 -156q40 -44 105 -44q64 0 104 44q54 60 54 156
q0 98 -54 157q-40 44 -106 44z" />
    <glyph glyph-name="franc" unicode="&#x20a3;" horiz-adv-x="1243" vert-adv-y="2308" 
d="M296 758h558v-102h-552v-656h-122v1365h715v-102h-599v-505zM915 602h79q13 -48 16 -107q61 107 144 107q44 0 89 -23v-81q-59 27 -87 27q-68 0 -113 -90q-31 -63 -31 -174v-261h-83v375q0 151 -14 227z" />
    <glyph glyph-name="lira" unicode="&#x20a4;" horiz-adv-x="1065" vert-adv-y="2308" 
d="M422 616h311v-83h-325q-57 -317 -125 -440q88 14 194 14q30 0 75 -1q89 -1 111 -1q88 0 125 16q68 31 74 147h107q3 -128 -76 -204q-60 -54 -160 -61q-27 -3 -129 -3h-471q86 147 157 533h-194v83h209q20 105 25 145h-211v83h225q38 237 71 349q57 195 250 195
q149 0 203 -104q24 -46 30 -151h-109q-5 79 -24 107q-31 47 -102 47q-107 0 -141 -123q-26 -93 -64 -320h298v-83h-311q-1 -12 -12 -81q-7 -47 -11 -64z" />
    <glyph glyph-name="peseta" unicode="&#x20a7;" horiz-adv-x="1833" vert-adv-y="2308" 
d="M180 1365h194q266 0 373 -35q118 -39 185 -151q53 -89 53 -215q0 -154 -82 -253q-90 -108 -256 -127q-87 -10 -245 -10h-100v-574h-122v1365zM296 676h102q174 0 258 18q201 41 201 272q0 131 -72 208q-61 67 -182 80q-71 9 -232 9h-75v-587zM1105 585h152v-69h-153
l-5 -302q-1 -47 -1 -59q0 -64 12 -78q16 -17 48 -17q45 0 98 23v-76q-55 -18 -109 -18q-70 0 -107 33q-29 26 -29 88q0 21 2 62q1 29 1 45l7 299h-91v69h92l3 166h83zM1756 417h-81q-7 60 -32 82q-33 30 -96 30q-55 0 -91 -29q-29 -23 -29 -57q0 -33 27 -54q26 -19 109 -42
q131 -36 166 -72q40 -40 40 -107q0 -80 -54 -129q-62 -56 -167 -56q-138 0 -195 82q-31 47 -30 122h82q9 -131 143 -131q57 0 94 26q39 28 39 80q0 44 -35 67q-20 13 -138 47q-94 27 -130 64q-38 40 -38 99q0 81 69 125q59 38 141 38q117 0 171 -68q33 -41 35 -117z" />
    <glyph glyph-name="uni2101" unicode="&#x2101;" horiz-adv-x="1773" vert-adv-y="2308" 
d="M386 1372h68l304 -826h-94l-84 229h-319l-85 -229h-94zM287 851h266l-133 389zM1345 1365h99l-806 -1365h-98zM1680 605h-92q-8 74 -38 105q-44 45 -129 45q-66 0 -112 -29q-53 -34 -53 -95q0 -60 51 -92q27 -18 158 -72q142 -59 186 -110q50 -58 50 -146
q0 -119 -91 -180q-69 -45 -180 -45q-159 0 -234 84q-55 61 -56 181h89q5 -91 40 -129q52 -58 161 -58q82 0 131 39q47 37 47 106q0 80 -72 125q-35 22 -176 78q-90 37 -131 72q-63 54 -63 144q0 100 81 155q74 50 178 50q146 0 213 -88q37 -50 42 -140z" />
    <glyph glyph-name="smallscriptl" unicode="&#x2113;" vert-adv-y="2308" 
d="M499 552q-69 -351 -69 -445q0 -50 41 -50q56 0 111 118q16 35 35 35q23 0 23 -24q0 -36 -43 -102q-73 -112 -160 -112q-66 0 -101 53q-27 42 -27 105t24 262l5 38q-95 -89 -115 -89q-7 0 -15 7q-8 9 -8 17q0 16 46 56q50 42 107 106q73 378 166 622q55 143 128 202
q49 40 97 40q53 0 84 -42q31 -44 31 -111q0 -174 -118 -381q-76 -132 -242 -305zM519 662q9 9 20 21q127 138 194 294q61 142 61 256q0 34 -10 59q-14 34 -42 34q-41 0 -76 -61q-58 -103 -147 -603z" />
    <glyph glyph-name="estimated" unicode="&#x212e;" horiz-adv-x="975" vert-adv-y="2308" 
d="M874 472h-662q4 -173 62 -270q77 -129 233 -129q110 0 178 68q28 29 61 91l103 -19q-90 -237 -341 -237q-185 0 -295 128q-113 131 -113 369q0 277 142 421q102 103 256 103q117 0 206 -65q103 -76 142 -217q29 -101 29 -198q0 -14 -1 -45zM760 561q-7 116 -48 197
q-72 142 -219 142q-144 0 -221 -141q-44 -79 -56 -198h544z" />
    <glyph glyph-name="onethird" unicode="&#x2153;" horiz-adv-x="1655" vert-adv-y="2308" 
d="M166 1159v64q81 3 120 27q38 25 53 88h64v-806h-85v627h-152zM1168 1331h100l-783 -1331h-98zM1144 586h-83q5 101 54 153q68 71 186 71q121 0 185 -71q48 -52 48 -127q0 -116 -110 -173q141 -58 141 -202q0 -133 -106 -203q-64 -43 -162 -43q-122 0 -191 60
q-70 62 -70 160q0 11 1 26h81q4 -169 175 -169q86 0 135 46q46 43 46 120q0 109 -98 147q-35 13 -89 13q-19 0 -43 -4v81q34 -2 45 -2q56 0 97 26q57 37 57 112q0 54 -33 87q-39 39 -112 39q-135 0 -154 -147z" />
    <glyph glyph-name="twothirds" unicode="&#x2154;" horiz-adv-x="1655" vert-adv-y="2308" 
d="M207 1086h-85q3 255 247 255q90 0 151 -41q79 -53 79 -151q0 -70 -58 -154q-11 -16 -202 -255l-87 -109l-18 -24h379v-75h-493v62l28 35l77 97l88 112q129 163 151 194q44 62 44 116q0 58 -43 88q-40 29 -100 29q-149 0 -158 -179zM1168 1331h100l-784 -1331h-97z
M1142 586h-82q5 100 55 153q67 71 185 71q120 0 185 -71q48 -52 48 -127q0 -117 -110 -173q141 -57 141 -202q0 -133 -106 -203q-64 -43 -162 -43q-122 0 -191 60q-70 62 -70 160q0 12 1 26h81q4 -169 175 -169q86 0 135 46q46 43 46 120q0 109 -98 147q-35 13 -88 13
q-20 0 -44 -4v81q34 -2 45 -2q56 0 97 26q57 37 57 112q0 54 -33 87q-39 39 -112 39q-135 0 -155 -147z" />
    <glyph glyph-name="oneeighth" unicode="&#x215b;" horiz-adv-x="1655" vert-adv-y="2308" 
d="M166 1159v64q81 3 120 27q38 25 53 88h64v-806h-85v627h-152zM1168 1331h100l-783 -1331h-98zM1167 420q-93 61 -93 171q0 99 73 162q66 56 156 56t155 -56q73 -63 73 -162q0 -111 -94 -171q118 -71 118 -202q0 -103 -76 -168q-71 -60 -176 -60q-106 0 -177 60
q-76 65 -76 169q0 130 117 201zM1301 735q-55 0 -93 -34q-43 -40 -43 -108q0 -67 43 -107q38 -34 95 -34q55 0 94 34q43 40 43 107q0 69 -43 108q-39 34 -96 34zM1300 381q-69 0 -114 -43t-45 -115q0 -73 45 -116t117 -43q71 0 116 43t45 115q0 73 -45 116q-46 43 -119 43z
" />
    <glyph glyph-name="threeeighths" unicode="&#x215c;" horiz-adv-x="1655" vert-adv-y="2308" 
d="M193 1117h-82q6 102 54 153q68 71 186 71q120 0 185 -70q48 -52 48 -128q0 -117 -110 -173q141 -59 141 -202q0 -133 -106 -203q-64 -42 -162 -42q-122 0 -191 60q-70 62 -70 161q0 10 1 24h81q3 -168 175 -168q86 0 135 45q46 43 46 120q0 109 -97 146q-36 13 -88 13
q-19 0 -45 -3v81q29 -3 46 -3q55 0 96 26q57 37 57 113q0 54 -33 87q-39 39 -112 39q-136 0 -155 -147zM1168 1331h100l-783 -1331h-98zM1167 420q-93 61 -93 171q0 99 73 162q66 56 156 56t155 -56q73 -63 73 -162q0 -111 -94 -171q118 -71 118 -201q0 -104 -76 -169
q-71 -60 -177 -60q-105 0 -176 60q-76 65 -76 169q0 130 117 201zM1301 735q-55 0 -93 -34q-43 -40 -43 -108q0 -67 43 -107q38 -34 95 -34q55 0 94 34q43 40 43 107q0 69 -43 108q-39 34 -96 34zM1300 381q-69 0 -114 -43q-45 -44 -45 -115q0 -73 45 -116t117 -43
q71 0 116 43q45 44 45 115q0 73 -45 116q-46 43 -119 43z" />
    <glyph glyph-name="fiveeighths" unicode="&#x215d;" horiz-adv-x="1655" vert-adv-y="2308" 
d="M187 1331h391l-15 -75h-300l-34 -222q70 45 144 45q106 0 174 -68q72 -74 72 -198q0 -99 -51 -177q-74 -115 -216 -115q-123 0 -189 78q-42 49 -47 127h83q21 -131 150 -131q83 0 130 61q50 64 50 156q0 88 -49 142q-43 48 -112 48q-97 0 -151 -93l-84 6zM1169 1331h100
l-784 -1331h-98zM1168 420q-93 61 -93 171q0 99 73 162q65 56 155 56t155 -56q73 -63 73 -162q0 -111 -93 -171q117 -71 117 -201q0 -104 -75 -169q-71 -60 -177 -60t-177 60q-75 65 -75 169q0 130 117 201zM1302 735q-55 0 -93 -34q-43 -40 -43 -108q0 -67 43 -107
q38 -34 94 -34t94 34q43 40 43 107q0 69 -43 108q-39 34 -95 34zM1301 381q-69 0 -114 -43q-45 -44 -45 -115q0 -73 45 -116t116 -43t116 43t45 115q0 73 -45 116q-46 43 -118 43z" />
    <glyph glyph-name="seveneighths" unicode="&#x215e;" horiz-adv-x="1655" vert-adv-y="2308" 
d="M91 1331h523v-69l-418 -730h-99l415 721h-421v78zM1169 1331h99l-783 -1331h-98zM1167 420q-33 21 -48 38q-45 51 -45 134q0 98 73 161q65 56 155 56q91 0 156 -56q73 -63 73 -162q0 -112 -94 -171q118 -71 118 -201q0 -104 -76 -169q-70 -60 -177 -60q-105 0 -176 60
q-76 65 -76 169q0 130 117 201zM1301 735q-55 0 -93 -34q-43 -40 -43 -108q0 -67 43 -107q38 -34 94 -34q57 0 95 34q43 40 43 107q0 69 -43 108q-39 34 -96 34zM1300 381q-69 0 -114 -43q-45 -44 -45 -115q0 -72 45 -116q45 -43 116 -43q72 0 117 43t45 115q0 73 -45 116
q-46 43 -119 43z" />
    <glyph glyph-name="arrowleft" unicode="&#x2190;" horiz-adv-x="1365" vert-adv-y="2308" 
d="M1338 744v-104h-1024q24 -30 60 -96q47 -86 47 -117q0 -28 -31 -28q-16 0 -46 35q-93 111 -270 212q-47 25 -47 41q0 20 34 39q119 70 165 106q62 47 132 129q16 20 32 20q31 0 31 -31q0 -20 -42 -105q-20 -39 -65 -101h1024z" />
    <glyph glyph-name="arrowup" unicode="&#x2191;" horiz-adv-x="1365" vert-adv-y="2308" 
d="M737 27h-104v1024q-30 -24 -96 -60q-86 -47 -117 -47q-28 0 -28 31q0 16 35 46q112 94 212 270q25 47 41 47q20 0 39 -34q75 -126 106 -165q50 -64 130 -132q20 -16 20 -32q0 -31 -31 -31q-20 0 -105 42q-42 21 -102 65v-1024z" />
    <glyph glyph-name="arrowright" unicode="&#x2192;" horiz-adv-x="1365" vert-adv-y="2308" 
d="M27 636v104h1024q-25 30 -60 96q-47 86 -47 117q0 28 31 28q16 0 46 -35q95 -112 270 -211q47 -26 47 -42q0 -20 -34 -39q-126 -74 -165 -106q-64 -50 -132 -130q-16 -20 -32 -20q-31 0 -31 31q0 20 42 105q21 41 65 102h-1024z" />
    <glyph glyph-name="arrowdown" unicode="&#x2193;" horiz-adv-x="1365" vert-adv-y="2308" 
d="M629 1338h104v-1024q30 25 96 60q86 47 117 47q28 0 28 -31q0 -16 -35 -46q-112 -94 -212 -270q-25 -47 -41 -47q-20 0 -39 34q-74 125 -106 165q-50 64 -130 131q-20 17 -20 33q0 31 31 31q20 0 105 -42q41 -21 102 -65v1024z" />
    <glyph glyph-name="arrowboth" unicode="&#x2194;" horiz-adv-x="1365" vert-adv-y="2308" 
d="M312 635q47 -64 73 -117q36 -72 36 -91q0 -30 -31 -30q-16 0 -48 38q-56 66 -116 112q-38 33 -178 114q-21 12 -21 31q0 16 47 42q175 98 270 211q30 35 46 35q31 0 31 -29q0 -30 -48 -116q-35 -63 -61 -96h739q-24 29 -60 96q-47 86 -47 117q0 28 31 28q16 0 46 -35
q94 -111 270 -211q47 -26 47 -42q0 -19 -34 -39q-124 -73 -165 -106q-64 -50 -132 -130q-16 -20 -32 -20q-31 0 -31 31q0 20 42 105q21 41 65 102h-739z" />
    <glyph glyph-name="arrowupdn" unicode="&#x2195;" horiz-adv-x="1365" vert-adv-y="2308" 
d="M737 312q65 47 117 73q72 36 91 36q30 0 30 -31q0 -13 -8 -22q-5 -5 -30 -26q-66 -56 -112 -116q-36 -42 -114 -178q-11 -21 -30 -21q-17 0 -42 47q-100 176 -212 270q-35 30 -35 46q0 31 29 31q30 0 116 -48q62 -34 96 -61v739q-30 -25 -96 -60q-86 -47 -117 -47
q-28 0 -28 31q0 16 35 46q111 94 212 270q25 47 41 47q20 0 39 -34q76 -128 106 -165q49 -64 130 -132q20 -16 20 -32q0 -31 -31 -31q-20 0 -105 42q-42 21 -102 65v-739z" />
    <glyph glyph-name="arrowupdnbse" unicode="&#x21a8;" horiz-adv-x="1365" vert-adv-y="2308" 
d="M737 312q64 47 117 73q72 36 91 36q30 0 30 -31q0 -13 -9 -22q-4 -5 -29 -26q-65 -55 -112 -116q-34 -40 -114 -178q-12 -21 -30 -21q-17 0 -42 47q-100 176 -212 270q-35 30 -35 46q0 31 28 31q31 0 117 -48q64 -35 96 -61v739q-30 -25 -96 -60q-87 -47 -117 -47
q-29 0 -29 31q0 16 35 46q112 93 212 270q26 47 42 47q19 0 38 -34q72 -121 107 -165q47 -62 130 -132q20 -16 20 -32q0 -31 -31 -31q-20 0 -105 42q-43 22 -102 65v-739zM413 -139h540v-88h-540v88z" />
    <glyph glyph-name="emptyset" unicode="&#x2205;" horiz-adv-x="1266" vert-adv-y="2308" 
d="M907 1125q45 -31 77 -64q146 -147 146 -351q0 -205 -146 -352q-144 -145 -351 -145q-87 0 -172 31l-110 -217l-100 52l110 215q-45 31 -78 64q-146 148 -146 351q0 205 146 352q145 145 351 145q85 0 174 -31l110 217l98 -51zM854 1022l-341 -675q62 -20 120 -20
q159 0 270 112q113 113 113 271q0 156 -113 270q-20 21 -49 42zM413 397l343 675q-62 20 -121 20q-160 0 -271 -112q-113 -113 -113 -270q0 -191 162 -313z" />
    <glyph glyph-name="minus" unicode="&#x2212;" horiz-adv-x="1065" vert-adv-y="2308" 
d="M112 730h842v-83h-842v83z" />
    <glyph glyph-name="fraction" unicode="&#x2215;" horiz-adv-x="245" vert-adv-y="2308" 
d="M464 1331h99l-783 -1331h-98z" />
    <glyph glyph-name="ring" unicode="&#x2218;" vert-adv-y="2308" 
d="M516 982q112 0 194 -83q83 -84 83 -203q0 -118 -82 -202q-83 -84 -199 -84q-115 0 -198 83q-84 84 -84 203q0 121 84 203q84 83 202 83zM510 885q-74 0 -129 -55t-55 -134q0 -78 55 -134q55 -55 131 -55t131 55q54 56 54 134q0 80 -55 134q-55 55 -132 55z" />
    <glyph glyph-name="intersection" unicode="&#x2229;" horiz-adv-x="1124" vert-adv-y="2308" 
d="M1039 0h-106v654q0 191 -10 279q-14 124 -73 198q-49 62 -124 98q-82 40 -164 40q-126 0 -229 -79q-57 -43 -87 -100t-43 -144q-13 -85 -13 -292v-654h-106v649q0 234 12 319q27 197 181 308q123 89 284 89q162 0 285 -89q154 -111 181 -308q12 -87 12 -319v-649z" />
    <glyph glyph-name="union" unicode="&#x222a;" horiz-adv-x="1124" vert-adv-y="2308" 
d="M84 1365h106v-654q0 -192 10 -279q14 -124 73 -198q49 -62 124 -98q82 -40 165 -40q124 0 228 79q70 54 102 130q35 88 39 247q2 76 2 159v654h106v-648q0 -235 -12 -320q-28 -196 -181 -308q-123 -89 -285 -89q-161 0 -284 89q-154 112 -181 308q-12 85 -12 320v648z
" />
    <glyph glyph-name="uni222E" unicode="&#x222e;" vert-adv-y="2308" 
d="M229 -490l27 94q48 -20 84 -20q92 0 109 83q8 39 8 154v365q-83 12 -158 66q-63 45 -100 118q-39 76 -39 158q0 112 68 205q80 109 229 136v334q0 158 16 208q18 55 69 91q50 34 128 34q51 0 119 -23l-27 -94q-48 21 -84 21q-92 0 -109 -84q-7 -34 -7 -153v-333
q100 -18 161 -63q65 -49 103 -121q38 -74 38 -158q0 -113 -67 -204q-85 -116 -235 -138v-347q0 -146 -7 -190q-11 -80 -78 -121q-61 -38 -148 -38q-51 0 -100 20zM562 794v-531q76 17 119 52q100 80 100 213q0 87 -48 158q-56 82 -171 108zM457 264v529q-68 -14 -113 -51
q-101 -81 -101 -213q0 -86 49 -158q56 -82 165 -107z" />
    <glyph glyph-name="uni2236" unicode="&#x2236;" horiz-adv-x="533" vert-adv-y="2308" 
d="M267 453q35 0 60 -26q25 -25 25 -60t-26 -60q-25 -25 -60 -25t-60 25t-25 60t24 60q26 26 62 26zM267 1085q35 0 60 -26q25 -24 25 -60q0 -35 -26 -60t-60 -25q-35 0 -60 25t-25 60t24 60q26 26 62 26z" />
    <glyph glyph-name="similar" unicode="&#x223c;" vert-adv-y="2308" 
d="M89 555l-67 43q34 68 76 120q79 98 194 98q78 0 235 -78q104 -52 142 -62q35 -10 65 -10q75 0 127 53q34 35 73 100l68 -40q-111 -214 -274 -214q-50 0 -134 30q-17 6 -155 73q-98 47 -157 47q-68 0 -121 -57q-35 -36 -72 -103z" />
    <glyph glyph-name="equivalence" unicode="&#x2261;" vert-adv-y="2308" 
d="M68 1024h887v-96h-887v96zM68 735h887v-96h-887v96zM68 446h887v-96h-887v96z" />
    <glyph glyph-name="dotoperator" unicode="&#x22c5;" horiz-adv-x="526" vert-adv-y="2308" 
d="M263 618q43 0 75 -32q30 -30 30 -74t-32 -75q-31 -30 -74 -30t-74 31t-31 74q0 44 30 74q32 32 76 32z" />
    <glyph glyph-name="house" unicode="&#x2302;" horiz-adv-x="1538" vert-adv-y="2308" 
d="M172 0v821l597 672l597 -672v-821h-1194zM276 104h986v672l-493 553l-493 -553v-672z" />
    <glyph glyph-name="revlogicalnot" unicode="&#x2310;" vert-adv-y="2308" 
d="M174 0h-106v547h887v-99h-781v-448z" />
    <glyph glyph-name="uni2319" unicode="&#x2319;" vert-adv-y="2308" 
d="M174 546v-447h781v-99h-887v546h106z" />
    <glyph glyph-name="integraltp" unicode="&#x2320;" vert-adv-y="2308" 
d="M565 -512h-106v1703q0 170 16 221q17 53 66 88q52 36 132 36q51 0 119 -22l-27 -94q-49 20 -85 20q-90 0 -108 -83q-7 -34 -7 -154v-1715z" />
    <glyph glyph-name="integralbt" unicode="&#x2321;" vert-adv-y="2308" 
d="M459 1536h106v-1703q0 -171 -16 -221q-17 -54 -66 -89q-51 -36 -131 -36q-51 0 -120 23l27 94q48 -21 85 -21q90 0 108 84q7 33 7 154v1715z" />
    <glyph glyph-name="2500" unicode="&#x2500;" horiz-adv-x="2048" vert-adv-y="2308" 
d="M0 444v135h2048v-135h-2048z" />
    <glyph glyph-name="2502" unicode="&#x2502;" horiz-adv-x="2048" vert-adv-y="2308" 
d="M956 -512v2048h135v-2048h-135z" />
    <glyph glyph-name="250c" unicode="&#x250c;" horiz-adv-x="2048" vert-adv-y="2308" 
d="M2048 579v-135h-957v-956h-135v1091h1092z" />
    <glyph glyph-name="2510" unicode="&#x2510;" horiz-adv-x="2048" vert-adv-y="2308" 
d="M957 444h-957v135h1092v-1091h-135v956z" />
    <glyph glyph-name="2514" unicode="&#x2514;" horiz-adv-x="2048" vert-adv-y="2308" 
d="M1091 579h957v-135h-1092v1092h135v-957z" />
    <glyph glyph-name="2518" unicode="&#x2518;" horiz-adv-x="2048" vert-adv-y="2308" 
d="M0 444v135h957v957h135v-1092h-1092z" />
    <glyph glyph-name="251c" unicode="&#x251c;" horiz-adv-x="2048" vert-adv-y="2308" 
d="M1091 579h957v-135h-957v-956h-135v2048h135v-957z" />
    <glyph glyph-name="2524" unicode="&#x2524;" horiz-adv-x="2048" vert-adv-y="2308" 
d="M957 444h-957v135h957v957h135v-2048h-135v956z" />
    <glyph glyph-name="252c" unicode="&#x252c;" horiz-adv-x="2048" vert-adv-y="2308" 
d="M1091 444v-956h-135v956h-956v135h2048v-135h-957z" />
    <glyph glyph-name="2534" unicode="&#x2534;" horiz-adv-x="2048" vert-adv-y="2308" 
d="M956 579v957h135v-957h957v-135h-2048v135h956z" />
    <glyph glyph-name="253c" unicode="&#x253c;" horiz-adv-x="2048" vert-adv-y="2308" 
d="M956 444h-956v135h956v957h135v-957h957v-135h-957v-956h-135v956z" />
    <glyph glyph-name="2550" unicode="&#x2550;" horiz-adv-x="2048" vert-adv-y="2308" 
d="M0 309v135h2048v-135h-2048zM0 580v135h2048v-135h-2048z" />
    <glyph glyph-name="2551" unicode="&#x2551;" horiz-adv-x="2048" vert-adv-y="2308" 
d="M821 -512v2048h135v-2048h-135zM1092 -512v2048h135v-2048h-135z" />
    <glyph glyph-name="2552" unicode="&#x2552;" horiz-adv-x="2048" vert-adv-y="2308" 
d="M956 -512v1227h1092v-135h-957v-136h957v-135h-957v-821h-135z" />
    <glyph glyph-name="2553" unicode="&#x2553;" horiz-adv-x="2048" vert-adv-y="2308" 
d="M1091 444h-135v-956h-135v1091h1227v-135h-822v-956h-135v956z" />
    <glyph glyph-name="2554" unicode="&#x2554;" horiz-adv-x="2048" vert-adv-y="2308" 
d="M956 580v-1092h-135v1227h1227v-135h-1092zM1226 309v-821h-135v956h957v-135h-822z" />
    <glyph glyph-name="2555" unicode="&#x2555;" horiz-adv-x="2048" vert-adv-y="2308" 
d="M957 309h-957v135h957v136h-957v135h1092v-1227h-135v821z" />
    <glyph glyph-name="2556" unicode="&#x2556;" horiz-adv-x="2048" vert-adv-y="2308" 
d="M956 444v-956h-135v956h-821v135h1227v-1091h-135v956h-136z" />
    <glyph glyph-name="2557" unicode="&#x2557;" horiz-adv-x="2048" vert-adv-y="2308" 
d="M1092 580h-1092v135h1227v-1227h-135v1092zM821 309h-821v135h956v-956h-135v821z" />
    <glyph glyph-name="2558" unicode="&#x2558;" horiz-adv-x="2048" vert-adv-y="2308" 
d="M956 1536h135v-821h957v-135h-957v-136h957v-135h-1092v1227z" />
    <glyph glyph-name="2559" unicode="&#x2559;" horiz-adv-x="2048" vert-adv-y="2308" 
d="M1091 579v957h135v-957h822v-135h-1227v1092h135v-957h135z" />
    <glyph glyph-name="255a" unicode="&#x255a;" horiz-adv-x="2048" vert-adv-y="2308" 
d="M956 444h1092v-135h-1227v1227h135v-1092zM1226 715h822v-135h-957v956h135v-821z" />
    <glyph glyph-name="255b" unicode="&#x255b;" horiz-adv-x="2048" vert-adv-y="2308" 
d="M957 715v821h135v-1227h-1092v135h957v136h-957v135h957z" />
    <glyph glyph-name="255c" unicode="&#x255c;" horiz-adv-x="2048" vert-adv-y="2308" 
d="M956 579h136v957h135v-1092h-1227v135h821v957h135v-957z" />
    <glyph glyph-name="255d" unicode="&#x255d;" horiz-adv-x="2048" vert-adv-y="2308" 
d="M1092 444v1092h135v-1227h-1227v135h1092zM821 715v821h135v-956h-956v135h821z" />
    <glyph glyph-name="255e" unicode="&#x255e;" horiz-adv-x="2048" vert-adv-y="2308" 
d="M956 1536h135v-821h957v-135h-957v-136h957v-135h-957v-821h-135v2048z" />
    <glyph glyph-name="255f" unicode="&#x255f;" horiz-adv-x="2048" vert-adv-y="2308" 
d="M1226 444v-956h-135v2048h135v-957h822v-135h-822zM956 -512h-135v2048h135v-2048z" />
    <glyph glyph-name="2560" unicode="&#x2560;" horiz-adv-x="2048" vert-adv-y="2308" 
d="M821 -512v2048h135v-2048h-135zM1226 715h822v-135h-957v956h135v-821zM1226 309v-821h-135v956h957v-135h-822z" />
    <glyph glyph-name="2561" unicode="&#x2561;" horiz-adv-x="2048" vert-adv-y="2308" 
d="M957 715v821h135v-2048h-135v821h-957v135h957v136h-957v135h957z" />
    <glyph glyph-name="2562" unicode="&#x2562;" horiz-adv-x="2048" vert-adv-y="2308" 
d="M821 444h-821v135h821v957h135v-2048h-135v956zM1092 -512v2048h135v-2048h-135z" />
    <glyph glyph-name="2563" unicode="&#x2563;" horiz-adv-x="2048" vert-adv-y="2308" 
d="M1227 -512h-135v2048h135v-2048zM821 715v821h135v-956h-956v135h821zM821 309h-821v135h956v-956h-135v821z" />
    <glyph glyph-name="2564" unicode="&#x2564;" horiz-adv-x="2048" vert-adv-y="2308" 
d="M0 715h2048v-135h-2048v135zM956 309h-956v135h2048v-135h-957v-821h-135v821z" />
    <glyph glyph-name="2565" unicode="&#x2565;" horiz-adv-x="2048" vert-adv-y="2308" 
d="M821 444h-821v135h2048v-135h-821v-956h-135v956h-136v-956h-135v956z" />
    <glyph glyph-name="2566" unicode="&#x2566;" horiz-adv-x="2048" vert-adv-y="2308" 
d="M0 715h2048v-135h-2048v135zM1227 309v-821h-135v956h956v-135h-821zM821 309h-821v135h956v-956h-135v821z" />
    <glyph glyph-name="2567" unicode="&#x2567;" horiz-adv-x="2048" vert-adv-y="2308" 
d="M0 309v135h2048v-135h-2048zM956 715v821h135v-821h957v-135h-2048v135h956z" />
    <glyph glyph-name="2568" unicode="&#x2568;" horiz-adv-x="2048" vert-adv-y="2308" 
d="M0 444v135h821v957h135v-957h136v957h135v-957h821v-135h-2048z" />
    <glyph glyph-name="2569" unicode="&#x2569;" horiz-adv-x="2048" vert-adv-y="2308" 
d="M0 309v135h2048v-135h-2048zM1227 715h821v-135h-956v956h135v-821zM821 715v821h135v-956h-956v135h821z" />
    <glyph glyph-name="256a" unicode="&#x256a;" horiz-adv-x="2048" vert-adv-y="2308" 
d="M956 444v136h-956v135h956v821h135v-821h957v-135h-957v-136h957v-135h-957v-821h-135v821h-956v135h956z" />
    <glyph glyph-name="256b" unicode="&#x256b;" horiz-adv-x="2048" vert-adv-y="2308" 
d="M821 444h-821v135h821v957h135v-957h136v957h135v-957h821v-135h-821v-956h-135v956h-136v-956h-135v956z" />
    <glyph glyph-name="256c" unicode="&#x256c;" horiz-adv-x="2048" vert-adv-y="2308" 
d="M1227 715h821v-135h-956v956h135v-821zM821 715v821h135v-956h-956v135h821zM1227 309v-821h-135v956h956v-135h-821zM821 309h-821v135h956v-956h-135v821z" />
    <glyph glyph-name="upblock" unicode="&#x2580;" horiz-adv-x="2048" vert-adv-y="2308" 
d="M0 512v1024h2048v-1024h-2048z" />
    <glyph glyph-name="dnblock" unicode="&#x2584;" horiz-adv-x="2048" vert-adv-y="2308" 
d="M0 -512v1024h2048v-1024h-2048z" />
    <glyph glyph-name="block" unicode="&#x2588;" horiz-adv-x="2048" vert-adv-y="2308" 
d="M0 -512v2048h2048v-2048h-2048z" />
    <glyph glyph-name="lfblock" unicode="&#x258c;" horiz-adv-x="2048" vert-adv-y="2308" 
d="M0 -512v2048h1024v-2048h-1024z" />
    <glyph glyph-name="rtblock" unicode="&#x2590;" horiz-adv-x="2048" vert-adv-y="2308" 
d="M1024 -512v2048h1024v-2048h-1024z" />
    <glyph glyph-name="ltshade" unicode="&#x2591;" horiz-adv-x="2048" vert-adv-y="2308" 
d="M0 1536h205v-205h-205v205zM410 1536h204v-205h-204v205zM1638 1536h205v-205h-205v205zM819 1536h205v-205h-205v205zM1229 1536h205v-205h-205v205zM0 1126h205v-204h-205v204zM0 717h205v-205h-205v205zM0 307h205v-205h-205v205zM0 -102h205v-205h-205v205zM410 1126
h204v-204h-204v204zM410 717h204v-205h-204v205zM410 307h204v-205h-204v205zM410 -102h204v-205h-204v205zM819 1126h205v-204h-205v204zM819 717h205v-205h-205v205zM819 307h205v-205h-205v205zM819 -102h205v-205h-205v205zM1229 1126h205v-204h-205v204zM1229 717h205
v-205h-205v205zM1229 307h205v-205h-205v205zM1229 -102h205v-205h-205v205zM1638 1126h205v-204h-205v204zM1638 717h205v-205h-205v205zM1638 307h205v-205h-205v205zM1638 -102h205v-205h-205v205z" />
    <glyph glyph-name="shade" unicode="&#x2592;" horiz-adv-x="2048" vert-adv-y="2308" 
d="M1843 -307h205v-205h-205v205h-205v-205h-204v205h-205v-205h-205v205h-205v-205h-205v205h-204v-205h-205v205h-205v205h205v-205h205v205h204v-205h205v205h205v-205h205v205h205v-205h204v205h205v204h-205v-204h-204v204h-205v-204h-205v204h-205v-204h-205v204h-204
v-204h-205v204h-205v205h205v-205h205v205h204v-205h205v205h205v-205h205v205h205v-205h204v205h205v205h-205v-205h-204v205h-205v-205h-205v205h-205v-205h-205v205h-204v-205h-205v205h-205v205h205v-205h205v205h204v-205h205v205h205v-205h205v205h205v-205h204v205
h205v205h-205v-205h-204v205h-205v-205h-205v205h-205v-205h-205v205h-204v-205h-205v205h-205v204h205v-204h205v204h204v-204h205v204h205v-204h205v204h205v-204h204v204h205v205h-205v-205h-204v205h-205v-205h-205v205h-205v-205h-205v205h-204v-205h-205v205h-205v205
h205v-205h205v205h204v-205h205v205h205v-205h205v205h205v-205h204v205h205v-205h205v-205h-205v-204h205v-205h-205v-205h205v-205h-205v-205h205v-204h-205v-205z" />
    <glyph glyph-name="dkshade" unicode="&#x2593;" horiz-adv-x="2048" vert-adv-y="2308" 
d="M2048 -512h-2048v205h205v205h-205v204h205v205h-205v205h205v205h-205v205h205v204h-205v205h205v205h205v-205h204v205h205v-205h205v205h205v-205h205v205h204v-205h205v205h205v-2048zM1843 1126h-205v-204h205v204zM1434 1126h-205v-204h205v204zM1024 1126h-205
v-204h205v204zM614 1126h-204v-204h204v204zM1843 717h-205v-205h205v205zM1434 717h-205v-205h205v205zM1024 717h-205v-205h205v205zM614 717h-204v-205h204v205zM1843 307h-205v-205h205v205zM1434 307h-205v-205h205v205zM1024 307h-205v-205h205v205zM614 307h-204
v-205h204v205zM1843 -102h-205v-205h205v205zM1434 -102h-205v-205h205v205zM1024 -102h-205v-205h205v205zM614 -102h-204v-205h204v205z" />
    <glyph glyph-name="filledbox" unicode="&#x25a0;" horiz-adv-x="1365" vert-adv-y="2308" 
d="M1365 0h-1365v1365h1365v-1365z" />
    <glyph glyph-name="whitesquare" unicode="&#x25a1;" horiz-adv-x="1365" vert-adv-y="2308" 
d="M1365 0h-1365v1365h1365v-1365zM1269 96v1173h-1173v-1173h1173z" />
    <glyph glyph-name="filledrect" unicode="&#x25ac;" horiz-adv-x="1365" vert-adv-y="2308" 
d="M1365 683v-683h-1365v683h1365z" />
    <glyph glyph-name="blackverticalrect" unicode="&#x25ae;" horiz-adv-x="1365" vert-adv-y="2308" 
d="M1024 0h-683v1365h683v-1365z" />
    <glyph glyph-name="uni25AF" unicode="&#x25af;" horiz-adv-x="1365" vert-adv-y="2308" 
d="M690 1207q142 0 271 -77q128 -77 196 -207q59 -113 59 -239q0 -216 -154 -370q-157 -156 -380 -156q-222 0 -378 156q-154 154 -154 369q0 221 155 370q161 154 385 154z" />
    <glyph glyph-name="triagup" unicode="&#x25b2;" horiz-adv-x="1365" vert-adv-y="2308" 
d="M1297 137h-1229l615 1150z" />
    <glyph glyph-name="uni25B4" unicode="&#x25b4;" vert-adv-y="2308" 
d="M956 300h-888l444 830z" />
    <glyph glyph-name="uni25B8" unicode="&#x25b8;" vert-adv-y="2308" 
d="M146 243v888l830 -444z" />
    <glyph glyph-name="triagdn" unicode="&#x25bc;" horiz-adv-x="1365" vert-adv-y="2308" 
d="M68 1229h1229l-615 -1150z" />
    <glyph glyph-name="uni25BE" unicode="&#x25be;" vert-adv-y="2308" 
d="M68 1065h887l-443 -830z" />
    <glyph glyph-name="uni25C2" unicode="&#x25c2;" vert-adv-y="2308" 
d="M878 1131v-888l-830 444z" />
    <glyph glyph-name="circle" unicode="&#x25cb;" horiz-adv-x="1365" vert-adv-y="2308" 
d="M690 1207q142 0 271 -77q128 -77 196 -207q59 -113 59 -239q0 -216 -154 -370q-157 -156 -380 -156q-222 0 -378 156q-154 154 -154 369q0 221 155 370q161 154 385 154zM678 1113q-175 0 -305 -127q-127 -124 -127 -302t127 -304q128 -128 310 -128t311 128
q126 127 126 303q0 181 -128 304q-131 126 -314 126z" />
    <glyph glyph-name="invbullet" unicode="&#x25d8;" horiz-adv-x="1365" vert-adv-y="2308" 
d="M0 0v1365h1365v-1365h-1365zM680 969q-112 0 -195 -83q-84 -84 -84 -203t84 -204q83 -83 198 -83q116 0 199 84q82 84 82 202q0 121 -83 204q-84 83 -201 83z" />
    <glyph glyph-name="invcircle" unicode="&#x25d9;" horiz-adv-x="1365" vert-adv-y="2308" 
d="M688 1113q175 0 304 -126q128 -125 128 -304q0 -176 -127 -303q-128 -128 -311 -128q-182 0 -310 128q-127 126 -127 303q0 181 127 303q133 127 316 127zM1365 0h-1365v1365h1365v-1365zM676 1207q-143 0 -272 -78q-128 -77 -196 -207q-58 -111 -58 -237
q0 -218 154 -371q156 -156 378 -156t379 156q154 154 154 369q0 148 -79 275q-77 124 -212 192q-113 57 -248 57z" />
    <glyph glyph-name="openbullet" unicode="&#x25e6;" vert-adv-y="2308" 
d="M516 982q112 0 194 -83q83 -84 83 -203q0 -118 -82 -202q-83 -84 -199 -84q-115 0 -198 83q-84 84 -84 203q0 121 84 203q84 83 202 83zM510 885q-74 0 -129 -55t-55 -134q0 -78 55 -134q55 -55 131 -55t131 55q54 56 54 134q0 80 -55 134q-55 55 -132 55z" />
    <glyph glyph-name="smileface" unicode="&#x263a;" horiz-adv-x="1365" vert-adv-y="2308" 
d="M491 953q37 0 65 -30q23 -25 23 -60q0 -40 -30 -67q-26 -23 -60 -23q-40 0 -67 30q-23 26 -23 61q0 38 30 66q25 23 62 23zM888 953q39 0 66 -30q23 -26 23 -60q0 -40 -30 -68q-26 -23 -60 -23q-40 0 -68 30q-23 26 -23 61q0 39 30 67q26 23 62 23zM1106 762
q-10 -136 -34 -204q-50 -138 -160 -209q-96 -61 -228 -61q-224 0 -337 169q-46 69 -65 148q-12 53 -20 157q19 -82 44 -125q58 -98 160 -152q92 -49 218 -49q211 0 337 145q41 47 61 98q11 27 24 83zM694 1331q165 0 313 -87q151 -89 237 -237q87 -150 87 -324t-87 -325
q-87 -150 -237 -237q-151 -87 -325 -87q-173 0 -324 87t-237 237q-87 152 -87 330q0 279 215 476q182 167 445 167zM675 1245q-145 0 -273 -75q-131 -78 -206 -206q-75 -130 -75 -281t75 -282q76 -130 206 -206q131 -75 281 -75q151 0 282 75q131 76 206 206q75 132 75 286
q0 242 -187 413q-158 145 -384 145z" />
    <glyph glyph-name="invsmileface" unicode="&#x263b;" horiz-adv-x="1365" vert-adv-y="2308" 
d="M694 1331q165 0 313 -87q151 -89 237 -237q87 -150 87 -324t-87 -325q-87 -150 -237 -237q-151 -87 -325 -87q-173 0 -324 87t-237 237q-87 152 -87 330q0 279 215 476q183 167 445 167zM488 953q-38 0 -65 -30q-24 -26 -24 -60q0 -40 30 -67q26 -23 60 -23q41 0 68 30
q23 26 23 61q0 39 -30 66q-26 23 -62 23zM886 954q-39 0 -66 -30q-24 -26 -24 -61q0 -40 30 -67q27 -24 61 -24q40 0 68 30q23 26 23 62q0 39 -30 67q-26 23 -62 23zM1106 761q-19 -82 -44 -124q-58 -98 -160 -152q-92 -49 -218 -49q-211 0 -337 144q-41 48 -62 99
q-10 26 -23 82q10 -136 34 -203q50 -138 160 -209q96 -61 228 -61q224 0 337 169q46 69 65 148q12 52 20 156z" />
    <glyph glyph-name="sun" unicode="&#x263c;" horiz-adv-x="1365" vert-adv-y="2308" 
d="M326 967l-153 153l72 72l154 -153q103 83 232 98v215h103v-216q135 -16 233 -96l153 152l72 -72l-153 -152q80 -100 96 -232h216v-105h-216q-16 -132 -96 -232l153 -153l-72 -72l-153 153q-103 -81 -233 -97v-216h-103v216q-120 12 -233 96l-153 -152l-72 72l152 152
q-81 101 -94 233h-216v105h215q16 128 96 231zM678 1010q-140 0 -238 -108q-84 -93 -84 -218q0 -146 108 -244q94 -84 219 -84q145 0 242 109q84 93 84 221q0 141 -108 240q-92 84 -223 84z" />
    <glyph glyph-name="female" unicode="&#x2640;" horiz-adv-x="1365" vert-adv-y="2308" 
d="M632 644q-93 14 -166 68q-72 52 -112 133q-40 80 -40 170q0 155 109 265q107 109 259 109t260 -108q110 -110 110 -266q0 -122 -72 -222q-90 -125 -250 -150v-214h334v-88h-334v-341h-98v341h-330v88h330v215zM681 1293q-110 0 -190 -80q-81 -81 -81 -197q0 -115 82 -197
q79 -80 191 -80q113 0 193 81q80 82 80 195q0 118 -81 197q-81 81 -194 81z" />
    <glyph glyph-name="male" unicode="&#x2642;" horiz-adv-x="1365" vert-adv-y="2308" 
d="M856 712q73 -100 73 -225q0 -154 -108 -263q-107 -110 -260 -110q-151 0 -259 108q-110 111 -110 267q0 155 109 265q109 109 260 109q126 0 229 -81l309 309q-103 23 -216 82q-44 24 -44 48q0 25 27 25q11 0 41 -6q88 -19 170 -19q114 0 190 21q36 10 46 10q21 0 21 -21
q0 -9 -10 -46q-22 -79 -22 -179q0 -85 19 -173q7 -30 7 -41q0 -27 -26 -27q-15 0 -25 11q-42 48 -71 126q-31 82 -39 121zM558 767q-109 0 -189 -80q-81 -81 -81 -197q0 -115 81 -197q80 -80 192 -80t192 81q80 82 80 195q0 118 -80 197q-82 81 -195 81z" />
    <glyph glyph-name="spade" unicode="&#x2660;" horiz-adv-x="1365" vert-adv-y="2308" 
d="M220 0v38q128 23 193 50q112 44 187 166q66 108 72 268q-17 -40 -27 -56q-34 -59 -97 -101q-81 -52 -172 -52q-97 0 -169 71q-77 77 -77 184q0 94 48 166q60 93 165 180q291 235 336 490q40 -117 64 -167q38 -77 102 -148q58 -62 142 -140q114 -103 156 -154
q92 -114 92 -232q0 -87 -54 -155q-75 -94 -197 -94q-171 0 -284 207q6 -100 28 -174q39 -126 149 -208q79 -61 285 -101v-38h-942z" />
    <glyph glyph-name="club" unicode="&#x2663;" horiz-adv-x="1365" vert-adv-y="2308" 
d="M1149 0h-933v38q182 32 257 85q170 125 191 346q3 38 5 92q-45 -77 -69 -107q-51 -65 -124 -105q-86 -49 -176 -49q-129 0 -219 103q-76 87 -76 208q0 129 84 219q76 82 186 82q56 0 121 -31q12 -5 56 -27q-73 108 -73 204q0 122 90 208q88 85 214 85q122 0 210 -81
q93 -87 93 -213q0 -97 -73 -203q57 28 76 36q50 22 101 22q118 0 196 -93q74 -89 74 -207q0 -141 -98 -232q-86 -80 -198 -80q-108 0 -212 71q-68 48 -123 136q-9 15 -32 54q2 -128 28 -214q36 -120 145 -207q53 -43 124 -66q60 -18 155 -36v-38z" />
    <glyph glyph-name="heart" unicode="&#x2665;" horiz-adv-x="1365" vert-adv-y="2308" 
d="M680 -22q-32 129 -97 245q-72 125 -165 251l-118 160q-90 123 -125 186q-60 110 -60 212q0 119 79 199q76 77 186 77q153 0 245 -139q28 -43 55 -126q31 105 80 162q90 105 221 105q123 0 204 -93q66 -76 66 -173q0 -136 -99 -298q-41 -65 -126 -174q-292 -364 -346 -594
z" />
    <glyph glyph-name="diamond" unicode="&#x2666;" horiz-adv-x="1365" vert-adv-y="2308" 
d="M682 1419q76 -144 283 -429q162 -221 237 -305q-51 -57 -267 -346q-148 -201 -253 -392q-41 85 -199 312q-86 124 -148 207q-73 91 -147 188l-24 31q46 54 261 337q154 206 257 397z" />
    <glyph glyph-name="musicalnote" unicode="&#x266a;" horiz-adv-x="1365" vert-adv-y="2308" 
d="M626 319v1046h93v-124q26 -34 137 -167q186 -222 186 -459q0 -192 -116 -333h-58q68 159 68 307q0 103 -44 196q-67 141 -173 157v-623q0 -125 -58 -207q-38 -54 -98 -89q-72 -41 -154 -41q-87 0 -121 54q-20 32 -20 68q0 76 53 143q43 55 113 80q44 15 82 15
q57 0 110 -23z" />
    <glyph glyph-name="uni266C" unicode="&#x266c;" horiz-adv-x="1365" vert-adv-y="2308" 
d="M399 1202l862 220v-1029q0 -95 -35 -166q-35 -70 -100 -115q-79 -56 -175 -56q-88 0 -120 53q-20 32 -20 70q0 76 52 143q43 55 113 80q43 15 80 15q60 0 111 -24v554l-675 -185v-483q0 -125 -58 -206q-38 -54 -98 -89q-72 -41 -155 -41q-87 0 -120 53q-20 32 -20 68
q0 75 53 142q43 55 113 79q43 15 82 15q56 0 110 -21v923zM492 918l675 185v142l-675 -185v-142z" />
    <glyph glyph-name="ff" unicode="&#xea00;" horiz-adv-x="1103" vert-adv-y="2308" 
d="M726 969v63q0 115 8 162q14 80 63 129q67 65 173 65q61 0 131 -25v-108q-57 36 -123 36q-95 0 -126 -83q-17 -47 -17 -159v-80h246v-89h-238v-880h-117v880h-435v-880h-117v880h-140v89h140v63q0 115 8 162q14 80 64 129q67 65 171 65q60 0 132 -25v-108q-58 36 -123 36
q-96 0 -126 -83q-16 -44 -16 -159v-80h442z" />
    <glyph glyph-name="fi" unicode="&#xea01;" horiz-adv-x="974" vert-adv-y="2308" 
d="M284 969h245v-89h-238v-880h-117v880h-140v89h140v63q0 115 8 162q14 80 64 129q67 65 172 65q61 0 131 -25v-108q-58 36 -122 36q-97 0 -127 -83q-16 -44 -16 -159v-80zM703 969h117v-969h-117v969zM762 1381q33 0 58 -20q32 -27 32 -72q0 -33 -21 -57q-25 -32 -69 -32
q-38 0 -64 25q-27 25 -27 64q0 41 28 67q26 25 63 25z" />
    <glyph glyph-name="fl" unicode="&#xea02;" horiz-adv-x="974" vert-adv-y="2308" 
d="M284 969h245v-89h-238v-880h-117v880h-140v89h140v63q0 115 8 162q14 80 64 129q67 65 172 65q61 0 131 -25v-108q-56 36 -122 36q-97 0 -127 -83q-16 -44 -16 -159v-80zM703 1371h117v-1371h-117v1371z" />
    <glyph glyph-name="ffi" unicode="&#xea03;" horiz-adv-x="1526" vert-adv-y="2308" 
d="M726 969v63q0 115 8 162q14 80 63 129q67 65 173 65q61 0 131 -25v-108q-57 36 -123 36q-95 0 -126 -83q-17 -47 -17 -159v-80h246v-89h-238v-880h-117v880h-435v-880h-117v880h-140v89h140v63q0 115 8 162q14 80 64 129q67 65 171 65q60 0 132 -25v-108q-58 36 -123 36
q-96 0 -126 -83q-16 -44 -16 -159v-80h442zM1255 969h117v-969h-117v969zM1314 1381q33 0 58 -20q32 -27 32 -72q0 -33 -21 -57q-25 -32 -69 -32q-38 0 -64 25q-27 25 -27 64q0 41 28 67q26 25 63 25z" />
    <glyph glyph-name="ffl" unicode="&#xea04;" horiz-adv-x="1526" vert-adv-y="2308" 
d="M726 969v63q0 115 8 162q14 80 63 129q67 65 173 65q61 0 131 -25v-108q-57 36 -123 36q-95 0 -126 -83q-17 -47 -17 -159v-80h246v-89h-238v-880h-117v880h-435v-880h-117v880h-140v89h140v63q0 115 8 162q14 80 64 129q67 65 171 65q60 0 132 -25v-108q-58 36 -123 36
q-96 0 -126 -83q-16 -44 -16 -159v-80h442zM1255 1371h117v-1371h-117v1371z" />
    <glyph glyph-name="oneeighth" unicode="&#xea05;" horiz-adv-x="1655" vert-adv-y="2308" 
d="M166 1159v64q81 3 120 27q38 25 53 88h64v-806h-85v627h-152zM1168 1331h100l-783 -1331h-98zM1167 420q-93 61 -93 171q0 99 73 162q66 56 156 56t155 -56q73 -63 73 -162q0 -111 -94 -171q118 -71 118 -202q0 -103 -76 -168q-71 -60 -176 -60q-106 0 -177 60
q-76 65 -76 169q0 130 117 201zM1301 735q-55 0 -93 -34q-43 -40 -43 -108q0 -67 43 -107q38 -34 95 -34q55 0 94 34q43 40 43 107q0 69 -43 108q-39 34 -96 34zM1300 381q-69 0 -114 -43t-45 -115q0 -73 45 -116t117 -43q71 0 116 43t45 115q0 73 -45 116q-46 43 -119 43z
" />
    <glyph glyph-name="threeeighths" unicode="&#xea06;" horiz-adv-x="1655" vert-adv-y="2308" 
d="M193 1117h-82q6 102 54 153q68 71 186 71q120 0 185 -70q48 -52 48 -128q0 -117 -110 -173q141 -59 141 -202q0 -133 -106 -203q-64 -42 -162 -42q-122 0 -191 60q-70 62 -70 161q0 10 1 24h81q3 -168 175 -168q86 0 135 45q46 43 46 120q0 109 -97 146q-36 13 -88 13
q-19 0 -45 -3v81q29 -3 46 -3q55 0 96 26q57 37 57 113q0 54 -33 87q-39 39 -112 39q-136 0 -155 -147zM1168 1331h100l-783 -1331h-98zM1167 420q-93 61 -93 171q0 99 73 162q66 56 156 56t155 -56q73 -63 73 -162q0 -111 -94 -171q118 -71 118 -201q0 -104 -76 -169
q-71 -60 -177 -60q-105 0 -176 60q-76 65 -76 169q0 130 117 201zM1301 735q-55 0 -93 -34q-43 -40 -43 -108q0 -67 43 -107q38 -34 95 -34q55 0 94 34q43 40 43 107q0 69 -43 108q-39 34 -96 34zM1300 381q-69 0 -114 -43q-45 -44 -45 -115q0 -73 45 -116t117 -43
q71 0 116 43q45 44 45 115q0 73 -45 116q-46 43 -119 43z" />
    <glyph glyph-name="fiveeighths" unicode="&#xea07;" horiz-adv-x="1655" vert-adv-y="2308" 
d="M187 1331h391l-15 -75h-300l-34 -222q70 45 144 45q106 0 174 -68q72 -74 72 -198q0 -99 -51 -177q-74 -115 -216 -115q-123 0 -189 78q-42 49 -47 127h83q21 -131 150 -131q83 0 130 61q50 64 50 156q0 88 -49 142q-43 48 -112 48q-97 0 -151 -93l-84 6zM1169 1331h100
l-784 -1331h-98zM1168 420q-93 61 -93 171q0 99 73 162q65 56 155 56t155 -56q73 -63 73 -162q0 -111 -93 -171q117 -71 117 -201q0 -104 -75 -169q-71 -60 -177 -60t-177 60q-75 65 -75 169q0 130 117 201zM1302 735q-55 0 -93 -34q-43 -40 -43 -108q0 -67 43 -107
q38 -34 94 -34t94 34q43 40 43 107q0 69 -43 108q-39 34 -95 34zM1301 381q-69 0 -114 -43q-45 -44 -45 -115q0 -73 45 -116t116 -43t116 43t45 115q0 73 -45 116q-46 43 -118 43z" />
    <glyph glyph-name="seveneighths" unicode="&#xea08;" horiz-adv-x="1655" vert-adv-y="2308" 
d="M91 1331h523v-69l-418 -730h-99l415 721h-421v78zM1169 1331h99l-783 -1331h-98zM1167 420q-33 21 -48 38q-45 51 -45 134q0 98 73 161q65 56 155 56q91 0 156 -56q73 -63 73 -162q0 -112 -94 -171q118 -71 118 -201q0 -104 -76 -169q-70 -60 -177 -60q-105 0 -176 60
q-76 65 -76 169q0 130 117 201zM1301 735q-55 0 -93 -34q-43 -40 -43 -108q0 -67 43 -107q38 -34 94 -34q57 0 95 34q43 40 43 107q0 69 -43 108q-39 34 -96 34zM1300 381q-69 0 -114 -43q-45 -44 -45 -115q0 -72 45 -116q45 -43 116 -43q72 0 117 43t45 115q0 73 -45 116
q-46 43 -119 43z" />
    <glyph glyph-name="uniEA11" unicode="&#xea11;" vert-adv-y="2308" 
d="M333 1732q42 0 73 -31q31 -30 31 -74q0 -43 -31 -74t-74 -31t-74 31t-31 74q0 44 31 74q32 31 75 31zM693 1732q42 0 73 -31t31 -74t-31 -74t-74 -31t-74 31t-31 74q0 44 31 74q32 31 75 31z" />
    <glyph glyph-name="uniEA12" unicode="&#xea12;" vert-adv-y="2308" 
d="M514 1745q47 0 82 -34q34 -35 34 -83q0 -49 -34 -83q-35 -35 -83 -35q-49 0 -83 35q-35 34 -35 82q0 50 35 84t84 34z" />
    <glyph glyph-name="uniEA13" unicode="&#xea13;" vert-adv-y="2308" 
d="M514 1828q74 0 128 -54t54 -130t-54 -130t-130 -54t-130 54t-54 130q0 77 54 130q55 54 132 54zM511 1746q-41 0 -71 -30t-30 -72t30 -72t72 -30t72 30t30 72q0 43 -30 72q-31 30 -73 30z" />
    <glyph glyph-name="uniEA14" unicode="&#xea14;" vert-adv-y="2308" 
d="M435 1496l264 262h170l-315 -262h-119z" />
    <glyph glyph-name="uniEA15" unicode="&#xea15;" vert-adv-y="2308" 
d="M600 1496h-119l-315 262h170z" />
    <glyph glyph-name="uniEA16" unicode="&#xea16;" vert-adv-y="2308" 
d="M176 1496l261 262h151l261 -262h-109l-228 188l-227 -188h-109z" />
    <glyph glyph-name="uniEA17" unicode="&#xea17;" vert-adv-y="2308" 
d="M849 1758l-261 -262h-151l-261 262h109l228 -188l227 188h109z" />
    <glyph glyph-name="uniEA18" unicode="&#xea18;" vert-adv-y="2308" 
d="M241 1761h77q13 -57 48 -96q59 -67 147 -67q89 0 147 67q32 38 46 96h77q-8 -70 -33 -122q-72 -145 -235 -145q-164 0 -240 145q-26 51 -34 122z" />
    <glyph glyph-name="uniEA19" unicode="&#xea19;" vert-adv-y="2308" 
d="M264 1514l-79 34q15 64 35 104q47 89 146 89q68 0 156 -59q46 -30 71 -46q35 -20 70 -20q50 0 78 53q14 28 20 78l78 -35q-8 -66 -29 -104q-21 -41 -60 -66q-43 -28 -91 -28q-46 0 -88 22q-39 20 -89 53q-72 49 -115 49q-75 0 -103 -124z" />
    <glyph glyph-name="uniEA1A" unicode="&#xea1a;" vert-adv-y="2308" 
d="M322 1496l196 262h136l-230 -262h-102zM534 1496l196 262h136l-230 -262h-102z" />
    <glyph glyph-name="uniEA1B" unicode="&#xea1b;" vert-adv-y="2308" 
d="M476 0h88l-61 -144q186 -18 186 -159q0 -78 -61 -126q-53 -43 -146 -43q-69 0 -146 26v77q64 -18 104 -18q45 0 74 18q45 27 45 78q0 57 -60 79q-32 11 -107 14z" />
    <glyph glyph-name="uniEA1C" unicode="&#xea1c;" vert-adv-y="2308" 
d="M762 0h145q-119 -50 -157 -83q-52 -44 -52 -98q0 -46 37 -76q33 -27 89 -27q41 0 84 12v-88q-69 -21 -120 -21q-67 0 -121 28q-45 23 -71 69q-22 38 -22 82q0 105 110 169q32 19 78 33z" />
    <glyph glyph-name="uniEA1D" unicode="&#xea1d;" vert-adv-y="2308" 
d="M227 1672h571v-92h-571v92z" />
    <glyph glyph-name="uniEA1E" unicode="&#xea1e;" horiz-adv-x="1655" vert-adv-y="2308" 
d="M166 1159v64q81 3 120 27q38 25 53 88h64v-806h-85v627h-152zM1168 1331h100l-783 -1331h-98zM1144 586h-83q5 101 54 153q68 71 186 71q121 0 185 -71q48 -52 48 -127q0 -116 -110 -173q141 -58 141 -202q0 -133 -106 -203q-64 -43 -162 -43q-122 0 -191 60
q-70 62 -70 160q0 11 1 26h81q4 -169 175 -169q86 0 135 46q46 43 46 120q0 109 -98 147q-35 13 -89 13q-19 0 -43 -4v81q34 -2 45 -2q56 0 97 26q57 37 57 112q0 54 -33 87q-39 39 -112 39q-135 0 -154 -147z" />
    <glyph glyph-name="uniEA1F" unicode="&#xea1f;" horiz-adv-x="1655" vert-adv-y="2308" 
d="M207 1086h-85q3 255 247 255q90 0 151 -41q79 -53 79 -151q0 -70 -58 -154q-11 -16 -202 -255l-87 -109l-18 -24h379v-75h-493v62l28 35l77 97l88 112q129 163 151 194q44 62 44 116q0 58 -43 88q-40 29 -100 29q-149 0 -158 -179zM1168 1331h100l-784 -1331h-97z
M1142 586h-82q5 100 55 153q67 71 185 71q120 0 185 -71q48 -52 48 -127q0 -117 -110 -173q141 -57 141 -202q0 -133 -106 -203q-64 -43 -162 -43q-122 0 -191 60q-70 62 -70 160q0 12 1 26h81q4 -169 175 -169q86 0 135 46q46 43 46 120q0 109 -98 147q-35 13 -88 13
q-20 0 -44 -4v81q34 -2 45 -2q56 0 97 26q57 37 57 112q0 54 -33 87q-39 39 -112 39q-135 0 -155 -147z" />
    <glyph glyph-name="uniEA21" unicode="&#xea21;" horiz-adv-x="1602" vert-adv-y="2308" 
d="M166 1628h254v-254h254v254h254v-254h254v254h254v-254h-254v-254h254v-254h-254v-254h254v-254h-254v-254h254v-254h-254v254h-254v254h254v254h-254v254h254v254h-254v254h-254v-254h254v-254h-254v-254h254v-254h-254v-254h254v-254h-254v254h-254v-254h-254v254h254
v254h-254v254h254v-254h254v254h-254v254h-254v254h254v-254h254v254h-254v254h-254v254z" />
    <glyph glyph-name="uniEA31" unicode="&#xea31;" vert-adv-y="2308" 
d="M697 1233h-60q-22 86 -109 86q-50 0 -83 -30q-53 -48 -53 -149q0 -93 48 -145q32 -35 87 -35q107 0 117 117h60q-4 -64 -35 -106q-46 -64 -140 -64q-82 0 -135 52q-67 64 -67 181q0 130 80 192q50 40 121 40q147 0 169 -139zM521 1525q153 0 266 -113q113 -112 113 -272
q0 -159 -113 -272q-112 -113 -271 -113t-272 113t-113 271q0 163 113 273q115 113 277 113zM512 1464q-127 0 -221 -94q-94 -95 -94 -230q0 -134 94 -229q93 -95 225 -95q131 0 224 95q94 95 94 228q0 138 -94 231q-96 94 -228 94z" />
    <glyph glyph-name="uniEA32" unicode="&#xea32;" vert-adv-y="2308" 
d="M401 1365h83q88 0 130 -12q43 -13 67 -47q20 -30 20 -69q0 -88 -97 -122l112 -200h-69l-105 190h-80v-190h-61v450zM462 1158h23q73 0 100 8q51 16 51 71q0 51 -43 66q-26 9 -107 9h-24v-154zM542 1525q153 0 266 -113q113 -112 113 -272q0 -159 -113 -272
q-112 -113 -271 -113t-272 113t-113 271q0 163 113 273q115 113 277 113zM533 1464q-127 0 -221 -94q-94 -95 -94 -230q0 -134 94 -229q93 -95 225 -95q131 0 224 95q94 95 94 228q0 138 -94 231q-96 94 -228 94z" />
    <glyph glyph-name="uniEA3F" unicode="&#xea3f;" vert-adv-y="2308" 
d="M676 1026h-85q114 104 128 188q-11 -2 -17 -2q-34 0 -60 28q-23 25 -23 60q0 42 32 69q26 23 63 23q42 0 71 -30q31 -31 31 -87q0 -115 -140 -249z" />
    <glyph glyph-name="uniEA4E" unicode="&#xea4e;" vert-adv-y="2308" 
d="M0 1600h1024v-96h-1024v96z" />
    <glyph glyph-name="Hochkomma" unicode="&#xea4f;" vert-adv-y="2308" 
d="M539 1516h85q-114 -105 -128 -188q12 1 17 1q35 0 61 -28q23 -25 23 -60q0 -42 -32 -70q-27 -23 -64 -23q-42 0 -71 30q-31 31 -31 87q0 114 140 251z" />
    <glyph glyph-name="uniEA66" unicode="&#xea66;" vert-adv-y="2308" 
d="M484 -487h-88q119 109 132 194q-12 -2 -18 -2q-35 0 -61 29q-24 26 -24 61q0 44 32 72q28 24 67 24q42 0 72 -31q32 -32 32 -89q0 -118 -144 -258z" />
    <glyph glyph-name="uniEA67" unicode="&#xea67;" vert-adv-y="2308" 
d="M689 1015h-88q119 109 132 193q-11 -1 -17 -1q-36 0 -62 29q-24 25 -24 61q0 43 32 71q28 24 67 24q42 0 72 -31q32 -32 32 -89q0 -117 -144 -257z" />
    <glyph glyph-name="uniEA68" unicode="&#xea68;" vert-adv-y="2308" 
d="M377 1730q41 0 72 -30q30 -30 30 -73q0 -42 -30 -73q-31 -30 -73 -30t-73 30q-30 31 -30 73q0 43 30 73q31 30 74 30zM650 1731q41 0 72 -30q30 -30 30 -73q0 -42 -30 -73q-31 -30 -73 -30t-73 30q-30 31 -30 73q0 43 30 73q31 30 74 30z" />
    <glyph glyph-name="Unterkomma" unicode="&#xea69;" vert-adv-y="2308" 
d="M484 -476h-85q114 104 128 188q-12 -2 -18 -2q-33 0 -59 28q-23 25 -23 60q0 42 32 70q26 23 63 23q42 0 71 -30q31 -32 31 -87q0 -115 -140 -250z" />
    <glyph glyph-name="uniEA6A" unicode="&#xea6a;" vert-adv-y="2308" 
d="M383 1377q38 0 67 -28q28 -29 28 -68q0 -40 -28 -69q-29 -28 -68 -28q-40 0 -69 28q-28 29 -28 68q0 41 28 69q29 28 70 28zM644 1377q38 0 67 -28q28 -29 28 -68q0 -40 -28 -69q-29 -28 -68 -28q-40 0 -69 28q-28 29 -28 68q0 41 28 69q29 28 70 28z" />
    <glyph glyph-name="uniEA6B" unicode="&#xea6b;" horiz-adv-x="1233" vert-adv-y="2308" 
d="M1108 1009h-114q-67 274 -332 274q-185 0 -296 -150q-122 -167 -122 -450q0 -308 145 -481q100 -120 276 -120q201 0 293 164q48 84 61 203h114q-17 -173 -91 -283q-127 -189 -371 -189q-249 0 -396 179q-159 194 -159 524q0 372 193 565q142 143 355 143q221 0 346 -146
q77 -90 98 -233zM622 -487h-88q119 109 132 194q-12 -2 -18 -2q-34 0 -61 29q-24 25 -24 61q0 44 33 72q27 24 66 24q43 0 73 -31q32 -32 32 -89q0 -118 -145 -258z" />
    <glyph glyph-name="uniEA6C" unicode="&#xea6c;" horiz-adv-x="955" vert-adv-y="2308" 
d="M845 656h-106q-14 96 -58 155q-64 88 -180 88q-122 0 -195 -94q-95 -122 -95 -321q0 -214 108 -333q71 -78 187 -78q129 0 193 105q38 61 46 150h110q-14 -147 -84 -235q-91 -117 -260 -117q-161 0 -270 105q-141 137 -141 401q0 277 156 421q101 93 248 93
q190 0 283 -147q47 -76 58 -193zM470 -476h-85q115 104 128 188q-11 -2 -17 -2q-34 0 -60 28q-23 25 -23 60q0 42 32 70q27 23 64 23q42 0 71 -30q31 -32 31 -87q0 -114 -141 -250z" />
    <glyph glyph-name="Scommaaccent" unicode="&#xea6d;" horiz-adv-x="1109" vert-adv-y="2308" 
d="M940 1028h-114q-12 112 -69 173q-77 82 -211 82q-107 0 -178 -55q-88 -67 -88 -172q0 -96 86 -158q45 -33 97 -57l152 -71q222 -103 287 -185q78 -97 78 -229q0 -189 -148 -296q-115 -83 -283 -83q-226 0 -341 142q-82 100 -92 281h116q7 -135 69 -212q41 -50 109 -78
t144 -28q132 0 218 74q86 75 86 193q0 107 -78 179q-53 50 -204 119q-219 101 -279 144q-136 98 -136 257q0 156 122 253q109 87 271 87q215 0 320 -147q59 -82 66 -213zM506 -487h-88q119 109 132 194q-12 -2 -18 -2q-35 0 -61 29q-24 26 -24 61q0 44 32 72q28 24 67 24
q42 0 72 -31q32 -32 32 -89q0 -118 -144 -258z" />
    <glyph glyph-name="scommaaccent" unicode="&#xea6e;" horiz-adv-x="865" vert-adv-y="2308" 
d="M757 711h-104q-10 92 -54 135q-55 54 -159 54q-95 0 -153 -50q-49 -43 -49 -112q0 -64 45 -99q43 -34 177 -74q150 -45 201 -75q116 -68 116 -217q0 -127 -82 -207q-92 -90 -255 -90q-213 0 -299 132q-46 72 -46 183h105q20 -218 240 -218q96 0 157 47q67 51 67 142
q0 84 -60 126q-27 19 -75 36q-15 5 -146 46q-147 46 -200 106q-56 64 -56 158q0 130 102 200q89 62 213 62q101 0 179 -41q128 -67 136 -244zM405 -476h-85q114 104 128 188q-12 -2 -18 -2q-33 0 -59 28q-23 25 -23 60q0 42 32 70q26 23 63 23q42 0 71 -30q31 -32 31 -87
q0 -115 -140 -250z" />
    <glyph glyph-name="peseta" unicode="&#xea71;" horiz-adv-x="1065" vert-adv-y="2308" 
d="M931 1026h91v-83h-87q-11 -195 -146 -291q-95 -64 -251 -73q-64 -5 -186 -5h-100v-574h-122v943h-87v83h87v339h194q197 1 291 -15q167 -25 259 -164q45 -71 57 -160zM246 943v-267h102q231 -2 322 38t124 150q9 32 13 79h-561zM246 1026h557q-23 155 -151 205
q-65 24 -182 30q-37 2 -149 2h-75v-237z" />
    <glyph glyph-name="enonehalf" unicode="&#xea72;" horiz-adv-x="514" vert-adv-y="2308" 
d="M124 1208v50q59 2 85 18q26 17 36 60h51v-551h-66v423h-106zM4 707h412v-71h-412v71zM101 374h-65q3 179 175 179q63 0 108 -29q56 -36 56 -104q0 -39 -19.5 -73.5t-91.5 -118.5q-31 -39 -71 -86q-34 -42 -69 -84h261v-58h-350v47l20 25l54 65l61 75q89 110 105 131
q30 41 30 77t-28 56q-28 19 -68 19q-101 0 -108 -121z" />
    <glyph glyph-name="enonequarter" unicode="&#xea73;" horiz-adv-x="514" vert-adv-y="2308" 
d="M124 1208v50q59 2 85 18q26 17 36 60h51v-551h-66v423h-106zM4 707h412v-71h-412v71zM313 193h101v-59h-100v-138h-68v138h-240v46l247 371h60v-358zM248 193v253l-166 -253h166z" />
    <glyph glyph-name="enthreequarters" unicode="&#xea74;" horiz-adv-x="514" vert-adv-y="2308" 
d="M149 1180h-64q4 73 39 109q48 49 132 49q85 0 132 -49q34 -35 34 -88q0 -75 -72 -117q94 -39 94 -136q0 -92 -76 -140q-45 -29 -115 -29q-85 0 -134 41q-51 42 -51 116v15h63q2 -113 119 -113q124 0 124 108q0 103 -131 103q-13 0 -30 -2v62q23 -2 36 -2q37 0 65 17
q38 24 38 74q0 34 -22 56q-26 26 -76 26q-92 0 -105 -100zM50 707h412v-71h-412v71zM359 193h101v-59h-100v-138h-68v138h-240v46l247 371h60v-358zM294 193v253l-166 -253h166z" />
    <glyph glyph-name="periodsuperior" unicode="&#xeab9;" horiz-adv-x="365" vert-adv-y="2308" 
d="M181 670q29 0 51 -22q21 -21 21 -51t-22 -51t-51 -21t-50 21q-22 21 -22 51t21 51q21 22 52 22z" />
    <glyph glyph-name="commasuperior" unicode="&#xeaba;" horiz-adv-x="337" vert-adv-y="2308" 
d="M151 384h-106q96 80 112 141q-72 10 -72 68q0 33 26 54q23 18 53 18q34 0 58 -23q26 -24 26 -65q0 -90 -97 -193z" />
    <glyph glyph-name="hp1089" unicode="&#xefed;" vert-adv-y="2308" 
d="M514 1745q47 0 82 -34q34 -35 34 -83q0 -49 -34 -83q-35 -35 -83 -35q-49 0 -83 35q-35 34 -35 82q0 50 35 84t84 34z" />
    <glyph glyph-name="hp1087" unicode="&#xefee;" vert-adv-y="2308" 
d="M241 1761h77q13 -57 48 -96q59 -67 147 -67q89 0 147 67q32 38 46 96h77q-8 -70 -33 -122q-72 -145 -235 -145q-164 0 -240 145q-26 51 -34 122z" />
    <glyph glyph-name="hp1085" unicode="&#xefef;" vert-adv-y="2308" 
d="M227 1672h571v-92h-571v92z" />
    <glyph glyph-name="hp1045" unicode="&#xeff0;" vert-adv-y="2308" 
d="M322 1496l196 262h136l-230 -262h-102zM534 1496l196 262h136l-230 -262h-102z" />
    <glyph glyph-name="hp1030" unicode="&#xeff1;" vert-adv-y="2308" 
d="M762 0h145q-119 -50 -157 -83q-52 -44 -52 -98q0 -46 37 -76q33 -27 89 -27q41 0 84 12v-88q-69 -21 -120 -21q-67 0 -121 28q-45 23 -71 69q-22 38 -22 82q0 105 110 169q32 19 78 33z" />
    <glyph glyph-name="hp0330" unicode="&#xeff2;" vert-adv-y="2308" 
d="M476 0h88l-61 -144q186 -18 186 -159q0 -78 -61 -126q-53 -43 -146 -43q-69 0 -146 26v77q64 -18 104 -18q45 0 74 18q45 27 45 78q0 57 -60 79q-32 11 -107 14z" />
    <glyph glyph-name="hp0323" unicode="&#xeff3;" vert-adv-y="2308" 
d="M514 1828q74 0 128 -54t54 -130t-54 -130t-130 -54t-130 54t-54 130q0 77 54 130q55 54 132 54zM511 1746q-41 0 -71 -30t-30 -72t30 -72t72 -30t72 30t30 72q0 43 -30 72q-31 30 -73 30z" />
    <glyph glyph-name="hp0322" unicode="&#xeff4;" vert-adv-y="2308" 
d="M849 1758l-261 -262h-151l-261 262h109l228 -188l227 188h109z" />
    <glyph glyph-name="hp0321" unicode="&#xeff5;" vert-adv-y="2308" 
d="M264 1514l-79 34q15 64 35 104q47 89 146 89q68 0 156 -59q46 -30 71 -46q35 -20 70 -20q50 0 78 53q14 28 20 78l78 -35q-8 -66 -29 -104q-21 -41 -60 -66q-43 -28 -91 -28q-46 0 -88 22q-39 20 -89 53q-72 49 -115 49q-75 0 -103 -124z" />
    <glyph glyph-name="hp0320" unicode="&#xeff6;" vert-adv-y="2308" 
d="M333 1732q42 0 73 -31q31 -30 31 -74q0 -43 -31 -74t-74 -31t-74 31t-31 74q0 44 31 74q32 31 75 31zM693 1732q42 0 73 -31t31 -74t-31 -74t-74 -31t-74 31t-31 74q0 44 31 74q32 31 75 31z" />
    <glyph glyph-name="hp0319" unicode="&#xeff7;" vert-adv-y="2308" 
d="M176 1496l261 262h151l261 -262h-109l-228 188l-227 -188h-109z" />
    <glyph glyph-name="hp0318" unicode="&#xeff8;" vert-adv-y="2308" 
d="M600 1496h-119l-315 262h170z" />
    <glyph glyph-name="hp0317" unicode="&#xeff9;" vert-adv-y="2308" 
d="M435 1496l264 262h170l-315 -262h-119z" />
    <glyph glyph-name="ff" unicode="&#xfb00;" horiz-adv-x="1103" vert-adv-y="2308" 
d="M726 969v63q0 115 8 162q14 80 63 129q67 65 173 65q61 0 131 -25v-108q-57 36 -123 36q-95 0 -126 -83q-17 -47 -17 -159v-80h246v-89h-238v-880h-117v880h-435v-880h-117v880h-140v89h140v63q0 115 8 162q14 80 64 129q67 65 171 65q60 0 132 -25v-108q-58 36 -123 36
q-96 0 -126 -83q-16 -44 -16 -159v-80h442z" />
    <glyph glyph-name="ffi" unicode="&#xfb03;" horiz-adv-x="1526" vert-adv-y="2308" 
d="M726 969v63q0 115 8 162q14 80 63 129q67 65 173 65q61 0 131 -25v-108q-57 36 -123 36q-95 0 -126 -83q-17 -47 -17 -159v-80h246v-89h-238v-880h-117v880h-435v-880h-117v880h-140v89h140v63q0 115 8 162q14 80 64 129q67 65 171 65q60 0 132 -25v-108q-58 36 -123 36
q-96 0 -126 -83q-16 -44 -16 -159v-80h442zM1255 969h117v-969h-117v969zM1314 1381q33 0 58 -20q32 -27 32 -72q0 -33 -21 -57q-25 -32 -69 -32q-38 0 -64 25q-27 25 -27 64q0 41 28 67q26 25 63 25z" />
    <glyph glyph-name="ffl" unicode="&#xfb04;" horiz-adv-x="1526" vert-adv-y="2308" 
d="M726 969v63q0 115 8 162q14 80 63 129q67 65 173 65q61 0 131 -25v-108q-57 36 -123 36q-95 0 -126 -83q-17 -47 -17 -159v-80h246v-89h-238v-880h-117v880h-435v-880h-117v880h-140v89h140v63q0 115 8 162q14 80 64 129q67 65 171 65q60 0 132 -25v-108q-58 36 -123 36
q-96 0 -126 -83q-16 -44 -16 -159v-80h442zM1255 1371h117v-1371h-117v1371z" />
    <glyph glyph-name="glyph585" horiz-adv-x="512" vert-adv-y="2308" 
 />
    </font>
</defs>
</svg>
